<?xml version="1.0" encoding="UTF-8"?><svg id="_레이어_1" xmlns="http://www.w3.org/2000/svg" xmlns:xlink="http://www.w3.org/1999/xlink" viewBox="0 0 128 128"><defs><style>.cls-1{fill:#fff;}.cls-2{fill:url(#_무제_그라디언트_48);}</style><linearGradient id="_무제_그라디언트_48" x1="64" y1="128" x2="64" y2="0" gradientUnits="userSpaceOnUse"><stop offset="0" stop-color="#7096d1"/><stop offset=".13" stop-color="#85a6db"/><stop offset=".37" stop-color="#a5c0ea"/><stop offset=".6" stop-color="#bcd3f5"/><stop offset=".82" stop-color="#cbdffc"/><stop offset="1" stop-color="#d0e3ff"/></linearGradient></defs><rect class="cls-2" width="128" height="128" rx="23.94" ry="23.94"/><path class="cls-1" d="M110.23,63.18l-33.43-5.79,7.42-15.61-15.61,7.42-5.79-29.2-5.79,29.2-15.61-7.42,7.42,15.61-31.08,5.79,31.08,5.79-7.42,15.61,15.61-7.42,5.79,30.84,5.79-30.84,15.61,7.42-7.42-15.61,33.43-5.79Zm-43.48,3.16l-3.81,14.56-4.02-14.56-12.07-3.22,12.07-2.94,4.02-14.3,3.81,14.3,12.27,2.94-12.27,3.22Z"/></svg>