<?xml version="1.0" encoding="UTF-8"?><svg id="_레이어_1" xmlns="http://www.w3.org/2000/svg" xmlns:xlink="http://www.w3.org/1999/xlink" viewBox="0 0 128 128"><defs><style>.cls-1{fill:#fff;}.cls-2{fill:url(#_무제_그라디언트_48);}</style><linearGradient id="_무제_그라디언트_48" x1="64" y1="128" x2="64" y2="0" gradientUnits="userSpaceOnUse"><stop offset="0" stop-color="#7096d1"/><stop offset=".13" stop-color="#85a6db"/><stop offset=".37" stop-color="#a5c0ea"/><stop offset=".6" stop-color="#bcd3f5"/><stop offset=".82" stop-color="#cbdffc"/><stop offset="1" stop-color="#d0e3ff"/></linearGradient></defs><rect class="cls-2" width="128" height="128" rx="23.94" ry="23.94"/><path class="cls-1" d="M110.23,53.18l-33.43-5.79,7.42-15.61-15.61,7.42-5.79-29.2-5.79,29.2-15.61-7.42,7.42,15.61-31.08,5.79,31.08,5.79-7.42,15.61,15.61-7.42,5.79,30.84,5.79-30.84,15.61,7.42-7.42-15.61,33.43-5.79Zm-43.48,3.16l-3.81,14.56-4.02-14.56-12.07-3.22,12.07-2.94,4.02-14.3,3.81,14.3,12.27,2.94-12.27,3.22Z"/><g><path class="cls-1" d="M44.77,106h-8.37v-1.06h3.67l.48-2.46h1.22l-.48,2.46h3.49v1.06Zm-.75,3.71c0,.85-.27,3.2-.58,4.27-.53,1.73-1.92,2.06-3.39,2.06-2.83,0-3.59-1.58-3.35-3.47,.1-.85,.11-2,.43-3.36,.43-2.06,2.11-2.46,3.63-2.46,2.29,0,3.33,1.31,3.25,2.96Zm-1.52,3.41c.19-.98,.32-2.18,.37-3.19,.08-1.78-.96-2.13-2.16-2.13-.93,0-2.02,.19-2.4,1.62-.21,.82-.4,2.58-.45,3.46-.13,1.68,1.03,2.11,2.18,2.11,.93,0,2.16-.24,2.46-1.87Zm7.65-4.18v1.06h-2.29v6.07h-1.12v-13.38h1.12v6.26h2.29Z"/><path class="cls-1" d="M50.71,107.94h12.93v1.06h-12.93v-1.06Zm11.73-2.3v1.06h-10.47v-3.99h1.12v2.93h9.35Zm-.08,4.63v3.5h-9.27v1.58h9.51v1.06h-10.63v-3.7h9.27v-1.39h-9.27v-1.06h10.39Z"/><path class="cls-1" d="M72.29,114.85v1.06h-7.19v-13.05h6.96v1.06h-5.84v4.64h5.71v1.06h-5.71v5.23h6.07Zm5.92-6.51v1.06h-2.42v6.67h-1.12v-13.38h1.12v5.65h2.42Z"/><path class="cls-1" d="M90.42,107.62h-9.27v2.83h9.49v1.06h-4.87v3.51h5.91v1.06h-12.92v-1.06h5.89v-3.51h-4.63v-4.95h9.27v-2.8h-9.25v-1.06h10.37v4.91Z"/></g></svg>