<?xml version="1.0" encoding="UTF-8"?><svg id="_레이어_2" xmlns="http://www.w3.org/2000/svg" viewBox="0 0 300 300"><defs><style>.cls-1{fill:#fff;}.cls-2{fill:#081f5c;}.cls-3{fill:#ffe650;}</style></defs><path class="cls-3" d="M249.32,150.66l-44.34-7.68,9.84-20.7-20.7,9.84-7.68-53.54-7.68,53.54-20.7-9.84,9.84,20.7-41.22,7.68,41.22,7.68-9.84,20.7,20.7-9.84,7.68,52.8,7.68-52.8,20.7,9.84-9.84-20.7,44.34-7.68Zm-57.66,4.19l-5.06,19.31-5.33-19.31-16.01-4.27,16.01-3.9,5.33-18.96,5.06,18.96,16.28,3.9-16.28,4.27Z"/><g><circle class="cls-2" cx="221.22" cy="110.93" r="5.32"/><circle class="cls-2" cx="236.38" cy="132.8" r="4.41"/><circle class="cls-2" cx="236.35" cy="166.24" r="3.04"/><circle class="cls-2" cx="215.99" cy="191.89" r="1.83"/><circle class="cls-2" cx="228.68" cy="182.1" r="2.24"/></g><path class="cls-1" d="M178.77,169.2l-20.7,9.84,9.84-20.7-41.22-7.68,41.22-7.68-9.84-20.7,20.7,9.84,3.49-24.35c-3.08-1.5-6.51-2.36-10.13-2.36-6.12,0-11.71,2.4-15.96,6.34-6.6-13.08-19.7-22.01-34.81-22.01-21.59,0-39.11,18.22-39.34,40.79h-.43c-14.5,0-26.37,12.44-26.37,27.64s11.87,27.64,26.37,27.64h99.59l-2.42-16.61Z"/></svg>