<svg width="108" height="101" viewBox="0 0 108 101" fill="none" xmlns="http://www.w3.org/2000/svg">
<g clip-path="url(#clip0_7_351)" filter="url(#filter0_i_7_351)">
<path d="M68.3404 63.3434C80.2204 63.3434 89.851 53.6922 89.851 41.7869C89.851 29.8816 80.2204 20.2305 68.3404 20.2305C56.4604 20.2305 46.8298 29.8816 46.8298 41.7869C46.8298 53.6922 56.4604 63.3434 68.3404 63.3434Z" fill="#FFE650"/>
<path d="M30.3705 32.048C33.5444 32.9887 36.7182 33.9384 39.8831 34.8792L41.2689 35.2913C42.9228 35.7841 43.6381 33.1948 41.9841 32.702C38.8103 31.7613 35.6364 30.8116 32.4715 29.8708L31.0858 29.4587C29.4318 28.9659 28.7166 31.5552 30.3705 32.048Z" fill="#FFE650"/>
<path d="M37.3798 16.6109C39.8652 18.8238 42.3596 21.0279 44.845 23.2409C45.1937 23.5544 45.5424 23.8591 45.8911 24.1726C46.4185 24.6385 47.2768 24.7281 47.7864 24.1726C48.2513 23.6619 48.3497 22.766 47.7864 22.2732C45.301 20.0602 42.8066 17.8562 40.3212 15.6432C39.9725 15.3297 39.6238 15.025 39.2752 14.7114C38.7477 14.2456 37.8894 14.156 37.3798 14.7114C36.9149 15.2221 36.8166 16.1181 37.3798 16.6109Z" fill="#FFE650"/>
<path d="M50.3344 5.94012C51.6576 8.9953 52.9808 12.0505 54.304 15.1056L54.8583 16.3958C55.1444 17.0588 56.1189 17.2111 56.6911 16.8796C57.3795 16.4764 57.4599 15.7059 57.1738 15.0429C55.8507 11.9878 54.5275 8.93258 53.2043 5.8774L52.65 4.58724C52.3639 3.92424 51.3894 3.77193 50.8172 4.10343C50.1288 4.50661 50.0483 5.27712 50.3344 5.94012Z" fill="#FFE650"/>
<path d="M66.4629 1.29911C66.3735 4.61411 66.2841 7.93807 66.1947 11.2531L66.1589 12.6866C66.1142 14.4158 68.7964 14.4158 68.8411 12.6866C68.9305 9.37158 69.0199 6.04762 69.1093 2.73262L69.145 1.29911C69.1897 -0.430066 66.5076 -0.430066 66.4629 1.29911Z" fill="#FFE650"/>
<path d="M83.1546 4.0228C81.6705 6.99734 80.1864 9.97188 78.7023 12.9464L78.0676 14.2097C77.7457 14.8548 77.8977 15.6611 78.5503 16.0464C79.1404 16.3958 80.0613 16.2166 80.3831 15.5626C81.8672 12.588 83.3513 9.6135 84.8354 6.63896L85.4702 5.37568C85.7921 4.7306 85.6401 3.92425 84.9874 3.53899C84.3974 3.18957 83.4765 3.36876 83.1546 4.0228Z" fill="#FFE650"/>
<path d="M96.8245 13.9588C94.2228 16.0285 91.6212 18.1071 89.0106 20.1767L87.9199 21.0458C87.3566 21.4937 87.446 22.4703 87.9199 22.9452C88.4831 23.5096 89.243 23.4021 89.8152 22.9452C92.4169 20.8755 95.0185 18.7969 97.6291 16.7273L98.7199 15.8582C99.2831 15.4103 99.1937 14.4337 98.7199 13.9588C98.1566 13.3944 97.3967 13.5019 96.8245 13.9588Z" fill="#FFE650"/>
<path d="M105.363 28.4642C102.135 29.2437 98.8987 30.0142 95.6712 30.7937L94.3122 31.1162C92.6314 31.5194 93.3467 34.1087 95.0275 33.7055C98.255 32.926 101.491 32.1555 104.719 31.376C105.175 31.2685 105.631 31.161 106.078 31.0535C107.759 30.6503 107.043 28.061 105.363 28.4642Z" fill="#FFE650"/>
<path d="M107.017 45.299C103.762 44.636 100.517 43.973 97.2626 43.3011C96.7977 43.2025 96.3328 43.1129 95.8768 43.0144C95.1705 42.871 94.4285 43.2204 94.2228 43.9551C94.044 44.6181 94.4464 45.4603 95.1616 45.6126C98.4159 46.2756 101.661 46.9386 104.916 47.6106C105.38 47.7091 105.845 47.7987 106.301 47.8973C107.008 48.0406 107.75 47.6912 107.955 46.9565C108.134 46.2935 107.732 45.4513 107.017 45.299Z" fill="#FFE650"/>
<path d="M89.6632 51.1764C87.8126 51.1764 86.0334 51.4631 84.3616 52.0007C82.2427 44.6808 75.5106 39.3141 67.5268 39.3141C62.7705 39.3141 58.4523 41.2225 55.2964 44.3045C52.3103 38.8841 46.5526 35.2196 39.9368 35.2196C30.5583 35.2196 22.9232 42.6022 22.4404 51.8842C20.8848 51.4273 19.2397 51.1764 17.5411 51.1764C7.84967 51.1764 0 59.0428 0 68.7549C0 78.4669 7.84967 86.3334 17.5411 86.3334C18.6765 86.3334 19.7851 86.2169 20.8579 86.0108C22.9411 93.3845 29.6911 98.796 37.7195 98.796C44.1298 98.796 49.7175 95.3376 52.7752 90.1949C55.4215 96.5471 61.6709 101.009 68.9662 101.009C77.7815 101.009 85.05 94.4865 86.3017 86.0019C87.3924 86.2169 88.5099 86.3334 89.6632 86.3334C99.3546 86.3334 107.204 78.4669 107.204 68.7549C107.204 59.0428 99.3546 51.1764 89.6632 51.1764Z" fill="white"/>
<path d="M86.1228 38.23H87.9735V39.126H79.2566V38.23H81.1073V21.2429L79.2566 21.8252V20.7411L86.1228 18.2235V38.23Z" fill="#92CBFF"/>
</g>
<defs>
<filter id="filter0_i_7_351" x="-2" y="-4" width="110" height="105" filterUnits="userSpaceOnUse" color-interpolation-filters="sRGB">
<feFlood flood-opacity="0" result="BackgroundImageFix"/>
<feBlend mode="normal" in="SourceGraphic" in2="BackgroundImageFix" result="shape"/>
<feColorMatrix in="SourceAlpha" type="matrix" values="0 0 0 0 0 0 0 0 0 0 0 0 0 0 0 0 0 0 127 0" result="hardAlpha"/>
<feOffset dx="-2" dy="-4"/>
<feGaussianBlur stdDeviation="2"/>
<feComposite in2="hardAlpha" operator="arithmetic" k2="-1" k3="1"/>
<feColorMatrix type="matrix" values="0 0 0 0 0 0 0 0 0 0 0 0 0 0 0 0 0 0 0.15 0"/>
<feBlend mode="normal" in2="shape" result="effect1_innerShadow_7_351"/>
</filter>
<clipPath id="clip0_7_351">
<rect width="108" height="101" fill="white"/>
</clipPath>
</defs>
</svg>
