<?xml version="1.0" encoding="UTF-8"?><svg xmlns="http://www.w3.org/2000/svg" viewBox="0 0 1080 1944"><defs><style>.cls-1{fill:#fff;}.cls-2{fill:#b6d1e5;}.cls-3{fill:#f6ef84;}.cls-4{fill:#3f3730;}.cls-5{fill:#4c5fa9;}.cls-6{fill:none;stroke:#b1d4f0;stroke-miterlimit:10;stroke-width:10px;}.cls-7{fill:#bad6eb;}.cls-8{fill:#c8c0de;}.cls-9{fill:#b1d4f0;}.cls-10{fill:#eddfed;}</style></defs><g id="_배경"><g><rect class="cls-7" width="1080" height="1944"/><rect class="cls-1" x="74.84" y="186.39" width="930.33" height="1606.64" rx="65.21" ry="65.21"/><g><path class="cls-4" d="M265.09,1646.47c1.52,0,2.29,.49,2.29,1.46l-1.41,7.79-.29,14.47c-.2,4.73-.92,9.08-2.17,13.07-1.13,3.71-2.72,7.09-4.75,10.14-1.84,2.81-4.04,5.29-6.62,7.44-2.38,1.99-5,3.67-7.85,5.04-2.66,1.25-5.45,2.19-8.38,2.81-2.7,.62-5.41,.94-8.14,.94-6.37,0-11.36-1.38-14.97-4.13-3.61-2.75-5.42-5.42-5.42-8,0-1.48,1.34-3.4,4.01-5.74,2.67-2.34,4.7-3.52,6.06-3.52,1.68,0,2.52,1.56,2.52,4.69,0,5.08,.83,8.37,2.49,9.87,1.66,1.5,3.88,2.26,6.65,2.26,4.49,0,8.43-1.43,11.81-4.28,3.38-2.85,5.65-6.26,6.83-10.22,1.17-3.96,1.78-9.81,1.82-17.55,.04-7.73,.62-13.06,1.73-15.97,1.11-2.91,3.15-5.4,6.12-7.47,2.97-2.07,5.53-3.11,7.68-3.11Zm21.97-17.99c-1.13,8.4-4.71,12.6-10.72,12.6-2.11,0-6.15-.95-12.13-2.84-5.98-1.89-11.13-2.84-15.47-2.84-5.59,0-10.42,2.07-14.5,6.22-4.08,4.15-6.12,7.77-6.12,10.86s1.88,5.69,5.62,8.04c1.52,.98,2.29,1.86,2.29,2.64,0,1.06-1.08,2.48-3.25,4.28s-3.8,2.7-4.89,2.7c-1.84,0-3.55-1.05-5.16-3.16-1.6-2.11-2.4-4.41-2.4-6.91,0-4.84,1.97-10.13,5.92-15.85,3.95-5.72,9.1-10.39,15.47-14,6.37-3.61,13.05-5.42,20.04-5.42,4.73,0,9.2,.71,13.42,2.14,4.22,1.43,6.86,2.14,7.91,2.14,.94,0,1.74-.27,2.4-.82l.35-.12,1.23,.35Z"/><path class="cls-4" d="M339.39,1695.34c-9.26,9.61-16.88,14.41-22.85,14.41-2.66,0-4.85-.91-6.59-2.72-1.74-1.82-2.61-4.11-2.61-6.88,0-4.69,1.8-11.29,5.39-19.8,1.91-4.61,2.87-7.62,2.87-9.02,0-1.6-.76-2.4-2.29-2.4s-3.83,1.06-6.8,3.19c-2.97,2.13-6.09,5.03-9.38,8.7-1.37,7.19-2.05,15.82-2.05,25.9l-13.07,3.05c-.51-4.1-.76-8.55-.76-13.36,0-11.64,1.6-22.48,4.8-32.52,3.2-10.04,8.24-20.68,15.12-31.93,5.12-2.07,9.58-3.76,13.39-5.07,3.81-1.31,5.99-1.96,6.53-1.96,1.02,0,1.88,.82,2.58,2.46s1.05,3.69,1.05,6.15c0,4.14-1.27,8.72-3.81,13.74-2.54,5.02-6.52,11.08-11.95,18.19,5.2-3.01,8.66-4.9,10.38-5.68,1.72-.78,3.48-1.17,5.28-1.17,1.99,0,3.61,.71,4.84,2.14s1.85,3.31,1.85,5.66c0,3.52-1.4,8.97-4.2,16.35-2.8,7.38-4.2,12.01-4.2,13.88,0,.86,.26,1.62,.79,2.29s1.14,1,1.84,1c2.5,0,7.11-3.77,13.82-11.31v6.74Zm-40.61-24.02c13.95-16.21,20.92-28.16,20.92-35.86,0-2.34-.64-3.52-1.93-3.52-2.15,0-5.21,3.85-9.2,11.54-3.98,7.7-7.25,16.97-9.79,27.83Z"/><path class="cls-4" d="M383.16,1695.34c-4.96,4.88-9.41,8.49-13.36,10.81-3.95,2.32-8.3,3.49-13.07,3.49-5.31,0-9.6-1.7-12.86-5.1-3.26-3.4-4.89-7.87-4.89-13.42,0-8.28,2.87-15.77,8.61-22.47,5.74-6.7,12.11-10.05,19.1-10.05,3.63,0,6.54,.94,8.73,2.81,2.19,1.88,3.28,4.34,3.28,7.38,0,8.09-8.59,14.65-25.78,19.69,1.56,7.62,5.64,11.43,12.25,11.43,2.58,0,5.04-.69,7.38-2.08,2.34-1.39,5.88-4.46,10.61-9.23v6.74Zm-30.7-10.84c10-2.81,15-8.01,15-15.59,0-3.75-1.37-5.62-4.1-5.62-2.58,0-5.04,1.96-7.38,5.89s-3.52,9.03-3.52,15.32Z"/><path class="cls-4" d="M533.22,1695.34c-8.75,9.41-16.72,14.12-23.91,14.12-4.38,0-7.71-2.11-9.99-6.33s-3.43-9.86-3.43-16.93c0-5.47,1.12-12.99,3.37-22.56,2.25-9.57,5.15-17.62,8.7-24.14l3.4-6.09c-4.65,4.84-8.46,10.15-11.43,15.91-2.97,5.76-6.51,13.82-10.63,24.17-4.12,10.35-7.24,17.4-9.35,21.15s-4.13,6.81-6.06,9.17c-1.93,2.36-3.65,3.9-5.16,4.6-1.5,.7-4.13,1.05-7.88,1.05-1.45,0-2.17-.39-2.17-1.17,0-.08,.26-1.31,.78-3.69,.52-2.38,1.04-6.2,1.58-11.46,.54-5.25,.92-14.18,1.16-26.78s2.07-23.39,5.51-32.37c-3.68,4.18-7.43,13.91-11.26,29.18l-1.47,5.74c-4.03,15.9-8.64,26.63-13.84,32.2s-10.3,8.35-15.31,8.35c-3.09,0-5.81-.98-8.15-2.93-2.35-1.95-3.52-4.2-3.52-6.74,0-1.95,1.41-4.14,4.23-6.56,2.82-2.42,4.59-3.63,5.33-3.63,.85,0,1.42,.29,1.69,.88,.27,.59,.63,2.2,1.06,4.83,.43,2.64,1.09,4.36,1.97,5.16,.88,.8,1.99,1.2,3.32,1.2,3.02,0,6.35-3.02,9.99-9.05s6.97-15.36,9.99-27.98l1.71-7.09c1.37-5.78,2.72-10.39,4.05-13.83,1.33-3.44,3.09-6.88,5.29-10.31,3.17-4.92,5.12-7.55,5.84-7.88,.72-.33,2.08-.61,4.07-.82,1.99-.21,3.98-.32,5.98-.32,.78,0,1.17,.45,1.17,1.35,0,.43-.12,1.31-.37,2.64-.77,5.47-1.14,10.96-1.1,16.46l.12,15.7c.08,13.67-1.02,24.71-3.28,33.11,2.07-2.5,5.08-8.94,9.02-19.34,5.7-14.73,10.9-25.78,15.59-33.16,2.23-3.55,4.91-6.96,8.06-10.22,3.14-3.26,5.32-5.01,6.53-5.24,4.14-.78,7.64-1.17,10.49-1.17,1.05,0,1.58,.29,1.58,.88,0,.82-.64,2.66-1.93,5.51-3.04,6.88-5.87,16.18-8.5,27.9-2.63,11.72-3.96,21.05-3.98,28,0,7.85,2.4,11.78,7.21,11.78,3.91,0,8.55-3.32,13.95-9.96v6.74Z"/><path class="cls-4" d="M595.74,1695.34c-6.25,5.94-10.72,9.81-13.42,11.6s-5.27,2.7-7.73,2.7c-6.17,0-9.08-5.45-8.73-16.35-3.91,5.59-7.51,9.71-10.81,12.36-3.3,2.66-6.71,3.98-10.22,3.98s-6.36-1.61-8.76-4.83-3.6-7.18-3.6-11.87c0-5.86,1.61-11.45,4.83-16.76,3.22-5.31,7.35-9.61,12.39-12.89s9.49-4.92,13.36-4.92c4.88,0,8.3,2.25,10.25,6.74l11.98-6.62h3.29l-5.17,17.17c-2.66,8.63-3.99,14.55-3.99,17.75s1.19,5.04,3.57,5.04c1.52,0,3.2-.81,5.04-2.43,1.83-1.62,4.41-4.09,7.73-7.41v6.74Zm-42.89,3.22c3.91,0,7.59-3.33,11.04-9.99,3.46-6.66,5.19-12.8,5.19-18.43,0-2.19-.49-3.9-1.46-5.13-.98-1.23-2.29-1.85-3.93-1.85-3.91,0-7.61,3.32-11.1,9.96-3.5,6.64-5.24,12.75-5.24,18.34,0,2.11,.52,3.82,1.55,5.13,1.03,1.31,2.35,1.96,3.96,1.96Z"/><path class="cls-4" d="M653.22,1695.34c-4.96,5.19-10.89,9.02-17.8,11.48-3.24,10.12-7.35,17.91-12.34,23.38-4.98,5.47-10.27,8.2-15.85,8.2-3.05,0-5.51-.96-7.39-2.87-1.88-1.91-2.81-4.43-2.81-7.56,0-4.18,1.87-7.93,5.6-11.25,3.73-3.32,10.07-6.52,19.01-9.61l2.52-11.54c-3.75,4.22-6.99,7.32-9.73,9.29-2.73,1.97-5.49,2.96-8.26,2.96-3.24,0-5.9-1.52-7.97-4.57-2.07-3.05-3.11-7.01-3.11-11.89,0-7.97,3.04-15.44,9.11-22.41s12.53-10.46,19.36-10.46c3.79,0,7.15,1.6,10.07,4.8,1.76-.62,4.04-1.56,6.85-2.81l4.16-1.88h1.35c-1.52,4.61-2.69,9.1-3.51,13.48l-5.49,29.36c5.27-1.99,10.68-6.27,16.22-12.83v6.74Zm-32.81,16.93c-12.62,4.53-18.93,9.76-18.93,15.7,0,1.76,.53,3.19,1.58,4.31s2.4,1.67,4.04,1.67c2.81,0,5.25-1.78,7.32-5.33,2.07-3.55,4.06-9,5.98-16.35Zm-4.92-15c2.77,0,5.23-1.64,7.38-4.92,2.15-3.28,3.82-7.44,5.01-12.48,1.19-5.04,1.79-8.53,1.79-10.49,0-1.84-.46-3.35-1.38-4.54-.92-1.19-2.06-1.79-3.43-1.79-4.14,0-7.75,2.79-10.84,8.38-3.09,5.59-4.63,11.27-4.63,17.05,0,2.7,.56,4.83,1.67,6.42s2.59,2.37,4.42,2.37Z"/><path class="cls-4" d="M681.99,1695.34c-9.14,9.61-15.98,14.41-20.51,14.41-2.5,0-4.61-1.28-6.33-3.84-1.72-2.56-2.58-5.77-2.58-9.64,0-8.32,2.81-19.84,8.44-34.57l14.88-3.11h.7l-5.86,18.34c-2.42,7.58-3.63,12.99-3.63,16.23,0,1.29,.28,2.33,.85,3.13,.57,.8,1.28,1.2,2.14,1.2,1.52,0,3.06-.56,4.6-1.67,1.54-1.11,3.97-3.52,7.29-7.24v6.74Zm-1.17-59.65c0,9.38-3.46,14.06-10.37,14.06-3.36,0-6.23-1.02-8.61-3.05,2.26-3.44,4.02-7.3,5.27-11.6,3.08,1.91,5.57,2.87,7.44,2.87,2.11,0,4.2-.76,6.27-2.29Z"/><path class="cls-4" d="M725.82,1695.34c-5,4.92-9.58,8.54-13.74,10.84s-8.51,3.46-13.04,3.46c-5.08,0-9.27-1.65-12.57-4.95-3.3-3.3-4.95-7.49-4.95-12.57,0-8.32,3.04-16,9.11-23.06,6.07-7.05,12.65-10.58,19.72-10.58,3.48,0,6.31,.97,8.5,2.9,2.19,1.93,3.28,4.44,3.28,7.53,0,1.09-.21,1.91-.62,2.46-.41,.55-1.18,1.09-2.31,1.64l-6.8,3.22c-.82,.39-1.43,.59-1.82,.59-.55,0-.82-.39-.82-1.17,0-.31,.12-1.34,.35-3.08,.23-1.74,.35-2.8,.35-3.19,0-1.72-.36-3.11-1.08-4.16-.72-1.05-1.69-1.58-2.9-1.58-2.85,0-5.46,2.11-7.82,6.33-2.36,4.22-3.54,9.02-3.54,14.41,0,4.65,1.11,8.36,3.34,11.13,2.23,2.77,5.19,4.16,8.91,4.16,3.16,0,6.14-.91,8.94-2.72,2.79-1.82,5.97-4.6,9.52-8.35v6.74Z"/><path class="cls-4" d="M754.64,1695.34c-9.14,9.61-15.98,14.41-20.51,14.41-2.5,0-4.61-1.28-6.33-3.84-1.72-2.56-2.58-5.77-2.58-9.64,0-8.32,2.81-19.84,8.44-34.57l14.88-3.11h.7l-5.86,18.34c-2.42,7.58-3.63,12.99-3.63,16.23,0,1.29,.28,2.33,.85,3.13,.57,.8,1.28,1.2,2.14,1.2,1.52,0,3.06-.56,4.6-1.67,1.54-1.11,3.97-3.52,7.29-7.24v6.74Zm-1.17-59.65c0,9.38-3.46,14.06-10.37,14.06-3.36,0-6.23-1.02-8.61-3.05,2.26-3.44,4.02-7.3,5.27-11.6,3.08,1.91,5.57,2.87,7.44,2.87,2.11,0,4.2-.76,6.27-2.29Z"/><path class="cls-4" d="M817.22,1695.34c-6.25,5.94-10.72,9.81-13.42,11.6s-5.27,2.7-7.73,2.7c-6.17,0-9.08-5.45-8.73-16.35-3.91,5.59-7.51,9.71-10.81,12.36-3.3,2.66-6.71,3.98-10.22,3.98s-6.36-1.61-8.76-4.83-3.6-7.18-3.6-11.87c0-5.86,1.61-11.45,4.83-16.76,3.22-5.31,7.35-9.61,12.39-12.89s9.49-4.92,13.36-4.92c4.88,0,8.3,2.25,10.25,6.74l11.98-6.62h3.29l-5.17,17.17c-2.66,8.63-3.99,14.55-3.99,17.75s1.19,5.04,3.57,5.04c1.52,0,3.2-.81,5.04-2.43,1.83-1.62,4.41-4.09,7.73-7.41v6.74Zm-42.89,3.22c3.91,0,7.59-3.33,11.04-9.99,3.46-6.66,5.19-12.8,5.19-18.43,0-2.19-.49-3.9-1.46-5.13-.98-1.23-2.29-1.85-3.93-1.85-3.91,0-7.61,3.32-11.1,9.96-3.5,6.64-5.24,12.75-5.24,18.34,0,2.11,.52,3.82,1.55,5.13,1.03,1.31,2.35,1.96,3.96,1.96Z"/><path class="cls-4" d="M874.7,1695.34c-9.02,9.53-16.76,14.3-23.2,14.3-2.62,0-4.73-.92-6.33-2.75-1.6-1.84-2.4-4.3-2.4-7.38,0-4.18,1.72-10.57,5.16-19.16,1.84-4.61,2.75-7.54,2.75-8.79s-.49-1.88-1.46-1.88c-.55,0-1.27,.27-2.17,.82-.82,.55-1.78,1.31-2.87,2.29-.98,.9-2.07,1.99-3.28,3.28-1.05,1.09-2.19,2.34-3.4,3.75l-3.28,3.81c-1.45,1.76-2.34,3.61-2.7,5.57-.59,3.32-.98,6.37-1.17,9.14-.12,2.07-.18,4.86-.18,8.38l-12.95,3.05c-.43-5.27-.64-9.2-.64-11.78,0-6.29,.73-12.25,2.2-17.87s3.82-11.95,7.06-18.98l14.3-2.75c-3.01,8.09-4.98,14.45-5.92,19.1,6.4-7.15,11.48-12.1,15.25-14.85s7.11-4.13,10.03-4.13c1.99,0,3.65,.75,4.97,2.25,1.33,1.5,1.99,3.38,1.99,5.65,0,3.75-1.68,9.92-5.04,18.51-2.3,5.9-3.46,9.73-3.46,11.49,0,2.35,.96,3.53,2.88,3.53,2.86,0,7.48-3.77,13.86-11.31v6.74Z"/></g><g><path class="cls-1" d="M353.98,142.06c-5.24,5.58-10.05,8.37-14.42,8.37-2.42,0-4.33-.85-5.74-2.56s-2.2-4.15-2.36-7.31c-2.76,3.35-5.2,5.83-7.33,7.45s-4.4,2.43-6.82,2.43c-3.1,0-5.59-1.34-7.47-4.02-1.88-2.68-2.82-6.25-2.82-10.72,0-5.33,1.23-10.83,3.69-16.49,2.46-5.66,6.11-10.13,10.94-13.42s10.69-4.92,17.57-4.92c5.15,0,9.81,.7,13.98,2.08v2.26c-3.4,3.96-6.24,9.51-8.53,16.65-2.29,7.13-3.44,12.57-3.44,16.3,0,1.82,.37,3.24,1.11,4.24,.74,1,1.77,1.5,3.09,1.5,2.37,0,5.22-1.93,8.54-5.78v3.93Zm-9.95-36.85c-2.1-1.14-4.35-1.71-6.77-1.71-3.81,0-7.24,1.59-10.29,4.77s-5.46,7.39-7.23,12.63c-1.77,5.24-2.65,9.79-2.65,13.64,0,2.58,.5,4.67,1.49,6.27,.99,1.61,2.26,2.41,3.81,2.41,2.69,0,5.78-2.45,9.26-7.35,1.44-12.85,5.56-23.07,12.37-30.66Z"/><path class="cls-1" d="M379.51,142.03c-5.72,5.61-10.13,8.41-13.23,8.41-1.39,0-2.56-.59-3.52-1.76s-1.44-2.63-1.44-4.36c0-3.21,1.72-7.52,5.16-12.92-1.69,.87-3.53,1.47-5.54,1.81-1.48,2.73-3.8,5.67-6.97,8.82h-.79v-3.08c1.78-1.85,3.38-3.83,4.82-5.95-1.96-.87-2.94-2.15-2.94-3.86s.6-3.63,1.79-5.62c1.2-1.99,2.84-2.99,4.94-2.99,1.78,0,2.67,.91,2.67,2.73,0,1.44-.51,3.49-1.54,6.15,3.78-.41,7.09-3.3,9.91-8.68l3.11-.14-3.18,8.75c-1.32,3.69-2.18,6.2-2.56,7.54-.39,1.33-.58,2.51-.58,3.54,0,.96,.22,1.72,.67,2.29,.44,.57,1.04,.85,1.79,.85,.82,0,1.61-.28,2.36-.84,.75-.56,2.44-2.1,5.06-4.63v3.93Z"/><path class="cls-1" d="M405.08,142.03c-2.92,2.87-5.59,4.98-8.02,6.32-2.43,1.34-4.96,2.02-7.61,2.02-2.96,0-5.41-.96-7.33-2.89-1.93-1.93-2.89-4.37-2.89-7.33,0-4.85,1.77-9.34,5.31-13.45,3.54-4.11,7.38-6.17,11.5-6.17,2.03,0,3.68,.56,4.96,1.69s1.91,2.59,1.91,4.39c0,.64-.12,1.12-.36,1.44-.24,.32-.69,.64-1.35,.96l-3.96,1.88c-.48,.23-.83,.34-1.06,.34-.32,0-.48-.23-.48-.68,0-.18,.07-.78,.21-1.79,.14-1.01,.21-1.63,.21-1.86,0-1-.21-1.81-.63-2.43s-.99-.92-1.69-.92c-1.66,0-3.19,1.23-4.56,3.69-1.38,2.46-2.07,5.26-2.07,8.41,0,2.71,.65,4.88,1.95,6.49,1.3,1.62,3.03,2.43,5.2,2.43,1.85,0,3.58-.53,5.21-1.59s3.48-2.68,5.55-4.87v3.93Z"/><path class="cls-1" d="M441.58,142.03c-3.65,3.46-6.26,5.72-7.83,6.77s-3.08,1.57-4.51,1.57c-3.6,0-5.3-3.18-5.09-9.54-2.28,3.26-4.38,5.66-6.31,7.21s-3.91,2.32-5.96,2.32-3.71-.94-5.11-2.82c-1.4-1.88-2.1-4.19-2.1-6.92,0-3.42,.94-6.68,2.82-9.78,1.88-3.1,4.29-5.61,7.23-7.52s5.54-2.87,7.79-2.87c2.85,0,4.84,1.31,5.98,3.93l6.99-3.86h1.92l-3.02,10.02c-1.55,5.04-2.33,8.49-2.33,10.36s.69,2.94,2.08,2.94c.89,0,1.87-.47,2.94-1.42,1.07-.95,2.57-2.39,4.51-4.32v3.93Zm-25.02,1.88c2.28,0,4.43-1.94,6.44-5.83,2.02-3.88,3.02-7.47,3.02-10.75,0-1.28-.29-2.27-.85-2.99-.57-.72-1.33-1.08-2.29-1.08-2.28,0-4.44,1.94-6.48,5.81-2.04,3.87-3.06,7.44-3.06,10.7,0,1.23,.3,2.23,.91,2.99,.6,.76,1.37,1.15,2.31,1.15Z"/><path class="cls-1" d="M475.11,142.03c-5.26,5.56-9.78,8.34-13.54,8.34-1.53,0-2.76-.54-3.69-1.61s-1.4-2.51-1.4-4.31c0-2.44,1-6.16,3.01-11.18,1.07-2.69,1.61-4.4,1.61-5.13s-.29-1.09-.85-1.09c-.32,0-.74,.16-1.27,.48-.48,.32-1.04,.76-1.67,1.33-.57,.52-1.21,1.16-1.91,1.91-.62,.64-1.28,1.37-1.98,2.19l-1.91,2.22c-.84,1.03-1.37,2.11-1.57,3.25-.34,1.94-.57,3.71-.68,5.33-.07,1.21-.1,2.84-.1,4.89l-7.55,1.78c-.25-3.08-.38-5.37-.38-6.87,0-3.67,.43-7.14,1.28-10.42,.86-3.28,2.23-6.97,4.12-11.07l8.34-1.61c-1.75,4.72-2.9,8.43-3.45,11.14,3.73-4.17,6.7-7.06,8.89-8.66,2.19-1.61,4.14-2.41,5.85-2.41,1.16,0,2.13,.44,2.9,1.31,.77,.88,1.16,1.97,1.16,3.29,0,2.18-.98,5.78-2.94,10.8-1.34,3.44-2.02,5.68-2.02,6.7,0,1.37,.56,2.06,1.68,2.06,1.67,0,4.36-2.2,8.09-6.6v3.93Z"/><path class="cls-1" d="M500.64,142.03c-2.89,2.85-5.49,4.95-7.79,6.31-2.3,1.36-4.84,2.03-7.62,2.03-3.1,0-5.6-.99-7.5-2.97s-2.85-4.59-2.85-7.83c0-4.83,1.67-9.2,5.02-13.11,3.35-3.91,7.06-5.86,11.14-5.86,2.12,0,3.82,.55,5.09,1.64,1.28,1.09,1.91,2.53,1.91,4.31,0,4.72-5.01,8.54-15.04,11.48,.91,4.44,3.29,6.67,7.14,6.67,1.5,0,2.94-.4,4.31-1.21,1.37-.81,3.43-2.6,6.19-5.38v3.93Zm-17.91-6.32c5.83-1.64,8.75-4.67,8.75-9.09,0-2.19-.8-3.28-2.39-3.28-1.5,0-2.94,1.15-4.31,3.44s-2.05,5.27-2.05,8.94Z"/><path class="cls-1" d="M511.17,122c1.57-.41,3.15-.75,4.75-1.01,1.6-.26,2.55-.39,2.87-.39,.23,0,.34,.09,.34,.27,0,.34-.09,.69-.27,1.06-.37,1.05-.55,2.05-.55,3.01,0,1.18,.69,2.8,2.05,4.85s2.05,3.96,2.05,5.71c0,3.49-1.67,6.85-5.01,10.08-3.34,3.24-6.8,4.85-10.38,4.85-1.55,0-2.96-.41-4.24-1.23s-1.91-1.7-1.91-2.63c0-.55,.63-1.58,1.9-3.11,1.26-1.53,2.17-2.29,2.72-2.29,.73,0,1.38,.93,1.95,2.8,.57,1.87,1.55,2.8,2.94,2.8s2.7-.64,3.91-1.93,1.83-2.67,1.83-4.15c0-1.44-.77-3.35-2.32-5.74-1.55-2.39-2.58-4.4-3.08-6.02-2.64,4.26-5.99,8.62-10.05,13.09h-.79v-3.08c5.58-5.95,9.34-11.6,11.28-16.95Z"/><path class="cls-1" d="M596.89,142.03c-2.85,2.78-5.29,4.87-7.31,6.25-2.03,1.39-4,2.08-5.91,2.08-1.5,0-2.7-.52-3.57-1.56s-1.31-2.43-1.31-4.19c0-2.46,.62-5.58,1.85-9.37,1.23-3.78,1.85-6.08,1.85-6.9,0-.73-.38-1.09-1.13-1.09-.23,0-.5,.08-.82,.24-.34,.16-.73,.39-1.16,.68-.43,.32-.9,.71-1.4,1.16-.5,.46-1.03,.98-1.57,1.57-.59,.59-1.18,1.24-1.78,1.95-1,1.19-1.59,2.18-1.78,2.97l-1.14,4.89-2.07,8.07-8.66,1.57,3.32-14.08c.25-1.03,.55-2.53,.89-4.51s.51-3.17,.51-3.55c0-.77-.26-1.16-.79-1.16-.16,0-.39,.08-.68,.24-.34,.16-.73,.4-1.16,.72-.5,.36-1.04,.8-1.61,1.3-.62,.55-1.28,1.17-1.98,1.88-.75,.75-1.53,1.58-2.32,2.5-1.09,1.23-1.78,2.67-2.05,4.31-.37,1.96-.62,3.71-.75,5.26-.16,1.55-.25,3.28-.27,5.2l-7.59,1.81c-.18-2.62-.27-4.81-.27-6.56,0-4.17,.43-7.8,1.3-10.89,.87-3.09,2.28-6.69,4.24-10.82l8.27-1.61c-1.48,3.71-2.63,7.3-3.45,10.77,6.13-7.13,10.82-10.7,14.08-10.7,1.18,0,2.15,.48,2.89,1.45,.74,.97,1.11,2.24,1.11,3.81,0,.73-.11,2.07-.34,4.03,3.85-3.85,6.62-6.36,8.29-7.54,1.67-1.17,3.22-1.76,4.63-1.76,1.25,0,2.28,.5,3.08,1.5,.8,1,1.2,2.28,1.2,3.83,0,2.44-.67,5.57-2.01,9.4-1.34,3.83-2.01,6.36-2.01,7.59s.46,1.91,1.4,1.91c.59,0,1.42-.39,2.47-1.18,1.06-.79,2.9-2.59,5.54-5.42v3.93Z"/><path class="cls-1" d="M633.4,142.03c-3.65,3.46-6.26,5.72-7.83,6.77s-3.08,1.57-4.51,1.57c-3.6,0-5.3-3.18-5.09-9.54-2.28,3.26-4.38,5.66-6.31,7.21s-3.91,2.32-5.96,2.32-3.71-.94-5.11-2.82c-1.4-1.88-2.1-4.19-2.1-6.92,0-3.42,.94-6.68,2.82-9.78,1.88-3.1,4.29-5.61,7.23-7.52s5.54-2.87,7.79-2.87c2.85,0,4.84,1.31,5.98,3.93l6.99-3.86h1.92l-3.02,10.02c-1.55,5.04-2.33,8.49-2.33,10.36s.69,2.94,2.08,2.94c.89,0,1.87-.47,2.94-1.42,1.07-.95,2.57-2.39,4.51-4.32v3.93Zm-25.02,1.88c2.28,0,4.43-1.94,6.44-5.83,2.02-3.88,3.02-7.47,3.02-10.75,0-1.28-.29-2.27-.85-2.99-.57-.72-1.33-1.08-2.29-1.08-2.28,0-4.44,1.94-6.48,5.81-2.04,3.87-3.06,7.44-3.06,10.7,0,1.23,.3,2.23,.91,2.99,.6,.76,1.37,1.15,2.31,1.15Z"/><path class="cls-1" d="M658.93,142.03c-2.15,2.16-4.81,4.1-7.99,5.81-.83,6.22-2.41,11-4.75,14.32-2.34,3.33-4.72,4.99-7.16,4.99-1.53,0-2.83-.63-3.9-1.9s-1.61-2.82-1.61-4.67c0-4.47,3.01-8.23,9.02-11.28l2.53-20.58c-4.74,5.92-8.64,10.36-11.69,13.3h-.79v-3.08c3.03-2.89,7.11-7.68,12.24-14.36l2.12-2.73c2.39-.27,5.07-.72,8.03-1.33-1.01,5.42-2.19,13.43-3.55,24.03,2.1-1.05,4.57-3.18,7.41-6.39l.07,3.86Zm-16.6,10.42c-1.91,.89-3.41,2.09-4.51,3.61-1.1,1.52-1.65,3.07-1.65,4.67,0,1.03,.24,1.9,.72,2.62,.48,.72,1.04,1.08,1.67,1.08,1.57,0,2.6-2.01,3.08-6.02l.69-5.95Zm15.85-45.28c-.43,5.56-2.75,8.34-6.94,8.34-1.96,0-3.69-.66-5.2-1.98,1.98-2.53,3.15-4.72,3.52-6.56,1.82,1.12,3.34,1.67,4.55,1.67,1.37,0,2.72-.49,4.07-1.47Z"/><path class="cls-1" d="M684.49,142.03c-2.89,2.85-5.49,4.95-7.79,6.31s-4.84,2.03-7.62,2.03c-3.1,0-5.6-.99-7.5-2.97s-2.85-4.59-2.85-7.83c0-4.83,1.68-9.2,5.03-13.11,3.35-3.91,7.06-5.86,11.14-5.86,2.12,0,3.82,.55,5.09,1.64s1.91,2.53,1.91,4.31c0,4.72-5.01,8.54-15.04,11.48,.91,4.44,3.29,6.67,7.14,6.67,1.5,0,2.94-.4,4.31-1.21,1.37-.81,3.43-2.6,6.19-5.38v3.93Zm-17.91-6.32c5.83-1.64,8.75-4.67,8.75-9.09,0-2.19-.8-3.28-2.39-3.28-1.5,0-2.94,1.15-4.31,3.44s-2.05,5.27-2.05,8.94Z"/><path class="cls-1" d="M721,142.03c-3.01,2.85-5.53,4.95-7.55,6.31-2.03,1.36-3.85,2.03-5.47,2.03-1.8,0-3.19-.72-4.15-2.15s-1.45-3.38-1.45-5.84c-2.51,2.76-4.75,4.79-6.73,6.1s-3.92,1.97-5.81,1.97c-1.73,0-3.12-.72-4.17-2.15s-1.57-3.38-1.57-5.84c0-4.74,1.6-11.42,4.79-20.03l9.13-1.82c-3.75,10.92-5.63,17.93-5.64,21.03,0,2.19,.82,3.28,2.46,3.28,1.19,0,2.65-.96,4.41-2.89,1.75-1.93,2.85-3.61,3.28-5.04l4.48-14.56,9.3-1.88c-2.15,6.86-3.62,11.68-4.42,14.46-.8,2.78-1.2,4.73-1.2,5.85,0,2.14,.73,3.21,2.19,3.21,1.19,0,2.94-1.08,5.27-3.25l2.87-2.7v3.93Z"/><path class="cls-1" d="M746.53,142.03c-5.72,5.61-10.13,8.41-13.23,8.41-1.39,0-2.56-.59-3.52-1.76s-1.44-2.63-1.44-4.36c0-3.21,1.72-7.52,5.16-12.92-1.69,.87-3.53,1.47-5.54,1.81-1.48,2.73-3.8,5.67-6.97,8.82h-.79v-3.08c1.78-1.85,3.38-3.83,4.82-5.95-1.96-.87-2.94-2.15-2.94-3.86s.6-3.63,1.79-5.62c1.2-1.99,2.84-2.99,4.94-2.99,1.78,0,2.67,.91,2.67,2.73,0,1.44-.51,3.49-1.54,6.15,3.78-.41,7.09-3.3,9.91-8.68l3.11-.14-3.18,8.75c-1.32,3.69-2.18,6.2-2.56,7.54-.39,1.33-.58,2.51-.58,3.54,0,.96,.22,1.72,.67,2.29,.44,.57,1.04,.85,1.79,.85,.82,0,1.61-.28,2.36-.84,.75-.56,2.44-2.1,5.06-4.63v3.93Z"/><path class="cls-1" d="M757.06,122c1.57-.41,3.15-.75,4.75-1.01,1.6-.26,2.55-.39,2.87-.39,.23,0,.34,.09,.34,.27,0,.34-.09,.69-.27,1.06-.37,1.05-.55,2.05-.55,3.01,0,1.18,.69,2.8,2.05,4.85s2.05,3.96,2.05,5.71c0,3.49-1.67,6.85-5.01,10.08-3.34,3.24-6.8,4.85-10.38,4.85-1.55,0-2.96-.41-4.24-1.23s-1.91-1.7-1.91-2.63c0-.55,.63-1.58,1.9-3.11,1.26-1.53,2.17-2.29,2.72-2.29,.73,0,1.38,.93,1.95,2.8,.57,1.87,1.55,2.8,2.94,2.8s2.7-.64,3.91-1.93,1.83-2.67,1.83-4.15c0-1.44-.77-3.35-2.32-5.74-1.55-2.39-2.58-4.4-3.08-6.02-2.64,4.26-5.99,8.62-10.05,13.09h-.79v-3.08c5.58-5.95,9.34-11.6,11.28-16.95Z"/></g></g></g><g id="_마법사"><g><path class="cls-4" d="M373.97,1003.98c2.73-13.71,6.35-28.25,11.16-43.41,15.95-50.27,39.42-89.92,60.77-119.06,21.56-16.79,39.46-29.65,52.09-38.45,12.73-8.87,23.56-16.04,39.69-28.52,18.15-14.05,18.29-15.7,27.28-22.32,28.55-21.03,45.93-18.23,88.05-37.2,9.95-4.48,25.31-11.99,43.41-23.56-2.4,6.85-6.38,17.4-12.4,29.76-13.64,28.03-25.27,39.87-35.96,58.29-7.99,13.76-17.7,35.06-22.32,65.73,2.59,7.88,6.09,19.85,8.68,34.72,5.09,29.22,2.23,44.15,6.2,78.13,1.05,9.04,2.87,21.85,6.2,37.2,15.94,3.66,38.21,9.23,64.49,17.36,26.85,8.31,48.19,14.9,74.41,27.28,16.24,7.66,38.43,19.48,63.25,37.2-11.54-.03-23.97-.04-37.2,0-40.78,.11-68.27,.18-102.93,1.24-11.53,.35-14.4,.53-37.2,1.24-32.37,1-44.44,1.18-49.61,1.24-25.91,.32-28.31-.3-38.45,0-40.54,1.2-48.01,12.44-91.77,18.6-8.61,1.21-28.06,1.64-66.97,2.48-42.36,.92-63.54,1.38-74.41,0-17.01-2.16-53.43-7.18-90.53-31-20.74-13.32-34.96-28.2-47.13-40.93-14.8-15.48-25.81-29.91-33.48-40.93,15.71,3.02,29.12,6.08,39.69,8.68,25.05,6.16,32.63,9.32,48.37,11.16,7.47,.87,14.8,1.22,39.69,0,16.8-.82,39.59-2.26,66.97-4.96Z"/><path class="cls-2" d="M373.2,968.92c-3.94,11.65-6.17,22.43-7.43,31.69,9.77,1.54,25.05,3.5,43.86,3.97,26.9,.67,41.54-2.2,70.56-4.38,28.95-2.17,31.26-.58,70.76-1.91,31.87-1.07,53.16-6.79,92.82-6.15,4.94,.08,9,.22,11.64,.32,.39-7,.43-14.94-.22-23.62-.79-10.55-2.42-19.91-4.29-27.86-18.53,.89-33.6,1.91-43.75,2.66-32.27,2.38-42.05,4.03-67.39,5.16-23.43,1.04-19.91-.16-39.33,.85-35.92,1.87-44.2,5.78-69.78,6.39-11.48,.28-29.03-.05-50.88-3.62-2.29,4.97-4.53,10.47-6.57,16.49Z"/><path class="cls-5" d="M549.45,960.27c-.34-7.95-.95-14.78-1.55-20.15-7.75-1.34-16.14-2.43-25.11-3.1-18.36-1.37-34.89-.65-48.99,.93-.82,8.32-1.45,17.01-1.86,26.04-.71,15.73-.62,30.55,0,44.34,8.44,2.17,18.45,4.07,29.76,4.96,18.23,1.43,33.92-.24,45.89-2.48,1.06-9.57,1.6-18.04,1.86-25.11,.49-13.22,.1-23.12,0-25.42Zm-22.01,9.3c-1.39,9.35-1.59,17.83-1.24,25.11-10.44-.52-20.88-1.03-31.31-1.55,.06-3.65,0-9.03-.62-15.5-1.26-13.18-3.56-17.54-.93-20.15,2.99-2.97,8.24,.43,21.7,1.24,6.07,.37,11.12,.05,14.57-.31-.83,3.47-1.58,7.19-2.17,11.16Z"/><path class="cls-3" d="M358.26,1118.08c26.21,.69,48.22,.43,64.49,0,34.65-.92,66.51-1.77,106.65-8.27,21.46-3.47,21.3-4.68,47.95-9.09,31.05-5.15,56.64-7.72,73.58-9.09,39.13,17.91,78.27,35.83,117.4,53.74-34.45-3.03-68.9-6.06-103.35-9.09,.55,14.06,1.1,28.11,1.65,42.17-14.61-9.65-29.21-19.29-43.82-28.94,11.3,30.32,22.6,60.63,33.9,90.95-23.7-22.87-47.4-45.75-71.1-68.62,.28,12.68,.55,25.35,.83,38.03-7.99-7.99-15.98-15.98-23.98-23.98-11.02,46.3-22.05,92.6-33.07,138.9-10.2-43.54-20.39-87.09-30.59-130.63-9.92,14.33-19.84,28.66-29.76,42.99-3.58-14.06-7.17-28.11-10.75-42.17-28.94,18.19-57.87,36.38-86.81,54.57,11.57-24.25,23.15-48.5,34.72-72.76-12.95,4.96-25.91,9.92-38.86,14.88,3.86-12.4,7.72-24.8,11.57-37.2-42.17-.83-84.33-1.65-126.5-2.48,35.28-11.3,70.55-22.6,105.83-33.9Z"/><polygon class="cls-8" points="817.98 647.33 832.49 703.62 879.2 715.18 832.49 727.87 817.98 785.2 802.7 727.87 756.76 715.18 802.7 703.62 817.98 647.33"/><polygon class="cls-9" points="290.5 791.78 302.01 836.47 339.1 845.65 302.01 855.72 290.5 901.23 278.37 855.72 241.9 845.65 278.37 836.47 290.5 791.78"/><circle class="cls-9" cx="897.73" cy="789.33" r="14.06"/><circle class="cls-10" cx="236.72" cy="912.21" r="11.57"/><circle class="cls-10" cx="184.99" cy="739.82" r="8.78"/><circle class="cls-9" cx="228.87" cy="1208.61" r="12.82"/><circle class="cls-10" cx="261.52" cy="1268.55" r="9.92"/><circle class="cls-10" cx="859.28" cy="1192.49" r="14.88"/><circle class="cls-9" cx="807.61" cy="1228.45" r="8.68"/><circle class="cls-10" cx="716.66" cy="1295.42" r="7.85"/><circle class="cls-10" cx="881.61" cy="835.32" r="8.27"/><circle class="cls-9" cx="760.07" cy="952.72" r="14.88"/><path class="cls-6" d="M553.72,579.19c-2.27-1.97-5.5-5.13-12.03-10.62,0,0-4.48-3.77-8.65-7.03-12.89-10.07-20.93-16.36-31.28-19.68-5.9-1.89-18.34-5.87-30.77,0-8.74,4.13-20.06,14.36-19.17,27.75,.97,14.6,15.73,22.29,18.67,23.71,13.25,6.44,26.74,2.52,33.3,.5,7.79-2.39,12.67-5.5,52.97-37.84,5.17-4.15,13.34-10.71,25.73-14.13,6.37-1.75,13.5-3.61,21.19-.5,12.6,5.09,15.92,19.16,16.14,20.18,2.03,9.24-.29,20.53-8.07,27.24-10.19,8.79-24.55,5.21-33.3,3.03-2.75-.69-14.65-3.89-24.72-12.61Z"/></g></g></svg>