<?xml version="1.0" encoding="UTF-8"?><svg xmlns="http://www.w3.org/2000/svg" viewBox="0 0 1080 1944"><defs><style>.cls-1{fill:#fff;}.cls-2{stroke-width:5px;}.cls-2,.cls-3,.cls-4,.cls-5{fill:#4c5fa9;}.cls-2,.cls-4,.cls-5,.cls-6{stroke-miterlimit:10;}.cls-2,.cls-5,.cls-6{stroke:#fff;}.cls-7{fill:#f6ef84;}.cls-8{fill:#3f3730;}.cls-4{stroke:#4c5fa9;}.cls-4,.cls-5,.cls-6{stroke-width:4px;}.cls-9{fill:#bad6eb;}.cls-10{fill:#c8c0de;}.cls-11{fill:#b1d4f0;}.cls-6{fill:none;}</style></defs><g id="_배경"><g><rect class="cls-9" width="1080" height="1944"/><rect class="cls-1" x="74.84" y="186.39" width="930.33" height="1606.64" rx="65.21" ry="65.21"/><g><path class="cls-8" d="M368.26,1646.47c1.52,0,2.29,.49,2.29,1.46l-1.41,7.79-.29,14.47c-.2,4.73-.92,9.08-2.17,13.07-1.13,3.71-2.72,7.09-4.75,10.14-1.84,2.81-4.04,5.29-6.62,7.44-2.38,1.99-5,3.67-7.85,5.04-2.66,1.25-5.45,2.19-8.38,2.81-2.7,.62-5.41,.94-8.14,.94-6.37,0-11.36-1.38-14.97-4.13-3.61-2.75-5.42-5.42-5.42-8,0-1.48,1.34-3.4,4.01-5.74,2.67-2.34,4.7-3.52,6.06-3.52,1.68,0,2.52,1.56,2.52,4.69,0,5.08,.83,8.37,2.49,9.87,1.66,1.5,3.88,2.26,6.65,2.26,4.49,0,8.43-1.43,11.81-4.28,3.38-2.85,5.65-6.26,6.83-10.22,1.17-3.96,1.78-9.81,1.82-17.55,.04-7.73,.62-13.06,1.73-15.97,1.11-2.91,3.15-5.4,6.12-7.47,2.97-2.07,5.53-3.11,7.68-3.11Zm21.97-17.99c-1.13,8.4-4.71,12.6-10.72,12.6-2.11,0-6.15-.95-12.13-2.84-5.98-1.89-11.13-2.84-15.47-2.84-5.59,0-10.42,2.07-14.5,6.22-4.08,4.15-6.12,7.77-6.12,10.86s1.88,5.69,5.62,8.04c1.52,.98,2.29,1.86,2.29,2.64,0,1.06-1.08,2.48-3.25,4.28s-3.8,2.7-4.89,2.7c-1.84,0-3.55-1.05-5.16-3.16-1.6-2.11-2.4-4.41-2.4-6.91,0-4.84,1.97-10.13,5.92-15.85,3.95-5.72,9.1-10.39,15.47-14,6.37-3.61,13.05-5.42,20.04-5.42,4.73,0,9.2,.71,13.42,2.14,4.22,1.43,6.86,2.14,7.91,2.14,.94,0,1.74-.27,2.4-.82l.35-.12,1.23,.35Z"/><path class="cls-8" d="M442.56,1695.34c-9.26,9.61-16.88,14.41-22.85,14.41-2.66,0-4.85-.91-6.59-2.72-1.74-1.82-2.61-4.11-2.61-6.88,0-4.69,1.8-11.29,5.39-19.8,1.91-4.61,2.87-7.62,2.87-9.02,0-1.6-.76-2.4-2.29-2.4s-3.83,1.06-6.8,3.19c-2.97,2.13-6.09,5.03-9.38,8.7-1.37,7.19-2.05,15.82-2.05,25.9l-13.07,3.05c-.51-4.1-.76-8.55-.76-13.36,0-11.64,1.6-22.48,4.8-32.52,3.2-10.04,8.24-20.68,15.12-31.93,5.12-2.07,9.58-3.76,13.39-5.07,3.81-1.31,5.99-1.96,6.53-1.96,1.02,0,1.88,.82,2.58,2.46s1.05,3.69,1.05,6.15c0,4.14-1.27,8.72-3.81,13.74-2.54,5.02-6.52,11.08-11.95,18.19,5.2-3.01,8.66-4.9,10.38-5.68,1.72-.78,3.48-1.17,5.28-1.17,1.99,0,3.61,.71,4.84,2.14s1.85,3.31,1.85,5.66c0,3.52-1.4,8.97-4.2,16.35-2.8,7.38-4.2,12.01-4.2,13.88,0,.86,.26,1.62,.79,2.29s1.14,1,1.84,1c2.5,0,7.11-3.77,13.82-11.31v6.74Zm-40.61-24.02c13.95-16.21,20.92-28.16,20.92-35.86,0-2.34-.64-3.52-1.93-3.52-2.15,0-5.21,3.85-9.2,11.54-3.98,7.7-7.25,16.97-9.79,27.83Z"/><path class="cls-8" d="M486.33,1695.34c-4.96,4.88-9.41,8.49-13.36,10.81-3.95,2.32-8.3,3.49-13.07,3.49-5.31,0-9.6-1.7-12.86-5.1-3.26-3.4-4.89-7.87-4.89-13.42,0-8.28,2.87-15.77,8.61-22.47,5.74-6.7,12.11-10.05,19.1-10.05,3.63,0,6.54,.94,8.73,2.81,2.19,1.88,3.28,4.34,3.28,7.38,0,8.09-8.59,14.65-25.78,19.69,1.56,7.62,5.64,11.43,12.25,11.43,2.58,0,5.04-.69,7.38-2.08,2.34-1.39,5.88-4.46,10.61-9.23v6.74Zm-30.7-10.84c10-2.81,15-8.01,15-15.59,0-3.75-1.37-5.62-4.1-5.62-2.58,0-5.04,1.96-7.38,5.89s-3.52,9.03-3.52,15.32Z"/><path class="cls-8" d="M548.25,1697.74l7.5,3.16c2.42,1.05,4.4,1.77,5.95,2.14,1.54,.37,3.02,.56,4.42,.56,6.49,0,11.69-4.25,15.62-12.74s5.89-17.61,5.89-27.33c0-10.27-2.49-18.54-7.47-24.81s-11.49-9.4-19.54-9.4c-6.45,0-12.49,2.31-18.13,6.94-5.65,4.63-8.47,9.52-8.47,14.68,0,3.87,1.64,6.5,4.92,7.91,1.41,.67,2.11,1.54,2.11,2.64s-1.53,2.36-4.6,3.69c-3.07,1.33-4.93,1.99-5.6,1.99-1.99,0-3.75-1.16-5.27-3.49-1.52-2.32-2.29-4.89-2.29-7.71,0-7.46,3.9-14.54,11.69-21.24,7.79-6.7,17.94-10.05,30.44-10.05s21.48,3.29,28.59,9.87c7.11,6.58,10.66,15.4,10.66,26.46,0,8.44-2.2,16.45-6.59,24.02-4.39,7.58-10.31,13.59-17.75,18.05s-15.32,6.68-23.64,6.68c-6.99,0-13.52-1.52-19.57-4.57-4.88,3.05-9.12,4.57-12.71,4.57-2.03,0-3.74-.59-5.13-1.76-1.39-1.17-2.08-2.6-2.08-4.28,0-2.73,1.43-5.04,4.28-6.91,2.85-1.88,6.42-2.81,10.72-2.81,3.05,0,5.96,.49,8.73,1.46,2.46-2.03,4.14-4.47,5.04-7.32,.9-2.85,1.8-7.89,2.7-15.12,.9-7.23,2.3-12.91,4.22-17.05,1.91-4.14,4.74-7.61,8.47-10.4,3.73-2.79,7.49-4.4,11.28-4.83l2.29,3.11c-2.42,2.46-4.23,4.96-5.42,7.5-1.19,2.54-2.27,8-3.23,16.38-.96,8.38-2.8,14.67-5.52,18.87-2.72,4.2-6.88,7.92-12.51,11.16Z"/><path class="cls-8" d="M651.33,1695.34c-4.96,4.88-9.41,8.49-13.36,10.81-3.95,2.32-8.3,3.49-13.07,3.49-5.31,0-9.6-1.7-12.86-5.1-3.26-3.4-4.89-7.87-4.89-13.42,0-8.28,2.87-15.77,8.61-22.47,5.74-6.7,12.11-10.05,19.1-10.05,3.63,0,6.54,.94,8.73,2.81,2.19,1.88,3.28,4.34,3.28,7.38,0,8.09-8.59,14.65-25.78,19.69,1.56,7.62,5.64,11.43,12.25,11.43,2.58,0,5.04-.69,7.38-2.08,2.34-1.39,5.88-4.46,10.61-9.23v6.74Zm-30.7-10.84c10-2.81,15-8.01,15-15.59,0-3.75-1.37-5.62-4.1-5.62-2.58,0-5.04,1.96-7.38,5.89s-3.52,9.03-3.52,15.32Z"/><path class="cls-8" d="M703.94,1695.34c-1.8,1.56-3.61,2.68-5.45,3.34-1.84,.67-3.26,1-4.28,1-2.85,0-5.66-1.09-8.44-3.28-6.95,8.83-14.32,13.24-22.09,13.24-4.06,0-7.24-1.4-9.52-4.19-2.29-2.79-3.43-6.69-3.43-11.69,0-5.51,1.37-12.27,4.1-20.27l4.1-12.01,15.88-2.98-7.04,21.14c-.74,2.3-1.44,5.04-2.1,8.2s-.99,5.43-.99,6.8c0,2.11,.56,3.88,1.67,5.3s2.47,2.14,4.07,2.14c3.75,0,7.79-3.2,12.13-9.61-1.99-3.98-2.99-7.99-2.99-12.01,0-5.59,1.47-10.62,4.42-15.12,2.95-4.49,6.18-6.74,9.7-6.74,2.66,0,3.98,2.05,3.98,6.15,0,7.93-3.2,17.09-9.61,27.48,1.99,1.84,4.08,2.75,6.27,2.75,2.66,0,5.86-2.13,9.61-6.39v6.74Z"/><path class="cls-8" d="M732.71,1695.34c-9.14,9.61-15.98,14.41-20.51,14.41-2.5,0-4.61-1.28-6.33-3.84-1.72-2.56-2.58-5.77-2.58-9.64,0-8.32,2.81-19.84,8.44-34.57l14.88-3.11h.7l-5.86,18.34c-2.42,7.58-3.63,12.99-3.63,16.23,0,1.29,.28,2.33,.85,3.13,.57,.8,1.28,1.2,2.14,1.2,1.52,0,3.06-.56,4.6-1.67,1.54-1.11,3.97-3.52,7.29-7.24v6.74Zm-1.17-59.65c0,9.38-3.46,14.06-10.37,14.06-3.36,0-6.23-1.02-8.61-3.05,2.26-3.44,4.02-7.3,5.27-11.6,3.08,1.91,5.57,2.87,7.44,2.87,2.11,0,4.2-.76,6.27-2.29Z"/><path class="cls-8" d="M771.5,1695.34c-5.31,4.88-9.97,8.49-13.97,10.81-4,2.32-7.82,3.49-11.46,3.49-4.18,0-7.55-1.62-10.11-4.86-2.56-3.24-3.84-7.6-3.84-13.07,0-8.2,1.78-18.05,5.33-29.53,3.55-11.48,7.87-22.07,12.95-31.76l14.88-5.51c.47-.16,.82-.23,1.05-.23,1.13,0,2.06,.83,2.78,2.49,.72,1.66,1.08,3.9,1.08,6.71,0,7.97-1.84,15.68-5.51,23.14-3.67,7.46-9.41,15.43-17.23,23.91-.31,4.06-.47,6.86-.47,8.38,0,3.4,.62,6.09,1.88,8.09,1.25,1.99,2.91,2.99,4.98,2.99s4.36-.76,6.74-2.29c2.38-1.52,6.01-4.69,10.9-9.49v6.74Zm-22.44-22.91c4.96-5.52,8.98-11.7,12.07-18.54,3.08-6.85,4.63-12.73,4.63-17.66,0-1.45-.21-2.61-.64-3.49-.43-.88-.98-1.32-1.64-1.32-1.45,0-3.54,3.6-6.3,10.8s-5.46,17.27-8.12,30.22Z"/></g><g><path class="cls-1" d="M353.98,142.06c-5.24,5.58-10.05,8.37-14.42,8.37-2.42,0-4.33-.85-5.74-2.56-1.41-1.71-2.2-4.15-2.36-7.31-2.76,3.35-5.2,5.83-7.33,7.45-2.13,1.62-4.4,2.43-6.82,2.43-3.1,0-5.59-1.34-7.47-4.02-1.88-2.68-2.82-6.25-2.82-10.71,0-5.33,1.23-10.83,3.69-16.49s6.11-10.13,10.94-13.42c4.83-3.28,10.69-4.92,17.57-4.92,5.15,0,9.81,.7,13.98,2.09v2.26c-3.4,3.96-6.24,9.51-8.53,16.64-2.29,7.13-3.44,12.57-3.44,16.3,0,1.82,.37,3.24,1.11,4.24,.74,1,1.77,1.5,3.09,1.5,2.37,0,5.22-1.93,8.54-5.78v3.93Zm-9.95-36.85c-2.1-1.14-4.35-1.71-6.77-1.71-3.81,0-7.24,1.59-10.29,4.77-3.05,3.18-5.46,7.39-7.23,12.63-1.77,5.24-2.65,9.79-2.65,13.64,0,2.57,.5,4.67,1.49,6.27,.99,1.61,2.26,2.41,3.81,2.41,2.69,0,5.78-2.45,9.26-7.35,1.44-12.85,5.56-23.07,12.37-30.66Z"/><path class="cls-1" d="M379.51,142.03c-5.72,5.61-10.13,8.41-13.23,8.41-1.39,0-2.56-.59-3.52-1.76s-1.44-2.63-1.44-4.36c0-3.21,1.72-7.52,5.16-12.92-1.69,.87-3.53,1.47-5.54,1.81-1.48,2.73-3.81,5.67-6.97,8.82h-.79v-3.08c1.78-1.85,3.38-3.83,4.82-5.95-1.96-.87-2.94-2.15-2.94-3.86s.6-3.63,1.79-5.62c1.2-1.99,2.84-2.99,4.94-2.99,1.78,0,2.67,.91,2.67,2.73,0,1.44-.51,3.49-1.54,6.15,3.78-.41,7.09-3.3,9.91-8.68l3.11-.14-3.18,8.75c-1.32,3.69-2.18,6.2-2.56,7.54-.39,1.33-.58,2.51-.58,3.54,0,.96,.22,1.72,.67,2.29,.44,.57,1.04,.86,1.79,.86,.82,0,1.61-.28,2.36-.84s2.44-2.1,5.06-4.63v3.93Z"/><path class="cls-1" d="M405.08,142.03c-2.92,2.87-5.59,4.98-8.02,6.32-2.43,1.34-4.96,2.02-7.6,2.02-2.96,0-5.41-.96-7.33-2.89-1.93-1.92-2.89-4.37-2.89-7.33,0-4.85,1.77-9.34,5.31-13.45,3.54-4.11,7.38-6.17,11.5-6.17,2.03,0,3.68,.56,4.96,1.69,1.28,1.13,1.91,2.59,1.91,4.39,0,.64-.12,1.12-.36,1.44-.24,.32-.69,.64-1.35,.96l-3.96,1.88c-.48,.23-.83,.34-1.06,.34-.32,0-.48-.23-.48-.68,0-.18,.07-.78,.21-1.79,.14-1.01,.21-1.63,.21-1.86,0-1-.21-1.81-.63-2.43s-.99-.92-1.69-.92c-1.66,0-3.18,1.23-4.56,3.69-1.38,2.46-2.07,5.26-2.07,8.41,0,2.71,.65,4.88,1.95,6.49,1.3,1.62,3.03,2.43,5.2,2.43,1.85,0,3.58-.53,5.21-1.59s3.48-2.68,5.55-4.87v3.93Z"/><path class="cls-1" d="M441.58,142.03c-3.65,3.46-6.25,5.72-7.83,6.77-1.57,1.05-3.08,1.57-4.51,1.57-3.6,0-5.3-3.18-5.09-9.54-2.28,3.26-4.38,5.66-6.31,7.21-1.93,1.55-3.91,2.32-5.96,2.32s-3.71-.94-5.11-2.82c-1.4-1.88-2.1-4.19-2.1-6.92,0-3.42,.94-6.68,2.82-9.78,1.88-3.1,4.29-5.61,7.23-7.52s5.54-2.87,7.79-2.87c2.85,0,4.84,1.31,5.98,3.93l6.99-3.86h1.92l-3.01,10.01c-1.55,5.04-2.33,8.49-2.33,10.36,0,1.96,.69,2.94,2.08,2.94,.89,0,1.87-.47,2.94-1.42,1.07-.95,2.57-2.39,4.51-4.32v3.93Zm-25.02,1.88c2.28,0,4.43-1.94,6.44-5.83,2.02-3.88,3.02-7.47,3.02-10.75,0-1.28-.29-2.27-.85-2.99-.57-.72-1.33-1.08-2.29-1.08-2.28,0-4.44,1.94-6.48,5.81-2.04,3.87-3.06,7.44-3.06,10.7,0,1.23,.3,2.23,.91,2.99,.6,.76,1.37,1.15,2.31,1.15Z"/><path class="cls-1" d="M475.11,142.03c-5.26,5.56-9.78,8.34-13.54,8.34-1.53,0-2.76-.54-3.69-1.61-.93-1.07-1.4-2.51-1.4-4.31,0-2.44,1-6.16,3.01-11.18,1.07-2.69,1.61-4.4,1.61-5.13s-.29-1.09-.85-1.09c-.32,0-.74,.16-1.26,.48-.48,.32-1.04,.76-1.67,1.33-.57,.52-1.21,1.16-1.91,1.91-.62,.64-1.28,1.37-1.98,2.19l-1.91,2.22c-.84,1.03-1.37,2.11-1.57,3.25-.34,1.94-.57,3.71-.68,5.33-.07,1.21-.1,2.84-.1,4.89l-7.55,1.78c-.25-3.08-.38-5.37-.38-6.87,0-3.67,.43-7.14,1.28-10.43,.86-3.28,2.23-6.97,4.12-11.07l8.34-1.61c-1.75,4.72-2.91,8.43-3.45,11.14,3.73-4.17,6.7-7.06,8.89-8.67,2.19-1.61,4.15-2.41,5.85-2.41,1.16,0,2.13,.44,2.9,1.31,.77,.88,1.16,1.97,1.16,3.29,0,2.18-.98,5.78-2.94,10.8-1.34,3.44-2.02,5.68-2.02,6.7,0,1.37,.56,2.06,1.68,2.06,1.67,0,4.36-2.2,8.09-6.6v3.93Z"/><path class="cls-1" d="M500.64,142.03c-2.89,2.85-5.49,4.95-7.79,6.31-2.3,1.36-4.84,2.03-7.62,2.03-3.1,0-5.6-.99-7.5-2.97s-2.85-4.59-2.85-7.83c0-4.83,1.67-9.2,5.02-13.11s7.06-5.86,11.14-5.86c2.12,0,3.82,.55,5.09,1.64,1.28,1.09,1.91,2.53,1.91,4.31,0,4.72-5.01,8.54-15.04,11.48,.91,4.44,3.29,6.66,7.14,6.66,1.5,0,2.94-.4,4.31-1.21s3.43-2.6,6.19-5.38v3.93Zm-17.91-6.32c5.83-1.64,8.75-4.67,8.75-9.09,0-2.19-.8-3.28-2.39-3.28-1.5,0-2.94,1.14-4.31,3.43s-2.05,5.27-2.05,8.94Z"/><path class="cls-1" d="M511.17,122c1.57-.41,3.16-.75,4.75-1.01,1.59-.26,2.55-.39,2.87-.39,.23,0,.34,.09,.34,.27,0,.34-.09,.69-.27,1.06-.37,1.05-.55,2.05-.55,3.01,0,1.18,.69,2.8,2.05,4.85s2.05,3.96,2.05,5.71c0,3.49-1.67,6.85-5.01,10.08-3.34,3.24-6.8,4.85-10.37,4.85-1.55,0-2.96-.41-4.24-1.23-1.28-.82-1.91-1.7-1.91-2.63,0-.55,.63-1.58,1.9-3.11,1.26-1.53,2.17-2.29,2.72-2.29,.73,0,1.38,.93,1.95,2.8,.57,1.87,1.55,2.8,2.94,2.8s2.69-.64,3.91-1.93,1.83-2.67,1.83-4.15c0-1.44-.77-3.35-2.32-5.74s-2.58-4.4-3.08-6.01c-2.64,4.26-5.99,8.62-10.05,13.09h-.79v-3.08c5.58-5.95,9.34-11.6,11.28-16.95Z"/><path class="cls-1" d="M596.89,142.03c-2.85,2.78-5.29,4.87-7.31,6.26-2.03,1.39-4,2.08-5.91,2.08-1.5,0-2.7-.52-3.57-1.55s-1.31-2.43-1.31-4.19c0-2.46,.62-5.58,1.85-9.37,1.23-3.78,1.85-6.08,1.85-6.9,0-.73-.38-1.09-1.13-1.09-.23,0-.5,.08-.82,.24-.34,.16-.73,.39-1.16,.68-.43,.32-.9,.71-1.4,1.16-.5,.46-1.03,.98-1.57,1.57-.59,.59-1.18,1.24-1.78,1.95-1,1.18-1.59,2.18-1.78,2.97l-1.14,4.89-2.07,8.07-8.66,1.57,3.32-14.08c.25-1.03,.55-2.53,.89-4.51s.51-3.17,.51-3.55c0-.77-.26-1.16-.79-1.16-.16,0-.39,.08-.68,.24-.34,.16-.73,.4-1.16,.72-.5,.37-1.04,.8-1.61,1.3-.62,.55-1.28,1.17-1.98,1.88-.75,.75-1.53,1.58-2.32,2.49-1.09,1.23-1.78,2.67-2.05,4.31-.37,1.96-.62,3.71-.75,5.26-.16,1.55-.25,3.28-.27,5.2l-7.59,1.81c-.18-2.62-.27-4.81-.27-6.56,0-4.17,.43-7.8,1.3-10.89s2.28-6.69,4.24-10.82l8.27-1.61c-1.48,3.71-2.63,7.3-3.45,10.77,6.13-7.13,10.82-10.7,14.08-10.7,1.18,0,2.15,.48,2.89,1.45,.74,.97,1.11,2.24,1.11,3.81,0,.73-.11,2.07-.34,4.03,3.85-3.85,6.62-6.36,8.29-7.54,1.67-1.17,3.22-1.76,4.63-1.76,1.25,0,2.28,.5,3.08,1.5,.8,1,1.2,2.28,1.2,3.83,0,2.44-.67,5.57-2.01,9.4-1.34,3.83-2.01,6.36-2.01,7.59s.46,1.91,1.4,1.91c.59,0,1.42-.39,2.47-1.18,1.06-.79,2.9-2.59,5.54-5.42v3.93Z"/><path class="cls-1" d="M633.4,142.03c-3.65,3.46-6.26,5.72-7.83,6.77-1.57,1.05-3.08,1.57-4.51,1.57-3.6,0-5.3-3.18-5.09-9.54-2.28,3.26-4.38,5.66-6.31,7.21-1.93,1.55-3.91,2.32-5.96,2.32s-3.71-.94-5.11-2.82c-1.4-1.88-2.1-4.19-2.1-6.92,0-3.42,.94-6.68,2.82-9.78,1.88-3.1,4.29-5.61,7.23-7.52s5.54-2.87,7.79-2.87c2.85,0,4.84,1.31,5.98,3.93l6.99-3.86h1.92l-3.02,10.01c-1.55,5.04-2.33,8.49-2.33,10.36,0,1.96,.69,2.94,2.08,2.94,.89,0,1.87-.47,2.94-1.42,1.07-.95,2.57-2.39,4.51-4.32v3.93Zm-25.02,1.88c2.28,0,4.43-1.94,6.44-5.83,2.02-3.88,3.02-7.47,3.02-10.75,0-1.28-.29-2.27-.85-2.99-.57-.72-1.33-1.08-2.29-1.08-2.28,0-4.44,1.94-6.48,5.81-2.04,3.87-3.06,7.44-3.06,10.7,0,1.23,.3,2.23,.91,2.99,.6,.76,1.37,1.15,2.31,1.15Z"/><path class="cls-1" d="M658.93,142.03c-2.15,2.16-4.81,4.1-7.99,5.81-.83,6.22-2.41,11-4.75,14.32-2.34,3.33-4.72,4.99-7.16,4.99-1.53,0-2.83-.63-3.9-1.9s-1.61-2.82-1.61-4.67c0-4.47,3.01-8.23,9.02-11.28l2.53-20.58c-4.74,5.92-8.64,10.36-11.69,13.29h-.79v-3.08c3.03-2.89,7.11-7.68,12.24-14.36l2.12-2.73c2.39-.27,5.07-.72,8.03-1.33-1.01,5.42-2.19,13.43-3.55,24.03,2.1-1.05,4.57-3.18,7.41-6.39l.07,3.86Zm-16.6,10.42c-1.91,.89-3.41,2.09-4.51,3.61-1.1,1.52-1.65,3.07-1.65,4.67,0,1.03,.24,1.9,.72,2.62s1.04,1.08,1.67,1.08c1.57,0,2.6-2.01,3.08-6.02l.69-5.95Zm15.85-45.29c-.43,5.56-2.75,8.34-6.94,8.34-1.96,0-3.69-.66-5.2-1.98,1.98-2.53,3.15-4.72,3.52-6.56,1.82,1.12,3.34,1.68,4.55,1.68,1.37,0,2.72-.49,4.07-1.47Z"/><path class="cls-1" d="M684.49,142.03c-2.89,2.85-5.49,4.95-7.79,6.31s-4.84,2.03-7.62,2.03c-3.1,0-5.6-.99-7.5-2.97s-2.85-4.59-2.85-7.83c0-4.83,1.68-9.2,5.03-13.11s7.06-5.86,11.14-5.86c2.12,0,3.82,.55,5.09,1.64s1.91,2.53,1.91,4.31c0,4.72-5.01,8.54-15.04,11.48,.91,4.44,3.29,6.66,7.14,6.66,1.5,0,2.94-.4,4.31-1.21s3.43-2.6,6.19-5.38v3.93Zm-17.91-6.32c5.83-1.64,8.75-4.67,8.75-9.09,0-2.19-.8-3.28-2.39-3.28-1.5,0-2.94,1.14-4.31,3.43s-2.05,5.27-2.05,8.94Z"/><path class="cls-1" d="M721,142.03c-3.01,2.85-5.53,4.95-7.55,6.31-2.03,1.36-3.85,2.03-5.47,2.03-1.8,0-3.19-.72-4.15-2.15s-1.45-3.38-1.45-5.85c-2.51,2.76-4.75,4.79-6.73,6.1s-3.92,1.96-5.81,1.96c-1.73,0-3.12-.72-4.17-2.15s-1.57-3.38-1.57-5.85c0-4.74,1.6-11.42,4.79-20.03l9.13-1.82c-3.75,10.92-5.63,17.93-5.64,21.03,0,2.19,.82,3.28,2.46,3.28,1.19,0,2.65-.96,4.41-2.89,1.75-1.92,2.85-3.61,3.28-5.04l4.48-14.56,9.3-1.88c-2.15,6.86-3.62,11.68-4.42,14.46-.8,2.78-1.2,4.73-1.2,5.85,0,2.14,.73,3.21,2.19,3.21,1.19,0,2.94-1.08,5.27-3.25l2.87-2.7v3.93Z"/><path class="cls-1" d="M746.53,142.03c-5.72,5.61-10.13,8.41-13.23,8.41-1.39,0-2.56-.59-3.52-1.76s-1.44-2.63-1.44-4.36c0-3.21,1.72-7.52,5.16-12.92-1.69,.87-3.53,1.47-5.54,1.81-1.48,2.73-3.8,5.67-6.97,8.82h-.79v-3.08c1.78-1.85,3.38-3.83,4.82-5.95-1.96-.87-2.94-2.15-2.94-3.86s.6-3.63,1.79-5.62c1.2-1.99,2.84-2.99,4.94-2.99,1.78,0,2.67,.91,2.67,2.73,0,1.44-.51,3.49-1.54,6.15,3.78-.41,7.09-3.3,9.91-8.68l3.11-.14-3.18,8.75c-1.32,3.69-2.18,6.2-2.56,7.54-.39,1.33-.58,2.51-.58,3.54,0,.96,.22,1.72,.67,2.29,.44,.57,1.04,.86,1.79,.86,.82,0,1.61-.28,2.36-.84s2.44-2.1,5.06-4.63v3.93Z"/><path class="cls-1" d="M757.06,122c1.57-.41,3.15-.75,4.75-1.01s2.55-.39,2.87-.39c.23,0,.34,.09,.34,.27,0,.34-.09,.69-.27,1.06-.37,1.05-.55,2.05-.55,3.01,0,1.18,.69,2.8,2.05,4.85s2.05,3.96,2.05,5.71c0,3.49-1.67,6.85-5.01,10.08-3.34,3.24-6.8,4.85-10.38,4.85-1.55,0-2.96-.41-4.24-1.23s-1.91-1.7-1.91-2.63c0-.55,.63-1.58,1.9-3.11,1.26-1.53,2.17-2.29,2.72-2.29,.73,0,1.38,.93,1.95,2.8,.57,1.87,1.55,2.8,2.94,2.8s2.7-.64,3.91-1.93,1.83-2.67,1.83-4.15c0-1.44-.77-3.35-2.32-5.74-1.55-2.39-2.58-4.4-3.08-6.01-2.64,4.26-5.99,8.62-10.05,13.09h-.79v-3.08c5.58-5.95,9.34-11.6,11.28-16.95Z"/></g></g></g><g id="_반짝이"><polygon class="cls-10" points="285.57 913.53 300.88 972.92 350.16 985.12 300.88 998.51 285.57 1059 269.44 998.51 220.97 985.12 269.44 972.92 285.57 913.53"/><polygon class="cls-11" points="823.09 872.01 835.19 918.96 874.14 928.6 835.19 939.19 823.09 987 810.34 939.19 772.03 928.6 810.34 918.96 823.09 872.01"/><circle class="cls-11" cx="202.5" cy="1054.5" r="11.5"/><circle class="cls-10" cx="242" cy="1101" r="6"/><circle class="cls-11" cx="241.5" cy="739.5" r="12.5"/><circle class="cls-10" cx="861" cy="733" r="14"/><circle class="cls-10" cx="883.5" cy="1035.5" r="13.5"/><circle class="cls-11" cx="869.5" cy="1091.5" r="7.5"/></g><g id="_악마"><g><path class="cls-8" d="M429.85,554.73c6.54,3.32,16.36,9.19,26,19,9.14,9.3,21.95,22.33,23,42,.82,15.26,.1,25.86-1.5,29.5-7.34,16.67-19.05,25.21-27,27-11.43,2.57-26.72,4.83-38.5,1.5-13.56-3.83-22.16-17.15-24-20-5.97-9.25-6.08-16.03-13-19-4.82-2.07-9.79-.95-14,0-7.6,1.71-12.6,5.55-17,9-7.82,6.14-12.72,9.98-15,17-3.5,10.8,1.85,20.94,4,25,4.67,8.84,11.45,13.77,15,16-5.12,.54-13.06,.71-22-2-21.66-6.57-32.35-24.99-37-33-3.73-6.43-14.25-25.17-11-50,3.32-25.39,18.92-40.95,26-48,25.79-25.71,57.86-28.53,66-29,29.52-1.7,51.44,9.86,60,15Z"/><path class="cls-6" d="M465.85,560.73c1.52,9.88,7.58,32.72-.5,54.5-3.63,9.79-7.74,24.25-24,36-24.72,17.87-60.79,9.87-66.5,8.5"/><path class="cls-6" d="M412.35,540.23c14,11,21.27,24.3,22,33,1.13,13.5-.36,22.41-3,30-3.24,9.33-9,20-23,31-7.86,6.18-22,12-30,11"/><path class="cls-6" d="M367.77,535.87c5.11,3.48,14,10.58,20.61,22.63,6.94,12.66,7.67,24.07,7.8,26.61,.3,6.13-.12,16.85-5.68,28.46-6.85,14.28-17.61,21.82-22.29,24.72"/><path class="cls-6" d="M296.35,571.23c4.11-1.56,11.2-3.64,20-3,17.95,1.3,29.17,12.88,32,16,9.14,10.1,11.28,21.13,13,30,2.57,13.22,1.28,24.31,0,31"/><path class="cls-6" d="M264.88,633.54c4.35-3.78,11.44-9.04,21.12-12.54,9.02-3.26,24.27-8.76,39.26-.22,19.79,11.27,24.58,38.71,25.11,41.99"/><path class="cls-6" d="M305.35,694.23c-4.39-6.5-4.74-14.59-1-20,5.12-7.4,17.7-9.44,27-2"/></g><g><path class="cls-8" d="M639.15,554.73c-6.54,3.32-16.36,9.19-26,19-9.14,9.3-21.95,22.33-23,42-.82,15.26-.1,25.86,1.5,29.5,7.34,16.67,19.05,25.21,27,27,11.43,2.57,26.72,4.83,38.5,1.5,13.56-3.83,22.16-17.15,24-20,5.97-9.25,6.08-16.03,13-19,4.82-2.07,9.79-.95,14,0,7.6,1.71,12.6,5.55,17,9,7.82,6.14,12.72,9.98,15,17,3.5,10.8-1.85,20.94-4,25-4.67,8.84-11.45,13.77-15,16,5.12,.54,13.06,.71,22-2,21.66-6.57,32.35-24.99,37-33,3.73-6.43,14.25-25.17,11-50-3.32-25.39-18.92-40.95-26-48-25.79-25.71-57.86-28.53-66-29-29.52-1.7-51.44,9.86-60,15Z"/><path class="cls-6" d="M603.15,560.73c-1.52,9.88-7.58,32.72,.5,54.5,3.63,9.79,7.74,24.25,24,36,24.72,17.87,60.79,9.87,66.5,8.5"/><path class="cls-6" d="M656.65,540.23c-14,11-21.27,24.3-22,33-1.13,13.5,.36,22.41,3,30,3.24,9.33,9,20,23,31,7.86,6.18,22,12,30,11"/><path class="cls-6" d="M701.23,535.87c-5.11,3.48-14,10.58-20.61,22.63-6.94,12.66-7.67,24.07-7.8,26.61-.3,6.13,.12,16.85,5.68,28.46,6.85,14.28,17.61,21.82,22.29,24.72"/><path class="cls-6" d="M772.65,571.23c-4.11-1.56-11.2-3.64-20-3-17.95,1.3-29.17,12.88-32,16-9.14,10.1-11.28,21.13-13,30-2.57,13.22-1.28,24.31,0,31"/><path class="cls-6" d="M804.12,633.54c-4.35-3.78-11.44-9.04-21.12-12.54-9.02-3.26-24.27-8.76-39.26-.22-19.79,11.27-24.58,38.71-25.11,41.99"/><path class="cls-6" d="M763.65,694.23c4.39-6.5,4.74-14.59,1-20-5.12-7.4-17.7-9.44-27-2"/></g><polygon class="cls-3" points="535.39 542 570.11 748.06 663.7 703.57 619.21 797.16 831 831.88 619.21 866.6 663.7 960.19 570.11 915.7 535.39 1139 500.67 915.7 407.08 960.19 451.57 866.6 236 831.88 451.57 797.16 407.08 703.57 500.67 748.06 535.39 542"/><polygon class="cls-7" points="535.19 685.33 552.5 788.07 599.17 765.89 576.99 812.56 682.58 829.87 576.99 847.18 599.17 893.85 552.5 871.66 535.19 983 517.88 871.66 471.22 893.85 493.4 847.18 385.92 829.87 493.4 812.56 471.22 765.89 517.88 788.07 535.19 685.33"/><path class="cls-4" d="M793.34,1135.8l-8.82,28.67c4.03,1.24,7.52,3.43,10.39,6.52,4.32,4.65,6.58,10.76,6.34,17.21-.24,6.45-2.93,12.38-7.58,16.7l-58.6,54.46c-6.24,5.8-15.25,7.82-23.53,5.27-4.03-1.24-7.52-3.43-10.39-6.52-4.32-4.65-6.57-10.77-6.34-17.21s2.93-12.38,7.58-16.7l58.6-54.46c6.24-5.8,15.25-7.82,23.53-5.28l8.82-28.67m0,0c-17.87-5.5-38.16-1.6-52.77,11.98l-58.6,54.46c-21.75,20.22-23.01,54.56-2.79,76.32h0c6.64,7.14,14.8,12.08,23.54,14.77,17.87,5.5,38.16,1.6,52.77-11.98l58.6-54.46c21.75-20.22,23.01-54.56,2.79-76.32h0c-6.64-7.15-14.8-12.08-23.54-14.77h0Z"/><path class="cls-5" d="M604.65,1172.51l-.21,30c1,0,2.01,.08,3.01,.21l79.29,10.63c6.29,.84,11.92,4.13,15.83,9.26,3.92,5.13,5.61,11.42,4.76,17.71-1.6,11.95-11.9,20.9-23.96,20.81-1,0-2.01-.08-3.01-.21l-79.29-10.63c-6.29-.84-11.92-4.13-15.83-9.26-3.92-5.13-5.61-11.42-4.76-17.71,1.6-11.95,11.9-20.9,23.97-20.81l.21-30m0,0c-26.74-.19-50.27,19.67-53.91,46.82-3.95,29.44,16.91,56.75,46.35,60.7l79.29,10.63c2.28,.31,4.54,.46,6.79,.48,26.74,.19,50.27-19.67,53.91-46.82,3.95-29.44-16.91-56.75-46.35-60.7l-79.29-10.63c-2.28-.31-4.54-.46-6.79-.48h0Z"/><path class="cls-4" d="M489.64,1189.32l-20.4,21.99c3.09,2.86,5.28,6.36,6.52,10.38,1.87,6.07,1.24,12.55-1.77,18.26-3.02,5.71-8.02,9.88-14.09,11.75l-76.45,23.58c-8.14,2.51-17.14,.41-23.48-5.48-3.09-2.87-5.28-6.36-6.52-10.38-1.87-6.07-1.24-12.55,1.77-18.26,3.02-5.71,8.02-9.88,14.09-11.75l76.45-23.58c8.14-2.51,17.14-.41,23.48,5.48l20.41-21.99m0,0c-13.71-12.72-33.67-18.03-52.73-12.15l-76.45,23.58c-28.38,8.75-44.44,39.14-35.68,67.52h0c2.88,9.32,8.08,17.31,14.79,23.53,13.71,12.72,33.67,18.03,52.73,12.15l76.45-23.58c28.38-8.75,44.44-39.14,35.68-67.52h0c-2.88-9.32-8.08-17.31-14.79-23.53h0Z"/><path class="cls-5" d="M304.96,1138.92l-14.13,26.47c.88,.47,1.74,1,2.57,1.59l65.28,46.25c5.18,3.67,8.63,9.2,9.72,15.56,1.09,6.36-.34,12.72-4.01,17.9-6.97,9.84-20.25,12.97-30.89,7.3-.88-.47-1.74-1-2.57-1.59l-65.28-46.25c-5.18-3.67-8.63-9.2-9.72-15.56-1.09-6.36,.34-12.72,4.01-17.9,6.97-9.84,20.25-12.97,30.89-7.3l14.13-26.47m0,0c-23.59-12.59-53.65-5.94-69.49,16.42-17.17,24.23-11.39,58.11,12.84,75.28l65.28,46.25c1.88,1.33,3.81,2.52,5.79,3.58,23.59,12.59,53.65,5.94,69.49-16.42,17.17-24.23,11.39-58.11-12.84-75.28l-65.28-46.25c-1.88-1.33-3.81-2.52-5.79-3.58h0Z"/><path class="cls-5" d="M493.62,1154.45l-4.91,29.6c.98,.16,1.97,.39,2.94,.68l76.65,22.91c6.08,1.82,11.12,5.95,14.19,11.63,3.06,5.68,3.75,12.16,1.93,18.24-3.45,11.55-15.03,18.78-26.93,16.8-.98-.16-1.97-.39-2.94-.68l-76.65-22.91c-6.08-1.82-11.12-5.95-14.19-11.63-3.06-5.68-3.75-12.16-1.93-18.24,3.45-11.55,15.03-18.77,26.93-16.8l4.91-29.6m0,0c-26.38-4.37-52.73,11.55-60.58,37.81-8.51,28.46,7.82,58.7,36.27,67.2l76.65,22.91c2.2,.66,4.41,1.17,6.63,1.53,26.38,4.37,52.73-11.55,60.58-37.81,8.51-28.46-7.82-58.7-36.27-67.2l-76.65-22.91c-2.2-.66-4.41-1.17-6.63-1.53h0Z"/><path class="cls-2" d="M504.43,1212.85h0c-2.88-9.32-8.08-17.31-14.79-23.53l-20.4,21.99c3.09,2.86,5.28,6.36,6.52,10.38,1.87,6.07,1.24,12.55-1.77,18.26-3.02,5.71-8.02,9.88-14.09,11.75l-76.45,23.58c-8.14,2.51-17.14,.41-23.48-5.48-3.09-2.87-5.28-6.36-6.52-10.38-1.87-6.07-1.24-12.55,1.77-18.26,.32-.61,.68-1.2,1.04-1.78-8.77-4.11-16.96-10.47-24.59-17.2-8.81,13.1-11.88,29.91-6.9,46.08h0c2.88,9.32,8.08,17.31,14.79,23.53,13.71,12.72,33.67,18.03,52.73,12.15l76.45-23.58c28.38-8.75,44.44-39.14,35.68-67.52Z"/><path class="cls-5" d="M690.73,1183.62l-49.08-6.58c-2.54,10.13-5.28,20.19-9.9,28.94l54.99,7.37c6.29,.84,11.92,4.13,15.83,9.26,3.92,5.13,5.61,11.42,4.76,17.71-1.6,11.95-11.9,20.9-23.96,20.81-1,0-2.01-.08-3.01-.21l-79.29-10.63c-6.29-.84-11.92-4.13-15.83-9.26-2.31-3.02-3.84-6.45-4.54-10.04-10.52-1.87-20.83-6.69-29.71-13.23-.09,.52-.18,1.05-.25,1.58-3.95,29.44,16.91,56.75,46.35,60.7l79.29,10.63c2.28,.31,4.54,.46,6.79,.48,26.74,.19,50.27-19.67,53.91-46.82,3.95-29.44-16.91-56.75-46.35-60.7Z"/><path class="cls-2" d="M816.88,1150.57h0c-6.64-7.14-14.8-12.08-23.54-14.77l-8.82,28.67c4.03,1.24,7.52,3.43,10.39,6.52,4.32,4.65,6.58,10.76,6.34,17.21-.24,6.45-2.93,12.38-7.58,16.7l-58.6,54.46c-6.24,5.8-15.25,7.82-23.53,5.27-4.03-1.24-7.52-3.43-10.39-6.52-4.32-4.65-6.57-10.77-6.34-17.21,.03-.69,.08-1.38,.17-2.06-9.68,.12-19.83-2.05-29.62-4.8-2.24,15.63,2.3,32.1,13.82,44.5h0c6.64,7.14,14.8,12.08,23.54,14.77,17.87,5.5,38.16,1.6,52.77-11.98l58.6-54.46c21.75-20.22,23.01-54.56,2.79-76.32Z"/></g></svg>