<?xml version="1.0" encoding="UTF-8"?><svg xmlns="http://www.w3.org/2000/svg" viewBox="0 0 1080 1944"><defs><style>.cls-1{fill:#fff;}.cls-2{fill:#f6ef84;}.cls-3{fill:#3f3730;}.cls-4{fill:#4c5fa9;}.cls-5{stroke-width:10px;}.cls-5,.cls-6{fill:none;stroke:#f6ef84;stroke-linecap:round;stroke-miterlimit:10;}.cls-6{stroke-width:15px;}.cls-7{fill:#bad6eb;}.cls-8{fill:#c8c0de;}.cls-9{fill:#b1d4f0;}</style></defs><g id="_배경"><g><rect class="cls-7" width="1080" height="1944"/><rect class="cls-1" x="74.84" y="186.39" width="930.33" height="1606.64" rx="65.21" ry="65.21"/><g><path class="cls-3" d="M402.06,1646.47c1.52,0,2.29,.49,2.29,1.46l-1.41,7.79-.29,14.47c-.2,4.73-.92,9.08-2.17,13.07-1.13,3.71-2.72,7.09-4.75,10.14-1.84,2.81-4.04,5.29-6.62,7.44-2.38,1.99-5,3.67-7.85,5.04-2.66,1.25-5.45,2.19-8.38,2.81-2.7,.62-5.41,.94-8.14,.94-6.37,0-11.36-1.38-14.97-4.13-3.61-2.75-5.42-5.42-5.42-8,0-1.48,1.34-3.4,4.01-5.74,2.67-2.34,4.7-3.52,6.06-3.52,1.68,0,2.52,1.56,2.52,4.69,0,5.08,.83,8.37,2.49,9.87,1.66,1.5,3.88,2.26,6.65,2.26,4.49,0,8.43-1.43,11.81-4.28,3.38-2.85,5.65-6.26,6.83-10.22,1.17-3.96,1.78-9.81,1.82-17.55,.04-7.73,.62-13.06,1.73-15.97,1.11-2.91,3.15-5.4,6.12-7.47,2.97-2.07,5.53-3.11,7.68-3.11Zm21.97-17.99c-1.13,8.4-4.71,12.6-10.72,12.6-2.11,0-6.15-.95-12.13-2.84-5.98-1.89-11.13-2.84-15.47-2.84-5.59,0-10.42,2.07-14.5,6.22-4.08,4.15-6.12,7.77-6.12,10.86s1.88,5.69,5.62,8.04c1.52,.98,2.29,1.86,2.29,2.64,0,1.06-1.08,2.48-3.25,4.28s-3.8,2.7-4.89,2.7c-1.84,0-3.55-1.05-5.16-3.16-1.6-2.11-2.4-4.41-2.4-6.91,0-4.84,1.97-10.13,5.92-15.85,3.95-5.72,9.1-10.39,15.47-14,6.37-3.61,13.05-5.42,20.04-5.42,4.73,0,9.2,.71,13.42,2.14,4.22,1.43,6.86,2.14,7.91,2.14,.94,0,1.74-.27,2.4-.82l.35-.12,1.23,.35Z"/><path class="cls-3" d="M476.35,1695.34c-9.26,9.61-16.88,14.41-22.85,14.41-2.66,0-4.85-.91-6.59-2.72-1.74-1.82-2.61-4.11-2.61-6.88,0-4.69,1.8-11.29,5.39-19.8,1.91-4.61,2.87-7.62,2.87-9.02,0-1.6-.76-2.4-2.29-2.4s-3.83,1.06-6.8,3.19c-2.97,2.13-6.09,5.03-9.38,8.7-1.37,7.19-2.05,15.82-2.05,25.9l-13.07,3.05c-.51-4.1-.76-8.55-.76-13.36,0-11.64,1.6-22.48,4.8-32.52,3.2-10.04,8.24-20.68,15.12-31.93,5.12-2.07,9.58-3.76,13.39-5.07,3.81-1.31,5.99-1.96,6.53-1.96,1.02,0,1.88,.82,2.58,2.46s1.05,3.69,1.05,6.15c0,4.14-1.27,8.72-3.81,13.74-2.54,5.02-6.52,11.08-11.95,18.19,5.2-3.01,8.66-4.9,10.38-5.68,1.72-.78,3.48-1.17,5.28-1.17,1.99,0,3.61,.71,4.84,2.14s1.85,3.31,1.85,5.66c0,3.52-1.4,8.97-4.2,16.35-2.8,7.38-4.2,12.01-4.2,13.88,0,.86,.26,1.62,.79,2.29s1.14,1,1.84,1c2.5,0,7.11-3.77,13.82-11.31v6.74Zm-40.61-24.02c13.95-16.21,20.92-28.16,20.92-35.86,0-2.34-.64-3.52-1.93-3.52-2.15,0-5.21,3.85-9.2,11.54-3.98,7.7-7.25,16.97-9.79,27.83Z"/><path class="cls-3" d="M520.12,1695.34c-4.96,4.88-9.41,8.49-13.36,10.81-3.95,2.32-8.3,3.49-13.07,3.49-5.31,0-9.6-1.7-12.86-5.1-3.26-3.4-4.89-7.87-4.89-13.42,0-8.28,2.87-15.77,8.61-22.47,5.74-6.7,12.11-10.05,19.1-10.05,3.63,0,6.54,.94,8.73,2.81,2.19,1.88,3.28,4.34,3.28,7.38,0,8.09-8.59,14.65-25.78,19.69,1.56,7.62,5.64,11.43,12.25,11.43,2.58,0,5.04-.69,7.38-2.08,2.34-1.39,5.88-4.46,10.61-9.23v6.74Zm-30.7-10.84c10-2.81,15-8.01,15-15.59,0-3.75-1.37-5.62-4.1-5.62-2.58,0-5.04,1.96-7.38,5.89s-3.52,9.03-3.52,15.32Z"/><path class="cls-3" d="M611.35,1635.34c0,1.52-2.52,5.27-7.56,11.25h-1.05c-.78-.31-1.27-1.46-1.46-3.46-.43-4.02-1.82-7.31-4.16-9.87-2.34-2.56-5.16-3.84-8.44-3.84-3.09,0-5.74,1.12-7.97,3.37-2.23,2.24-3.34,4.93-3.34,8.05,0,2.26,.71,4.69,2.12,7.29,1.41,2.59,5.08,6.71,10.99,12.34s9.71,10.12,11.38,13.46c1.68,3.34,2.52,6.51,2.52,9.52,0,6.95-3.02,13.08-9.05,18.37-6.04,5.29-13.1,7.94-21.18,7.94-6.68,0-12.19-1.55-16.52-4.66s-6.5-5.63-6.5-7.59c0-1.09,1.19-3.63,3.57-7.62,2.38-3.98,3.75-5.98,4.1-5.98,1.25,0,2.14,.36,2.67,1.08,.53,.72,.89,2.06,1.08,4.01,.59,6.09,2.06,10.29,4.42,12.6,2.36,2.31,5.44,3.46,9.23,3.46,4.14,0,7.75-1.43,10.84-4.3,3.08-2.87,4.63-6.2,4.63-9.98,0-1.95-.6-4.03-1.8-6.23-1.2-2.21-4.58-5.96-10.14-11.26-5.56-5.3-9.2-9.79-10.92-13.46-1.72-3.67-2.58-7.25-2.58-10.72,0-6.05,2.29-11.62,6.86-16.7,4.57-5.08,10.64-7.62,18.22-7.62,5.74,0,10.52,1.32,14.33,3.96s5.71,4.83,5.71,6.59Z"/><path class="cls-3" d="M680.26,1695.34c-5.16,4.88-9.47,8.49-12.95,10.81-3.48,2.32-6.6,3.49-9.38,3.49-3.09,0-5.46-1.23-7.12-3.69-1.66-2.46-2.49-5.8-2.49-10.02-4.3,4.73-8.14,8.21-11.54,10.46s-6.72,3.37-9.96,3.37c-2.97,0-5.35-1.23-7.15-3.69-1.8-2.46-2.7-5.8-2.7-10.02,0-8.12,2.73-19.57,8.2-34.34l15.65-3.12c-6.44,18.73-9.66,30.74-9.67,36.05,0,3.75,1.41,5.62,4.22,5.62,2.03,0,4.55-1.65,7.56-4.95,3.01-3.3,4.88-6.18,5.62-8.64l7.68-24.96,15.95-3.23c-3.68,11.76-6.21,20.02-7.58,24.78-1.37,4.77-2.06,8.11-2.06,10.02,0,3.67,1.25,5.51,3.75,5.51,2.03,0,5.04-1.85,9.03-5.57l4.93-4.63v6.74Z"/><path class="cls-3" d="M737.74,1695.34c-9.02,9.53-16.76,14.3-23.2,14.3-2.62,0-4.73-.92-6.33-2.75-1.6-1.84-2.4-4.3-2.4-7.38,0-4.18,1.72-10.57,5.16-19.16,1.84-4.61,2.75-7.54,2.75-8.79s-.49-1.88-1.46-1.88c-.55,0-1.27,.27-2.17,.82-.82,.55-1.78,1.31-2.87,2.29-.98,.9-2.07,1.99-3.28,3.28-1.05,1.09-2.19,2.34-3.4,3.75l-3.28,3.81c-1.45,1.76-2.34,3.61-2.7,5.57-.59,3.32-.98,6.37-1.17,9.14-.12,2.07-.18,4.86-.18,8.38l-12.95,3.05c-.43-5.27-.64-9.2-.64-11.78,0-6.29,.73-12.25,2.2-17.87s3.82-11.95,7.06-18.98l14.3-2.75c-3.01,8.09-4.98,14.45-5.92,19.1,6.4-7.15,11.48-12.1,15.25-14.85s7.11-4.13,10.03-4.13c1.99,0,3.65,.75,4.97,2.25,1.33,1.5,1.99,3.38,1.99,5.65,0,3.75-1.68,9.92-5.04,18.51-2.3,5.9-3.46,9.73-3.46,11.49,0,2.35,.96,3.53,2.88,3.53,2.86,0,7.48-3.77,13.86-11.31v6.74Z"/></g><g><path class="cls-1" d="M353.98,142.06c-5.24,5.58-10.05,8.37-14.42,8.37-2.42,0-4.33-.85-5.74-2.56s-2.2-4.15-2.36-7.31c-2.76,3.35-5.2,5.83-7.33,7.45-2.13,1.62-4.4,2.43-6.82,2.43-3.1,0-5.59-1.34-7.47-4.02-1.88-2.68-2.82-6.25-2.82-10.71,0-5.33,1.23-10.83,3.69-16.49s6.11-10.13,10.94-13.42,10.69-4.92,17.57-4.92c5.15,0,9.81,.7,13.98,2.09v2.26c-3.4,3.96-6.24,9.51-8.53,16.64-2.29,7.13-3.44,12.57-3.44,16.3,0,1.82,.37,3.24,1.11,4.24,.74,1,1.77,1.5,3.09,1.5,2.37,0,5.22-1.93,8.54-5.78v3.93Zm-9.95-36.85c-2.1-1.14-4.35-1.71-6.77-1.71-3.81,0-7.24,1.59-10.29,4.77s-5.46,7.39-7.23,12.63c-1.77,5.24-2.65,9.79-2.65,13.64,0,2.57,.5,4.67,1.49,6.27,.99,1.61,2.26,2.41,3.81,2.41,2.69,0,5.78-2.45,9.26-7.35,1.44-12.85,5.56-23.07,12.37-30.66Z"/><path class="cls-1" d="M379.51,142.03c-5.72,5.61-10.13,8.41-13.23,8.41-1.39,0-2.56-.59-3.52-1.76s-1.44-2.63-1.44-4.36c0-3.21,1.72-7.52,5.16-12.92-1.69,.87-3.53,1.47-5.54,1.81-1.48,2.73-3.8,5.67-6.97,8.82h-.79v-3.08c1.78-1.85,3.38-3.83,4.82-5.95-1.96-.87-2.94-2.15-2.94-3.86s.6-3.63,1.79-5.62c1.2-1.99,2.84-2.99,4.94-2.99,1.78,0,2.67,.91,2.67,2.73,0,1.44-.51,3.49-1.54,6.15,3.78-.41,7.09-3.3,9.91-8.68l3.11-.14-3.18,8.75c-1.32,3.69-2.18,6.2-2.56,7.54-.39,1.33-.58,2.51-.58,3.54,0,.96,.22,1.72,.67,2.29,.44,.57,1.04,.86,1.79,.86,.82,0,1.61-.28,2.36-.84s2.44-2.1,5.06-4.63v3.93Z"/><path class="cls-1" d="M405.08,142.03c-2.92,2.87-5.59,4.98-8.02,6.32-2.43,1.34-4.96,2.02-7.61,2.02-2.96,0-5.41-.96-7.33-2.89-1.93-1.92-2.89-4.37-2.89-7.33,0-4.85,1.77-9.34,5.31-13.45,3.54-4.11,7.38-6.17,11.5-6.17,2.03,0,3.68,.56,4.96,1.69s1.91,2.59,1.91,4.39c0,.64-.12,1.12-.36,1.44-.24,.32-.69,.64-1.35,.96l-3.96,1.88c-.48,.23-.83,.34-1.06,.34-.32,0-.48-.23-.48-.68,0-.18,.07-.78,.21-1.79,.14-1.01,.21-1.63,.21-1.86,0-1-.21-1.81-.63-2.43s-.99-.92-1.69-.92c-1.66,0-3.19,1.23-4.56,3.69-1.38,2.46-2.07,5.26-2.07,8.41,0,2.71,.65,4.88,1.95,6.49,1.3,1.62,3.03,2.43,5.2,2.43,1.85,0,3.58-.53,5.21-1.59s3.48-2.68,5.55-4.87v3.93Z"/><path class="cls-1" d="M441.58,142.03c-3.65,3.46-6.26,5.72-7.83,6.77-1.57,1.05-3.08,1.57-4.51,1.57-3.6,0-5.3-3.18-5.09-9.54-2.28,3.26-4.38,5.66-6.31,7.21-1.93,1.55-3.91,2.32-5.96,2.32s-3.71-.94-5.11-2.82c-1.4-1.88-2.1-4.19-2.1-6.92,0-3.42,.94-6.68,2.82-9.78,1.88-3.1,4.29-5.61,7.23-7.52s5.54-2.87,7.79-2.87c2.85,0,4.84,1.31,5.98,3.93l6.99-3.86h1.92l-3.02,10.01c-1.55,5.04-2.33,8.49-2.33,10.36,0,1.96,.69,2.94,2.08,2.94,.89,0,1.87-.47,2.94-1.42,1.07-.95,2.57-2.39,4.51-4.32v3.93Zm-25.02,1.88c2.28,0,4.43-1.94,6.44-5.83,2.02-3.88,3.02-7.47,3.02-10.75,0-1.28-.29-2.27-.85-2.99-.57-.72-1.33-1.08-2.29-1.08-2.28,0-4.44,1.94-6.48,5.81-2.04,3.87-3.06,7.44-3.06,10.7,0,1.23,.3,2.23,.91,2.99,.6,.76,1.37,1.15,2.31,1.15Z"/><path class="cls-1" d="M475.11,142.03c-5.26,5.56-9.78,8.34-13.54,8.34-1.53,0-2.76-.54-3.69-1.61-.93-1.07-1.4-2.51-1.4-4.31,0-2.44,1-6.16,3.01-11.18,1.07-2.69,1.61-4.4,1.61-5.13s-.29-1.09-.85-1.09c-.32,0-.74,.16-1.27,.48-.48,.32-1.04,.76-1.67,1.33-.57,.52-1.21,1.16-1.91,1.91-.62,.64-1.28,1.37-1.98,2.19l-1.91,2.22c-.84,1.03-1.37,2.11-1.57,3.25-.34,1.94-.57,3.71-.68,5.33-.07,1.21-.1,2.84-.1,4.89l-7.55,1.78c-.25-3.08-.38-5.37-.38-6.87,0-3.67,.43-7.14,1.28-10.43,.86-3.28,2.23-6.97,4.12-11.07l8.34-1.61c-1.75,4.72-2.9,8.43-3.45,11.14,3.73-4.17,6.7-7.06,8.89-8.67,2.19-1.61,4.14-2.41,5.85-2.41,1.16,0,2.13,.44,2.9,1.31,.77,.88,1.16,1.97,1.16,3.29,0,2.18-.98,5.78-2.94,10.8-1.34,3.44-2.02,5.68-2.02,6.7,0,1.37,.56,2.06,1.68,2.06,1.67,0,4.36-2.2,8.09-6.6v3.93Z"/><path class="cls-1" d="M500.64,142.03c-2.89,2.85-5.49,4.95-7.79,6.31-2.3,1.36-4.84,2.03-7.62,2.03-3.1,0-5.6-.99-7.5-2.97s-2.85-4.59-2.85-7.83c0-4.83,1.67-9.2,5.02-13.11s7.06-5.86,11.14-5.86c2.12,0,3.82,.55,5.09,1.64,1.28,1.09,1.91,2.53,1.91,4.31,0,4.72-5.01,8.54-15.04,11.48,.91,4.44,3.29,6.66,7.14,6.66,1.5,0,2.94-.4,4.31-1.21s3.43-2.6,6.19-5.38v3.93Zm-17.91-6.32c5.83-1.64,8.75-4.67,8.75-9.09,0-2.19-.8-3.28-2.39-3.28-1.5,0-2.94,1.14-4.31,3.43s-2.05,5.27-2.05,8.94Z"/><path class="cls-1" d="M511.17,122c1.57-.41,3.15-.75,4.75-1.01s2.55-.39,2.87-.39c.23,0,.34,.09,.34,.27,0,.34-.09,.69-.27,1.06-.37,1.05-.55,2.05-.55,3.01,0,1.18,.69,2.8,2.05,4.85s2.05,3.96,2.05,5.71c0,3.49-1.67,6.85-5.01,10.08-3.34,3.24-6.8,4.85-10.38,4.85-1.55,0-2.96-.41-4.24-1.23s-1.91-1.7-1.91-2.63c0-.55,.63-1.58,1.9-3.11,1.26-1.53,2.17-2.29,2.72-2.29,.73,0,1.38,.93,1.95,2.8,.57,1.87,1.55,2.8,2.94,2.8s2.7-.64,3.91-1.93,1.83-2.67,1.83-4.15c0-1.44-.77-3.35-2.32-5.74-1.55-2.39-2.58-4.4-3.08-6.01-2.64,4.26-5.99,8.62-10.05,13.09h-.79v-3.08c5.58-5.95,9.34-11.6,11.28-16.95Z"/><path class="cls-1" d="M596.89,142.03c-2.85,2.78-5.29,4.87-7.31,6.26-2.03,1.39-4,2.08-5.91,2.08-1.5,0-2.7-.52-3.57-1.55s-1.31-2.43-1.31-4.19c0-2.46,.62-5.58,1.85-9.37,1.23-3.78,1.85-6.08,1.85-6.9,0-.73-.38-1.09-1.13-1.09-.23,0-.5,.08-.82,.24-.34,.16-.73,.39-1.16,.68-.43,.32-.9,.71-1.4,1.16-.5,.46-1.03,.98-1.57,1.57-.59,.59-1.18,1.24-1.78,1.95-1,1.18-1.59,2.18-1.78,2.97l-1.14,4.89-2.07,8.07-8.66,1.57,3.32-14.08c.25-1.03,.55-2.53,.89-4.51s.51-3.17,.51-3.55c0-.77-.26-1.16-.79-1.16-.16,0-.39,.08-.68,.24-.34,.16-.73,.4-1.16,.72-.5,.37-1.04,.8-1.61,1.3-.62,.55-1.28,1.17-1.98,1.88-.75,.75-1.53,1.58-2.32,2.49-1.09,1.23-1.78,2.67-2.05,4.31-.37,1.96-.62,3.71-.75,5.26-.16,1.55-.25,3.28-.27,5.2l-7.59,1.81c-.18-2.62-.27-4.81-.27-6.56,0-4.17,.43-7.8,1.3-10.89s2.28-6.69,4.24-10.82l8.27-1.61c-1.48,3.71-2.63,7.3-3.45,10.77,6.13-7.13,10.82-10.7,14.08-10.7,1.18,0,2.15,.48,2.89,1.45,.74,.97,1.11,2.24,1.11,3.81,0,.73-.11,2.07-.34,4.03,3.85-3.85,6.62-6.36,8.29-7.54,1.67-1.17,3.22-1.76,4.63-1.76,1.25,0,2.28,.5,3.08,1.5,.8,1,1.2,2.28,1.2,3.83,0,2.44-.67,5.57-2.01,9.4-1.34,3.83-2.01,6.36-2.01,7.59s.46,1.91,1.4,1.91c.59,0,1.42-.39,2.47-1.18,1.06-.79,2.9-2.59,5.54-5.42v3.93Z"/><path class="cls-1" d="M633.4,142.03c-3.65,3.46-6.26,5.72-7.83,6.77-1.57,1.05-3.08,1.57-4.51,1.57-3.6,0-5.3-3.18-5.09-9.54-2.28,3.26-4.38,5.66-6.31,7.21-1.93,1.55-3.91,2.32-5.96,2.32s-3.71-.94-5.11-2.82c-1.4-1.88-2.1-4.19-2.1-6.92,0-3.42,.94-6.68,2.82-9.78,1.88-3.1,4.29-5.61,7.23-7.52s5.54-2.87,7.79-2.87c2.85,0,4.84,1.31,5.98,3.93l6.99-3.86h1.92l-3.02,10.01c-1.55,5.04-2.33,8.49-2.33,10.36,0,1.96,.69,2.94,2.08,2.94,.89,0,1.87-.47,2.94-1.42,1.07-.95,2.57-2.39,4.51-4.32v3.93Zm-25.02,1.88c2.28,0,4.43-1.94,6.44-5.83,2.02-3.88,3.02-7.47,3.02-10.75,0-1.28-.29-2.27-.85-2.99-.57-.72-1.33-1.08-2.29-1.08-2.28,0-4.44,1.94-6.48,5.81-2.04,3.87-3.06,7.44-3.06,10.7,0,1.23,.3,2.23,.91,2.99,.6,.76,1.37,1.15,2.31,1.15Z"/><path class="cls-1" d="M658.93,142.03c-2.15,2.16-4.81,4.1-7.99,5.81-.83,6.22-2.41,11-4.75,14.32-2.34,3.33-4.72,4.99-7.16,4.99-1.53,0-2.83-.63-3.9-1.9s-1.61-2.82-1.61-4.67c0-4.47,3.01-8.23,9.02-11.28l2.53-20.58c-4.74,5.92-8.64,10.36-11.69,13.29h-.79v-3.08c3.03-2.89,7.11-7.68,12.24-14.36l2.12-2.73c2.39-.27,5.07-.72,8.03-1.33-1.01,5.42-2.19,13.43-3.55,24.03,2.1-1.05,4.57-3.18,7.41-6.39l.07,3.86Zm-16.6,10.42c-1.91,.89-3.41,2.09-4.51,3.61-1.1,1.52-1.65,3.07-1.65,4.67,0,1.03,.24,1.9,.72,2.62s1.04,1.08,1.67,1.08c1.57,0,2.6-2.01,3.08-6.02l.69-5.95Zm15.85-45.29c-.43,5.56-2.75,8.34-6.94,8.34-1.96,0-3.69-.66-5.2-1.98,1.98-2.53,3.15-4.72,3.52-6.56,1.82,1.12,3.34,1.68,4.55,1.68,1.37,0,2.72-.49,4.07-1.47Z"/><path class="cls-1" d="M684.49,142.03c-2.89,2.85-5.49,4.95-7.79,6.31s-4.84,2.03-7.62,2.03c-3.1,0-5.6-.99-7.5-2.97s-2.85-4.59-2.85-7.83c0-4.83,1.68-9.2,5.03-13.11s7.06-5.86,11.14-5.86c2.12,0,3.82,.55,5.09,1.64s1.91,2.53,1.91,4.31c0,4.72-5.01,8.54-15.04,11.48,.91,4.44,3.29,6.66,7.14,6.66,1.5,0,2.94-.4,4.31-1.21s3.43-2.6,6.19-5.38v3.93Zm-17.91-6.32c5.83-1.64,8.75-4.67,8.75-9.09,0-2.19-.8-3.28-2.39-3.28-1.5,0-2.94,1.14-4.31,3.43s-2.05,5.27-2.05,8.94Z"/><path class="cls-1" d="M721,142.03c-3.01,2.85-5.53,4.95-7.55,6.31-2.03,1.36-3.85,2.03-5.47,2.03-1.8,0-3.19-.72-4.15-2.15s-1.45-3.38-1.45-5.85c-2.51,2.76-4.75,4.79-6.73,6.1s-3.92,1.96-5.81,1.96c-1.73,0-3.12-.72-4.17-2.15s-1.57-3.38-1.57-5.85c0-4.74,1.6-11.42,4.79-20.03l9.13-1.82c-3.75,10.92-5.63,17.93-5.64,21.03,0,2.19,.82,3.28,2.46,3.28,1.19,0,2.65-.96,4.41-2.89,1.75-1.92,2.85-3.61,3.28-5.04l4.48-14.56,9.3-1.88c-2.15,6.86-3.62,11.68-4.42,14.46-.8,2.78-1.2,4.73-1.2,5.85,0,2.14,.73,3.21,2.19,3.21,1.19,0,2.94-1.08,5.27-3.25l2.87-2.7v3.93Z"/><path class="cls-1" d="M746.53,142.03c-5.72,5.61-10.13,8.41-13.23,8.41-1.39,0-2.56-.59-3.52-1.76s-1.44-2.63-1.44-4.36c0-3.21,1.72-7.52,5.16-12.92-1.69,.87-3.53,1.47-5.54,1.81-1.48,2.73-3.8,5.67-6.97,8.82h-.79v-3.08c1.78-1.85,3.38-3.83,4.82-5.95-1.96-.87-2.94-2.15-2.94-3.86s.6-3.63,1.79-5.62c1.2-1.99,2.84-2.99,4.94-2.99,1.78,0,2.67,.91,2.67,2.73,0,1.44-.51,3.49-1.54,6.15,3.78-.41,7.09-3.3,9.91-8.68l3.11-.14-3.18,8.75c-1.32,3.69-2.18,6.2-2.56,7.54-.39,1.33-.58,2.51-.58,3.54,0,.96,.22,1.72,.67,2.29,.44,.57,1.04,.86,1.79,.86,.82,0,1.61-.28,2.36-.84s2.44-2.1,5.06-4.63v3.93Z"/><path class="cls-1" d="M757.06,122c1.57-.41,3.15-.75,4.75-1.01s2.55-.39,2.87-.39c.23,0,.34,.09,.34,.27,0,.34-.09,.69-.27,1.06-.37,1.05-.55,2.05-.55,3.01,0,1.18,.69,2.8,2.05,4.85s2.05,3.96,2.05,5.71c0,3.49-1.67,6.85-5.01,10.08-3.34,3.24-6.8,4.85-10.38,4.85-1.55,0-2.96-.41-4.24-1.23s-1.91-1.7-1.91-2.63c0-.55,.63-1.58,1.9-3.11,1.26-1.53,2.17-2.29,2.72-2.29,.73,0,1.38,.93,1.95,2.8,.57,1.87,1.55,2.8,2.94,2.8s2.7-.64,3.91-1.93,1.83-2.67,1.83-4.15c0-1.44-.77-3.35-2.32-5.74-1.55-2.39-2.58-4.4-3.08-6.01-2.64,4.26-5.99,8.62-10.05,13.09h-.79v-3.08c5.58-5.95,9.34-11.6,11.28-16.95Z"/></g></g></g><g id="_반짝이"><polygon class="cls-8" points="262.57 513.53 275.56 563.94 317.39 574.3 275.56 585.66 262.57 637 248.88 585.66 207.74 574.3 248.88 563.94 262.57 513.53"/><polygon class="cls-9" points="889.09 666.01 898.24 701.53 927.71 708.82 898.24 716.83 889.09 753 879.44 716.83 850.46 708.82 879.44 701.53 889.09 666.01"/><circle class="cls-9" cx="352.5" cy="505.5" r="14.5"/><circle class="cls-8" cx="936.5" cy="770.5" r="10.5"/><circle class="cls-9" cx="199.5" cy="640.5" r="7.5"/><circle class="cls-8" cx="182.5" cy="699.5" r="5.5"/><circle class="cls-8" cx="758" cy="623" r="10"/><circle class="cls-9" cx="830.5" cy="535.5" r="5.5"/><circle class="cls-9" cx="904.5" cy="962.5" r="12.5"/><circle class="cls-8" cx="199" cy="967" r="14"/><circle class="cls-9" cx="173" cy="1038" r="7"/></g><g id="_해"><circle class="cls-2" cx="537" cy="876.54" r="125.54"/><line class="cls-6" x1="537" y1="545" x2="537" y2="719.27"/><line class="cls-5" x1="468.15" y1="619.57" x2="496.3" y2="724.62"/><line class="cls-6" x1="375.4" y1="596.64" x2="458.36" y2="740.34"/><line class="cls-5" x1="341.23" y1="680.77" x2="425.79" y2="765.33"/><line class="cls-6" x1="251.92" y1="711.94" x2="400.8" y2="797.9"/><line class="cls-5" x1="270.18" y1="805.04" x2="385.09" y2="835.83"/><line class="cls-6" x1="201.01" y1="876.54" x2="379.74" y2="876.54"/><line class="cls-5" x1="261.2" y1="949.51" x2="385.31" y2="918.11"/><line class="cls-6" x1="239.34" y1="1048.39" x2="400.8" y2="955.17"/><line class="cls-5" x1="339.27" y1="1074.27" x2="425.79" y2="987.74"/><line class="cls-6" x1="369.73" y1="1166.26" x2="458.36" y2="1012.74"/><line class="cls-5" x1="465.05" y1="1145.07" x2="496.3" y2="1028.45"/><line class="cls-6" x1="537" y1="1215" x2="537" y2="1033.81"/><line class="cls-5" x1="611.33" y1="1153.93" x2="577.7" y2="1028.45"/><line class="cls-6" x1="702.52" y1="1163.23" x2="615.64" y2="1012.74"/><line class="cls-5" x1="742.73" y1="1082.27" x2="648.21" y2="987.74"/><line class="cls-6" x1="822.43" y1="1041.33" x2="673.2" y2="955.17"/><line class="cls-5" x1="812.51" y1="950.36" x2="688.91" y2="917.24"/><line class="cls-6" x1="870" y1="876.54" x2="694.27" y2="876.54"/><line class="cls-5" x1="803.82" y1="805.04" x2="688.91" y2="835.83"/><line class="cls-6" x1="822.46" y1="711.73" x2="673.2" y2="797.9"/><line class="cls-5" x1="725.27" y1="688.27" x2="648.21" y2="765.33"/><line class="cls-6" x1="703.44" y1="588.25" x2="615.64" y2="740.34"/><line class="cls-5" x1="604.74" y1="623.73" x2="577.7" y2="724.62"/><path class="cls-4" d="M338.49,1244.11c3.07-1.4,9.78-5.01,13.39-12.5,5.24-10.84,1.82-25.35-8.93-35.71-2.23,1.42-10.53,7.04-13.39,17.85-4.43,16.71,8.35,29.78,8.93,30.35Z"/><path class="cls-4" d="M338.92,1244.2c.44-3.34,.91-10.95-3.53-17.97-6.44-10.18-20.55-14.95-35.03-11.3,.02,2.64,.41,12.66,8.08,20.8,11.84,12.59,29.69,8.66,30.48,8.47Z"/><path class="cls-4" d="M284.47,1179.93c.44-3.34,.91-10.95-3.53-17.97-6.44-10.18-20.55-14.95-35.03-11.3,.02,2.64,.41,12.66,8.08,20.8,11.84,12.59,29.69,8.66,30.48,8.47Z"/><path class="cls-4" d="M340.56,1241.41c-.83,3.26-3.21,10.51-9.95,15.38-9.75,7.06-24.63,6.25-36.72-2.51,1-2.45,5.08-11.6,15.22-16.32,15.67-7.3,30.78,2.98,31.45,3.45Z"/><path class="cls-4" d="M732.95,1237.33c-3.07-1.4-9.78-5.01-13.39-12.5-5.24-10.84-1.82-25.35,8.93-35.71,2.23,1.42,10.53,7.04,13.39,17.85,4.43,16.71-8.35,29.78-8.93,30.35Z"/><path class="cls-4" d="M732.51,1237.42c-.44-3.34-.91-10.95,3.53-17.97,6.44-10.18,20.55-14.95,35.03-11.3-.02,2.64-.41,12.66-8.08,20.8-11.84,12.59-29.69,8.66-30.48,8.47Z"/><path class="cls-4" d="M786.97,1174.04c-.44-3.34-.91-10.95,3.53-17.97,6.44-10.18,20.55-14.95,35.03-11.3-.02,2.64-.41,12.66-8.08,20.8-11.84,12.59-29.69,8.66-30.48,8.47Z"/><path class="cls-4" d="M730.87,1234.63c.83,3.26,3.21,10.51,9.95,15.38,9.75,7.06,24.63,6.25,36.72-2.51-1-2.45-5.08-11.6-15.22-16.32-15.67-7.3-30.78,2.98-31.45,3.45Z"/><g><path class="cls-4" d="M450.85,1283.76c3.07-1.4,9.78-5.01,13.39-12.5,5.24-10.84,1.82-25.35-8.93-35.71-2.23,1.42-10.53,7.04-13.39,17.85-4.43,16.71,8.35,29.78,8.93,30.35Z"/><path class="cls-4" d="M449.77,1284.07c2.64,2.09,8.92,6.41,17.23,6.22,12.04-.29,23.39-9.94,27.71-24.23-2.28-1.34-11.07-6.16-22-3.77-16.89,3.68-22.69,21.01-22.94,21.79Z"/><path class="cls-4" d="M444.96,1279.53c-1.43,3.05-4.21,10.15-2.12,18.19,3.03,11.66,15.02,20.5,29.92,21.44,.79-2.52,3.47-12.18-1.35-22.28-7.44-15.6-25.63-17.3-26.45-17.36Z"/><path class="cls-4" d="M451.29,1283.84c.44-3.34,.91-10.95-3.53-17.97-6.44-10.18-20.55-14.95-35.03-11.3,.02,2.64,.41,12.66,8.08,20.8,11.84,12.59,29.69,8.66,30.48,8.47Z"/><path class="cls-4" d="M448.85,1277.71c.38,3.35,.75,10.96-3.81,17.92-6.59,10.08-20.78,14.63-35.2,10.76,.06-2.64,.61-12.65,8.4-20.68,12.03-12.41,29.82-8.2,30.61-8Z"/><circle class="cls-9" cx="448.18" cy="1278.4" r="11.16"/></g><path class="cls-4" d="M633.86,1276.61c3.07-1.4,9.78-5.01,13.39-12.5,5.24-10.84,1.82-25.35-8.93-35.71-2.23,1.42-10.53,7.04-13.39,17.85-4.43,16.71,8.35,29.78,8.93,30.35Z"/><path class="cls-4" d="M632.77,1276.93c2.64,2.09,8.92,6.41,17.23,6.22,12.04-.29,23.39-9.94,27.71-24.23-2.28-1.34-11.07-6.16-22-3.77-16.89,3.68-22.69,21.01-22.94,21.79Z"/><path class="cls-4" d="M627.96,1272.38c-1.43,3.05-4.21,10.15-2.12,18.19,3.03,11.66,15.02,20.5,29.92,21.44,.79-2.52,3.47-12.18-1.35-22.28-7.44-15.6-25.63-17.3-26.45-17.36Z"/><path class="cls-4" d="M634.3,1276.7c.44-3.34,.91-10.95-3.53-17.97-6.44-10.18-20.55-14.95-35.03-11.3,.02,2.64,.41,12.66,8.08,20.8,11.84,12.59,29.69,8.66,30.48,8.47Z"/><path class="cls-4" d="M631.85,1270.57c.38,3.35,.75,10.96-3.81,17.92-6.59,10.08-20.78,14.63-35.2,10.76,.06-2.64,.61-12.65,8.4-20.68,12.03-12.41,29.82-8.2,30.61-8Z"/><circle class="cls-9" cx="631.18" cy="1271.26" r="11.16"/></g></svg>