<?xml version="1.0" encoding="UTF-8"?><svg xmlns="http://www.w3.org/2000/svg" viewBox="0 0 1080 1944"><defs><style>.cls-1,.cls-2{fill:#fff;}.cls-2{stroke:#9b9b9b;stroke-width:3px;}.cls-2,.cls-3{stroke-miterlimit:10;}.cls-4{fill:#f6ef84;}.cls-5{fill:#3f3730;}.cls-6{fill:#4c5fa9;}.cls-7{fill:#bad6eb;}.cls-8{fill:#c8c0de;}.cls-9{fill:#b1d4f0;}.cls-3{fill:none;stroke:#4c5fa9;stroke-linecap:round;stroke-width:9px;}</style></defs><g id="_배경"><g><rect class="cls-7" width="1080" height="1944"/><rect class="cls-1" x="74.84" y="186.39" width="930.33" height="1606.64" rx="65.21" ry="65.21"/><g><path class="cls-5" d="M178.71,1651.62c1.4,0,2.09,.45,2.09,1.34l-1.29,7.14-.27,13.27c-.18,4.33-.84,8.33-1.99,11.98-1.04,3.4-2.49,6.5-4.35,9.29-1.68,2.58-3.71,4.85-6.07,6.82-2.18,1.83-4.58,3.37-7.2,4.62-2.44,1.15-5,2.01-7.68,2.58-2.47,.57-4.96,.86-7.47,.86-5.84,0-10.41-1.26-13.72-3.79-3.31-2.53-4.97-4.97-4.97-7.33,0-1.36,1.23-3.12,3.68-5.26,2.45-2.15,4.31-3.22,5.56-3.22,1.54,0,2.31,1.43,2.31,4.3,0,4.66,.76,7.67,2.28,9.05,1.52,1.38,3.55,2.07,6.1,2.07,4.12,0,7.73-1.31,10.82-3.92,3.1-2.61,5.18-5.74,6.26-9.37,1.07-3.63,1.63-9,1.67-16.09,.04-7.09,.56-11.97,1.58-14.64,1.02-2.67,2.89-4.95,5.61-6.85,2.72-1.9,5.07-2.85,7.04-2.85Zm20.14-16.49c-1.04,7.7-4.32,11.55-9.83,11.55-1.93,0-5.64-.87-11.12-2.6-5.48-1.74-10.21-2.61-14.18-2.61-5.12,0-9.55,1.9-13.29,5.7-3.74,3.8-5.61,7.12-5.61,9.95s1.72,5.22,5.16,7.37c1.4,.9,2.09,1.7,2.09,2.42,0,.97-.99,2.28-2.98,3.93-1.99,1.65-3.48,2.47-4.49,2.47-1.68,0-3.26-.97-4.73-2.9-1.47-1.93-2.2-4.05-2.2-6.34,0-4.44,1.81-9.28,5.42-14.53,3.62-5.25,8.34-9.53,14.18-12.84,5.84-3.31,11.96-4.97,18.37-4.97,4.33,0,8.43,.65,12.3,1.96,3.87,1.31,6.28,1.96,7.25,1.96,.86,0,1.59-.25,2.2-.75l.32-.11,1.13,.32Z"/><path class="cls-5" d="M246.82,1696.42c-8.49,8.81-15.47,13.21-20.95,13.21-2.44,0-4.45-.83-6.04-2.5-1.59-1.67-2.39-3.77-2.39-6.31,0-4.3,1.65-10.35,4.94-18.15,1.75-4.22,2.63-6.98,2.63-8.27,0-1.47-.7-2.2-2.09-2.2s-3.51,.98-6.23,2.93c-2.72,1.95-5.59,4.61-8.59,7.98-1.25,6.59-1.88,14.5-1.88,23.74l-11.98,2.79c-.47-3.76-.7-7.84-.7-12.25,0-10.67,1.47-20.61,4.4-29.81,2.94-9.2,7.55-18.96,13.86-29.27,4.69-1.9,8.78-3.45,12.27-4.65,3.49-1.2,5.49-1.8,5.99-1.8,.93,0,1.72,.75,2.36,2.26s.97,3.38,.97,5.64c0,3.8-1.16,7.99-3.49,12.6-2.33,4.6-5.98,10.16-10.96,16.68,4.77-2.76,7.94-4.49,9.52-5.21,1.58-.72,3.19-1.07,4.84-1.07,1.83,0,3.31,.65,4.44,1.96,1.13,1.31,1.69,3.04,1.69,5.19,0,3.23-1.28,8.22-3.85,14.99-2.57,6.76-3.85,11.01-3.85,12.72,0,.79,.24,1.49,.73,2.09s1.05,.91,1.69,.91c2.29,0,6.52-3.46,12.67-10.37v6.18Zm-37.22-22.02c12.78-14.86,19.17-25.82,19.17-32.87,0-2.15-.59-3.22-1.77-3.22-1.97,0-4.78,3.53-8.43,10.58-3.65,7.05-6.64,15.56-8.97,25.51Z"/><path class="cls-5" d="M286.94,1696.42c-4.55,4.48-8.63,7.78-12.25,9.91-3.62,2.13-7.61,3.2-11.98,3.2-4.87,0-8.8-1.56-11.79-4.67-2.99-3.12-4.48-7.21-4.48-12.3,0-7.59,2.63-14.46,7.9-20.6,5.26-6.14,11.1-9.21,17.51-9.21,3.33,0,6,.86,8,2.58,2,1.72,3.01,3.97,3.01,6.77,0,7.41-7.88,13.43-23.63,18.05,1.43,6.98,5.17,10.47,11.23,10.47,2.36,0,4.62-.64,6.77-1.91,2.15-1.27,5.39-4.09,9.72-8.46v6.18Zm-28.14-9.94c9.17-2.58,13.75-7.34,13.75-14.29,0-3.44-1.25-5.16-3.76-5.16-2.36,0-4.62,1.8-6.77,5.4-2.15,3.6-3.22,8.28-3.22,14.04Z"/><path class="cls-5" d="M411.82,1696.47c-4.37,4.53-8.33,7.86-11.9,9.98-3.56,2.12-7.22,3.18-10.98,3.18-4.23,0-7.78-1.86-10.66-5.59-2.88-3.72-4.32-9.17-4.32-16.33,0-2.97,.37-6.86,1.1-11.66-5.35,.43-8.63,.68-9.84,.75-2.27,11.82-6.24,20.24-11.91,25.27-5.67,5.03-12.09,7.55-19.25,7.55-5.3,0-9.67-1.23-13.1-3.68-3.44-2.45-5.16-4.83-5.16-7.12,0-1.68,1.28-3.61,3.84-5.77,2.56-2.17,4.32-3.25,5.29-3.25,1.4,0,2.09,1.5,2.09,4.51,0,7.41,2.49,11.12,7.47,11.12,3.65,0,6.69-2.04,9.1-6.12,2.42-4.08,4.34-10.85,5.76-20.3-4.29,.61-8.55,2.7-12.77,6.28-.29-.39-.54-1.93-.75-4.62,3.77-4.15,8.75-7.05,14.96-8.7,1.23-5.8,2.8-10.53,4.7-14.18,1.9-3.65,6.71-9.29,14.45-16.92-3.72,1.47-6.77,2.2-9.13,2.2-1.54,0-3.46-.41-5.77-1.24-2.31-.82-4.16-1.24-5.56-1.24-3.04,0-5.53,1.1-7.47,3.3-1.93,2.2-2.9,4.45-2.9,6.74s1.22,4.39,3.65,6.28c1.11,.68,1.67,1.33,1.67,1.93,0,1.07-.72,2.41-2.15,4-1.43,1.59-2.78,2.39-4.03,2.39-1.4,0-2.69-.99-3.87-2.98-1.18-1.99-1.77-4.18-1.77-6.58,0-5.3,2.6-10.62,7.79-15.95,5.19-5.33,10.35-8,15.47-8,1.11,0,3.26,.46,6.45,1.37,3.19,.91,5.35,1.37,6.5,1.37,2.29,0,4.53-1,6.71-3.01,2.72,1.43,4.08,2.33,4.08,2.69,0,.5-1.08,1.83-3.24,4s-3.94,5.26-5.33,9.27c-1.39,4.01-2.86,11.49-4.39,22.45,4.11-.18,7.71-.5,10.79-.97,1.63-5.55,3.39-10.22,5.29-14.02,1.9-3.79,4.07-7.62,6.53-11.47,2.45-3.85,4.33-6.2,5.64-7.06,1.31-.86,4.08-1.84,8.33-2.95,4.24-1.11,6.38-1.67,6.42-1.67,.43,0,.64,.11,.64,.32,0,.54-.8,1.92-2.41,4.16-1.61,2.24-3.92,6.27-6.94,12.09s-5.58,12.02-7.68,18.61c3.87-.64,7.83-2.36,11.88-5.16,.47,.21,.75,.53,.86,.94,.11,.41,.16,1.44,.16,3.09-3.07,3.72-8.02,6.37-14.84,7.95-1.47,6.99-2.21,11.93-2.21,14.83,0,3.51,.77,6.29,2.31,8.35,1.54,2.06,3.59,3.09,6.17,3.09,2.07,0,4.16-.67,6.25-2,2.09-1.34,4.76-3.91,8.02-7.72v6.18Z"/><path class="cls-5" d="M438.19,1696.42c-8.38,8.81-14.65,13.21-18.8,13.21-2.29,0-4.23-1.17-5.8-3.52-1.58-2.34-2.36-5.29-2.36-8.83,0-7.63,2.58-18.19,7.73-31.69l13.64-2.85h.64l-5.37,16.81c-2.22,6.95-3.33,11.91-3.33,14.88,0,1.18,.26,2.14,.78,2.87,.52,.73,1.17,1.1,1.96,1.1,1.4,0,2.8-.51,4.22-1.53,1.42-1.02,3.64-3.23,6.69-6.63v6.18Zm-1.07-54.68c0,8.59-3.17,12.89-9.51,12.89-3.08,0-5.71-.93-7.9-2.79,2.08-3.15,3.69-6.7,4.83-10.63,2.83,1.75,5.1,2.63,6.82,2.63,1.93,0,3.85-.7,5.75-2.09Z"/><path class="cls-5" d="M490.94,1696.42c-4.54,4.76-9.99,8.27-16.32,10.52-2.97,9.27-6.74,16.42-11.31,21.43-4.57,5.01-9.41,7.52-14.53,7.52-2.79,0-5.05-.88-6.77-2.63-1.72-1.75-2.58-4.06-2.58-6.93,0-3.83,1.71-7.27,5.13-10.31,3.42-3.04,9.23-5.98,17.43-8.81l2.31-10.58c-3.44,3.87-6.41,6.71-8.92,8.51-2.51,1.81-5.03,2.71-7.57,2.71-2.97,0-5.41-1.4-7.3-4.19-1.9-2.79-2.85-6.43-2.85-10.9,0-7.3,2.78-14.15,8.35-20.54,5.57-6.39,11.48-9.59,17.75-9.59,3.47,0,6.55,1.47,9.24,4.4,1.61-.57,3.7-1.43,6.28-2.58l3.81-1.72h1.24c-1.39,4.23-2.46,8.34-3.22,12.35l-5.04,26.91c4.83-1.83,9.79-5.75,14.87-11.76v6.18Zm-30.08,15.52c-11.57,4.15-17.35,8.95-17.35,14.39,0,1.61,.48,2.93,1.45,3.95,.97,1.02,2.2,1.53,3.71,1.53,2.58,0,4.82-1.63,6.71-4.89,1.9-3.26,3.72-8.25,5.48-14.99Zm-4.51-13.75c2.54,0,4.8-1.5,6.77-4.51,1.97-3.01,3.5-6.82,4.59-11.44,1.09-4.62,1.64-7.82,1.64-9.61,0-1.68-.42-3.07-1.26-4.16-.84-1.09-1.89-1.64-3.14-1.64-3.8,0-7.11,2.56-9.94,7.68-2.83,5.12-4.24,10.33-4.24,15.63,0,2.47,.51,4.43,1.53,5.88,1.02,1.45,2.37,2.18,4.05,2.18Z"/><path class="cls-5" d="M543.63,1696.42c-8.49,8.81-15.47,13.21-20.95,13.21-2.44,0-4.45-.83-6.04-2.5-1.59-1.67-2.39-3.77-2.39-6.31,0-4.3,1.65-10.35,4.94-18.15,1.75-4.22,2.63-6.98,2.63-8.27,0-1.47-.7-2.2-2.09-2.2s-3.51,.98-6.23,2.93c-2.72,1.95-5.59,4.61-8.59,7.98-1.25,6.59-1.88,14.5-1.88,23.74l-11.98,2.79c-.47-3.76-.7-7.84-.7-12.25,0-10.67,1.47-20.61,4.4-29.81,2.94-9.2,7.55-18.96,13.86-29.27,4.69-1.9,8.78-3.45,12.27-4.65,3.49-1.2,5.49-1.8,5.99-1.8,.93,0,1.72,.75,2.36,2.26s.97,3.38,.97,5.64c0,3.8-1.16,7.99-3.49,12.6-2.33,4.6-5.98,10.16-10.96,16.68,4.77-2.76,7.94-4.49,9.52-5.21,1.58-.72,3.19-1.07,4.84-1.07,1.83,0,3.31,.65,4.44,1.96,1.13,1.31,1.69,3.04,1.69,5.19,0,3.23-1.28,8.22-3.85,14.99-2.57,6.76-3.85,11.01-3.85,12.72,0,.79,.24,1.49,.73,2.09s1.05,.91,1.69,.91c2.29,0,6.52-3.46,12.67-10.37v6.18Zm-37.22-22.02c12.78-14.86,19.17-25.82,19.17-32.87,0-2.15-.59-3.22-1.77-3.22-1.97,0-4.78,3.53-8.43,10.58-3.65,7.05-6.64,15.56-8.97,25.51Z"/><path class="cls-5" d="M629.83,1645.61c-2.34,2.11-4.04,4.58-5.11,7.39-1.06,2.81-2.16,8.67-3.29,17.56-1.13,8.9-2.93,15.9-5.42,21.02s-6.41,9.39-11.77,12.81c-5.36,3.42-11.24,5.13-17.65,5.13-4.55,0-8.25-1.13-11.1-3.38s-4.27-5.14-4.27-8.65c0-1.32,.41-2.41,1.24-3.25,.82-.84,2.51-1.98,5.05-3.41,2.54-1.43,4.26-2.15,5.16-2.15,.61,0,1.13,.21,1.56,.62,.43,.41,.64,.9,.64,1.48,0,.36-.17,1.68-.51,3.97-.34,2.29-.51,3.65-.51,4.08,0,4.26,1.79,6.39,5.37,6.39,4.05,0,7.45-2.37,10.21-7.12,2.76-4.75,4.75-12.16,5.99-22.24,1.24-10.08,3.11-17.2,5.61-21.35,2.51-4.15,5.43-7.1,8.78-8.83,3.35-1.74,5.67-2.61,6.96-2.61,.89,0,1.92,.84,3.06,2.52Zm-10.1-13.96c7.55,0,13.57,1.83,18.05,5.5,4.48,3.67,6.71,8.57,6.71,14.69,0,5.66-1.66,10.2-4.97,13.62-3.31,3.42-6.17,5.13-8.57,5.13-.9,0-1.91-.39-3.03-1.18-1.13-.79-1.69-1.5-1.69-2.15,0-.36,.84-1.65,2.52-3.87,3.94-4.87,5.91-9.7,5.91-14.5,0-4.05-1.36-7.26-4.08-9.64-2.72-2.38-6.41-3.57-11.06-3.57-7.02,0-13.37,2.14-19.07,6.42-5.69,4.28-8.54,8.96-8.54,14.05,0,3.37,1.54,5.68,4.62,6.93,1.22,.54,1.83,1.27,1.83,2.2s-1.34,2.09-4.03,3.38-4.57,1.93-5.64,1.93c-1.61,0-3.13-1.07-4.57-3.2-1.43-2.13-2.15-4.45-2.15-6.96,0-6.73,3.62-13.21,10.85-19.44,7.23-6.23,16.2-9.35,26.91-9.35Z"/><path class="cls-5" d="M685.69,1696.42c-8.99,8.81-15.92,13.21-20.79,13.21-2.18,0-4.03-.92-5.53-2.77-1.5-1.84-2.26-4.13-2.26-6.85,0-5.05,2.7-11.82,8.11-20.3-2.65,1.36-5.55,2.31-8.7,2.85-2.33,4.3-5.98,8.92-10.96,13.86h-1.24v-4.83c2.79-2.9,5.32-6.02,7.57-9.35-3.08-1.36-4.62-3.38-4.62-6.07s.94-5.7,2.82-8.84c1.88-3.13,4.47-4.7,7.76-4.7,2.79,0,4.19,1.43,4.19,4.3,0,2.26-.81,5.48-2.42,9.67,5.94-.64,11.14-5.19,15.58-13.64l4.89-.21-5,13.75c-2.08,5.8-3.42,9.75-4.03,11.84-.61,2.09-.91,3.95-.91,5.56,0,1.5,.35,2.7,1.05,3.6,.7,.9,1.64,1.34,2.82,1.34,1.29,0,2.52-.44,3.71-1.32,1.18-.88,3.83-3.3,7.95-7.28v6.18Z"/><path class="cls-5" d="M712.12,1696.42c-8.38,8.81-14.65,13.21-18.8,13.21-2.29,0-4.23-1.17-5.8-3.52-1.58-2.34-2.36-5.29-2.36-8.83,0-7.63,2.58-18.19,7.73-31.69l13.64-2.85h.64l-5.37,16.81c-2.22,6.95-3.33,11.91-3.33,14.88,0,1.18,.26,2.14,.78,2.87,.52,.73,1.17,1.1,1.96,1.1,1.4,0,2.8-.51,4.22-1.53,1.42-1.02,3.64-3.23,6.69-6.63v6.18Zm-1.07-54.68c0,8.59-3.17,12.89-9.51,12.89-3.08,0-5.71-.93-7.9-2.79,2.08-3.15,3.69-6.7,4.83-10.63,2.83,1.75,5.1,2.63,6.82,2.63,1.93,0,3.85-.7,5.75-2.09Z"/><path class="cls-5" d="M752.29,1696.42c-4.55,4.48-8.63,7.78-12.25,9.91-3.62,2.13-7.61,3.2-11.98,3.2-4.87,0-8.8-1.56-11.79-4.67-2.99-3.12-4.48-7.21-4.48-12.3,0-7.59,2.63-14.46,7.9-20.6,5.26-6.14,11.1-9.21,17.51-9.21,3.33,0,6,.86,8,2.58,2,1.72,3.01,3.97,3.01,6.77,0,7.41-7.88,13.43-23.63,18.05,1.43,6.98,5.17,10.47,11.23,10.47,2.36,0,4.62-.64,6.77-1.91,2.15-1.27,5.39-4.09,9.72-8.46v6.18Zm-28.14-9.94c9.17-2.58,13.75-7.34,13.75-14.29,0-3.44-1.25-5.16-3.76-5.16-2.36,0-4.62,1.8-6.77,5.4-2.15,3.6-3.22,8.28-3.22,14.04Z"/><path class="cls-5" d="M768.84,1664.94c2.47-.64,4.96-1.17,7.47-1.58,2.51-.41,4.01-.62,4.51-.62,.36,0,.54,.14,.54,.43,0,.54-.14,1.09-.43,1.66-.57,1.65-.86,3.22-.86,4.72,0,1.86,1.08,4.4,3.23,7.63,2.15,3.22,3.22,6.22,3.22,8.97,0,5.48-2.62,10.76-7.87,15.84-5.25,5.08-10.68,7.63-16.3,7.63-2.44,0-4.66-.64-6.66-1.93-2.01-1.29-3.01-2.67-3.01-4.14,0-.86,.99-2.49,2.98-4.89,1.99-2.4,3.41-3.6,4.27-3.6,1.15,0,2.17,1.47,3.06,4.4,.89,2.94,2.43,4.4,4.62,4.4s4.23-1.01,6.15-3.04c1.92-2.02,2.87-4.2,2.87-6.53,0-2.26-1.21-5.26-3.65-9.02-2.44-3.76-4.05-6.91-4.84-9.45-4.15,6.7-9.42,13.55-15.79,20.57h-1.24v-4.83c8.77-9.35,14.68-18.23,17.72-26.64Z"/><path class="cls-5" d="M827.86,1696.42c-4.51,4.48-8.42,7.78-11.71,9.91-3.29,2.13-6.43,3.2-9.4,3.2s-5.58-1.3-7.49-3.89c-1.92-2.6-2.87-6.01-2.87-10.23,0-3.72,.92-8.64,2.76-14.75l2.28-8.13-4.12,.21,1.72-8.43,5.11-.21,5.04-16.76,14.35-2.95-5.55,18.68,7.58-.43-1.77,8.27-8.33,.64-3.58,12.04c-1.24,4.18-1.87,7.51-1.87,9.98,0,1.68,.42,3.05,1.26,4.11,.84,1.06,1.93,1.58,3.25,1.58,1.83,0,3.64-.58,5.43-1.75,1.79-1.16,4.43-3.59,7.91-7.28v6.18Z"/><path class="cls-5" d="M867.99,1696.42c-4.55,4.48-8.63,7.78-12.25,9.91-3.62,2.13-7.61,3.2-11.98,3.2-4.87,0-8.8-1.56-11.79-4.67-2.99-3.12-4.48-7.21-4.48-12.3,0-7.59,2.63-14.46,7.9-20.6,5.26-6.14,11.1-9.21,17.51-9.21,3.33,0,6,.86,8,2.58,2,1.72,3.01,3.97,3.01,6.77,0,7.41-7.88,13.43-23.63,18.05,1.43,6.98,5.17,10.47,11.23,10.47,2.36,0,4.62-.64,6.77-1.91,2.15-1.27,5.39-4.09,9.72-8.46v6.18Zm-28.14-9.94c9.17-2.58,13.75-7.34,13.75-14.29,0-3.44-1.25-5.16-3.76-5.16-2.36,0-4.62,1.8-6.77,5.4-2.15,3.6-3.22,8.28-3.22,14.04Z"/><path class="cls-5" d="M884.53,1664.94c2.47-.64,4.96-1.17,7.47-1.58,2.51-.41,4.01-.62,4.51-.62,.36,0,.54,.14,.54,.43,0,.54-.14,1.09-.43,1.66-.57,1.65-.86,3.22-.86,4.72,0,1.86,1.08,4.4,3.23,7.63,2.15,3.22,3.22,6.22,3.22,8.97,0,5.48-2.62,10.76-7.87,15.84-5.25,5.08-10.68,7.63-16.3,7.63-2.44,0-4.66-.64-6.66-1.93-2.01-1.29-3.01-2.67-3.01-4.14,0-.86,.99-2.49,2.98-4.89,1.99-2.4,3.41-3.6,4.27-3.6,1.15,0,2.17,1.47,3.06,4.4,.89,2.94,2.43,4.4,4.62,4.4s4.23-1.01,6.15-3.04c1.92-2.02,2.87-4.2,2.87-6.53,0-2.26-1.21-5.26-3.65-9.02-2.44-3.76-4.05-6.91-4.84-9.45-4.15,6.7-9.42,13.55-15.79,20.57h-1.24v-4.83c8.77-9.35,14.68-18.23,17.72-26.64Z"/><path class="cls-5" d="M929.16,1664.94c2.47-.64,4.96-1.17,7.47-1.58,2.51-.41,4.01-.62,4.51-.62,.36,0,.54,.14,.54,.43,0,.54-.14,1.09-.43,1.66-.57,1.65-.86,3.22-.86,4.72,0,1.86,1.08,4.4,3.23,7.63,2.15,3.22,3.22,6.22,3.22,8.97,0,5.48-2.62,10.76-7.87,15.84-5.25,5.08-10.68,7.63-16.3,7.63-2.44,0-4.66-.64-6.66-1.93-2.01-1.29-3.01-2.67-3.01-4.14,0-.86,.99-2.49,2.98-4.89,1.99-2.4,3.41-3.6,4.27-3.6,1.15,0,2.17,1.47,3.06,4.4,.89,2.94,2.43,4.4,4.62,4.4s4.23-1.01,6.15-3.04c1.92-2.02,2.87-4.2,2.87-6.53,0-2.26-1.21-5.26-3.65-9.02-2.44-3.76-4.05-6.91-4.84-9.45-4.15,6.7-9.42,13.55-15.79,20.57h-1.24v-4.83c8.77-9.35,14.68-18.23,17.72-26.64Z"/></g><g><path class="cls-1" d="M353.98,142.06c-5.24,5.58-10.05,8.37-14.42,8.37-2.42,0-4.33-.85-5.74-2.56-1.41-1.71-2.2-4.15-2.36-7.31-2.76,3.35-5.2,5.83-7.33,7.45s-4.4,2.43-6.82,2.43c-3.1,0-5.59-1.34-7.47-4.02-1.88-2.68-2.82-6.25-2.82-10.72,0-5.33,1.23-10.83,3.69-16.49,2.46-5.66,6.11-10.13,10.94-13.42,4.83-3.28,10.69-4.92,17.57-4.92,5.15,0,9.81,.7,13.98,2.08v2.26c-3.4,3.96-6.24,9.51-8.53,16.65-2.29,7.13-3.44,12.57-3.44,16.3,0,1.82,.37,3.24,1.11,4.24,.74,1,1.77,1.5,3.09,1.5,2.37,0,5.22-1.93,8.54-5.78v3.93Zm-9.95-36.85c-2.1-1.14-4.35-1.71-6.77-1.71-3.81,0-7.24,1.59-10.29,4.77-3.05,3.18-5.46,7.39-7.23,12.63-1.77,5.24-2.65,9.79-2.65,13.64,0,2.58,.5,4.67,1.49,6.27,.99,1.61,2.26,2.41,3.81,2.41,2.69,0,5.78-2.45,9.26-7.35,1.44-12.85,5.56-23.07,12.37-30.66Z"/><path class="cls-1" d="M379.51,142.03c-5.72,5.61-10.13,8.41-13.23,8.41-1.39,0-2.56-.59-3.52-1.76s-1.44-2.63-1.44-4.36c0-3.21,1.72-7.52,5.16-12.92-1.69,.87-3.53,1.47-5.54,1.81-1.48,2.73-3.81,5.67-6.97,8.82h-.79v-3.08c1.78-1.85,3.38-3.83,4.82-5.95-1.96-.87-2.94-2.15-2.94-3.86s.6-3.63,1.79-5.62c1.2-1.99,2.84-2.99,4.94-2.99,1.78,0,2.67,.91,2.67,2.73,0,1.44-.51,3.49-1.54,6.15,3.78-.41,7.09-3.3,9.91-8.68l3.11-.14-3.18,8.75c-1.32,3.69-2.18,6.2-2.56,7.54-.39,1.33-.58,2.51-.58,3.54,0,.96,.22,1.72,.67,2.29,.44,.57,1.04,.85,1.79,.85,.82,0,1.61-.28,2.36-.84,.75-.56,2.44-2.1,5.06-4.63v3.93Z"/><path class="cls-1" d="M405.08,142.03c-2.92,2.87-5.59,4.98-8.02,6.32-2.43,1.34-4.96,2.02-7.6,2.02-2.96,0-5.41-.96-7.33-2.89-1.93-1.93-2.89-4.37-2.89-7.33,0-4.85,1.77-9.34,5.31-13.45,3.54-4.11,7.38-6.17,11.5-6.17,2.03,0,3.68,.56,4.96,1.69,1.28,1.13,1.91,2.59,1.91,4.39,0,.64-.12,1.12-.36,1.44-.24,.32-.69,.64-1.35,.96l-3.96,1.88c-.48,.23-.83,.34-1.06,.34-.32,0-.48-.23-.48-.68,0-.18,.07-.78,.21-1.79,.14-1.01,.21-1.63,.21-1.86,0-1-.21-1.81-.63-2.43s-.99-.92-1.69-.92c-1.66,0-3.18,1.23-4.56,3.69-1.38,2.46-2.07,5.26-2.07,8.41,0,2.71,.65,4.88,1.95,6.49,1.3,1.62,3.03,2.43,5.2,2.43,1.85,0,3.58-.53,5.21-1.59s3.48-2.68,5.55-4.87v3.93Z"/><path class="cls-1" d="M441.58,142.03c-3.65,3.46-6.25,5.72-7.83,6.77s-3.08,1.57-4.51,1.57c-3.6,0-5.3-3.18-5.09-9.54-2.28,3.26-4.38,5.66-6.31,7.21s-3.91,2.32-5.96,2.32-3.71-.94-5.11-2.82c-1.4-1.88-2.1-4.19-2.1-6.92,0-3.42,.94-6.68,2.82-9.78,1.88-3.1,4.29-5.61,7.23-7.52s5.54-2.87,7.79-2.87c2.85,0,4.84,1.31,5.98,3.93l6.99-3.86h1.92l-3.01,10.02c-1.55,5.04-2.33,8.49-2.33,10.36s.69,2.94,2.08,2.94c.89,0,1.87-.47,2.94-1.42,1.07-.95,2.57-2.39,4.51-4.32v3.93Zm-25.02,1.88c2.28,0,4.43-1.94,6.44-5.83,2.02-3.88,3.02-7.47,3.02-10.75,0-1.28-.29-2.27-.85-2.99-.57-.72-1.33-1.08-2.29-1.08-2.28,0-4.44,1.94-6.48,5.81-2.04,3.87-3.06,7.44-3.06,10.7,0,1.23,.3,2.23,.91,2.99,.6,.76,1.37,1.15,2.31,1.15Z"/><path class="cls-1" d="M475.11,142.03c-5.26,5.56-9.78,8.34-13.54,8.34-1.53,0-2.76-.54-3.69-1.61-.93-1.07-1.4-2.51-1.4-4.31,0-2.44,1-6.16,3.01-11.18,1.07-2.69,1.61-4.4,1.61-5.13s-.29-1.09-.85-1.09c-.32,0-.74,.16-1.26,.48-.48,.32-1.04,.76-1.67,1.33-.57,.52-1.21,1.16-1.91,1.91-.62,.64-1.28,1.37-1.98,2.19l-1.91,2.22c-.84,1.03-1.37,2.11-1.57,3.25-.34,1.94-.57,3.71-.68,5.33-.07,1.21-.1,2.84-.1,4.89l-7.55,1.78c-.25-3.08-.38-5.37-.38-6.87,0-3.67,.43-7.14,1.28-10.42,.86-3.28,2.23-6.97,4.12-11.07l8.34-1.61c-1.75,4.72-2.91,8.43-3.45,11.14,3.73-4.17,6.7-7.06,8.89-8.66,2.19-1.61,4.15-2.41,5.85-2.41,1.16,0,2.13,.44,2.9,1.31,.77,.88,1.16,1.97,1.16,3.29,0,2.18-.98,5.78-2.94,10.8-1.34,3.44-2.02,5.68-2.02,6.7,0,1.37,.56,2.06,1.68,2.06,1.67,0,4.36-2.2,8.09-6.6v3.93Z"/><path class="cls-1" d="M500.64,142.03c-2.89,2.85-5.49,4.95-7.79,6.31-2.3,1.36-4.84,2.03-7.62,2.03-3.1,0-5.6-.99-7.5-2.97s-2.85-4.59-2.85-7.83c0-4.83,1.67-9.2,5.02-13.11,3.35-3.91,7.06-5.86,11.14-5.86,2.12,0,3.82,.55,5.09,1.64,1.28,1.09,1.91,2.53,1.91,4.31,0,4.72-5.01,8.54-15.04,11.48,.91,4.44,3.29,6.67,7.14,6.67,1.5,0,2.94-.4,4.31-1.21,1.37-.81,3.43-2.6,6.19-5.38v3.93Zm-17.91-6.32c5.83-1.64,8.75-4.67,8.75-9.09,0-2.19-.8-3.28-2.39-3.28-1.5,0-2.94,1.15-4.31,3.44s-2.05,5.27-2.05,8.94Z"/><path class="cls-1" d="M511.17,122c1.57-.41,3.16-.75,4.75-1.01,1.59-.26,2.55-.39,2.87-.39,.23,0,.34,.09,.34,.27,0,.34-.09,.69-.27,1.06-.37,1.05-.55,2.05-.55,3.01,0,1.18,.69,2.8,2.05,4.85s2.05,3.96,2.05,5.71c0,3.49-1.67,6.85-5.01,10.08-3.34,3.24-6.8,4.85-10.37,4.85-1.55,0-2.96-.41-4.24-1.23-1.28-.82-1.91-1.7-1.91-2.63,0-.55,.63-1.58,1.9-3.11,1.26-1.53,2.17-2.29,2.72-2.29,.73,0,1.38,.93,1.95,2.8,.57,1.87,1.55,2.8,2.94,2.8s2.69-.64,3.91-1.93,1.83-2.67,1.83-4.15c0-1.44-.77-3.35-2.32-5.74s-2.58-4.4-3.08-6.02c-2.64,4.26-5.99,8.62-10.05,13.09h-.79v-3.08c5.58-5.95,9.34-11.6,11.28-16.95Z"/><path class="cls-1" d="M596.89,142.03c-2.85,2.78-5.29,4.87-7.31,6.25-2.03,1.39-4,2.08-5.91,2.08-1.5,0-2.7-.52-3.57-1.56s-1.32-2.43-1.32-4.19c0-2.46,.62-5.58,1.85-9.37,1.23-3.78,1.85-6.08,1.85-6.9,0-.73-.38-1.09-1.13-1.09-.23,0-.5,.08-.82,.24-.34,.16-.73,.39-1.16,.68-.43,.32-.9,.71-1.4,1.16-.5,.46-1.03,.98-1.57,1.57-.59,.59-1.18,1.24-1.78,1.95-1,1.19-1.59,2.18-1.78,2.97l-1.14,4.89-2.07,8.07-8.66,1.57,3.32-14.08c.25-1.03,.55-2.53,.89-4.51s.51-3.17,.51-3.55c0-.77-.26-1.16-.79-1.16-.16,0-.39,.08-.68,.24-.34,.16-.73,.4-1.16,.72-.5,.36-1.04,.8-1.61,1.3-.62,.55-1.28,1.17-1.98,1.88-.75,.75-1.53,1.58-2.32,2.5-1.09,1.23-1.78,2.67-2.05,4.31-.37,1.96-.62,3.71-.75,5.26-.16,1.55-.25,3.28-.27,5.2l-7.59,1.81c-.18-2.62-.27-4.81-.27-6.56,0-4.17,.43-7.8,1.3-10.89,.87-3.09,2.28-6.69,4.24-10.82l8.27-1.61c-1.48,3.71-2.63,7.3-3.45,10.77,6.13-7.13,10.82-10.7,14.08-10.7,1.18,0,2.15,.48,2.89,1.45,.74,.97,1.11,2.24,1.11,3.81,0,.73-.11,2.07-.34,4.03,3.85-3.85,6.62-6.36,8.29-7.54,1.67-1.17,3.22-1.76,4.63-1.76,1.25,0,2.28,.5,3.08,1.5s1.2,2.28,1.2,3.83c0,2.44-.67,5.57-2.01,9.4-1.34,3.83-2.01,6.36-2.01,7.59s.47,1.91,1.4,1.91c.59,0,1.42-.39,2.47-1.18,1.06-.79,2.91-2.59,5.54-5.42v3.93Z"/><path class="cls-1" d="M633.4,142.03c-3.65,3.46-6.25,5.72-7.83,6.77s-3.08,1.57-4.51,1.57c-3.6,0-5.3-3.18-5.09-9.54-2.28,3.26-4.38,5.66-6.31,7.21s-3.91,2.32-5.96,2.32-3.71-.94-5.11-2.82c-1.4-1.88-2.1-4.19-2.1-6.92,0-3.42,.94-6.68,2.82-9.78,1.88-3.1,4.29-5.61,7.23-7.52s5.54-2.87,7.79-2.87c2.85,0,4.84,1.31,5.98,3.93l6.99-3.86h1.92l-3.01,10.02c-1.55,5.04-2.33,8.49-2.33,10.36s.69,2.94,2.08,2.94c.89,0,1.87-.47,2.94-1.42,1.07-.95,2.57-2.39,4.51-4.32v3.93Zm-25.02,1.88c2.28,0,4.43-1.94,6.44-5.83,2.02-3.88,3.02-7.47,3.02-10.75,0-1.28-.29-2.27-.85-2.99-.57-.72-1.33-1.08-2.29-1.08-2.28,0-4.44,1.94-6.48,5.81-2.04,3.87-3.06,7.44-3.06,10.7,0,1.23,.3,2.23,.91,2.99,.6,.76,1.37,1.15,2.31,1.15Z"/><path class="cls-1" d="M658.93,142.03c-2.15,2.16-4.81,4.1-7.99,5.81-.83,6.22-2.41,11-4.75,14.32-2.34,3.33-4.72,4.99-7.16,4.99-1.53,0-2.83-.63-3.9-1.9-1.07-1.26-1.61-2.82-1.61-4.67,0-4.47,3.01-8.23,9.02-11.28l2.53-20.58c-4.74,5.92-8.64,10.36-11.69,13.3h-.79v-3.08c3.03-2.89,7.11-7.68,12.24-14.36l2.12-2.73c2.39-.27,5.07-.72,8.03-1.33-1,5.42-2.19,13.43-3.55,24.03,2.1-1.05,4.57-3.18,7.41-6.39l.07,3.86Zm-16.6,10.42c-1.91,.89-3.41,2.09-4.51,3.61s-1.65,3.07-1.65,4.67c0,1.03,.24,1.9,.72,2.62,.48,.72,1.04,1.08,1.67,1.08,1.57,0,2.6-2.01,3.08-6.02l.69-5.95Zm15.85-45.28c-.43,5.56-2.75,8.34-6.94,8.34-1.96,0-3.69-.66-5.2-1.98,1.98-2.53,3.16-4.72,3.52-6.56,1.82,1.12,3.34,1.67,4.55,1.67,1.37,0,2.72-.49,4.07-1.47Z"/><path class="cls-1" d="M684.49,142.03c-2.89,2.85-5.49,4.95-7.79,6.31-2.3,1.36-4.84,2.03-7.62,2.03-3.1,0-5.6-.99-7.5-2.97s-2.85-4.59-2.85-7.83c0-4.83,1.67-9.2,5.02-13.11,3.35-3.91,7.06-5.86,11.14-5.86,2.12,0,3.82,.55,5.09,1.64,1.28,1.09,1.91,2.53,1.91,4.31,0,4.72-5.01,8.54-15.04,11.48,.91,4.44,3.29,6.67,7.14,6.67,1.5,0,2.94-.4,4.31-1.21,1.37-.81,3.43-2.6,6.19-5.38v3.93Zm-17.91-6.32c5.83-1.64,8.75-4.67,8.75-9.09,0-2.19-.8-3.28-2.39-3.28-1.5,0-2.94,1.15-4.31,3.44s-2.05,5.27-2.05,8.94Z"/><path class="cls-1" d="M721,142.03c-3.01,2.85-5.53,4.95-7.55,6.31-2.03,1.36-3.85,2.03-5.47,2.03-1.8,0-3.18-.72-4.15-2.15s-1.45-3.38-1.45-5.84c-2.51,2.76-4.75,4.79-6.73,6.1s-3.92,1.97-5.81,1.97c-1.73,0-3.12-.72-4.17-2.15-1.05-1.44-1.57-3.38-1.57-5.84,0-4.74,1.59-11.42,4.79-20.03l9.13-1.82c-3.75,10.92-5.63,17.93-5.64,21.03,0,2.19,.82,3.28,2.46,3.28,1.18,0,2.65-.96,4.41-2.89,1.75-1.93,2.85-3.61,3.28-5.04l4.48-14.56,9.3-1.88c-2.15,6.86-3.62,11.68-4.42,14.46s-1.2,4.73-1.2,5.85c0,2.14,.73,3.21,2.19,3.21,1.19,0,2.94-1.08,5.27-3.25l2.87-2.7v3.93Z"/><path class="cls-1" d="M746.53,142.03c-5.72,5.61-10.13,8.41-13.23,8.41-1.39,0-2.56-.59-3.52-1.76s-1.44-2.63-1.44-4.36c0-3.21,1.72-7.52,5.16-12.92-1.69,.87-3.53,1.47-5.54,1.81-1.48,2.73-3.81,5.67-6.97,8.82h-.79v-3.08c1.78-1.85,3.38-3.83,4.82-5.95-1.96-.87-2.94-2.15-2.94-3.86s.6-3.63,1.79-5.62c1.2-1.99,2.84-2.99,4.94-2.99,1.78,0,2.67,.91,2.67,2.73,0,1.44-.51,3.49-1.54,6.15,3.78-.41,7.09-3.3,9.91-8.68l3.11-.14-3.18,8.75c-1.32,3.69-2.18,6.2-2.56,7.54-.39,1.33-.58,2.51-.58,3.54,0,.96,.22,1.72,.67,2.29,.44,.57,1.04,.85,1.79,.85,.82,0,1.61-.28,2.36-.84,.75-.56,2.44-2.1,5.06-4.63v3.93Z"/><path class="cls-1" d="M757.06,122c1.57-.41,3.16-.75,4.75-1.01,1.59-.26,2.55-.39,2.87-.39,.23,0,.34,.09,.34,.27,0,.34-.09,.69-.27,1.06-.37,1.05-.55,2.05-.55,3.01,0,1.18,.69,2.8,2.05,4.85s2.05,3.96,2.05,5.71c0,3.49-1.67,6.85-5.01,10.08-3.34,3.24-6.8,4.85-10.37,4.85-1.55,0-2.96-.41-4.24-1.23-1.28-.82-1.91-1.7-1.91-2.63,0-.55,.63-1.58,1.9-3.11,1.26-1.53,2.17-2.29,2.72-2.29,.73,0,1.38,.93,1.95,2.8,.57,1.87,1.55,2.8,2.94,2.8s2.69-.64,3.91-1.93,1.83-2.67,1.83-4.15c0-1.44-.77-3.35-2.32-5.74s-2.58-4.4-3.08-6.02c-2.64,4.26-5.99,8.62-10.05,13.09h-.79v-3.08c5.58-5.95,9.34-11.6,11.28-16.95Z"/></g></g></g><g id="_반짝이"><polygon class="cls-8" points="375.57 616 387.41 661.94 425.54 671.38 387.41 681.74 375.57 728.53 363.09 681.74 325.6 671.38 363.09 661.94 375.57 616"/><polygon class="cls-9" points="722.09 691.01 731.24 726.53 760.71 733.82 731.24 741.83 722.09 778 712.44 741.83 683.46 733.82 712.44 726.53 722.09 691.01"/><circle class="cls-9" cx="296" cy="710" r="12"/><circle class="cls-8" cx="306" cy="760" r="5"/><circle class="cls-8" cx="725.5" cy="837.5" r="11.5"/><circle class="cls-9" cx="766" cy="800" r="6"/><circle class="cls-8" cx="238" cy="835" r="6"/></g><g id="_여사제"><path class="cls-4" d="M570.11,917.05c-60.41,0-109.37-48.97-109.37-109.37s48.97-109.37,109.37-109.37c23.89,0,45.99,7.67,63.98,20.66-23.99-24.07-57.18-38.97-93.85-38.97-73.18,0-132.5,59.32-132.5,132.5s59.32,132.5,132.5,132.5c51.91,0,96.84-29.86,118.58-73.33-19.87,27.49-52.19,45.39-88.71,45.39Z"/><rect class="cls-5" x="431" y="1052" width="227" height="155"/><path class="cls-2" d="M543,1060c-3.64-4.19-9.82-10.26-19-15-14.19-7.33-27.21-7.17-34-7-26.06,.63-44.84,14.2-52,20v136c7.12-4.1,19.52-10.01,36-12,4.28-.52,15.23-1.54,29,1,18.28,3.37,31.85,11.23,40,17v-140Z"/><path class="cls-2" d="M542,1059c3.64-4.19,9.82-10.26,19-15,14.19-7.33,27.21-7.17,34-7,26.06,.63,44.84,14.2,52,20,0,45.33,0,90.67,0,136-7.12-4.1-19.52-10.01-36-12-4.28-.52-15.23-1.54-29,1-18.28,3.37-31.85,11.23-40,17,0-46.67,0-93.33,0-140Z"/><rect class="cls-7" x="226.5" y="956.5" width="28.5" height="333"/><rect class="cls-7" x="260.5" y="956.5" width="28.5" height="333"/><rect class="cls-7" x="294.5" y="956.5" width="28.5" height="333"/><rect class="cls-7" x="328.5" y="956.5" width="28.5" height="333"/><rect class="cls-6" x="733.5" y="956.5" width="28.5" height="333"/><rect class="cls-6" x="767.5" y="956.5" width="28.5" height="333"/><rect class="cls-6" x="801.5" y="956.5" width="28.5" height="333"/><rect class="cls-6" x="835.5" y="956.5" width="28.5" height="333"/><rect class="cls-7" x="220" y="1294" width="141" height="11" rx="5.5" ry="5.5"/><polygon class="cls-7" points="368 1329 211 1329 222 1309 360 1309 368 1329"/><rect class="cls-7" x="215" y="908" width="149" height="43" rx="21.5" ry="21.5"/><rect class="cls-6" x="728" y="1294" width="141" height="11" rx="5.5" ry="5.5"/><polygon class="cls-6" points="876 1329 719 1329 730 1309 868 1309 876 1329"/><g><path class="cls-7" d="M266.5,953c-4.69,0-8.5-3.81-8.5-8.5s3.81-8.5,8.5-8.5h49c4.69,0,8.5,3.81,8.5,8.5s-3.81,8.5-8.5,8.5h-49Z"/><path class="cls-1" d="M315.5,938c3.59,0,6.5,2.91,6.5,6.5s-2.91,6.5-6.5,6.5h-49c-3.59,0-6.5-2.91-6.5-6.5s2.91-6.5,6.5-6.5h49m0-4h-49c-5.79,0-10.5,4.71-10.5,10.5s4.71,10.5,10.5,10.5h49c5.79,0,10.5-4.71,10.5-10.5s-4.71-10.5-10.5-10.5h0Z"/></g><rect class="cls-6" x="723" y="908" width="149" height="43" rx="21.5" ry="21.5"/><g><path class="cls-6" d="M772.5,953c-4.69,0-8.5-3.81-8.5-8.5s3.81-8.5,8.5-8.5h49c4.69,0,8.5,3.81,8.5,8.5s-3.81,8.5-8.5,8.5h-49Z"/><path class="cls-1" d="M821.5,938c3.59,0,6.5,2.91,6.5,6.5s-2.91,6.5-6.5,6.5h-49c-3.59,0-6.5-2.91-6.5-6.5s2.91-6.5,6.5-6.5h49m0-4h-49c-5.79,0-10.5,4.71-10.5,10.5s4.71,10.5,10.5,10.5h49c5.79,0,10.5-4.71,10.5-10.5s-4.71-10.5-10.5-10.5h0Z"/></g><line class="cls-3" x1="553" y1="488" x2="553" y2="539"/><line class="cls-3" x1="530" y1="507" x2="575" y2="507"/><path class="cls-5" d="M505,641c-2.33-29-4.67-58-7-87-2.41-.95-5.82-2.12-10-3-4.11-.87-16.39-3.46-25,0-14.96,6.01-17.64,29.78-18,33-3.42,30.37,20.94,53.29,25,57h35Z"/><path class="cls-5" d="M599,641c2.33-29,4.67-58,7-87,2.41-.95,5.82-2.12,10-3,4.11-.87,16.39-3.46,25,0,14.96,6.01,17.64,29.78,18,33,3.42,30.37-20.94,53.29-25,57-11.67,0-23.33,0-35,0Z"/><rect class="cls-6" x="472" y="647" width="160" height="10"/><path class="cls-5" d="M570.5,577.5l-18-22-19,23-25-25,5,87,76.5-.5,8.5-87.5-28,25Zm-5.73,49.27l-8.95-4.25-3.32,9.33-3.32-9.33-8.95,4.25,4.25-8.95-9.33-3.32,9.33-3.32-4.25-8.95,8.95,4.25,3.32-9.33,3.32,9.33,8.95-4.25-4.25,8.95,9.33,3.32-9.33,3.32,4.25,8.95Z"/></g></svg>