<?xml version="1.0" encoding="UTF-8"?><svg xmlns="http://www.w3.org/2000/svg" viewBox="0 0 1080 1944"><defs><style>.cls-1{fill:#fff;}.cls-2{fill:#f6ef84;}.cls-3{fill:#3f3730;}.cls-4{fill:#4c5fa9;}.cls-5{fill:#bad6eb;}.cls-6{fill:#c8c0de;}.cls-7{fill:#b1d4f0;}</style></defs><g id="_배경"><g><rect class="cls-5" x="3" width="1080" height="1944"/><rect class="cls-1" x="77.84" y="186.39" width="930.33" height="1606.64" rx="65.21" ry="65.21"/><g><path class="cls-3" d="M351.11,1695.34c-3.64,4.06-10.78,8.18-21.42,12.36-3.67,10.51-8.58,18.25-14.73,23.23-6.15,4.98-11.95,7.47-17.42,7.47-2.5,0-4.52-.79-6.06-2.37s-2.31-3.66-2.31-6.24c0-8.59,8.36-15.8,25.08-21.62,2.97-17.62,5.16-29.66,6.56-36.12,1.41-6.46,3.03-11.56,4.86-15.29,1.84-3.73,4.67-8.05,8.5-12.95,3.83-4.9,6.23-8.13,7.21-9.7-3.79,2.03-6.99,3.05-9.61,3.05-1.56,0-3.46-.47-5.68-1.41s-4.22-1.41-5.98-1.41c-2.93,0-5.52,1.1-7.76,3.31-2.25,2.21-3.37,4.72-3.37,7.53,0,2.42,1,4.4,2.99,5.95,1.99,1.54,2.99,2.63,2.99,3.25,0,.59-.88,1.86-2.64,3.81-1.76,1.95-3.16,2.93-4.22,2.93s-2.31-.97-3.87-2.9c-1.56-1.93-2.34-4.37-2.34-7.29,0-5.9,2.79-11.73,8.38-17.49,5.59-5.76,11.23-8.64,16.93-8.64,1.88,0,3.91,.52,6.09,1.55,2.19,1.04,4.04,1.55,5.57,1.55,2.11,0,4.37-1.03,6.8-3.11,3.05,.35,4.57,.94,4.57,1.76,0,.55-.89,2.24-2.67,5.07-1.78,2.83-3.39,6.44-4.82,10.84-1.43,4.39-2.66,10.14-3.67,17.25l-.88,5.86c-2.5,17.66-4.68,29.77-6.56,36.33,8.41-2.85,14.9-7.29,19.48-13.3v6.74Zm-38.2,18.11c-12.77,4.53-19.16,9.8-19.16,15.82,0,1.21,.38,2.22,1.14,3.02,.76,.8,1.73,1.2,2.9,1.2,2.62,0,5.34-1.57,8.17-4.72,2.83-3.14,5.15-8.25,6.94-15.32Z"/><path class="cls-3" d="M413.62,1695.34c-5.16,4.88-9.47,8.49-12.95,10.81-3.48,2.32-6.6,3.49-9.38,3.49-3.09,0-5.46-1.23-7.12-3.69-1.66-2.46-2.49-5.8-2.49-10.02-4.3,4.73-8.14,8.21-11.54,10.46s-6.72,3.37-9.96,3.37c-2.97,0-5.35-1.23-7.15-3.69-1.8-2.46-2.7-5.8-2.7-10.02,0-8.12,2.73-19.57,8.2-34.34l15.65-3.12c-6.44,18.73-9.66,30.74-9.67,36.05,0,3.75,1.41,5.62,4.22,5.62,2.03,0,4.55-1.65,7.56-4.95,3.01-3.3,4.88-6.18,5.62-8.64l7.68-24.96,15.95-3.23c-3.68,11.76-6.21,20.02-7.58,24.78-1.37,4.77-2.06,8.11-2.06,10.02,0,3.67,1.25,5.51,3.75,5.51,2.03,0,5.04-1.85,9.03-5.57l4.93-4.63v6.74Z"/><path class="cls-3" d="M476.14,1695.34c-5.62,5.59-9.91,9.37-12.86,11.34-2.95,1.97-5.56,2.96-7.82,2.96-2.77,0-4.97-1.35-6.59-4.04-1.62-2.7-2.45-6.64-2.49-11.84-3.2,5.2-6.69,9.14-10.46,11.84-3.77,2.7-7.18,4.04-10.22,4.04-3.32,0-6.25-1.57-8.79-4.72-2.54-3.14-3.81-6.83-3.81-11.04,0-8.71,3.17-16.79,9.52-24.23,6.35-7.44,13.17-11.16,20.48-11.16,2.03,0,3.62,.29,4.78,.88,1.15,.59,2.41,1.58,3.78,2.99l8.38-35.04c6.84-1.6,11.46-2.4,13.84-2.4,.78,0,1.17,.31,1.17,.94,0,.43-.98,4.47-2.93,12.13-7.81,30.63-11.71,49.1-11.71,55.43,0,1.48,.31,2.67,.94,3.57s1.44,1.35,2.46,1.35c2.5,0,6.61-3.24,12.34-9.73v6.74Zm-42.36,3.11c3.83,0,7.4-3.24,10.72-9.73,3.32-6.48,4.98-12.56,4.98-18.22,0-2.3-.52-4.14-1.55-5.51-1.04-1.37-2.39-2.05-4.07-2.05-3.63,0-7.15,3.39-10.55,10.17-3.4,6.78-5.1,12.9-5.1,18.37,0,2.15,.5,3.85,1.49,5.1,1,1.25,2.35,1.88,4.07,1.88Z"/><path class="cls-3" d="M533.62,1695.34c-4.96,5.19-10.89,9.02-17.8,11.48-3.24,10.12-7.35,17.91-12.34,23.38-4.98,5.47-10.27,8.2-15.85,8.2-3.05,0-5.51-.96-7.39-2.87-1.88-1.91-2.81-4.43-2.81-7.56,0-4.18,1.87-7.93,5.6-11.25,3.73-3.32,10.07-6.52,19.01-9.61l2.52-11.54c-3.75,4.22-6.99,7.32-9.73,9.29-2.73,1.97-5.49,2.96-8.26,2.96-3.24,0-5.9-1.52-7.97-4.57-2.07-3.05-3.11-7.01-3.11-11.89,0-7.97,3.04-15.44,9.11-22.41s12.53-10.46,19.36-10.46c3.79,0,7.15,1.6,10.07,4.8,1.76-.62,4.04-1.56,6.85-2.81l4.16-1.88h1.35c-1.52,4.61-2.69,9.1-3.51,13.48l-5.49,29.36c5.27-1.99,10.68-6.27,16.22-12.83v6.74Zm-32.81,16.93c-12.62,4.53-18.93,9.76-18.93,15.7,0,1.76,.53,3.19,1.58,4.31s2.4,1.67,4.04,1.67c2.81,0,5.25-1.78,7.32-5.33,2.07-3.55,4.06-9,5.98-16.35Zm-4.92-15c2.77,0,5.23-1.64,7.38-4.92,2.15-3.28,3.82-7.44,5.01-12.48,1.19-5.04,1.79-8.53,1.79-10.49,0-1.84-.46-3.35-1.38-4.54-.92-1.19-2.06-1.79-3.43-1.79-4.14,0-7.75,2.79-10.84,8.38-3.09,5.59-4.63,11.27-4.63,17.05,0,2.7,.56,4.83,1.67,6.42s2.59,2.37,4.42,2.37Z"/><path class="cls-3" d="M577.39,1695.34c-4.96,4.88-9.41,8.49-13.36,10.81-3.95,2.32-8.3,3.49-13.07,3.49-5.31,0-9.6-1.7-12.86-5.1-3.26-3.4-4.89-7.87-4.89-13.42,0-8.28,2.87-15.77,8.61-22.47,5.74-6.7,12.11-10.05,19.1-10.05,3.63,0,6.54,.94,8.73,2.81,2.19,1.88,3.28,4.34,3.28,7.38,0,8.09-8.59,14.65-25.78,19.69,1.56,7.62,5.64,11.43,12.25,11.43,2.58,0,5.04-.69,7.38-2.08,2.34-1.39,5.88-4.46,10.61-9.23v6.74Zm-30.7-10.84c10-2.81,15-8.01,15-15.59,0-3.75-1.37-5.62-4.1-5.62-2.58,0-5.04,1.96-7.38,5.89s-3.52,9.03-3.52,15.32Z"/><path class="cls-3" d="M663.7,1695.34c-4.88,4.77-9.06,8.34-12.54,10.72-3.48,2.38-6.86,3.57-10.14,3.57-2.58,0-4.62-.89-6.12-2.67-1.5-1.78-2.26-4.17-2.26-7.18,0-4.22,1.05-9.57,3.16-16.05,2.11-6.48,3.16-10.43,3.16-11.84,0-1.25-.64-1.88-1.93-1.88-.39,0-.86,.14-1.41,.41-.59,.27-1.25,.67-1.99,1.17-.74,.55-1.54,1.21-2.4,1.99-.86,.78-1.76,1.68-2.69,2.7-1.02,1.02-2.03,2.13-3.05,3.34-1.72,2.03-2.73,3.73-3.05,5.1l-1.95,8.38-3.54,13.83-14.84,2.69,5.68-24.14c.43-1.76,.94-4.34,1.52-7.73s.88-5.43,.88-6.09c0-1.33-.45-1.99-1.35-1.99-.27,0-.67,.14-1.17,.41-.59,.27-1.25,.68-1.99,1.23-.86,.62-1.78,1.37-2.75,2.23-1.05,.94-2.19,2.01-3.4,3.22-1.29,1.29-2.62,2.72-3.98,4.28-1.88,2.11-3.05,4.57-3.52,7.38-.62,3.36-1.05,6.37-1.29,9.02-.27,2.66-.43,5.62-.47,8.91l-13.01,3.11c-.31-4.49-.47-8.24-.47-11.25,0-7.15,.74-13.37,2.23-18.66,1.48-5.29,3.91-11.47,7.27-18.54l14.18-2.75c-2.54,6.37-4.51,12.52-5.92,18.46,10.51-12.23,18.55-18.34,24.14-18.34,2.03,0,3.68,.83,4.95,2.49,1.27,1.66,1.9,3.84,1.9,6.53,0,1.25-.2,3.55-.59,6.91,6.6-6.6,11.34-10.91,14.21-12.92,2.87-2.01,5.52-3.02,7.94-3.02,2.15,0,3.91,.86,5.28,2.58,1.37,1.72,2.05,3.91,2.05,6.56,0,4.18-1.15,9.55-3.45,16.12-2.3,6.56-3.45,10.9-3.45,13.01s.8,3.28,2.4,3.28c1.01,0,2.43-.67,4.24-2.02,1.81-1.35,4.98-4.44,9.51-9.29v6.74Z"/><path class="cls-3" d="M707.53,1695.34c-4.96,4.88-9.41,8.49-13.36,10.81-3.95,2.32-8.3,3.49-13.07,3.49-5.31,0-9.6-1.7-12.86-5.1-3.26-3.4-4.89-7.87-4.89-13.42,0-8.28,2.87-15.77,8.61-22.47,5.74-6.7,12.11-10.05,19.1-10.05,3.63,0,6.54,.94,8.73,2.81,2.19,1.88,3.28,4.34,3.28,7.38,0,8.09-8.59,14.65-25.78,19.69,1.56,7.62,5.64,11.43,12.25,11.43,2.58,0,5.04-.69,7.38-2.08,2.34-1.39,5.88-4.46,10.61-9.23v6.74Zm-30.7-10.84c10-2.81,15-8.01,15-15.59,0-3.75-1.37-5.62-4.1-5.62-2.58,0-5.04,1.96-7.38,5.89s-3.52,9.03-3.52,15.32Z"/><path class="cls-3" d="M765.07,1695.34c-9.02,9.53-16.76,14.3-23.2,14.3-2.62,0-4.73-.92-6.33-2.75-1.6-1.84-2.4-4.3-2.4-7.38,0-4.18,1.72-10.57,5.16-19.16,1.84-4.61,2.75-7.54,2.75-8.79s-.49-1.88-1.46-1.88c-.55,0-1.27,.27-2.17,.82-.82,.55-1.78,1.31-2.87,2.29-.98,.9-2.07,1.99-3.28,3.28-1.05,1.09-2.19,2.34-3.4,3.75l-3.28,3.81c-1.45,1.76-2.34,3.61-2.7,5.57-.59,3.32-.98,6.37-1.17,9.14-.12,2.07-.18,4.86-.18,8.38l-12.95,3.05c-.43-5.27-.64-9.2-.64-11.78,0-6.29,.73-12.25,2.2-17.87s3.82-11.95,7.06-18.98l14.3-2.75c-3.01,8.09-4.98,14.45-5.92,19.1,6.4-7.15,11.48-12.1,15.25-14.85s7.11-4.13,10.03-4.13c1.99,0,3.65,.75,4.97,2.25,1.33,1.5,1.99,3.38,1.99,5.65,0,3.75-1.68,9.92-5.04,18.51-2.3,5.9-3.46,9.73-3.46,11.49,0,2.35,.96,3.53,2.88,3.53,2.86,0,7.48-3.77,13.86-11.31v6.74Z"/><path class="cls-3" d="M798.76,1695.34c-4.92,4.88-9.18,8.49-12.77,10.81-3.59,2.32-7.01,3.49-10.25,3.49s-6.08-1.42-8.17-4.25c-2.09-2.83-3.13-6.55-3.13-11.16,0-4.06,1-9.43,3.01-16.09l2.49-8.87-4.5,.23,1.88-9.2,5.57-.23,5.5-18.28,15.65-3.21-6.06,20.38,8.27-.47-1.94,9.02-9.09,.7-3.9,13.13c-1.36,4.56-2.03,8.19-2.03,10.89,0,1.84,.46,3.33,1.38,4.49s2.1,1.73,3.55,1.73c2,0,3.97-.63,5.93-1.9,1.96-1.27,4.83-3.92,8.63-7.94v6.74Z"/></g><g><path class="cls-1" d="M356.98,142.06c-5.24,5.58-10.05,8.37-14.42,8.37-2.42,0-4.33-.85-5.74-2.56-1.41-1.71-2.2-4.15-2.36-7.31-2.76,3.35-5.2,5.83-7.33,7.45-2.13,1.62-4.4,2.43-6.82,2.43-3.1,0-5.59-1.34-7.47-4.02-1.88-2.68-2.82-6.25-2.82-10.71,0-5.33,1.23-10.83,3.69-16.49s6.11-10.13,10.94-13.42c4.83-3.28,10.69-4.92,17.57-4.92,5.15,0,9.81,.7,13.98,2.09v2.26c-3.4,3.96-6.24,9.51-8.53,16.64-2.29,7.13-3.44,12.57-3.44,16.3,0,1.82,.37,3.24,1.11,4.24,.74,1,1.77,1.5,3.09,1.5,2.37,0,5.22-1.93,8.54-5.78v3.93Zm-9.95-36.85c-2.1-1.14-4.35-1.71-6.77-1.71-3.81,0-7.24,1.59-10.29,4.77-3.05,3.18-5.46,7.39-7.23,12.63-1.77,5.24-2.65,9.79-2.65,13.64,0,2.57,.5,4.67,1.49,6.27,.99,1.61,2.26,2.41,3.81,2.41,2.69,0,5.78-2.45,9.26-7.35,1.44-12.85,5.56-23.07,12.37-30.66Z"/><path class="cls-1" d="M382.51,142.03c-5.72,5.61-10.13,8.41-13.23,8.41-1.39,0-2.56-.59-3.52-1.76s-1.44-2.63-1.44-4.36c0-3.21,1.72-7.52,5.16-12.92-1.69,.87-3.53,1.47-5.54,1.81-1.48,2.73-3.81,5.67-6.97,8.82h-.79v-3.08c1.78-1.85,3.38-3.83,4.82-5.95-1.96-.87-2.94-2.15-2.94-3.86s.6-3.63,1.79-5.62c1.2-1.99,2.84-2.99,4.94-2.99,1.78,0,2.67,.91,2.67,2.73,0,1.44-.51,3.49-1.54,6.15,3.78-.41,7.09-3.3,9.91-8.68l3.11-.14-3.18,8.75c-1.32,3.69-2.18,6.2-2.56,7.54-.39,1.33-.58,2.51-.58,3.54,0,.96,.22,1.72,.67,2.29,.44,.57,1.04,.86,1.79,.86,.82,0,1.61-.28,2.36-.84s2.44-2.1,5.06-4.63v3.93Z"/><path class="cls-1" d="M408.08,142.03c-2.92,2.87-5.59,4.98-8.02,6.32-2.43,1.34-4.96,2.02-7.6,2.02-2.96,0-5.41-.96-7.33-2.89-1.93-1.92-2.89-4.37-2.89-7.33,0-4.85,1.77-9.34,5.31-13.45,3.54-4.11,7.38-6.17,11.5-6.17,2.03,0,3.68,.56,4.96,1.69,1.28,1.13,1.91,2.59,1.91,4.39,0,.64-.12,1.12-.36,1.44-.24,.32-.69,.64-1.35,.96l-3.96,1.88c-.48,.23-.83,.34-1.06,.34-.32,0-.48-.23-.48-.68,0-.18,.07-.78,.21-1.79,.14-1.01,.21-1.63,.21-1.86,0-1-.21-1.81-.63-2.43s-.99-.92-1.69-.92c-1.66,0-3.18,1.23-4.56,3.69-1.38,2.46-2.07,5.26-2.07,8.41,0,2.71,.65,4.88,1.95,6.49,1.3,1.62,3.03,2.43,5.2,2.43,1.85,0,3.58-.53,5.21-1.59s3.48-2.68,5.55-4.87v3.93Z"/><path class="cls-1" d="M444.58,142.03c-3.65,3.46-6.25,5.72-7.83,6.77-1.57,1.05-3.08,1.57-4.51,1.57-3.6,0-5.3-3.18-5.09-9.54-2.28,3.26-4.38,5.66-6.31,7.21-1.93,1.55-3.91,2.32-5.96,2.32s-3.71-.94-5.11-2.82c-1.4-1.88-2.1-4.19-2.1-6.92,0-3.42,.94-6.68,2.82-9.78,1.88-3.1,4.29-5.61,7.23-7.52s5.54-2.87,7.79-2.87c2.85,0,4.84,1.31,5.98,3.93l6.99-3.86h1.92l-3.01,10.01c-1.55,5.04-2.33,8.49-2.33,10.36,0,1.96,.69,2.94,2.08,2.94,.89,0,1.87-.47,2.94-1.42,1.07-.95,2.57-2.39,4.51-4.32v3.93Zm-25.02,1.88c2.28,0,4.43-1.94,6.44-5.83,2.02-3.88,3.02-7.47,3.02-10.75,0-1.28-.29-2.27-.85-2.99-.57-.72-1.33-1.08-2.29-1.08-2.28,0-4.44,1.94-6.48,5.81-2.04,3.87-3.06,7.44-3.06,10.7,0,1.23,.3,2.23,.91,2.99,.6,.76,1.37,1.15,2.31,1.15Z"/><path class="cls-1" d="M478.11,142.03c-5.26,5.56-9.78,8.34-13.54,8.34-1.53,0-2.76-.54-3.69-1.61-.93-1.07-1.4-2.51-1.4-4.31,0-2.44,1-6.16,3.01-11.18,1.07-2.69,1.61-4.4,1.61-5.13s-.29-1.09-.85-1.09c-.32,0-.74,.16-1.26,.48-.48,.32-1.04,.76-1.67,1.33-.57,.52-1.21,1.16-1.91,1.91-.62,.64-1.28,1.37-1.98,2.19l-1.91,2.22c-.84,1.03-1.37,2.11-1.57,3.25-.34,1.94-.57,3.71-.68,5.33-.07,1.21-.1,2.84-.1,4.89l-7.55,1.78c-.25-3.08-.38-5.37-.38-6.87,0-3.67,.43-7.14,1.28-10.43,.86-3.28,2.23-6.97,4.12-11.07l8.34-1.61c-1.75,4.72-2.91,8.43-3.45,11.14,3.73-4.17,6.7-7.06,8.89-8.67,2.19-1.61,4.15-2.41,5.85-2.41,1.16,0,2.13,.44,2.9,1.31,.77,.88,1.16,1.97,1.16,3.29,0,2.18-.98,5.78-2.94,10.8-1.34,3.44-2.02,5.68-2.02,6.7,0,1.37,.56,2.06,1.68,2.06,1.67,0,4.36-2.2,8.09-6.6v3.93Z"/><path class="cls-1" d="M503.64,142.03c-2.89,2.85-5.49,4.95-7.79,6.31-2.3,1.36-4.84,2.03-7.62,2.03-3.1,0-5.6-.99-7.5-2.97s-2.85-4.59-2.85-7.83c0-4.83,1.67-9.2,5.02-13.11s7.06-5.86,11.14-5.86c2.12,0,3.82,.55,5.09,1.64,1.28,1.09,1.91,2.53,1.91,4.31,0,4.72-5.01,8.54-15.04,11.48,.91,4.44,3.29,6.66,7.14,6.66,1.5,0,2.94-.4,4.31-1.21s3.43-2.6,6.19-5.38v3.93Zm-17.91-6.32c5.83-1.64,8.75-4.67,8.75-9.09,0-2.19-.8-3.28-2.39-3.28-1.5,0-2.94,1.14-4.31,3.43s-2.05,5.27-2.05,8.94Z"/><path class="cls-1" d="M514.17,122c1.57-.41,3.16-.75,4.75-1.01,1.59-.26,2.55-.39,2.87-.39,.23,0,.34,.09,.34,.27,0,.34-.09,.69-.27,1.06-.37,1.05-.55,2.05-.55,3.01,0,1.18,.69,2.8,2.05,4.85s2.05,3.96,2.05,5.71c0,3.49-1.67,6.85-5.01,10.08-3.34,3.24-6.8,4.85-10.37,4.85-1.55,0-2.96-.41-4.24-1.23-1.28-.82-1.91-1.7-1.91-2.63,0-.55,.63-1.58,1.9-3.11,1.26-1.53,2.17-2.29,2.72-2.29,.73,0,1.38,.93,1.95,2.8,.57,1.87,1.55,2.8,2.94,2.8s2.69-.64,3.91-1.93,1.83-2.67,1.83-4.15c0-1.44-.77-3.35-2.32-5.74s-2.58-4.4-3.08-6.01c-2.64,4.26-5.99,8.62-10.05,13.09h-.79v-3.08c5.58-5.95,9.34-11.6,11.28-16.95Z"/><path class="cls-1" d="M599.89,142.03c-2.85,2.78-5.29,4.87-7.31,6.26-2.03,1.39-4,2.08-5.91,2.08-1.5,0-2.7-.52-3.57-1.55s-1.32-2.43-1.32-4.19c0-2.46,.62-5.58,1.85-9.37,1.23-3.78,1.85-6.08,1.85-6.9,0-.73-.38-1.09-1.13-1.09-.23,0-.5,.08-.82,.24-.34,.16-.73,.39-1.16,.68-.43,.32-.9,.71-1.4,1.16-.5,.46-1.03,.98-1.57,1.57-.59,.59-1.18,1.24-1.78,1.95-1,1.18-1.59,2.18-1.78,2.97l-1.14,4.89-2.07,8.07-8.66,1.57,3.32-14.08c.25-1.03,.55-2.53,.89-4.51s.51-3.17,.51-3.55c0-.77-.26-1.16-.79-1.16-.16,0-.39,.08-.68,.24-.34,.16-.73,.4-1.16,.72-.5,.37-1.04,.8-1.61,1.3-.62,.55-1.28,1.17-1.98,1.88-.75,.75-1.53,1.58-2.32,2.49-1.09,1.23-1.78,2.67-2.05,4.31-.37,1.96-.62,3.71-.75,5.26-.16,1.55-.25,3.28-.27,5.2l-7.59,1.81c-.18-2.62-.27-4.81-.27-6.56,0-4.17,.43-7.8,1.3-10.89,.87-3.09,2.28-6.69,4.24-10.82l8.27-1.61c-1.48,3.71-2.63,7.3-3.45,10.77,6.13-7.13,10.82-10.7,14.08-10.7,1.18,0,2.15,.48,2.89,1.45,.74,.97,1.11,2.24,1.11,3.81,0,.73-.11,2.07-.34,4.03,3.85-3.85,6.62-6.36,8.29-7.54,1.67-1.17,3.22-1.76,4.63-1.76,1.25,0,2.28,.5,3.08,1.5s1.2,2.28,1.2,3.83c0,2.44-.67,5.57-2.01,9.4-1.34,3.83-2.01,6.36-2.01,7.59s.47,1.91,1.4,1.91c.59,0,1.42-.39,2.47-1.18,1.06-.79,2.91-2.59,5.54-5.42v3.93Z"/><path class="cls-1" d="M636.4,142.03c-3.65,3.46-6.25,5.72-7.83,6.77-1.57,1.05-3.08,1.57-4.51,1.57-3.6,0-5.3-3.18-5.09-9.54-2.28,3.26-4.38,5.66-6.31,7.21-1.93,1.55-3.91,2.32-5.96,2.32s-3.71-.94-5.11-2.82c-1.4-1.88-2.1-4.19-2.1-6.92,0-3.42,.94-6.68,2.82-9.78,1.88-3.1,4.29-5.61,7.23-7.52s5.54-2.87,7.79-2.87c2.85,0,4.84,1.31,5.98,3.93l6.99-3.86h1.92l-3.01,10.01c-1.55,5.04-2.33,8.49-2.33,10.36,0,1.96,.69,2.94,2.08,2.94,.89,0,1.87-.47,2.94-1.42,1.07-.95,2.57-2.39,4.51-4.32v3.93Zm-25.02,1.88c2.28,0,4.43-1.94,6.44-5.83,2.02-3.88,3.02-7.47,3.02-10.75,0-1.28-.29-2.27-.85-2.99-.57-.72-1.33-1.08-2.29-1.08-2.28,0-4.44,1.94-6.48,5.81-2.04,3.87-3.06,7.44-3.06,10.7,0,1.23,.3,2.23,.91,2.99,.6,.76,1.37,1.15,2.31,1.15Z"/><path class="cls-1" d="M661.93,142.03c-2.15,2.16-4.81,4.1-7.99,5.81-.83,6.22-2.41,11-4.75,14.32-2.34,3.33-4.72,4.99-7.16,4.99-1.53,0-2.83-.63-3.9-1.9-1.07-1.26-1.61-2.82-1.61-4.67,0-4.47,3.01-8.23,9.02-11.28l2.53-20.58c-4.74,5.92-8.64,10.36-11.69,13.29h-.79v-3.08c3.03-2.89,7.11-7.68,12.24-14.36l2.12-2.73c2.39-.27,5.07-.72,8.03-1.33-1,5.42-2.19,13.43-3.55,24.03,2.1-1.05,4.57-3.18,7.41-6.39l.07,3.86Zm-16.6,10.42c-1.91,.89-3.41,2.09-4.51,3.61s-1.65,3.07-1.65,4.67c0,1.03,.24,1.9,.72,2.62s1.04,1.08,1.67,1.08c1.57,0,2.6-2.01,3.08-6.02l.69-5.95Zm15.85-45.29c-.43,5.56-2.75,8.34-6.94,8.34-1.96,0-3.69-.66-5.2-1.98,1.98-2.53,3.16-4.72,3.52-6.56,1.82,1.12,3.34,1.68,4.55,1.68,1.37,0,2.72-.49,4.07-1.47Z"/><path class="cls-1" d="M687.49,142.03c-2.89,2.85-5.49,4.95-7.79,6.31-2.3,1.36-4.84,2.03-7.62,2.03-3.1,0-5.6-.99-7.5-2.97s-2.85-4.59-2.85-7.83c0-4.83,1.67-9.2,5.02-13.11s7.06-5.86,11.14-5.86c2.12,0,3.82,.55,5.09,1.64,1.28,1.09,1.91,2.53,1.91,4.31,0,4.72-5.01,8.54-15.04,11.48,.91,4.44,3.29,6.66,7.14,6.66,1.5,0,2.94-.4,4.31-1.21s3.43-2.6,6.19-5.38v3.93Zm-17.91-6.32c5.83-1.64,8.75-4.67,8.75-9.09,0-2.19-.8-3.28-2.39-3.28-1.5,0-2.94,1.14-4.31,3.43s-2.05,5.27-2.05,8.94Z"/><path class="cls-1" d="M724,142.03c-3.01,2.85-5.53,4.95-7.55,6.31-2.03,1.36-3.85,2.03-5.47,2.03-1.8,0-3.18-.72-4.15-2.15s-1.45-3.38-1.45-5.85c-2.51,2.76-4.75,4.79-6.73,6.1s-3.92,1.96-5.81,1.96c-1.73,0-3.12-.72-4.17-2.15-1.05-1.44-1.57-3.38-1.57-5.85,0-4.74,1.59-11.42,4.79-20.03l9.13-1.82c-3.75,10.92-5.63,17.93-5.64,21.03,0,2.19,.82,3.28,2.46,3.28,1.18,0,2.65-.96,4.41-2.89,1.75-1.92,2.85-3.61,3.28-5.04l4.48-14.56,9.3-1.88c-2.15,6.86-3.62,11.68-4.42,14.46-.8,2.78-1.2,4.73-1.2,5.85,0,2.14,.73,3.21,2.19,3.21,1.19,0,2.94-1.08,5.27-3.25l2.87-2.7v3.93Z"/><path class="cls-1" d="M749.53,142.03c-5.72,5.61-10.13,8.41-13.23,8.41-1.39,0-2.56-.59-3.52-1.76s-1.44-2.63-1.44-4.36c0-3.21,1.72-7.52,5.16-12.92-1.69,.87-3.53,1.47-5.54,1.81-1.48,2.73-3.81,5.67-6.97,8.82h-.79v-3.08c1.78-1.85,3.38-3.83,4.82-5.95-1.96-.87-2.94-2.15-2.94-3.86s.6-3.63,1.79-5.62c1.2-1.99,2.84-2.99,4.94-2.99,1.78,0,2.67,.91,2.67,2.73,0,1.44-.51,3.49-1.54,6.15,3.78-.41,7.09-3.3,9.91-8.68l3.11-.14-3.18,8.75c-1.32,3.69-2.18,6.2-2.56,7.54-.39,1.33-.58,2.51-.58,3.54,0,.96,.22,1.72,.67,2.29,.44,.57,1.04,.86,1.79,.86,.82,0,1.61-.28,2.36-.84s2.44-2.1,5.06-4.63v3.93Z"/><path class="cls-1" d="M760.06,122c1.57-.41,3.16-.75,4.75-1.01,1.59-.26,2.55-.39,2.87-.39,.23,0,.34,.09,.34,.27,0,.34-.09,.69-.27,1.06-.37,1.05-.55,2.05-.55,3.01,0,1.18,.69,2.8,2.05,4.85s2.05,3.96,2.05,5.71c0,3.49-1.67,6.85-5.01,10.08-3.34,3.24-6.8,4.85-10.37,4.85-1.55,0-2.96-.41-4.24-1.23-1.28-.82-1.91-1.7-1.91-2.63,0-.55,.63-1.58,1.9-3.11,1.26-1.53,2.17-2.29,2.72-2.29,.73,0,1.38,.93,1.95,2.8,.57,1.87,1.55,2.8,2.94,2.8s2.69-.64,3.91-1.93,1.83-2.67,1.83-4.15c0-1.44-.77-3.35-2.32-5.74s-2.58-4.4-3.08-6.01c-2.64,4.26-5.99,8.62-10.05,13.09h-.79v-3.08c5.58-5.95,9.34-11.6,11.28-16.95Z"/></g></g></g><g id="_반짝이"><polygon class="cls-6" points="358.57 824.53 371.56 874.94 413.39 885.3 371.56 896.66 358.57 948 344.88 896.66 303.74 885.3 344.88 874.94 358.57 824.53"/><polygon class="cls-7" points="732.09 741.01 741.24 776.53 770.71 783.82 741.24 791.83 732.09 828 722.44 791.83 693.46 783.82 722.44 776.53 732.09 741.01"/></g><g id="_심판"><polygon class="cls-5" points="267.4 1250 829.04 1250 761.43 1240 854 1228 720.87 1216 772.87 1191 708.39 1191 737.51 1173 700.07 1169 765.59 1126 687.59 1142 708.39 1122 676.15 1126 694.87 1096 664.71 1099 694.87 1065 652.23 1078 664.71 1035 584.62 1087 604.38 1123 557.58 1200 476.45 1172 455.65 1106 449.41 1076 428.61 1053 440.05 1084 403.65 1056 411.97 1096 345.41 1055 379.73 1113 345.41 1106 363.09 1131 305.88 1126 355.81 1157 300.68 1171 341.25 1188 257 1189 344.37 1225 267.4 1250"/><path class="cls-3" d="M540,1018h0c-53.85,0-97.5,43.65-97.5,97.5v157.5h195v-157.5c0-53.85-43.65-97.5-97.5-97.5Zm24.16,119.02l-18.65-8.86-6.92,36.85-6.92-36.85-18.65,8.86,8.86-18.65-37.13-6.92,37.13-6.92-8.86-18.65,18.65,8.86,6.92-34.89,6.92,34.89,18.65-8.86-8.86,18.65,39.94,6.92-39.94,6.92,8.86,18.65Z"/><path class="cls-2" d="M452,738c20.83,17.69,36.25,34.28,47,47,13.27,15.71,18.74,24.71,22,36,1.41,4.89,4.58,17.72,2,34-3.03,19.1-12.26,32.14-17,38l120-63c-7.44,.04-19.42-.81-33-6-14.4-5.5-23.9-13.32-28-17-12.16-10.92-18.23-22.68-24-35-8.27-17.66-18.87-42.76-29-75-20,13.67-40,27.33-60,41Z"/><circle class="cls-7" cx="294" cy="978" r="16"/><circle class="cls-6" cx="267" cy="1045" r="9"/><circle class="cls-6" cx="745.5" cy="998.5" r="14.5"/><circle class="cls-7" cx="741.5" cy="1046.5" r="5.5"/><circle class="cls-6" cx="792.5" cy="832.5" r="8.5"/><g><ellipse class="cls-4" cx="349.5" cy="667.5" rx="19.5" ry="18.5"/><path class="cls-4" d="M707.04,626.48c-.82,0-1.63,.03-2.44,.07,.28-1.87,.42-3.77,.42-5.72,0-21.38-17.33-38.72-38.72-38.72-6.4,0-12.44,1.56-17.76,4.32,0-.36,.01-.73,.01-1.09,0-39.65-32.14-71.78-71.78-71.78-33.96,0-62.41,23.59-69.87,55.27-11.16-10.74-26.33-17.36-43.05-17.36-24.36,0-45.43,14.03-55.6,34.44-1.98-.36-4.02-.56-6.1-.56-17.88,0-32.49,14.02-33.42,31.67-4.12-1.18-8.46-1.83-12.95-1.83-25.84,0-46.78,20.94-46.78,46.78s20.94,46.78,46.78,46.78c6.56,0,12.8-1.35,18.46-3.79,3.28,15.97,17.42,27.99,34.37,27.99,6.76,0,13.06-1.91,18.42-5.22,9.09,20.19,29.38,34.26,52.96,34.26,14.68,0,28.08-5.46,38.31-14.45,12.13,12.86,29.32,20.9,48.4,20.9,23.42,0,44-12.11,55.86-30.4,6.73,4.91,15.02,7.82,23.99,7.82,20.99,0,38.27-15.88,40.48-36.28,6,3.08,12.8,4.82,20.01,4.82,24.28,0,43.96-19.68,43.96-43.96s-19.68-43.96-43.96-43.96Zm-354.08,54.04c-3.34,0-6.05-2.71-6.05-6.05s2.71-6.05,6.05-6.05,6.05,2.71,6.05,6.05-2.71,6.05-6.05,6.05Zm25.41-19.36c-1.78,0-3.23-1.44-3.23-3.23s1.44-3.23,3.23-3.23,3.23,1.44,3.23,3.23-1.44,3.23-3.23,3.23Zm17.74-10.49c-4.45,0-8.07-3.61-8.07-8.07s3.61-8.07,8.07-8.07,8.07,3.61,8.07,8.07-3.61,8.07-8.07,8.07Zm31.46-.81c-1.78,0-3.23-1.44-3.23-3.23s1.44-3.23,3.23-3.23,3.23,1.44,3.23,3.23-1.44,3.23-3.23,3.23Zm23.32-32.49l-5.77,22.81-6.08-22.81-18.27-5.05,18.27-4.6,6.08-22.39,5.77,22.39,18.58,4.6-18.58,5.05Zm47.25-16.72c-2.45,0-4.44-1.99-4.44-4.44s1.99-4.44,4.44-4.44,4.44,1.99,4.44,4.44-1.99,4.44-4.44,4.44Zm29.84,6.45c-1.11,0-2.02-.9-2.02-2.02s.9-2.02,2.02-2.02,2.02,.9,2.02,2.02-.9,2.02-2.02,2.02Z"/></g></g></svg>