<?xml version="1.0" encoding="UTF-8"?><svg xmlns="http://www.w3.org/2000/svg" viewBox="0 0 1080 1944"><defs><style>.cls-1{fill:#fff;}.cls-2{fill:#f6ef84;}.cls-3{fill:#3f3730;}.cls-4{fill:#4c5fa9;}.cls-5{fill:none;stroke:#3f3730;stroke-linecap:round;stroke-miterlimit:10;stroke-width:6px;}.cls-6{fill:#bad6eb;}.cls-7{fill:#c8c0de;}.cls-8{fill:#b1d4f0;}</style></defs><g id="_배경"><g><rect class="cls-6" width="1080" height="1944"/><rect class="cls-1" x="74.84" y="186.39" width="930.33" height="1606.64" rx="65.21" ry="65.21"/><g><path class="cls-3" d="M339.51,1646.47c1.52,0,2.29,.49,2.29,1.46l-1.41,7.79-.29,14.47c-.2,4.73-.92,9.08-2.17,13.07-1.13,3.71-2.72,7.09-4.75,10.14-1.84,2.81-4.04,5.29-6.62,7.44-2.38,1.99-5,3.67-7.85,5.04-2.66,1.25-5.45,2.19-8.38,2.81-2.7,.62-5.41,.94-8.14,.94-6.37,0-11.36-1.38-14.97-4.13-3.61-2.75-5.42-5.42-5.42-8,0-1.48,1.34-3.4,4.01-5.74,2.67-2.34,4.7-3.52,6.06-3.52,1.68,0,2.52,1.56,2.52,4.69,0,5.08,.83,8.37,2.49,9.87,1.66,1.5,3.88,2.26,6.65,2.26,4.49,0,8.43-1.43,11.81-4.28,3.38-2.85,5.65-6.26,6.83-10.22,1.17-3.96,1.78-9.81,1.82-17.55,.04-7.73,.62-13.06,1.73-15.97,1.11-2.91,3.15-5.4,6.12-7.47,2.97-2.07,5.53-3.11,7.68-3.11Zm21.97-17.99c-1.13,8.4-4.71,12.6-10.72,12.6-2.11,0-6.15-.95-12.13-2.84-5.98-1.89-11.13-2.84-15.47-2.84-5.59,0-10.42,2.07-14.5,6.22-4.08,4.15-6.12,7.77-6.12,10.86s1.88,5.69,5.62,8.04c1.52,.98,2.29,1.86,2.29,2.64,0,1.06-1.08,2.48-3.25,4.28s-3.8,2.7-4.89,2.7c-1.84,0-3.55-1.05-5.16-3.16-1.6-2.11-2.4-4.41-2.4-6.91,0-4.84,1.97-10.13,5.92-15.85,3.95-5.72,9.1-10.39,15.47-14,6.37-3.61,13.05-5.42,20.04-5.42,4.73,0,9.2,.71,13.42,2.14,4.22,1.43,6.86,2.14,7.91,2.14,.94,0,1.74-.27,2.4-.82l.35-.12,1.23,.35Z"/><path class="cls-3" d="M413.8,1695.34c-9.26,9.61-16.88,14.41-22.85,14.41-2.66,0-4.85-.91-6.59-2.72-1.74-1.82-2.61-4.11-2.61-6.88,0-4.69,1.8-11.29,5.39-19.8,1.91-4.61,2.87-7.62,2.87-9.02,0-1.6-.76-2.4-2.29-2.4s-3.83,1.06-6.8,3.19c-2.97,2.13-6.09,5.03-9.38,8.7-1.37,7.19-2.05,15.82-2.05,25.9l-13.07,3.05c-.51-4.1-.76-8.55-.76-13.36,0-11.64,1.6-22.48,4.8-32.52,3.2-10.04,8.24-20.68,15.12-31.93,5.12-2.07,9.58-3.76,13.39-5.07,3.81-1.31,5.99-1.96,6.53-1.96,1.02,0,1.88,.82,2.58,2.46s1.05,3.69,1.05,6.15c0,4.14-1.27,8.72-3.81,13.74-2.54,5.02-6.52,11.08-11.95,18.19,5.2-3.01,8.66-4.9,10.38-5.68,1.72-.78,3.48-1.17,5.28-1.17,1.99,0,3.61,.71,4.84,2.14s1.85,3.31,1.85,5.66c0,3.52-1.4,8.97-4.2,16.35-2.8,7.38-4.2,12.01-4.2,13.88,0,.86,.26,1.62,.79,2.29s1.14,1,1.84,1c2.5,0,7.11-3.77,13.82-11.31v6.74Zm-40.61-24.02c13.95-16.21,20.92-28.16,20.92-35.86,0-2.34-.64-3.52-1.93-3.52-2.15,0-5.21,3.85-9.2,11.54-3.98,7.7-7.25,16.97-9.79,27.83Z"/><path class="cls-3" d="M457.57,1695.34c-4.96,4.88-9.41,8.49-13.36,10.81-3.95,2.32-8.3,3.49-13.07,3.49-5.31,0-9.6-1.7-12.86-5.1-3.26-3.4-4.89-7.87-4.89-13.42,0-8.28,2.87-15.77,8.61-22.47,5.74-6.7,12.11-10.05,19.1-10.05,3.63,0,6.54,.94,8.73,2.81,2.19,1.88,3.28,4.34,3.28,7.38,0,8.09-8.59,14.65-25.78,19.69,1.56,7.62,5.64,11.43,12.25,11.43,2.58,0,5.04-.69,7.38-2.08,2.34-1.39,5.88-4.46,10.61-9.23v6.74Zm-30.7-10.84c10-2.81,15-8.01,15-15.59,0-3.75-1.37-5.62-4.1-5.62-2.58,0-5.04,1.96-7.38,5.89s-3.52,9.03-3.52,15.32Z"/><path class="cls-3" d="M542.59,1689.83c-7.03,13.2-14.69,19.8-22.97,19.8-4.34,0-7.81-1.59-10.43-4.78-2.62-3.18-3.93-7.39-3.93-12.63,0-6.09,2.18-15.35,6.53-27.77,4.36-12.42,6.53-21.21,6.53-26.37,0-2.3-.65-4.22-1.96-5.74-1.31-1.52-2.94-2.29-4.89-2.29-3.01,0-6,1.84-8.96,5.51-2.97,3.67-4.45,7.42-4.45,11.25,0,2.93,1.33,5.98,3.98,9.14,1.09,1.33,1.64,2.25,1.64,2.75,0,.59-.84,1.9-2.52,3.93-1.68,2.03-3.13,3.05-4.34,3.05-1.29,0-2.75-.94-4.39-2.81s-2.46-4.67-2.46-8.38c0-7.54,2.65-14.39,7.94-20.57,5.29-6.17,11.14-9.26,17.55-9.26,4.8,0,8.87,1.99,12.19,5.97,3.32,3.98,4.98,8.94,4.98,14.87-.06,6.24-2.08,15.08-6.07,26.51-3.99,11.43-5.97,19.08-5.95,22.95,0,1.84,.47,3.3,1.41,4.37,.94,1.08,2.19,1.61,3.75,1.61,3.4,0,6.78-2.77,10.14-8.32,3.36-5.55,6.42-13.5,9.2-23.85l5.51-20.62c2.15-8.12,4.55-15.21,7.2-21.27,.27-.66,2.1-1.18,5.47-1.55,3.38-.37,5.83-.56,7.35-.56s2.28,.31,2.28,.93l-10.74,40.9c-3.07,12-4.6,20.77-4.6,26.31,0,2.42,.51,4.35,1.52,5.77,1.02,1.43,2.38,2.14,4.1,2.14,2.54,0,6.01-2.08,10.4-6.24s8.09-9.47,11.1-15.94c3.01-6.46,4.51-13.08,4.51-19.83,0-7.23-1.76-14.41-5.27-21.56-.98-2.07-1.46-3.36-1.46-3.87,0-1.68,1.61-3.54,4.83-5.57,3.22-2.03,5.54-3.05,6.94-3.05,1.33,0,2.67,1.77,4.01,5.3,1.35,3.54,2.02,7.24,2.02,11.1,0,10.27-2.4,20.79-7.21,31.55-4.8,10.76-10.78,19.6-17.93,26.51s-13.61,10.37-19.39,10.37c-4.1,0-7.35-1.65-9.76-4.95-2.4-3.3-3.54-8.25-3.43-14.85Z"/><path class="cls-3" d="M655.15,1695.34c-1.99,1.76-3.93,3-5.8,3.72-1.88,.72-3.36,1.08-4.45,1.08-2.81,0-5.61-1.09-8.38-3.28-5.62,8.52-12.07,12.77-19.34,12.77-4.53,0-8.2-1.7-11.02-5.1s-4.22-7.91-4.22-13.54c0-8.91,3.16-16.55,9.49-22.94s13.89-9.58,22.68-9.58c3.32,0,5.75,.36,7.29,1.08,1.54,.72,2.49,1.57,2.84,2.55,.35,.98,.53,2.21,.53,3.69,0,7.3-1.99,16.27-5.98,26.89,1.99,1.84,4.08,2.75,6.27,2.75,2.62,0,5.98-2.29,10.08-6.86v6.74Zm-19.34-32.75c-.59-.23-1.43-.35-2.52-.35-5.08,0-9.05,2.66-11.92,7.97-2.87,5.31-4.31,11.52-4.31,18.63,0,3.95,.62,7.01,1.88,9.2,1.25,2.19,2.99,3.28,5.21,3.28,2.77,0,5.78-2.56,9.02-7.68-3.67-4.61-5.51-9.57-5.51-14.88,0-6.25,2.71-11.64,8.14-16.17Z"/><path class="cls-3" d="M698.92,1695.34c-9.81,9.61-17.36,14.41-22.68,14.41-2.38,0-4.39-1.01-6.04-3.02s-2.46-4.5-2.46-7.47c0-5.51,2.95-12.89,8.85-22.15-2.89,1.49-6.06,2.52-9.49,3.11-2.54,4.69-6.52,9.73-11.95,15.12h-1.35v-5.27c3.05-3.16,5.8-6.56,8.26-10.2-3.36-1.48-5.04-3.69-5.04-6.62s1.03-6.22,3.08-9.64c2.05-3.42,4.87-5.13,8.47-5.13,3.05,0,4.57,1.56,4.57,4.69,0,2.46-.88,5.98-2.64,10.55,6.48-.7,12.15-5.66,16.99-14.88l5.33-.23-5.45,15c-2.27,6.33-3.73,10.63-4.39,12.92-.67,2.29-1,4.31-1,6.06,0,1.64,.38,2.95,1.14,3.93,.76,.98,1.79,1.46,3.08,1.46,1.41,0,2.75-.48,4.04-1.44,1.29-.96,4.18-3.6,8.67-7.94v6.74Z"/><path class="cls-3" d="M737.71,1695.34c-5.31,4.88-9.97,8.49-13.97,10.81-4,2.32-7.82,3.49-11.46,3.49-4.18,0-7.55-1.62-10.11-4.86-2.56-3.24-3.84-7.6-3.84-13.07,0-8.2,1.78-18.05,5.33-29.53,3.55-11.48,7.87-22.07,12.95-31.76l14.88-5.51c.47-.16,.82-.23,1.05-.23,1.13,0,2.06,.83,2.78,2.49,.72,1.66,1.08,3.9,1.08,6.71,0,7.97-1.84,15.68-5.51,23.14-3.67,7.46-9.41,15.43-17.23,23.91-.31,4.06-.47,6.86-.47,8.38,0,3.4,.62,6.09,1.88,8.09,1.25,1.99,2.91,2.99,4.98,2.99s4.36-.76,6.74-2.29c2.38-1.52,6.01-4.69,10.9-9.49v6.74Zm-22.44-22.91c4.96-5.52,8.98-11.7,12.07-18.54,3.08-6.85,4.63-12.73,4.63-17.66,0-1.45-.21-2.61-.64-3.49-.43-.88-.98-1.32-1.64-1.32-1.45,0-3.54,3.6-6.3,10.8s-5.46,17.27-8.12,30.22Z"/><path class="cls-3" d="M800.29,1695.34c-5.62,5.59-9.91,9.37-12.86,11.34-2.95,1.97-5.56,2.96-7.82,2.96-2.77,0-4.97-1.35-6.59-4.04-1.62-2.7-2.45-6.64-2.49-11.84-3.2,5.2-6.69,9.14-10.46,11.84-3.77,2.7-7.18,4.04-10.22,4.04-3.32,0-6.25-1.57-8.79-4.72-2.54-3.14-3.81-6.83-3.81-11.04,0-8.71,3.17-16.79,9.52-24.23,6.35-7.44,13.17-11.16,20.48-11.16,2.03,0,3.62,.29,4.78,.88,1.15,.59,2.41,1.58,3.78,2.99l8.38-35.04c6.84-1.6,11.46-2.4,13.84-2.4,.78,0,1.17,.31,1.17,.94,0,.43-.98,4.47-2.93,12.13-7.81,30.63-11.71,49.1-11.71,55.43,0,1.48,.31,2.67,.94,3.57s1.44,1.35,2.46,1.35c2.5,0,6.61-3.24,12.34-9.73v6.74Zm-42.36,3.11c3.83,0,7.4-3.24,10.72-9.73,3.32-6.48,4.98-12.56,4.98-18.22,0-2.3-.52-4.14-1.55-5.51-1.04-1.37-2.39-2.05-4.07-2.05-3.63,0-7.15,3.39-10.55,10.17-3.4,6.78-5.1,12.9-5.1,18.37,0,2.15,.5,3.85,1.49,5.1,1,1.25,2.35,1.88,4.07,1.88Z"/></g><g><path class="cls-1" d="M353.98,142.06c-5.24,5.58-10.05,8.37-14.42,8.37-2.42,0-4.33-.85-5.74-2.56-1.41-1.71-2.2-4.15-2.36-7.31-2.76,3.35-5.2,5.83-7.33,7.45-2.13,1.62-4.4,2.43-6.82,2.43-3.1,0-5.59-1.34-7.47-4.02-1.88-2.68-2.82-6.25-2.82-10.71,0-5.33,1.23-10.83,3.69-16.49s6.11-10.13,10.94-13.42c4.83-3.28,10.69-4.92,17.57-4.92,5.15,0,9.81,.7,13.98,2.09v2.26c-3.4,3.96-6.24,9.51-8.53,16.64-2.29,7.13-3.44,12.57-3.44,16.3,0,1.82,.37,3.24,1.11,4.24,.74,1,1.77,1.5,3.09,1.5,2.37,0,5.22-1.93,8.54-5.78v3.93Zm-9.95-36.85c-2.1-1.14-4.35-1.71-6.77-1.71-3.81,0-7.24,1.59-10.29,4.77-3.05,3.18-5.46,7.39-7.23,12.63-1.77,5.24-2.65,9.79-2.65,13.64,0,2.57,.5,4.67,1.49,6.27,.99,1.61,2.26,2.41,3.81,2.41,2.69,0,5.78-2.45,9.26-7.35,1.44-12.85,5.56-23.07,12.37-30.66Z"/><path class="cls-1" d="M379.51,142.03c-5.72,5.61-10.13,8.41-13.23,8.41-1.39,0-2.56-.59-3.52-1.76s-1.44-2.63-1.44-4.36c0-3.21,1.72-7.52,5.16-12.92-1.69,.87-3.53,1.47-5.54,1.81-1.48,2.73-3.81,5.67-6.97,8.82h-.79v-3.08c1.78-1.85,3.38-3.83,4.82-5.95-1.96-.87-2.94-2.15-2.94-3.86s.6-3.63,1.79-5.62c1.2-1.99,2.84-2.99,4.94-2.99,1.78,0,2.67,.91,2.67,2.73,0,1.44-.51,3.49-1.54,6.15,3.78-.41,7.09-3.3,9.91-8.68l3.11-.14-3.18,8.75c-1.32,3.69-2.18,6.2-2.56,7.54-.39,1.33-.58,2.51-.58,3.54,0,.96,.22,1.72,.67,2.29,.44,.57,1.04,.86,1.79,.86,.82,0,1.61-.28,2.36-.84s2.44-2.1,5.06-4.63v3.93Z"/><path class="cls-1" d="M405.08,142.03c-2.92,2.87-5.59,4.98-8.02,6.32-2.43,1.34-4.96,2.02-7.6,2.02-2.96,0-5.41-.96-7.33-2.89-1.93-1.92-2.89-4.37-2.89-7.33,0-4.85,1.77-9.34,5.31-13.45,3.54-4.11,7.38-6.17,11.5-6.17,2.03,0,3.68,.56,4.96,1.69,1.28,1.13,1.91,2.59,1.91,4.39,0,.64-.12,1.12-.36,1.44-.24,.32-.69,.64-1.35,.96l-3.96,1.88c-.48,.23-.83,.34-1.06,.34-.32,0-.48-.23-.48-.68,0-.18,.07-.78,.21-1.79,.14-1.01,.21-1.63,.21-1.86,0-1-.21-1.81-.63-2.43s-.99-.92-1.69-.92c-1.66,0-3.18,1.23-4.56,3.69-1.38,2.46-2.07,5.26-2.07,8.41,0,2.71,.65,4.88,1.95,6.49,1.3,1.62,3.03,2.43,5.2,2.43,1.85,0,3.58-.53,5.21-1.59s3.48-2.68,5.55-4.87v3.93Z"/><path class="cls-1" d="M441.58,142.03c-3.65,3.46-6.25,5.72-7.83,6.77-1.57,1.05-3.08,1.57-4.51,1.57-3.6,0-5.3-3.18-5.09-9.54-2.28,3.26-4.38,5.66-6.31,7.21-1.93,1.55-3.91,2.32-5.96,2.32s-3.71-.94-5.11-2.82c-1.4-1.88-2.1-4.19-2.1-6.92,0-3.42,.94-6.68,2.82-9.78,1.88-3.1,4.29-5.61,7.23-7.52s5.54-2.87,7.79-2.87c2.85,0,4.84,1.31,5.98,3.93l6.99-3.86h1.92l-3.01,10.01c-1.55,5.04-2.33,8.49-2.33,10.36,0,1.96,.69,2.94,2.08,2.94,.89,0,1.87-.47,2.94-1.42,1.07-.95,2.57-2.39,4.51-4.32v3.93Zm-25.02,1.88c2.28,0,4.43-1.94,6.44-5.83,2.02-3.88,3.02-7.47,3.02-10.75,0-1.28-.29-2.27-.85-2.99-.57-.72-1.33-1.08-2.29-1.08-2.28,0-4.44,1.94-6.48,5.81-2.04,3.87-3.06,7.44-3.06,10.7,0,1.23,.3,2.23,.91,2.99,.6,.76,1.37,1.15,2.31,1.15Z"/><path class="cls-1" d="M475.11,142.03c-5.26,5.56-9.78,8.34-13.54,8.34-1.53,0-2.76-.54-3.69-1.61-.93-1.07-1.4-2.51-1.4-4.31,0-2.44,1-6.16,3.01-11.18,1.07-2.69,1.61-4.4,1.61-5.13s-.29-1.09-.85-1.09c-.32,0-.74,.16-1.26,.48-.48,.32-1.04,.76-1.67,1.33-.57,.52-1.21,1.16-1.91,1.91-.62,.64-1.28,1.37-1.98,2.19l-1.91,2.22c-.84,1.03-1.37,2.11-1.57,3.25-.34,1.94-.57,3.71-.68,5.33-.07,1.21-.1,2.84-.1,4.89l-7.55,1.78c-.25-3.08-.38-5.37-.38-6.87,0-3.67,.43-7.14,1.28-10.43,.86-3.28,2.23-6.97,4.12-11.07l8.34-1.61c-1.75,4.72-2.91,8.43-3.45,11.14,3.73-4.17,6.7-7.06,8.89-8.67,2.19-1.61,4.15-2.41,5.85-2.41,1.16,0,2.13,.44,2.9,1.31,.77,.88,1.16,1.97,1.16,3.29,0,2.18-.98,5.78-2.94,10.8-1.34,3.44-2.02,5.68-2.02,6.7,0,1.37,.56,2.06,1.68,2.06,1.67,0,4.36-2.2,8.09-6.6v3.93Z"/><path class="cls-1" d="M500.64,142.03c-2.89,2.85-5.49,4.95-7.79,6.31-2.3,1.36-4.84,2.03-7.62,2.03-3.1,0-5.6-.99-7.5-2.97s-2.85-4.59-2.85-7.83c0-4.83,1.67-9.2,5.02-13.11s7.06-5.86,11.14-5.86c2.12,0,3.82,.55,5.09,1.64,1.28,1.09,1.91,2.53,1.91,4.31,0,4.72-5.01,8.54-15.04,11.48,.91,4.44,3.29,6.66,7.14,6.66,1.5,0,2.94-.4,4.31-1.21s3.43-2.6,6.19-5.38v3.93Zm-17.91-6.32c5.83-1.64,8.75-4.67,8.75-9.09,0-2.19-.8-3.28-2.39-3.28-1.5,0-2.94,1.14-4.31,3.43s-2.05,5.27-2.05,8.94Z"/><path class="cls-1" d="M511.17,122c1.57-.41,3.16-.75,4.75-1.01,1.59-.26,2.55-.39,2.87-.39,.23,0,.34,.09,.34,.27,0,.34-.09,.69-.27,1.06-.37,1.05-.55,2.05-.55,3.01,0,1.18,.69,2.8,2.05,4.85s2.05,3.96,2.05,5.71c0,3.49-1.67,6.85-5.01,10.08-3.34,3.24-6.8,4.85-10.37,4.85-1.55,0-2.96-.41-4.24-1.23-1.28-.82-1.91-1.7-1.91-2.63,0-.55,.63-1.58,1.9-3.11,1.26-1.53,2.17-2.29,2.72-2.29,.73,0,1.38,.93,1.95,2.8,.57,1.87,1.55,2.8,2.94,2.8s2.69-.64,3.91-1.93,1.83-2.67,1.83-4.15c0-1.44-.77-3.35-2.32-5.74s-2.58-4.4-3.08-6.01c-2.64,4.26-5.99,8.62-10.05,13.09h-.79v-3.08c5.58-5.95,9.34-11.6,11.28-16.95Z"/><path class="cls-1" d="M596.89,142.03c-2.85,2.78-5.29,4.87-7.31,6.26-2.03,1.39-4,2.08-5.91,2.08-1.5,0-2.7-.52-3.57-1.55s-1.32-2.43-1.32-4.19c0-2.46,.62-5.58,1.85-9.37,1.23-3.78,1.85-6.08,1.85-6.9,0-.73-.38-1.09-1.13-1.09-.23,0-.5,.08-.82,.24-.34,.16-.73,.39-1.16,.68-.43,.32-.9,.71-1.4,1.16-.5,.46-1.03,.98-1.57,1.57-.59,.59-1.18,1.24-1.78,1.95-1,1.18-1.59,2.18-1.78,2.97l-1.14,4.89-2.07,8.07-8.66,1.57,3.32-14.08c.25-1.03,.55-2.53,.89-4.51s.51-3.17,.51-3.55c0-.77-.26-1.16-.79-1.16-.16,0-.39,.08-.68,.24-.34,.16-.73,.4-1.16,.72-.5,.37-1.04,.8-1.61,1.3-.62,.55-1.28,1.17-1.98,1.88-.75,.75-1.53,1.58-2.32,2.49-1.09,1.23-1.78,2.67-2.05,4.31-.37,1.96-.62,3.71-.75,5.26-.16,1.55-.25,3.28-.27,5.2l-7.59,1.81c-.18-2.62-.27-4.81-.27-6.56,0-4.17,.43-7.8,1.3-10.89,.87-3.09,2.28-6.69,4.24-10.82l8.27-1.61c-1.48,3.71-2.63,7.3-3.45,10.77,6.13-7.13,10.82-10.7,14.08-10.7,1.18,0,2.15,.48,2.89,1.45,.74,.97,1.11,2.24,1.11,3.81,0,.73-.11,2.07-.34,4.03,3.85-3.85,6.62-6.36,8.29-7.54,1.67-1.17,3.22-1.76,4.63-1.76,1.25,0,2.28,.5,3.08,1.5s1.2,2.28,1.2,3.83c0,2.44-.67,5.57-2.01,9.4-1.34,3.83-2.01,6.36-2.01,7.59s.47,1.91,1.4,1.91c.59,0,1.42-.39,2.47-1.18,1.06-.79,2.91-2.59,5.54-5.42v3.93Z"/><path class="cls-1" d="M633.4,142.03c-3.65,3.46-6.25,5.72-7.83,6.77-1.57,1.05-3.08,1.57-4.51,1.57-3.6,0-5.3-3.18-5.09-9.54-2.28,3.26-4.38,5.66-6.31,7.21-1.93,1.55-3.91,2.32-5.96,2.32s-3.71-.94-5.11-2.82c-1.4-1.88-2.1-4.19-2.1-6.92,0-3.42,.94-6.68,2.82-9.78,1.88-3.1,4.29-5.61,7.23-7.52s5.54-2.87,7.79-2.87c2.85,0,4.84,1.31,5.98,3.93l6.99-3.86h1.92l-3.01,10.01c-1.55,5.04-2.33,8.49-2.33,10.36,0,1.96,.69,2.94,2.08,2.94,.89,0,1.87-.47,2.94-1.42,1.07-.95,2.57-2.39,4.51-4.32v3.93Zm-25.02,1.88c2.28,0,4.43-1.94,6.44-5.83,2.02-3.88,3.02-7.47,3.02-10.75,0-1.28-.29-2.27-.85-2.99-.57-.72-1.33-1.08-2.29-1.08-2.28,0-4.44,1.94-6.48,5.81-2.04,3.87-3.06,7.44-3.06,10.7,0,1.23,.3,2.23,.91,2.99,.6,.76,1.37,1.15,2.31,1.15Z"/><path class="cls-1" d="M658.93,142.03c-2.15,2.16-4.81,4.1-7.99,5.81-.83,6.22-2.41,11-4.75,14.32-2.34,3.33-4.72,4.99-7.16,4.99-1.53,0-2.83-.63-3.9-1.9-1.07-1.26-1.61-2.82-1.61-4.67,0-4.47,3.01-8.23,9.02-11.28l2.53-20.58c-4.74,5.92-8.64,10.36-11.69,13.29h-.79v-3.08c3.03-2.89,7.11-7.68,12.24-14.36l2.12-2.73c2.39-.27,5.07-.72,8.03-1.33-1,5.42-2.19,13.43-3.55,24.03,2.1-1.05,4.57-3.18,7.41-6.39l.07,3.86Zm-16.6,10.42c-1.91,.89-3.41,2.09-4.51,3.61s-1.65,3.07-1.65,4.67c0,1.03,.24,1.9,.72,2.62s1.04,1.08,1.67,1.08c1.57,0,2.6-2.01,3.08-6.02l.69-5.95Zm15.85-45.29c-.43,5.56-2.75,8.34-6.94,8.34-1.96,0-3.69-.66-5.2-1.98,1.98-2.53,3.16-4.72,3.52-6.56,1.82,1.12,3.34,1.68,4.55,1.68,1.37,0,2.72-.49,4.07-1.47Z"/><path class="cls-1" d="M684.49,142.03c-2.89,2.85-5.49,4.95-7.79,6.31-2.3,1.36-4.84,2.03-7.62,2.03-3.1,0-5.6-.99-7.5-2.97s-2.85-4.59-2.85-7.83c0-4.83,1.67-9.2,5.02-13.11s7.06-5.86,11.14-5.86c2.12,0,3.82,.55,5.09,1.64,1.28,1.09,1.91,2.53,1.91,4.31,0,4.72-5.01,8.54-15.04,11.48,.91,4.44,3.29,6.66,7.14,6.66,1.5,0,2.94-.4,4.31-1.21s3.43-2.6,6.19-5.38v3.93Zm-17.91-6.32c5.83-1.64,8.75-4.67,8.75-9.09,0-2.19-.8-3.28-2.39-3.28-1.5,0-2.94,1.14-4.31,3.43s-2.05,5.27-2.05,8.94Z"/><path class="cls-1" d="M721,142.03c-3.01,2.85-5.53,4.95-7.55,6.31-2.03,1.36-3.85,2.03-5.47,2.03-1.8,0-3.18-.72-4.15-2.15s-1.45-3.38-1.45-5.85c-2.51,2.76-4.75,4.79-6.73,6.1s-3.92,1.96-5.81,1.96c-1.73,0-3.12-.72-4.17-2.15-1.05-1.44-1.57-3.38-1.57-5.85,0-4.74,1.59-11.42,4.79-20.03l9.13-1.82c-3.75,10.92-5.63,17.93-5.64,21.03,0,2.19,.82,3.28,2.46,3.28,1.18,0,2.65-.96,4.41-2.89,1.75-1.92,2.85-3.61,3.28-5.04l4.48-14.56,9.3-1.88c-2.15,6.86-3.62,11.68-4.42,14.46-.8,2.78-1.2,4.73-1.2,5.85,0,2.14,.73,3.21,2.19,3.21,1.19,0,2.94-1.08,5.27-3.25l2.87-2.7v3.93Z"/><path class="cls-1" d="M746.53,142.03c-5.72,5.61-10.13,8.41-13.23,8.41-1.39,0-2.56-.59-3.52-1.76s-1.44-2.63-1.44-4.36c0-3.21,1.72-7.52,5.16-12.92-1.69,.87-3.53,1.47-5.54,1.81-1.48,2.73-3.81,5.67-6.97,8.82h-.79v-3.08c1.78-1.85,3.38-3.83,4.82-5.95-1.96-.87-2.94-2.15-2.94-3.86s.6-3.63,1.79-5.62c1.2-1.99,2.84-2.99,4.94-2.99,1.78,0,2.67,.91,2.67,2.73,0,1.44-.51,3.49-1.54,6.15,3.78-.41,7.09-3.3,9.91-8.68l3.11-.14-3.18,8.75c-1.32,3.69-2.18,6.2-2.56,7.54-.39,1.33-.58,2.51-.58,3.54,0,.96,.22,1.72,.67,2.29,.44,.57,1.04,.86,1.79,.86,.82,0,1.61-.28,2.36-.84s2.44-2.1,5.06-4.63v3.93Z"/><path class="cls-1" d="M757.06,122c1.57-.41,3.16-.75,4.75-1.01,1.59-.26,2.55-.39,2.87-.39,.23,0,.34,.09,.34,.27,0,.34-.09,.69-.27,1.06-.37,1.05-.55,2.05-.55,3.01,0,1.18,.69,2.8,2.05,4.85s2.05,3.96,2.05,5.71c0,3.49-1.67,6.85-5.01,10.08-3.34,3.24-6.8,4.85-10.37,4.85-1.55,0-2.96-.41-4.24-1.23-1.28-.82-1.91-1.7-1.91-2.63,0-.55,.63-1.58,1.9-3.11,1.26-1.53,2.17-2.29,2.72-2.29,.73,0,1.38,.93,1.95,2.8,.57,1.87,1.55,2.8,2.94,2.8s2.69-.64,3.91-1.93,1.83-2.67,1.83-4.15c0-1.44-.77-3.35-2.32-5.74s-2.58-4.4-3.08-6.01c-2.64,4.26-5.99,8.62-10.05,13.09h-.79v-3.08c5.58-5.95,9.34-11.6,11.28-16.95Z"/></g></g></g><g id="_반짝이"><polygon class="cls-7" points="294.57 870.53 307.56 920.94 349.39 931.3 307.56 942.66 294.57 994 280.88 942.66 239.74 931.3 280.88 920.94 294.57 870.53"/><polygon class="cls-8" points="832.09 704.01 841.24 739.53 870.71 746.82 841.24 754.83 832.09 791 822.44 754.83 793.46 746.82 822.44 739.53 832.09 704.01"/><circle class="cls-6" cx="381.5" cy="667.5" r="12.5"/><circle class="cls-8" cx="206" cy="891" r="14"/><circle class="cls-7" cx="241.5" cy="826.5" r="10.5"/><circle class="cls-7" cx="766.5" cy="795.5" r="10.5"/><circle class="cls-6" cx="771.5" cy="856.5" r="6.5"/><circle class="cls-7" cx="876.5" cy="943.5" r="11.5"/></g><g id="_세계"><g id="_세계-2"><circle class="cls-4" cx="536.5" cy="1031.5" r="181"/><path class="cls-6" d="M447.5,874.5c7.68-4.3,12.84-6.37,19-6,8.48,.51,10.82,5.17,22,6,7.73,.57,10.25-1.38,13,1,4.53,3.93-.01,11.22,5,17,3.18,3.67,5.62,1.42,11,6,5.2,4.42,4.38,7.75,9,10,3.95,1.92,5.2-.19,10,2,1.14,.52,5.28,2.57,8,7,2.21,3.61,1.02,4.79,3,7,2.13,2.38,4.14,1.73,11,4,5.58,1.84,8.37,2.76,10,5,1.68,2.31,.68,3.35,3,10,1.48,4.24,2.11,4.46,2,6-.38,5.2-7.98,8.56-9,9-7.47,3.2-10.22-.49-18,2-1.4,.45-9.53,3.04-13,10-2.84,5.68,.38,8.38-2,18-1.15,4.66-2.24,9.07-6,12-5.69,4.44-13.9,2.67-17,2-9.95-2.15-11.61-7.58-19-7-5.48,.43-9.56,3.81-11,5-5.59,4.62-3.76,7.66-8,11-7.47,5.88-17.18-.39-23,6-1.63,1.79-2.3,3.85-3,6-2,6.15,.05,8.89-1,13-1.98,7.73-13.26,13.67-18,11-2.3-1.3-1.21-3.57-4-11-1.57-4.18-4.05-8.12-9-16-3.29-5.23-4.48-6.64-6-8-1.81-1.62-4.79-4.3-9-5-5.93-.99-7.69,3.05-12,2-4.89-1.19-5.22-7.03-11-14-3.95-4.76-8.65-7.88-13-10,1.73-7.01,4.49-16.38,9-27,11.22-26.43,25.97-43.45,31-49,0,0,17.02-18.77,46-35Z"/><path class="cls-6" d="M412.5,1068.5c-4.98-.16-5.95-.91-8,0-3.81,1.7-6.01,6.75-6,11,.02,7.52,6.98,12.74,10,15,6.48,4.86,8.67,2.72,16,8,5.97,4.3,5.81,6.65,11,9,1.79,.81,9.21,4.17,14,1,4.68-3.1,1.75-9.06,7-14,3.05-2.87,4.62-1.41,12-5,5.66-2.76,9.61-4.68,12-9,4.1-7.41,.17-15.66,0-16-2.77-5.59-8.95-10.44-12-9-2.68,1.26-.62,6.3-4,9-2.36,1.88-4.6,.43-14,0-5.86-.27-5.38,.28-12,0-7.98-.34-7.65-1.09-13-1-6.46,.11-6.82,1.2-13,1Z"/><path class="cls-6" d="M517.5,1034.5c-.51-4.65,3.26-8.34,8-13,5.13-5.04,5.59-3.47,10-8,5.05-5.19,5.15-7.98,11-13,2.59-2.22,2.87-1.93,5-4,5.2-5.06,5.51-8.74,8-9,2.75-.29,6.47,3.78,7,8,.81,6.5-6.06,12.54-10,16-4.56,4.01-6.71,4.17-9,8-1.99,3.33-1.11,4.44-3,10-1.95,5.71-3.58,10.49-8,13-3.61,2.05-8.78,2.41-13,0-.85-.49-5.48-3.27-6-8Z"/><path class="cls-6" d="M684.5,925.5c-3.21-1.15-8.72-2.52-15-1-2.9,.7-8.06,1.96-10,6-1.4,2.92,.21,4.52,0,9-.34,7.18-4.9,12.54-7,15-5.27,6.19-8.59,5.1-12,11-.92,1.59-4.05,6.99-2,11,1.63,3.2,4.83,2.12,9,6,2.89,2.69,1.86,3.68,6,10,3.32,5.07,5.26,8.04,9,10,3.82,2,6.5,1.38,7,3,.52,1.69-2.05,3.51-7,8-10.14,9.21-11.53,12.65-12,14-.62,1.77-2.34,6.71,0,10,2.72,3.82,7.8,.99,14,5,4.87,3.15,6.89,8.22,8,11,1.84,4.62,1.93,8.48,2,14,.15,11.24-2.48,13.38,0,18,1.75,3.26,3.98,3.92,5,8,.95,3.8-.31,5.92,1,7,1.94,1.6,7.26-.97,11-4,6.81-5.51,6.4-10.94,13-16,3.03-2.32,6.06-3.44,8-4,2.39-8.2,4.97-19.45,6-33,.35-4.62,1.79-26.25-5-54-6.85-28.03-18.98-49.57-29-64Z"/><path class="cls-6" d="M695.5,1112.5c-3.23,.89-7.67,1.99-13,3-13.35,2.52-16.75,1.45-18,1-5.96-2.16-4.75-5.55-10-7-6.98-1.93-10.36,3.73-20,2-2.79-.5-5.75-1.55-7-2-6.8-2.42-7.39-4.09-10-4-5.25,.18-10.97,7.19-11,14-.02,4.13,2.07,7.17,4,10,5.2,7.6,9.79,6.88,12,12,2.53,5.86-.19,14.36-5,19-5.9,5.7-12.93,3.65-15,9-.56,1.46,.05,1.37,0,10-.03,5.43-.28,5.95,0,8,.33,2.4,1.23,5.9,4,10,5.38-1.77,12.75-4.57,21-9,13.29-7.14,21.63-14.6,32-24,15.04-13.64,23.46-21.43,30-35,3.28-6.81,5.03-12.86,6-17Z"/><path class="cls-6" d="M404.5,1151.5c1.54-.89,5.08-2.68,14-3,3.31-.12,7.21,.25,15,1,8.55,.82,10.74,1.31,13,3,2.82,2.12,2.08,3.38,5,6,4.58,4.1,10.51,4.67,14,5,7.76,.74,8.85-1.77,14,0,5.42,1.87,8.4,6.1,9,7,1.81,2.69,1.52,3.92,3,8,1.02,2.81,3.96,10.93,10,15,3.58,2.41,4.44,.84,12,3,7.01,2.01,8.73,4.07,21,10,4.62,2.24,8.47,3.92,11,5-10.5,.59-24.61,.54-41-2-12.71-1.97-30.25-4.84-50-15-12.74-6.56-22.29-14.04-35-24-8.01-6.28-14.45-11.88-19-16,.88-.84,2.21-1.96,4-3Z"/><path class="cls-2" d="M606.29,623.42c9.72,13.36,15.46,29.8,15.46,47.58,0,44.74-36.26,81-81,81s-81-36.26-81-81c0-17.78,5.75-34.22,15.46-47.58-25.23,19.57-41.46,50.18-41.46,84.58,0,59.09,47.91,107,107,107s107-47.91,107-107c0-34.4-16.24-65.01-41.46-84.58Z"/><polygon class="cls-4" points="539 506 547.61 549.43 570.82 538.39 559.79 561.6 609.5 570.21 559.79 578.82 570.82 602.03 547.61 591 539 636.86 530.39 591 507.19 602.03 518.22 578.82 472 570.21 518.22 561.6 507.19 538.39 530.39 549.43 539 506"/><g><path class="cls-3" d="M285.99,1192.51c-2.73-3.35-8.15-10.99-9.28-21.97-2.02-19.65,11.45-33.28,13.4-35.19,3.23,2.28,10.73,8.26,13.92,18.74,2.93,9.61,2.45,23.66-6.79,32.31-4.02,3.76-8.48,5.37-11.25,6.12Z"/><g><path class="cls-5" d="M444,1274.07c-16.58,1-43.08,.65-72.23-9.18-51.3-17.31-78.59-53.14-98.5-79.28-12.54-16.47-29.34-42.34-41.27-77.61"/><path class="cls-3" d="M339.47,1241.26c-2.14-3.75-6.24-12.18-5.55-23.2,1.23-19.72,16.75-30.96,18.98-32.52,2.82,2.77,9.23,9.91,10.66,20.77,1.32,9.96-1.46,23.74-11.99,30.76-4.58,3.05-9.25,3.91-12.1,4.19Z"/><path class="cls-3" d="M369.47,1258.26c-2.14-3.75-6.24-12.18-5.55-23.2,1.23-19.72,16.75-30.96,18.98-32.52,2.82,2.77,9.23,9.91,10.66,20.77,1.32,9.96-1.46,23.74-11.99,30.76-4.58,3.05-9.25,3.91-12.1,4.19Z"/><path class="cls-3" d="M309.54,1218.9c-2.01-3.82-5.81-12.39-4.74-23.38,1.92-19.66,17.82-30.35,20.11-31.84,2.72,2.87,8.87,10.22,9.93,21.13,.97,10-2.29,23.68-13.06,30.32-4.68,2.89-9.38,3.58-12.24,3.76Z"/><path class="cls-3" d="M264,1157c-3.27-2.82-9.96-9.39-13-20-5.44-18.99,5.42-34.78,7-37,3.58,1.67,12.01,6.25,17,16,4.58,8.95,6.57,22.86-1,33-3.29,4.41-7.41,6.78-10,8Z"/><path class="cls-3" d="M317.35,1242.51c-2.79-3.3-9.29-10.05-19.88-13.19-18.94-5.62-34.83,5.09-37.06,6.65,1.64,3.6,6.13,12.07,15.84,17.15,8.9,4.66,22.8,6.79,33.01-.69,4.44-3.25,6.85-7.34,8.09-9.92Z"/><path class="cls-3" d="M356.35,1270.51c-2.79-3.3-9.29-10.05-19.88-13.19-18.94-5.62-34.83,5.09-37.06,6.65,1.64,3.6,6.13,12.07,15.84,17.15,8.9,4.66,22.8,6.79,33.01-.69,4.44-3.25,6.85-7.34,8.09-9.92Z"/><path class="cls-3" d="M286.64,1211.71c-2.9-3.2-9.64-9.72-20.33-12.49-19.12-4.95-34.63,6.3-36.81,7.94,1.76,3.54,6.55,11.85,16.43,16.59,9.06,4.35,23.02,5.99,32.96-1.84,4.32-3.4,6.59-7.58,7.74-10.2Z"/><path class="cls-3" d="M266.95,1184.53c-2.21-3.71-7.52-11.44-17.44-16.27-17.76-8.65-35.19-.69-37.65,.48,1.03,3.82,4.07,12.91,12.81,19.52,8.02,6.06,21.38,10.44,32.67,4.73,4.91-2.48,7.96-6.12,9.61-8.46Z"/><path class="cls-3" d="M244.17,1149.67c-1.52-4.04-5.39-12.58-14.31-19.08-15.96-11.64-34.52-6.87-37.15-6.15,.34,3.94,1.74,13.43,9.18,21.46,6.83,7.37,19.21,14.03,31.33,10.41,5.27-1.58,8.92-4.62,10.95-6.64Z"/><path class="cls-3" d="M234,1121c-3.27-2.82-9.96-9.39-13-20-5.44-18.99,5.42-34.78,7-37,3.58,1.67,12.01,6.25,17,16,4.58,8.95,6.57,22.86-1,33-3.29,4.41-7.41,6.78-10,8Z"/></g></g><g><path class="cls-3" d="M786.01,1192.51c2.73-3.35,8.15-10.99,9.28-21.97,2.02-19.65-11.45-33.28-13.4-35.19-3.23,2.28-10.73,8.26-13.92,18.74-2.93,9.61-2.45,23.66,6.79,32.31,4.02,3.76,8.48,5.37,11.25,6.12Z"/><g><path class="cls-5" d="M628,1274.07c16.58,1,43.08,.65,72.23-9.18,51.3-17.31,78.59-53.14,98.5-79.28,12.54-16.47,29.34-42.34,41.27-77.61"/><path class="cls-3" d="M732.53,1241.26c2.14-3.75,6.24-12.18,5.55-23.2-1.23-19.72-16.75-30.96-18.98-32.52-2.82,2.77-9.23,9.91-10.66,20.77-1.32,9.96,1.46,23.74,11.99,30.76,4.58,3.05,9.25,3.91,12.1,4.19Z"/><path class="cls-3" d="M702.53,1258.26c2.14-3.75,6.24-12.18,5.55-23.2-1.23-19.72-16.75-30.96-18.98-32.52-2.82,2.77-9.23,9.91-10.66,20.77-1.32,9.96,1.46,23.74,11.99,30.76,4.58,3.05,9.25,3.91,12.1,4.19Z"/><path class="cls-3" d="M762.46,1218.9c2.01-3.82,5.81-12.39,4.74-23.38-1.92-19.66-17.82-30.35-20.11-31.84-2.72,2.87-8.87,10.22-9.93,21.13-.97,10,2.29,23.68,13.06,30.32,4.68,2.89,9.38,3.58,12.24,3.76Z"/><path class="cls-3" d="M808,1157c3.27-2.82,9.96-9.39,13-20,5.44-18.99-5.42-34.78-7-37-3.58,1.67-12.01,6.25-17,16-4.58,8.95-6.57,22.86,1,33,3.29,4.41,7.41,6.78,10,8Z"/><path class="cls-3" d="M754.65,1242.51c2.79-3.3,9.29-10.05,19.88-13.19,18.94-5.62,34.83,5.09,37.06,6.65-1.64,3.6-6.13,12.07-15.84,17.15-8.9,4.66-22.8,6.79-33.01-.69-4.44-3.25-6.85-7.34-8.09-9.92Z"/><path class="cls-3" d="M715.65,1270.51c2.79-3.3,9.29-10.05,19.88-13.19,18.94-5.62,34.83,5.09,37.06,6.65-1.64,3.6-6.13,12.07-15.84,17.15-8.9,4.66-22.8,6.79-33.01-.69-4.44-3.25-6.85-7.34-8.09-9.92Z"/><path class="cls-3" d="M785.36,1211.71c2.9-3.2,9.64-9.72,20.33-12.49,19.12-4.95,34.63,6.3,36.81,7.94-1.76,3.54-6.55,11.85-16.43,16.59-9.06,4.35-23.02,5.99-32.96-1.84-4.32-3.4-6.59-7.58-7.74-10.2Z"/><path class="cls-3" d="M805.05,1184.53c2.21-3.71,7.52-11.44,17.44-16.27,17.76-8.65,35.19-.69,37.65,.48-1.03,3.82-4.07,12.91-12.81,19.52-8.02,6.06-21.38,10.44-32.67,4.73-4.91-2.48-7.96-6.12-9.61-8.46Z"/><path class="cls-3" d="M827.83,1149.67c1.52-4.04,5.39-12.58,14.31-19.08,15.96-11.64,34.52-6.87,37.15-6.15-.34,3.94-1.74,13.43-9.18,21.46-6.83,7.37-19.21,14.03-31.33,10.41-5.27-1.58-8.92-4.62-10.95-6.64Z"/><path class="cls-3" d="M838,1121c3.27-2.82,9.96-9.39,13-20,5.44-18.99-5.42-34.78-7-37-3.58,1.67-12.01,6.25-17,16-4.58,8.95-6.57,22.86,1,33,3.29,4.41,7.41,6.78,10,8Z"/></g></g></g></g></svg>