<?xml version="1.0" encoding="UTF-8"?><svg xmlns="http://www.w3.org/2000/svg" viewBox="0 0 1080 1944"><defs><style>.cls-1{fill:#fff;}.cls-2{fill:#f6ef84;}.cls-3{fill:#3f3730;}.cls-4{fill:#4c5fa9;}.cls-5{fill:#bad6eb;}.cls-6{fill:#c8c0de;}.cls-7{fill:#b1d4f0;}</style></defs><g id="_배경_텍스트"><g><rect class="cls-5" width="1080" height="1944"/><rect class="cls-1" x="74.84" y="186.39" width="930.33" height="1606.64" rx="65.21" ry="65.21"/><g><path class="cls-3" d="M307.35,1664.47c-8.24,8.77-15.79,13.16-22.67,13.16-3.8,0-6.8-1.34-9.02-4.03-2.22-2.69-3.46-6.52-3.71-11.49-4.33,5.26-8.17,9.17-11.52,11.71-3.35,2.54-6.92,3.81-10.71,3.81-4.87,0-8.78-2.1-11.74-6.31-2.95-4.21-4.43-9.82-4.43-16.84,0-8.38,1.93-17.02,5.8-25.92,3.87-8.9,9.6-15.92,17.19-21.08,7.59-5.16,16.79-7.73,27.61-7.73,8.09,0,15.42,1.09,21.97,3.28v3.54c-5.34,6.23-9.8,14.95-13.4,26.16-3.6,11.21-5.4,19.75-5.4,25.62,0,2.87,.58,5.08,1.75,6.66,1.16,1.58,2.78,2.36,4.86,2.36,3.72,0,8.2-3.03,13.43-9.08v6.18Zm-15.63-57.9c-3.29-1.79-6.84-2.69-10.63-2.69-5.98,0-11.37,2.5-16.17,7.49-4.8,5-8.58,11.61-11.36,19.85-2.77,8.24-4.16,15.38-4.16,21.43,0,4.05,.78,7.33,2.34,9.86,1.56,2.53,3.55,3.79,5.99,3.79,4.22,0,9.08-3.85,14.56-11.55,2.26-20.2,8.74-36.25,19.44-48.18Z"/><path class="cls-3" d="M347.47,1664.42c-4.58,4.51-8.78,7.82-12.6,9.94-3.81,2.11-7.8,3.17-11.95,3.17-4.66,0-8.5-1.51-11.52-4.54s-4.54-6.87-4.54-11.52c0-7.63,2.78-14.67,8.35-21.13,5.57-6.46,11.59-9.7,18.07-9.7,3.19,0,5.78,.89,7.79,2.66,2,1.77,3.01,4.07,3.01,6.9,0,1-.19,1.75-.56,2.26-.38,.5-1.08,1-2.12,1.5l-6.23,2.95c-.75,.36-1.31,.54-1.67,.54-.5,0-.75-.36-.75-1.07,0-.29,.11-1.23,.32-2.82,.21-1.59,.32-2.57,.32-2.93,0-1.58-.33-2.85-.99-3.81-.66-.97-1.55-1.45-2.66-1.45-2.61,0-5,1.93-7.17,5.8-2.17,3.87-3.25,8.27-3.25,13.21,0,4.26,1.02,7.66,3.06,10.21,2.04,2.54,4.76,3.81,8.16,3.81,2.9,0,5.63-.83,8.19-2.5,2.56-1.67,5.47-4.22,8.73-7.65v6.18Z"/><path class="cls-3" d="M387.65,1664.42c-4.55,4.48-8.63,7.78-12.25,9.91-3.62,2.13-7.61,3.2-11.98,3.2-4.87,0-8.8-1.56-11.79-4.67-2.99-3.12-4.48-7.21-4.48-12.3,0-7.59,2.63-14.46,7.9-20.6,5.26-6.14,11.1-9.21,17.51-9.21,3.33,0,6,.86,8,2.58,2,1.72,3.01,3.97,3.01,6.77,0,7.41-7.88,13.43-23.63,18.05,1.43,6.98,5.17,10.47,11.23,10.47,2.36,0,4.62-.64,6.77-1.91,2.15-1.27,5.39-4.09,9.72-8.46v6.18Zm-28.14-9.94c9.17-2.58,13.75-7.34,13.75-14.29,0-3.44-1.25-5.16-3.76-5.16-2.36,0-4.62,1.8-6.77,5.4-2.15,3.6-3.22,8.28-3.22,14.04Z"/><path class="cls-3" d="M463.38,1664.42c-1.83,1.61-3.6,2.75-5.32,3.41-1.72,.66-3.08,.99-4.08,.99-2.58,0-5.14-1-7.68-3.01-5.16,7.81-11.06,11.71-17.72,11.71-4.15,0-7.52-1.56-10.1-4.67s-3.87-7.25-3.87-12.41c0-8.16,2.9-15.17,8.7-21.03,5.8-5.85,12.73-8.78,20.79-8.78,3.04,0,5.27,.33,6.69,.99,1.42,.66,2.28,1.44,2.61,2.34,.32,.9,.48,2.02,.48,3.38,0,6.7-1.83,14.91-5.48,24.65,1.83,1.68,3.74,2.52,5.75,2.52,2.4,0,5.48-2.09,9.24-6.28v6.18Zm-17.72-30.02c-.54-.21-1.31-.32-2.31-.32-4.66,0-8.3,2.44-10.93,7.3-2.63,4.87-3.95,10.56-3.95,17.08,0,3.62,.57,6.43,1.72,8.43,1.15,2.01,2.74,3.01,4.78,3.01,2.54,0,5.3-2.34,8.27-7.04-3.37-4.22-5.05-8.77-5.05-13.64,0-5.73,2.49-10.67,7.47-14.82Z"/><path class="cls-3" d="M506.94,1664.42c-3.72,4.19-7.4,7.42-11.05,9.69-3.65,2.27-6.9,3.41-9.76,3.41-1.36,0-3.22-.52-5.58-1.55-1.51,7.88-2.84,16.38-3.99,25.5-3.73,.5-8.21,1.27-13.44,2.31,1.15-9.81,3.13-22.54,5.96-38.19-.39-.68-1.09-2.4-2.09-5.16l-3.6,3.97h-1.24v-4.83l10.24-10.62c1.95-9.61,3.53-16.56,4.75-20.86,1.22-4.3,2.92-9.05,5.1-14.26,2.18-5.21,3.56-8.2,4.14-8.97,.57-.77,1.96-1.5,4.16-2.2,2.2-.7,4.56-1.36,7.06-1.99,2.51-.63,3.85-.94,4.03-.94,1.36,0,2.47,.89,3.33,2.66s1.29,4.1,1.29,7c0,5.01-1.32,9.84-3.97,14.49s-7.64,10.37-15,17.17l-4.51,22.45c1.75,3.75,4.38,5.63,7.88,5.63,5,0,10.44-3.63,16.3-10.9v6.18Zm-18.04-30.61c4.19-3.65,7.47-7.58,9.85-11.79s3.57-8.08,3.57-11.63c0-1.5-.28-2.74-.83-3.71-.55-.97-1.24-1.45-2.06-1.45-1.57,0-3.17,2.06-4.79,6.18-1.62,4.12-3.54,11.58-5.74,22.4Z"/><path class="cls-3" d="M584.82,1659.37c-6.45,12.1-13.46,18.15-21.05,18.15-3.97,0-7.16-1.46-9.56-4.38-2.4-2.92-3.6-6.78-3.6-11.57,0-5.59,2-14.07,5.99-25.46,3.99-11.39,5.99-19.44,5.99-24.17,0-2.11-.6-3.87-1.8-5.26-1.2-1.4-2.69-2.09-4.48-2.09-2.76,0-5.5,1.68-8.22,5.05-2.72,3.37-4.08,6.8-4.08,10.31,0,2.69,1.22,5.48,3.65,8.38,1,1.22,1.5,2.06,1.5,2.52,0,.54-.77,1.74-2.31,3.6-1.54,1.86-2.87,2.79-3.97,2.79-1.18,0-2.52-.86-4.03-2.58s-2.26-4.28-2.26-7.68c0-6.91,2.43-13.19,7.28-18.85,4.85-5.66,10.21-8.49,16.09-8.49,4.4,0,8.13,1.82,11.17,5.47,3.04,3.65,4.57,8.19,4.57,13.63-.05,5.72-1.91,13.83-5.56,24.3-3.66,10.48-5.47,17.49-5.45,21.04,0,1.69,.43,3.02,1.29,4.01,.86,.99,2,1.48,3.44,1.48,3.12,0,6.21-2.54,9.29-7.63,3.08-5.08,5.89-12.37,8.43-21.86l5.05-18.91c1.97-7.45,4.17-13.95,6.6-19.5,.25-.61,1.92-1.08,5.02-1.42,3.09-.34,5.34-.51,6.74-.51s2.09,.29,2.09,.86l-9.84,37.49c-2.81,11-4.21,19.04-4.21,24.12,0,2.22,.46,3.99,1.4,5.29,.93,1.31,2.18,1.96,3.76,1.96,2.33,0,5.5-1.91,9.53-5.72,4.03-3.81,7.42-8.68,10.18-14.61,2.76-5.93,4.14-11.99,4.14-18.18,0-6.62-1.61-13.21-4.83-19.77-.9-1.9-1.34-3.08-1.34-3.54,0-1.54,1.48-3.24,4.43-5.1,2.95-1.86,5.08-2.79,6.36-2.79,1.22,0,2.44,1.62,3.68,4.86,1.24,3.24,1.85,6.63,1.85,10.18,0,9.42-2.2,19.06-6.61,28.92-4.4,9.87-9.88,17.97-16.44,24.3s-12.48,9.51-17.78,9.51c-3.76,0-6.74-1.51-8.94-4.54-2.2-3.03-3.25-7.56-3.14-13.62Z"/><path class="cls-3" d="M694.93,1664.42c-5.73,5.44-9.83,8.99-12.3,10.63s-4.83,2.47-7.09,2.47c-5.66,0-8.33-5-8-14.99-3.58,5.12-6.88,8.9-9.91,11.33-3.03,2.43-6.15,3.65-9.37,3.65s-5.83-1.48-8.03-4.43c-2.2-2.96-3.3-6.58-3.3-10.88,0-5.37,1.48-10.49,4.43-15.36,2.95-4.87,6.74-8.81,11.36-11.82s8.7-4.51,12.25-4.51c4.48,0,7.61,2.06,9.4,6.18l10.98-6.07h3.01l-4.74,15.74c-2.44,7.91-3.66,13.34-3.66,16.28s1.09,4.62,3.27,4.62c1.4,0,2.93-.74,4.62-2.23,1.68-1.49,4.04-3.75,7.09-6.79v6.18Zm-39.32,2.95c3.58,0,6.96-3.05,10.12-9.16,3.17-6.1,4.75-11.74,4.75-16.89,0-2-.45-3.57-1.34-4.7-.9-1.13-2.09-1.69-3.6-1.69-3.58,0-6.97,3.04-10.18,9.13-3.2,6.09-4.81,11.69-4.81,16.81,0,1.93,.47,3.5,1.42,4.7,.95,1.2,2.16,1.8,3.62,1.8Z"/><path class="cls-3" d="M747.62,1664.42c-8.27,8.74-15.36,13.11-21.27,13.11-2.4,0-4.33-.84-5.8-2.52-1.47-1.68-2.2-3.94-2.2-6.77,0-3.83,1.58-9.69,4.73-17.56,1.68-4.22,2.52-6.91,2.52-8.06s-.45-1.72-1.34-1.72c-.5,0-1.16,.25-1.99,.75-.75,.5-1.63,1.2-2.63,2.09-.9,.82-1.9,1.83-3.01,3.01-.97,1-2.01,2.15-3.12,3.44l-3.01,3.49c-1.33,1.61-2.15,3.31-2.47,5.1-.54,3.04-.9,5.84-1.07,8.38-.11,1.9-.16,4.46-.16,7.68l-11.87,2.79c-.39-4.83-.59-8.43-.59-10.8,0-5.76,.67-11.23,2.01-16.38,1.34-5.16,3.5-10.96,6.47-17.4l13.11-2.52c-2.76,7.41-4.57,13.25-5.42,17.51,5.87-6.55,10.53-11.09,13.98-13.62,3.45-2.53,6.51-3.79,9.2-3.79,1.82,0,3.34,.69,4.56,2.07,1.22,1.38,1.82,3.1,1.82,5.18,0,3.43-1.54,9.09-4.62,16.97-2.11,5.41-3.17,8.92-3.17,10.53,0,2.15,.88,3.23,2.64,3.23,2.62,0,6.86-3.46,12.71-10.37v6.18Z"/><path class="cls-3" d="M804.93,1664.42c-5.16,5.12-9.09,8.58-11.79,10.39-2.7,1.81-5.09,2.71-7.17,2.71-2.54,0-4.56-1.24-6.04-3.71-1.49-2.47-2.25-6.09-2.28-10.85-2.94,4.76-6.13,8.38-9.59,10.85-3.46,2.47-6.58,3.71-9.37,3.71-3.04,0-5.73-1.44-8.06-4.32-2.33-2.88-3.49-6.26-3.49-10.12,0-7.98,2.91-15.39,8.73-22.21,5.82-6.82,12.08-10.23,18.77-10.23,1.86,0,3.32,.27,4.38,.81,1.06,.54,2.21,1.45,3.46,2.74l7.68-32.12c6.27-1.47,10.5-2.2,12.69-2.2,.72,0,1.08,.29,1.08,.86,0,.39-.89,4.1-2.68,11.12-7.16,28.07-10.73,45.01-10.73,50.81,0,1.36,.29,2.45,.86,3.28,.57,.82,1.32,1.23,2.25,1.23,2.29,0,6.06-2.97,11.31-8.92v6.18Zm-38.83,2.85c3.51,0,6.79-2.97,9.83-8.92,3.04-5.94,4.57-11.51,4.57-16.7,0-2.11-.47-3.79-1.42-5.05-.95-1.25-2.19-1.88-3.73-1.88-3.33,0-6.55,3.11-9.67,9.32-3.12,6.21-4.67,11.83-4.67,16.84,0,1.97,.46,3.53,1.37,4.67,.91,1.15,2.16,1.72,3.73,1.72Z"/><path class="cls-3" d="M821.42,1632.94c2.47-.64,4.96-1.17,7.47-1.58,2.51-.41,4.01-.62,4.51-.62,.36,0,.54,.14,.54,.43,0,.54-.14,1.09-.43,1.66-.57,1.65-.86,3.22-.86,4.72,0,1.86,1.08,4.4,3.23,7.63,2.15,3.22,3.22,6.22,3.22,8.97,0,5.48-2.62,10.76-7.87,15.84-5.25,5.08-10.68,7.63-16.3,7.63-2.44,0-4.66-.64-6.66-1.93-2.01-1.29-3.01-2.67-3.01-4.14,0-.86,.99-2.49,2.98-4.89,1.99-2.4,3.41-3.6,4.27-3.6,1.15,0,2.17,1.47,3.06,4.4,.89,2.94,2.43,4.4,4.62,4.4s4.23-1.01,6.15-3.04c1.92-2.02,2.87-4.2,2.87-6.53,0-2.26-1.21-5.26-3.65-9.02-2.44-3.76-4.05-6.91-4.84-9.45-4.15,6.7-9.42,13.55-15.79,20.57h-1.24v-4.83c8.77-9.35,14.68-18.23,17.72-26.64Z"/></g><g><path class="cls-1" d="M410.88,142.03c-5.1,5.49-9.75,8.24-13.95,8.24-2.55,0-4.5-1.23-5.83-3.69-1.33-2.46-2-5.75-2-9.88,0-3.19,.65-7.58,1.96-13.16,1.31-5.58,3-10.28,5.08-14.08l1.98-3.55c-2.71,2.83-4.93,5.92-6.67,9.28-1.73,3.36-3.8,8.06-6.2,14.1-2.4,6.04-4.22,10.15-5.45,12.34s-2.41,3.97-3.54,5.35c-1.13,1.38-2.13,2.27-3.01,2.68-.88,.41-2.41,.62-4.6,.62-.84,0-1.26-.23-1.26-.68,0-.05,.15-.76,.45-2.15,.3-1.39,.61-3.62,.92-6.68s.54-8.27,.68-15.62,1.21-13.64,3.21-18.88c-2.14,2.44-4.33,8.11-6.57,17.02l-.86,3.35c-2.35,9.27-5.04,15.53-8.08,18.78-3.03,3.25-6.01,4.87-8.93,4.87-1.8,0-3.39-.57-4.76-1.71-1.37-1.14-2.05-2.45-2.05-3.93,0-1.14,.82-2.41,2.46-3.83,1.64-1.41,2.68-2.12,3.11-2.12,.5,0,.83,.17,.99,.51,.16,.34,.37,1.28,.62,2.82s.63,2.54,1.15,3.01c.51,.47,1.16,.7,1.94,.7,1.76,0,3.7-1.76,5.83-5.28s4.07-8.96,5.83-16.32l.99-4.13c.8-3.37,1.59-6.06,2.37-8.07,.78-2.01,1.8-4.01,3.08-6.02,1.85-2.87,2.99-4.4,3.41-4.6,.42-.19,1.21-.35,2.38-.48s2.32-.19,3.49-.19c.46,0,.68,.26,.68,.79,0,.25-.07,.76-.21,1.54-.45,3.19-.66,6.39-.64,9.6l.07,9.16c.04,7.98-.59,14.41-1.91,19.31,1.21-1.46,2.96-5.22,5.26-11.28,3.33-8.59,6.36-15.04,9.09-19.35,1.3-2.07,2.87-4.06,4.7-5.96,1.83-1.9,3.1-2.92,3.81-3.06,2.42-.46,4.45-.68,6.12-.68,.62,0,.92,.17,.92,.51,0,.48-.38,1.55-1.12,3.21-1.77,4.01-3.43,9.44-4.96,16.27s-2.31,12.28-2.32,16.33c0,4.58,1.4,6.87,4.2,6.87,2.28,0,4.99-1.94,8.13-5.81v3.93Z"/><path class="cls-1" d="M427.66,142.03c-5.33,5.61-9.32,8.41-11.96,8.41-1.46,0-2.69-.75-3.69-2.24-1-1.49-1.5-3.37-1.5-5.62,0-4.85,1.64-11.57,4.92-20.17l8.68-1.81h.41l-3.42,10.7c-1.41,4.42-2.12,7.58-2.12,9.47,0,.75,.17,1.36,.5,1.83,.33,.47,.75,.7,1.25,.7,.89,0,1.78-.33,2.68-.97s2.32-2.06,4.26-4.22v3.93Zm-.68-34.79c0,5.47-2.02,8.2-6.05,8.2-1.96,0-3.63-.59-5.02-1.78,1.32-2,2.35-4.26,3.08-6.77,1.8,1.12,3.25,1.68,4.34,1.68,1.23,0,2.45-.45,3.66-1.33Z"/><path class="cls-1" d="M461.22,142.03c-5.26,5.56-9.78,8.34-13.54,8.34-1.53,0-2.76-.54-3.69-1.61-.93-1.07-1.4-2.51-1.4-4.31,0-2.44,1-6.16,3.01-11.18,1.07-2.69,1.61-4.4,1.61-5.13s-.29-1.09-.85-1.09c-.32,0-.74,.16-1.26,.48-.48,.32-1.04,.76-1.67,1.33-.57,.52-1.21,1.16-1.91,1.91-.62,.64-1.28,1.37-1.98,2.19l-1.91,2.22c-.84,1.03-1.37,2.11-1.57,3.25-.34,1.94-.57,3.71-.68,5.33-.07,1.21-.1,2.84-.1,4.89l-7.55,1.78c-.25-3.08-.38-5.37-.38-6.87,0-3.67,.43-7.14,1.28-10.43,.86-3.28,2.23-6.97,4.12-11.07l8.34-1.61c-1.75,4.72-2.91,8.43-3.45,11.14,3.73-4.17,6.7-7.06,8.89-8.67,2.19-1.61,4.15-2.41,5.85-2.41,1.16,0,2.13,.44,2.9,1.31,.77,.88,1.16,1.97,1.16,3.29,0,2.18-.98,5.78-2.94,10.8-1.34,3.44-2.02,5.68-2.02,6.7,0,1.37,.56,2.06,1.68,2.06,1.67,0,4.36-2.2,8.09-6.6v3.93Z"/><path class="cls-1" d="M491.88,142.03c-1.16,1.03-2.29,1.75-3.38,2.17-1.09,.42-1.96,.63-2.6,.63-1.64,0-3.27-.64-4.89-1.91-3.28,4.97-7.04,7.45-11.28,7.45-2.64,0-4.79-.99-6.43-2.97s-2.46-4.62-2.46-7.9c0-5.2,1.85-9.66,5.54-13.38s8.1-5.59,13.23-5.59c1.94,0,3.35,.21,4.25,.63,.9,.42,1.45,.92,1.66,1.49,.21,.57,.31,1.29,.31,2.15,0,4.26-1.16,9.49-3.49,15.69,1.16,1.07,2.38,1.61,3.66,1.61,1.53,0,3.49-1.33,5.88-4v3.93Zm-11.28-19.11c-.34-.14-.83-.21-1.47-.21-2.96,0-5.28,1.55-6.96,4.65-1.67,3.1-2.51,6.72-2.51,10.87,0,2.3,.36,4.09,1.09,5.37,.73,1.28,1.74,1.91,3.04,1.91,1.62,0,3.37-1.49,5.26-4.48-2.14-2.69-3.21-5.58-3.21-8.68,0-3.65,1.58-6.79,4.75-9.43Z"/><path class="cls-1" d="M517.42,142.03c-5.72,5.61-10.13,8.41-13.23,8.41-1.39,0-2.56-.59-3.52-1.76s-1.44-2.63-1.44-4.36c0-3.21,1.72-7.52,5.16-12.92-1.69,.87-3.53,1.47-5.54,1.81-1.48,2.73-3.81,5.67-6.97,8.82h-.79v-3.08c1.78-1.85,3.38-3.83,4.82-5.95-1.96-.87-2.94-2.15-2.94-3.86s.6-3.63,1.79-5.62c1.2-1.99,2.84-2.99,4.94-2.99,1.78,0,2.67,.91,2.67,2.73,0,1.44-.51,3.49-1.54,6.15,3.78-.41,7.09-3.3,9.91-8.68l3.11-.14-3.18,8.75c-1.32,3.69-2.18,6.2-2.56,7.54-.39,1.33-.58,2.51-.58,3.54,0,.96,.22,1.72,.67,2.29,.44,.57,1.04,.86,1.79,.86,.82,0,1.61-.28,2.36-.84s2.44-2.1,5.06-4.63v3.93Z"/><path class="cls-1" d="M582.32,142.06c-5.24,5.58-10.05,8.37-14.42,8.37-2.42,0-4.33-.85-5.74-2.56-1.41-1.71-2.2-4.15-2.36-7.31-2.76,3.35-5.2,5.83-7.33,7.45-2.13,1.62-4.4,2.43-6.82,2.43-3.1,0-5.59-1.34-7.47-4.02-1.88-2.68-2.82-6.25-2.82-10.71,0-5.33,1.23-10.83,3.69-16.49s6.11-10.13,10.94-13.42c4.83-3.28,10.69-4.92,17.57-4.92,5.15,0,9.81,.7,13.98,2.09v2.26c-3.4,3.96-6.24,9.51-8.53,16.64-2.29,7.13-3.44,12.57-3.44,16.3,0,1.82,.37,3.24,1.11,4.24,.74,1,1.77,1.5,3.09,1.5,2.37,0,5.22-1.93,8.54-5.78v3.93Zm-9.95-36.85c-2.1-1.14-4.35-1.71-6.77-1.71-3.81,0-7.24,1.59-10.29,4.77-3.05,3.18-5.46,7.39-7.23,12.63-1.77,5.24-2.65,9.79-2.65,13.64,0,2.57,.5,4.67,1.49,6.27,.99,1.61,2.26,2.41,3.81,2.41,2.69,0,5.78-2.45,9.26-7.35,1.44-12.85,5.56-23.07,12.37-30.66Z"/><path class="cls-1" d="M607.85,142.03c-5.72,5.61-10.13,8.41-13.23,8.41-1.39,0-2.56-.59-3.52-1.76s-1.44-2.63-1.44-4.36c0-3.21,1.72-7.52,5.16-12.92-1.69,.87-3.53,1.47-5.54,1.81-1.48,2.73-3.81,5.67-6.97,8.82h-.79v-3.08c1.78-1.85,3.38-3.83,4.82-5.95-1.96-.87-2.94-2.15-2.94-3.86s.6-3.63,1.79-5.62c1.2-1.99,2.84-2.99,4.94-2.99,1.78,0,2.67,.91,2.67,2.73,0,1.44-.51,3.49-1.54,6.15,3.78-.41,7.09-3.3,9.91-8.68l3.11-.14-3.18,8.75c-1.32,3.69-2.18,6.2-2.56,7.54-.39,1.33-.58,2.51-.58,3.54,0,.96,.22,1.72,.67,2.29,.44,.57,1.04,.86,1.79,.86,.82,0,1.61-.28,2.36-.84s2.44-2.1,5.06-4.63v3.93Z"/><path class="cls-1" d="M633.42,142.03c-2.92,2.87-5.59,4.98-8.02,6.32-2.43,1.34-4.96,2.02-7.6,2.02-2.96,0-5.41-.96-7.33-2.89-1.93-1.92-2.89-4.37-2.89-7.33,0-4.85,1.77-9.34,5.31-13.45,3.54-4.11,7.38-6.17,11.5-6.17,2.03,0,3.68,.56,4.96,1.69,1.28,1.13,1.91,2.59,1.91,4.39,0,.64-.12,1.12-.36,1.44-.24,.32-.69,.64-1.35,.96l-3.96,1.88c-.48,.23-.83,.34-1.06,.34-.32,0-.48-.23-.48-.68,0-.18,.07-.78,.21-1.79,.14-1.01,.21-1.63,.21-1.86,0-1-.21-1.81-.63-2.43s-.99-.92-1.69-.92c-1.66,0-3.18,1.23-4.56,3.69-1.38,2.46-2.07,5.26-2.07,8.41,0,2.71,.65,4.88,1.95,6.49,1.3,1.62,3.03,2.43,5.2,2.43,1.85,0,3.58-.53,5.21-1.59s3.48-2.68,5.55-4.87v3.93Z"/><path class="cls-1" d="M669.92,142.03c-3.65,3.46-6.25,5.72-7.83,6.77-1.57,1.05-3.08,1.57-4.51,1.57-3.6,0-5.3-3.18-5.09-9.54-2.28,3.26-4.38,5.66-6.31,7.21-1.93,1.55-3.91,2.32-5.96,2.32s-3.71-.94-5.11-2.82c-1.4-1.88-2.1-4.19-2.1-6.92,0-3.42,.94-6.68,2.82-9.78,1.88-3.1,4.29-5.61,7.23-7.52s5.54-2.87,7.79-2.87c2.85,0,4.84,1.31,5.98,3.93l6.99-3.86h1.92l-3.01,10.01c-1.55,5.04-2.33,8.49-2.33,10.36,0,1.96,.69,2.94,2.08,2.94,.89,0,1.87-.47,2.94-1.42,1.07-.95,2.57-2.39,4.51-4.32v3.93Zm-25.02,1.88c2.28,0,4.43-1.94,6.44-5.83,2.02-3.88,3.02-7.47,3.02-10.75,0-1.28-.29-2.27-.85-2.99-.57-.72-1.33-1.08-2.29-1.08-2.28,0-4.44,1.94-6.48,5.81-2.04,3.87-3.06,7.44-3.06,10.7,0,1.23,.3,2.23,.91,2.99,.6,.76,1.37,1.15,2.31,1.15Z"/><path class="cls-1" d="M703.46,142.03c-5.26,5.56-9.78,8.34-13.54,8.34-1.53,0-2.76-.54-3.69-1.61-.93-1.07-1.4-2.51-1.4-4.31,0-2.44,1-6.16,3.01-11.18,1.07-2.69,1.61-4.4,1.61-5.13s-.29-1.09-.85-1.09c-.32,0-.74,.16-1.26,.48-.48,.32-1.04,.76-1.67,1.33-.57,.52-1.21,1.16-1.91,1.91-.62,.64-1.28,1.37-1.98,2.19l-1.91,2.22c-.84,1.03-1.37,2.11-1.57,3.25-.34,1.94-.57,3.71-.68,5.33-.07,1.21-.1,2.84-.1,4.89l-7.55,1.78c-.25-3.08-.38-5.37-.38-6.87,0-3.67,.43-7.14,1.28-10.43,.86-3.28,2.23-6.97,4.12-11.07l8.34-1.61c-1.75,4.72-2.91,8.43-3.45,11.14,3.73-4.17,6.7-7.06,8.89-8.67,2.19-1.61,4.15-2.41,5.85-2.41,1.16,0,2.13,.44,2.9,1.31,.77,.88,1.16,1.97,1.16,3.29,0,2.18-.98,5.78-2.94,10.8-1.34,3.44-2.02,5.68-2.02,6.7,0,1.37,.56,2.06,1.68,2.06,1.67,0,4.36-2.2,8.09-6.6v3.93Z"/><path class="cls-1" d="M739.92,142.03c-3.65,3.46-6.25,5.72-7.83,6.77-1.57,1.05-3.08,1.57-4.51,1.57-3.6,0-5.3-3.18-5.09-9.54-2.28,3.26-4.38,5.66-6.31,7.21-1.93,1.55-3.91,2.32-5.96,2.32s-3.71-.94-5.11-2.82c-1.4-1.88-2.1-4.19-2.1-6.92,0-3.42,.94-6.68,2.82-9.78,1.88-3.1,4.29-5.61,7.23-7.52s5.54-2.87,7.79-2.87c2.85,0,4.84,1.31,5.98,3.93l6.99-3.86h1.92l-3.01,10.01c-1.55,5.04-2.33,8.49-2.33,10.36,0,1.96,.69,2.94,2.08,2.94,.89,0,1.87-.47,2.94-1.42,1.07-.95,2.57-2.39,4.51-4.32v3.93Zm-25.02,1.88c2.28,0,4.43-1.94,6.44-5.83,2.02-3.88,3.02-7.47,3.02-10.75,0-1.28-.29-2.27-.85-2.99-.57-.72-1.33-1.08-2.29-1.08-2.28,0-4.44,1.94-6.48,5.81-2.04,3.87-3.06,7.44-3.06,10.7,0,1.23,.3,2.23,.91,2.99,.6,.76,1.37,1.15,2.31,1.15Z"/></g><g><path class="cls-1" d="M472.58,1852.82c-4.1,7.7-8.57,11.55-13.4,11.55-2.53,0-4.56-.93-6.08-2.79-1.53-1.86-2.29-4.31-2.29-7.37,0-3.55,1.27-8.96,3.81-16.2s3.81-12.37,3.81-15.38c0-1.34-.38-2.46-1.15-3.35s-1.71-1.33-2.85-1.33c-1.75,0-3.5,1.07-5.23,3.21-1.73,2.14-2.6,4.33-2.6,6.56,0,1.71,.77,3.49,2.32,5.33,.64,.78,.96,1.31,.96,1.61,0,.34-.49,1.11-1.47,2.29-.98,1.19-1.82,1.78-2.53,1.78-.75,0-1.61-.55-2.56-1.64s-1.44-2.72-1.44-4.89c0-4.4,1.54-8.4,4.63-12,3.09-3.6,6.5-5.4,10.24-5.4,2.8,0,5.17,1.16,7.11,3.48,1.94,2.32,2.91,5.21,2.91,8.67-.03,3.64-1.21,8.8-3.54,15.47-2.33,6.67-3.48,11.13-3.47,13.39,0,1.07,.27,1.92,.82,2.55,.55,.63,1.28,.94,2.19,.94,1.98,0,3.95-1.62,5.91-4.85,1.96-3.23,3.75-7.87,5.37-13.91l3.21-12.03c1.25-4.74,2.65-8.88,4.2-12.41,.16-.39,1.22-.69,3.19-.91,1.97-.22,3.4-.33,4.29-.33s1.33,.18,1.33,.54l-6.26,23.86c-1.79,7-2.68,12.11-2.68,15.35,0,1.41,.3,2.54,.89,3.37,.59,.83,1.39,1.25,2.39,1.25,1.48,0,3.5-1.21,6.07-3.64,2.56-2.43,4.72-5.53,6.48-9.3,1.75-3.77,2.63-7.63,2.63-11.57,0-4.22-1.03-8.41-3.08-12.58-.57-1.21-.85-1.96-.85-2.26,0-.98,.94-2.06,2.82-3.25,1.88-1.18,3.23-1.78,4.05-1.78,.77,0,1.56,1.03,2.34,3.09,.79,2.06,1.18,4.22,1.18,6.48,0,5.99-1.4,12.13-4.2,18.41s-6.29,11.43-10.46,15.47-7.94,6.05-11.31,6.05c-2.39,0-4.29-.96-5.69-2.89-1.4-1.92-2.07-4.81-2-8.67Z"/><path class="cls-1" d="M542.65,1856.03c-3.65,3.46-6.25,5.72-7.83,6.77-1.57,1.05-3.08,1.57-4.51,1.57-3.6,0-5.3-3.18-5.09-9.54-2.28,3.26-4.38,5.66-6.31,7.21-1.93,1.55-3.91,2.32-5.96,2.32s-3.71-.94-5.11-2.82c-1.4-1.88-2.1-4.19-2.1-6.92,0-3.42,.94-6.68,2.82-9.78,1.88-3.1,4.29-5.61,7.23-7.52s5.54-2.87,7.79-2.87c2.85,0,4.84,1.31,5.98,3.93l6.99-3.86h1.92l-3.01,10.01c-1.55,5.04-2.33,8.49-2.33,10.36,0,1.96,.69,2.94,2.08,2.94,.89,0,1.87-.47,2.94-1.42,1.07-.95,2.57-2.39,4.51-4.32v3.93Zm-25.02,1.88c2.28,0,4.43-1.94,6.44-5.83,2.02-3.88,3.02-7.47,3.02-10.75,0-1.28-.29-2.27-.85-2.99-.57-.72-1.33-1.08-2.29-1.08-2.28,0-4.44,1.94-6.48,5.81-2.04,3.87-3.06,7.44-3.06,10.7,0,1.23,.3,2.23,.91,2.99,.6,.76,1.37,1.15,2.31,1.15Z"/><path class="cls-1" d="M576.18,1856.03c-5.26,5.56-9.78,8.34-13.54,8.34-1.53,0-2.76-.54-3.69-1.61-.93-1.07-1.4-2.51-1.4-4.31,0-2.44,1-6.16,3.01-11.18,1.07-2.69,1.61-4.4,1.61-5.13s-.29-1.09-.85-1.09c-.32,0-.74,.16-1.26,.48-.48,.32-1.04,.76-1.67,1.33-.57,.52-1.21,1.16-1.91,1.91-.62,.64-1.28,1.37-1.98,2.19l-1.91,2.22c-.84,1.03-1.37,2.11-1.57,3.25-.34,1.94-.57,3.71-.68,5.33-.07,1.21-.1,2.84-.1,4.89l-7.55,1.78c-.25-3.08-.38-5.37-.38-6.87,0-3.67,.43-7.14,1.28-10.43,.86-3.28,2.23-6.97,4.12-11.07l8.34-1.61c-1.75,4.72-2.91,8.43-3.45,11.14,3.73-4.17,6.7-7.06,8.89-8.67,2.19-1.61,4.15-2.41,5.85-2.41,1.16,0,2.13,.44,2.9,1.31,.77,.88,1.16,1.97,1.16,3.29,0,2.18-.98,5.78-2.94,10.8-1.34,3.44-2.02,5.68-2.02,6.7,0,1.37,.56,2.06,1.68,2.06,1.67,0,4.36-2.2,8.09-6.6v3.93Z"/><path class="cls-1" d="M612.65,1856.03c-3.28,3.26-5.78,5.46-7.5,6.61-1.72,1.15-3.24,1.73-4.56,1.73-1.62,0-2.9-.79-3.84-2.36-.95-1.57-1.43-3.87-1.45-6.9-1.87,3.03-3.9,5.33-6.1,6.9s-4.19,2.36-5.96,2.36c-1.94,0-3.65-.92-5.13-2.75-1.48-1.83-2.22-3.98-2.22-6.44,0-5.08,1.85-9.79,5.55-14.13,3.7-4.34,7.68-6.51,11.95-6.51,1.18,0,2.11,.17,2.79,.51s1.41,.92,2.21,1.74l4.89-20.44c3.99-.93,6.68-1.4,8.07-1.4,.46,0,.68,.18,.68,.55,0,.25-.57,2.61-1.71,7.08-4.55,17.87-6.83,28.64-6.83,32.33,0,.87,.18,1.56,.55,2.08,.36,.52,.84,.79,1.43,.79,1.46,0,3.86-1.89,7.2-5.67v3.93Zm-24.71,1.81c2.23,0,4.32-1.89,6.25-5.67,1.94-3.78,2.91-7.33,2.91-10.63,0-1.34-.3-2.41-.91-3.21-.6-.8-1.4-1.2-2.38-1.2-2.12,0-4.17,1.98-6.15,5.93s-2.97,7.53-2.97,10.71c0,1.25,.29,2.25,.87,2.97,.58,.73,1.37,1.09,2.38,1.09Z"/><path class="cls-1" d="M623.14,1836c1.57-.41,3.16-.75,4.75-1.01,1.59-.26,2.55-.39,2.87-.39,.23,0,.34,.09,.34,.27,0,.34-.09,.69-.27,1.06-.37,1.05-.55,2.05-.55,3.01,0,1.18,.69,2.8,2.05,4.85s2.05,3.96,2.05,5.71c0,3.49-1.67,6.85-5.01,10.08-3.34,3.24-6.8,4.85-10.37,4.85-1.55,0-2.96-.41-4.24-1.23-1.28-.82-1.91-1.7-1.91-2.63,0-.55,.63-1.58,1.9-3.11,1.26-1.53,2.17-2.29,2.72-2.29,.73,0,1.38,.93,1.95,2.8,.57,1.87,1.55,2.8,2.94,2.8s2.69-.64,3.91-1.93,1.83-2.67,1.83-4.15c0-1.44-.77-3.35-2.32-5.74s-2.58-4.4-3.08-6.01c-2.64,4.26-5.99,8.62-10.05,13.09h-.79v-3.08c5.58-5.95,9.34-11.6,11.28-16.95Z"/></g></g></g><g id="_반짝이"><polygon class="cls-7" points="776.75 571.63 793.29 635.83 846.57 649.02 793.29 663.48 776.75 728.87 759.32 663.48 706.93 649.02 759.32 635.83 776.75 571.63"/><polygon class="cls-6" points="276.78 912.36 287.85 955.29 323.48 964.11 287.85 973.79 276.78 1017.52 265.12 973.79 230.08 964.11 265.12 955.29 276.78 912.36"/><circle class="cls-7" cx="333.03" cy="911.23" r="10.77"/><circle class="cls-6" cx="350.77" cy="852.97" r="6.97"/><circle class="cls-6" cx="838.43" cy="711.57" r="10.57"/><circle class="cls-7" cx="818.61" cy="768.39" r="6.61"/><circle class="cls-7" cx="790.17" cy="912.17" r="9.83"/><circle class="cls-6" cx="747.5" cy="948.5" r="14.5"/><circle class="cls-7" cx="299" cy="660" r="9"/><circle class="cls-6" cx="326.5" cy="626.5" r="6.5"/></g><g id="_완드_ace"><path class="cls-7" d="M500.86,1114.79c-1.68,.17-3.32,.46-4.93,.82-4.14-14.16-17.89-23.81-33.09-22.23-1.63,.17-3.2,.5-4.73,.9-3.98-15.84-19.09-26.76-35.81-25.03-7.83,.81-14.73,4.27-19.94,9.39-2.99-22.38-23.25-38.47-45.86-36.12-20.73,2.15-36.34,19.07-37.5,39.22-1.65,0-3.32,.07-5,.24-25.26,2.62-43.62,25.23-40.99,50.5,.69,6.64,2.77,12.79,5.91,18.22-11.35,6.07-18.49,18.57-17.08,32.16,1.86,17.93,17.91,30.95,35.84,29.09,7.74-.8,14.55-4.25,19.66-9.35,8.29,17.31,26.8,28.39,46.98,26.29,11.31-1.18,21.26-6.3,28.62-13.85,10.83,13.49,28.06,21.39,46.54,19.47,23.42-2.43,41.64-19.86,46.15-41.75,7.06,3.77,15.27,5.54,23.83,4.65,22.82-2.37,39.39-22.79,37.02-45.61-2.37-22.82-22.79-39.39-45.61-37.02Z"/><path class="cls-7" d="M733,1068.3c-1.5,.16-2.96,.41-4.39,.73-3.69-12.64-15.96-21.24-29.52-19.83-1.45,.15-2.85,.44-4.22,.8-3.55-14.13-17.03-23.88-31.95-22.33-6.98,.73-13.14,3.81-17.79,8.38-2.67-19.96-20.74-34.31-40.91-32.22-18.49,1.92-32.42,17.01-33.46,34.99-1.48,0-2.96,.06-4.46,.22-22.54,2.34-38.91,22.51-36.57,45.05,.62,5.92,2.47,11.41,5.27,16.26-10.12,5.41-16.49,16.56-15.23,28.69,1.66,15.99,15.97,27.61,31.97,25.95,6.9-.72,12.98-3.79,17.54-8.34,7.4,15.44,23.91,25.32,41.91,23.45,10.09-1.05,18.96-5.62,25.53-12.36,9.66,12.03,25.03,19.08,41.52,17.36,20.89-2.17,37.15-17.72,41.17-37.25,6.29,3.36,13.62,4.94,21.26,4.15,20.36-2.11,35.14-20.33,33.03-40.69-2.11-20.36-20.33-35.14-40.69-33.03Z"/><path class="cls-2" d="M483.79,596.54c5.28,22.54,8.55,36.5,20.74,48.47,18.26,17.93,51.48,26.44,77.08,24.2,33.23-2.9,52.28-23.78,55.98-43.2,3.92-20.59-11.19-30.21-8.56-49.23,2-14.45,13.92-32.04,57.06-46.23-8.07-1.93-21.58-4.35-37.03-3.01-22,1.9-35.31,10.3-40.89,14.41,4.19-7.38,7.96-17.26,8.21-29.54,.85-41.86-39.85-76.88-48.49-84.06,3.2,6.95,12.1,28.86,1.14,49.99-5.26,10.15-13.3,16.64-19.24,20.46-1.85-1.21-19.37-13-20.38-29.53-.72-11.79,7.41-18.66,9.71-20.46-4.43,1.01-9.26,2.64-13.81,5.31-18.82,11.04-18.16,31.21-17.8,36.37-.43-1.63-2.86-10.12-13.09-16.66-7.07-4.52-14.1-5.7-16.89-6.05,2.87,4.6,6.77,11.71,9.35,20.45,1.92,6.52,3.48,15.24-.37,40.9-3.71,24.8-6.91,28.32-6.22,43.94,.46,10.36,2.3,18.35,3.5,23.48Z"/><path class="cls-3" d="M538.5,538.5c-12.09-.17-21.02,5.8-24,8-3.09,2.29-10.48,7.75-13,17-1.89,6.92,.03,12.02,2,20,2.82,11.41,0,5.42,5,39,4.21,28.28,5.3,26.41,6,38,.87,14.43-1.01,14.22-1,35,0,17.63,1.36,21.92,2,43,.44,14.41,.22,25.99,0,33-4.93-2.31-10.36-5.24-16-9-10.47-6.98-18.33-14.56-24-21-4.67,3.67-9.33,7.33-14,11,2.34,3.53,5.91,9.06,10,16,10.92,18.53,13.6,26.87,21,39,4.32,7.08,11.24,17.08,22,28-.25,2.35-.61,5.81-1,10-.65,6.93-.97,10.39-1,12-.14,7.88,1.41,9.19,2,19,.19,3.24,.13,6.16,0,12-.25,11.27-.91,13.38-1,21-.09,7.66,.55,7.44,1,19,.26,6.76,.58,14.78,0,23-.41,5.79-1.03,8.46-5,27-4.29,20.03-6.45,30.13-7,34-1.73,12.22-.76,12.57-3,28-2.04,14.03-3.78,20.18-5,24-2.88,9-4.01,8.67-5,14-1.34,7.23,0,11.9,3,26,3.15,14.76,4.72,22.14,5,26,.67,9.31-.91,8.23-2,29-.8,15.22-.1,18.7-2,28-1.17,5.73-1.79,6.14-5,17-2.76,9.36-5.8,19.65-8,32-2.77,15.6-.21,12.01-3,32-.89,6.35-2.37,15.45,2,25,.39,.85,.75,1.54,1,2,3.89,1.03,9.79,2.2,17,2,5.52-.15,12.78-.35,19-4,5.64-3.31,9.83-9.1,14-23,5.24-17.44,5.47-31.06,6-41,.11-2.1,2.74-20.06,8-56,7.16-48.93,7.71-48.2,8-58,.59-20.19-1.68-25.53,2-40,3.6-14.16,8.31-19.03,10-32,1.77-13.63-1.21-25.3-4-33,3.12-3.45,7.17-8.76,10-16,5.16-13.23,2.46-23.29,1-40-.45-5.17-2.19-27.02,1-51,2.89-21.73,6.36-19.19,9-42,1.32-11.42,1.32-19.5,7-29,1.5-2.5,4.66-6.67,11-15,6.77-8.91,8.76-11,11-16,.43-.96,6.31-14.36,2-18-1.12-.95-2.65-1-3-1-2.81-.02-4.61,2.44-7,5-4.29,4.59-3.98,2.53-12,10-1.85,1.73-4.28,4.08-7,7,.13-4.55,.24-11.5,0-20-.27-9.82-.53-19.1-2-31-1.48-12.05-2.96-16.69-2-26,.59-5.7,1.06-9.84,4-14,4.44-6.29,10.34-6.75,11-11,.34-2.15-.61-5.67-8-11,.53-5.19,.29-9.31,0-12-.89-8.32-3.12-11.47-2-18,.31-1.83,.87-4.9,3-8,3.65-5.31,8.93-5.37,14-8,10.5-5.45,14-18.3,15-22,4.07-14.96-2.24-27.5-4-31-3.22-6.41-8.48-11.27-19-21-7.3-6.75-14.33-13.19-25-20-13.44-8.58-20.15-12.86-30-13Z"/><path class="cls-4" d="M467.19,733c2.21-2.43,11.47-13.16,10.93-28.88-.79-22.88-21.61-34.57-22.63-35.12-2.53,2.42-8.38,8.66-10.93,18.73-.86,3.42-2.55,12.02,.78,21.85,5.32,15.71,19.26,22.25,21.85,23.41Z"/><path class="cls-4" d="M623.07,777.53c3.01,.61,16.1,2.93,28.5-5.04,18.05-11.6,17.5-33.98,17.45-35.07-3.17-.88-10.99-2.6-20.33,.17-3.17,.94-10.91,3.71-17.23,11.1-10.11,11.81-8.7,26.18-8.39,28.83Z"/><path class="cls-4" d="M483.85,1043.18c.4-3.05,1.78-16.27-7.05-28.08-12.85-17.18-35.13-15.04-36.22-14.92-.65,3.22-1.82,11.15,1.62,20.27,1.16,3.09,4.47,10.62,12.3,16.4,12.5,9.25,26.73,6.82,29.35,6.33Z"/><path class="cls-4" d="M450.9,735.46c-1.85-3.77-10.25-19.88-29.22-26.66-27.61-9.87-51.38,9.39-52.53,10.35,1.69,4.16,6.35,14.07,17.14,21.87,3.66,2.64,13.11,8.72,26.39,9.4,21.22,1.1,35.61-12.41,38.21-14.95Z"/></g></svg>