<?xml version="1.0" encoding="UTF-8"?><svg xmlns="http://www.w3.org/2000/svg" viewBox="0 0 1080 1944"><defs><style>.cls-1{fill:#fff;}.cls-2{stroke:#3f3730;stroke-miterlimit:10;stroke-width:5px;}.cls-2,.cls-3{fill:#3f3730;}.cls-4{fill:#f6ef84;}.cls-5{fill:#bad6eb;}.cls-6{fill:#c8c0de;}.cls-7{fill:#b1d4f0;}</style></defs><g id="_배경_텍스트"><g><rect class="cls-5" width="1080" height="1944"/><rect class="cls-1" x="74.84" y="186.39" width="930.33" height="1606.64" rx="65.21" ry="65.21"/><path class="cls-2" d="M510.48,1608.73c-.64-1.68-1.24-3.06-1.8-4.14-.56-1.08-1.24-1.94-2.04-2.58-.8-.64-1.72-1.12-2.76-1.44-1.04-.32-2.32-.52-3.84-.6-1.28-.16-1.92-.8-1.92-1.92,0-.48,.14-.9,.42-1.26,.28-.36,.74-.54,1.38-.54h26.76c.64,0,1.12,.2,1.44,.6,.32,.4,.48,.8,.48,1.2,0,.48-.16,.9-.48,1.26-.32,.36-.8,.58-1.44,.66-2.16,.16-3.9,.34-5.22,.54-1.32,.2-2.22,.74-2.7,1.62-.32,.64-.44,1.44-.36,2.4,.08,.96,.4,2.24,.96,3.84l22.08,62.76,23.04-63.36c.56-1.68,.78-3,.66-3.96-.12-.96-.52-1.72-1.2-2.28-.68-.56-1.6-.92-2.76-1.08-1.16-.16-2.5-.32-4.02-.48-.64-.08-1.12-.3-1.44-.66-.32-.36-.48-.78-.48-1.26,0-.4,.14-.8,.42-1.2,.28-.4,.74-.6,1.38-.6h22.92c.64,0,1.12,.2,1.44,.6,.32,.4,.48,.8,.48,1.2,0,1.04-.64,1.68-1.92,1.92-1.6,.24-2.92,.5-3.96,.78-1.04,.28-1.9,.7-2.58,1.26-.68,.56-1.3,1.38-1.86,2.46-.56,1.08-1.16,2.5-1.8,4.26l-27.48,74.64h-5.04l-26.76-74.64Z"/><g><path class="cls-1" d="M410.88,142.03c-5.1,5.49-9.75,8.24-13.95,8.24-2.55,0-4.5-1.23-5.83-3.69-1.33-2.46-2-5.75-2-9.88,0-3.19,.65-7.58,1.96-13.16,1.31-5.58,3-10.28,5.08-14.08l1.98-3.55c-2.71,2.83-4.93,5.92-6.67,9.28-1.73,3.36-3.8,8.06-6.2,14.1-2.4,6.04-4.22,10.15-5.45,12.34s-2.41,3.97-3.54,5.35c-1.13,1.38-2.13,2.27-3.01,2.68-.88,.41-2.41,.62-4.6,.62-.84,0-1.26-.23-1.26-.68,0-.05,.15-.76,.45-2.15,.3-1.39,.61-3.62,.92-6.68s.54-8.27,.68-15.62,1.21-13.64,3.21-18.88c-2.14,2.44-4.33,8.11-6.57,17.02l-.86,3.35c-2.35,9.27-5.04,15.53-8.08,18.78-3.03,3.25-6.01,4.87-8.93,4.87-1.8,0-3.39-.57-4.76-1.71-1.37-1.14-2.05-2.45-2.05-3.93,0-1.14,.82-2.41,2.46-3.83,1.64-1.41,2.68-2.12,3.11-2.12,.5,0,.83,.17,.99,.51,.16,.34,.37,1.28,.62,2.82s.63,2.54,1.15,3.01c.51,.47,1.16,.7,1.94,.7,1.76,0,3.7-1.76,5.83-5.28s4.07-8.96,5.83-16.32l.99-4.13c.8-3.37,1.59-6.06,2.37-8.07,.78-2.01,1.8-4.01,3.08-6.02,1.85-2.87,2.99-4.4,3.41-4.6,.42-.19,1.21-.35,2.38-.48s2.32-.19,3.49-.19c.46,0,.68,.26,.68,.79,0,.25-.07,.76-.21,1.54-.45,3.19-.66,6.39-.64,9.6l.07,9.16c.04,7.98-.59,14.41-1.91,19.31,1.21-1.46,2.96-5.22,5.26-11.28,3.33-8.59,6.36-15.04,9.09-19.35,1.3-2.07,2.87-4.06,4.7-5.96,1.83-1.9,3.1-2.92,3.81-3.06,2.42-.46,4.45-.68,6.12-.68,.62,0,.92,.17,.92,.51,0,.48-.38,1.55-1.12,3.21-1.77,4.01-3.43,9.44-4.96,16.27s-2.31,12.28-2.32,16.33c0,4.58,1.4,6.87,4.2,6.87,2.28,0,4.99-1.94,8.13-5.81v3.93Z"/><path class="cls-1" d="M427.66,142.03c-5.33,5.61-9.32,8.41-11.96,8.41-1.46,0-2.69-.75-3.69-2.24-1-1.49-1.5-3.37-1.5-5.62,0-4.85,1.64-11.57,4.92-20.17l8.68-1.81h.41l-3.42,10.7c-1.41,4.42-2.12,7.58-2.12,9.47,0,.75,.17,1.36,.5,1.83,.33,.47,.75,.7,1.25,.7,.89,0,1.78-.33,2.68-.97s2.32-2.06,4.26-4.22v3.93Zm-.68-34.79c0,5.47-2.02,8.2-6.05,8.2-1.96,0-3.63-.59-5.02-1.78,1.32-2,2.35-4.26,3.08-6.77,1.8,1.12,3.25,1.68,4.34,1.68,1.23,0,2.45-.45,3.66-1.33Z"/><path class="cls-1" d="M461.22,142.03c-5.26,5.56-9.78,8.34-13.54,8.34-1.53,0-2.76-.54-3.69-1.61-.93-1.07-1.4-2.51-1.4-4.31,0-2.44,1-6.16,3.01-11.18,1.07-2.69,1.61-4.4,1.61-5.13s-.29-1.09-.85-1.09c-.32,0-.74,.16-1.26,.48-.48,.32-1.04,.76-1.67,1.33-.57,.52-1.21,1.16-1.91,1.91-.62,.64-1.28,1.37-1.98,2.19l-1.91,2.22c-.84,1.03-1.37,2.11-1.57,3.25-.34,1.94-.57,3.71-.68,5.33-.07,1.21-.1,2.84-.1,4.89l-7.55,1.78c-.25-3.08-.38-5.37-.38-6.87,0-3.67,.43-7.14,1.28-10.43,.86-3.28,2.23-6.97,4.12-11.07l8.34-1.61c-1.75,4.72-2.91,8.43-3.45,11.14,3.73-4.17,6.7-7.06,8.89-8.67,2.19-1.61,4.15-2.41,5.85-2.41,1.16,0,2.13,.44,2.9,1.31,.77,.88,1.16,1.97,1.16,3.29,0,2.18-.98,5.78-2.94,10.8-1.34,3.44-2.02,5.68-2.02,6.7,0,1.37,.56,2.06,1.68,2.06,1.67,0,4.36-2.2,8.09-6.6v3.93Z"/><path class="cls-1" d="M491.88,142.03c-1.16,1.03-2.29,1.75-3.38,2.17-1.09,.42-1.96,.63-2.6,.63-1.64,0-3.27-.64-4.89-1.91-3.28,4.97-7.04,7.45-11.28,7.45-2.64,0-4.79-.99-6.43-2.97s-2.46-4.62-2.46-7.9c0-5.2,1.85-9.66,5.54-13.38s8.1-5.59,13.23-5.59c1.94,0,3.35,.21,4.25,.63,.9,.42,1.45,.92,1.66,1.49,.21,.57,.31,1.29,.31,2.15,0,4.26-1.16,9.49-3.49,15.69,1.16,1.07,2.38,1.61,3.66,1.61,1.53,0,3.49-1.33,5.88-4v3.93Zm-11.28-19.11c-.34-.14-.83-.21-1.47-.21-2.96,0-5.28,1.55-6.96,4.65-1.67,3.1-2.51,6.72-2.51,10.87,0,2.3,.36,4.09,1.09,5.37,.73,1.28,1.74,1.91,3.04,1.91,1.62,0,3.37-1.49,5.26-4.48-2.14-2.69-3.21-5.58-3.21-8.68,0-3.65,1.58-6.79,4.75-9.43Z"/><path class="cls-1" d="M517.42,142.03c-5.72,5.61-10.13,8.41-13.23,8.41-1.39,0-2.56-.59-3.52-1.76s-1.44-2.63-1.44-4.36c0-3.21,1.72-7.52,5.16-12.92-1.69,.87-3.53,1.47-5.54,1.81-1.48,2.73-3.81,5.67-6.97,8.82h-.79v-3.08c1.78-1.85,3.38-3.83,4.82-5.95-1.96-.87-2.94-2.15-2.94-3.86s.6-3.63,1.79-5.62c1.2-1.99,2.84-2.99,4.94-2.99,1.78,0,2.67,.91,2.67,2.73,0,1.44-.51,3.49-1.54,6.15,3.78-.41,7.09-3.3,9.91-8.68l3.11-.14-3.18,8.75c-1.32,3.69-2.18,6.2-2.56,7.54-.39,1.33-.58,2.51-.58,3.54,0,.96,.22,1.72,.67,2.29,.44,.57,1.04,.86,1.79,.86,.82,0,1.61-.28,2.36-.84s2.44-2.1,5.06-4.63v3.93Z"/><path class="cls-1" d="M582.32,142.06c-5.24,5.58-10.05,8.37-14.42,8.37-2.42,0-4.33-.85-5.74-2.56-1.41-1.71-2.2-4.15-2.36-7.31-2.76,3.35-5.2,5.83-7.33,7.45-2.13,1.62-4.4,2.43-6.82,2.43-3.1,0-5.59-1.34-7.47-4.02-1.88-2.68-2.82-6.25-2.82-10.71,0-5.33,1.23-10.83,3.69-16.49s6.11-10.13,10.94-13.42c4.83-3.28,10.69-4.92,17.57-4.92,5.15,0,9.81,.7,13.98,2.09v2.26c-3.4,3.96-6.24,9.51-8.53,16.64-2.29,7.13-3.44,12.57-3.44,16.3,0,1.82,.37,3.24,1.11,4.24,.74,1,1.77,1.5,3.09,1.5,2.37,0,5.22-1.93,8.54-5.78v3.93Zm-9.95-36.85c-2.1-1.14-4.35-1.71-6.77-1.71-3.81,0-7.24,1.59-10.29,4.77-3.05,3.18-5.46,7.39-7.23,12.63-1.77,5.24-2.65,9.79-2.65,13.64,0,2.57,.5,4.67,1.49,6.27,.99,1.61,2.26,2.41,3.81,2.41,2.69,0,5.78-2.45,9.26-7.35,1.44-12.85,5.56-23.07,12.37-30.66Z"/><path class="cls-1" d="M607.85,142.03c-5.72,5.61-10.13,8.41-13.23,8.41-1.39,0-2.56-.59-3.52-1.76s-1.44-2.63-1.44-4.36c0-3.21,1.72-7.52,5.16-12.92-1.69,.87-3.53,1.47-5.54,1.81-1.48,2.73-3.81,5.67-6.97,8.82h-.79v-3.08c1.78-1.85,3.38-3.83,4.82-5.95-1.96-.87-2.94-2.15-2.94-3.86s.6-3.63,1.79-5.62c1.2-1.99,2.84-2.99,4.94-2.99,1.78,0,2.67,.91,2.67,2.73,0,1.44-.51,3.49-1.54,6.15,3.78-.41,7.09-3.3,9.91-8.68l3.11-.14-3.18,8.75c-1.32,3.69-2.18,6.2-2.56,7.54-.39,1.33-.58,2.51-.58,3.54,0,.96,.22,1.72,.67,2.29,.44,.57,1.04,.86,1.79,.86,.82,0,1.61-.28,2.36-.84s2.44-2.1,5.06-4.63v3.93Z"/><path class="cls-1" d="M633.42,142.03c-2.92,2.87-5.59,4.98-8.02,6.32-2.43,1.34-4.96,2.02-7.6,2.02-2.96,0-5.41-.96-7.33-2.89-1.93-1.92-2.89-4.37-2.89-7.33,0-4.85,1.77-9.34,5.31-13.45,3.54-4.11,7.38-6.17,11.5-6.17,2.03,0,3.68,.56,4.96,1.69,1.28,1.13,1.91,2.59,1.91,4.39,0,.64-.12,1.12-.36,1.44-.24,.32-.69,.64-1.35,.96l-3.96,1.88c-.48,.23-.83,.34-1.06,.34-.32,0-.48-.23-.48-.68,0-.18,.07-.78,.21-1.79,.14-1.01,.21-1.63,.21-1.86,0-1-.21-1.81-.63-2.43s-.99-.92-1.69-.92c-1.66,0-3.18,1.23-4.56,3.69-1.38,2.46-2.07,5.26-2.07,8.41,0,2.71,.65,4.88,1.95,6.49,1.3,1.62,3.03,2.43,5.2,2.43,1.85,0,3.58-.53,5.21-1.59s3.48-2.68,5.55-4.87v3.93Z"/><path class="cls-1" d="M669.92,142.03c-3.65,3.46-6.25,5.72-7.83,6.77-1.57,1.05-3.08,1.57-4.51,1.57-3.6,0-5.3-3.18-5.09-9.54-2.28,3.26-4.38,5.66-6.31,7.21-1.93,1.55-3.91,2.32-5.96,2.32s-3.71-.94-5.11-2.82c-1.4-1.88-2.1-4.19-2.1-6.92,0-3.42,.94-6.68,2.82-9.78,1.88-3.1,4.29-5.61,7.23-7.52s5.54-2.87,7.79-2.87c2.85,0,4.84,1.31,5.98,3.93l6.99-3.86h1.92l-3.01,10.01c-1.55,5.04-2.33,8.49-2.33,10.36,0,1.96,.69,2.94,2.08,2.94,.89,0,1.87-.47,2.94-1.42,1.07-.95,2.57-2.39,4.51-4.32v3.93Zm-25.02,1.88c2.28,0,4.43-1.94,6.44-5.83,2.02-3.88,3.02-7.47,3.02-10.75,0-1.28-.29-2.27-.85-2.99-.57-.72-1.33-1.08-2.29-1.08-2.28,0-4.44,1.94-6.48,5.81-2.04,3.87-3.06,7.44-3.06,10.7,0,1.23,.3,2.23,.91,2.99,.6,.76,1.37,1.15,2.31,1.15Z"/><path class="cls-1" d="M703.46,142.03c-5.26,5.56-9.78,8.34-13.54,8.34-1.53,0-2.76-.54-3.69-1.61-.93-1.07-1.4-2.51-1.4-4.31,0-2.44,1-6.16,3.01-11.18,1.07-2.69,1.61-4.4,1.61-5.13s-.29-1.09-.85-1.09c-.32,0-.74,.16-1.26,.48-.48,.32-1.04,.76-1.67,1.33-.57,.52-1.21,1.16-1.91,1.91-.62,.64-1.28,1.37-1.98,2.19l-1.91,2.22c-.84,1.03-1.37,2.11-1.57,3.25-.34,1.94-.57,3.71-.68,5.33-.07,1.21-.1,2.84-.1,4.89l-7.55,1.78c-.25-3.08-.38-5.37-.38-6.87,0-3.67,.43-7.14,1.28-10.43,.86-3.28,2.23-6.97,4.12-11.07l8.34-1.61c-1.75,4.72-2.91,8.43-3.45,11.14,3.73-4.17,6.7-7.06,8.89-8.67,2.19-1.61,4.15-2.41,5.85-2.41,1.16,0,2.13,.44,2.9,1.31,.77,.88,1.16,1.97,1.16,3.29,0,2.18-.98,5.78-2.94,10.8-1.34,3.44-2.02,5.68-2.02,6.7,0,1.37,.56,2.06,1.68,2.06,1.67,0,4.36-2.2,8.09-6.6v3.93Z"/><path class="cls-1" d="M739.92,142.03c-3.65,3.46-6.25,5.72-7.83,6.77-1.57,1.05-3.08,1.57-4.51,1.57-3.6,0-5.3-3.18-5.09-9.54-2.28,3.26-4.38,5.66-6.31,7.21-1.93,1.55-3.91,2.32-5.96,2.32s-3.71-.94-5.11-2.82c-1.4-1.88-2.1-4.19-2.1-6.92,0-3.42,.94-6.68,2.82-9.78,1.88-3.1,4.29-5.61,7.23-7.52s5.54-2.87,7.79-2.87c2.85,0,4.84,1.31,5.98,3.93l6.99-3.86h1.92l-3.01,10.01c-1.55,5.04-2.33,8.49-2.33,10.36,0,1.96,.69,2.94,2.08,2.94,.89,0,1.87-.47,2.94-1.42,1.07-.95,2.57-2.39,4.51-4.32v3.93Zm-25.02,1.88c2.28,0,4.43-1.94,6.44-5.83,2.02-3.88,3.02-7.47,3.02-10.75,0-1.28-.29-2.27-.85-2.99-.57-.72-1.33-1.08-2.29-1.08-2.28,0-4.44,1.94-6.48,5.81-2.04,3.87-3.06,7.44-3.06,10.7,0,1.23,.3,2.23,.91,2.99,.6,.76,1.37,1.15,2.31,1.15Z"/></g><g><path class="cls-1" d="M472.58,1852.82c-4.1,7.7-8.57,11.55-13.4,11.55-2.53,0-4.56-.93-6.08-2.79s-2.29-4.31-2.29-7.37c0-3.55,1.27-8.96,3.81-16.2s3.81-12.37,3.81-15.38c0-1.34-.38-2.46-1.14-3.35s-1.71-1.33-2.85-1.33c-1.76,0-3.5,1.07-5.23,3.21-1.73,2.14-2.6,4.33-2.6,6.56,0,1.71,.78,3.49,2.32,5.33,.64,.78,.96,1.31,.96,1.61,0,.34-.49,1.11-1.47,2.29-.98,1.19-1.82,1.78-2.53,1.78-.75,0-1.61-.55-2.56-1.64s-1.44-2.72-1.44-4.89c0-4.4,1.54-8.4,4.63-12,3.09-3.6,6.5-5.4,10.24-5.4,2.8,0,5.17,1.16,7.11,3.48,1.94,2.32,2.9,5.21,2.9,8.67-.03,3.64-1.21,8.8-3.54,15.47-2.33,6.67-3.48,11.13-3.47,13.39,0,1.07,.27,1.92,.82,2.55,.55,.63,1.28,.94,2.19,.94,1.98,0,3.95-1.62,5.91-4.85,1.96-3.23,3.75-7.87,5.37-13.91l3.21-12.03c1.25-4.74,2.65-8.88,4.2-12.41,.16-.39,1.22-.69,3.19-.91,1.97-.22,3.4-.33,4.29-.33s1.33,.18,1.33,.54l-6.27,23.86c-1.79,7-2.68,12.11-2.68,15.35,0,1.41,.3,2.54,.89,3.37s1.39,1.25,2.39,1.25c1.48,0,3.5-1.21,6.07-3.64,2.56-2.43,4.72-5.53,6.48-9.3,1.75-3.77,2.63-7.63,2.63-11.57,0-4.22-1.03-8.41-3.08-12.58-.57-1.21-.85-1.96-.85-2.26,0-.98,.94-2.06,2.82-3.25,1.88-1.18,3.23-1.78,4.05-1.78,.78,0,1.56,1.03,2.34,3.09,.79,2.06,1.18,4.22,1.18,6.48,0,5.99-1.4,12.13-4.21,18.41s-6.29,11.43-10.46,15.47-7.94,6.05-11.31,6.05c-2.39,0-4.29-.96-5.69-2.89-1.4-1.92-2.07-4.81-2-8.67Z"/><path class="cls-1" d="M542.65,1856.03c-3.65,3.46-6.25,5.72-7.83,6.77-1.57,1.05-3.08,1.57-4.51,1.57-3.6,0-5.3-3.18-5.09-9.54-2.28,3.26-4.38,5.66-6.31,7.21-1.93,1.55-3.91,2.32-5.96,2.32s-3.71-.94-5.11-2.82c-1.4-1.88-2.1-4.19-2.1-6.92,0-3.42,.94-6.68,2.82-9.78,1.88-3.1,4.29-5.61,7.23-7.52s5.54-2.87,7.79-2.87c2.85,0,4.84,1.31,5.98,3.93l6.99-3.86h1.92l-3.01,10.01c-1.55,5.04-2.33,8.49-2.33,10.36,0,1.96,.7,2.94,2.08,2.94,.89,0,1.87-.47,2.94-1.42,1.07-.95,2.57-2.39,4.51-4.32v3.93Zm-25.02,1.88c2.28,0,4.43-1.94,6.44-5.83,2.02-3.88,3.03-7.47,3.03-10.75,0-1.28-.29-2.27-.86-2.99s-1.33-1.08-2.29-1.08c-2.28,0-4.44,1.94-6.48,5.81-2.04,3.87-3.06,7.44-3.06,10.7,0,1.23,.3,2.23,.91,2.99,.6,.76,1.37,1.15,2.31,1.15Z"/><path class="cls-1" d="M576.18,1856.03c-5.26,5.56-9.78,8.34-13.54,8.34-1.53,0-2.76-.54-3.69-1.61-.94-1.07-1.4-2.51-1.4-4.31,0-2.44,1-6.16,3.01-11.18,1.07-2.69,1.61-4.4,1.61-5.13s-.29-1.09-.86-1.09c-.32,0-.74,.16-1.26,.48-.48,.32-1.04,.76-1.68,1.33-.57,.52-1.21,1.16-1.91,1.91-.62,.64-1.28,1.37-1.98,2.19l-1.91,2.22c-.84,1.03-1.37,2.11-1.57,3.25-.34,1.94-.57,3.71-.68,5.33-.07,1.21-.1,2.84-.1,4.89l-7.55,1.78c-.25-3.08-.38-5.37-.38-6.87,0-3.67,.43-7.14,1.28-10.43,.86-3.28,2.23-6.97,4.12-11.07l8.34-1.61c-1.76,4.72-2.91,8.43-3.45,11.14,3.73-4.17,6.7-7.06,8.89-8.67s4.15-2.41,5.85-2.41c1.16,0,2.13,.44,2.9,1.31,.77,.88,1.16,1.97,1.16,3.29,0,2.18-.98,5.78-2.94,10.8-1.35,3.44-2.02,5.68-2.02,6.7,0,1.37,.56,2.06,1.68,2.06,1.67,0,4.36-2.2,8.09-6.6v3.93Z"/><path class="cls-1" d="M612.65,1856.03c-3.28,3.26-5.78,5.46-7.5,6.61s-3.24,1.73-4.56,1.73c-1.62,0-2.9-.79-3.85-2.36s-1.43-3.87-1.45-6.9c-1.87,3.03-3.9,5.33-6.1,6.9s-4.19,2.36-5.96,2.36c-1.94,0-3.65-.92-5.13-2.75-1.48-1.83-2.22-3.98-2.22-6.44,0-5.08,1.85-9.79,5.55-14.13s7.68-6.51,11.95-6.51c1.19,0,2.11,.17,2.79,.51s1.41,.92,2.21,1.74l4.89-20.44c3.99-.93,6.68-1.4,8.07-1.4,.46,0,.68,.18,.68,.55,0,.25-.57,2.61-1.71,7.08-4.55,17.87-6.83,28.64-6.83,32.33,0,.87,.18,1.56,.55,2.08,.36,.52,.84,.79,1.43,.79,1.46,0,3.86-1.89,7.2-5.67v3.93Zm-24.71,1.81c2.23,0,4.32-1.89,6.25-5.67,1.94-3.78,2.91-7.33,2.91-10.63,0-1.34-.3-2.41-.91-3.21-.6-.8-1.4-1.2-2.38-1.2-2.12,0-4.17,1.98-6.15,5.93s-2.97,7.53-2.97,10.71c0,1.25,.29,2.25,.87,2.97,.58,.73,1.37,1.09,2.38,1.09Z"/><path class="cls-1" d="M623.14,1836c1.57-.41,3.15-.75,4.75-1.01s2.55-.39,2.87-.39c.23,0,.34,.09,.34,.27,0,.34-.09,.69-.27,1.06-.37,1.05-.55,2.05-.55,3.01,0,1.18,.69,2.8,2.05,4.85s2.05,3.96,2.05,5.71c0,3.49-1.67,6.85-5.01,10.08-3.34,3.24-6.8,4.85-10.38,4.85-1.55,0-2.96-.41-4.24-1.23s-1.91-1.7-1.91-2.63c0-.55,.63-1.58,1.9-3.11,1.26-1.53,2.17-2.29,2.72-2.29,.73,0,1.38,.93,1.95,2.8,.57,1.87,1.55,2.8,2.94,2.8s2.7-.64,3.91-1.93,1.83-2.67,1.83-4.15c0-1.44-.77-3.35-2.32-5.74-1.55-2.39-2.58-4.4-3.08-6.01-2.64,4.26-5.99,8.62-10.05,13.09h-.79v-3.08c5.58-5.95,9.34-11.6,11.28-16.95Z"/></g></g></g><g id="_반짝이"><polygon class="cls-7" points="430.75 513 443.57 562.76 484.86 572.98 443.57 584.19 430.75 634.87 417.24 584.19 376.64 572.98 417.24 562.76 430.75 513"/><polygon class="cls-6" points="765.75 1066 776.05 1105.96 809.21 1114.17 776.05 1123.17 765.75 1163.87 754.9 1123.17 722.29 1114.17 754.9 1105.96 765.75 1066"/><circle class="cls-6" cx="394" cy="648" r="11"/><circle class="cls-7" cx="407" cy="728" r="8"/><circle class="cls-6" cx="261.5" cy="871.5" r="10.5"/><circle class="cls-6" cx="322.5" cy="1162.5" r="16.5"/><circle class="cls-7" cx="270.5" cy="1111.5" r="12.5"/><circle class="cls-6" cx="737" cy="1202" r="11"/><circle class="cls-7" cx="634.5" cy="1137.5" r="9.5"/><circle class="cls-6" cx="867" cy="777" r="11"/><circle class="cls-7" cx="866.5" cy="839.5" r="7.5"/><path class="cls-4" d="M686.28,634.52c-6.3,13.57-10.21,21.97-17.98,26.97-11.64,7.48-28.75,5.25-40.45-2.25-15.18-9.73-20.64-27.94-19.1-41.58,1.63-14.46,10.39-17.22,12.36-30.34,1.5-9.96-1.15-24.34-19.1-43.82,4.14,.63,10.91,2.22,17.98,6.74,10.06,6.43,14.92,15.08,16.86,19.1-.73-5.84-.83-13.22,1.12-21.35,6.68-27.71,31.79-41.14,37.08-43.82-2.68,3.82-10.59,16.12-8.99,32.59,.77,7.91,3.46,14.07,5.62,17.98,1.08-.36,11.34-3.98,14.61-14.61,2.33-7.58-.34-14.01-1.12-15.73,1.92,1.71,3.92,3.92,5.62,6.74,7.01,11.69,3.29,24.79,2.25,28.09,.48-.97,3.06-5.98,8.99-7.87,4.1-1.31,7.62-.42,8.99,0-2.13,2.35-5.18,6.1-7.87,11.24-2.01,3.83-4.22,9.19-6.74,26.97-2.44,17.18-1.53,20.24-4.49,30.34-1.97,6.7-4.19,11.52-5.62,14.61Z"/></g><g id="_완드_5"><path class="cls-3" d="M732.06,753.46c4.25-10.37,5.45-13.69,3.9-16.89-1.63-3.37-4.55-2.92-13.12-7.35-11.72-6.05-11.96-9.83-17.03-9.69-6.46,.18-11.61,6.46-17.13,13.21-4.85,5.92-5.17,8.65-10.63,13.91-3.69,3.56-5.9,4.58-9.87,7.43-13.21,9.46-12.21,14.94-21.04,20.48-8.8,5.52-12.57,1.83-26.57,5.94-9.18,2.69-16.21,6.81-27.11,14.7-24.81,17.94-45.37,37.78-50.65,42.76-14.48,13.67-31.96,24.38-66.91,45.81-36.71,22.51-48.07,25.57-112.79,61.52-12.75,7.08-18.03,10.14-28.85,15.79-21.02,10.98-28.35,13.66-44.68,23.37-7.84,4.66-7.72,4.97-20.82,13.13-16.6,10.34-23.09,12.02-35.25,21.03-7.79,5.77-6.45,5.82-13.66,11.02-9.96,7.17-14.96,8.84-31.45,17.43-24.88,12.97-30.82,18.21-35.35,24.7-1.1,1.58-8.61,12.34-5.31,16.57,2.23,2.86,8.47,1.57,12.47,.55,27.63-7.06,59.83-29.88,70.06-36.98,9.83-6.82,23.99-16.59,43.38-27.36,32.15-17.86,31.75-12.4,57.59-27.91,19.2-11.52,27.54-19.41,44.03-20.56,9.16-.64,12.73,1.37,21.04-1.25,12.79-4.03,17.2-12.83,28.2-22.59,10.24-9.09,13.41-7.6,34.92-19.62,16.81-9.39,16.92-11.29,43.71-28.77,13.63-8.89,31.34-20.45,54.33-33.07,33.86-18.59,33.86-14.61,48.15-25.56,13.24-10.15,19.62-18.44,36.22-25.25,5.84-2.39,7.92-2.54,21.8-7.74,14.1-5.28,21.16-7.92,27-11.02,9.82-5.21,24.1-12.78,33.19-28.14,.65-1.1,3.18-7.27,8.24-19.62Z"/><path class="cls-3" d="M837.77,647.6c4.87-1.32,10.12,.88,12.8,4.34,2.01,2.6,2.34,5.58,2.13,18.01-.2,12.51-.31,18.76-.8,20.5-1.32,4.69-3.37,8.4-17.46,27.02-4.93,6.52-7.4,9.77-12.08,15.71-15.74,19.98-18.71,31.97-31.17,52.12-7.91,12.78-8.27,10.47-31.3,40-14.18,18.18-28.26,36.23-43.14,58.88-16.5,25.12-14.82,26.7-38.79,64.89-11.52,18.35-18.61,29.59-29.42,44.31-16.9,23.01-23.42,27.99-39.28,48.02-14.7,18.57-14.89,21.6-44.19,65.67-24.21,36.41-36.31,54.62-51.34,74.26-28.73,37.53-32.6,35.87-52.76,65.76-10.83,16.06-24,30.76-33.06,47.81-4.52,8.52-9.72,19.59-20.63,26.33-1.16,.72-13.61,8.22-19.25,3.23-5.07-4.49-1.48-16.29-.02-21.07,4.16-13.67,11.9-22.28,19.45-31.65,20.95-25.98,16.16-27.64,38.68-55.95,12.34-15.52,19.53-22.25,28.03-31.74,21.7-24.25,27-38.65,55.79-87.72,37.37-63.7,56.09-95.62,79.58-123.89,12.01-14.46,21-22.82,28.96-40.12,6.61-14.38,7.96-25.02,19.1-36.41,4.77-4.88,7.57-6.05,16.07-14.45,7.56-7.47,12.72-13.85,16.53-18.64,27.44-34.44,41.15-54.24,41.15-54.24,25.09-36.24,20.98-34.29,42.66-65.22,27.17-38.75,28.88-35.06,38.1-53.34,10.72-21.26,15.11-39.53,25.67-42.39Z"/><path class="cls-3" d="M755.9,531.89c-2.33-2.75-7.66-8.86-16.54-9.93-5.68-.68-13.91,.56-18.16,5.43-3.18,3.65-3.54,8.64,3.49,30.46,4.42,13.74,8.17,22.97,11.85,32.9,4.33,11.68,7.04,20.23,10.21,30.2,8.33,26.22,13.13,46.73,14.23,51.53,2.69,11.64,4.84,23.92,9.14,48.47,3.73,21.29,5.55,32.9,8.96,53.52,2.71,16.35,6.31,37.81,10.79,63.22,8.14,46.13,9.25,48.61,11.34,66.13,2.85,23.81,1.31,23.5,4.24,52.41,1.93,19.01,4.67,36.73,10.08,71.38,6.93,44.45,7.98,46.49,10.98,70.21,4.35,34.41,6.53,51.61,5.52,59.19-3.49,26.11-2.3,35.47,.06,54.2,.43,3.41,1.46,10.48,6.92,12.75,4.47,1.86,10.5-.1,14.17-2.67,8.71-6.12,7.92-18.42,7.78-30.58-.4-33.99,4.8-25.04,3.39-53.85-1.16-23.68-4.93-34.76-14.26-75.62-9.82-42.98-14.73-64.47-16.99-84.13-4.37-37.9,.81-39.45-2.82-80.78-1.61-18.35-3.13-23.72-16.09-91.33-4.81-25.11-11.93-62.2-18.83-99.85-5.93-32.34-16.81-64.02-18.28-96.94,0,0-2.41-54.14-21.16-76.32Z"/><path class="cls-3" d="M634.46,609.82c2.25-2.82,7.4-9.08,16.26-10.4,5.66-.84,13.92,.17,18.31,4.92,3.29,3.56,3.78,8.54-2.62,30.55-4.03,13.86-7.51,23.19-10.91,33.23-4,11.8-6.47,20.42-9.35,30.48-7.58,26.45-11.79,47.09-12.76,51.91-2.36,11.71-4.16,24.05-7.76,48.71-3.13,21.39-4.61,33.04-7.44,53.76-2.24,16.42-5.24,37.97-9,63.5-6.83,46.35-7.86,48.86-9.46,66.42-2.17,23.88-.64,23.52-2.75,52.51-1.39,19.06-3.63,36.85-8.05,71.64-5.67,44.63-6.66,46.7-8.99,70.49-3.38,34.52-5.07,51.77-3.84,59.33,4.23,26,3.31,35.39,1.47,54.18-.33,3.42-1.16,10.52-6.55,12.94-4.42,1.98-10.5,.2-14.24-2.27-8.88-5.87-8.44-18.19-8.64-30.35-.57-33.99-5.51-24.9-4.92-53.73,.49-23.7,3.94-34.89,12.11-75.99,8.6-43.24,12.89-64.87,14.6-84.58,3.29-38.01-1.93-39.41,.53-80.83,1.09-18.39,2.46-23.8,13.5-91.75,4.1-25.24,10.16-62.51,15.99-100.34,5.01-32.5,14.99-64.47,15.52-97.42,0,0,.88-54.19,18.99-76.89Z"/><path class="cls-3" d="M266.87,551c2.53-3.73,7.78-5.82,12.08-5.65,3.23,.13,5.53,1.51,14.04,8.25,8.55,6.77,12.82,10.16,13.69,11.39,2.32,3.32,3.46,6.56,6.42,25.22,1.04,6.53,1.56,9.79,2.37,15.86,2.74,20.41,8.98,28.62,14.17,47.08,3.29,11.71,1.42,10.7,5.65,40.72,2.6,18.48,5.18,36.82,10.39,58.11,5.78,23.61,8.08,23.4,17.65,58.6,4.6,16.91,7.4,27.3,9.98,41.84,4.03,22.74,2.88,29.43,5.57,49.94,2.5,19.01,4.47,20.74,14.37,62.37,8.18,34.4,12.26,51.6,15.28,71.38,5.76,37.81,1.85,39.34,8.36,67.75,3.5,15.27,4.39,31.27,9.84,45.96,2.72,7.34,6.74,16.45,3.69,26.82-.32,1.1-3.92,12.83-11.39,13.69-6.71,.77-12.37-7.74-14.66-11.18-6.56-9.85-7.07-19.24-8.23-28.92-3.23-26.83-7.77-24.74-11.51-53.78-2.05-15.92-1.64-23.97-2.23-34.29-1.49-26.38-7.75-37.33-21.49-81.3-17.83-57.08-26.77-85.69-29.79-115.32-1.55-15.15-1-25.18-7.39-39.32-5.31-11.75-11.76-18.24-11.79-31.22-.01-5.56,1.16-7.92,1.33-17.67,.15-8.67-.62-15.27-1.25-20.18-4.51-35.36-8.58-54.41-8.58-54.41-7.44-34.86-8.99-31.27-15.14-61.19-7.71-37.49-3.93-36.59-10.11-52.04-7.19-17.96-16.78-30.4-11.3-38.49Z"/></g></svg>