<?xml version="1.0" encoding="UTF-8"?><svg xmlns="http://www.w3.org/2000/svg" viewBox="0 0 1080 1944"><defs><style>.cls-1{fill:#fff;}.cls-2{stroke:#3f3730;stroke-miterlimit:10;stroke-width:5px;}.cls-2,.cls-3{fill:#3f3730;}.cls-4{fill:#f6ef84;}.cls-5{fill:#4c5fa9;}.cls-6{fill:#bad6eb;}.cls-7{fill:#c8c0de;}.cls-8{fill:#b1d4f0;}</style></defs><g id="_배경_텍스트"><g><rect class="cls-6" width="1080" height="1944"/><rect class="cls-1" x="74.84" y="186.39" width="930.33" height="1606.64" rx="65.21" ry="65.21"/><path class="cls-2" d="M499.92,1608.73c-.96-3.36-2.18-5.62-3.66-6.78-1.48-1.16-3.74-1.82-6.78-1.98-1.28-.16-1.92-.8-1.92-1.92,0-.48,.14-.9,.42-1.26,.28-.36,.74-.54,1.38-.54h26.76c.64,0,1.12,.2,1.44,.6,.32,.4,.48,.8,.48,1.2,0,.48-.16,.9-.48,1.26-.32,.36-.8,.58-1.44,.66-2.16,.16-3.9,.34-5.22,.54-1.32,.2-2.22,.74-2.7,1.62-.32,.64-.4,1.42-.24,2.34,.16,.92,.44,2.22,.84,3.9l15.96,61.32,17.16-61.92c.48-1.68,.64-3.02,.48-4.02-.16-1-.56-1.76-1.2-2.28-.64-.52-1.52-.86-2.64-1.02-1.12-.16-2.44-.32-3.96-.48-.64-.08-1.12-.3-1.44-.66-.32-.36-.48-.78-.48-1.26,0-.4,.14-.8,.42-1.2,.28-.4,.74-.6,1.38-.6h22.92c.64,0,1.12,.2,1.44,.6,.32,.4,.48,.8,.48,1.2,0,1.04-.64,1.68-1.92,1.92-1.6,.24-2.94,.48-4.02,.72-1.08,.24-1.98,.66-2.7,1.26-.72,.6-1.34,1.42-1.86,2.46-.52,1.04-1.06,2.48-1.62,4.32l-21.48,74.64h-5.04l-20.76-74.64Zm81.6,60.84c0,1.92,.2,3.46,.6,4.62,.4,1.16,.98,2.04,1.74,2.64,.76,.6,1.72,1.02,2.88,1.26,1.16,.24,2.5,.44,4.02,.6,.56,.08,.96,.3,1.2,.66,.24,.36,.36,.74,.36,1.14s-.14,.78-.42,1.14c-.28,.36-.74,.54-1.38,.54h-26.52c-.64,0-1.1-.18-1.38-.54-.28-.36-.42-.74-.42-1.14s.12-.78,.36-1.14c.24-.36,.64-.58,1.2-.66,1.52-.16,2.84-.36,3.96-.6,1.12-.24,2.08-.66,2.88-1.26,.8-.6,1.4-1.48,1.8-2.64,.4-1.16,.6-2.7,.6-4.62v-60.72c0-1.92-.2-3.46-.6-4.62-.4-1.16-1-2.04-1.8-2.64-.8-.6-1.76-1.02-2.88-1.26-1.12-.24-2.44-.44-3.96-.6-.56-.08-.96-.3-1.2-.66-.24-.36-.36-.74-.36-1.14s.14-.78,.42-1.14c.28-.36,.74-.54,1.38-.54h26.52c.64,0,1.1,.18,1.38,.54,.28,.36,.42,.74,.42,1.14s-.12,.78-.36,1.14c-.24,.36-.64,.58-1.2,.66-1.52,.16-2.86,.36-4.02,.6-1.16,.24-2.12,.66-2.88,1.26-.76,.6-1.34,1.48-1.74,2.64-.4,1.16-.6,2.7-.6,4.62v60.72Z"/><g><path class="cls-1" d="M410.88,142.03c-5.1,5.49-9.75,8.24-13.95,8.24-2.55,0-4.5-1.23-5.83-3.69-1.33-2.46-2-5.75-2-9.88,0-3.19,.65-7.58,1.96-13.16,1.31-5.58,3-10.28,5.08-14.08l1.98-3.55c-2.71,2.83-4.93,5.92-6.67,9.28-1.73,3.36-3.8,8.06-6.2,14.1-2.4,6.04-4.22,10.15-5.45,12.34s-2.41,3.97-3.54,5.35c-1.13,1.38-2.13,2.27-3.01,2.68-.88,.41-2.41,.62-4.6,.62-.84,0-1.26-.23-1.26-.68,0-.05,.15-.76,.45-2.15,.3-1.39,.61-3.62,.92-6.68s.54-8.27,.68-15.62,1.21-13.64,3.21-18.88c-2.14,2.44-4.33,8.11-6.57,17.02l-.86,3.35c-2.35,9.27-5.04,15.53-8.08,18.78-3.03,3.25-6.01,4.87-8.93,4.87-1.8,0-3.39-.57-4.76-1.71-1.37-1.14-2.05-2.45-2.05-3.93,0-1.14,.82-2.41,2.46-3.83,1.64-1.41,2.68-2.12,3.11-2.12,.5,0,.83,.17,.99,.51,.16,.34,.37,1.28,.62,2.82s.63,2.54,1.15,3.01c.51,.47,1.16,.7,1.94,.7,1.76,0,3.7-1.76,5.83-5.28s4.07-8.96,5.83-16.32l.99-4.13c.8-3.37,1.59-6.06,2.37-8.07,.78-2.01,1.8-4.01,3.08-6.02,1.85-2.87,2.99-4.4,3.41-4.6,.42-.19,1.21-.35,2.38-.48s2.32-.19,3.49-.19c.46,0,.68,.26,.68,.79,0,.25-.07,.76-.21,1.54-.45,3.19-.66,6.39-.64,9.6l.07,9.16c.04,7.98-.59,14.41-1.91,19.31,1.21-1.46,2.96-5.22,5.26-11.28,3.33-8.59,6.36-15.04,9.09-19.35,1.3-2.07,2.87-4.06,4.7-5.96,1.83-1.9,3.1-2.92,3.81-3.06,2.42-.46,4.45-.68,6.12-.68,.62,0,.92,.17,.92,.51,0,.48-.38,1.55-1.12,3.21-1.77,4.01-3.43,9.44-4.96,16.27s-2.31,12.28-2.32,16.33c0,4.58,1.4,6.87,4.2,6.87,2.28,0,4.99-1.94,8.13-5.81v3.93Z"/><path class="cls-1" d="M427.66,142.03c-5.33,5.61-9.32,8.41-11.96,8.41-1.46,0-2.69-.75-3.69-2.24-1-1.49-1.5-3.37-1.5-5.62,0-4.85,1.64-11.57,4.92-20.17l8.68-1.81h.41l-3.42,10.7c-1.41,4.42-2.12,7.58-2.12,9.47,0,.75,.17,1.36,.5,1.83,.33,.47,.75,.7,1.25,.7,.89,0,1.78-.33,2.68-.97s2.32-2.06,4.26-4.22v3.93Zm-.68-34.79c0,5.47-2.02,8.2-6.05,8.2-1.96,0-3.63-.59-5.02-1.78,1.32-2,2.35-4.26,3.08-6.77,1.8,1.12,3.25,1.68,4.34,1.68,1.23,0,2.45-.45,3.66-1.33Z"/><path class="cls-1" d="M461.22,142.03c-5.26,5.56-9.78,8.34-13.54,8.34-1.53,0-2.76-.54-3.69-1.61-.93-1.07-1.4-2.51-1.4-4.31,0-2.44,1-6.16,3.01-11.18,1.07-2.69,1.61-4.4,1.61-5.13s-.29-1.09-.85-1.09c-.32,0-.74,.16-1.26,.48-.48,.32-1.04,.76-1.67,1.33-.57,.52-1.21,1.16-1.91,1.91-.62,.64-1.28,1.37-1.98,2.19l-1.91,2.22c-.84,1.03-1.37,2.11-1.57,3.25-.34,1.94-.57,3.71-.68,5.33-.07,1.21-.1,2.84-.1,4.89l-7.55,1.78c-.25-3.08-.38-5.37-.38-6.87,0-3.67,.43-7.14,1.28-10.43,.86-3.28,2.23-6.97,4.12-11.07l8.34-1.61c-1.75,4.72-2.91,8.43-3.45,11.14,3.73-4.17,6.7-7.06,8.89-8.67,2.19-1.61,4.15-2.41,5.85-2.41,1.16,0,2.13,.44,2.9,1.31,.77,.88,1.16,1.97,1.16,3.29,0,2.18-.98,5.78-2.94,10.8-1.34,3.44-2.02,5.68-2.02,6.7,0,1.37,.56,2.06,1.68,2.06,1.67,0,4.36-2.2,8.09-6.6v3.93Z"/><path class="cls-1" d="M491.88,142.03c-1.16,1.03-2.29,1.75-3.38,2.17-1.09,.42-1.96,.63-2.6,.63-1.64,0-3.27-.64-4.89-1.91-3.28,4.97-7.04,7.45-11.28,7.45-2.64,0-4.79-.99-6.43-2.97s-2.46-4.62-2.46-7.9c0-5.2,1.85-9.66,5.54-13.38s8.1-5.59,13.23-5.59c1.94,0,3.35,.21,4.25,.63,.9,.42,1.45,.92,1.66,1.49,.21,.57,.31,1.29,.31,2.15,0,4.26-1.16,9.49-3.49,15.69,1.16,1.07,2.38,1.61,3.66,1.61,1.53,0,3.49-1.33,5.88-4v3.93Zm-11.28-19.11c-.34-.14-.83-.21-1.47-.21-2.96,0-5.28,1.55-6.96,4.65-1.67,3.1-2.51,6.72-2.51,10.87,0,2.3,.36,4.09,1.09,5.37,.73,1.28,1.74,1.91,3.04,1.91,1.62,0,3.37-1.49,5.26-4.48-2.14-2.69-3.21-5.58-3.21-8.68,0-3.65,1.58-6.79,4.75-9.43Z"/><path class="cls-1" d="M517.42,142.03c-5.72,5.61-10.13,8.41-13.23,8.41-1.39,0-2.56-.59-3.52-1.76s-1.44-2.63-1.44-4.36c0-3.21,1.72-7.52,5.16-12.92-1.69,.87-3.53,1.47-5.54,1.81-1.48,2.73-3.81,5.67-6.97,8.82h-.79v-3.08c1.78-1.85,3.38-3.83,4.82-5.95-1.96-.87-2.94-2.15-2.94-3.86s.6-3.63,1.79-5.62c1.2-1.99,2.84-2.99,4.94-2.99,1.78,0,2.67,.91,2.67,2.73,0,1.44-.51,3.49-1.54,6.15,3.78-.41,7.09-3.3,9.91-8.68l3.11-.14-3.18,8.75c-1.32,3.69-2.18,6.2-2.56,7.54-.39,1.33-.58,2.51-.58,3.54,0,.96,.22,1.72,.67,2.29,.44,.57,1.04,.86,1.79,.86,.82,0,1.61-.28,2.36-.84s2.44-2.1,5.06-4.63v3.93Z"/><path class="cls-1" d="M582.32,142.06c-5.24,5.58-10.05,8.37-14.42,8.37-2.42,0-4.33-.85-5.74-2.56-1.41-1.71-2.2-4.15-2.36-7.31-2.76,3.35-5.2,5.83-7.33,7.45-2.13,1.62-4.4,2.43-6.82,2.43-3.1,0-5.59-1.34-7.47-4.02-1.88-2.68-2.82-6.25-2.82-10.71,0-5.33,1.23-10.83,3.69-16.49s6.11-10.13,10.94-13.42c4.83-3.28,10.69-4.92,17.57-4.92,5.15,0,9.81,.7,13.98,2.09v2.26c-3.4,3.96-6.24,9.51-8.53,16.64-2.29,7.13-3.44,12.57-3.44,16.3,0,1.82,.37,3.24,1.11,4.24,.74,1,1.77,1.5,3.09,1.5,2.37,0,5.22-1.93,8.54-5.78v3.93Zm-9.95-36.85c-2.1-1.14-4.35-1.71-6.77-1.71-3.81,0-7.24,1.59-10.29,4.77-3.05,3.18-5.46,7.39-7.23,12.63-1.77,5.24-2.65,9.79-2.65,13.64,0,2.57,.5,4.67,1.49,6.27,.99,1.61,2.26,2.41,3.81,2.41,2.69,0,5.78-2.45,9.26-7.35,1.44-12.85,5.56-23.07,12.37-30.66Z"/><path class="cls-1" d="M607.85,142.03c-5.72,5.61-10.13,8.41-13.23,8.41-1.39,0-2.56-.59-3.52-1.76s-1.44-2.63-1.44-4.36c0-3.21,1.72-7.52,5.16-12.92-1.69,.87-3.53,1.47-5.54,1.81-1.48,2.73-3.81,5.67-6.97,8.82h-.79v-3.08c1.78-1.85,3.38-3.83,4.82-5.95-1.96-.87-2.94-2.15-2.94-3.86s.6-3.63,1.79-5.62c1.2-1.99,2.84-2.99,4.94-2.99,1.78,0,2.67,.91,2.67,2.73,0,1.44-.51,3.49-1.54,6.15,3.78-.41,7.09-3.3,9.91-8.68l3.11-.14-3.18,8.75c-1.32,3.69-2.18,6.2-2.56,7.54-.39,1.33-.58,2.51-.58,3.54,0,.96,.22,1.72,.67,2.29,.44,.57,1.04,.86,1.79,.86,.82,0,1.61-.28,2.36-.84s2.44-2.1,5.06-4.63v3.93Z"/><path class="cls-1" d="M633.42,142.03c-2.92,2.87-5.59,4.98-8.02,6.32-2.43,1.34-4.96,2.02-7.6,2.02-2.96,0-5.41-.96-7.33-2.89-1.93-1.92-2.89-4.37-2.89-7.33,0-4.85,1.77-9.34,5.31-13.45,3.54-4.11,7.38-6.17,11.5-6.17,2.03,0,3.68,.56,4.96,1.69,1.28,1.13,1.91,2.59,1.91,4.39,0,.64-.12,1.12-.36,1.44-.24,.32-.69,.64-1.35,.96l-3.96,1.88c-.48,.23-.83,.34-1.06,.34-.32,0-.48-.23-.48-.68,0-.18,.07-.78,.21-1.79,.14-1.01,.21-1.63,.21-1.86,0-1-.21-1.81-.63-2.43s-.99-.92-1.69-.92c-1.66,0-3.18,1.23-4.56,3.69-1.38,2.46-2.07,5.26-2.07,8.41,0,2.71,.65,4.88,1.95,6.49,1.3,1.62,3.03,2.43,5.2,2.43,1.85,0,3.58-.53,5.21-1.59s3.48-2.68,5.55-4.87v3.93Z"/><path class="cls-1" d="M669.92,142.03c-3.65,3.46-6.25,5.72-7.83,6.77-1.57,1.05-3.08,1.57-4.51,1.57-3.6,0-5.3-3.18-5.09-9.54-2.28,3.26-4.38,5.66-6.31,7.21-1.93,1.55-3.91,2.32-5.96,2.32s-3.71-.94-5.11-2.82c-1.4-1.88-2.1-4.19-2.1-6.92,0-3.42,.94-6.68,2.82-9.78,1.88-3.1,4.29-5.61,7.23-7.52s5.54-2.87,7.79-2.87c2.85,0,4.84,1.31,5.98,3.93l6.99-3.86h1.92l-3.01,10.01c-1.55,5.04-2.33,8.49-2.33,10.36,0,1.96,.69,2.94,2.08,2.94,.89,0,1.87-.47,2.94-1.42,1.07-.95,2.57-2.39,4.51-4.32v3.93Zm-25.02,1.88c2.28,0,4.43-1.94,6.44-5.83,2.02-3.88,3.02-7.47,3.02-10.75,0-1.28-.29-2.27-.85-2.99-.57-.72-1.33-1.08-2.29-1.08-2.28,0-4.44,1.94-6.48,5.81-2.04,3.87-3.06,7.44-3.06,10.7,0,1.23,.3,2.23,.91,2.99,.6,.76,1.37,1.15,2.31,1.15Z"/><path class="cls-1" d="M703.46,142.03c-5.26,5.56-9.78,8.34-13.54,8.34-1.53,0-2.76-.54-3.69-1.61-.93-1.07-1.4-2.51-1.4-4.31,0-2.44,1-6.16,3.01-11.18,1.07-2.69,1.61-4.4,1.61-5.13s-.29-1.09-.85-1.09c-.32,0-.74,.16-1.26,.48-.48,.32-1.04,.76-1.67,1.33-.57,.52-1.21,1.16-1.91,1.91-.62,.64-1.28,1.37-1.98,2.19l-1.91,2.22c-.84,1.03-1.37,2.11-1.57,3.25-.34,1.94-.57,3.71-.68,5.33-.07,1.21-.1,2.84-.1,4.89l-7.55,1.78c-.25-3.08-.38-5.37-.38-6.87,0-3.67,.43-7.14,1.28-10.43,.86-3.28,2.23-6.97,4.12-11.07l8.34-1.61c-1.75,4.72-2.91,8.43-3.45,11.14,3.73-4.17,6.7-7.06,8.89-8.67,2.19-1.61,4.15-2.41,5.85-2.41,1.16,0,2.13,.44,2.9,1.31,.77,.88,1.16,1.97,1.16,3.29,0,2.18-.98,5.78-2.94,10.8-1.34,3.44-2.02,5.68-2.02,6.7,0,1.37,.56,2.06,1.68,2.06,1.67,0,4.36-2.2,8.09-6.6v3.93Z"/><path class="cls-1" d="M739.92,142.03c-3.65,3.46-6.25,5.72-7.83,6.77-1.57,1.05-3.08,1.57-4.51,1.57-3.6,0-5.3-3.18-5.09-9.54-2.28,3.26-4.38,5.66-6.31,7.21-1.93,1.55-3.91,2.32-5.96,2.32s-3.71-.94-5.11-2.82c-1.4-1.88-2.1-4.19-2.1-6.92,0-3.42,.94-6.68,2.82-9.78,1.88-3.1,4.29-5.61,7.23-7.52s5.54-2.87,7.79-2.87c2.85,0,4.84,1.31,5.98,3.93l6.99-3.86h1.92l-3.01,10.01c-1.55,5.04-2.33,8.49-2.33,10.36,0,1.96,.69,2.94,2.08,2.94,.89,0,1.87-.47,2.94-1.42,1.07-.95,2.57-2.39,4.51-4.32v3.93Zm-25.02,1.88c2.28,0,4.43-1.94,6.44-5.83,2.02-3.88,3.02-7.47,3.02-10.75,0-1.28-.29-2.27-.85-2.99-.57-.72-1.33-1.08-2.29-1.08-2.28,0-4.44,1.94-6.48,5.81-2.04,3.87-3.06,7.44-3.06,10.7,0,1.23,.3,2.23,.91,2.99,.6,.76,1.37,1.15,2.31,1.15Z"/></g><g><path class="cls-1" d="M472.58,1852.82c-4.1,7.7-8.57,11.55-13.4,11.55-2.53,0-4.56-.93-6.08-2.79s-2.29-4.31-2.29-7.37c0-3.55,1.27-8.96,3.81-16.2s3.81-12.37,3.81-15.38c0-1.34-.38-2.46-1.14-3.35s-1.71-1.33-2.85-1.33c-1.76,0-3.5,1.07-5.23,3.21-1.73,2.14-2.6,4.33-2.6,6.56,0,1.71,.78,3.49,2.32,5.33,.64,.78,.96,1.31,.96,1.61,0,.34-.49,1.11-1.47,2.29-.98,1.19-1.82,1.78-2.53,1.78-.75,0-1.61-.55-2.56-1.64s-1.44-2.72-1.44-4.89c0-4.4,1.54-8.4,4.63-12,3.09-3.6,6.5-5.4,10.24-5.4,2.8,0,5.17,1.16,7.11,3.48,1.94,2.32,2.9,5.21,2.9,8.67-.03,3.64-1.21,8.8-3.54,15.47-2.33,6.67-3.48,11.13-3.47,13.39,0,1.07,.27,1.92,.82,2.55,.55,.63,1.28,.94,2.19,.94,1.98,0,3.95-1.62,5.91-4.85,1.96-3.23,3.75-7.87,5.37-13.91l3.21-12.03c1.25-4.74,2.65-8.88,4.2-12.41,.16-.39,1.22-.69,3.19-.91,1.97-.22,3.4-.33,4.29-.33s1.33,.18,1.33,.54l-6.27,23.86c-1.79,7-2.68,12.11-2.68,15.35,0,1.41,.3,2.54,.89,3.37s1.39,1.25,2.39,1.25c1.48,0,3.5-1.21,6.07-3.64,2.56-2.43,4.72-5.53,6.48-9.3,1.75-3.77,2.63-7.63,2.63-11.57,0-4.22-1.03-8.41-3.08-12.58-.57-1.21-.85-1.96-.85-2.26,0-.98,.94-2.06,2.82-3.25,1.88-1.18,3.23-1.78,4.05-1.78,.78,0,1.56,1.03,2.34,3.09,.79,2.06,1.18,4.22,1.18,6.48,0,5.99-1.4,12.13-4.21,18.41s-6.29,11.43-10.46,15.47-7.94,6.05-11.31,6.05c-2.39,0-4.29-.96-5.69-2.89-1.4-1.92-2.07-4.81-2-8.67Z"/><path class="cls-1" d="M542.65,1856.03c-3.65,3.46-6.25,5.72-7.83,6.77-1.57,1.05-3.08,1.57-4.51,1.57-3.6,0-5.3-3.18-5.09-9.54-2.28,3.26-4.38,5.66-6.31,7.21-1.93,1.55-3.91,2.32-5.96,2.32s-3.71-.94-5.11-2.82c-1.4-1.88-2.1-4.19-2.1-6.92,0-3.42,.94-6.68,2.82-9.78,1.88-3.1,4.29-5.61,7.23-7.52s5.54-2.87,7.79-2.87c2.85,0,4.84,1.31,5.98,3.93l6.99-3.86h1.92l-3.01,10.01c-1.55,5.04-2.33,8.49-2.33,10.36,0,1.96,.7,2.94,2.08,2.94,.89,0,1.87-.47,2.94-1.42,1.07-.95,2.57-2.39,4.51-4.32v3.93Zm-25.02,1.88c2.28,0,4.43-1.94,6.44-5.83,2.02-3.88,3.03-7.47,3.03-10.75,0-1.28-.29-2.27-.86-2.99s-1.33-1.08-2.29-1.08c-2.28,0-4.44,1.94-6.48,5.81-2.04,3.87-3.06,7.44-3.06,10.7,0,1.23,.3,2.23,.91,2.99,.6,.76,1.37,1.15,2.31,1.15Z"/><path class="cls-1" d="M576.18,1856.03c-5.26,5.56-9.78,8.34-13.54,8.34-1.53,0-2.76-.54-3.69-1.61-.94-1.07-1.4-2.51-1.4-4.31,0-2.44,1-6.16,3.01-11.18,1.07-2.69,1.61-4.4,1.61-5.13s-.29-1.09-.86-1.09c-.32,0-.74,.16-1.26,.48-.48,.32-1.04,.76-1.68,1.33-.57,.52-1.21,1.16-1.91,1.91-.62,.64-1.28,1.37-1.98,2.19l-1.91,2.22c-.84,1.03-1.37,2.11-1.57,3.25-.34,1.94-.57,3.71-.68,5.33-.07,1.21-.1,2.84-.1,4.89l-7.55,1.78c-.25-3.08-.38-5.37-.38-6.87,0-3.67,.43-7.14,1.28-10.43,.86-3.28,2.23-6.97,4.12-11.07l8.34-1.61c-1.76,4.72-2.91,8.43-3.45,11.14,3.73-4.17,6.7-7.06,8.89-8.67s4.15-2.41,5.85-2.41c1.16,0,2.13,.44,2.9,1.31,.77,.88,1.16,1.97,1.16,3.29,0,2.18-.98,5.78-2.94,10.8-1.35,3.44-2.02,5.68-2.02,6.7,0,1.37,.56,2.06,1.68,2.06,1.67,0,4.36-2.2,8.09-6.6v3.93Z"/><path class="cls-1" d="M612.65,1856.03c-3.28,3.26-5.78,5.46-7.5,6.61s-3.24,1.73-4.56,1.73c-1.62,0-2.9-.79-3.85-2.36s-1.43-3.87-1.45-6.9c-1.87,3.03-3.9,5.33-6.1,6.9s-4.19,2.36-5.96,2.36c-1.94,0-3.65-.92-5.13-2.75-1.48-1.83-2.22-3.98-2.22-6.44,0-5.08,1.85-9.79,5.55-14.13s7.68-6.51,11.95-6.51c1.19,0,2.11,.17,2.79,.51s1.41,.92,2.21,1.74l4.89-20.44c3.99-.93,6.68-1.4,8.07-1.4,.46,0,.68,.18,.68,.55,0,.25-.57,2.61-1.71,7.08-4.55,17.87-6.83,28.64-6.83,32.33,0,.87,.18,1.56,.55,2.08,.36,.52,.84,.79,1.43,.79,1.46,0,3.86-1.89,7.2-5.67v3.93Zm-24.71,1.81c2.23,0,4.32-1.89,6.25-5.67,1.94-3.78,2.91-7.33,2.91-10.63,0-1.34-.3-2.41-.91-3.21-.6-.8-1.4-1.2-2.38-1.2-2.12,0-4.17,1.98-6.15,5.93s-2.97,7.53-2.97,10.71c0,1.25,.29,2.25,.87,2.97,.58,.73,1.37,1.09,2.38,1.09Z"/><path class="cls-1" d="M623.14,1836c1.57-.41,3.15-.75,4.75-1.01s2.55-.39,2.87-.39c.23,0,.34,.09,.34,.27,0,.34-.09,.69-.27,1.06-.37,1.05-.55,2.05-.55,3.01,0,1.18,.69,2.8,2.05,4.85s2.05,3.96,2.05,5.71c0,3.49-1.67,6.85-5.01,10.08-3.34,3.24-6.8,4.85-10.38,4.85-1.55,0-2.96-.41-4.24-1.23s-1.91-1.7-1.91-2.63c0-.55,.63-1.58,1.9-3.11,1.26-1.53,2.17-2.29,2.72-2.29,.73,0,1.38,.93,1.95,2.8,.57,1.87,1.55,2.8,2.94,2.8s2.7-.64,3.91-1.93,1.83-2.67,1.83-4.15c0-1.44-.77-3.35-2.32-5.74-1.55-2.39-2.58-4.4-3.08-6.01-2.64,4.26-5.99,8.62-10.05,13.09h-.79v-3.08c5.58-5.95,9.34-11.6,11.28-16.95Z"/></g></g></g><g id="_반짝이"><polygon class="cls-7" points="772.75 655.87 782.44 693.48 813.66 701.21 782.44 709.69 772.75 748 762.54 709.69 731.84 701.21 762.54 693.48 772.75 655.87"/><polygon class="cls-8" points="361.75 1175.87 371.44 1213.48 402.66 1221.21 371.44 1229.69 361.75 1268 351.54 1229.69 320.84 1221.21 351.54 1213.48 361.75 1175.87"/><circle class="cls-7" cx="161.5" cy="1092.5" r="14.5"/><circle class="cls-7" cx="455" cy="1177" r="12"/><circle class="cls-7" cx="680.5" cy="1104.5" r="12.5"/><circle class="cls-8" cx="916" cy="911" r="18"/><circle class="cls-7" cx="910" cy="987" r="11"/><circle class="cls-8" cx="731" cy="619" r="10"/><circle class="cls-7" cx="761.5" cy="580.5" r="6.5"/><circle class="cls-8" cx="489" cy="1150" r="6"/></g><g id="_완드_6"><path class="cls-3" d="M508.95,468.7c-10.32,.71-17.35,8-19.67,10.66-2.41,2.77-8.18,9.38-9.43,19.84-.94,7.83,1.18,13.34,3.64,22.06,3.5,12.46,.52,6.02,8.03,42.94,6.32,31.09,7.07,28.93,8.78,41.76,2.13,15.96,.51,15.87,2.53,38.94,1.71,19.58,3.28,24.24,5.86,47.61,1.76,15.97,2.7,28.85,3.19,36.65-4.43-2.19-9.33-5.05-14.5-8.81-9.59-6.97-17.02-14.81-22.47-21.54-3.62,4.42-7.24,8.84-10.86,13.25,2.33,3.75,5.91,9.63,10.06,17.03,11.1,19.77,14.18,28.84,21.66,41.76,4.36,7.54,11.23,18.14,21.45,29.47,.01,2.63,.04,6.5,.11,11.18,.12,7.74,.18,11.61,.31,13.4,.64,8.76,2.09,10.1,3.54,20.95,.48,3.59,.71,6.83,1.16,13.33,.88,12.54,.52,14.93,1.18,23.4,.66,8.52,1.19,8.22,2.69,21.03,.88,7.49,1.92,16.37,2.22,25.54,.21,6.46-.06,9.47-1.65,30.36-1.72,22.56-2.59,33.94-2.68,38.28-.29,13.7,.57,14.01,.15,31.32-.38,15.74-1.27,22.69-1.94,27.02-1.58,10.21-2.58,9.92-2.91,15.92-.44,8.13,1.15,13.22,5.07,28.65,4.11,16.16,6.16,24.24,6.77,28.5,1.47,10.28,.02,9.21,1.1,32.35,.79,16.97,1.72,20.78,1,31.24-.45,6.45-.93,6.95-2.62,19.25-1.45,10.6-3.05,22.26-3.72,36.13-.86,17.53,.99,13.36,.54,35.76-.14,7.12-.53,17.34,4.12,27.62,.41,.92,.79,1.65,1.05,2.15,3.41,.86,8.55,1.71,14.68,.96,4.69-.58,10.85-1.33,15.8-5.85,4.48-4.09,7.49-10.84,9.71-26.58,2.78-19.75,1.66-34.9,1.15-45.98-.11-2.34,.4-22.49,1.41-62.78,1.37-54.87,1.91-54.1,1.21-65-1.44-22.47-3.9-28.23-2.16-44.57,1.7-15.99,5.24-21.75,5.43-36.28,.19-15.27-3.48-28-6.6-36.35,2.32-4.06,5.27-10.26,6.97-18.51,3.12-15.08-.15-26.04-3.01-44.5-.88-5.71-4.47-29.85-4.07-56.71,.36-24.35,3.56-21.79,3.61-47.31,.02-12.78-.76-21.75,3.16-32.72,1.03-2.89,3.33-7.75,7.92-17.47,4.91-10.39,6.4-12.86,7.83-18.58,.27-1.1,3.99-16.41-.03-20.14-1.05-.97-2.35-.91-2.65-.89-2.39,.18-3.69,3.06-5.48,6.07-3.21,5.41-3.15,3.11-9.26,11.99-1.41,2.06-3.25,4.84-5.29,8.29-.33-5.06-.91-12.79-1.93-22.21-1.18-10.89-2.3-21.17-4.7-34.28-2.43-13.27-4.13-18.32-4.22-28.73-.05-6.37-.04-11,2.06-15.84,3.17-7.32,8.16-8.27,8.31-13.03,.08-2.42-1.07-6.25-7.88-11.62-.05-5.8-.66-10.36-1.16-13.33-1.56-9.17-3.77-12.5-3.44-19.84,.09-2.06,.27-5.51,1.78-9.11,2.59-6.17,7.09-6.63,11.15-9.92,8.42-6.83,10.16-21.36,10.65-25.54,2.02-16.91-4.56-30.37-6.4-34.13-3.37-6.88-8.32-11.89-18.22-21.91-6.87-6.96-13.48-13.59-23.23-20.36-12.27-8.53-18.41-12.79-26.81-12.21Z"/><path class="cls-8" d="M622,598c-1.49-6.26-5.77-10.23-8-12,5.89-9.19,4.36-19.26-1-23-4.06-2.83-9.48-1.44-11-1,4.76-9.62,2.06-19.6-4-23-4.89-2.74-10.73-.52-12,0-.53-6.14-4.37-11.52-10-14-5.6-2.47-12.12-1.7-17,2-4.96-6.66-13.03-10.14-21-9-10.3,1.47-15.38,9.92-16,11-5.46-4.7-12.94-5.88-19-3-6.69,3.18-8.69,9.91-9,11-8.84-2.85-17.24,.27-20,6-1.96,4.07-.58,8.44,0,10-13.17,4.47-19.65,16.34-17,25,2.27,7.41,10.63,10.51,12,11-11.8,3.09-18.51,12.92-17,21,1.23,6.61,7.62,10.25,9,11-5.94,4.27-8.71,11.52-7,18,2.11,8.01,10.75,13.58,20,12-.12,1.06-1.15,11.51,7,19,8.85,8.12,20.28,5.2,21,5,.15,7.22,3.95,13.79,10,17,7.65,4.06,17.7,2.13,24-5,5.15,8.82,15.32,12.3,23,9,8.28-3.56,9.91-13.38,10-14,.88,.41,8.4,3.75,15,0,6.8-3.87,9.93-13.74,6-23,10.47-1.82,18.73-8.89,21-18,1.86-7.45-.9-13.79-2-16,10.16-6.57,15.28-17.47,13-27Zm-47.01,19.96c.59,1.19,2.09,4.62,1.08,8.65-1.23,4.92-5.69,8.74-11.35,9.73,2.13,5.01,.43,10.34-3.24,12.43-3.57,2.03-7.63,.22-8.11,0-.05,.34-.93,5.64-5.4,7.57-4.15,1.79-9.65-.1-12.43-4.86-3.41,3.85-8.84,4.9-12.97,2.7-3.27-1.74-5.33-5.29-5.4-9.19-.39,.11-6.57,1.69-11.35-2.7-4.41-4.05-3.85-9.7-3.78-10.27-5,.85-9.67-2.15-10.81-6.49-.92-3.5,.57-7.42,3.78-9.73-.74-.4-4.2-2.37-4.86-5.95-.81-4.37,2.81-9.68,9.19-11.35-.74-.26-5.26-1.94-6.49-5.95-1.43-4.68,2.07-11.1,9.19-13.51-.31-.84-1.06-3.2,0-5.4,1.49-3.1,6.03-4.78,10.81-3.24,.17-.59,1.25-4.23,4.86-5.95,3.27-1.55,7.32-.92,10.27,1.62,.34-.58,3.08-5.15,8.65-5.95,4.31-.61,8.67,1.27,11.35,4.86,2.64-2,6.16-2.41,9.19-1.08,3.04,1.34,5.12,4.25,5.4,7.57,.69-.28,3.85-1.48,6.49,0,3.27,1.84,4.74,7.23,2.16,12.43,.82-.24,3.75-.99,5.95,.54,2.9,2.02,3.72,7.46,.54,12.43,1.21,.96,3.52,3.1,4.32,6.49,1.23,5.15-1.54,11.04-7.03,14.59Z"/><path class="cls-3" d="M403.31,672.23c-4.66-1.93-10.15-.41-13.25,2.67-2.33,2.32-3.03,5.23-4.42,17.59-1.39,12.43-2.09,18.64-1.83,20.43,.72,4.82,2.27,8.76,13.87,29.03,4.06,7.09,6.09,10.64,9.97,17.12,13.06,21.83,14.47,34.09,24.26,55.67,6.21,13.69,6.86,11.44,25.94,43.67,11.74,19.84,23.4,39.54,35.27,63.91,13.16,27.02,11.28,28.38,30.19,69.32,9.08,19.67,14.68,31.73,23.52,47.7,13.83,24.98,19.65,30.75,32.83,52.64,12.21,20.29,12.01,23.32,35.44,70.78,19.36,39.2,29.04,58.81,41.44,80.21,23.7,40.9,27.76,39.74,43.93,71.96,8.69,17.31,19.88,33.57,26.68,51.64,3.4,9.03,7.13,20.67,17.1,28.75,1.06,.86,12.45,9.89,18.68,5.66,5.6-3.81,3.55-15.97,2.71-20.89-2.38-14.09-8.96-23.62-15.25-33.88-17.46-28.44-12.5-29.48-31.22-60.43-10.26-16.97-16.53-24.57-23.74-35.06-18.43-26.82-21.85-41.78-44.13-94.13-28.93-67.95-43.42-102-63.11-133.04-10.07-15.88-17.91-25.31-23.6-43.49-4.72-15.11-4.7-25.83-14.29-38.55-4.11-5.45-6.74-6.96-14.09-16.38-6.54-8.38-10.84-15.36-14.02-20.6-22.82-37.66-33.89-59.05-33.89-59.05-20.25-39.15-16.43-36.69-33.99-70.14-22-41.91-24.16-38.46-30.97-57.77-7.92-22.45-9.94-41.13-20.04-45.33Z"/><path class="cls-3" d="M327.23,610.01c-6.37-10.08-8.5-13.16-12.02-13.64-3.72-.51-4.93,2.45-13.32,7.69-11.47,7.18-14.76,5.14-17.41,9.89-3.38,6.05-.92,14.52,1.73,23.63,2.32,7.98,4.43,9.91,5.86,18.06,.97,5.52,.62,8.15,.84,13.5,.72,17.79,5.86,20.12,5.69,31.55-.17,11.38-5.32,12.65-9.52,27.98-2.75,10.04-3.13,18.97-2.47,33.69,1.5,33.5,6.92,64.23,8.21,72.04,3.55,21.46,3,43.91,1.89,88.82-1.16,47.16-4.79,59.44-9.97,140.37-1.02,15.94-1.34,22.62-2.5,35.93-2.27,25.87-4.01,34.21-4.78,55.01-.37,9.98-.04,10.06-.35,26.97-.39,21.42-2.52,28.39-1.6,44.94,.59,10.6,1.36,9.4,1.78,19.13,.58,13.43-.75,19.02-2.55,39.31-2.71,30.61-1.56,39.19,1.42,47.23,.72,1.96,5.65,15.27,10.99,14.75,3.61-.35,5.94-6.86,7.26-11.14,9.16-29.61,7.6-72.81,7.23-86.45-.35-13.11-.82-31.95,.73-56.19,2.57-40.2,6.93-36.58,8.02-69.58,.81-24.52-1.25-36.89,6.79-52.74,4.46-8.8,8.09-10.89,10.43-20.1,3.6-14.16-1.37-23.46-3.55-39.39-2.03-14.83,.95-16.86,2.6-43.8,1.3-21.05-.23-22.28-.27-57.33-.02-17.83-.04-41,1.93-69.66,2.89-42.21,6.22-39.84,4.84-59.51-1.28-18.22-4.75-29.03-1.4-48.35,1.18-6.8,2.19-8.8,5.41-24.66,3.27-16.12,4.9-24.17,5.49-31.4,.99-12.14,2.43-29.78-5.48-47.28-.56-1.25-4.36-7.25-11.95-19.26Z"/><path class="cls-3" d="M845.98,577.59c6.87-9.75,9.16-12.72,12.69-13.02,3.74-.32,4.8,2.69,12.91,8.35,11.09,7.75,14.49,5.88,16.89,10.75,3.07,6.21,.18,14.55-2.91,23.51-2.71,7.85-4.92,9.67-6.77,17.74-1.25,5.46-1.03,8.11-1.52,13.44-1.62,17.73-6.86,19.8-7.27,31.22-.4,11.37,4.68,12.9,8.1,28.42,2.24,10.17,2.17,19.1,.78,33.77-3.18,33.39-10.14,63.8-11.82,71.54-4.63,21.25-5.2,43.71-6.35,88.61-1.21,47.16,1.8,59.6,2.9,140.69,.22,15.97,.2,22.66,.69,36.01,.96,25.95,2.29,34.37,2.01,55.18-.13,9.99-.46,10.05-1,26.95-.69,21.41,1.09,28.48-.66,44.96-1.12,10.56-1.83,9.32-2.74,19.02-1.26,13.38-.2,19.03,.57,39.38,1.16,30.7-.42,39.22-3.79,47.09-.82,1.92-6.41,14.96-11.72,14.18-3.59-.53-5.58-7.15-6.69-11.5-7.66-30.04-3.93-73.1-2.87-86.71,1.01-13.07,2.42-31.86,2.09-56.15-.55-40.28-5.08-36.88-4.52-69.9,.42-24.53,3.1-36.78-4.13-53.01-4.01-9.01-7.53-11.28-9.41-20.59-2.88-14.33,2.55-23.36,5.53-39.16,2.77-14.71-.1-16.89-.4-43.88-.24-21.09,1.35-22.24,3.15-57.24,.91-17.81,2.1-40.94,1.58-69.67-.77-42.3-4.21-40.1-1.85-59.68,2.19-18.13,6.21-28.75,3.83-48.22-.84-6.85-1.74-8.9-4.16-24.9-2.45-16.26-3.68-24.39-3.91-31.64-.38-12.17-.93-29.86,7.85-46.94,.63-1.22,4.72-7.03,12.9-18.64Z"/><path class="cls-3" d="M689.95,650.35c-2.3-2.61-7.57-8.39-16.43-9.34-5.67-.6-13.89,.66-18.18,5.34-3.21,3.51-3.6,8.28,3.22,29.05,4.3,13.08,7.96,21.85,11.55,31.3,4.22,11.11,6.86,19.25,9.93,28.74,8.09,24.96,12.7,44.49,13.77,49.06,2.58,11.09,4.62,22.79,8.71,46.19,3.54,20.29,5.26,31.35,8.49,51.01,2.56,15.58,5.98,36.03,10.23,60.25,7.73,43.96,8.82,46.32,10.76,63.02,2.64,22.71,1.1,22.42,3.78,49.99,1.76,18.13,4.35,35.02,9.45,68.05,6.54,42.37,7.57,44.3,10.36,66.92,4.05,32.8,6.08,49.2,5,56.45-3.71,24.95-2.6,33.88-.4,51.73,.4,3.25,1.37,9.99,6.8,12.11,4.45,1.73,10.48-.18,14.17-2.67,8.75-5.91,8.06-17.65,8.03-29.25-.1-32.44,5.01-23.94,3.85-51.42-.96-22.59-4.62-33.14-13.59-72.05-9.43-40.94-14.15-61.41-16.24-80.16-4.03-36.14,1.15-37.66-2.12-77.08-1.45-17.51-2.92-22.61-15.28-87.04-4.59-23.93-11.37-59.27-17.94-95.14-5.64-30.82-16.24-60.96-17.42-92.37,0,0-1.95-51.66-20.47-72.66Z"/><path class="cls-3" d="M234.65,671.01c-1.73-3.02-5.73-9.74-14.23-12.44-5.43-1.73-13.74-2.14-18.88,1.59-3.85,2.79-5.19,7.39-2.67,29.1,1.59,13.67,3.42,23.01,5.04,32.98,1.91,11.74,2.86,20.23,3.97,30.15,2.92,26.07,3.53,46.14,3.65,50.82,.31,11.38-.04,23.25-.73,46.99-.6,20.59-1.13,31.77-1.91,51.68-.61,15.78-1.37,36.5-2.05,61.08-1.24,44.62-.65,47.15-2.09,63.9-1.97,22.77-3.41,22.18-6.31,49.73-1.91,18.12-2.76,35.18-4.39,68.56-2.09,42.82-1.47,44.92-3.26,67.64-2.6,32.95-3.91,49.42-6.41,56.31-8.63,23.7-9.34,32.67-10.76,50.6-.26,3.27-.66,10.06,4.23,13.23,4.01,2.59,10.31,1.92,14.42,.22,9.76-4.04,11.44-15.67,13.73-27.05,6.4-31.8,9.71-22.45,14.08-49.61,3.59-22.33,2.12-33.39,1.13-73.31-1.04-42-1.56-63,.15-81.79,3.29-36.21,8.67-36.66,13.37-75.94,2.09-17.44,1.67-22.74,2.47-88.33,.3-24.36,.74-60.34,1.49-96.81,.65-31.33-3.69-62.98,1.45-93.99,0,0,8.45-51-5.49-75.29Z"/><polygon class="cls-4" points="417.37 897.19 429.92 971.68 463.75 955.6 447.67 989.43 504.78 1001.98 447.67 1014.53 463.75 1048.36 429.92 1032.28 417.37 1113 404.82 1032.28 370.99 1048.36 387.07 1014.53 335.12 1001.98 387.07 989.43 370.99 955.6 404.82 971.68 417.37 897.19"/><path class="cls-5" d="M584.34,510c-7.13-5.3-18.78,.64-29.29,6-6.23,3.18-11.25,6.69-15.06,9.76-2.39-1.73-5.31-2.76-8.48-2.76-3.82,0-7.29,1.49-9.88,3.91-17.66-14.53-36.68-18.11-46.88-9.91-6.39,5.13-2.95,17.44-2.73,18,5,13,8,19,16.91,26,13.1,10.3,29.55-4.74,31.18-6,1.95-1.5,3.55-3.08,4.87-4.57,1.97,1,4.19,1.57,6.55,1.57,3.21,0,6.16-1.05,8.56-2.82,13.25,12.69,29.97,15,39.55,7.82,9.71-7.28,10.28-22.99,10.39-26,.2-5.39,.6-16.35-5.67-21Z"/></g></svg>