<?xml version="1.0" encoding="UTF-8"?><svg xmlns="http://www.w3.org/2000/svg" viewBox="0 0 1080 1944"><defs><style>.cls-1{fill:#fff;}.cls-2{fill:#f6ef84;}.cls-3{fill:#3f3730;}.cls-4{fill:#4c5fa9;}.cls-5{fill:none;stroke:#3f3730;stroke-miterlimit:10;stroke-width:7px;}.cls-6{fill:#bad6eb;}.cls-7{fill:#c8c0de;}.cls-8{fill:#b1d4f0;}</style></defs><g id="_배경"><g><rect class="cls-6" width="1080" height="1944"/><rect class="cls-1" x="74.84" y="186.39" width="930.33" height="1606.64" rx="65.21" ry="65.21"/><g><path class="cls-3" d="M295.78,1646.47c1.52,0,2.29,.49,2.29,1.46l-1.41,7.79-.29,14.47c-.2,4.73-.92,9.08-2.17,13.07-1.13,3.71-2.72,7.09-4.75,10.14-1.84,2.81-4.04,5.29-6.62,7.44-2.38,1.99-5,3.67-7.85,5.04-2.66,1.25-5.45,2.19-8.38,2.81-2.7,.62-5.41,.94-8.14,.94-6.37,0-11.36-1.38-14.97-4.13-3.61-2.75-5.42-5.42-5.42-8,0-1.48,1.34-3.4,4.01-5.74,2.67-2.34,4.7-3.52,6.06-3.52,1.68,0,2.52,1.56,2.52,4.69,0,5.08,.83,8.37,2.49,9.87,1.66,1.5,3.88,2.26,6.65,2.26,4.49,0,8.43-1.43,11.81-4.28,3.38-2.85,5.65-6.26,6.83-10.22,1.17-3.96,1.78-9.81,1.82-17.55,.04-7.73,.62-13.06,1.73-15.97,1.11-2.91,3.15-5.4,6.12-7.47,2.97-2.07,5.53-3.11,7.68-3.11Zm21.97-17.99c-1.13,8.4-4.71,12.6-10.72,12.6-2.11,0-6.15-.95-12.13-2.84-5.98-1.89-11.13-2.84-15.47-2.84-5.59,0-10.42,2.07-14.5,6.22-4.08,4.15-6.12,7.77-6.12,10.86s1.88,5.69,5.62,8.04c1.52,.98,2.29,1.86,2.29,2.64,0,1.06-1.08,2.48-3.25,4.28s-3.8,2.7-4.89,2.7c-1.84,0-3.55-1.05-5.16-3.16-1.6-2.11-2.4-4.41-2.4-6.91,0-4.84,1.97-10.13,5.92-15.85,3.95-5.72,9.1-10.39,15.47-14,6.37-3.61,13.05-5.42,20.04-5.42,4.73,0,9.2,.71,13.42,2.14,4.22,1.43,6.86,2.14,7.91,2.14,.94,0,1.74-.27,2.4-.82l.35-.12,1.23,.35Z"/><path class="cls-3" d="M370.08,1695.34c-9.26,9.61-16.88,14.41-22.85,14.41-2.66,0-4.85-.91-6.59-2.72-1.74-1.82-2.61-4.11-2.61-6.88,0-4.69,1.8-11.29,5.39-19.8,1.91-4.61,2.87-7.62,2.87-9.02,0-1.6-.76-2.4-2.29-2.4s-3.83,1.06-6.8,3.19c-2.97,2.13-6.09,5.03-9.38,8.7-1.37,7.19-2.05,15.82-2.05,25.9l-13.07,3.05c-.51-4.1-.76-8.55-.76-13.36,0-11.64,1.6-22.48,4.8-32.52,3.2-10.04,8.24-20.68,15.12-31.93,5.12-2.07,9.58-3.76,13.39-5.07,3.81-1.31,5.99-1.96,6.53-1.96,1.02,0,1.88,.82,2.58,2.46s1.05,3.69,1.05,6.15c0,4.14-1.27,8.72-3.81,13.74-2.54,5.02-6.52,11.08-11.95,18.19,5.2-3.01,8.66-4.9,10.38-5.68,1.72-.78,3.48-1.17,5.28-1.17,1.99,0,3.61,.71,4.84,2.14s1.85,3.31,1.85,5.66c0,3.52-1.4,8.97-4.2,16.35-2.8,7.38-4.2,12.01-4.2,13.88,0,.86,.26,1.62,.79,2.29s1.14,1,1.84,1c2.5,0,7.11-3.77,13.82-11.31v6.74Zm-40.61-24.02c13.95-16.21,20.92-28.16,20.92-35.86,0-2.34-.64-3.52-1.93-3.52-2.15,0-5.21,3.85-9.2,11.54-3.98,7.7-7.25,16.97-9.79,27.83Z"/><path class="cls-3" d="M413.85,1695.34c-4.96,4.88-9.41,8.49-13.36,10.81-3.95,2.32-8.3,3.49-13.07,3.49-5.31,0-9.6-1.7-12.86-5.1-3.26-3.4-4.89-7.87-4.89-13.42,0-8.28,2.87-15.77,8.61-22.47,5.74-6.7,12.11-10.05,19.1-10.05,3.63,0,6.54,.94,8.73,2.81,2.19,1.88,3.28,4.34,3.28,7.38,0,8.09-8.59,14.65-25.78,19.69,1.56,7.62,5.64,11.43,12.25,11.43,2.58,0,5.04-.69,7.38-2.08,2.34-1.39,5.88-4.46,10.61-9.23v6.74Zm-30.7-10.84c10-2.81,15-8.01,15-15.59,0-3.75-1.37-5.62-4.1-5.62-2.58,0-5.04,1.96-7.38,5.89s-3.52,9.03-3.52,15.32Z"/><path class="cls-3" d="M506.43,1695.28c-5.04,4.94-10.1,8.57-15.18,10.88-5.08,2.31-10.82,3.47-17.23,3.47-8.48,0-15.26-2.05-20.36-6.15s-7.65-9.49-7.65-16.17c0-5.82,2.09-10.93,6.27-15.32,4.18-4.39,10.58-7.45,19.22-9.17-8.32-3.16-12.48-8.5-12.48-16,0-5.98,2.87-11.14,8.61-15.5,5.74-4.36,12.66-6.53,20.74-6.53,5.82,0,10.04,1.14,12.66,3.43,2.62,2.29,3.93,4.37,3.93,6.24,0,1.17-.98,2.99-2.93,5.45-1.95,2.46-3.38,3.69-4.28,3.69-1.05,0-1.82-1.48-2.29-4.45-1.09-6.64-3.77-9.96-8.03-9.96-3.32,0-6.33,1.86-9.02,5.57-2.7,3.71-4.04,7.91-4.04,12.6,0,7.5,3.67,11.25,11.02,11.25,1.21,0,2.03,.07,2.46,.21,.43,.14,.64,.48,.64,1.03,0,1.49-.29,3.12-.88,4.89-.59,1.78-1.33,2.67-2.23,2.67-.27,0-1.25-.11-2.93-.32-1.68-.21-3.14-.32-4.39-.32-4.14,0-7.7,1.7-10.66,5.1-2.97,3.4-4.45,7.5-4.45,12.3,0,5.2,1.74,9.5,5.21,12.92,3.48,3.42,7.87,5.13,13.18,5.13,4.37,0,8.75-1.18,13.12-3.53,4.37-2.35,8.36-5.73,11.95-10.12v6.74Z"/><path class="cls-3" d="M592.68,1695.34c-4.88,4.77-9.06,8.34-12.54,10.72-3.48,2.38-6.86,3.57-10.14,3.57-2.58,0-4.62-.89-6.12-2.67-1.5-1.78-2.26-4.17-2.26-7.18,0-4.22,1.05-9.57,3.16-16.05,2.11-6.48,3.16-10.43,3.16-11.84,0-1.25-.64-1.88-1.93-1.88-.39,0-.86,.14-1.41,.41-.59,.27-1.25,.67-1.99,1.17-.74,.55-1.54,1.21-2.4,1.99-.86,.78-1.76,1.68-2.69,2.7-1.02,1.02-2.03,2.13-3.05,3.34-1.72,2.03-2.73,3.73-3.05,5.1l-1.95,8.38-3.54,13.83-14.84,2.69,5.68-24.14c.43-1.76,.94-4.34,1.52-7.73s.88-5.43,.88-6.09c0-1.33-.45-1.99-1.35-1.99-.27,0-.67,.14-1.17,.41-.59,.27-1.25,.68-1.99,1.23-.86,.62-1.78,1.37-2.75,2.23-1.05,.94-2.19,2.01-3.4,3.22-1.29,1.29-2.62,2.72-3.98,4.28-1.88,2.11-3.05,4.57-3.52,7.38-.62,3.36-1.05,6.37-1.29,9.02-.27,2.66-.43,5.62-.47,8.91l-13.01,3.11c-.31-4.49-.47-8.24-.47-11.25,0-7.15,.74-13.37,2.23-18.66,1.48-5.29,3.91-11.47,7.27-18.54l14.18-2.75c-2.54,6.37-4.51,12.52-5.92,18.46,10.51-12.23,18.55-18.34,24.14-18.34,2.03,0,3.68,.83,4.95,2.49,1.27,1.66,1.9,3.84,1.9,6.53,0,1.25-.2,3.55-.59,6.91,6.6-6.6,11.34-10.91,14.21-12.92,2.87-2.01,5.52-3.02,7.94-3.02,2.15,0,3.91,.86,5.28,2.58,1.37,1.72,2.05,3.91,2.05,6.56,0,4.18-1.15,9.55-3.45,16.12-2.3,6.56-3.45,10.9-3.45,13.01s.8,3.28,2.4,3.28c1.01,0,2.43-.67,4.24-2.02,1.81-1.35,4.98-4.44,9.51-9.29v6.74Z"/><path class="cls-3" d="M620.71,1668.56c2.81-3.4,5.46-5.91,7.96-7.53,2.5-1.62,5.27-2.43,8.31-2.43,3.94,0,7.15,1.51,9.63,4.54,2.48,3.03,3.72,7,3.72,11.92,0,8.63-2.98,16.55-8.94,23.76s-12.43,10.81-19.43,10.81c-1.95,0-3.5-.21-4.63-.64-1.13-.43-2.62-1.43-4.45-2.99-2.81,12.38-4.62,22.31-5.44,29.77l-14.88,2.64c2.77-18.28,6.31-36.8,10.61-55.55-5.16,6.76-8.63,10.92-10.43,12.48h-1.35v-5.27c7.42-8.01,13.54-17.73,18.34-29.18l13.25-2.4-2.27,10.08Zm-6.78,31.34c2.03,3.36,4.28,5.04,6.74,5.04,3.95,0,7.44-3,10.47-8.99,3.03-6,4.54-11.84,4.54-17.55,0-3.01-.62-5.44-1.84-7.29-1.23-1.85-2.82-2.78-4.77-2.78-1.52,0-3.12,.68-4.8,2.05-1.68,1.37-2.95,2.96-3.81,4.78-.86,1.82-1.83,4.99-2.93,9.52l-3.6,15.23Z"/><path class="cls-3" d="M704.06,1695.34c-9.81,9.61-17.36,14.41-22.68,14.41-2.38,0-4.39-1.01-6.04-3.02s-2.46-4.5-2.46-7.47c0-5.51,2.95-12.89,8.85-22.15-2.89,1.49-6.06,2.52-9.49,3.11-2.54,4.69-6.52,9.73-11.95,15.12h-1.35v-5.27c3.05-3.16,5.8-6.56,8.26-10.2-3.36-1.48-5.04-3.69-5.04-6.62s1.03-6.22,3.08-9.64c2.05-3.42,4.87-5.13,8.47-5.13,3.05,0,4.57,1.56,4.57,4.69,0,2.46-.88,5.98-2.64,10.55,6.48-.7,12.15-5.66,16.99-14.88l5.33-.23-5.45,15c-2.27,6.33-3.73,10.63-4.39,12.92-.67,2.29-1,4.31-1,6.06,0,1.64,.38,2.95,1.14,3.93,.76,.98,1.79,1.46,3.08,1.46,1.41,0,2.75-.48,4.04-1.44,1.29-.96,4.18-3.6,8.67-7.94v6.74Z"/><path class="cls-3" d="M747.89,1695.34c-4.96,4.88-9.41,8.49-13.36,10.81-3.95,2.32-8.3,3.49-13.07,3.49-5.31,0-9.6-1.7-12.86-5.1-3.26-3.4-4.89-7.87-4.89-13.42,0-8.28,2.87-15.77,8.61-22.47,5.74-6.7,12.11-10.05,19.1-10.05,3.63,0,6.54,.94,8.73,2.81,2.19,1.88,3.28,4.34,3.28,7.38,0,8.09-8.59,14.65-25.78,19.69,1.56,7.62,5.64,11.43,12.25,11.43,2.58,0,5.04-.69,7.38-2.08,2.34-1.39,5.88-4.46,10.61-9.23v6.74Zm-30.7-10.84c10-2.81,15-8.01,15-15.59,0-3.75-1.37-5.62-4.1-5.62-2.58,0-5.04,1.96-7.38,5.89s-3.52,9.03-3.52,15.32Z"/><path class="cls-3" d="M765.94,1661c2.7-.7,5.41-1.28,8.14-1.73,2.73-.45,4.37-.67,4.92-.67,.39,0,.59,.16,.59,.47,0,.59-.16,1.19-.47,1.81-.62,1.8-.94,3.51-.94,5.15,0,2.03,1.18,4.8,3.52,8.32,2.34,3.52,3.51,6.78,3.51,9.79,0,5.98-2.86,11.74-8.58,17.29-5.72,5.55-11.65,8.32-17.78,8.32-2.66,0-5.08-.7-7.27-2.11-2.19-1.41-3.28-2.91-3.28-4.51,0-.94,1.08-2.71,3.25-5.33,2.17-2.62,3.72-3.93,4.66-3.93,1.25,0,2.36,1.6,3.34,4.8,.98,3.2,2.66,4.8,5.04,4.8s4.62-1.1,6.71-3.31c2.09-2.21,3.13-4.58,3.13-7.12,0-2.46-1.33-5.74-3.98-9.84-2.66-4.1-4.42-7.54-5.28-10.31-4.53,7.3-10.27,14.79-17.23,22.44h-1.35v-5.27c9.57-10.2,16.02-19.88,19.34-29.06Z"/><path class="cls-3" d="M814.63,1661c2.7-.7,5.41-1.28,8.14-1.73,2.73-.45,4.37-.67,4.92-.67,.39,0,.59,.16,.59,.47,0,.59-.16,1.19-.47,1.81-.62,1.8-.94,3.51-.94,5.15,0,2.03,1.18,4.8,3.52,8.32,2.34,3.52,3.51,6.78,3.51,9.79,0,5.98-2.86,11.74-8.58,17.29-5.72,5.55-11.65,8.32-17.78,8.32-2.66,0-5.08-.7-7.27-2.11-2.19-1.41-3.28-2.91-3.28-4.51,0-.94,1.08-2.71,3.25-5.33,2.17-2.62,3.72-3.93,4.66-3.93,1.25,0,2.36,1.6,3.34,4.8,.98,3.2,2.66,4.8,5.04,4.8s4.62-1.1,6.71-3.31c2.09-2.21,3.13-4.58,3.13-7.12,0-2.46-1.33-5.74-3.98-9.84-2.66-4.1-4.42-7.54-5.28-10.31-4.53,7.3-10.27,14.79-17.23,22.44h-1.35v-5.27c9.57-10.2,16.02-19.88,19.34-29.06Z"/></g><g><path class="cls-1" d="M353.98,142.06c-5.24,5.58-10.05,8.37-14.42,8.37-2.42,0-4.33-.85-5.74-2.56s-2.2-4.15-2.36-7.31c-2.76,3.35-5.2,5.83-7.33,7.45s-4.4,2.43-6.82,2.43c-3.1,0-5.59-1.34-7.47-4.02-1.88-2.68-2.82-6.25-2.82-10.72,0-5.33,1.23-10.83,3.69-16.49,2.46-5.66,6.11-10.13,10.94-13.42s10.69-4.92,17.57-4.92c5.15,0,9.81,.7,13.98,2.08v2.26c-3.4,3.96-6.24,9.51-8.53,16.65-2.29,7.13-3.44,12.57-3.44,16.3,0,1.82,.37,3.24,1.11,4.24,.74,1,1.77,1.5,3.09,1.5,2.37,0,5.22-1.93,8.54-5.78v3.93Zm-9.95-36.85c-2.1-1.14-4.35-1.71-6.77-1.71-3.81,0-7.24,1.59-10.29,4.77s-5.46,7.39-7.23,12.63c-1.77,5.24-2.65,9.79-2.65,13.64,0,2.58,.5,4.67,1.49,6.27,.99,1.61,2.26,2.41,3.81,2.41,2.69,0,5.78-2.45,9.26-7.35,1.44-12.85,5.56-23.07,12.37-30.66Z"/><path class="cls-1" d="M379.51,142.03c-5.72,5.61-10.13,8.41-13.23,8.41-1.39,0-2.56-.59-3.52-1.76s-1.44-2.63-1.44-4.36c0-3.21,1.72-7.52,5.16-12.92-1.69,.87-3.53,1.47-5.54,1.81-1.48,2.73-3.8,5.67-6.97,8.82h-.79v-3.08c1.78-1.85,3.38-3.83,4.82-5.95-1.96-.87-2.94-2.15-2.94-3.86s.6-3.63,1.79-5.62c1.2-1.99,2.84-2.99,4.94-2.99,1.78,0,2.67,.91,2.67,2.73,0,1.44-.51,3.49-1.54,6.15,3.78-.41,7.09-3.3,9.91-8.68l3.11-.14-3.18,8.75c-1.32,3.69-2.18,6.2-2.56,7.54-.39,1.33-.58,2.51-.58,3.54,0,.96,.22,1.72,.67,2.29,.44,.57,1.04,.85,1.79,.85,.82,0,1.61-.28,2.36-.84,.75-.56,2.44-2.1,5.06-4.63v3.93Z"/><path class="cls-1" d="M405.08,142.03c-2.92,2.87-5.59,4.98-8.02,6.32-2.43,1.34-4.96,2.02-7.61,2.02-2.96,0-5.41-.96-7.33-2.89-1.93-1.93-2.89-4.37-2.89-7.33,0-4.85,1.77-9.34,5.31-13.45,3.54-4.11,7.38-6.17,11.5-6.17,2.03,0,3.68,.56,4.96,1.69s1.91,2.59,1.91,4.39c0,.64-.12,1.12-.36,1.44-.24,.32-.69,.64-1.35,.96l-3.96,1.88c-.48,.23-.83,.34-1.06,.34-.32,0-.48-.23-.48-.68,0-.18,.07-.78,.21-1.79,.14-1.01,.21-1.63,.21-1.86,0-1-.21-1.81-.63-2.43s-.99-.92-1.69-.92c-1.66,0-3.19,1.23-4.56,3.69-1.38,2.46-2.07,5.26-2.07,8.41,0,2.71,.65,4.88,1.95,6.49,1.3,1.62,3.03,2.43,5.2,2.43,1.85,0,3.58-.53,5.21-1.59s3.48-2.68,5.55-4.87v3.93Z"/><path class="cls-1" d="M441.58,142.03c-3.65,3.46-6.26,5.72-7.83,6.77s-3.08,1.57-4.51,1.57c-3.6,0-5.3-3.18-5.09-9.54-2.28,3.26-4.38,5.66-6.31,7.21s-3.91,2.32-5.96,2.32-3.71-.94-5.11-2.82c-1.4-1.88-2.1-4.19-2.1-6.92,0-3.42,.94-6.68,2.82-9.78,1.88-3.1,4.29-5.61,7.23-7.52s5.54-2.87,7.79-2.87c2.85,0,4.84,1.31,5.98,3.93l6.99-3.86h1.92l-3.02,10.02c-1.55,5.04-2.33,8.49-2.33,10.36s.69,2.94,2.08,2.94c.89,0,1.87-.47,2.94-1.42,1.07-.95,2.57-2.39,4.51-4.32v3.93Zm-25.02,1.88c2.28,0,4.43-1.94,6.44-5.83,2.02-3.88,3.02-7.47,3.02-10.75,0-1.28-.29-2.27-.85-2.99-.57-.72-1.33-1.08-2.29-1.08-2.28,0-4.44,1.94-6.48,5.81-2.04,3.87-3.06,7.44-3.06,10.7,0,1.23,.3,2.23,.91,2.99,.6,.76,1.37,1.15,2.31,1.15Z"/><path class="cls-1" d="M475.11,142.03c-5.26,5.56-9.78,8.34-13.54,8.34-1.53,0-2.76-.54-3.69-1.61s-1.4-2.51-1.4-4.31c0-2.44,1-6.16,3.01-11.18,1.07-2.69,1.61-4.4,1.61-5.13s-.29-1.09-.85-1.09c-.32,0-.74,.16-1.27,.48-.48,.32-1.04,.76-1.67,1.33-.57,.52-1.21,1.16-1.91,1.91-.62,.64-1.28,1.37-1.98,2.19l-1.91,2.22c-.84,1.03-1.37,2.11-1.57,3.25-.34,1.94-.57,3.71-.68,5.33-.07,1.21-.1,2.84-.1,4.89l-7.55,1.78c-.25-3.08-.38-5.37-.38-6.87,0-3.67,.43-7.14,1.28-10.42,.86-3.28,2.23-6.97,4.12-11.07l8.34-1.61c-1.75,4.72-2.9,8.43-3.45,11.14,3.73-4.17,6.7-7.06,8.89-8.66,2.19-1.61,4.14-2.41,5.85-2.41,1.16,0,2.13,.44,2.9,1.31,.77,.88,1.16,1.97,1.16,3.29,0,2.18-.98,5.78-2.94,10.8-1.34,3.44-2.02,5.68-2.02,6.7,0,1.37,.56,2.06,1.68,2.06,1.67,0,4.36-2.2,8.09-6.6v3.93Z"/><path class="cls-1" d="M500.64,142.03c-2.89,2.85-5.49,4.95-7.79,6.31-2.3,1.36-4.84,2.03-7.62,2.03-3.1,0-5.6-.99-7.5-2.97s-2.85-4.59-2.85-7.83c0-4.83,1.67-9.2,5.02-13.11,3.35-3.91,7.06-5.86,11.14-5.86,2.12,0,3.82,.55,5.09,1.64,1.28,1.09,1.91,2.53,1.91,4.31,0,4.72-5.01,8.54-15.04,11.48,.91,4.44,3.29,6.67,7.14,6.67,1.5,0,2.94-.4,4.31-1.21,1.37-.81,3.43-2.6,6.19-5.38v3.93Zm-17.91-6.32c5.83-1.64,8.75-4.67,8.75-9.09,0-2.19-.8-3.28-2.39-3.28-1.5,0-2.94,1.15-4.31,3.44s-2.05,5.27-2.05,8.94Z"/><path class="cls-1" d="M511.17,122c1.57-.41,3.15-.75,4.75-1.01,1.6-.26,2.55-.39,2.87-.39,.23,0,.34,.09,.34,.27,0,.34-.09,.69-.27,1.06-.37,1.05-.55,2.05-.55,3.01,0,1.18,.69,2.8,2.05,4.85s2.05,3.96,2.05,5.71c0,3.49-1.67,6.85-5.01,10.08-3.34,3.24-6.8,4.85-10.38,4.85-1.55,0-2.96-.41-4.24-1.23s-1.91-1.7-1.91-2.63c0-.55,.63-1.58,1.9-3.11,1.26-1.53,2.17-2.29,2.72-2.29,.73,0,1.38,.93,1.95,2.8,.57,1.87,1.55,2.8,2.94,2.8s2.7-.64,3.91-1.93,1.83-2.67,1.83-4.15c0-1.44-.77-3.35-2.32-5.74-1.55-2.39-2.58-4.4-3.08-6.02-2.64,4.26-5.99,8.62-10.05,13.09h-.79v-3.08c5.58-5.95,9.34-11.6,11.28-16.95Z"/><path class="cls-1" d="M596.89,142.03c-2.85,2.78-5.29,4.87-7.31,6.25-2.03,1.39-4,2.08-5.91,2.08-1.5,0-2.7-.52-3.57-1.56s-1.31-2.43-1.31-4.19c0-2.46,.62-5.58,1.85-9.37,1.23-3.78,1.85-6.08,1.85-6.9,0-.73-.38-1.09-1.13-1.09-.23,0-.5,.08-.82,.24-.34,.16-.73,.39-1.16,.68-.43,.32-.9,.71-1.4,1.16-.5,.46-1.03,.98-1.57,1.57-.59,.59-1.18,1.24-1.78,1.95-1,1.19-1.59,2.18-1.78,2.97l-1.14,4.89-2.07,8.07-8.66,1.57,3.32-14.08c.25-1.03,.55-2.53,.89-4.51s.51-3.17,.51-3.55c0-.77-.26-1.16-.79-1.16-.16,0-.39,.08-.68,.24-.34,.16-.73,.4-1.16,.72-.5,.36-1.04,.8-1.61,1.3-.62,.55-1.28,1.17-1.98,1.88-.75,.75-1.53,1.58-2.32,2.5-1.09,1.23-1.78,2.67-2.05,4.31-.37,1.96-.62,3.71-.75,5.26-.16,1.55-.25,3.28-.27,5.2l-7.59,1.81c-.18-2.62-.27-4.81-.27-6.56,0-4.17,.43-7.8,1.3-10.89,.87-3.09,2.28-6.69,4.24-10.82l8.27-1.61c-1.48,3.71-2.63,7.3-3.45,10.77,6.13-7.13,10.82-10.7,14.08-10.7,1.18,0,2.15,.48,2.89,1.45,.74,.97,1.11,2.24,1.11,3.81,0,.73-.11,2.07-.34,4.03,3.85-3.85,6.62-6.36,8.29-7.54,1.67-1.17,3.22-1.76,4.63-1.76,1.25,0,2.28,.5,3.08,1.5,.8,1,1.2,2.28,1.2,3.83,0,2.44-.67,5.57-2.01,9.4-1.34,3.83-2.01,6.36-2.01,7.59s.46,1.91,1.4,1.91c.59,0,1.42-.39,2.47-1.18,1.06-.79,2.9-2.59,5.54-5.42v3.93Z"/><path class="cls-1" d="M633.4,142.03c-3.65,3.46-6.26,5.72-7.83,6.77s-3.08,1.57-4.51,1.57c-3.6,0-5.3-3.18-5.09-9.54-2.28,3.26-4.38,5.66-6.31,7.21s-3.91,2.32-5.96,2.32-3.71-.94-5.11-2.82c-1.4-1.88-2.1-4.19-2.1-6.92,0-3.42,.94-6.68,2.82-9.78,1.88-3.1,4.29-5.61,7.23-7.52s5.54-2.87,7.79-2.87c2.85,0,4.84,1.31,5.98,3.93l6.99-3.86h1.92l-3.02,10.02c-1.55,5.04-2.33,8.49-2.33,10.36s.69,2.94,2.08,2.94c.89,0,1.87-.47,2.94-1.42,1.07-.95,2.57-2.39,4.51-4.32v3.93Zm-25.02,1.88c2.28,0,4.43-1.94,6.44-5.83,2.02-3.88,3.02-7.47,3.02-10.75,0-1.28-.29-2.27-.85-2.99-.57-.72-1.33-1.08-2.29-1.08-2.28,0-4.44,1.94-6.48,5.81-2.04,3.87-3.06,7.44-3.06,10.7,0,1.23,.3,2.23,.91,2.99,.6,.76,1.37,1.15,2.31,1.15Z"/><path class="cls-1" d="M658.93,142.03c-2.15,2.16-4.81,4.1-7.99,5.81-.83,6.22-2.41,11-4.75,14.32-2.34,3.33-4.72,4.99-7.16,4.99-1.53,0-2.83-.63-3.9-1.9s-1.61-2.82-1.61-4.67c0-4.47,3.01-8.23,9.02-11.28l2.53-20.58c-4.74,5.92-8.64,10.36-11.69,13.3h-.79v-3.08c3.03-2.89,7.11-7.68,12.24-14.36l2.12-2.73c2.39-.27,5.07-.72,8.03-1.33-1.01,5.42-2.19,13.43-3.55,24.03,2.1-1.05,4.57-3.18,7.41-6.39l.07,3.86Zm-16.6,10.42c-1.91,.89-3.41,2.09-4.51,3.61-1.1,1.52-1.65,3.07-1.65,4.67,0,1.03,.24,1.9,.72,2.62,.48,.72,1.04,1.08,1.67,1.08,1.57,0,2.6-2.01,3.08-6.02l.69-5.95Zm15.85-45.28c-.43,5.56-2.75,8.34-6.94,8.34-1.96,0-3.69-.66-5.2-1.98,1.98-2.53,3.15-4.72,3.52-6.56,1.82,1.12,3.34,1.67,4.55,1.67,1.37,0,2.72-.49,4.07-1.47Z"/><path class="cls-1" d="M684.49,142.03c-2.89,2.85-5.49,4.95-7.79,6.31s-4.84,2.03-7.62,2.03c-3.1,0-5.6-.99-7.5-2.97s-2.85-4.59-2.85-7.83c0-4.83,1.68-9.2,5.03-13.11,3.35-3.91,7.06-5.86,11.14-5.86,2.12,0,3.82,.55,5.09,1.64s1.91,2.53,1.91,4.31c0,4.72-5.01,8.54-15.04,11.48,.91,4.44,3.29,6.67,7.14,6.67,1.5,0,2.94-.4,4.31-1.21,1.37-.81,3.43-2.6,6.19-5.38v3.93Zm-17.91-6.32c5.83-1.64,8.75-4.67,8.75-9.09,0-2.19-.8-3.28-2.39-3.28-1.5,0-2.94,1.15-4.31,3.44s-2.05,5.27-2.05,8.94Z"/><path class="cls-1" d="M721,142.03c-3.01,2.85-5.53,4.95-7.55,6.31-2.03,1.36-3.85,2.03-5.47,2.03-1.8,0-3.19-.72-4.15-2.15s-1.45-3.38-1.45-5.84c-2.51,2.76-4.75,4.79-6.73,6.1s-3.92,1.97-5.81,1.97c-1.73,0-3.12-.72-4.17-2.15s-1.57-3.38-1.57-5.84c0-4.74,1.6-11.42,4.79-20.03l9.13-1.82c-3.75,10.92-5.63,17.93-5.64,21.03,0,2.19,.82,3.28,2.46,3.28,1.19,0,2.65-.96,4.41-2.89,1.75-1.93,2.85-3.61,3.28-5.04l4.48-14.56,9.3-1.88c-2.15,6.86-3.62,11.68-4.42,14.46-.8,2.78-1.2,4.73-1.2,5.85,0,2.14,.73,3.21,2.19,3.21,1.19,0,2.94-1.08,5.27-3.25l2.87-2.7v3.93Z"/><path class="cls-1" d="M746.53,142.03c-5.72,5.61-10.13,8.41-13.23,8.41-1.39,0-2.56-.59-3.52-1.76s-1.44-2.63-1.44-4.36c0-3.21,1.72-7.52,5.16-12.92-1.69,.87-3.53,1.47-5.54,1.81-1.48,2.73-3.8,5.67-6.97,8.82h-.79v-3.08c1.78-1.85,3.38-3.83,4.82-5.95-1.96-.87-2.94-2.15-2.94-3.86s.6-3.63,1.79-5.62c1.2-1.99,2.84-2.99,4.94-2.99,1.78,0,2.67,.91,2.67,2.73,0,1.44-.51,3.49-1.54,6.15,3.78-.41,7.09-3.3,9.91-8.68l3.11-.14-3.18,8.75c-1.32,3.69-2.18,6.2-2.56,7.54-.39,1.33-.58,2.51-.58,3.54,0,.96,.22,1.72,.67,2.29,.44,.57,1.04,.85,1.79,.85,.82,0,1.61-.28,2.36-.84,.75-.56,2.44-2.1,5.06-4.63v3.93Z"/><path class="cls-1" d="M757.06,122c1.57-.41,3.15-.75,4.75-1.01,1.6-.26,2.55-.39,2.87-.39,.23,0,.34,.09,.34,.27,0,.34-.09,.69-.27,1.06-.37,1.05-.55,2.05-.55,3.01,0,1.18,.69,2.8,2.05,4.85s2.05,3.96,2.05,5.71c0,3.49-1.67,6.85-5.01,10.08-3.34,3.24-6.8,4.85-10.38,4.85-1.55,0-2.96-.41-4.24-1.23s-1.91-1.7-1.91-2.63c0-.55,.63-1.58,1.9-3.11,1.26-1.53,2.17-2.29,2.72-2.29,.73,0,1.38,.93,1.95,2.8,.57,1.87,1.55,2.8,2.94,2.8s2.7-.64,3.91-1.93,1.83-2.67,1.83-4.15c0-1.44-.77-3.35-2.32-5.74-1.55-2.39-2.58-4.4-3.08-6.02-2.64,4.26-5.99,8.62-10.05,13.09h-.79v-3.08c5.58-5.95,9.34-11.6,11.28-16.95Z"/></g></g></g><g id="_반짝이"><polygon class="cls-7" points="726.57 546 738.62 592.76 777.42 602.37 738.62 612.9 726.57 660.53 713.87 612.9 675.71 602.37 713.87 592.76 726.57 546"/><polygon class="cls-8" points="223.09 845.01 233.5 885.43 267.04 893.73 233.5 902.84 223.09 944 212.11 902.84 179.13 893.73 212.11 885.43 223.09 845.01"/></g><g id="_여황제"><path class="cls-2" d="M769.69,755c-5.99,11.7-4.19,23.64-3,29-9.8-3.67-18.27-4.72-24-5-7.5-.37-16.14-.69-25,4-2.14,1.13-4.6,2.46-7,5-7.71,8.16-6.43,19.94-6,23,2.53-.9,19.93-6.77,34,3,7.61,5.28,10.66,12.65,12,16,1.67,4.18,5.8,16.5-7,53-9.38,26.74-14.31,40.19-26,44-11.43,3.72-23.22-2.53-26-4-9.33-4.95-13.93-12.29-20-22-3.73-5.96-8.53-14.98-12-27-4.49,8.38-15.22,26.6-31,37-4.84,3.19-9.13,4.97-14,5-8.71,.06-15.16-5.48-18-8-11.52-10.2-15.06-25.41-20-54-2.62-15.18-5.38-32.62-8-52,4.5-2.94,13.56-9.78,19-22,2.54-5.7,3.58-10.98,4-15,2.89-.45,9.54-1.09,17,2,9.02,3.74,13.55,10.59,15,13,3.41-23.85-4.96-43.33-16-47-3.38-1.12-11.36-2.21-20,0-3.41,.87-6.13,2.06-8,3,.28-5.13,.4-19.61-9-34-6.23-9.54-14.03-15.04-19.02-17.91,0-.36,.01-.72,.02-1.09-.31,.16-.65,.34-1,.54-.35-.19-.69-.37-1-.54,0,.36,.01,.72,.02,1.09-5,2.87-12.79,8.38-19.02,17.91-9.4,14.39-9.28,28.87-9,34-1.87-.94-4.59-2.13-8-3-8.64-2.21-16.62-1.12-20,0-11.04,3.67-19.41,23.15-16,47,1.45-2.41,5.98-9.26,15-13,7.46-3.09,14.11-2.45,17-2,.42,4.02,1.46,9.3,4,15,5.44,12.22,14.5,19.06,19,22-2.62,19.38-5.38,36.82-8,52-4.94,28.59-8.48,43.8-20,54-2.84,2.52-9.29,8.06-18,8-4.87-.03-9.16-1.81-14-5-15.78-10.4-26.51-28.62-31-37-3.47,12.02-8.27,21.04-12,27-6.07,9.71-10.67,17.05-20,22-2.78,1.47-14.57,7.72-26,4-11.69-3.81-16.62-17.26-26-44-12.8-36.5-8.67-48.82-7-53,1.34-3.35,4.39-10.72,12-16,14.07-9.77,31.47-3.9,34-3,.43-3.06,1.71-14.84-6-23-2.4-2.54-4.86-3.87-7-5-8.86-4.69-17.5-4.37-25-4-5.73,.28-14.2,1.33-24,5,1.19-5.36,2.99-17.3-3-29-8.84-17.28-31.01-26.96-55-23,22,96.33,44,192.67,66,289,67-.67,141-.33,208-1,67,.67,141,.33,208,1,22-96.33,44-192.67,66-289-23.99-3.96-46.16,5.72-55,23Z"/><rect class="cls-2" x="345.19" y="1042" width="411" height="29"/><polygon class="cls-4" points="546.93 875.81 557.16 952.19 584.73 939.08 571.62 966.65 669.51 976.88 571.62 987.11 584.73 1014.69 557.16 1001.58 546.93 1100 536.7 1001.58 509.13 1014.69 522.23 987.11 431.87 976.88 522.23 966.65 509.13 939.08 536.7 952.19 546.93 875.81"/><circle class="cls-8" cx="373.5" cy="649.5" r="14.5"/><circle class="cls-7" cx="215.5" cy="803.5" r="8.5"/><circle class="cls-8" cx="797" cy="664" r="11"/><circle class="cls-7" cx="897.5" cy="878.5" r="12.5"/><circle class="cls-8" cx="833.5" cy="913.5" r="6.5"/><path class="cls-5" d="M462,1242c-20.65-3.98-43.59-10.97-67-23-102.14-52.5-135.64-161.2-144-192"/><path class="cls-3" d="M345,1175c-3.8-5.26-3.33-11.04-3-15,.09-1.11,1.96-21.14,13-23,5.14-.87,10.29,2.54,13,6,4.57,5.83,3.16,13.04,2,19-.94,4.79-3.63,18.57-12,20-5.34,.91-10.55-3.61-13-7Z"/><path class="cls-3" d="M321,1148c-3.8-5.26-3.33-11.04-3-15,.09-1.11,1.96-21.14,13-23,5.14-.87,10.29,2.54,13,6,4.57,5.83,3.16,13.04,2,19-.94,4.79-3.63,18.57-12,20-5.34,.91-10.55-3.61-13-7Z"/><path class="cls-3" d="M298,1116c-3.8-5.26-3.33-11.04-3-15,.09-1.11,1.96-21.14,13-23,5.14-.87,10.29,2.54,13,6,4.57,5.83,3.16,13.04,2,19-.94,4.79-3.63,18.57-12,20-5.34,.91-10.55-3.61-13-7Z"/><path class="cls-3" d="M279,1077c-3.8-5.26-3.33-11.04-3-15,.09-1.11,1.96-21.14,13-23,5.14-.87,10.29,2.54,13,6,4.57,5.83,3.16,13.04,2,19-.94,4.79-3.63,18.57-12,20-5.34,.91-10.55-3.61-13-7Z"/><path class="cls-3" d="M262,1035c-3.8-5.26-3.33-11.04-3-15,.09-1.11,1.96-21.14,13-23,5.14-.87,10.29,2.54,13,6,4.57,5.83,3.16,13.04,2,19-.94,4.79-3.63,18.57-12,20-5.34,.91-10.55-3.61-13-7Z"/><path class="cls-3" d="M204.83,1035.71c2.75,5.88,8.03,8.27,11.65,9.91,1.01,.46,19.43,8.56,26.42-.18,3.25-4.07,2.78-10.23,1.07-14.28-2.88-6.83-9.86-9.1-15.63-10.98-4.64-1.51-17.99-5.85-23.31,.77-3.39,4.22-1.97,10.97-.2,14.76Z"/><path class="cls-3" d="M217.77,1069.81c2.75,5.88,8.03,8.27,11.65,9.91,1.01,.46,19.43,8.56,26.42-.18,3.25-4.07,2.78-10.23,1.07-14.28-2.88-6.83-9.86-9.1-15.63-10.98-4.64-1.51-17.99-5.85-23.31,.77-3.39,4.22-1.97,10.97-.2,14.76Z"/><path class="cls-3" d="M232.56,1105.46c2.75,5.88,8.03,8.27,11.65,9.91,1.01,.46,19.43,8.56,26.42-.18,3.25-4.07,2.78-10.23,1.07-14.28-2.88-6.83-9.86-9.1-15.63-10.98-4.64-1.51-17.99-5.85-23.31,.77-3.39,4.22-1.97,10.97-.2,14.76Z"/><path class="cls-3" d="M255.41,1141.02c2.75,5.88,8.03,8.27,11.65,9.91,1.01,.46,19.43,8.56,26.42-.18,3.25-4.07,2.78-10.23,1.07-14.28-2.88-6.83-9.86-9.1-15.63-10.98-4.64-1.51-17.99-5.85-23.31,.77-3.39,4.22-1.97,10.97-.2,14.76Z"/><path class="cls-3" d="M279.85,1174.29c2.75,5.88,8.03,8.27,11.65,9.91,1.01,.46,19.43,8.56,26.42-.18,3.25-4.07,2.78-10.23,1.07-14.28-2.88-6.83-9.86-9.1-15.63-10.98-4.64-1.51-17.99-5.85-23.31,.77-3.39,4.22-1.97,10.97-.2,14.76Z"/><path class="cls-3" d="M236.87,1017.44c-5.71-3.08-7.79-8.5-9.22-12.21-.4-1.04-7.41-19.9,1.72-26.36,4.25-3.01,10.37-2.18,14.32-.24,6.65,3.27,8.51,10.38,10.05,16.25,1.24,4.72,4.79,18.3-2.13,23.23-4.41,3.14-11.07,1.33-14.75-.66Z"/><path class="cls-3" d="M465.5,1233.5c-12.9-28.18-26.58-48.44-37-62-8.98-11.69-17.7-21.23-29-39-9.49-14.93-15.95-28.04-20-37,.77,7.33,2.36,18.21,6,31,5.29,18.6,12.02,31.1,24,53,10.06,18.39,15.25,27.74,23,35,11.8,11.05,24.6,16.34,33,19Z"/><path class="cls-3" d="M391,1228c-16.04-1.59-28.19-1-35-1-18.64-.01-32.5-4.55-46-9-13.45-4.44-34.62-13.34-57-32,16.81,15.69,31.71,27.57,43,36,12.83,9.59,20.61,14.42,31,18,8.93,3.08,15.46,3.74,28,5,28.37,2.86,48.07-.98,53-2,4.28-.89,11.7-.89,12-3,.19-1.33-2.47-2.77-5-4-14.55-7.06-24-8-24-8Z"/><path class="cls-5" d="M631,1242c20.65-3.98,43.59-10.97,67-23,102.14-52.5,135.64-161.2,144-192"/><path class="cls-3" d="M748,1175c3.8-5.26,3.33-11.04,3-15-.09-1.11-1.96-21.14-13-23-5.14-.87-10.29,2.54-13,6-4.57,5.83-3.16,13.04-2,19,.94,4.79,3.63,18.57,12,20,5.34,.91,10.55-3.61,13-7Z"/><path class="cls-3" d="M772,1148c3.8-5.26,3.33-11.04,3-15-.09-1.11-1.96-21.14-13-23-5.14-.87-10.29,2.54-13,6-4.57,5.83-3.16,13.04-2,19,.94,4.79,3.63,18.57,12,20,5.34,.91,10.55-3.61,13-7Z"/><path class="cls-3" d="M795,1116c3.8-5.26,3.33-11.04,3-15-.09-1.11-1.96-21.14-13-23-5.14-.87-10.29,2.54-13,6-4.57,5.83-3.16,13.04-2,19,.94,4.79,3.63,18.57,12,20,5.34,.91,10.55-3.61,13-7Z"/><path class="cls-3" d="M814,1077c3.8-5.26,3.33-11.04,3-15-.09-1.11-1.96-21.14-13-23-5.14-.87-10.29,2.54-13,6-4.57,5.83-3.16,13.04-2,19,.94,4.79,3.63,18.57,12,20,5.34,.91,10.55-3.61,13-7Z"/><path class="cls-3" d="M831,1035c3.8-5.26,3.33-11.04,3-15-.09-1.11-1.96-21.14-13-23-5.14-.87-10.29,2.54-13,6-4.57,5.83-3.16,13.04-2,19,.94,4.79,3.63,18.57,12,20,5.34,.91,10.55-3.61,13-7Z"/><path class="cls-3" d="M888.17,1035.71c-2.75,5.88-8.03,8.27-11.65,9.91-1.01,.46-19.43,8.56-26.42-.18-3.25-4.07-2.78-10.23-1.07-14.28,2.88-6.83,9.86-9.1,15.63-10.98,4.64-1.51,17.99-5.85,23.31,.77,3.39,4.22,1.97,10.97,.2,14.76Z"/><path class="cls-3" d="M875.23,1069.81c-2.75,5.88-8.03,8.27-11.65,9.91-1.01,.46-19.43,8.56-26.42-.18-3.25-4.07-2.78-10.23-1.07-14.28,2.88-6.83,9.86-9.1,15.63-10.98,4.64-1.51,17.99-5.85,23.31,.77,3.39,4.22,1.97,10.97,.2,14.76Z"/><path class="cls-3" d="M860.44,1105.46c-2.75,5.88-8.03,8.27-11.65,9.91-1.01,.46-19.43,8.56-26.42-.18-3.25-4.07-2.78-10.23-1.07-14.28,2.88-6.83,9.86-9.1,15.63-10.98,4.64-1.51,17.99-5.85,23.31,.77,3.39,4.22,1.97,10.97,.2,14.76Z"/><path class="cls-3" d="M837.59,1141.02c-2.75,5.88-8.03,8.27-11.65,9.91-1.01,.46-19.43,8.56-26.42-.18-3.25-4.07-2.78-10.23-1.07-14.28,2.88-6.83,9.86-9.1,15.63-10.98,4.64-1.51,17.99-5.85,23.31,.77,3.39,4.22,1.97,10.97,.2,14.76Z"/><path class="cls-3" d="M813.15,1174.29c-2.75,5.88-8.03,8.27-11.65,9.91-1.01,.46-19.43,8.56-26.42-.18-3.25-4.07-2.78-10.23-1.07-14.28,2.88-6.83,9.86-9.1,15.63-10.98,4.64-1.51,17.99-5.85,23.31,.77,3.39,4.22,1.97,10.97,.2,14.76Z"/><path class="cls-3" d="M856.13,1017.44c5.71-3.08,7.79-8.5,9.22-12.21,.4-1.04,7.41-19.9-1.72-26.36-4.25-3.01-10.37-2.18-14.32-.24-6.65,3.27-8.51,10.38-10.05,16.25-1.24,4.72-4.79,18.3,2.13,23.23,4.41,3.14,11.07,1.33,14.75-.66Z"/><path class="cls-3" d="M627.5,1233.5c12.9-28.18,26.58-48.44,37-62,8.98-11.69,17.7-21.23,29-39,9.49-14.93,15.95-28.04,20-37-.77,7.33-2.36,18.21-6,31-5.29,18.6-12.02,31.1-24,53-10.06,18.39-15.25,27.74-23,35-11.8,11.05-24.6,16.34-33,19Z"/><path class="cls-3" d="M702,1228c16.04-1.59,28.19-1,35-1,18.64-.01,32.5-4.55,46-9,13.45-4.44,34.62-13.34,57-32-16.81,15.69-31.71,27.57-43,36-12.83,9.59-20.61,14.42-31,18-8.93,3.08-15.46,3.74-28,5-28.37,2.86-48.07-.98-53-2-4.28-.89-11.7-.89-12-3-.19-1.33,2.47-2.77,5-4,14.55-7.06,24-8,24-8Z"/></g></svg>