<?xml version="1.0" encoding="UTF-8"?><svg xmlns="http://www.w3.org/2000/svg" viewBox="0 0 1080 1944"><defs><style>.cls-1{fill:#fff;}.cls-2{stroke:#3f3730;stroke-miterlimit:10;stroke-width:5px;}.cls-2,.cls-3{fill:#3f3730;}.cls-4{fill:#f6ef84;}.cls-5{fill:#4c5fa9;}.cls-6{fill:#bad6eb;}.cls-7{fill:#c8c0de;}.cls-8{fill:#b1d4f0;}</style></defs><g id="_배경_텍스트"><g><rect class="cls-6" width="1080" height="1944"/><rect class="cls-1" x="74.84" y="186.39" width="930.33" height="1606.64" rx="65.21" ry="65.21"/><path class="cls-2" d="M535.44,1640.05l-23.88-34.32c-.88-1.2-1.74-2.24-2.58-3.12-.84-.88-1.98-1.52-3.42-1.92-.88-.24-1.7-.4-2.46-.48-.76-.08-1.66-.16-2.7-.24-.64,0-1.14-.2-1.5-.6-.36-.4-.54-.84-.54-1.32s.18-.9,.54-1.26c.36-.36,.86-.54,1.5-.54h27.96c.64,0,1.1,.18,1.38,.54,.28,.36,.42,.78,.42,1.26s-.16,.92-.48,1.32c-.32,.4-.8,.6-1.44,.6-.96,.08-1.8,.18-2.52,.3-.72,.12-1.52,.26-2.4,.42-1.44,.32-2.26,.9-2.46,1.74-.2,.84,.02,1.7,.66,2.58l19.08,27.48,18.84-27.48c.8-1.2,.94-2.12,.42-2.76-.52-.64-1.3-1.12-2.34-1.44-1.04-.32-2.18-.54-3.42-.66-1.24-.12-2.22-.18-2.94-.18-.64,0-1.12-.2-1.44-.6-.32-.4-.48-.84-.48-1.32s.16-.9,.48-1.26c.32-.36,.8-.54,1.44-.54h25.68c.64,0,1.12,.18,1.44,.54,.32,.36,.48,.78,.48,1.26s-.16,.92-.48,1.32c-.32,.4-.8,.6-1.44,.6-1.44,.08-2.66,.18-3.66,.3-1,.12-1.9,.26-2.7,.42-1.6,.4-2.8,1.02-3.6,1.86-.8,.84-1.64,1.9-2.52,3.18l-21,30.72,25.32,36.36c.88,1.2,1.74,2.22,2.58,3.06s1.98,1.46,3.42,1.86c.88,.24,1.7,.4,2.46,.48,.76,.08,1.62,.16,2.58,.24,.64,0,1.14,.2,1.5,.6,.36,.4,.54,.84,.54,1.32s-.16,.9-.48,1.26c-.32,.36-.8,.54-1.44,.54h-29.28c-.64,0-1.12-.18-1.44-.54-.32-.36-.48-.78-.48-1.26s.16-.92,.48-1.32c.32-.4,.8-.6,1.44-.6,1.04-.08,2.1-.18,3.18-.3s2.06-.26,2.94-.42c1.44-.32,2.3-.88,2.58-1.68,.28-.8,.1-1.64-.54-2.52l-20.52-29.4-20.04,29.4c-.72,1.12-.88,2-.48,2.64,.4,.64,1.08,1.12,2.04,1.44,.96,.32,2,.54,3.12,.66,1.12,.12,2,.18,2.64,.18s1.12,.2,1.44,.6c.32,.4,.48,.84,.48,1.32s-.14,.9-.42,1.26c-.28,.36-.74,.54-1.38,.54h-25.44c-.64,0-1.14-.18-1.5-.54s-.54-.78-.54-1.26,.18-.92,.54-1.32c.36-.4,.86-.6,1.5-.6,2.8-.16,4.92-.4,6.36-.72,1.52-.4,2.76-.98,3.72-1.74,.96-.76,1.88-1.82,2.76-3.18l22.44-32.76Z"/><g><path class="cls-1" d="M410.88,142.03c-5.1,5.49-9.75,8.24-13.95,8.24-2.55,0-4.5-1.23-5.83-3.69-1.33-2.46-2-5.75-2-9.88,0-3.19,.65-7.58,1.96-13.16,1.31-5.58,3-10.28,5.08-14.08l1.98-3.55c-2.71,2.83-4.93,5.92-6.67,9.28-1.73,3.36-3.8,8.06-6.2,14.1-2.4,6.04-4.22,10.15-5.45,12.34s-2.41,3.97-3.54,5.35c-1.13,1.38-2.13,2.27-3.01,2.68-.88,.41-2.41,.62-4.6,.62-.84,0-1.26-.23-1.26-.68,0-.05,.15-.76,.45-2.15,.3-1.39,.61-3.62,.92-6.68s.54-8.27,.68-15.62,1.21-13.64,3.21-18.88c-2.14,2.44-4.33,8.11-6.57,17.02l-.86,3.35c-2.35,9.27-5.04,15.53-8.08,18.78-3.03,3.25-6.01,4.87-8.93,4.87-1.8,0-3.39-.57-4.76-1.71-1.37-1.14-2.05-2.45-2.05-3.93,0-1.14,.82-2.41,2.46-3.83,1.64-1.41,2.68-2.12,3.11-2.12,.5,0,.83,.17,.99,.51,.16,.34,.37,1.28,.62,2.82s.63,2.54,1.15,3.01c.51,.47,1.16,.7,1.94,.7,1.76,0,3.7-1.76,5.83-5.28s4.07-8.96,5.83-16.32l.99-4.13c.8-3.37,1.59-6.06,2.37-8.07,.78-2.01,1.8-4.01,3.08-6.02,1.85-2.87,2.99-4.4,3.41-4.6,.42-.19,1.21-.35,2.38-.48s2.32-.19,3.49-.19c.46,0,.68,.26,.68,.79,0,.25-.07,.76-.21,1.54-.45,3.19-.66,6.39-.64,9.6l.07,9.16c.04,7.98-.59,14.41-1.91,19.31,1.21-1.46,2.96-5.22,5.26-11.28,3.33-8.59,6.36-15.04,9.09-19.35,1.3-2.07,2.87-4.06,4.7-5.96,1.83-1.9,3.1-2.92,3.81-3.06,2.42-.46,4.45-.68,6.12-.68,.62,0,.92,.17,.92,.51,0,.48-.38,1.55-1.12,3.21-1.77,4.01-3.43,9.44-4.96,16.27s-2.31,12.28-2.32,16.33c0,4.58,1.4,6.87,4.2,6.87,2.28,0,4.99-1.94,8.13-5.81v3.93Z"/><path class="cls-1" d="M427.66,142.03c-5.33,5.61-9.32,8.41-11.96,8.41-1.46,0-2.69-.75-3.69-2.24-1-1.49-1.5-3.37-1.5-5.62,0-4.85,1.64-11.57,4.92-20.17l8.68-1.81h.41l-3.42,10.7c-1.41,4.42-2.12,7.58-2.12,9.47,0,.75,.17,1.36,.5,1.83,.33,.47,.75,.7,1.25,.7,.89,0,1.78-.33,2.68-.97s2.32-2.06,4.26-4.22v3.93Zm-.68-34.79c0,5.47-2.02,8.2-6.05,8.2-1.96,0-3.63-.59-5.02-1.78,1.32-2,2.35-4.26,3.08-6.77,1.8,1.12,3.25,1.68,4.34,1.68,1.23,0,2.45-.45,3.66-1.33Z"/><path class="cls-1" d="M461.22,142.03c-5.26,5.56-9.78,8.34-13.54,8.34-1.53,0-2.76-.54-3.69-1.61-.93-1.07-1.4-2.51-1.4-4.31,0-2.44,1-6.16,3.01-11.18,1.07-2.69,1.61-4.4,1.61-5.13s-.29-1.09-.85-1.09c-.32,0-.74,.16-1.26,.48-.48,.32-1.04,.76-1.67,1.33-.57,.52-1.21,1.16-1.91,1.91-.62,.64-1.28,1.37-1.98,2.19l-1.91,2.22c-.84,1.03-1.37,2.11-1.57,3.25-.34,1.94-.57,3.71-.68,5.33-.07,1.21-.1,2.84-.1,4.89l-7.55,1.78c-.25-3.08-.38-5.37-.38-6.87,0-3.67,.43-7.14,1.28-10.43,.86-3.28,2.23-6.97,4.12-11.07l8.34-1.61c-1.75,4.72-2.91,8.43-3.45,11.14,3.73-4.17,6.7-7.06,8.89-8.67,2.19-1.61,4.15-2.41,5.85-2.41,1.16,0,2.13,.44,2.9,1.31,.77,.88,1.16,1.97,1.16,3.29,0,2.18-.98,5.78-2.94,10.8-1.34,3.44-2.02,5.68-2.02,6.7,0,1.37,.56,2.06,1.68,2.06,1.67,0,4.36-2.2,8.09-6.6v3.93Z"/><path class="cls-1" d="M491.88,142.03c-1.16,1.03-2.29,1.75-3.38,2.17-1.09,.42-1.96,.63-2.6,.63-1.64,0-3.27-.64-4.89-1.91-3.28,4.97-7.04,7.45-11.28,7.45-2.64,0-4.79-.99-6.43-2.97s-2.46-4.62-2.46-7.9c0-5.2,1.85-9.66,5.54-13.38s8.1-5.59,13.23-5.59c1.94,0,3.35,.21,4.25,.63,.9,.42,1.45,.92,1.66,1.49,.21,.57,.31,1.29,.31,2.15,0,4.26-1.16,9.49-3.49,15.69,1.16,1.07,2.38,1.61,3.66,1.61,1.53,0,3.49-1.33,5.88-4v3.93Zm-11.28-19.11c-.34-.14-.83-.21-1.47-.21-2.96,0-5.28,1.55-6.96,4.65-1.67,3.1-2.51,6.72-2.51,10.87,0,2.3,.36,4.09,1.09,5.37,.73,1.28,1.74,1.91,3.04,1.91,1.62,0,3.37-1.49,5.26-4.48-2.14-2.69-3.21-5.58-3.21-8.68,0-3.65,1.58-6.79,4.75-9.43Z"/><path class="cls-1" d="M517.42,142.03c-5.72,5.61-10.13,8.41-13.23,8.41-1.39,0-2.56-.59-3.52-1.76s-1.44-2.63-1.44-4.36c0-3.21,1.72-7.52,5.16-12.92-1.69,.87-3.53,1.47-5.54,1.81-1.48,2.73-3.81,5.67-6.97,8.82h-.79v-3.08c1.78-1.85,3.38-3.83,4.82-5.95-1.96-.87-2.94-2.15-2.94-3.86s.6-3.63,1.79-5.62c1.2-1.99,2.84-2.99,4.94-2.99,1.78,0,2.67,.91,2.67,2.73,0,1.44-.51,3.49-1.54,6.15,3.78-.41,7.09-3.3,9.91-8.68l3.11-.14-3.18,8.75c-1.32,3.69-2.18,6.2-2.56,7.54-.39,1.33-.58,2.51-.58,3.54,0,.96,.22,1.72,.67,2.29,.44,.57,1.04,.86,1.79,.86,.82,0,1.61-.28,2.36-.84s2.44-2.1,5.06-4.63v3.93Z"/><path class="cls-1" d="M582.32,142.06c-5.24,5.58-10.05,8.37-14.42,8.37-2.42,0-4.33-.85-5.74-2.56-1.41-1.71-2.2-4.15-2.36-7.31-2.76,3.35-5.2,5.83-7.33,7.45-2.13,1.62-4.4,2.43-6.82,2.43-3.1,0-5.59-1.34-7.47-4.02-1.88-2.68-2.82-6.25-2.82-10.71,0-5.33,1.23-10.83,3.69-16.49s6.11-10.13,10.94-13.42c4.83-3.28,10.69-4.92,17.57-4.92,5.15,0,9.81,.7,13.98,2.09v2.26c-3.4,3.96-6.24,9.51-8.53,16.64-2.29,7.13-3.44,12.57-3.44,16.3,0,1.82,.37,3.24,1.11,4.24,.74,1,1.77,1.5,3.09,1.5,2.37,0,5.22-1.93,8.54-5.78v3.93Zm-9.95-36.85c-2.1-1.14-4.35-1.71-6.77-1.71-3.81,0-7.24,1.59-10.29,4.77-3.05,3.18-5.46,7.39-7.23,12.63-1.77,5.24-2.65,9.79-2.65,13.64,0,2.57,.5,4.67,1.49,6.27,.99,1.61,2.26,2.41,3.81,2.41,2.69,0,5.78-2.45,9.26-7.35,1.44-12.85,5.56-23.07,12.37-30.66Z"/><path class="cls-1" d="M607.85,142.03c-5.72,5.61-10.13,8.41-13.23,8.41-1.39,0-2.56-.59-3.52-1.76s-1.44-2.63-1.44-4.36c0-3.21,1.72-7.52,5.16-12.92-1.69,.87-3.53,1.47-5.54,1.81-1.48,2.73-3.81,5.67-6.97,8.82h-.79v-3.08c1.78-1.85,3.38-3.83,4.82-5.95-1.96-.87-2.94-2.15-2.94-3.86s.6-3.63,1.79-5.62c1.2-1.99,2.84-2.99,4.94-2.99,1.78,0,2.67,.91,2.67,2.73,0,1.44-.51,3.49-1.54,6.15,3.78-.41,7.09-3.3,9.91-8.68l3.11-.14-3.18,8.75c-1.32,3.69-2.18,6.2-2.56,7.54-.39,1.33-.58,2.51-.58,3.54,0,.96,.22,1.72,.67,2.29,.44,.57,1.04,.86,1.79,.86,.82,0,1.61-.28,2.36-.84s2.44-2.1,5.06-4.63v3.93Z"/><path class="cls-1" d="M633.42,142.03c-2.92,2.87-5.59,4.98-8.02,6.32-2.43,1.34-4.96,2.02-7.6,2.02-2.96,0-5.41-.96-7.33-2.89-1.93-1.92-2.89-4.37-2.89-7.33,0-4.85,1.77-9.34,5.31-13.45,3.54-4.11,7.38-6.17,11.5-6.17,2.03,0,3.68,.56,4.96,1.69,1.28,1.13,1.91,2.59,1.91,4.39,0,.64-.12,1.12-.36,1.44-.24,.32-.69,.64-1.35,.96l-3.96,1.88c-.48,.23-.83,.34-1.06,.34-.32,0-.48-.23-.48-.68,0-.18,.07-.78,.21-1.79,.14-1.01,.21-1.63,.21-1.86,0-1-.21-1.81-.63-2.43s-.99-.92-1.69-.92c-1.66,0-3.18,1.23-4.56,3.69-1.38,2.46-2.07,5.26-2.07,8.41,0,2.71,.65,4.88,1.95,6.49,1.3,1.62,3.03,2.43,5.2,2.43,1.85,0,3.58-.53,5.21-1.59s3.48-2.68,5.55-4.87v3.93Z"/><path class="cls-1" d="M669.92,142.03c-3.65,3.46-6.25,5.72-7.83,6.77-1.57,1.05-3.08,1.57-4.51,1.57-3.6,0-5.3-3.18-5.09-9.54-2.28,3.26-4.38,5.66-6.31,7.21-1.93,1.55-3.91,2.32-5.96,2.32s-3.71-.94-5.11-2.82c-1.4-1.88-2.1-4.19-2.1-6.92,0-3.42,.94-6.68,2.82-9.78,1.88-3.1,4.29-5.61,7.23-7.52s5.54-2.87,7.79-2.87c2.85,0,4.84,1.31,5.98,3.93l6.99-3.86h1.92l-3.01,10.01c-1.55,5.04-2.33,8.49-2.33,10.36,0,1.96,.69,2.94,2.08,2.94,.89,0,1.87-.47,2.94-1.42,1.07-.95,2.57-2.39,4.51-4.32v3.93Zm-25.02,1.88c2.28,0,4.43-1.94,6.44-5.83,2.02-3.88,3.02-7.47,3.02-10.75,0-1.28-.29-2.27-.85-2.99-.57-.72-1.33-1.08-2.29-1.08-2.28,0-4.44,1.94-6.48,5.81-2.04,3.87-3.06,7.44-3.06,10.7,0,1.23,.3,2.23,.91,2.99,.6,.76,1.37,1.15,2.31,1.15Z"/><path class="cls-1" d="M703.46,142.03c-5.26,5.56-9.78,8.34-13.54,8.34-1.53,0-2.76-.54-3.69-1.61-.93-1.07-1.4-2.51-1.4-4.31,0-2.44,1-6.16,3.01-11.18,1.07-2.69,1.61-4.4,1.61-5.13s-.29-1.09-.85-1.09c-.32,0-.74,.16-1.26,.48-.48,.32-1.04,.76-1.67,1.33-.57,.52-1.21,1.16-1.91,1.91-.62,.64-1.28,1.37-1.98,2.19l-1.91,2.22c-.84,1.03-1.37,2.11-1.57,3.25-.34,1.94-.57,3.71-.68,5.33-.07,1.21-.1,2.84-.1,4.89l-7.55,1.78c-.25-3.08-.38-5.37-.38-6.87,0-3.67,.43-7.14,1.28-10.43,.86-3.28,2.23-6.97,4.12-11.07l8.34-1.61c-1.75,4.72-2.91,8.43-3.45,11.14,3.73-4.17,6.7-7.06,8.89-8.67,2.19-1.61,4.15-2.41,5.85-2.41,1.16,0,2.13,.44,2.9,1.31,.77,.88,1.16,1.97,1.16,3.29,0,2.18-.98,5.78-2.94,10.8-1.34,3.44-2.02,5.68-2.02,6.7,0,1.37,.56,2.06,1.68,2.06,1.67,0,4.36-2.2,8.09-6.6v3.93Z"/><path class="cls-1" d="M739.92,142.03c-3.65,3.46-6.25,5.72-7.83,6.77-1.57,1.05-3.08,1.57-4.51,1.57-3.6,0-5.3-3.18-5.09-9.54-2.28,3.26-4.38,5.66-6.31,7.21-1.93,1.55-3.91,2.32-5.96,2.32s-3.71-.94-5.11-2.82c-1.4-1.88-2.1-4.19-2.1-6.92,0-3.42,.94-6.68,2.82-9.78,1.88-3.1,4.29-5.61,7.23-7.52s5.54-2.87,7.79-2.87c2.85,0,4.84,1.31,5.98,3.93l6.99-3.86h1.92l-3.01,10.01c-1.55,5.04-2.33,8.49-2.33,10.36,0,1.96,.69,2.94,2.08,2.94,.89,0,1.87-.47,2.94-1.42,1.07-.95,2.57-2.39,4.51-4.32v3.93Zm-25.02,1.88c2.28,0,4.43-1.94,6.44-5.83,2.02-3.88,3.02-7.47,3.02-10.75,0-1.28-.29-2.27-.85-2.99-.57-.72-1.33-1.08-2.29-1.08-2.28,0-4.44,1.94-6.48,5.81-2.04,3.87-3.06,7.44-3.06,10.7,0,1.23,.3,2.23,.91,2.99,.6,.76,1.37,1.15,2.31,1.15Z"/></g><g><path class="cls-1" d="M472.58,1852.82c-4.1,7.7-8.57,11.55-13.4,11.55-2.53,0-4.56-.93-6.08-2.79-1.53-1.86-2.29-4.31-2.29-7.37,0-3.55,1.27-8.96,3.81-16.2s3.81-12.37,3.81-15.38c0-1.34-.38-2.46-1.15-3.35s-1.71-1.33-2.85-1.33c-1.75,0-3.5,1.07-5.23,3.21-1.73,2.14-2.6,4.33-2.6,6.56,0,1.71,.77,3.49,2.32,5.33,.64,.78,.96,1.31,.96,1.61,0,.34-.49,1.11-1.47,2.29-.98,1.19-1.82,1.78-2.53,1.78-.75,0-1.61-.55-2.56-1.64s-1.44-2.72-1.44-4.89c0-4.4,1.54-8.4,4.63-12,3.09-3.6,6.5-5.4,10.24-5.4,2.8,0,5.17,1.16,7.11,3.48,1.94,2.32,2.91,5.21,2.91,8.67-.03,3.64-1.21,8.8-3.54,15.47-2.33,6.67-3.48,11.13-3.47,13.39,0,1.07,.27,1.92,.82,2.55,.55,.63,1.28,.94,2.19,.94,1.98,0,3.95-1.62,5.91-4.85,1.96-3.23,3.75-7.87,5.37-13.91l3.21-12.03c1.25-4.74,2.65-8.88,4.2-12.41,.16-.39,1.22-.69,3.19-.91,1.97-.22,3.4-.33,4.29-.33s1.33,.18,1.33,.54l-6.26,23.86c-1.79,7-2.68,12.11-2.68,15.35,0,1.41,.3,2.54,.89,3.37,.59,.83,1.39,1.25,2.39,1.25,1.48,0,3.5-1.21,6.07-3.64,2.56-2.43,4.72-5.53,6.48-9.3,1.75-3.77,2.63-7.63,2.63-11.57,0-4.22-1.03-8.41-3.08-12.58-.57-1.21-.85-1.96-.85-2.26,0-.98,.94-2.06,2.82-3.25,1.88-1.18,3.23-1.78,4.05-1.78,.77,0,1.56,1.03,2.34,3.09,.79,2.06,1.18,4.22,1.18,6.48,0,5.99-1.4,12.13-4.2,18.41s-6.29,11.43-10.46,15.47-7.94,6.05-11.31,6.05c-2.39,0-4.29-.96-5.69-2.89-1.4-1.92-2.07-4.81-2-8.67Z"/><path class="cls-1" d="M542.65,1856.03c-3.65,3.46-6.25,5.72-7.83,6.77-1.57,1.05-3.08,1.57-4.51,1.57-3.6,0-5.3-3.18-5.09-9.54-2.28,3.26-4.38,5.66-6.31,7.21-1.93,1.55-3.91,2.32-5.96,2.32s-3.71-.94-5.11-2.82c-1.4-1.88-2.1-4.19-2.1-6.92,0-3.42,.94-6.68,2.82-9.78,1.88-3.1,4.29-5.61,7.23-7.52s5.54-2.87,7.79-2.87c2.85,0,4.84,1.31,5.98,3.93l6.99-3.86h1.92l-3.01,10.01c-1.55,5.04-2.33,8.49-2.33,10.36,0,1.96,.69,2.94,2.08,2.94,.89,0,1.87-.47,2.94-1.42,1.07-.95,2.57-2.39,4.51-4.32v3.93Zm-25.02,1.88c2.28,0,4.43-1.94,6.44-5.83,2.02-3.88,3.02-7.47,3.02-10.75,0-1.28-.29-2.27-.85-2.99-.57-.72-1.33-1.08-2.29-1.08-2.28,0-4.44,1.94-6.48,5.81-2.04,3.87-3.06,7.44-3.06,10.7,0,1.23,.3,2.23,.91,2.99,.6,.76,1.37,1.15,2.31,1.15Z"/><path class="cls-1" d="M576.18,1856.03c-5.26,5.56-9.78,8.34-13.54,8.34-1.53,0-2.76-.54-3.69-1.61-.93-1.07-1.4-2.51-1.4-4.31,0-2.44,1-6.16,3.01-11.18,1.07-2.69,1.61-4.4,1.61-5.13s-.29-1.09-.85-1.09c-.32,0-.74,.16-1.26,.48-.48,.32-1.04,.76-1.67,1.33-.57,.52-1.21,1.16-1.91,1.91-.62,.64-1.28,1.37-1.98,2.19l-1.91,2.22c-.84,1.03-1.37,2.11-1.57,3.25-.34,1.94-.57,3.71-.68,5.33-.07,1.21-.1,2.84-.1,4.89l-7.55,1.78c-.25-3.08-.38-5.37-.38-6.87,0-3.67,.43-7.14,1.28-10.43,.86-3.28,2.23-6.97,4.12-11.07l8.34-1.61c-1.75,4.72-2.91,8.43-3.45,11.14,3.73-4.17,6.7-7.06,8.89-8.67,2.19-1.61,4.15-2.41,5.85-2.41,1.16,0,2.13,.44,2.9,1.31,.77,.88,1.16,1.97,1.16,3.29,0,2.18-.98,5.78-2.94,10.8-1.34,3.44-2.02,5.68-2.02,6.7,0,1.37,.56,2.06,1.68,2.06,1.67,0,4.36-2.2,8.09-6.6v3.93Z"/><path class="cls-1" d="M612.65,1856.03c-3.28,3.26-5.78,5.46-7.5,6.61-1.72,1.15-3.24,1.73-4.56,1.73-1.62,0-2.9-.79-3.84-2.36-.95-1.57-1.43-3.87-1.45-6.9-1.87,3.03-3.9,5.33-6.1,6.9s-4.19,2.36-5.96,2.36c-1.94,0-3.65-.92-5.13-2.75-1.48-1.83-2.22-3.98-2.22-6.44,0-5.08,1.85-9.79,5.55-14.13,3.7-4.34,7.68-6.51,11.95-6.51,1.18,0,2.11,.17,2.79,.51s1.41,.92,2.21,1.74l4.89-20.44c3.99-.93,6.68-1.4,8.07-1.4,.46,0,.68,.18,.68,.55,0,.25-.57,2.61-1.71,7.08-4.55,17.87-6.83,28.64-6.83,32.33,0,.87,.18,1.56,.55,2.08,.36,.52,.84,.79,1.43,.79,1.46,0,3.86-1.89,7.2-5.67v3.93Zm-24.71,1.81c2.23,0,4.32-1.89,6.25-5.67,1.94-3.78,2.91-7.33,2.91-10.63,0-1.34-.3-2.41-.91-3.21-.6-.8-1.4-1.2-2.38-1.2-2.12,0-4.17,1.98-6.15,5.93s-2.97,7.53-2.97,10.71c0,1.25,.29,2.25,.87,2.97,.58,.73,1.37,1.09,2.38,1.09Z"/><path class="cls-1" d="M623.14,1836c1.57-.41,3.16-.75,4.75-1.01,1.59-.26,2.55-.39,2.87-.39,.23,0,.34,.09,.34,.27,0,.34-.09,.69-.27,1.06-.37,1.05-.55,2.05-.55,3.01,0,1.18,.69,2.8,2.05,4.85s2.05,3.96,2.05,5.71c0,3.49-1.67,6.85-5.01,10.08-3.34,3.24-6.8,4.85-10.37,4.85-1.55,0-2.96-.41-4.24-1.23-1.28-.82-1.91-1.7-1.91-2.63,0-.55,.63-1.58,1.9-3.11,1.26-1.53,2.17-2.29,2.72-2.29,.73,0,1.38,.93,1.95,2.8,.57,1.87,1.55,2.8,2.94,2.8s2.69-.64,3.91-1.93,1.83-2.67,1.83-4.15c0-1.44-.77-3.35-2.32-5.74s-2.58-4.4-3.08-6.01c-2.64,4.26-5.99,8.62-10.05,13.09h-.79v-3.08c5.58-5.95,9.34-11.6,11.28-16.95Z"/></g></g></g><g id="_반짝이"><polygon class="cls-7" points="781.65 844.06 798.06 907.73 850.89 920.81 798.06 935.16 781.65 1000 764.36 935.16 712.41 920.81 764.36 907.73 781.65 844.06"/><polygon class="cls-8" points="691.65 1136.06 699.64 1167.07 725.37 1173.44 699.64 1180.42 691.65 1212 683.23 1180.42 657.93 1173.44 683.23 1167.07 691.65 1136.06"/><polygon class="cls-8" points="279.65 933.06 288.69 968.15 317.81 975.36 288.69 983.27 279.65 1019 270.12 983.27 241.49 975.36 270.12 968.15 279.65 933.06"/><circle class="cls-8" cx="837" cy="1009" r="14"/><circle class="cls-7" cx="831.5" cy="1076.5" r="10.5"/><circle class="cls-7" cx="745.5" cy="1258.5" r="12.5"/><circle class="cls-8" cx="712" cy="1290" r="9"/><circle class="cls-7" cx="706.5" cy="1006.5" r="7.5"/><circle class="cls-7" cx="212.5" cy="1039.5" r="7.5"/><circle class="cls-8" cx="289.5" cy="1149.5" r="12.5"/></g><g id="_완드__0"><path class="cls-3" d="M289.83,710.7c-3.08-1.81-10.05-5.78-18.62-3.66-5.48,1.35-12.66,5.45-14.94,11.61-1.71,4.62-.36,9.52,13.48,27.93,8.71,11.59,15.28,19.1,22.02,27.31,7.93,9.65,13.31,16.88,19.59,25.3,16.52,22.16,27.85,40.1,30.49,44.3,6.4,10.2,12.52,21.19,24.76,43.17,10.61,19.06,16.2,29.53,26.3,48.07,8.01,14.7,18.55,33.96,31.25,56.7,23.05,41.28,24.91,43.27,32.73,59.29,10.65,21.79,9.12,22.03,21.56,48.67,8.18,17.52,16.68,33.51,33.34,64.77,21.36,40.1,23.02,41.68,33.78,63.33,15.6,31.4,23.41,47.09,25.02,54.71,5.57,26.22,9.81,34.76,18.3,51.85,1.55,3.11,4.88,9.52,10.68,9.76,4.75,.2,9.66-3.8,12.18-7.56,5.99-8.93,1.11-20.43-3.11-32.02-11.81-32.4-3.99-25.67-15-52.74-9.05-22.25-16.25-31.53-38.62-67.34-23.54-37.67-35.31-56.51-44.02-74.53-16.79-34.74-12.53-38.04-29.8-76.33-7.67-17-10.88-21.6-45.61-81.74-12.9-22.34-31.95-55.33-51-88.93-16.37-28.87-37.08-55.34-49.52-86.34,0,0-20.46-50.97-45.24-65.58Z"/><path class="cls-3" d="M307.91,594.73c.59-3.92,2.02-12.7,9.05-18.11,4.49-3.45,12.13-6.19,18.22-3.32,4.56,2.15,7.39,7.04,12.48,32.58,3.2,16.08,4.7,27.25,6.6,39.11,2.24,13.95,4.26,23.93,6.62,35.57,6.21,30.63,12.53,53.75,14.02,59.15,3.62,13.11,8.01,26.6,16.8,53.58,7.62,23.39,11.96,36.04,19.51,58.62,5.99,17.89,13.8,41.39,22.87,69.33,16.47,50.72,16.78,53.78,23.88,72.55,9.65,25.52,10.81,24.46,22.97,55.19,8,20.21,14.65,39.5,27.63,77.26,16.64,48.43,16.78,51.01,26.26,76.51,13.74,37,20.61,55.49,25.32,62.69,16.21,24.77,19.95,34.84,27.44,54.98,1.36,3.67,4.07,11.34,.58,16.29-2.87,4.05-8.99,5-13.42,4.17-10.52-1.97-16.09-14.83-22.13-27.22-16.9-34.65-16.79-23.05-30.2-52.94-11.02-24.57-13.44-37.63-26.21-83.58-13.44-48.34-20.16-72.52-28.2-93.55-15.51-40.54-20.7-39.6-38.57-83.27-7.94-19.39-9.36-25.56-32.62-100.41-8.64-27.8-21.39-68.85-34.61-110.37-11.35-35.67-18.16-73.07-33.6-107.16,0,0-25.41-56.06-20.69-87.65Z"/><path class="cls-3" d="M696.14,664.49c0-3.67-.15-11.92-6.27-18.41-3.91-4.14-11.01-8.37-17.41-7.18-4.79,.89-8.27,4.65-16.95,26.51-5.46,13.76-8.54,23.5-12.12,33.75-4.21,12.06-7.64,20.6-11.63,30.56-10.51,26.19-20.05,45.59-22.29,50.11-5.44,10.99-11.7,22.14-24.22,44.45-10.85,19.34-16.94,29.75-27.61,48.37-8.46,14.76-19.52,34.15-32.45,57.26-23.48,41.95-24.23,44.63-33.91,59.93-13.16,20.8-14.13,19.57-30.51,44.48-10.77,16.39-20.08,32.25-38.26,63.32-23.32,39.84-23.83,42.13-36.81,62.95-18.83,30.2-28.24,45.3-33.9,50.71-19.48,18.61-24.61,26.83-34.86,43.26-1.87,2.99-5.63,9.29-2.91,14.55,2.23,4.31,8.1,6.58,12.57,6.85,10.61,.65,17.93-9.67,25.65-19.46,21.59-27.36,19.81-16.93,37.28-40.79,14.36-19.62,18.62-30.85,37.78-69.34,20.17-40.5,30.25-60.75,41.18-77.87,21.07-32.99,26.03-30.94,49.87-66.21,10.59-15.66,12.88-20.9,46.5-83.04,12.49-23.08,30.93-57.16,49.89-91.57,16.29-29.55,28.36-61.72,48.44-88.9,0,0,33.02-44.71,32.95-74.28Z"/><path class="cls-3" d="M522.34,538c-2.94-4.29-8.37-5.95-12.6-4.89-3.17,.79-5.28,3.02-12.87,13.32-7.63,10.36-11.44,15.54-12.15,17.29-1.9,4.71-2.63,9.09-3.32,33.61-.24,8.58-.36,12.87-.44,20.81-.27,26.72-5.44,38.47-8.35,63.17-1.85,15.67-.13,14.01-.7,53.35-.36,24.22-.71,48.25-3.31,76.59-2.88,31.42-5.17,31.61-10.42,78.64-2.52,22.6-4.04,36.47-4.84,55.63-1.26,29.96,.68,38.33,.47,65.16-.2,24.87-1.94,27.48-6.73,82.84-3.96,45.73-5.94,68.6-6.54,94.57-1.16,49.63,2.87,50.83-.15,88.56-1.63,20.28-.59,40.98-4.21,60.89-1.81,9.95-4.69,22.43-.44,35.13,.45,1.35,5.4,15.7,12.88,15.33,6.72-.33,11.29-12.35,13.14-17.21,5.3-13.93,4.68-26.07,4.67-38.71-.02-35.06,4.71-33.26,4.93-71.25,.12-20.83-1.25-31.08-1.9-44.43-1.68-34.14,3.19-49.41,11.49-108.51,10.77-76.73,16.17-115.18,15.62-153.78-.28-19.75-2.03-32.5,2.6-51.9,3.84-16.12,9.43-25.71,7.91-42.37-.65-7.14-2.09-9.94-3.43-22.41-1.19-11.09-1.21-19.71-1.18-26.14,.23-46.25,1.96-71.49,1.96-71.49,3.17-46.18,5.13-41.87,7.63-81.46,3.13-49.6-.49-47.71,3.76-68.74,4.95-24.45,12.93-42.28,6.56-51.59Z"/><path class="cls-3" d="M388.72,594.14c-3.06-2.79-7.14-2.71-9.73-.7-1.95,1.51-2.81,3.93-5.37,14.53-2.57,10.67-3.86,16-3.89,17.64-.11,4.43,.49,8.27,6.14,28.86,1.98,7.21,2.96,10.81,4.89,17.44,6.48,22.31,5.92,33.48,10.11,54.82,2.66,13.53,3.41,11.69,12.83,44.59,5.8,20.25,11.55,40.35,16.87,64.63,5.89,26.92,4.39,27.69,12.57,68.24,3.93,19.49,6.37,31.44,10.6,47.6,6.62,25.27,10.02,31.72,16.57,54.11,6.07,20.76,5.54,23.39,16.11,70.75,8.73,39.13,13.1,58.69,19.17,80.47,11.59,41.62,14.62,41.54,21.98,73.75,3.96,17.31,9.82,34.27,12.34,51.81,1.26,8.77,2.43,19.92,8.47,29.36,.64,1,7.57,11.62,12.52,9.32,4.46-2.07,4.55-13.3,4.58-17.84,.11-13.01-3.34-22.95-6.5-33.47-8.75-29.17-5.11-28.94-14.44-60.63-5.11-17.37-8.59-25.53-12.37-36.47-9.65-27.96-10.17-41.98-19.3-93.4-11.86-66.75-17.8-100.19-27.8-132.18-5.12-16.36-9.47-26.51-11.19-43.89-1.43-14.44-.04-23.92-5.22-37.38-2.22-5.77-3.89-7.71-7.9-17.74-3.57-8.91-5.73-16.08-7.32-21.44-11.38-38.56-16.5-60.02-16.5-60.02-9.37-39.28-6.98-36.23-15.16-69.85-10.26-42.12-12.23-39.58-14.6-58.22-2.76-21.68-1.81-38.66-8.44-44.69Z"/><path class="cls-3" d="M529.53,607.52c2.66-3.17,6.71-3.64,9.55-2,2.13,1.24,3.32,3.51,7.27,13.68,3.98,10.22,5.97,15.34,6.23,16.96,.7,4.37,.62,8.26-2.21,29.42-.99,7.41-1.49,11.11-2.5,17.93-3.43,22.98-1.37,33.97-2.66,55.68-.82,13.77-1.81,12.05-6.73,45.91-3.03,20.85-6.03,41.54-8.04,66.31-2.22,27.47-.63,28.03-3.3,69.31-1.28,19.84-2.09,32.01-4.12,48.59-3.17,25.93-5.67,32.78-9.16,55.85-3.23,21.38-2.36,23.92-6.47,72.27-3.4,39.94-5.1,59.92-8.19,82.31-5.9,42.8-8.91,43.12-11.89,76.04-1.6,17.69-5.13,35.27-5.27,53-.07,8.86,.27,20.07-4.45,30.23-.5,1.08-5.94,12.53-11.16,10.91-4.69-1.46-6.29-12.57-6.94-17.06-1.85-12.88,.23-23.19,1.95-34.04,4.76-30.08,1.18-29.37,6.17-62.02,2.74-17.9,5.09-26.46,7.36-37.8,5.81-29.01,4.44-42.96,6.59-95.14,2.79-67.73,4.19-101.68,9.81-134.71,2.88-16.9,5.83-27.54,5.2-45-.53-14.51-3.17-23.71,.16-37.74,1.43-6.01,2.82-8.16,5.45-18.64,2.34-9.31,3.52-16.7,4.37-22.23,6.11-39.74,8.3-61.7,8.3-61.7,4.02-40.19,2.05-36.83,5.65-71.25,4.51-43.12,6.81-40.86,6.66-59.65-.18-21.85-3.39-38.55,2.36-45.42Z"/><path class="cls-3" d="M830.4,741.25c.91-4.2-1.26-7.68-4.38-8.78-2.34-.83-4.94-.22-15.69,3.54-10.81,3.78-16.22,5.67-17.7,6.55-3.99,2.39-7.11,5.07-22.53,21.51-5.4,5.75-8.1,8.63-13.01,14.01-16.52,18.12-26.75,23.91-43.59,39.51-10.68,9.9-8.66,9.51-33.09,36.11-15.04,16.38-29.97,32.63-48.85,50.85-20.93,20.2-22.39,19.34-54.27,49.18-15.32,14.34-24.7,23.15-36.91,35.88-19.09,19.91-23.08,26.46-39.64,44.68-15.35,16.89-17.97,17.92-54.68,53.64-30.33,29.51-45.5,44.26-61.76,61.73-31.08,33.38-29.46,35.94-54.34,60.38-13.37,13.14-25.45,27.71-39.77,39.74-7.15,6.01-16.48,13.28-21.78,23.79-.56,1.12-6.45,13.05-1.86,16.03,4.13,2.68,14.17-3.55,18.23-6.07,11.63-7.22,18.7-15.77,26.45-24.41,21.46-23.94,23.13-20.67,46.53-46.51,12.83-14.17,18.31-21.75,26.11-31.15,19.93-24.03,32.13-32.35,73.2-69.11,53.31-47.72,80.02-71.63,103.34-98.22,11.93-13.6,18.72-23.06,33.31-34.3,12.12-9.34,21.26-13.48,30.58-25.5,3.99-5.15,4.86-7.69,11.72-16.78,6.1-8.08,11.37-13.98,15.33-18.35,28.47-31.47,44.94-47.95,44.94-47.95,30.14-30.15,28.65-26.37,54.37-52.31,32.22-32.51,28.94-32.78,44.31-45.3,17.87-14.55,33.47-23.28,35.44-32.38Z"/><path class="cls-3" d="M617.15,569.51c9.49-8.81,12.57-11.44,16.05-10.86,3.68,.62,3.8,4.16,9.89,12.4,8.32,11.27,12.14,10.12,12.99,16.03,1.09,7.53-4.16,15.84-9.8,24.76-4.94,7.82-7.6,9.23-11.78,17.51-2.82,5.61-3.41,8.54-5.46,14.19-6.83,18.82-12.48,19.72-16.27,32-3.77,12.24,.64,15.21-.71,32.93-.88,11.61-3.61,21.29-9.32,36.85-13,35.41-28.74,66.62-32.66,74.58-10.77,21.87-18.02,46.09-32.51,94.52-15.22,50.87-16.04,65.15-39.17,153.43-4.55,17.39-6.57,24.64-10.07,39.26-6.81,28.41-8.05,37.89-14.52,60.41-3.1,10.8-3.44,10.79-9,28.99-7.04,23.06-7.44,31.19-14.03,48.62-4.22,11.17-4.54,9.64-8.3,19.93-5.19,14.2-5.87,20.6-11.2,42.89-8.04,33.62-12.09,42.45-17.67,50.13-1.36,1.87-10.61,14.59-15.46,12.37-3.28-1.5-3.22-9.2-2.99-14.2,1.61-34.57,18.03-80.35,23.09-94.84,4.87-13.93,11.82-33.96,18.75-60.4,11.48-43.86,6.12-41.34,16.51-77.02,7.71-26.51,13.94-39.12,11.85-58.6-1.16-10.82-3.86-14.19-2.88-24.78,1.51-16.29,9.41-24.69,16.97-41.07,7.05-15.25,4.94-18.35,12.7-47.72,6.06-22.95,7.93-23.79,20.08-61.31,6.19-19.09,14.22-43.89,22.28-75.2,11.87-46.11,7.92-44.61,16.02-65.24,7.51-19.11,14.52-29.6,18.05-51.34,1.24-7.65,.98-10.11,3.43-28.09,2.49-18.28,3.74-27.42,5.68-35.34,3.27-13.31,8.01-32.65,21.52-48.92,.96-1.16,6.62-6.41,17.93-16.9Z"/><path class="cls-3" d="M772.86,654.37c1.64-11.83,2.01-15.52-.03-17.35-2.16-1.94-4.67,.31-13.25,1.86-11.73,2.11-12.73-1.07-17.23,2.27-5.73,4.26-9.02,13.06-12.55,22.51-3.1,8.29-2.82,10.9-6.59,19-2.56,5.48-4.31,7.78-7.27,12.8-9.83,16.72-7.79,20.9-14.53,31.39-6.71,10.44-10.84,9.59-22.5,22.1-7.64,8.19-13.06,16.29-21.16,30.15-18.43,31.55-32.66,62.07-36.33,69.8-10.09,21.23-23.47,41.76-50.23,82.81-28.1,43.12-37.61,53.03-87.93,125.77-9.91,14.33-13.99,20.37-22.48,32.22-16.49,23.01-22.47,30.02-35.04,48.94-6.03,9.08-5.86,9.28-15.86,24.78-12.67,19.64-18.12,25.24-27.1,40.89-5.76,10.03-4.55,9.22-9.91,18.38-7.4,12.64-11.52,17.27-24.46,35.31-19.53,27.21-23.74,35.6-26.43,44.19-.66,2.1-5.12,16.33-1.29,17.97,2.58,1.1,7.89-4,11.25-7.43,23.21-23.75,47.22-64.28,54.88-77.03,7.36-12.25,17.98-29.84,33.05-51.63,25-36.13,25.78-31.07,45.63-61.13,14.75-22.33,20.56-34.58,35.05-46.05,8.05-6.37,11.65-6.87,18.53-14.46,10.58-11.67,12.69-22.22,20.48-37.79,7.26-14.51,10.4-15.21,27.11-39.44,13.06-18.94,12.76-20.68,33.05-53.07,10.32-16.49,23.74-37.9,41.65-63.61,26.37-37.86,27.2-34.36,37.69-53.07,9.72-17.34,13.69-28.7,27.1-45.23,4.72-5.82,6.55-7.27,17.86-20.65,11.5-13.6,17.25-20.4,21.83-26.85,7.69-10.82,18.86-26.55,23.78-45.85,.35-1.38,1.33-8.42,3.27-22.51Z"/><path class="cls-3" d="M446.4,636.62c-6.13-9.01-8.14-11.74-10.88-11.8-2.89-.07-3.44,2.92-9.15,8.95-7.81,8.24-10.57,6.65-11.99,11.54-1.8,6.22,1.15,14.13,4.31,22.62,2.77,7.44,4.63,9.06,6.75,16.77,1.44,5.22,1.51,7.8,2.35,12.94,2.81,17.09,7.01,18.76,8.33,29.81,1.31,11-2.44,12.82-3.68,28.1-.82,10.01,.03,18.67,2.4,32.81,5.39,32.18,13.42,61.22,15.39,68.62,5.43,20.31,7.86,42.06,12.72,85.54,5.1,45.67,3.9,57.94,10.24,136.67,1.25,15.51,1.86,21.99,2.66,34.98,1.56,25.24,1.29,33.49,3.35,53.67,.99,9.68,1.24,9.72,3.16,26.08,2.42,20.73,1.69,27.7,4.49,43.57,1.79,10.17,2.23,8.92,3.79,18.27,2.15,12.9,1.84,18.45,3.05,38.24,1.83,29.86,3.79,38.02,7.07,45.44,.8,1.81,6.23,14.1,10.23,12.99,2.7-.75,3.64-7.3,4.11-11.59,3.21-29.64-3.47-71.17-5.48-84.3-1.93-12.62-4.68-30.75-6.58-54.34-3.15-39.11,.62-36.11-2.73-68.1-2.49-23.77-5.63-35.48-1.53-51.7,2.28-9.01,4.77-11.44,5.38-20.6,.94-14.09-4.02-22.49-7.7-37.62-3.43-14.09-1.42-16.39-3.58-42.59-1.69-20.48-3.01-21.49-7.48-55.32-2.28-17.22-5.24-39.58-7.38-67.48-3.16-41.09-.33-39.18-3.87-58.01-3.29-17.45-7.3-27.49-7.21-46.52,.03-6.7,.55-8.75,.98-24.43,.44-15.93,.66-23.9,.19-30.95-.79-11.83-1.93-29.03-10.17-45.02-.59-1.14-4.24-6.51-11.53-17.24Z"/><polygon class="cls-5" points="516.02 1175.56 473.29 1126.78 429.12 1174.26 433.39 1109.56 368.59 1111.9 417.36 1069.17 369.88 1025 434.59 1029.27 432.25 964.46 474.98 1013.24 519.15 965.76 514.88 1030.46 579.68 1028.12 530.91 1070.86 578.39 1115.02 513.68 1110.75 516.02 1175.56"/><polygon class="cls-4" points="475.64 869.88 499.35 1010.54 563.23 980.17 532.87 1044.06 640.71 1067.76 532.87 1091.46 563.23 1155.35 499.35 1124.98 475.64 1277.41 451.94 1124.98 388.05 1155.35 418.42 1091.46 320.33 1067.76 418.42 1044.06 388.05 980.17 451.94 1010.54 475.64 869.88"/></g></svg>