<?xml version="1.0" encoding="UTF-8"?><svg xmlns="http://www.w3.org/2000/svg" viewBox="0 0 1080 1944"><defs><style>.cls-1{fill:#fff;}.cls-2{fill:none;stroke:#3f3730;stroke-linecap:round;stroke-miterlimit:10;stroke-width:12px;}.cls-3{fill:#f6ef84;}.cls-4{fill:#3f3730;}.cls-5{fill:#4c5fa9;}.cls-6{fill:#bad6eb;}.cls-7{fill:#c8c0de;}.cls-8{fill:#b1d4f0;}</style></defs><g id="_배경_텍스트"><g><rect class="cls-6" width="1080" height="1944"/><rect class="cls-1" x="74.84" y="186.39" width="930.33" height="1606.64" rx="65.21" ry="65.21"/><g><path class="cls-4" d="M250.04,1664.36c-4.41,4.5-8.11,7.81-11.1,9.95-2.99,2.14-5.67,3.21-8.04,3.21s-4.24-.73-5.94-2.2c-1.7-1.47-3.74-3.67-6.1-6.61-7.3,5.87-13.92,8.81-19.85,8.81-5.19,0-9.44-2.13-12.74-6.39-3.31-4.26-4.96-9.76-4.96-16.49,0-7.2,1.41-14.43,4.23-21.7,2.82-7.27,6.4-13.69,10.74-19.25,4.34-5.57,7.91-9.28,10.7-11.15,2.79-1.86,7.05-2.79,12.78-2.79l.11,.75c-8.16,7.66-14.09,15.95-17.78,24.87-3.69,8.92-5.53,17.46-5.53,25.62,0,5.3,1.04,9.44,3.12,12.43,2.08,2.99,4.93,4.48,8.55,4.48,2.4,0,5.14-.95,8.22-2.85-1.79-2.54-3.23-4.22-4.3-5.05-1.08-.82-2.35-1.24-3.82-1.24-.11,0-.46,.06-1.05,.19-.59,.13-.94,.19-1.05,.19-.5,0-.75-.23-.75-.7,0-.93,1.07-2.3,3.2-4.11,2.13-1.81,4.29-2.71,6.48-2.71,1.69,0,3.22,.47,4.6,1.4,1.38,.93,3,2.35,4.87,4.24,11.44-14.57,17.16-28.77,17.16-42.59,0-3.12-.51-5.59-1.53-7.44-1.02-1.84-2.37-2.77-4.04-2.77-3.11,0-5.99,2.35-8.65,7.04-2.66,4.69-3.99,8.83-3.99,12.41,0,2.69,1.2,4.19,3.61,4.51,1.03,.11,1.54,.56,1.54,1.34,0,1.61-.81,3.17-2.44,4.67-1.63,1.5-3.32,2.26-5.08,2.26-2.15,0-3.95-.96-5.4-2.87-1.45-1.92-2.18-4.34-2.18-7.28,0-6.19,2.34-12.21,7.01-18.05,4.67-5.84,9.41-8.75,14.21-8.75,3.4,0,6.07,1.33,8,4,1.93,2.67,2.9,6.35,2.9,11.04,0,14.72-6.24,30.01-18.72,45.87,3.37,4.98,6.49,7.47,9.36,7.47,3.58,0,8.14-3.31,13.66-9.94v6.18Z"/><path class="cls-4" d="M307.35,1664.42c-4.73,4.48-8.68,7.78-11.87,9.91-3.19,2.13-6.05,3.2-8.59,3.2-2.83,0-5-1.13-6.53-3.38s-2.28-5.32-2.28-9.18c-3.94,4.33-7.46,7.53-10.58,9.59-3.12,2.06-6.16,3.09-9.13,3.09-2.72,0-4.91-1.13-6.55-3.38-1.65-2.26-2.47-5.32-2.47-9.18,0-7.45,2.51-17.94,7.52-31.47l14.35-2.86c-5.9,17.17-8.86,28.18-8.87,33.05,0,3.44,1.29,5.15,3.87,5.15,1.86,0,4.17-1.51,6.93-4.54,2.76-3.03,4.48-5.67,5.16-7.92l7.04-22.88,14.62-2.96c-3.38,10.78-5.69,18.35-6.95,22.72-1.26,4.37-1.88,7.43-1.88,9.18,0,3.37,1.15,5.05,3.44,5.05,1.86,0,4.62-1.7,8.28-5.1l4.52-4.24v6.18Z"/><path class="cls-4" d="M347.47,1664.42c-4.55,4.48-8.63,7.78-12.25,9.91-3.62,2.13-7.61,3.2-11.98,3.2-4.87,0-8.8-1.56-11.79-4.67-2.99-3.12-4.48-7.21-4.48-12.3,0-7.59,2.63-14.46,7.9-20.6,5.26-6.14,11.1-9.21,17.51-9.21,3.33,0,6,.86,8,2.58s3.01,3.97,3.01,6.77c0,7.41-7.88,13.43-23.63,18.05,1.43,6.98,5.17,10.47,11.23,10.47,2.36,0,4.62-.64,6.77-1.91,2.15-1.27,5.39-4.09,9.72-8.46v6.18Zm-28.14-9.94c9.17-2.58,13.75-7.34,13.75-14.29,0-3.44-1.25-5.16-3.76-5.16-2.36,0-4.62,1.8-6.77,5.4-2.15,3.6-3.22,8.28-3.22,14.04Z"/><path class="cls-4" d="M387.65,1664.42c-4.55,4.48-8.63,7.78-12.25,9.91-3.62,2.13-7.61,3.2-11.98,3.2-4.87,0-8.8-1.56-11.79-4.67-2.99-3.12-4.48-7.21-4.48-12.3,0-7.59,2.63-14.46,7.9-20.6,5.26-6.14,11.1-9.21,17.51-9.21,3.33,0,6,.86,8,2.58s3.01,3.97,3.01,6.77c0,7.41-7.88,13.43-23.63,18.05,1.43,6.98,5.17,10.47,11.23,10.47,2.36,0,4.62-.64,6.77-1.91,2.15-1.27,5.39-4.09,9.72-8.46v6.18Zm-28.14-9.94c9.17-2.58,13.75-7.34,13.75-14.29,0-3.44-1.25-5.16-3.76-5.16-2.36,0-4.62,1.8-6.77,5.4-2.15,3.6-3.22,8.28-3.22,14.04Z"/><path class="cls-4" d="M440.39,1664.42c-8.27,8.74-15.36,13.11-21.27,13.11-2.4,0-4.33-.84-5.8-2.52s-2.2-3.94-2.2-6.77c0-3.83,1.57-9.69,4.73-17.56,1.68-4.22,2.52-6.91,2.52-8.06s-.45-1.72-1.34-1.72c-.5,0-1.16,.25-1.99,.75-.75,.5-1.63,1.2-2.63,2.09-.9,.82-1.9,1.83-3.01,3.01-.97,1-2.01,2.15-3.12,3.44l-3.01,3.49c-1.33,1.61-2.15,3.31-2.47,5.1-.54,3.04-.9,5.84-1.07,8.38-.11,1.9-.16,4.46-.16,7.68l-11.87,2.79c-.39-4.83-.59-8.43-.59-10.8,0-5.76,.67-11.23,2.01-16.38,1.34-5.16,3.5-10.96,6.47-17.4l13.11-2.52c-2.76,7.41-4.56,13.25-5.42,17.51,5.87-6.55,10.53-11.09,13.98-13.62,3.45-2.53,6.51-3.79,9.2-3.79,1.82,0,3.34,.69,4.56,2.07,1.22,1.38,1.82,3.1,1.82,5.18,0,3.43-1.54,9.09-4.62,16.97-2.11,5.41-3.17,8.92-3.17,10.53,0,2.15,.88,3.23,2.64,3.23,2.62,0,6.86-3.46,12.71-10.37v6.18Z"/><path class="cls-4" d="M516.07,1664.42c-1.83,1.61-3.6,2.75-5.32,3.41-1.72,.66-3.08,.99-4.08,.99-2.58,0-5.14-1-7.68-3.01-5.16,7.81-11.06,11.71-17.72,11.71-4.15,0-7.52-1.56-10.1-4.67s-3.87-7.25-3.87-12.41c0-8.16,2.9-15.17,8.7-21.03,5.8-5.85,12.73-8.78,20.79-8.78,3.04,0,5.27,.33,6.69,.99,1.41,.66,2.28,1.44,2.61,2.34,.32,.9,.48,2.02,.48,3.38,0,6.7-1.83,14.91-5.48,24.65,1.83,1.68,3.74,2.52,5.75,2.52,2.4,0,5.48-2.09,9.24-6.28v6.18Zm-17.72-30.02c-.54-.21-1.31-.32-2.31-.32-4.65,0-8.3,2.44-10.93,7.3-2.63,4.87-3.95,10.56-3.95,17.08,0,3.62,.57,6.43,1.72,8.43,1.14,2.01,2.74,3.01,4.78,3.01,2.54,0,5.3-2.34,8.27-7.04-3.37-4.22-5.05-8.77-5.05-13.64,0-5.73,2.49-10.67,7.47-14.82Z"/><path class="cls-4" d="M559.63,1664.42c-3.72,4.19-7.4,7.42-11.05,9.69-3.65,2.27-6.9,3.41-9.77,3.41-1.36,0-3.22-.52-5.58-1.55-1.51,7.88-2.84,16.38-3.99,25.5-3.73,.5-8.21,1.27-13.44,2.31,1.15-9.81,3.13-22.54,5.96-38.19-.39-.68-1.09-2.4-2.09-5.16l-3.6,3.97h-1.24v-4.83l10.24-10.62c1.95-9.61,3.53-16.56,4.75-20.86,1.22-4.3,2.92-9.05,5.1-14.26,2.18-5.21,3.56-8.2,4.14-8.97,.57-.77,1.96-1.5,4.16-2.2,2.2-.7,4.56-1.36,7.06-1.99,2.51-.63,3.85-.94,4.03-.94,1.36,0,2.47,.89,3.33,2.66s1.29,4.1,1.29,7c0,5.01-1.32,9.84-3.97,14.49-2.64,4.65-7.64,10.37-15,17.17l-4.51,22.45c1.75,3.75,4.38,5.63,7.88,5.63,5,0,10.44-3.63,16.3-10.9v6.18Zm-18.04-30.61c4.19-3.65,7.47-7.58,9.85-11.79,2.38-4.21,3.57-8.08,3.57-11.63,0-1.5-.28-2.74-.83-3.71s-1.24-1.45-2.06-1.45c-1.57,0-3.17,2.06-4.79,6.18-1.62,4.12-3.54,11.58-5.73,22.4Z"/><path class="cls-4" d="M637.51,1659.37c-6.45,12.1-13.46,18.15-21.05,18.15-3.97,0-7.16-1.46-9.56-4.38-2.4-2.92-3.6-6.78-3.6-11.57,0-5.59,2-14.07,5.99-25.46s5.99-19.44,5.99-24.17c0-2.11-.6-3.87-1.8-5.26s-2.7-2.09-4.48-2.09c-2.76,0-5.5,1.68-8.22,5.05-2.72,3.37-4.08,6.8-4.08,10.31,0,2.69,1.22,5.48,3.65,8.38,1,1.22,1.5,2.06,1.5,2.52,0,.54-.77,1.74-2.31,3.6-1.54,1.86-2.87,2.79-3.97,2.79-1.18,0-2.53-.86-4.03-2.58s-2.26-4.28-2.26-7.68c0-6.91,2.43-13.19,7.28-18.85,4.85-5.66,10.21-8.49,16.09-8.49,4.4,0,8.13,1.82,11.17,5.47,3.04,3.65,4.56,8.19,4.56,13.63-.05,5.72-1.91,13.83-5.56,24.3-3.66,10.48-5.47,17.49-5.45,21.04,0,1.69,.43,3.02,1.29,4.01,.86,.99,2,1.48,3.44,1.48,3.12,0,6.21-2.54,9.29-7.63,3.08-5.08,5.89-12.37,8.43-21.86l5.05-18.91c1.97-7.45,4.17-13.95,6.6-19.5,.25-.61,1.92-1.08,5.02-1.42,3.1-.34,5.34-.51,6.74-.51s2.09,.29,2.09,.86l-9.84,37.49c-2.81,11-4.21,19.04-4.21,24.12,0,2.22,.46,3.99,1.4,5.29,.93,1.31,2.18,1.96,3.76,1.96,2.33,0,5.51-1.91,9.54-5.72,4.03-3.81,7.42-8.68,10.18-14.61,2.76-5.93,4.13-11.99,4.13-18.18,0-6.62-1.61-13.21-4.83-19.77-.89-1.9-1.34-3.08-1.34-3.54,0-1.54,1.48-3.24,4.43-5.1,2.95-1.86,5.07-2.79,6.36-2.79,1.22,0,2.45,1.62,3.68,4.86,1.24,3.24,1.85,6.63,1.85,10.18,0,9.42-2.2,19.06-6.61,28.92-4.4,9.87-9.88,17.97-16.44,24.3s-12.48,9.51-17.78,9.51c-3.76,0-6.74-1.51-8.94-4.54-2.2-3.03-3.25-7.56-3.14-13.62Z"/><path class="cls-4" d="M747.62,1664.42c-5.73,5.44-9.83,8.99-12.3,10.63s-4.83,2.47-7.09,2.47c-5.66,0-8.33-5-8-14.99-3.58,5.12-6.88,8.9-9.91,11.33-3.03,2.43-6.15,3.65-9.37,3.65s-5.83-1.48-8.03-4.43c-2.2-2.96-3.3-6.58-3.3-10.88,0-5.37,1.48-10.49,4.43-15.36,2.95-4.87,6.74-8.81,11.36-11.82s8.7-4.51,12.25-4.51c4.48,0,7.61,2.06,9.4,6.18l10.98-6.07h3.01l-4.74,15.74c-2.44,7.91-3.66,13.34-3.66,16.28s1.09,4.62,3.27,4.62c1.4,0,2.94-.74,4.62-2.23,1.68-1.49,4.04-3.75,7.09-6.79v6.18Zm-39.32,2.95c3.58,0,6.96-3.05,10.12-9.16,3.17-6.1,4.75-11.74,4.75-16.89,0-2-.45-3.57-1.34-4.7-.89-1.13-2.09-1.69-3.6-1.69-3.58,0-6.97,3.04-10.18,9.13-3.2,6.09-4.81,11.69-4.81,16.81,0,1.93,.47,3.5,1.42,4.7,.95,1.2,2.16,1.8,3.62,1.8Z"/><path class="cls-4" d="M800.31,1664.42c-8.27,8.74-15.36,13.11-21.27,13.11-2.4,0-4.33-.84-5.8-2.52-1.47-1.68-2.2-3.94-2.2-6.77,0-3.83,1.58-9.69,4.73-17.56,1.68-4.22,2.53-6.91,2.53-8.06s-.45-1.72-1.34-1.72c-.5,0-1.16,.25-1.99,.75-.75,.5-1.63,1.2-2.63,2.09-.89,.82-1.9,1.83-3.01,3.01-.97,1-2.01,2.15-3.12,3.44l-3.01,3.49c-1.32,1.61-2.15,3.31-2.47,5.1-.54,3.04-.89,5.84-1.07,8.38-.11,1.9-.16,4.46-.16,7.68l-11.87,2.79c-.39-4.83-.59-8.43-.59-10.8,0-5.76,.67-11.23,2.01-16.38,1.34-5.16,3.5-10.96,6.47-17.4l13.11-2.52c-2.76,7.41-4.57,13.25-5.43,17.51,5.87-6.55,10.53-11.09,13.98-13.62,3.45-2.53,6.52-3.79,9.2-3.79,1.82,0,3.34,.69,4.56,2.07s1.82,3.1,1.82,5.18c0,3.43-1.54,9.09-4.62,16.97-2.11,5.41-3.17,8.92-3.17,10.53,0,2.15,.88,3.23,2.64,3.23,2.62,0,6.86-3.46,12.71-10.37v6.18Z"/><path class="cls-4" d="M857.62,1664.42c-5.16,5.12-9.09,8.58-11.79,10.39-2.7,1.81-5.09,2.71-7.17,2.71-2.54,0-4.56-1.24-6.04-3.71s-2.25-6.09-2.28-10.85c-2.94,4.76-6.13,8.38-9.59,10.85-3.46,2.47-6.58,3.71-9.37,3.71-3.04,0-5.73-1.44-8.06-4.32-2.33-2.88-3.49-6.26-3.49-10.12,0-7.98,2.91-15.39,8.73-22.21,5.82-6.82,12.08-10.23,18.77-10.23,1.86,0,3.32,.27,4.38,.81,1.06,.54,2.21,1.45,3.46,2.74l7.68-32.12c6.27-1.47,10.5-2.2,12.69-2.2,.72,0,1.08,.29,1.08,.86,0,.39-.89,4.1-2.68,11.12-7.16,28.07-10.73,45.01-10.73,50.81,0,1.36,.29,2.45,.86,3.28s1.32,1.23,2.25,1.23c2.29,0,6.06-2.97,11.31-8.92v6.18Zm-38.83,2.85c3.51,0,6.79-2.97,9.83-8.92,3.04-5.94,4.57-11.51,4.57-16.7,0-2.11-.47-3.79-1.42-5.05-.95-1.25-2.19-1.88-3.73-1.88-3.33,0-6.55,3.11-9.67,9.32-3.12,6.21-4.67,11.83-4.67,16.84,0,1.97,.46,3.53,1.37,4.67,.91,1.15,2.16,1.72,3.73,1.72Z"/><path class="cls-4" d="M874.11,1632.94c2.47-.64,4.96-1.17,7.46-1.58,2.51-.41,4.01-.62,4.51-.62,.36,0,.54,.14,.54,.43,0,.54-.14,1.09-.43,1.66-.57,1.65-.86,3.22-.86,4.72,0,1.86,1.08,4.4,3.23,7.63,2.15,3.22,3.22,6.22,3.22,8.97,0,5.48-2.62,10.76-7.87,15.84-5.25,5.08-10.68,7.63-16.3,7.63-2.44,0-4.65-.64-6.66-1.93s-3.01-2.67-3.01-4.14c0-.86,.99-2.49,2.98-4.89,1.99-2.4,3.41-3.6,4.27-3.6,1.14,0,2.17,1.47,3.06,4.4,.89,2.94,2.44,4.4,4.62,4.4s4.23-1.01,6.15-3.04c1.92-2.02,2.87-4.2,2.87-6.53,0-2.26-1.21-5.26-3.65-9.02s-4.05-6.91-4.84-9.45c-4.15,6.7-9.42,13.55-15.79,20.57h-1.23v-4.83c8.77-9.35,14.68-18.23,17.72-26.64Z"/></g><g><path class="cls-1" d="M410.88,142.03c-5.1,5.49-9.75,8.24-13.95,8.24-2.55,0-4.5-1.23-5.83-3.69-1.33-2.46-2-5.75-2-9.88,0-3.19,.65-7.58,1.96-13.16,1.31-5.58,3-10.28,5.08-14.08l1.98-3.55c-2.71,2.83-4.93,5.92-6.67,9.28-1.73,3.36-3.8,8.06-6.2,14.1-2.4,6.04-4.22,10.15-5.45,12.34s-2.41,3.97-3.54,5.35c-1.13,1.38-2.13,2.27-3.01,2.68-.88,.41-2.41,.62-4.6,.62-.84,0-1.26-.23-1.26-.68,0-.05,.15-.76,.45-2.15,.3-1.39,.61-3.62,.92-6.68s.54-8.27,.68-15.62,1.21-13.64,3.21-18.88c-2.14,2.44-4.33,8.11-6.57,17.02l-.86,3.35c-2.35,9.27-5.04,15.53-8.08,18.78-3.03,3.25-6.01,4.87-8.93,4.87-1.8,0-3.39-.57-4.76-1.71-1.37-1.14-2.05-2.45-2.05-3.93,0-1.14,.82-2.41,2.46-3.83,1.64-1.41,2.68-2.12,3.11-2.12,.5,0,.83,.17,.99,.51,.16,.34,.37,1.28,.62,2.82s.63,2.54,1.15,3.01c.51,.47,1.16,.7,1.94,.7,1.76,0,3.7-1.76,5.83-5.28s4.07-8.96,5.83-16.32l.99-4.13c.8-3.37,1.59-6.06,2.37-8.07,.78-2.01,1.8-4.01,3.08-6.02,1.85-2.87,2.99-4.4,3.41-4.6,.42-.19,1.21-.35,2.38-.48s2.32-.19,3.49-.19c.46,0,.68,.26,.68,.79,0,.25-.07,.76-.21,1.54-.45,3.19-.66,6.39-.64,9.6l.07,9.16c.04,7.98-.59,14.41-1.91,19.31,1.21-1.46,2.96-5.22,5.26-11.28,3.33-8.59,6.36-15.04,9.09-19.35,1.3-2.07,2.87-4.06,4.7-5.96,1.83-1.9,3.1-2.92,3.81-3.06,2.42-.46,4.45-.68,6.12-.68,.62,0,.92,.17,.92,.51,0,.48-.38,1.55-1.12,3.21-1.77,4.01-3.43,9.44-4.96,16.27s-2.31,12.28-2.32,16.33c0,4.58,1.4,6.87,4.2,6.87,2.28,0,4.99-1.94,8.13-5.81v3.93Z"/><path class="cls-1" d="M427.66,142.03c-5.33,5.61-9.32,8.41-11.96,8.41-1.46,0-2.69-.75-3.69-2.24-1-1.49-1.5-3.37-1.5-5.62,0-4.85,1.64-11.57,4.92-20.17l8.68-1.81h.41l-3.42,10.7c-1.41,4.42-2.12,7.58-2.12,9.47,0,.75,.17,1.36,.5,1.83,.33,.47,.75,.7,1.25,.7,.89,0,1.78-.33,2.68-.97s2.32-2.06,4.26-4.22v3.93Zm-.68-34.79c0,5.47-2.02,8.2-6.05,8.2-1.96,0-3.63-.59-5.02-1.78,1.32-2,2.35-4.26,3.08-6.77,1.8,1.12,3.25,1.68,4.34,1.68,1.23,0,2.45-.45,3.66-1.33Z"/><path class="cls-1" d="M461.22,142.03c-5.26,5.56-9.78,8.34-13.54,8.34-1.53,0-2.76-.54-3.69-1.61-.93-1.07-1.4-2.51-1.4-4.31,0-2.44,1-6.16,3.01-11.18,1.07-2.69,1.61-4.4,1.61-5.13s-.29-1.09-.85-1.09c-.32,0-.74,.16-1.26,.48-.48,.32-1.04,.76-1.67,1.33-.57,.52-1.21,1.16-1.91,1.91-.62,.64-1.28,1.37-1.98,2.19l-1.91,2.22c-.84,1.03-1.37,2.11-1.57,3.25-.34,1.94-.57,3.71-.68,5.33-.07,1.21-.1,2.84-.1,4.89l-7.55,1.78c-.25-3.08-.38-5.37-.38-6.87,0-3.67,.43-7.14,1.28-10.43,.86-3.28,2.23-6.97,4.12-11.07l8.34-1.61c-1.75,4.72-2.91,8.43-3.45,11.14,3.73-4.17,6.7-7.06,8.89-8.67,2.19-1.61,4.15-2.41,5.85-2.41,1.16,0,2.13,.44,2.9,1.31,.77,.88,1.16,1.97,1.16,3.29,0,2.18-.98,5.78-2.94,10.8-1.34,3.44-2.02,5.68-2.02,6.7,0,1.37,.56,2.06,1.68,2.06,1.67,0,4.36-2.2,8.09-6.6v3.93Z"/><path class="cls-1" d="M491.88,142.03c-1.16,1.03-2.29,1.75-3.38,2.17-1.09,.42-1.96,.63-2.6,.63-1.64,0-3.27-.64-4.89-1.91-3.28,4.97-7.04,7.45-11.28,7.45-2.64,0-4.79-.99-6.43-2.97s-2.46-4.62-2.46-7.9c0-5.2,1.85-9.66,5.54-13.38s8.1-5.59,13.23-5.59c1.94,0,3.35,.21,4.25,.63,.9,.42,1.45,.92,1.66,1.49,.21,.57,.31,1.29,.31,2.15,0,4.26-1.16,9.49-3.49,15.69,1.16,1.07,2.38,1.61,3.66,1.61,1.53,0,3.49-1.33,5.88-4v3.93Zm-11.28-19.11c-.34-.14-.83-.21-1.47-.21-2.96,0-5.28,1.55-6.96,4.65-1.67,3.1-2.51,6.72-2.51,10.87,0,2.3,.36,4.09,1.09,5.37,.73,1.28,1.74,1.91,3.04,1.91,1.62,0,3.37-1.49,5.26-4.48-2.14-2.69-3.21-5.58-3.21-8.68,0-3.65,1.58-6.79,4.75-9.43Z"/><path class="cls-1" d="M517.42,142.03c-5.72,5.61-10.13,8.41-13.23,8.41-1.39,0-2.56-.59-3.52-1.76s-1.44-2.63-1.44-4.36c0-3.21,1.72-7.52,5.16-12.92-1.69,.87-3.53,1.47-5.54,1.81-1.48,2.73-3.81,5.67-6.97,8.82h-.79v-3.08c1.78-1.85,3.38-3.83,4.82-5.95-1.96-.87-2.94-2.15-2.94-3.86s.6-3.63,1.79-5.62c1.2-1.99,2.84-2.99,4.94-2.99,1.78,0,2.67,.91,2.67,2.73,0,1.44-.51,3.49-1.54,6.15,3.78-.41,7.09-3.3,9.91-8.68l3.11-.14-3.18,8.75c-1.32,3.69-2.18,6.2-2.56,7.54-.39,1.33-.58,2.51-.58,3.54,0,.96,.22,1.72,.67,2.29,.44,.57,1.04,.86,1.79,.86,.82,0,1.61-.28,2.36-.84s2.44-2.1,5.06-4.63v3.93Z"/><path class="cls-1" d="M582.32,142.06c-5.24,5.58-10.05,8.37-14.42,8.37-2.42,0-4.33-.85-5.74-2.56-1.41-1.71-2.2-4.15-2.36-7.31-2.76,3.35-5.2,5.83-7.33,7.45-2.13,1.62-4.4,2.43-6.82,2.43-3.1,0-5.59-1.34-7.47-4.02-1.88-2.68-2.82-6.25-2.82-10.71,0-5.33,1.23-10.83,3.69-16.49s6.11-10.13,10.94-13.42c4.83-3.28,10.69-4.92,17.57-4.92,5.15,0,9.81,.7,13.98,2.09v2.26c-3.4,3.96-6.24,9.51-8.53,16.64-2.29,7.13-3.44,12.57-3.44,16.3,0,1.82,.37,3.24,1.11,4.24,.74,1,1.77,1.5,3.09,1.5,2.37,0,5.22-1.93,8.54-5.78v3.93Zm-9.95-36.85c-2.1-1.14-4.35-1.71-6.77-1.71-3.81,0-7.24,1.59-10.29,4.77-3.05,3.18-5.46,7.39-7.23,12.63-1.77,5.24-2.65,9.79-2.65,13.64,0,2.57,.5,4.67,1.49,6.27,.99,1.61,2.26,2.41,3.81,2.41,2.69,0,5.78-2.45,9.26-7.35,1.44-12.85,5.56-23.07,12.37-30.66Z"/><path class="cls-1" d="M607.85,142.03c-5.72,5.61-10.13,8.41-13.23,8.41-1.39,0-2.56-.59-3.52-1.76s-1.44-2.63-1.44-4.36c0-3.21,1.72-7.52,5.16-12.92-1.69,.87-3.53,1.47-5.54,1.81-1.48,2.73-3.81,5.67-6.97,8.82h-.79v-3.08c1.78-1.85,3.38-3.83,4.82-5.95-1.96-.87-2.94-2.15-2.94-3.86s.6-3.63,1.79-5.62c1.2-1.99,2.84-2.99,4.94-2.99,1.78,0,2.67,.91,2.67,2.73,0,1.44-.51,3.49-1.54,6.15,3.78-.41,7.09-3.3,9.91-8.68l3.11-.14-3.18,8.75c-1.32,3.69-2.18,6.2-2.56,7.54-.39,1.33-.58,2.51-.58,3.54,0,.96,.22,1.72,.67,2.29,.44,.57,1.04,.86,1.79,.86,.82,0,1.61-.28,2.36-.84s2.44-2.1,5.06-4.63v3.93Z"/><path class="cls-1" d="M633.42,142.03c-2.92,2.87-5.59,4.98-8.02,6.32-2.43,1.34-4.96,2.02-7.6,2.02-2.96,0-5.41-.96-7.33-2.89-1.93-1.92-2.89-4.37-2.89-7.33,0-4.85,1.77-9.34,5.31-13.45,3.54-4.11,7.38-6.17,11.5-6.17,2.03,0,3.68,.56,4.96,1.69,1.28,1.13,1.91,2.59,1.91,4.39,0,.64-.12,1.12-.36,1.44-.24,.32-.69,.64-1.35,.96l-3.96,1.88c-.48,.23-.83,.34-1.06,.34-.32,0-.48-.23-.48-.68,0-.18,.07-.78,.21-1.79,.14-1.01,.21-1.63,.21-1.86,0-1-.21-1.81-.63-2.43s-.99-.92-1.69-.92c-1.66,0-3.18,1.23-4.56,3.69-1.38,2.46-2.07,5.26-2.07,8.41,0,2.71,.65,4.88,1.95,6.49,1.3,1.62,3.03,2.43,5.2,2.43,1.85,0,3.58-.53,5.21-1.59s3.48-2.68,5.55-4.87v3.93Z"/><path class="cls-1" d="M669.92,142.03c-3.65,3.46-6.25,5.72-7.83,6.77-1.57,1.05-3.08,1.57-4.51,1.57-3.6,0-5.3-3.18-5.09-9.54-2.28,3.26-4.38,5.66-6.31,7.21-1.93,1.55-3.91,2.32-5.96,2.32s-3.71-.94-5.11-2.82c-1.4-1.88-2.1-4.19-2.1-6.92,0-3.42,.94-6.68,2.82-9.78,1.88-3.1,4.29-5.61,7.23-7.52s5.54-2.87,7.79-2.87c2.85,0,4.84,1.31,5.98,3.93l6.99-3.86h1.92l-3.01,10.01c-1.55,5.04-2.33,8.49-2.33,10.36,0,1.96,.69,2.94,2.08,2.94,.89,0,1.87-.47,2.94-1.42,1.07-.95,2.57-2.39,4.51-4.32v3.93Zm-25.02,1.88c2.28,0,4.43-1.94,6.44-5.83,2.02-3.88,3.02-7.47,3.02-10.75,0-1.28-.29-2.27-.85-2.99-.57-.72-1.33-1.08-2.29-1.08-2.28,0-4.44,1.94-6.48,5.81-2.04,3.87-3.06,7.44-3.06,10.7,0,1.23,.3,2.23,.91,2.99,.6,.76,1.37,1.15,2.31,1.15Z"/><path class="cls-1" d="M703.46,142.03c-5.26,5.56-9.78,8.34-13.54,8.34-1.53,0-2.76-.54-3.69-1.61-.93-1.07-1.4-2.51-1.4-4.31,0-2.44,1-6.16,3.01-11.18,1.07-2.69,1.61-4.4,1.61-5.13s-.29-1.09-.85-1.09c-.32,0-.74,.16-1.26,.48-.48,.32-1.04,.76-1.67,1.33-.57,.52-1.21,1.16-1.91,1.91-.62,.64-1.28,1.37-1.98,2.19l-1.91,2.22c-.84,1.03-1.37,2.11-1.57,3.25-.34,1.94-.57,3.71-.68,5.33-.07,1.21-.1,2.84-.1,4.89l-7.55,1.78c-.25-3.08-.38-5.37-.38-6.87,0-3.67,.43-7.14,1.28-10.43,.86-3.28,2.23-6.97,4.12-11.07l8.34-1.61c-1.75,4.72-2.91,8.43-3.45,11.14,3.73-4.17,6.7-7.06,8.89-8.67,2.19-1.61,4.15-2.41,5.85-2.41,1.16,0,2.13,.44,2.9,1.31,.77,.88,1.16,1.97,1.16,3.29,0,2.18-.98,5.78-2.94,10.8-1.34,3.44-2.02,5.68-2.02,6.7,0,1.37,.56,2.06,1.68,2.06,1.67,0,4.36-2.2,8.09-6.6v3.93Z"/><path class="cls-1" d="M739.92,142.03c-3.65,3.46-6.25,5.72-7.83,6.77-1.57,1.05-3.08,1.57-4.51,1.57-3.6,0-5.3-3.18-5.09-9.54-2.28,3.26-4.38,5.66-6.31,7.21-1.93,1.55-3.91,2.32-5.96,2.32s-3.71-.94-5.11-2.82c-1.4-1.88-2.1-4.19-2.1-6.92,0-3.42,.94-6.68,2.82-9.78,1.88-3.1,4.29-5.61,7.23-7.52s5.54-2.87,7.79-2.87c2.85,0,4.84,1.31,5.98,3.93l6.99-3.86h1.92l-3.01,10.01c-1.55,5.04-2.33,8.49-2.33,10.36,0,1.96,.69,2.94,2.08,2.94,.89,0,1.87-.47,2.94-1.42,1.07-.95,2.57-2.39,4.51-4.32v3.93Zm-25.02,1.88c2.28,0,4.43-1.94,6.44-5.83,2.02-3.88,3.02-7.47,3.02-10.75,0-1.28-.29-2.27-.85-2.99-.57-.72-1.33-1.08-2.29-1.08-2.28,0-4.44,1.94-6.48,5.81-2.04,3.87-3.06,7.44-3.06,10.7,0,1.23,.3,2.23,.91,2.99,.6,.76,1.37,1.15,2.31,1.15Z"/></g></g></g><g id="_반짝이"><polygon class="cls-7" points="265.65 648.06 277.85 695.4 317.13 705.12 277.85 715.79 265.65 764 252.8 715.79 214.17 705.12 252.8 695.4 265.65 648.06"/><polygon class="cls-8" points="915.65 928.06 927.43 973.77 965.35 983.15 927.43 993.45 915.65 1040 903.24 993.45 865.94 983.15 903.24 973.77 915.65 928.06"/></g><g id="_완드_퀸"><path class="cls-4" d="M761.67,731.32c-7.89-.48-13.83,3.56-15.81,5.06-2.06,1.56-6.98,5.28-8.79,11.89-1.36,4.94-.2,8.68,.95,14.5,1.64,8.32-.1,3.91,2.56,28.31,2.24,20.55,2.99,19.23,3.23,27.62,.31,10.45-.91,10.24-1.28,25.25-.31,12.73,.49,15.87,.53,31.11,.03,10.42-.33,18.78-.59,23.83-3.18-1.81-6.67-4.1-10.28-6.98-6.71-5.35-11.7-11.06-15.29-15.88-3.11,2.51-6.22,5.02-9.34,7.53,1.46,2.62,3.7,6.72,6.24,11.85,6.8,13.71,8.4,19.81,13.01,28.79,2.69,5.24,7.03,12.67,13.86,20.88-.21,1.69-.5,4.18-.83,7.19-.55,4.98-.82,7.47-.87,8.64-.23,5.68,.76,6.68,.96,13.78,.07,2.35-.03,4.45-.22,8.67-.37,8.13-.83,9.64-1.03,15.14-.2,5.53,.22,5.39,.31,13.75,.05,4.89,.11,10.69-.41,16.61-.37,4.17-.82,6.08-3.75,19.35-3.16,14.34-4.75,21.56-5.18,24.34-1.35,8.78-.72,9.05-2.46,20.13-1.58,10.07-2.83,14.46-3.7,17.18-2.04,6.42-2.77,6.14-3.52,9.96-1.01,5.18-.22,8.6,1.49,18.87,1.79,10.75,2.68,16.13,2.8,18.93,.27,6.74-.74,5.92-1.83,20.88-.79,10.97-.4,13.5-1.81,20.16-.87,4.1-1.28,4.38-3.57,12.13-1.97,6.68-4.14,14.02-5.8,22.87-2.09,11.18-.35,8.67-2.53,23.02-.69,4.56-1.82,11.09,.86,18.11,.24,.63,.46,1.13,.62,1.47,2.52,.86,6.35,1.88,11.06,1.95,3.61,.06,8.35,.13,12.47-2.32,3.74-2.22,6.58-6.28,9.55-16.19,3.73-12.44,4.13-22.27,4.65-29.43,.11-1.51,2.15-14.41,6.23-40.2,5.55-35.12,5.9-34.58,6.27-41.65,.75-14.57-.64-18.49,2.03-28.83,2.6-10.12,5.77-13.5,7.1-22.81,1.4-9.79-.34-18.31-2.02-23.95,2.1-2.4,4.84-6.11,6.82-11.26,3.61-9.4,2.02-16.74,1.37-28.86-.2-3.75-.94-19.58,1.57-36.8,2.28-15.61,4.49-13.67,6.63-30.06,1.07-8.21,1.21-14.04,5.09-20.73,1.02-1.76,3.16-4.68,7.45-10.5,4.58-6.23,5.92-7.68,7.47-11.23,.3-.68,4.38-10.18,1.63-12.94-.71-.72-1.71-.8-1.94-.81-1.83-.1-3.05,1.63-4.66,3.4-2.88,3.19-2.65,1.71-8.01,6.86-1.24,1.19-2.86,2.82-4.7,4.85,.17-3.28,.36-8.3,.36-14.44,0-7.1,0-13.81-.75-22.45-.75-8.75-1.63-12.14-.84-18.84,.49-4.1,.87-7.07,2.86-9.99,3.01-4.41,6.87-4.57,7.38-7.62,.26-1.54-.3-4.11-5.02-8.18,.44-3.73,.35-6.72,.22-8.67-.43-6.03-1.83-8.37-.98-13.06,.24-1.31,.66-3.52,2.1-5.69,2.48-3.73,5.93-3.61,9.28-5.36,6.95-3.62,9.46-12.8,10.19-15.44,2.92-10.68-.97-19.92-2.05-22.51-1.99-4.73-5.33-8.39-12.02-15.73-4.65-5.1-9.12-9.95-15.96-15.19-8.62-6.59-12.92-9.89-19.35-10.28Z"/><path class="cls-5" d="M817.09,910.25c1.1,1.99,6.04,10.42,16.09,12.54,14.63,3.09,26.17-10.14,26.73-10.8-1.03-2.23-3.81-7.46-9.67-10.92-1.99-1.17-7.1-3.77-13.98-2.93-11,1.34-17.92,10.41-19.17,12.11Z"/><path class="cls-5" d="M818.78,898.04c2.76-.74,14.62-4.26,22.69-16.93,11.75-18.45,4.3-38.77,3.92-39.75-2.97,.56-10.17,2.35-17.25,8.93-2.4,2.23-8.13,8.12-11.21,17.64-4.92,15.21,.76,27.81,1.84,30.11Z"/><path class="cls-5" d="M708.36,1078.23c.07-2.41,.06-12.9-8.33-23.88-12.22-15.98-30.62-17.81-31.51-17.88-.26,2.51-.54,8.75,3.12,16.68,1.24,2.69,4.66,9.32,11.69,15.26,11.23,9.49,22.89,9.8,25.03,9.82Z"/><g><path class="cls-3" d="M687.13,557.94c-3.82,7.47-2.68,15.09-1.91,18.51-6.25-2.34-11.66-3.01-15.31-3.19-4.79-.24-10.3-.44-15.95,2.55-1.37,.72-2.94,1.57-4.47,3.19-4.92,5.2-4.1,12.73-3.83,14.68,1.61-.57,12.72-4.32,21.7,1.91,4.85,3.37,6.8,8.07,7.66,10.21,1.06,2.67,3.7,10.53-4.47,33.82-5.98,17.06-9.13,25.65-16.59,28.08-7.29,2.38-14.82-1.61-16.59-2.55-5.96-3.16-8.89-7.84-12.76-14.04-2.38-3.8-5.45-9.56-7.66-17.23-2.86,5.35-9.72,16.98-19.78,23.61-3.09,2.03-5.82,3.17-8.93,3.19-5.56,.04-9.67-3.5-11.49-5.1-7.35-6.51-9.61-16.21-12.76-34.46-1.68-9.69-3.44-20.81-5.1-33.18,2.87-1.87,8.65-6.24,12.12-14.04,1.62-3.64,2.28-7,2.55-9.57,1.84-.29,6.09-.7,10.85,1.28,5.76,2.39,8.65,6.76,9.57,8.3,2.18-15.22-3.16-27.65-10.21-29.99-2.15-.72-7.25-1.41-12.76,0-2.18,.56-3.91,1.31-5.1,1.91,.18-3.27,.25-12.52-5.74-21.7-3.97-6.09-8.95-9.6-12.14-11.43,0-.23,0-.46,.01-.69-.2,.1-.41,.22-.64,.34-.22-.12-.44-.24-.64-.34,0,.23,0,.46,.01,.69-3.19,1.83-8.16,5.35-12.14,11.43-6,9.18-5.92,18.42-5.74,21.7-1.19-.6-2.93-1.36-5.1-1.91-5.51-1.41-10.61-.72-12.76,0-7.05,2.34-12.39,14.77-10.21,29.99,.92-1.54,3.81-5.91,9.57-8.3,4.76-1.97,9-1.57,10.85-1.28,.27,2.57,.93,5.93,2.55,9.57,3.47,7.8,9.25,12.16,12.12,14.04-1.67,12.37-3.43,23.49-5.1,33.18-3.15,18.25-5.41,27.95-12.76,34.46-1.81,1.61-5.93,5.14-11.49,5.1-3.11-.02-5.85-1.16-8.93-3.19-10.07-6.63-16.92-18.26-19.78-23.61-2.21,7.67-5.28,13.42-7.66,17.23-3.88,6.2-6.81,10.88-12.76,14.04-1.77,.94-9.3,4.93-16.59,2.55-7.46-2.43-10.61-11.01-16.59-28.08-8.17-23.29-5.53-31.15-4.47-33.82,.85-2.14,2.8-6.84,7.66-10.21,8.98-6.23,20.08-2.49,21.7-1.91,.27-1.95,1.09-9.47-3.83-14.68-1.53-1.62-3.1-2.47-4.47-3.19-5.65-2.99-11.16-2.79-15.95-2.55-3.66,.18-9.06,.85-15.31,3.19,.76-3.42,1.91-11.04-1.91-18.51-5.64-11.03-19.79-17.2-35.1-14.68,14.04,61.47,28.08,122.94,42.12,184.42,42.75-.43,89.97-.21,132.73-.64,42.75,.43,89.97,.21,132.73,.64,14.04-61.47,28.08-122.94,42.12-184.42-15.31-2.53-29.46,3.65-35.1,14.68Z"/><rect class="cls-3" x="416.25" y="741.08" width="262.27" height="18.51"/><polygon class="cls-5" points="544.98 635.04 551.51 683.77 569.1 675.41 560.74 693 623.2 699.53 560.74 706.06 569.1 723.65 551.51 715.29 544.98 778.1 538.45 715.29 520.86 723.65 529.22 706.06 471.56 699.53 529.22 693 520.86 675.41 538.45 683.77 544.98 635.04"/></g><path class="cls-8" d="M614.43,1340.13c-.8-5.46-5.08-8.99-7.81-11.28-5.64-4.75-10.75-10.12-16.48-14.75-4.42-3.57-16.13-13.02-23.42-26.89-5.32-10.12-6.46-19.09-7.52-27.47-.61-4.82-1.04-11.11-.71-18.48,5.18-.72,11.36-2.29,17.77-5.53,4.25-2.15,20.63-10.32,26.03-27.76,3.23-10.43,1.05-19.66-2.02-32.68-2.28-9.63-3.77-10.95-12.51-33.47-10.39-26.81-12.26-35.22-13.23-40.56-1.79-9.87-2.15-18.15-2.17-23.64,4.89-6.01,10.76-15.38,10.84-27.11,.02-3.49-.47-5.83-1.52-11.71-1.28-7.23-3.02-17.69-4.77-30.8-5.64,6.56-11.29,13.12-16.93,19.68v-.38c-2.95,.15-5.92,.3-8.88,.44-2.96-.15-5.93-.3-8.89-.44v.38c-5.63-6.56-11.27-13.12-16.92-19.68-1.75,13.11-3.49,23.57-4.77,30.8-1.05,5.88-1.54,8.23-1.52,11.71,.08,11.73,5.96,21.1,10.84,27.11-.02,5.49-.38,13.77-2.17,23.64-.97,5.34-2.84,13.75-13.23,40.56-8.73,22.52-10.23,23.85-12.51,33.47-3.08,13.02-5.26,22.24-2.02,32.68,5.4,17.44,21.78,25.62,26.03,27.76,5.18,2.62,10.21,4.13,14.68,5,0,3.58,.09,7.41,.36,11.48,.87,13.15,1.7,25.65,8.1,39.91,4.12,9.18,9.88,16.05,21.4,29.79,0,0,6.13,7.31,24.87,21.98,.94,.74,4.34,3.33,9.25,4.05,1.9,.28,6.39,.93,8.68-1.73,1.75-2.04,1.32-4.98,1.16-6.07Z"/><path class="cls-2" d="M363,951c-7.23,18.93-15.5,44.69-21,76-9.21,52.36-5.91,93.01-5,103,4.89,53.52,20.96,97.1,36,128"/><path class="cls-5" d="M423.17,969.35l-22.77-15.13c-3.72-2.47-8.76-.44-9.72,3.93l-5.88,26.7c-1.36,6.19-9.95,6.79-12.16,.85l-9.53-25.62c-1.56-4.19-6.83-5.5-10.17-2.54l-20.45,18.14c-4.74,4.21-12.04-.36-10.34-6.46l7.35-26.33c1.2-4.3-2.29-8.47-6.74-8.03l-27.21,2.66c-6.31,.62-9.53-7.37-4.57-11.3l21.42-16.98c3.5-2.77,3.12-8.2-.73-10.46l-23.57-13.84c-5.46-3.21-3.38-11.56,2.95-11.83l27.31-1.15c4.46-.19,7.34-4.8,5.56-8.89l-10.93-25.06c-2.53-5.81,4.06-11.34,9.34-7.83l22.77,15.13c3.72,2.47,8.76,.44,9.72-3.93l5.88-26.7c1.36-6.19,9.95-6.79,12.16-.85l9.53,25.62c1.56,4.19,6.83,5.5,10.17,2.54l20.45-18.14c4.74-4.21,12.04,.36,10.34,6.46l-7.35,26.33c-1.2,4.3,2.29,8.47,6.74,8.03l27.21-2.66c6.31-.62,9.53,7.37,4.57,11.3l-21.42,16.98c-3.5,2.77-3.12,8.2,.73,10.46l23.57,13.84c5.46,3.21,3.38,11.56-2.95,11.83l-27.31,1.15c-4.46,.19-7.34,4.8-5.56,8.89l10.93,25.06c2.53,5.81-4.06,11.34-9.34,7.83Z"/><circle class="cls-8" cx="372.75" cy="899.75" r="34.75"/><path class="cls-5" d="M431.01,1058.24c6.15-6.17,9.14-12.75,10.59-16.71-3.99-2.82-13.4-8.65-26.7-9.46-9.77-.59-17.51,1.78-21.86,3.49,.48-5.67,.96-11.35,1.45-17.02-10.9,2.36-18.23,7-22.14,9.93-3.83,2.86-22.04,17.24-20.79,36.75,.1,1.5,.28,3.94,1.08,6.72,2.82-2.34,5.94-4.68,9.38-6.93,17.99-11.8,36.03-15.65,48-17-4.35,1-10.34,2.76-17,6-12.87,6.27-20.82,14.46-24,18-3.48,3.88-6.28,7.8-8.54,11.54,6.73,5.15,15.48,5.9,20.52,6.33,17.43,1.5,31.29-6.55,38.57-10.77,5.94-3.45,10.43-7.01,13.41-9.61-4.49-.95-8.98-1.91-13.47-2.86,3.16-1.61,7.39-4.23,11.53-8.39Z"/><path class="cls-5" d="M308,1080c-3.18-3.54-11.13-11.73-24-18-6.66-3.24-12.65-5-17-6,11.97,1.35,30.01,5.2,48,17,3.41,2.24,6.51,4.56,9.32,6.88,1.11-13.93-6.56-27.01-8.53-30.17-2.51-4.04-7.5-10.84-16.54-16.83-1.57,5.31-3.15,10.62-4.72,15.93-3.34-3.09-9.51-7.98-18.56-10.9-12.33-3.98-22.91-2.04-27.53-.89-.1,4.1,.28,11.12,3.67,18.88,2.28,5.23,5.18,9.1,7.47,11.68-4.41-.73-8.81-1.46-13.22-2.18,1.78,3.41,4.58,8.23,8.74,13.45,5.1,6.41,14.8,18.6,31.12,23.42,5.81,1.72,16.9,4.99,26.26-.88,2.8-1.76,4.81-3.94,6.27-5.98-2.57-4.84-6.03-10.16-10.74-15.41Z"/><circle class="cls-8" cx="302" cy="645" r="10"/><circle class="cls-7" cx="270.5" cy="587.5" r="7.5"/><circle class="cls-8" cx="296" cy="561" r="5"/><circle class="cls-7" cx="882.5" cy="1076.5" r="10.5"/><circle class="cls-8" cx="902" cy="1136" r="7"/><circle class="cls-7" cx="252" cy="1226" r="12"/><circle class="cls-8" cx="278.5" cy="1289.5" r="7.5"/></g></svg>