<?xml version="1.0" encoding="UTF-8"?><svg xmlns="http://www.w3.org/2000/svg" viewBox="0 0 1080 1944"><defs><style>.cls-1{fill:#fff;}.cls-2{fill:#f6ef84;}.cls-3{fill:#3f3730;}.cls-4{fill:#4c5fa9;}.cls-5{fill:#bad6eb;}.cls-6{fill:#c8c0de;}.cls-7{fill:#b1d4f0;}</style></defs><g id="_배경_텍스트"><g><rect class="cls-5" width="1080" height="1944"/><rect class="cls-1" x="74.84" y="186.39" width="930.33" height="1606.64" rx="65.21" ry="65.21"/><g><path class="cls-3" d="M253.08,1608.88c-3.97,1.54-7.32,2.31-10.04,2.31-1.93,0-4.4-.55-7.38-1.67-2.99-1.11-5.15-1.67-6.47-1.67-2.36,0-4.39,.92-6.07,2.77-1.68,1.84-2.52,4.07-2.52,6.69,0,3.01,1.36,5.66,4.08,7.95,.89,.75,1.34,1.33,1.34,1.72,0,.61-.81,1.74-2.44,3.38-1.63,1.65-3.02,2.47-4.16,2.47-1.25,0-2.51-1.06-3.76-3.17-1.25-2.11-1.88-4.28-1.88-6.5,0-5.8,2.36-11.17,7.09-16.11s9.85-7.41,15.36-7.41c2.11,0,4.74,.6,7.87,1.8,3.13,1.2,5.4,1.8,6.79,1.8,2.15,0,4.04-.88,5.69-2.63,.57-.57,1.09-.86,1.56-.86s1.24,.18,2.34,.54c1.09,.36,1.64,.75,1.64,1.18,0,.32-1,1.76-3.01,4.32-2.01,2.56-3.57,5.33-4.68,8.3-1.11,2.97-2.15,7.39-3.12,13.26l-1.13,6.61c-2.16,13.1-4.69,22.32-7.61,27.63-2.92,5.32-6.57,9.3-10.95,11.95s-9.12,3.98-14.2,3.98-9.1-1.15-12.8-3.44c-3.7-2.29-5.55-4.85-5.55-7.68,0-1.4,1.22-3.16,3.65-5.29,2.44-2.13,4.19-3.2,5.26-3.2,1.68,0,2.53,1.36,2.53,4.08,.11,7.63,2.52,11.44,7.25,11.44,7.34,0,12.19-8.41,14.56-25.24,1.04-7.2,2.57-13.47,4.59-18.83,2.02-5.35,7.42-12.18,16.19-20.49Zm37.71,55.48c-4.3,4.57-8.07,7.9-11.33,10-3.26,2.1-6.7,3.15-10.31,3.15s-6.74-1.36-9.16-4.08c-2.42-2.72-3.62-6.18-3.62-10.37,0-.61,.24-2.96,.72-7.06,.48-4.1,.72-6.54,.72-7.33,0-3.4-.7-5.82-2.09-7.25-.43,.07-1.09,.11-1.99,.11-1.68,0-2.52-.73-2.52-2.2,0-2.15,1.11-3.22,3.33-3.22l2.36,.16c2.26,0,4.17-1.06,5.75-3.17,1.58-2.11,3.08-6.09,4.51-11.92,3.51-14.29,8.79-21.43,15.85-21.43,1.65,0,3.21,.63,4.7,1.88,1.49,1.25,2.23,2.56,2.23,3.92,0,.82-.66,2.53-1.99,5.13-1.33,2.6-2.36,3.89-3.12,3.89-.39,0-.99-.66-1.77-1.99-.79-1.32-1.95-1.99-3.49-1.99-3.01,0-5.35,3.28-7.04,9.83s-3.38,11.01-5.1,13.37-3.58,3.9-5.59,4.62c3.58,1.86,6.19,4.03,7.81,6.5s2.44,5.75,2.44,9.83c0,.79-.08,2.08-.24,3.87-.16,1.79-.24,3.12-.24,3.97,0,4.01,1.63,6.02,4.89,6.02,3.76,0,8.52-3.47,14.29-10.42v6.18Z"/><path class="cls-3" d="M317.21,1664.42c-8.38,8.81-14.64,13.21-18.8,13.21-2.29,0-4.22-1.17-5.8-3.52-1.58-2.34-2.36-5.29-2.36-8.83,0-7.63,2.58-18.19,7.73-31.69l13.64-2.85h.64l-5.37,16.81c-2.22,6.95-3.33,11.91-3.33,14.88,0,1.18,.26,2.14,.78,2.87,.52,.73,1.17,1.1,1.96,1.1,1.4,0,2.8-.51,4.21-1.53,1.42-1.02,3.64-3.23,6.69-6.63v6.18Zm-1.07-54.68c0,8.59-3.17,12.89-9.51,12.89-3.08,0-5.71-.93-7.9-2.79,2.08-3.15,3.69-6.7,4.83-10.63,2.83,1.75,5.1,2.63,6.82,2.63,1.93,0,3.85-.7,5.75-2.09Z"/><path class="cls-3" d="M369.95,1664.42c-8.27,8.74-15.36,13.11-21.27,13.11-2.4,0-4.33-.84-5.8-2.52s-2.2-3.94-2.2-6.77c0-3.83,1.57-9.69,4.73-17.56,1.68-4.22,2.52-6.91,2.52-8.06s-.45-1.72-1.34-1.72c-.5,0-1.16,.25-1.99,.75-.75,.5-1.63,1.2-2.63,2.09-.9,.82-1.9,1.83-3.01,3.01-.97,1-2.01,2.15-3.12,3.44l-3.01,3.49c-1.33,1.61-2.15,3.31-2.47,5.1-.54,3.04-.9,5.84-1.07,8.38-.11,1.9-.16,4.46-.16,7.68l-11.87,2.79c-.39-4.83-.59-8.43-.59-10.8,0-5.76,.67-11.23,2.01-16.38,1.34-5.16,3.5-10.96,6.47-17.4l13.11-2.52c-2.76,7.41-4.56,13.25-5.42,17.51,5.87-6.55,10.53-11.09,13.98-13.62,3.45-2.53,6.51-3.79,9.2-3.79,1.82,0,3.34,.69,4.56,2.07,1.22,1.38,1.82,3.1,1.82,5.18,0,3.43-1.54,9.09-4.62,16.97-2.11,5.41-3.17,8.92-3.17,10.53,0,2.15,.88,3.23,2.64,3.23,2.62,0,6.86-3.46,12.71-10.37v6.18Z"/><path class="cls-3" d="M422.64,1664.42c-4.54,4.76-9.99,8.27-16.32,10.52-2.97,9.27-6.74,16.42-11.31,21.43s-9.41,7.52-14.53,7.52c-2.79,0-5.05-.88-6.77-2.63-1.72-1.75-2.58-4.06-2.58-6.93,0-3.83,1.71-7.27,5.13-10.31,3.42-3.04,9.23-5.98,17.43-8.81l2.31-10.58c-3.44,3.87-6.41,6.71-8.92,8.51-2.51,1.81-5.03,2.71-7.57,2.71-2.97,0-5.41-1.4-7.3-4.19s-2.85-6.43-2.85-10.9c0-7.3,2.78-14.15,8.35-20.54,5.56-6.39,11.48-9.59,17.74-9.59,3.47,0,6.55,1.47,9.24,4.4,1.61-.57,3.7-1.43,6.28-2.58l3.81-1.72h1.24c-1.39,4.23-2.46,8.34-3.22,12.35l-5.04,26.91c4.83-1.83,9.79-5.75,14.87-11.76v6.18Zm-30.08,15.52c-11.57,4.15-17.35,8.95-17.35,14.39,0,1.61,.48,2.93,1.45,3.95,.97,1.02,2.2,1.53,3.71,1.53,2.58,0,4.82-1.63,6.71-4.89,1.9-3.26,3.72-8.25,5.48-14.99Zm-4.51-13.75c2.54,0,4.8-1.5,6.77-4.51,1.97-3.01,3.5-6.82,4.59-11.44s1.64-7.82,1.64-9.61c0-1.68-.42-3.07-1.26-4.16-.84-1.09-1.89-1.64-3.14-1.64-3.8,0-7.11,2.56-9.94,7.68-2.83,5.12-4.24,10.33-4.24,15.63,0,2.47,.51,4.43,1.53,5.88,1.02,1.45,2.37,2.18,4.05,2.18Z"/><path class="cls-3" d="M498.32,1664.42c-1.83,1.61-3.6,2.75-5.32,3.41-1.72,.66-3.08,.99-4.08,.99-2.58,0-5.14-1-7.68-3.01-5.16,7.81-11.06,11.71-17.72,11.71-4.15,0-7.52-1.56-10.1-4.67s-3.87-7.25-3.87-12.41c0-8.16,2.9-15.17,8.7-21.03,5.8-5.85,12.73-8.78,20.79-8.78,3.04,0,5.27,.33,6.69,.99,1.42,.66,2.28,1.44,2.61,2.34,.32,.9,.48,2.02,.48,3.38,0,6.7-1.83,14.91-5.48,24.65,1.83,1.68,3.74,2.52,5.75,2.52,2.4,0,5.48-2.09,9.24-6.28v6.18Zm-17.72-30.02c-.54-.21-1.31-.32-2.31-.32-4.66,0-8.3,2.44-10.93,7.3-2.63,4.87-3.95,10.56-3.95,17.08,0,3.62,.57,6.43,1.72,8.43,1.15,2.01,2.74,3.01,4.78,3.01,2.54,0,5.3-2.34,8.27-7.04-3.37-4.22-5.05-8.77-5.05-13.64,0-5.73,2.49-10.67,7.46-14.82Z"/><path class="cls-3" d="M541.88,1664.42c-3.72,4.19-7.4,7.42-11.05,9.69-3.65,2.27-6.9,3.41-9.76,3.41-1.36,0-3.22-.52-5.58-1.55-1.51,7.88-2.84,16.38-3.99,25.5-3.73,.5-8.21,1.27-13.44,2.31,1.14-9.81,3.13-22.54,5.96-38.19-.39-.68-1.09-2.4-2.1-5.16l-3.6,3.97h-1.23v-4.83l10.24-10.62c1.95-9.61,3.53-16.56,4.75-20.86s2.92-9.05,5.1-14.26c2.18-5.21,3.56-8.2,4.13-8.97,.57-.77,1.96-1.5,4.16-2.2,2.2-.7,4.55-1.36,7.06-1.99,2.51-.63,3.85-.94,4.03-.94,1.36,0,2.47,.89,3.33,2.66s1.29,4.1,1.29,7c0,5.01-1.32,9.84-3.96,14.49-2.64,4.65-7.64,10.37-15,17.17l-4.51,22.45c1.75,3.75,4.38,5.63,7.88,5.63,5,0,10.44-3.63,16.3-10.9v6.18Zm-18.04-30.61c4.19-3.65,7.47-7.58,9.85-11.79,2.38-4.21,3.57-8.08,3.57-11.63,0-1.5-.28-2.74-.83-3.71-.55-.97-1.24-1.45-2.06-1.45-1.57,0-3.17,2.06-4.79,6.18-1.62,4.12-3.54,11.58-5.74,22.4Z"/><path class="cls-3" d="M619.76,1659.37c-6.45,12.1-13.46,18.15-21.05,18.15-3.97,0-7.16-1.46-9.56-4.38-2.4-2.92-3.6-6.78-3.6-11.57,0-5.59,2-14.07,5.99-25.46,3.99-11.39,5.99-19.44,5.99-24.17,0-2.11-.6-3.87-1.8-5.26-1.2-1.4-2.69-2.09-4.48-2.09-2.76,0-5.5,1.68-8.22,5.05-2.72,3.37-4.08,6.8-4.08,10.31,0,2.69,1.22,5.48,3.65,8.38,1,1.22,1.5,2.06,1.5,2.52,0,.54-.77,1.74-2.31,3.6-1.54,1.86-2.87,2.79-3.97,2.79-1.18,0-2.52-.86-4.03-2.58s-2.26-4.28-2.26-7.68c0-6.91,2.43-13.19,7.28-18.85,4.85-5.66,10.21-8.49,16.09-8.49,4.4,0,8.13,1.82,11.17,5.47,3.04,3.65,4.57,8.19,4.57,13.63-.05,5.72-1.91,13.83-5.56,24.3-3.66,10.48-5.47,17.49-5.45,21.04,0,1.69,.43,3.02,1.29,4.01,.86,.99,2.01,1.48,3.44,1.48,3.12,0,6.21-2.54,9.29-7.63,3.08-5.08,5.89-12.37,8.43-21.86l5.05-18.91c1.97-7.45,4.17-13.95,6.6-19.5,.25-.61,1.92-1.08,5.02-1.42,3.09-.34,5.34-.51,6.74-.51s2.09,.29,2.09,.86l-9.84,37.49c-2.81,11-4.21,19.04-4.21,24.12,0,2.22,.46,3.99,1.4,5.29,.93,1.31,2.18,1.96,3.76,1.96,2.33,0,5.5-1.91,9.53-5.72,4.03-3.81,7.42-8.68,10.18-14.61,2.76-5.93,4.14-11.99,4.14-18.18,0-6.62-1.61-13.21-4.83-19.77-.9-1.9-1.34-3.08-1.34-3.54,0-1.54,1.48-3.24,4.43-5.1,2.95-1.86,5.08-2.79,6.37-2.79,1.22,0,2.44,1.62,3.68,4.86,1.24,3.24,1.85,6.63,1.85,10.18,0,9.42-2.2,19.06-6.61,28.92-4.4,9.87-9.88,17.97-16.44,24.3s-12.48,9.51-17.78,9.51c-3.76,0-6.74-1.51-8.94-4.54-2.2-3.03-3.25-7.56-3.14-13.62Z"/><path class="cls-3" d="M729.87,1664.42c-5.73,5.44-9.83,8.99-12.3,10.63s-4.83,2.47-7.09,2.47c-5.66,0-8.32-5-8-14.99-3.58,5.12-6.88,8.9-9.91,11.33s-6.15,3.65-9.37,3.65-5.83-1.48-8.03-4.43c-2.2-2.96-3.3-6.58-3.3-10.88,0-5.37,1.48-10.49,4.43-15.36,2.95-4.87,6.74-8.81,11.36-11.82s8.7-4.51,12.25-4.51c4.47,0,7.61,2.06,9.4,6.18l10.98-6.07h3.01l-4.74,15.74c-2.44,7.91-3.66,13.34-3.66,16.28s1.09,4.62,3.28,4.62c1.39,0,2.93-.74,4.62-2.23,1.68-1.49,4.04-3.75,7.09-6.79v6.18Zm-39.32,2.95c3.58,0,6.96-3.05,10.12-9.16,3.17-6.1,4.75-11.74,4.75-16.89,0-2-.45-3.57-1.34-4.7-.9-1.13-2.1-1.69-3.6-1.69-3.58,0-6.97,3.04-10.18,9.13-3.21,6.09-4.81,11.69-4.81,16.81,0,1.93,.47,3.5,1.42,4.7,.95,1.2,2.16,1.8,3.62,1.8Z"/><path class="cls-3" d="M782.56,1664.42c-8.27,8.74-15.36,13.11-21.27,13.11-2.4,0-4.33-.84-5.8-2.52s-2.2-3.94-2.2-6.77c0-3.83,1.57-9.69,4.73-17.56,1.68-4.22,2.52-6.91,2.52-8.06s-.45-1.72-1.34-1.72c-.5,0-1.16,.25-1.99,.75-.75,.5-1.63,1.2-2.63,2.09-.9,.82-1.9,1.83-3.01,3.01-.97,1-2.01,2.15-3.12,3.44l-3.01,3.49c-1.33,1.61-2.15,3.31-2.47,5.1-.54,3.04-.9,5.84-1.07,8.38-.11,1.9-.16,4.46-.16,7.68l-11.87,2.79c-.39-4.83-.59-8.43-.59-10.8,0-5.76,.67-11.23,2.01-16.38,1.34-5.16,3.5-10.96,6.47-17.4l13.11-2.52c-2.76,7.41-4.56,13.25-5.42,17.51,5.87-6.55,10.53-11.09,13.98-13.62,3.45-2.53,6.51-3.79,9.2-3.79,1.82,0,3.34,.69,4.56,2.07,1.22,1.38,1.82,3.1,1.82,5.18,0,3.43-1.54,9.09-4.62,16.97-2.11,5.41-3.17,8.92-3.17,10.53,0,2.15,.88,3.23,2.64,3.23,2.62,0,6.86-3.46,12.71-10.37v6.18Z"/><path class="cls-3" d="M839.87,1664.42c-5.16,5.12-9.09,8.58-11.79,10.39-2.71,1.81-5.1,2.71-7.17,2.71-2.54,0-4.56-1.24-6.04-3.71-1.49-2.47-2.25-6.09-2.28-10.85-2.94,4.76-6.13,8.38-9.59,10.85s-6.58,3.71-9.37,3.71c-3.04,0-5.73-1.44-8.06-4.32-2.33-2.88-3.49-6.26-3.49-10.12,0-7.98,2.91-15.39,8.73-22.21,5.82-6.82,12.07-10.23,18.77-10.23,1.86,0,3.32,.27,4.38,.81s2.21,1.45,3.46,2.74l7.68-32.12c6.27-1.47,10.5-2.2,12.69-2.2,.72,0,1.07,.29,1.07,.86,0,.39-.89,4.1-2.68,11.12-7.15,28.07-10.73,45.01-10.73,50.81,0,1.36,.29,2.45,.86,3.28,.57,.82,1.32,1.23,2.25,1.23,2.29,0,6.06-2.97,11.31-8.92v6.18Zm-38.83,2.85c3.51,0,6.79-2.97,9.83-8.92,3.04-5.94,4.56-11.51,4.56-16.7,0-2.11-.47-3.79-1.42-5.05-.95-1.25-2.2-1.88-3.73-1.88-3.33,0-6.55,3.11-9.67,9.32-3.12,6.21-4.67,11.83-4.67,16.84,0,1.97,.46,3.53,1.37,4.67,.91,1.15,2.16,1.72,3.73,1.72Z"/><path class="cls-3" d="M856.36,1632.94c2.47-.64,4.96-1.17,7.47-1.58,2.51-.41,4.01-.62,4.51-.62,.36,0,.54,.14,.54,.43,0,.54-.14,1.09-.43,1.66-.57,1.65-.86,3.22-.86,4.72,0,1.86,1.08,4.4,3.23,7.63,2.14,3.22,3.22,6.22,3.22,8.97,0,5.48-2.62,10.76-7.87,15.84-5.25,5.08-10.68,7.63-16.3,7.63-2.44,0-4.66-.64-6.66-1.93-2.01-1.29-3.01-2.67-3.01-4.14,0-.86,.99-2.49,2.98-4.89,1.99-2.4,3.41-3.6,4.27-3.6,1.15,0,2.17,1.47,3.06,4.4,.89,2.94,2.43,4.4,4.62,4.4s4.23-1.01,6.15-3.04c1.92-2.02,2.88-4.2,2.88-6.53,0-2.26-1.21-5.26-3.65-9.02-2.44-3.76-4.05-6.91-4.84-9.45-4.15,6.7-9.42,13.55-15.79,20.57h-1.24v-4.83c8.77-9.35,14.68-18.23,17.72-26.64Z"/></g><g><path class="cls-1" d="M410.88,142.03c-5.1,5.49-9.75,8.24-13.95,8.24-2.55,0-4.5-1.23-5.83-3.69-1.33-2.46-2-5.75-2-9.88,0-3.19,.65-7.58,1.96-13.16,1.31-5.58,3-10.28,5.08-14.08l1.98-3.55c-2.71,2.83-4.93,5.92-6.67,9.28-1.73,3.36-3.8,8.06-6.2,14.1-2.4,6.04-4.22,10.15-5.45,12.34s-2.41,3.97-3.54,5.35c-1.13,1.38-2.13,2.27-3.01,2.68-.88,.41-2.41,.62-4.6,.62-.84,0-1.26-.23-1.26-.68,0-.05,.15-.76,.45-2.15,.3-1.39,.61-3.62,.92-6.68s.54-8.27,.68-15.62,1.21-13.64,3.21-18.88c-2.14,2.44-4.33,8.11-6.57,17.02l-.86,3.35c-2.35,9.27-5.04,15.53-8.08,18.78-3.03,3.25-6.01,4.87-8.93,4.87-1.8,0-3.39-.57-4.76-1.71-1.37-1.14-2.05-2.45-2.05-3.93,0-1.14,.82-2.41,2.46-3.83,1.64-1.41,2.68-2.12,3.11-2.12,.5,0,.83,.17,.99,.51,.16,.34,.37,1.28,.62,2.82s.63,2.54,1.15,3.01c.51,.47,1.16,.7,1.94,.7,1.76,0,3.7-1.76,5.83-5.28s4.07-8.96,5.83-16.32l.99-4.13c.8-3.37,1.59-6.06,2.37-8.07,.78-2.01,1.8-4.01,3.08-6.02,1.85-2.87,2.99-4.4,3.41-4.6,.42-.19,1.21-.35,2.38-.48s2.32-.19,3.49-.19c.46,0,.68,.26,.68,.79,0,.25-.07,.76-.21,1.54-.45,3.19-.66,6.39-.64,9.6l.07,9.16c.04,7.98-.59,14.41-1.91,19.31,1.21-1.46,2.96-5.22,5.26-11.28,3.33-8.59,6.36-15.04,9.09-19.35,1.3-2.07,2.87-4.06,4.7-5.96,1.83-1.9,3.1-2.92,3.81-3.06,2.42-.46,4.45-.68,6.12-.68,.62,0,.92,.17,.92,.51,0,.48-.38,1.55-1.12,3.21-1.77,4.01-3.43,9.44-4.96,16.27s-2.31,12.28-2.32,16.33c0,4.58,1.4,6.87,4.2,6.87,2.28,0,4.99-1.94,8.13-5.81v3.93Z"/><path class="cls-1" d="M427.66,142.03c-5.33,5.61-9.32,8.41-11.96,8.41-1.46,0-2.69-.75-3.69-2.24-1-1.49-1.5-3.37-1.5-5.62,0-4.85,1.64-11.57,4.92-20.17l8.68-1.81h.41l-3.42,10.7c-1.41,4.42-2.12,7.58-2.12,9.47,0,.75,.17,1.36,.5,1.83,.33,.47,.75,.7,1.25,.7,.89,0,1.78-.33,2.68-.97s2.32-2.06,4.26-4.22v3.93Zm-.68-34.79c0,5.47-2.02,8.2-6.05,8.2-1.96,0-3.63-.59-5.02-1.78,1.32-2,2.35-4.26,3.08-6.77,1.8,1.12,3.25,1.68,4.34,1.68,1.23,0,2.45-.45,3.66-1.33Z"/><path class="cls-1" d="M461.22,142.03c-5.26,5.56-9.78,8.34-13.54,8.34-1.53,0-2.76-.54-3.69-1.61-.93-1.07-1.4-2.51-1.4-4.31,0-2.44,1-6.16,3.01-11.18,1.07-2.69,1.61-4.4,1.61-5.13s-.29-1.09-.85-1.09c-.32,0-.74,.16-1.26,.48-.48,.32-1.04,.76-1.67,1.33-.57,.52-1.21,1.16-1.91,1.91-.62,.64-1.28,1.37-1.98,2.19l-1.91,2.22c-.84,1.03-1.37,2.11-1.57,3.25-.34,1.94-.57,3.71-.68,5.33-.07,1.21-.1,2.84-.1,4.89l-7.55,1.78c-.25-3.08-.38-5.37-.38-6.87,0-3.67,.43-7.14,1.28-10.43,.86-3.28,2.23-6.97,4.12-11.07l8.34-1.61c-1.75,4.72-2.91,8.43-3.45,11.14,3.73-4.17,6.7-7.06,8.89-8.67,2.19-1.61,4.15-2.41,5.85-2.41,1.16,0,2.13,.44,2.9,1.31,.77,.88,1.16,1.97,1.16,3.29,0,2.18-.98,5.78-2.94,10.8-1.34,3.44-2.02,5.68-2.02,6.7,0,1.37,.56,2.06,1.68,2.06,1.67,0,4.36-2.2,8.09-6.6v3.93Z"/><path class="cls-1" d="M491.88,142.03c-1.16,1.03-2.29,1.75-3.38,2.17-1.09,.42-1.96,.63-2.6,.63-1.64,0-3.27-.64-4.89-1.91-3.28,4.97-7.04,7.45-11.28,7.45-2.64,0-4.79-.99-6.43-2.97s-2.46-4.62-2.46-7.9c0-5.2,1.85-9.66,5.54-13.38s8.1-5.59,13.23-5.59c1.94,0,3.35,.21,4.25,.63,.9,.42,1.45,.92,1.66,1.49,.21,.57,.31,1.29,.31,2.15,0,4.26-1.16,9.49-3.49,15.69,1.16,1.07,2.38,1.61,3.66,1.61,1.53,0,3.49-1.33,5.88-4v3.93Zm-11.28-19.11c-.34-.14-.83-.21-1.47-.21-2.96,0-5.28,1.55-6.96,4.65-1.67,3.1-2.51,6.72-2.51,10.87,0,2.3,.36,4.09,1.09,5.37,.73,1.28,1.74,1.91,3.04,1.91,1.62,0,3.37-1.49,5.26-4.48-2.14-2.69-3.21-5.58-3.21-8.68,0-3.65,1.58-6.79,4.75-9.43Z"/><path class="cls-1" d="M517.42,142.03c-5.72,5.61-10.13,8.41-13.23,8.41-1.39,0-2.56-.59-3.52-1.76s-1.44-2.63-1.44-4.36c0-3.21,1.72-7.52,5.16-12.92-1.69,.87-3.53,1.47-5.54,1.81-1.48,2.73-3.81,5.67-6.97,8.82h-.79v-3.08c1.78-1.85,3.38-3.83,4.82-5.95-1.96-.87-2.94-2.15-2.94-3.86s.6-3.63,1.79-5.62c1.2-1.99,2.84-2.99,4.94-2.99,1.78,0,2.67,.91,2.67,2.73,0,1.44-.51,3.49-1.54,6.15,3.78-.41,7.09-3.3,9.91-8.68l3.11-.14-3.18,8.75c-1.32,3.69-2.18,6.2-2.56,7.54-.39,1.33-.58,2.51-.58,3.54,0,.96,.22,1.72,.67,2.29,.44,.57,1.04,.86,1.79,.86,.82,0,1.61-.28,2.36-.84s2.44-2.1,5.06-4.63v3.93Z"/><path class="cls-1" d="M582.32,142.06c-5.24,5.58-10.05,8.37-14.42,8.37-2.42,0-4.33-.85-5.74-2.56-1.41-1.71-2.2-4.15-2.36-7.31-2.76,3.35-5.2,5.83-7.33,7.45-2.13,1.62-4.4,2.43-6.82,2.43-3.1,0-5.59-1.34-7.47-4.02-1.88-2.68-2.82-6.25-2.82-10.71,0-5.33,1.23-10.83,3.69-16.49s6.11-10.13,10.94-13.42c4.83-3.28,10.69-4.92,17.57-4.92,5.15,0,9.81,.7,13.98,2.09v2.26c-3.4,3.96-6.24,9.51-8.53,16.64-2.29,7.13-3.44,12.57-3.44,16.3,0,1.82,.37,3.24,1.11,4.24,.74,1,1.77,1.5,3.09,1.5,2.37,0,5.22-1.93,8.54-5.78v3.93Zm-9.95-36.85c-2.1-1.14-4.35-1.71-6.77-1.71-3.81,0-7.24,1.59-10.29,4.77-3.05,3.18-5.46,7.39-7.23,12.63-1.77,5.24-2.65,9.79-2.65,13.64,0,2.57,.5,4.67,1.49,6.27,.99,1.61,2.26,2.41,3.81,2.41,2.69,0,5.78-2.45,9.26-7.35,1.44-12.85,5.56-23.07,12.37-30.66Z"/><path class="cls-1" d="M607.85,142.03c-5.72,5.61-10.13,8.41-13.23,8.41-1.39,0-2.56-.59-3.52-1.76s-1.44-2.63-1.44-4.36c0-3.21,1.72-7.52,5.16-12.92-1.69,.87-3.53,1.47-5.54,1.81-1.48,2.73-3.81,5.67-6.97,8.82h-.79v-3.08c1.78-1.85,3.38-3.83,4.82-5.95-1.96-.87-2.94-2.15-2.94-3.86s.6-3.63,1.79-5.62c1.2-1.99,2.84-2.99,4.94-2.99,1.78,0,2.67,.91,2.67,2.73,0,1.44-.51,3.49-1.54,6.15,3.78-.41,7.09-3.3,9.91-8.68l3.11-.14-3.18,8.75c-1.32,3.69-2.18,6.2-2.56,7.54-.39,1.33-.58,2.51-.58,3.54,0,.96,.22,1.72,.67,2.29,.44,.57,1.04,.86,1.79,.86,.82,0,1.61-.28,2.36-.84s2.44-2.1,5.06-4.63v3.93Z"/><path class="cls-1" d="M633.42,142.03c-2.92,2.87-5.59,4.98-8.02,6.32-2.43,1.34-4.96,2.02-7.6,2.02-2.96,0-5.41-.96-7.33-2.89-1.93-1.92-2.89-4.37-2.89-7.33,0-4.85,1.77-9.34,5.31-13.45,3.54-4.11,7.38-6.17,11.5-6.17,2.03,0,3.68,.56,4.96,1.69,1.28,1.13,1.91,2.59,1.91,4.39,0,.64-.12,1.12-.36,1.44-.24,.32-.69,.64-1.35,.96l-3.96,1.88c-.48,.23-.83,.34-1.06,.34-.32,0-.48-.23-.48-.68,0-.18,.07-.78,.21-1.79,.14-1.01,.21-1.63,.21-1.86,0-1-.21-1.81-.63-2.43s-.99-.92-1.69-.92c-1.66,0-3.18,1.23-4.56,3.69-1.38,2.46-2.07,5.26-2.07,8.41,0,2.71,.65,4.88,1.95,6.49,1.3,1.62,3.03,2.43,5.2,2.43,1.85,0,3.58-.53,5.21-1.59s3.48-2.68,5.55-4.87v3.93Z"/><path class="cls-1" d="M669.92,142.03c-3.65,3.46-6.25,5.72-7.83,6.77-1.57,1.05-3.08,1.57-4.51,1.57-3.6,0-5.3-3.18-5.09-9.54-2.28,3.26-4.38,5.66-6.31,7.21-1.93,1.55-3.91,2.32-5.96,2.32s-3.71-.94-5.11-2.82c-1.4-1.88-2.1-4.19-2.1-6.92,0-3.42,.94-6.68,2.82-9.78,1.88-3.1,4.29-5.61,7.23-7.52s5.54-2.87,7.79-2.87c2.85,0,4.84,1.31,5.98,3.93l6.99-3.86h1.92l-3.01,10.01c-1.55,5.04-2.33,8.49-2.33,10.36,0,1.96,.69,2.94,2.08,2.94,.89,0,1.87-.47,2.94-1.42,1.07-.95,2.57-2.39,4.51-4.32v3.93Zm-25.02,1.88c2.28,0,4.43-1.94,6.44-5.83,2.02-3.88,3.02-7.47,3.02-10.75,0-1.28-.29-2.27-.85-2.99-.57-.72-1.33-1.08-2.29-1.08-2.28,0-4.44,1.94-6.48,5.81-2.04,3.87-3.06,7.44-3.06,10.7,0,1.23,.3,2.23,.91,2.99,.6,.76,1.37,1.15,2.31,1.15Z"/><path class="cls-1" d="M703.46,142.03c-5.26,5.56-9.78,8.34-13.54,8.34-1.53,0-2.76-.54-3.69-1.61-.93-1.07-1.4-2.51-1.4-4.31,0-2.44,1-6.16,3.01-11.18,1.07-2.69,1.61-4.4,1.61-5.13s-.29-1.09-.85-1.09c-.32,0-.74,.16-1.26,.48-.48,.32-1.04,.76-1.67,1.33-.57,.52-1.21,1.16-1.91,1.91-.62,.64-1.28,1.37-1.98,2.19l-1.91,2.22c-.84,1.03-1.37,2.11-1.57,3.25-.34,1.94-.57,3.71-.68,5.33-.07,1.21-.1,2.84-.1,4.89l-7.55,1.78c-.25-3.08-.38-5.37-.38-6.87,0-3.67,.43-7.14,1.28-10.43,.86-3.28,2.23-6.97,4.12-11.07l8.34-1.61c-1.75,4.72-2.91,8.43-3.45,11.14,3.73-4.17,6.7-7.06,8.89-8.67,2.19-1.61,4.15-2.41,5.85-2.41,1.16,0,2.13,.44,2.9,1.31,.77,.88,1.16,1.97,1.16,3.29,0,2.18-.98,5.78-2.94,10.8-1.34,3.44-2.02,5.68-2.02,6.7,0,1.37,.56,2.06,1.68,2.06,1.67,0,4.36-2.2,8.09-6.6v3.93Z"/><path class="cls-1" d="M739.92,142.03c-3.65,3.46-6.25,5.72-7.83,6.77-1.57,1.05-3.08,1.57-4.51,1.57-3.6,0-5.3-3.18-5.09-9.54-2.28,3.26-4.38,5.66-6.31,7.21-1.93,1.55-3.91,2.32-5.96,2.32s-3.71-.94-5.11-2.82c-1.4-1.88-2.1-4.19-2.1-6.92,0-3.42,.94-6.68,2.82-9.78,1.88-3.1,4.29-5.61,7.23-7.52s5.54-2.87,7.79-2.87c2.85,0,4.84,1.31,5.98,3.93l6.99-3.86h1.92l-3.01,10.01c-1.55,5.04-2.33,8.49-2.33,10.36,0,1.96,.69,2.94,2.08,2.94,.89,0,1.87-.47,2.94-1.42,1.07-.95,2.57-2.39,4.51-4.32v3.93Zm-25.02,1.88c2.28,0,4.43-1.94,6.44-5.83,2.02-3.88,3.02-7.47,3.02-10.75,0-1.28-.29-2.27-.85-2.99-.57-.72-1.33-1.08-2.29-1.08-2.28,0-4.44,1.94-6.48,5.81-2.04,3.87-3.06,7.44-3.06,10.7,0,1.23,.3,2.23,.91,2.99,.6,.76,1.37,1.15,2.31,1.15Z"/></g></g></g><g id="_반짝이"><polygon class="cls-6" points="377.65 1114.06 389.01 1158.13 425.58 1167.19 389.01 1177.12 377.65 1222 365.68 1177.12 329.72 1167.19 365.68 1158.13 377.65 1114.06"/><polygon class="cls-7" points="694.65 742.06 709.79 800.83 758.56 812.9 709.79 826.15 694.65 886 678.69 826.15 630.73 812.9 678.69 800.83 694.65 742.06"/></g><g id="_완드_킹"><path class="cls-3" d="M315.19,717.62c-6.14,5.11-7.5,12.43-7.84,15-.35,2.66-1.19,9.03,2.38,15.51,2.68,4.85,6.3,7,11.46,10.81,7.38,5.44,2.83,3.16,22.91,20.6,16.9,14.68,16.47,13.12,22.88,19.58,7.98,8.04,6.93,8.73,17.81,20.85,9.23,10.28,12.15,12.2,23.5,24.22,7.76,8.22,13.71,15.07,17.26,19.25-3.68,.78-7.93,1.4-12.72,1.64-8.89,.44-16.8-.6-23.01-1.92-.42,4.15-.84,8.3-1.26,12.44,3.02,1.05,7.7,2.74,13.38,5.03,15.17,6.11,20.87,9.82,30.92,13.71,5.87,2.27,14.57,5.12,25.67,6.86,1.11,1.48,2.73,3.65,4.73,6.26,3.3,4.32,4.95,6.48,5.78,7.43,4.05,4.65,5.52,4.75,10.94,10.22,1.79,1.81,3.29,3.54,6.28,7,5.77,6.68,6.55,8.2,10.48,12.68,3.96,4.51,4.17,4.11,10.44,10.65,3.67,3.83,8.02,8.37,12.03,13.42,2.82,3.55,3.91,5.38,11.62,17.9,8.33,13.53,12.53,20.35,14.28,22.85,5.53,7.88,6.2,7.66,13.14,17.63,6.32,9.06,8.66,13.4,10.05,16.15,3.27,6.49,2.52,6.78,4.82,10.32,3.11,4.8,6.22,6.95,15.1,13.88,9.3,7.26,13.95,10.89,16.11,13.01,5.2,5.14,3.85,5.19,14.17,17.78,7.56,9.23,9.73,10.95,13.64,17.2,2.41,3.85,2.31,4.35,6.39,12.07,3.51,6.65,7.37,13.96,12.73,22.11,6.77,10.29,6.18,7.1,15.24,19.96,2.88,4.09,6.9,10.03,14.08,13.72,.64,.33,1.18,.58,1.55,.74,2.49-1.07,6.05-2.93,9.56-6.15,2.69-2.46,6.22-5.7,7.43-10.51,1.09-4.36,.16-9.54-5.02-19.44-6.5-12.43-13.51-20.48-18.44-26.5-1.04-1.27-9.12-12.88-25.29-36.11-22.01-31.63-21.35-31.44-26.33-37.28-10.27-12.04-14.19-14.17-19.92-24.2-5.6-9.81-5.79-14.68-11.73-22.97-6.24-8.71-13.84-14.24-19.27-17.53-.24-3.36-.99-8.2-3.36-13.64-4.33-9.94-10.95-14.64-20.42-23.77-2.93-2.82-15.23-14.82-26.18-30.18-9.92-13.92-6.86-13.93-17.46-28.38-5.31-7.23-9.54-11.94-11.66-19.93-.56-2.1-1.15-5.9-2.34-13.49-1.27-8.11-1.36-10.19-2.86-14.07-.29-.74-4.35-11.09-8.41-11.36-1.06-.07-1.85,.56-2.03,.71-1.42,1.2-1.03,3.41-.89,5.93,.25,4.52-.67,3.19-.78,11-.03,1.81,0,4.22,.15,7.1-2.32-2.71-5.9-6.81-10.46-11.67-5.28-5.61-10.26-10.91-17.22-17.22-7.05-6.39-10.21-8.46-14.6-14.31-2.69-3.58-4.61-6.2-5.32-9.89-1.07-5.58,1.65-8.39-.24-11.15-.96-1.4-3.27-3.04-9.76-2.97-2.45-3.26-4.73-5.56-6.28-7-4.8-4.47-7.56-5.35-10.42-9.64-.8-1.2-2.13-3.24-2.68-5.96-.95-4.67,1.67-6.98,2.83-10.69,2.41-7.7-2.56-16.7-3.99-19.29-5.79-10.48-15.51-15.08-18.22-16.36-4.97-2.35-10.15-2.93-20.5-4.07-7.19-.8-14.08-1.52-22.99-.9-11.22,.78-16.83,1.17-21.83,5.33Z"/><path class="cls-4" d="M494.3,825.65c2.59,.83,13.83,4.11,24.33-2.3,15.28-9.34,14.46-30.36,14.41-31.38-2.72-1.09-9.45-3.37-17.4-1.56-2.7,.61-9.28,2.55-14.59,8.94-8.47,10.21-7.05,23.8-6.74,26.3Z"/><path class="cls-4" d="M485.74,813.62c1.79-2.91,9.24-15.73,5.85-33.41-4.93-25.73-28.12-37.31-29.26-37.86-2.13,2.93-6.92,10.41-7.68,21.97-.26,3.92-.41,13.75,4.74,24.58,8.22,17.3,23.52,23.61,26.36,24.71Z"/><path class="cls-4" d="M559.64,1061.14c-1.92-2.15-10.55-11.29-26.9-13.95-23.79-3.87-41.32,9.66-42.16,10.33,1.83,2.4,6.72,8.06,16.44,11.97,3.29,1.32,11.72,4.29,22.73,3.68,17.59-.97,28-10.28,29.88-12.03Z"/><g><path class="cls-4" d="M719.66,556.56c1.81-12.05,5.06-21.51,7.54-27.66-3.13,1.56-13.47,7.26-18.85,20.93-2.4,6.11-3.02,11.8-3.14,15.7-.26-.6-2.7-6.05-7.54-6.73-1.88-.26-3.44,.29-4.4,.75,1.51,2.41,3.53,6.17,5.03,11.21,1.02,3.45,2.07,6.97,1.88,11.21-.3,6.92-3.58,9.1-6.28,17.19-1.11,3.33-2.42,8.54-2.51,15.7-2.72-2.74-5.44-5.48-8.17-8.22-2.51,1.25-5.03,2.49-7.54,3.74-2.58-2.96-5.9-7.39-8.79-13.46-2.76-5.78-9.18-19.25-5.03-31.4,.64-1.88,2.38-6.96,6.91-9.72,3.66-2.23,7.25-1.8,8.79-1.5-.22-1.06-2.41-10.83-10.05-14.2-3.39-1.5-6.47-1.13-8.17-.75-.44-5.44-.86-10.92-1.26-16.45-.22-3-.43-5.99-.63-8.97-2.17,1.17-5.57,3.41-8.79,7.48-3.81,4.82-5.52,9.87-6.28,12.71-1.75-.33-4.4-.59-7.54,0-2.77,.52-4.97,.93-6.91,2.99-2.59,2.75-3.04,6.66-3.14,8.22,5.13,.26,9.72,3.68,11.94,8.97,.25,.6,2.93,7.29,0,14.2-.37,.87-2.45,5.75-6.91,7.48-4.88,1.89-9.47-1.38-13.82-4.49-2.81-2.01-7.29-5.84-11.31-12.71-1.85,2.15-5.18,5.45-10.05,7.48-6.51,2.71-12.05,1.6-16.33,.75-5.53-1.11-11.02-2.21-15.7-7.48-4.9-5.51-7.36-13.86-6.91-14.2,.09-.07,.3,.16,.42,.29,2.18,2.23,6.99,3.37,10.89,2.7,2.28-.39,5.23-.89,6.91-3.74,1.69-2.87,1.07-6.41,.63-8.97-.81-4.68-2.96-7.94-4.4-9.72,1.06-2.39,2.11-4.88,3.14-7.48,1.64-4.12,3.1-8.11,4.4-11.96-3.85,5.88-9.85,8.54-15.08,6.73-.56-.19-5.24-1.91-7.54-7.48-2.9-7.04,.52-14.17,1.26-15.7,2.49-5.18,6.38-7.52,8.79-8.97,3.22-1.94,6.18-2.68,8.17-2.99-3.82-1.52-10.18-3.27-17.59-1.5-1.99,.48-3.77,1.14-5.34,1.87-2.3-4.24-8.06-10.34-10.37-14.58-2.3,4.24-8.06,10.34-10.37,14.58-1.57-.73-3.35-1.39-5.34-1.87-7.41-1.78-13.77-.03-17.59,1.5,1.98,.31,4.94,1.05,8.17,2.99,2.42,1.45,6.31,3.79,8.79,8.97,.73,1.53,4.16,8.66,1.26,15.7-2.29,5.56-6.98,7.28-7.54,7.48-5.23,1.81-11.23-.85-15.08-6.73,1.3,3.85,2.75,7.85,4.4,11.96,1.04,2.59,2.09,5.08,3.14,7.48-1.43,1.78-3.58,5.04-4.4,9.72-.45,2.56-1.06,6.1,.63,8.97,1.68,2.85,4.63,3.35,6.91,3.74,3.9,.66,8.7-.47,10.89-2.7,.12-.13,.33-.35,.42-.29,.45,.35-2.01,8.69-6.91,14.2-4.68,5.27-10.18,6.37-15.7,7.48-4.28,.86-9.82,1.97-16.33-.75-4.87-2.03-8.2-5.33-10.05-7.48-4.02,6.87-8.5,10.7-11.31,12.71-4.35,3.1-8.94,6.38-13.82,4.49-4.46-1.72-6.54-6.6-6.91-7.48-2.93-6.91-.25-13.61,0-14.2,2.21-5.29,6.81-8.71,11.94-8.97-.1-1.56-.55-5.47-3.14-8.22-1.94-2.06-4.14-2.47-6.91-2.99-3.14-.59-5.79-.33-7.54,0-.76-2.84-2.47-7.89-6.28-12.71-3.22-4.07-6.63-6.3-8.79-7.48-.2,2.98-.41,5.97-.63,8.97-.4,5.52-.82,11.01-1.26,16.45-1.7-.38-4.78-.75-8.17,.75-7.64,3.37-9.83,13.14-10.05,14.2,1.54-.3,5.13-.74,8.79,1.5,4.53,2.76,6.27,7.84,6.91,9.72,4.15,12.15-2.27,25.62-5.03,31.4-2.89,6.07-6.21,10.49-8.79,13.46-2.51-1.25-5.03-2.49-7.54-3.74-2.72,2.74-5.44,5.48-8.17,8.22-.09-7.16-1.4-12.37-2.51-15.7-2.71-8.09-5.98-10.27-6.28-17.19-.18-4.25,.86-7.76,1.88-11.21,1.5-5.04,3.52-8.8,5.03-11.21-.96-.46-2.52-1.01-4.4-.75-4.84,.68-7.28,6.13-7.54,6.73-.12-3.9-.74-9.59-3.14-15.7-5.38-13.67-15.72-19.37-18.85-20.93,2.48,6.15,5.72,15.61,7.54,27.66,.66,4.36,1.08,8.76,1.26,37.38,.09,14.92,.14,22.39,0,31.4-.2,12.81-.63,25.28-1.26,37.38,19.67-1.02,36.02-1.75,47.74-2.24,55.03-2.32,71.17-2.1,84.81-1.5,16.55,.73,41.26,.55,49.63,1.5,8.37-.94,28.06-.76,44.6-1.5,13.64-.6,29.78-.83,84.81,1.5,11.72,.5,28.08,1.23,47.74,2.24-.63-12.1-1.06-24.56-1.26-37.38-.14-9.01-.09-16.47,0-31.4,.18-28.62,.6-33.02,1.26-37.38Zm-179.98-42.61c4.34,0,7.85,4.18,7.85,9.34s-3.52,9.34-7.85,9.34-7.85-4.18-7.85-9.34,3.52-9.34,7.85-9.34Zm22.8,114.98l-16.4-9.28-6.09,20.37-6.09-20.37-16.4,9.28,7.8-19.52-17.11-7.24,17.11-7.24-7.8-19.52,16.4,9.28,6.09-20.37,6.09,20.37,16.4-9.28-7.8,19.52,17.11,7.24-17.11,7.24,7.8,19.52Z"/><polygon class="cls-2" points="539.78 533.11 548.03 582.08 570.27 571.51 559.7 593.75 610.03 602 559.7 610.25 570.27 632.49 548.03 621.92 539.78 674.98 531.53 621.92 509.29 632.49 519.86 610.25 468.64 602 519.86 593.75 509.29 571.51 531.53 582.08 539.78 533.11"/></g><path class="cls-7" d="M401,1283.48c7.99,2.93,25.61,8.51,48,8,36.73-.83,39.45-16.97,84-26,29.96-6.07,35.39-.12,70-9,20.79-5.33,31.59-8.1,43-17,9.2-7.18,19.33-13.19,28-21,3.05-2.75,6.51-6.06,12-7,3.17-.54,6.31-.18,19,5,11.24,4.59,16.87,6.92,17,9,.29,4.48-10.86,8.85-24,14-12.88,5.05-11.72,3.03-17,6-7.59,4.27-13.5,10.9-25,24-2.6,2.96-4.68,5.42-6,7,1.9,3.26,4.81,8.43,8,15,6.44,13.27,6.46,16.7,11,20,7.19,5.23,14.48,1.99,17,7,1.61,3.21,.14,7.56-2,10-4.85,5.54-16.07,4.63-23,0-6.75-4.51-6.48-10.58-13-22-5.08-8.89-10.91-15.14-15-19-3,1.67-6,3.33-9,5,3.62,3.65,6.28,6.83,8,9,1.92,2.43,5.82,7.57,10,13,3.57,4.64,4.36,5.61,6,6,4.13,.99,6.28-3.37,11-3,4.08,.32,8.13,4.02,9,8,1.43,6.53-5.93,12.86-12,15-6.9,2.44-14.56,.31-19-4-3.45-3.35-4.24-7.34-5-10-1.99-6.98-7.06-16.54-21-27-9.14,2.27-16.74,3.4-22,4-9.18,1.05-15.41,1.01-40,1-8.65,0-16.18,0-21,0-1.38,7.08-.7,12.65,0,16,.91,4.37,1.51,7.26,4,9,3.42,2.38,6.94,.17,10,3,1.66,1.54,2.85,4.26,2,6-.94,1.91-4.31,1.97-11,2-7.15,.04-10.77,.01-13-2-2.64-2.38-2.69-5.95-3-9-.57-5.62-2.4-13.46-8-23h-4v15h0c9.02,1.47,13.17,1.74,16,5,1.62,1.87,3.13,5.09,2,7-1.25,2.11-4.88,1.19-14,1-11.79-.24-14.17,1.13-16-1-2.7-3.14,1.17-7.63,0-16-.75-5.39-3.19-9.5-5-12-7.86,1.47-18.88,2.79-32,2-4.62-.28-22.06-1.58-43-10-19.3-7.77-31.99-17.73-36-21-8.46-6.9-14.7-13.73-19-19,8.23,7.44,22.52,18.49,43,26Z"/><circle class="cls-6" cx="760.5" cy="888.5" r="13.5"/><circle class="cls-7" cx="736.5" cy="949.5" r="10.5"/><circle class="cls-6" cx="667.5" cy="1024.5" r="6.5"/><circle class="cls-7" cx="304" cy="1110" r="11"/><circle class="cls-6" cx="283" cy="1054" r="9"/><circle class="cls-7" cx="336.5" cy="957.5" r="7.5"/><circle class="cls-6" cx="784" cy="734" r="8"/><circle class="cls-7" cx="806.5" cy="893.5" r="5.5"/><circle class="cls-6" cx="760" cy="1161" r="9"/><circle class="cls-7" cx="735.5" cy="1119.5" r="6.5"/></g></svg>