<?xml version="1.0" encoding="UTF-8"?><svg xmlns="http://www.w3.org/2000/svg" viewBox="0 0 1080 1944"><defs><style>.cls-1{fill:#fff;}.cls-2{stroke:#3f3730;stroke-miterlimit:10;stroke-width:5px;}.cls-2,.cls-3{fill:#3f3730;}.cls-4{fill:#f6ef84;}.cls-5{fill:#4c5fa9;}.cls-6{fill:#bad6eb;}.cls-7{fill:#c8c0de;}.cls-8{fill:#b1d4f0;}</style></defs><g id="_배경_텍스트"><g><rect class="cls-6" width="1080" height="1944"/><rect class="cls-1" x="74.84" y="186.39" width="930.33" height="1606.64" rx="65.21" ry="65.21"/><path class="cls-2" d="M499.92,1608.73c-.96-3.36-2.18-5.62-3.66-6.78-1.48-1.16-3.74-1.82-6.78-1.98-1.28-.16-1.92-.8-1.92-1.92,0-.48,.14-.9,.42-1.26,.28-.36,.74-.54,1.38-.54h26.76c.64,0,1.12,.2,1.44,.6,.32,.4,.48,.8,.48,1.2,0,.48-.16,.9-.48,1.26-.32,.36-.8,.58-1.44,.66-2.16,.16-3.9,.34-5.22,.54-1.32,.2-2.22,.74-2.7,1.62-.32,.64-.4,1.42-.24,2.34,.16,.92,.44,2.22,.84,3.9l15.96,61.32,17.16-61.92c.48-1.68,.64-3.02,.48-4.02-.16-1-.56-1.76-1.2-2.28-.64-.52-1.52-.86-2.64-1.02-1.12-.16-2.44-.32-3.96-.48-.64-.08-1.12-.3-1.44-.66-.32-.36-.48-.78-.48-1.26,0-.4,.14-.8,.42-1.2,.28-.4,.74-.6,1.38-.6h22.92c.64,0,1.12,.2,1.44,.6,.32,.4,.48,.8,.48,1.2,0,1.04-.64,1.68-1.92,1.92-1.6,.24-2.94,.48-4.02,.72-1.08,.24-1.98,.66-2.7,1.26-.72,.6-1.34,1.42-1.86,2.46-.52,1.04-1.06,2.48-1.62,4.32l-21.48,74.64h-5.04l-20.76-74.64Zm81.6,60.84c0,1.92,.2,3.46,.6,4.62,.4,1.16,.98,2.04,1.74,2.64,.76,.6,1.72,1.02,2.88,1.26,1.16,.24,2.5,.44,4.02,.6,.56,.08,.96,.3,1.2,.66,.24,.36,.36,.74,.36,1.14s-.14,.78-.42,1.14c-.28,.36-.74,.54-1.38,.54h-26.52c-.64,0-1.1-.18-1.38-.54-.28-.36-.42-.74-.42-1.14s.12-.78,.36-1.14c.24-.36,.64-.58,1.2-.66,1.52-.16,2.84-.36,3.96-.6,1.12-.24,2.08-.66,2.88-1.26,.8-.6,1.4-1.48,1.8-2.64,.4-1.16,.6-2.7,.6-4.62v-60.72c0-1.92-.2-3.46-.6-4.62-.4-1.16-1-2.04-1.8-2.64-.8-.6-1.76-1.02-2.88-1.26-1.12-.24-2.44-.44-3.96-.6-.56-.08-.96-.3-1.2-.66-.24-.36-.36-.74-.36-1.14s.14-.78,.42-1.14c.28-.36,.74-.54,1.38-.54h26.52c.64,0,1.1,.18,1.38,.54,.28,.36,.42,.74,.42,1.14s-.12,.78-.36,1.14c-.24,.36-.64,.58-1.2,.66-1.52,.16-2.86,.36-4.02,.6-1.16,.24-2.12,.66-2.88,1.26-.76,.6-1.34,1.48-1.74,2.64-.4,1.16-.6,2.7-.6,4.62v60.72Z"/><g><path class="cls-1" d="M410.88,142.03c-5.1,5.49-9.75,8.24-13.95,8.24-2.55,0-4.5-1.23-5.83-3.69-1.33-2.46-2-5.75-2-9.88,0-3.19,.65-7.58,1.96-13.16,1.31-5.58,3-10.28,5.08-14.08l1.98-3.55c-2.71,2.83-4.93,5.92-6.67,9.28-1.73,3.36-3.8,8.06-6.2,14.1-2.4,6.04-4.22,10.15-5.45,12.34s-2.41,3.97-3.54,5.35c-1.13,1.38-2.13,2.27-3.01,2.68-.88,.41-2.41,.62-4.6,.62-.84,0-1.26-.23-1.26-.68,0-.05,.15-.76,.45-2.15,.3-1.39,.61-3.62,.92-6.68,.31-3.06,.54-8.27,.68-15.62s1.21-13.64,3.21-18.88c-2.14,2.44-4.33,8.11-6.57,17.02l-.86,3.35c-2.35,9.27-5.04,15.53-8.08,18.78-3.03,3.25-6.01,4.87-8.93,4.87-1.8,0-3.39-.57-4.76-1.71s-2.05-2.45-2.05-3.93c0-1.14,.82-2.42,2.46-3.83,1.64-1.41,2.68-2.12,3.11-2.12,.5,0,.83,.17,.99,.51,.16,.34,.37,1.28,.62,2.82s.63,2.54,1.15,3.01c.51,.47,1.16,.7,1.94,.7,1.76,0,3.7-1.76,5.83-5.28s4.07-8.96,5.83-16.32l.99-4.14c.8-3.37,1.59-6.06,2.37-8.07,.78-2,1.8-4.01,3.08-6.02,1.85-2.87,2.99-4.4,3.41-4.6,.42-.19,1.21-.35,2.38-.48,1.16-.12,2.32-.19,3.49-.19,.46,0,.68,.26,.68,.79,0,.25-.07,.76-.21,1.54-.45,3.19-.66,6.39-.64,9.6l.07,9.16c.04,7.98-.59,14.41-1.91,19.31,1.21-1.46,2.96-5.22,5.26-11.28,3.33-8.59,6.36-15.04,9.09-19.35,1.3-2.07,2.87-4.06,4.7-5.96,1.83-1.9,3.1-2.92,3.81-3.06,2.42-.46,4.45-.68,6.12-.68,.62,0,.92,.17,.92,.51,0,.48-.38,1.55-1.12,3.21-1.77,4.01-3.43,9.44-4.96,16.27s-2.31,12.28-2.32,16.33c0,4.58,1.4,6.87,4.2,6.87,2.28,0,4.99-1.94,8.13-5.81v3.93Z"/><path class="cls-1" d="M427.66,142.03c-5.33,5.61-9.32,8.41-11.96,8.41-1.46,0-2.69-.75-3.69-2.24-1-1.49-1.5-3.37-1.5-5.62,0-4.85,1.64-11.58,4.92-20.17l8.68-1.81h.41l-3.42,10.7c-1.41,4.42-2.12,7.58-2.12,9.47,0,.75,.17,1.36,.5,1.83,.33,.47,.75,.7,1.25,.7,.89,0,1.78-.32,2.68-.97s2.32-2.06,4.26-4.22v3.93Zm-.68-34.79c0,5.47-2.02,8.2-6.05,8.2-1.96,0-3.63-.59-5.02-1.78,1.32-2,2.35-4.26,3.08-6.77,1.8,1.12,3.25,1.67,4.34,1.67,1.23,0,2.45-.44,3.66-1.33Z"/><path class="cls-1" d="M461.22,142.03c-5.26,5.56-9.78,8.34-13.54,8.34-1.53,0-2.76-.54-3.69-1.61-.93-1.07-1.4-2.51-1.4-4.31,0-2.44,1-6.16,3.01-11.18,1.07-2.69,1.61-4.4,1.61-5.13s-.29-1.09-.85-1.09c-.32,0-.74,.16-1.26,.48-.48,.32-1.04,.76-1.67,1.33-.57,.52-1.21,1.16-1.91,1.91-.62,.64-1.28,1.37-1.98,2.19l-1.91,2.22c-.84,1.03-1.37,2.11-1.57,3.25-.34,1.94-.57,3.71-.68,5.33-.07,1.21-.1,2.84-.1,4.89l-7.55,1.78c-.25-3.08-.38-5.37-.38-6.87,0-3.67,.43-7.14,1.28-10.42,.86-3.28,2.23-6.97,4.12-11.07l8.34-1.61c-1.75,4.72-2.91,8.43-3.45,11.14,3.73-4.17,6.7-7.06,8.89-8.66,2.19-1.61,4.15-2.41,5.85-2.41,1.16,0,2.13,.44,2.9,1.31,.77,.88,1.16,1.97,1.16,3.29,0,2.18-.98,5.78-2.94,10.8-1.34,3.44-2.02,5.68-2.02,6.7,0,1.37,.56,2.06,1.68,2.06,1.67,0,4.36-2.2,8.09-6.6v3.93Z"/><path class="cls-1" d="M491.88,142.03c-1.16,1.03-2.29,1.75-3.38,2.17-1.09,.42-1.96,.63-2.6,.63-1.64,0-3.27-.64-4.89-1.91-3.28,4.97-7.04,7.45-11.28,7.45-2.64,0-4.79-.99-6.43-2.97s-2.46-4.61-2.46-7.9c0-5.2,1.85-9.66,5.54-13.38s8.1-5.59,13.23-5.59c1.94,0,3.35,.21,4.25,.63,.9,.42,1.45,.92,1.66,1.49,.21,.57,.31,1.29,.31,2.15,0,4.26-1.16,9.49-3.49,15.69,1.16,1.07,2.38,1.61,3.66,1.61,1.53,0,3.49-1.33,5.88-4v3.93Zm-11.28-19.11c-.34-.14-.83-.21-1.47-.21-2.96,0-5.28,1.55-6.96,4.65-1.67,3.1-2.51,6.72-2.51,10.87,0,2.3,.36,4.09,1.09,5.37,.73,1.28,1.74,1.91,3.04,1.91,1.62,0,3.37-1.49,5.26-4.48-2.14-2.69-3.21-5.58-3.21-8.68,0-3.65,1.58-6.79,4.75-9.43Z"/><path class="cls-1" d="M517.42,142.03c-5.72,5.61-10.13,8.41-13.23,8.41-1.39,0-2.56-.59-3.52-1.76s-1.44-2.63-1.44-4.36c0-3.21,1.72-7.52,5.16-12.92-1.69,.87-3.53,1.47-5.54,1.81-1.48,2.73-3.81,5.67-6.97,8.82h-.79v-3.08c1.78-1.85,3.38-3.83,4.82-5.95-1.96-.87-2.94-2.15-2.94-3.86s.6-3.63,1.79-5.62c1.2-1.99,2.84-2.99,4.94-2.99,1.78,0,2.67,.91,2.67,2.73,0,1.44-.51,3.49-1.54,6.15,3.78-.41,7.09-3.3,9.91-8.68l3.11-.14-3.18,8.75c-1.32,3.69-2.18,6.2-2.56,7.54-.39,1.33-.58,2.51-.58,3.54,0,.96,.22,1.72,.67,2.29,.44,.57,1.04,.85,1.79,.85,.82,0,1.61-.28,2.36-.84,.75-.56,2.44-2.1,5.06-4.63v3.93Z"/><path class="cls-1" d="M582.32,142.06c-5.24,5.58-10.05,8.37-14.42,8.37-2.42,0-4.33-.85-5.74-2.56-1.41-1.71-2.2-4.15-2.36-7.31-2.76,3.35-5.2,5.83-7.33,7.45s-4.4,2.43-6.82,2.43c-3.1,0-5.59-1.34-7.47-4.02-1.88-2.68-2.82-6.25-2.82-10.72,0-5.33,1.23-10.83,3.69-16.49,2.46-5.66,6.11-10.13,10.94-13.42,4.83-3.28,10.69-4.92,17.57-4.92,5.15,0,9.81,.7,13.98,2.08v2.26c-3.4,3.96-6.24,9.51-8.53,16.65-2.29,7.13-3.44,12.57-3.44,16.3,0,1.82,.37,3.24,1.11,4.24,.74,1,1.77,1.5,3.09,1.5,2.37,0,5.22-1.93,8.54-5.78v3.93Zm-9.95-36.85c-2.1-1.14-4.35-1.71-6.77-1.71-3.81,0-7.24,1.59-10.29,4.77-3.05,3.18-5.46,7.39-7.23,12.63-1.77,5.24-2.65,9.79-2.65,13.64,0,2.58,.5,4.67,1.49,6.27,.99,1.61,2.26,2.41,3.81,2.41,2.69,0,5.78-2.45,9.26-7.35,1.44-12.85,5.56-23.07,12.37-30.66Z"/><path class="cls-1" d="M607.85,142.03c-5.72,5.61-10.13,8.41-13.23,8.41-1.39,0-2.56-.59-3.52-1.76s-1.44-2.63-1.44-4.36c0-3.21,1.72-7.52,5.16-12.92-1.69,.87-3.53,1.47-5.54,1.81-1.48,2.73-3.81,5.67-6.97,8.82h-.79v-3.08c1.78-1.85,3.38-3.83,4.82-5.95-1.96-.87-2.94-2.15-2.94-3.86s.6-3.63,1.79-5.62c1.2-1.99,2.84-2.99,4.94-2.99,1.78,0,2.67,.91,2.67,2.73,0,1.44-.51,3.49-1.54,6.15,3.78-.41,7.09-3.3,9.91-8.68l3.11-.14-3.18,8.75c-1.32,3.69-2.18,6.2-2.56,7.54-.39,1.33-.58,2.51-.58,3.54,0,.96,.22,1.72,.67,2.29,.44,.57,1.04,.85,1.79,.85,.82,0,1.61-.28,2.36-.84,.75-.56,2.44-2.1,5.06-4.63v3.93Z"/><path class="cls-1" d="M633.42,142.03c-2.92,2.87-5.59,4.98-8.02,6.32-2.43,1.34-4.96,2.02-7.6,2.02-2.96,0-5.41-.96-7.33-2.89-1.93-1.93-2.89-4.37-2.89-7.33,0-4.85,1.77-9.34,5.31-13.45,3.54-4.11,7.38-6.17,11.5-6.17,2.03,0,3.68,.56,4.96,1.69,1.28,1.13,1.91,2.59,1.91,4.39,0,.64-.12,1.12-.36,1.44-.24,.32-.69,.64-1.35,.96l-3.96,1.88c-.48,.23-.83,.34-1.06,.34-.32,0-.48-.23-.48-.68,0-.18,.07-.78,.21-1.79,.14-1.01,.21-1.63,.21-1.86,0-1-.21-1.81-.63-2.43s-.99-.92-1.69-.92c-1.66,0-3.18,1.23-4.56,3.69-1.38,2.46-2.07,5.26-2.07,8.41,0,2.71,.65,4.88,1.95,6.49,1.3,1.62,3.03,2.43,5.2,2.43,1.85,0,3.58-.53,5.21-1.59s3.48-2.68,5.55-4.87v3.93Z"/><path class="cls-1" d="M669.92,142.03c-3.65,3.46-6.25,5.72-7.83,6.77s-3.08,1.57-4.51,1.57c-3.6,0-5.3-3.18-5.09-9.54-2.28,3.26-4.38,5.66-6.31,7.21s-3.91,2.32-5.96,2.32-3.71-.94-5.11-2.82c-1.4-1.88-2.1-4.19-2.1-6.92,0-3.42,.94-6.68,2.82-9.78,1.88-3.1,4.29-5.61,7.23-7.52s5.54-2.87,7.79-2.87c2.85,0,4.84,1.31,5.98,3.93l6.99-3.86h1.92l-3.01,10.02c-1.55,5.04-2.33,8.49-2.33,10.36s.69,2.94,2.08,2.94c.89,0,1.87-.47,2.94-1.42,1.07-.95,2.57-2.39,4.51-4.32v3.93Zm-25.02,1.88c2.28,0,4.43-1.94,6.44-5.83,2.02-3.88,3.02-7.47,3.02-10.75,0-1.28-.29-2.27-.85-2.99-.57-.72-1.33-1.08-2.29-1.08-2.28,0-4.44,1.94-6.48,5.81-2.04,3.87-3.06,7.44-3.06,10.7,0,1.23,.3,2.23,.91,2.99,.6,.76,1.37,1.15,2.31,1.15Z"/><path class="cls-1" d="M703.46,142.03c-5.26,5.56-9.78,8.34-13.54,8.34-1.53,0-2.76-.54-3.69-1.61-.93-1.07-1.4-2.51-1.4-4.31,0-2.44,1-6.16,3.01-11.18,1.07-2.69,1.61-4.4,1.61-5.13s-.29-1.09-.85-1.09c-.32,0-.74,.16-1.26,.48-.48,.32-1.04,.76-1.67,1.33-.57,.52-1.21,1.16-1.91,1.91-.62,.64-1.28,1.37-1.98,2.19l-1.91,2.22c-.84,1.03-1.37,2.11-1.57,3.25-.34,1.94-.57,3.71-.68,5.33-.07,1.21-.1,2.84-.1,4.89l-7.55,1.78c-.25-3.08-.38-5.37-.38-6.87,0-3.67,.43-7.14,1.28-10.42,.86-3.28,2.23-6.97,4.12-11.07l8.34-1.61c-1.75,4.72-2.91,8.43-3.45,11.14,3.73-4.17,6.7-7.06,8.89-8.66,2.19-1.61,4.15-2.41,5.85-2.41,1.16,0,2.13,.44,2.9,1.31,.77,.88,1.16,1.97,1.16,3.29,0,2.18-.98,5.78-2.94,10.8-1.34,3.44-2.02,5.68-2.02,6.7,0,1.37,.56,2.06,1.68,2.06,1.67,0,4.36-2.2,8.09-6.6v3.93Z"/><path class="cls-1" d="M739.92,142.03c-3.65,3.46-6.25,5.72-7.83,6.77s-3.08,1.57-4.51,1.57c-3.6,0-5.3-3.18-5.09-9.54-2.28,3.26-4.38,5.66-6.31,7.21s-3.91,2.32-5.96,2.32-3.71-.94-5.11-2.82c-1.4-1.88-2.1-4.19-2.1-6.92,0-3.42,.94-6.68,2.82-9.78,1.88-3.1,4.29-5.61,7.23-7.52s5.54-2.87,7.79-2.87c2.85,0,4.84,1.31,5.98,3.93l6.99-3.86h1.92l-3.01,10.02c-1.55,5.04-2.33,8.49-2.33,10.36s.69,2.94,2.08,2.94c.89,0,1.87-.47,2.94-1.42,1.07-.95,2.57-2.39,4.51-4.32v3.93Zm-25.02,1.88c2.28,0,4.43-1.94,6.44-5.83,2.02-3.88,3.02-7.47,3.02-10.75,0-1.28-.29-2.27-.85-2.99-.57-.72-1.33-1.08-2.29-1.08-2.28,0-4.44,1.94-6.48,5.81-2.04,3.87-3.06,7.44-3.06,10.7,0,1.23,.3,2.23,.91,2.99,.6,.76,1.37,1.15,2.31,1.15Z"/></g><g><path class="cls-1" d="M508.35,1856.06c-5.4,5.58-11.92,8.37-19.55,8.37-5.47,0-9.95-1.71-13.45-5.14-3.5-3.43-5.25-7.83-5.25-13.21s1.26-10.45,3.79-15.28c2.53-4.83,5.84-8.69,9.93-11.59,4.09-2.89,8.11-4.34,12.05-4.34,3.3,0,6,.99,8.08,2.97,2.09,1.98,3.13,4.56,3.13,7.72,0,4.12-1.26,7.7-3.78,10.72-2.52,3.02-5.46,4.53-8.84,4.53-1.78,0-3.24-.46-4.38-1.37-1.14-.91-1.71-2.08-1.71-3.52,0-1.23,.49-2.37,1.47-3.42,.73,1.34,1.73,2.02,3.01,2.02,1.82,0,3.51-1.14,5.08-3.42,1.56-2.28,2.34-4.77,2.34-7.49,0-1.89-.44-3.4-1.32-4.51-.88-1.12-2.04-1.67-3.5-1.67-2.12,0-4.38,1.32-6.78,3.96-2.41,2.64-4.41,6.04-6.02,10.19-1.61,4.15-2.41,8.09-2.41,11.83,0,4.76,1.35,8.67,4.05,11.72,2.7,3.05,6.13,4.58,10.3,4.58,2.64,0,5.02-.61,7.14-1.84,2.12-1.23,4.32-3.14,6.6-5.75v3.93Z"/><path class="cls-1" d="M544.82,1856.03c-3.01,2.85-5.53,4.95-7.55,6.31-2.03,1.36-3.85,2.03-5.47,2.03-1.8,0-3.18-.72-4.15-2.15s-1.45-3.38-1.45-5.84c-2.51,2.76-4.75,4.79-6.73,6.1s-3.92,1.97-5.81,1.97c-1.73,0-3.12-.72-4.17-2.15-1.05-1.44-1.57-3.38-1.57-5.84,0-4.74,1.59-11.42,4.79-20.03l9.13-1.82c-3.75,10.92-5.63,17.93-5.64,21.03,0,2.19,.82,3.28,2.46,3.28,1.18,0,2.65-.96,4.41-2.89,1.75-1.93,2.85-3.61,3.28-5.04l4.48-14.56,9.3-1.88c-2.15,6.86-3.62,11.68-4.42,14.46s-1.2,4.73-1.2,5.85c0,2.14,.73,3.21,2.19,3.21,1.19,0,2.94-1.08,5.27-3.25l2.87-2.7v3.93Z"/><path class="cls-1" d="M561.14,1840.41c1.64-1.98,3.19-3.45,4.64-4.39,1.46-.95,3.07-1.42,4.85-1.42,2.3,0,4.17,.88,5.62,2.65,1.45,1.77,2.17,4.08,2.17,6.96,0,5.04-1.74,9.66-5.21,13.86s-7.25,6.31-11.33,6.31c-1.14,0-2.04-.13-2.7-.38-.66-.25-1.53-.83-2.6-1.74-1.64,7.22-2.7,13.01-3.18,17.36l-8.68,1.54c1.62-10.66,3.68-21.46,6.19-32.4-3.01,3.94-5.04,6.37-6.08,7.28h-.79v-3.08c4.33-4.67,7.9-10.34,10.7-17.02l7.73-1.4-1.32,5.88Zm-3.95,18.28c1.19,1.96,2.5,2.94,3.93,2.94,2.3,0,4.34-1.75,6.11-5.25,1.77-3.5,2.65-6.91,2.65-10.24,0-1.75-.36-3.17-1.08-4.26-.72-1.08-1.65-1.62-2.78-1.62-.89,0-1.82,.4-2.8,1.2s-1.72,1.73-2.22,2.79-1.07,2.91-1.71,5.55l-2.1,8.88Z"/><path class="cls-1" d="M594.72,1836c1.57-.41,3.16-.75,4.75-1.01,1.59-.26,2.55-.39,2.87-.39,.23,0,.34,.09,.34,.27,0,.34-.09,.69-.27,1.06-.37,1.05-.55,2.05-.55,3.01,0,1.18,.69,2.8,2.05,4.85s2.05,3.96,2.05,5.71c0,3.49-1.67,6.85-5.01,10.08-3.34,3.24-6.8,4.85-10.37,4.85-1.55,0-2.96-.41-4.24-1.23-1.28-.82-1.91-1.7-1.91-2.63,0-.55,.63-1.58,1.9-3.11,1.26-1.53,2.17-2.29,2.72-2.29,.73,0,1.38,.93,1.95,2.8,.57,1.87,1.55,2.8,2.94,2.8s2.69-.64,3.91-1.93,1.83-2.67,1.83-4.15c0-1.44-.77-3.35-2.32-5.74s-2.58-4.4-3.08-6.02c-2.64,4.26-5.99,8.62-10.05,13.09h-.79v-3.08c5.58-5.95,9.34-11.6,11.28-16.95Z"/></g></g></g><g id="_반짝이"><circle class="cls-8" cx="528.52" cy="583" r="9"/><circle class="cls-7" cx="574.5" cy="549.5" r="6.5"/><circle class="cls-7" cx="653" cy="682" r="8"/><circle class="cls-7" cx="227.02" cy="827.5" r="8.5"/><circle class="cls-8" cx="178" cy="840" r="5"/><circle class="cls-7" cx="146.02" cy="907.5" r="7.5"/><circle class="cls-8" cx="941.02" cy="862.5" r="7.5"/><circle class="cls-8" cx="378" cy="1353" r="11"/><circle class="cls-7" cx="321.5" cy="1314.5" r="7.5"/></g><g id="_컵_6"><path class="cls-8" d="M311.15,1085.23v-73.23H159.85v73.23c0,36.33,25.61,66.66,59.75,73.97-3.1,1.36-5.28,4.46-5.28,8.04h0c0,4.83,3.95,8.78,8.78,8.78h1.25v67.06l-52.69,21.3h52.69v.31h22.32v-.31h52.69l-52.69-21.3v-67.06h1.25c4.83,0,8.78-3.95,8.78-8.78h0c0-3.59-2.18-6.69-5.28-8.04,34.15-7.31,59.75-37.64,59.75-73.97Zm-56.4,13.23l-13.84-6.58-5.14,33.03-5.14-33.03-13.84,6.58,6.58-13.84-31.88-5.14,31.88-5.14-6.58-13.84,13.84,6.58,5.14-30.48,5.14,30.48,13.84-6.58-6.58,13.84,31.32,5.14-31.32,5.14,6.58,13.84Z"/><path class="cls-8" d="M514.15,1085.23v-73.23h-151.31v73.23c0,36.33,25.61,66.66,59.75,73.97-3.1,1.36-5.28,4.46-5.28,8.04h0c0,4.83,3.95,8.78,8.78,8.78h1.25v67.06l-52.69,21.3h52.69v.31h22.32v-.31h52.69l-52.69-21.3v-67.06h1.25c4.83,0,8.78-3.95,8.78-8.78h0c0-3.59-2.18-6.69-5.28-8.04,34.15-7.31,59.75-37.64,59.75-73.97Zm-56.4,13.23l-13.84-6.58-5.14,33.03-5.14-33.03-13.84,6.58,6.58-13.84-31.88-5.14,31.88-5.14-6.58-13.84,13.84,6.58,5.14-30.48,5.14,30.48,13.84-6.58-6.58,13.84,31.32,5.14-31.32,5.14,6.58,13.84Z"/><path class="cls-8" d="M390.15,721.23v-73.23H238.85v73.23c0,36.33,25.61,66.66,59.75,73.97-3.1,1.36-5.28,4.46-5.28,8.04h0c0,4.83,3.95,8.78,8.78,8.78h1.25v67.06l-52.69,21.3h52.69v.31h22.32v-.31h52.69l-52.69-21.3v-67.06h1.25c4.83,0,8.78-3.95,8.78-8.78h0c0-3.59-2.18-6.69-5.28-8.04,34.15-7.31,59.75-37.64,59.75-73.97Zm-56.4,13.23l-13.84-6.58-5.14,33.03-5.14-33.03-13.84,6.58,6.58-13.84-31.88-5.14,31.88-5.14-6.58-13.84,13.84,6.58,5.14-30.48,5.14,30.48,13.84-6.58-6.58,13.84,31.32,5.14-31.32,5.14,6.58,13.84Z"/><path class="cls-8" d="M841.15,721.23v-73.23h-151.31v73.23c0,36.33,25.61,66.66,59.75,73.97-3.1,1.36-5.28,4.46-5.28,8.04h0c0,4.83,3.95,8.78,8.78,8.78h1.25v67.06l-52.69,21.3h52.69v.31h22.32v-.31h52.69l-52.69-21.3v-67.06h1.25c4.83,0,8.78-3.95,8.78-8.78h0c0-3.59-2.18-6.69-5.28-8.04,34.15-7.31,59.75-37.64,59.75-73.97Zm-56.4,13.23l-13.84-6.58-5.14,33.03-5.14-33.03-13.84,6.58,6.58-13.84-31.88-5.14,31.88-5.14-6.58-13.84,13.84,6.58,5.14-30.48,5.14,30.48,13.84-6.58-6.58,13.84,31.32,5.14-31.32,5.14,6.58,13.84Z"/><path class="cls-8" d="M717.15,1085.23v-73.23h-151.31v73.23c0,36.33,25.61,66.66,59.75,73.97-3.1,1.36-5.28,4.46-5.28,8.04h0c0,4.83,3.95,8.78,8.78,8.78h1.25v67.06l-52.69,21.3h52.69v.31h22.32v-.31h52.69l-52.69-21.3v-67.06h1.25c4.83,0,8.78-3.95,8.78-8.78h0c0-3.59-2.18-6.69-5.28-8.04,34.15-7.31,59.75-37.64,59.75-73.97Zm-56.4,13.23l-13.84-6.58-5.14,33.03-5.14-33.03-13.84,6.58,6.58-13.84-31.88-5.14,31.88-5.14-6.58-13.84,13.84,6.58,5.14-30.48,5.14,30.48,13.84-6.58-6.58,13.84,31.32,5.14-31.32,5.14,6.58,13.84Z"/><path class="cls-8" d="M920.15,1085.23v-73.23h-151.31v73.23c0,36.33,25.61,66.66,59.75,73.97-3.1,1.36-5.28,4.46-5.28,8.04h0c0,4.83,3.95,8.78,8.78,8.78h1.25v67.06l-52.69,21.3h52.69v.31h22.32v-.31h52.69l-52.69-21.3v-67.06h1.25c4.83,0,8.78-3.95,8.78-8.78h0c0-3.59-2.18-6.69-5.28-8.04,34.15-7.31,59.75-37.64,59.75-73.97Zm-56.4,13.23l-13.84-6.58-5.14,33.03-5.14-33.03-13.84,6.58,6.58-13.84-31.88-5.14,31.88-5.14-6.58-13.84,13.84,6.58,5.14-30.48,5.14,30.48,13.84-6.58-6.58,13.84,31.32,5.14-31.32,5.14,6.58,13.84Z"/><rect class="cls-7" x="482" y="788" width="116" height="118"/><polygon class="cls-3" points="540 706 450.94 800 629.06 800 540 706"/><polygon class="cls-4" points="540.3 781.82 545.9 815.02 560.98 807.85 553.81 822.93 587.93 828.52 553.81 834.12 560.98 849.19 545.9 842.03 540.3 878 534.71 842.03 519.63 849.19 526.8 834.12 492.07 828.52 526.8 822.93 519.63 807.85 534.71 815.02 540.3 781.82"/><polygon class="cls-7" points="446.29 481.83 457.14 523.95 492.1 532.6 457.14 542.1 446.29 585 434.85 542.1 400.47 532.6 434.85 523.95 446.29 481.83"/><polygon class="cls-7" points="899.29 779 905.81 804.31 926.82 809.51 905.81 815.22 899.29 841 892.41 815.22 871.76 809.51 892.41 804.31 899.29 779"/><polygon class="cls-7" points="728.29 1281 737.65 1317.34 767.8 1324.8 737.65 1332.99 728.29 1370 718.42 1332.99 688.77 1324.8 718.42 1317.34 728.29 1281"/><path class="cls-5" d="M313.11,616.26c-.21-.87-1.62-6.34-6.82-8.85-4.09-1.97-8.19-.99-10.83,.06,1.13-3.39,1.44-7.08-.48-10.18-2.88-4.64-9.06-5.21-9.77-5.26-.89-.07-6.53-.41-10.52,3.76-3.37,3.52-3.5,8.08-3.24,10.9-2.86-2.1-6.26-3.53-9.79-2.66-5.3,1.31-7.75,7-8.02,7.67-.34,.83-2.41,6.08,.32,11.17,2.31,4.29,6.61,5.83,9.36,6.45-2.89,2.07-5.29,4.86-5.55,8.49-.4,5.44,4.27,9.53,4.81,10,.68,.58,5.04,4.17,10.72,3.14,4.79-.87,7.58-4.48,9.03-6.91,1.08,3.39,2.99,6.53,6.36,7.9,5.06,2.06,10.39-1.11,11-1.49,.76-.47,5.53-3.5,6.3-9.22,.63-4.63-1.72-8.3-3.55-10.46,3.29-.11,6.53-1.02,8.7-3.6,3.52-4.17,2.15-10.22,1.98-10.92Z"/><path class="cls-5" d="M382.11,632.26c-.21-.87-1.62-6.34-6.82-8.85-4.09-1.97-8.19-.99-10.83,.06,1.13-3.39,1.44-7.08-.48-10.18-2.88-4.64-9.06-5.21-9.77-5.26-.89-.07-6.53-.41-10.52,3.76-3.37,3.52-3.5,8.08-3.24,10.9-2.86-2.1-6.26-3.53-9.79-2.66-5.3,1.31-7.75,7-8.02,7.67-.34,.83-2.41,6.08,.32,11.17,2.31,4.29,6.61,5.83,9.36,6.45-2.89,2.07-5.29,4.86-5.55,8.49-.4,5.44,4.27,9.53,4.81,10,.68,.58,5.04,4.17,10.72,3.14,4.79-.87,7.58-4.48,9.03-6.91,1.08,3.39,2.99,6.53,6.36,7.9,5.06,2.06,10.39-1.11,11-1.49,.76-.47,5.53-3.5,6.3-9.22,.63-4.63-1.72-8.3-3.55-10.46,3.29-.11,6.53-1.02,8.7-3.6,3.52-4.17,2.15-10.22,1.98-10.92Z"/><path class="cls-5" d="M768.11,609.26c-.21-.87-1.62-6.34-6.82-8.85-4.09-1.97-8.19-.99-10.83,.06,1.13-3.39,1.44-7.08-.48-10.18-2.88-4.64-9.06-5.21-9.77-5.26-.89-.07-6.53-.41-10.52,3.76-3.37,3.52-3.5,8.08-3.24,10.9-2.86-2.1-6.26-3.53-9.79-2.66-5.3,1.31-7.75,7-8.02,7.67-.34,.83-2.41,6.08,.32,11.17,2.31,4.29,6.61,5.83,9.36,6.45-2.89,2.07-5.29,4.86-5.55,8.49-.4,5.44,4.27,9.53,4.81,10,.68,.58,5.04,4.17,10.72,3.14,4.79-.87,7.58-4.48,9.03-6.91,1.08,3.39,2.99,6.53,6.36,7.9,5.06,2.06,10.39-1.11,11-1.49,.76-.47,5.53-3.5,6.3-9.22,.63-4.63-1.72-8.3-3.55-10.46,3.29-.11,6.53-1.02,8.7-3.6,3.52-4.17,2.15-10.22,1.98-10.92Z"/><path class="cls-5" d="M234.89,977.46c-.27-1.13-2.12-8.26-8.89-11.53-5.34-2.57-10.67-1.28-14.11,.08,1.47-4.41,1.88-9.22-.63-13.26-3.75-6.04-11.8-6.78-12.73-6.86-1.16-.09-8.51-.54-13.71,4.9-4.39,4.59-4.56,10.54-4.23,14.2-3.73-2.74-8.16-4.59-12.76-3.46-6.91,1.7-10.1,9.13-10.46,9.99-.45,1.08-3.14,7.93,.42,14.55,3,5.59,8.61,7.59,12.2,8.41-3.76,2.7-6.89,6.34-7.23,11.06-.52,7.1,5.56,12.43,6.27,13.03,.89,.76,6.57,5.44,13.97,4.1,6.25-1.13,9.88-5.84,11.77-9,1.41,4.41,3.9,8.51,8.29,10.3,6.59,2.68,13.54-1.45,14.33-1.94,.99-.61,7.2-4.57,8.21-12.02,.82-6.03-2.24-10.81-4.63-13.64,4.29-.14,8.51-1.33,11.34-4.69,4.59-5.44,2.8-13.32,2.59-14.23Z"/><path class="cls-5" d="M321.54,995.19c-.24-.99-1.85-7.22-7.78-10.08-4.66-2.25-9.33-1.12-12.33,.07,1.29-3.86,1.64-8.06-.55-11.59-3.28-5.28-10.32-5.93-11.13-5.99-1.02-.08-7.44-.47-11.99,4.28-3.84,4.01-3.99,9.21-3.7,12.42-3.26-2.4-7.13-4.02-11.15-3.03-6.04,1.49-8.83,7.98-9.14,8.73-.39,.94-2.75,6.93,.37,12.72,2.63,4.89,7.53,6.64,10.67,7.35-3.29,2.36-6.02,5.54-6.32,9.67-.45,6.2,4.86,10.86,5.48,11.39,.78,.66,5.74,4.75,12.21,3.58,5.46-.99,8.64-5.11,10.29-7.87,1.23,3.86,3.41,7.44,7.24,9,5.76,2.35,11.83-1.27,12.53-1.69,.87-.53,6.29-3.99,7.18-10.51,.72-5.27-1.96-9.45-4.05-11.92,3.75-.12,7.44-1.16,9.91-4.1,4.01-4.75,2.45-11.64,2.26-12.44Z"/><path class="cls-5" d="M924.54,990.19c-.24-.99-1.85-7.22-7.78-10.08-4.66-2.25-9.33-1.12-12.33,.07,1.29-3.86,1.64-8.06-.55-11.59-3.28-5.28-10.32-5.93-11.13-5.99-1.02-.08-7.44-.47-11.99,4.28-3.84,4.01-3.99,9.21-3.7,12.42-3.26-2.4-7.13-4.02-11.15-3.03-6.04,1.49-8.83,7.98-9.14,8.73-.39,.94-2.75,6.93,.37,12.72,2.63,4.89,7.53,6.64,10.67,7.35-3.29,2.36-6.02,5.54-6.32,9.67-.45,6.2,4.86,10.86,5.48,11.39,.78,.66,5.74,4.75,12.21,3.58,5.46-.99,8.64-5.11,10.29-7.87,1.23,3.86,3.41,7.44,7.24,9,5.76,2.35,11.83-1.27,12.53-1.69,.87-.53,6.29-3.99,7.18-10.51,.72-5.27-1.96-9.45-4.05-11.92,3.75-.12,7.44-1.16,9.91-4.1,4.01-4.75,2.45-11.64,2.26-12.44Z"/><path class="cls-5" d="M442.54,978.19c-.24-.99-1.85-7.22-7.78-10.08-4.66-2.25-9.33-1.12-12.33,.07,1.29-3.86,1.64-8.06-.55-11.59-3.28-5.28-10.32-5.93-11.13-5.99-1.02-.08-7.44-.47-11.99,4.28-3.84,4.01-3.99,9.21-3.7,12.42-3.26-2.4-7.13-4.02-11.15-3.03-6.04,1.49-8.83,7.98-9.14,8.73-.39,.94-2.75,6.93,.37,12.72,2.63,4.89,7.53,6.64,10.67,7.35-3.29,2.36-6.02,5.54-6.32,9.67-.45,6.2,4.86,10.86,5.48,11.39,.78,.66,5.74,4.75,12.21,3.58,5.46-.99,8.64-5.11,10.29-7.87,1.23,3.86,3.41,7.44,7.24,9,5.76,2.35,11.83-1.27,12.53-1.69,.87-.53,6.29-3.99,7.18-10.51,.72-5.27-1.96-9.45-4.05-11.92,3.75-.12,7.44-1.16,9.91-4.1,4.01-4.75,2.45-11.64,2.26-12.44Z"/><path class="cls-5" d="M508.34,957.98c-.68-.76-5.01-5.52-11.58-5.27-5.17,.19-8.77,3.37-10.87,5.83-.67-4.01-2.32-7.89-5.91-9.99-5.37-3.14-11.89-.42-12.64-.09-.94,.41-6.8,3.06-8.59,9.39-1.52,5.34,.78,10.01,2.54,12.7-4-.59-8.18-.22-11.27,2.54-4.64,4.14-4.07,11.18-4,11.99,.1,1.02,.81,7.41,6.27,11.07,4.61,3.09,9.76,2.35,12.87,1.51-1.8,3.62-2.73,7.71-1.07,11.51,2.5,5.69,9.38,7.33,10.17,7.51,1,.22,7.3,1.52,12.47-2.54,4.36-3.43,5.25-8.55,5.41-11.77,2.89,2.83,6.49,4.98,10.61,4.57,6.19-.62,9.87-6.65,10.28-7.35,.52-.88,3.7-6.47,1.43-12.65-1.83-5-6.15-7.44-9.15-8.65,3.26-1.86,6.03-4.51,6.84-8.25,1.32-6.08-3.28-11.44-3.82-12.05Z"/><path class="cls-5" d="M644.34,963.98c-.68-.76-5.01-5.52-11.58-5.27-5.17,.19-8.77,3.37-10.87,5.83-.67-4.01-2.32-7.89-5.91-9.99-5.37-3.14-11.89-.42-12.64-.09-.94,.41-6.8,3.06-8.59,9.39-1.52,5.34,.78,10.01,2.54,12.7-4-.59-8.18-.22-11.27,2.54-4.64,4.14-4.07,11.18-4,11.99,.1,1.02,.81,7.41,6.27,11.07,4.61,3.09,9.76,2.35,12.87,1.51-1.8,3.62-2.73,7.71-1.07,11.51,2.5,5.69,9.38,7.33,10.17,7.51,1,.22,7.3,1.52,12.47-2.54,4.36-3.43,5.25-8.55,5.41-11.77,2.89,2.83,6.49,4.98,10.61,4.57,6.19-.62,9.87-6.65,10.28-7.35,.52-.88,3.7-6.47,1.43-12.65-1.83-5-6.15-7.44-9.15-8.65,3.26-1.86,6.03-4.51,6.84-8.25,1.32-6.08-3.28-11.44-3.82-12.05Z"/><path class="cls-5" d="M706.91,976.64c-.28-.7-2.1-5.1-6.74-6.58-3.65-1.17-6.95,.14-9.03,1.32,.54-2.96,.37-6.08-1.6-8.44-2.95-3.53-8.18-3.28-8.78-3.24-.75,.05-5.5,.42-8.34,4.38-2.4,3.33-1.97,7.16-1.43,9.48-2.64-1.42-5.64-2.21-8.49-1.06-4.27,1.72-5.65,6.76-5.8,7.35-.19,.73-1.3,5.36,1.58,9.29,2.43,3.31,6.2,4.09,8.58,4.29-2.17,2.07-3.84,4.69-3.64,7.74,.31,4.59,4.69,7.46,5.2,7.78,.64,.4,4.7,2.89,9.32,1.36,3.9-1.29,5.81-4.64,6.73-6.83,1.3,2.7,3.27,5.1,6.24,5.85,4.46,1.12,8.54-2.15,9.01-2.54,.58-.48,4.2-3.58,4.18-8.45-.02-3.94-2.41-6.73-4.2-8.32,2.74-.48,5.33-1.62,6.84-4.03,2.45-3.9,.59-8.79,.37-9.35Z"/><path class="cls-5" d="M831.91,986.64c-.28-.7-2.1-5.1-6.74-6.58-3.65-1.17-6.95,.14-9.03,1.32,.54-2.96,.37-6.08-1.6-8.44-2.95-3.53-8.18-3.28-8.78-3.24-.75,.05-5.5,.42-8.34,4.38-2.4,3.33-1.97,7.16-1.43,9.48-2.64-1.42-5.64-2.21-8.49-1.06-4.27,1.72-5.65,6.76-5.8,7.35-.19,.73-1.3,5.36,1.58,9.29,2.43,3.31,6.2,4.09,8.58,4.29-2.17,2.07-3.84,4.69-3.64,7.74,.31,4.59,4.69,7.46,5.2,7.78,.64,.4,4.7,2.89,9.32,1.36,3.9-1.29,5.81-4.64,6.73-6.83,1.3,2.7,3.27,5.1,6.24,5.85,4.46,1.12,8.54-2.15,9.01-2.54,.58-.48,4.2-3.58,4.18-8.45-.02-3.94-2.41-6.73-4.2-8.32,2.74-.48,5.33-1.62,6.84-4.03,2.45-3.9,.59-8.79,.37-9.35Z"/><path class="cls-5" d="M807.74,573.45c-.23-.59-1.78-4.31-5.7-5.56-3.09-.99-5.88,.12-7.63,1.12,.46-2.5,.31-5.14-1.36-7.13-2.49-2.99-6.91-2.77-7.42-2.74-.64,.04-4.65,.36-7.05,3.7-2.03,2.82-1.67,6.05-1.21,8.01-2.23-1.2-4.77-1.86-7.17-.9-3.61,1.45-4.77,5.71-4.9,6.21-.16,.62-1.1,4.53,1.34,7.85,2.05,2.8,5.24,3.46,7.25,3.62-1.83,1.75-3.25,3.96-3.07,6.54,.26,3.88,3.96,6.3,4.39,6.58,.54,.34,3.97,2.44,7.88,1.15,3.3-1.09,4.91-3.92,5.69-5.78,1.1,2.28,2.76,4.31,5.27,4.94,3.77,.95,7.22-1.82,7.61-2.14,.49-.41,3.55-3.02,3.53-7.14-.02-3.33-2.04-5.68-3.55-7.03,2.31-.4,4.5-1.37,5.78-3.4,2.07-3.3,.5-7.43,.31-7.9Z"/><path class="cls-5" d="M867.91,938.64c-.28-.7-2.1-5.1-6.74-6.58-3.65-1.17-6.95,.14-9.03,1.32,.54-2.96,.37-6.08-1.6-8.44-2.95-3.53-8.18-3.28-8.78-3.24-.75,.05-5.5,.42-8.34,4.38-2.4,3.33-1.97,7.16-1.43,9.48-2.64-1.42-5.64-2.21-8.49-1.06-4.27,1.72-5.65,6.76-5.8,7.35-.19,.73-1.3,5.36,1.58,9.29,2.43,3.31,6.2,4.09,8.58,4.29-2.17,2.07-3.84,4.69-3.64,7.74,.31,4.59,4.69,7.46,5.2,7.78,.64,.4,4.7,2.89,9.32,1.36,3.9-1.29,5.81-4.64,6.73-6.83,1.3,2.7,3.27,5.1,6.24,5.85,4.46,1.12,8.54-2.15,9.01-2.54,.58-.48,4.2-3.58,4.18-8.45-.02-3.94-2.41-6.73-4.2-8.32,2.74-.48,5.33-1.62,6.84-4.03,2.45-3.9,.59-8.79,.37-9.35Z"/><path class="cls-5" d="M281.68,940.73c-.17-.69-1.29-5.04-5.42-7.03-3.25-1.57-6.51-.78-8.6,.05,.9-2.69,1.15-5.62-.39-8.09-2.29-3.69-7.2-4.14-7.76-4.18-.71-.05-5.19-.33-8.36,2.99-2.68,2.8-2.78,6.43-2.58,8.66-2.28-1.67-4.98-2.8-7.78-2.11-4.21,1.04-6.16,5.57-6.38,6.09-.27,.66-1.92,4.83,.26,8.88,1.83,3.41,5.25,4.63,7.44,5.13-2.29,1.65-4.2,3.87-4.41,6.75-.31,4.33,3.39,7.58,3.82,7.95,.54,.46,4,3.32,8.52,2.5,3.81-.69,6.03-3.56,7.18-5.49,.86,2.69,2.38,5.19,5.05,6.28,4.02,1.64,8.25-.88,8.74-1.18,.61-.37,4.39-2.78,5.01-7.33,.5-3.68-1.37-6.59-2.82-8.32,2.61-.08,5.19-.81,6.91-2.86,2.8-3.32,1.71-8.12,1.58-8.68Z"/><path class="cls-5" d="M839.11,629.26c-.21-.87-1.62-6.34-6.82-8.85-4.09-1.97-8.19-.99-10.83,.06,1.13-3.39,1.44-7.08-.48-10.18-2.88-4.64-9.06-5.21-9.77-5.26-.89-.07-6.53-.41-10.52,3.76-3.37,3.52-3.5,8.08-3.24,10.9-2.86-2.1-6.26-3.53-9.79-2.66-5.3,1.31-7.75,7-8.02,7.67-.34,.83-2.41,6.08,.32,11.17,2.31,4.29,6.61,5.83,9.36,6.45-2.89,2.07-5.29,4.86-5.55,8.49-.4,5.44,4.27,9.53,4.81,10,.68,.58,5.04,4.17,10.72,3.14,4.79-.87,7.58-4.48,9.03-6.91,1.08,3.39,2.99,6.53,6.36,7.9,5.06,2.06,10.39-1.11,11-1.49,.76-.47,5.53-3.5,6.3-9.22,.63-4.63-1.72-8.3-3.55-10.46,3.29-.11,6.53-1.02,8.7-3.6,3.52-4.17,2.15-10.22,1.98-10.92Z"/></g></svg>