<?xml version="1.0" encoding="UTF-8"?><svg xmlns="http://www.w3.org/2000/svg" viewBox="0 0 1080 1944"><defs><style>.cls-1{fill:#fff;}.cls-2{stroke:#3f3730;stroke-miterlimit:10;stroke-width:5px;}.cls-2,.cls-3{fill:#3f3730;}.cls-4{fill:#f6ef84;}.cls-5{fill:#4c5fa9;}.cls-6{fill:#bad6eb;}.cls-7{fill:#c8c0de;}.cls-8{fill:#b1d4f0;}</style></defs><g id="_배경_텍스트"><g><rect class="cls-6" width="1080" height="1944"/><rect class="cls-1" x="74.84" y="186.39" width="930.33" height="1606.64" rx="65.21" ry="65.21"/><path class="cls-2" d="M493.08,1608.73c-.56-3.44-1.32-5.72-2.28-6.84-.96-1.12-2.08-1.76-3.36-1.92-1.28-.16-1.92-.8-1.92-1.92,0-.48,.14-.9,.42-1.26,.28-.36,.74-.54,1.38-.54h17.16c.64,0,1.12,.2,1.44,.6,.32,.4,.48,.8,.48,1.2,0,1.04-.64,1.68-1.92,1.92-.88,.16-1.54,.4-1.98,.72-.44,.32-.72,.78-.84,1.38-.12,.6-.14,1.42-.06,2.46,.08,1.04,.2,2.32,.36,3.84l6.24,52.68,6.48-53.28c.24-1.76,.36-3.12,.36-4.08s-.12-1.7-.36-2.22c-.24-.52-.58-.86-1.02-1.02-.44-.16-.94-.32-1.5-.48-1.28-.24-1.92-.88-1.92-1.92,0-.4,.14-.8,.42-1.2,.28-.4,.74-.6,1.38-.6h13.32c.64,0,1.12,.2,1.44,.6,.32,.4,.48,.8,.48,1.2,0,.8-.64,1.44-1.92,1.92-.72,.24-1.36,.48-1.92,.72-.56,.24-1.04,.64-1.44,1.2-.4,.56-.76,1.36-1.08,2.4-.32,1.04-.64,2.52-.96,4.44l-10.68,74.64h-5.04l-11.16-74.64Zm50.64,60.84c0,1.92,.06,3.46,.18,4.62,.12,1.16,.34,2.04,.66,2.64,.32,.6,.78,1.02,1.38,1.26,.6,.24,1.34,.44,2.22,.6,1.04,.24,1.56,.84,1.56,1.8,0,.4-.14,.78-.42,1.14-.28,.36-.74,.54-1.38,.54h-16.92c-.64,0-1.1-.18-1.38-.54-.28-.36-.42-.74-.42-1.14,0-.96,.52-1.56,1.56-1.8,.88-.16,1.62-.36,2.22-.6,.6-.24,1.06-.66,1.38-1.26,.32-.6,.54-1.48,.66-2.64,.12-1.16,.18-2.7,.18-4.62v-60.72c0-1.92-.06-3.46-.18-4.62-.12-1.16-.34-2.04-.66-2.64-.32-.6-.78-1.02-1.38-1.26-.6-.24-1.34-.44-2.22-.6-1.04-.24-1.56-.84-1.56-1.8,0-.4,.14-.78,.42-1.14,.28-.36,.74-.54,1.38-.54h16.92c.64,0,1.1,.18,1.38,.54,.28,.36,.42,.74,.42,1.14,0,.96-.52,1.56-1.56,1.8-.88,.16-1.62,.36-2.22,.6-.6,.24-1.06,.66-1.38,1.26-.32,.6-.54,1.48-.66,2.64-.12,1.16-.18,2.7-.18,4.62v60.72Zm22.32,0c0,1.92,.06,3.46,.18,4.62,.12,1.16,.34,2.04,.66,2.64,.32,.6,.78,1.02,1.38,1.26,.6,.24,1.34,.44,2.22,.6,1.04,.24,1.56,.84,1.56,1.8,0,.4-.14,.78-.42,1.14-.28,.36-.74,.54-1.38,.54h-16.92c-.64,0-1.1-.18-1.38-.54-.28-.36-.42-.74-.42-1.14,0-.96,.52-1.56,1.56-1.8,.88-.16,1.62-.36,2.22-.6,.6-.24,1.06-.66,1.38-1.26,.32-.6,.54-1.48,.66-2.64,.12-1.16,.18-2.7,.18-4.62v-60.72c0-1.92-.06-3.46-.18-4.62-.12-1.16-.34-2.04-.66-2.64-.32-.6-.78-1.02-1.38-1.26-.6-.24-1.34-.44-2.22-.6-1.04-.24-1.56-.84-1.56-1.8,0-.4,.14-.78,.42-1.14,.28-.36,.74-.54,1.38-.54h16.92c.64,0,1.1,.18,1.38,.54,.28,.36,.42,.74,.42,1.14,0,.96-.52,1.56-1.56,1.8-.88,.16-1.62,.36-2.22,.6-.6,.24-1.06,.66-1.38,1.26-.32,.6-.54,1.48-.66,2.64-.12,1.16-.18,2.7-.18,4.62v60.72Zm22.32,0c0,1.92,.06,3.46,.18,4.62,.12,1.16,.34,2.04,.66,2.64,.32,.6,.78,1.02,1.38,1.26,.6,.24,1.34,.44,2.22,.6,1.04,.24,1.56,.84,1.56,1.8,0,.4-.14,.78-.42,1.14-.28,.36-.74,.54-1.38,.54h-16.92c-.64,0-1.1-.18-1.38-.54-.28-.36-.42-.74-.42-1.14,0-.96,.52-1.56,1.56-1.8,.88-.16,1.62-.36,2.22-.6,.6-.24,1.06-.66,1.38-1.26,.32-.6,.54-1.48,.66-2.64,.12-1.16,.18-2.7,.18-4.62v-60.72c0-1.92-.06-3.46-.18-4.62-.12-1.16-.34-2.04-.66-2.64-.32-.6-.78-1.02-1.38-1.26-.6-.24-1.34-.44-2.22-.6-1.04-.24-1.56-.84-1.56-1.8,0-.4,.14-.78,.42-1.14,.28-.36,.74-.54,1.38-.54h16.92c.64,0,1.1,.18,1.38,.54,.28,.36,.42,.74,.42,1.14,0,.96-.52,1.56-1.56,1.8-.88,.16-1.62,.36-2.22,.6-.6,.24-1.06,.66-1.38,1.26-.32,.6-.54,1.48-.66,2.64-.12,1.16-.18,2.7-.18,4.62v60.72Z"/><g><path class="cls-1" d="M410.88,142.03c-5.1,5.49-9.75,8.24-13.95,8.24-2.55,0-4.5-1.23-5.83-3.69-1.33-2.46-2-5.75-2-9.88,0-3.19,.65-7.58,1.96-13.16,1.31-5.58,3-10.28,5.08-14.08l1.98-3.55c-2.71,2.83-4.93,5.92-6.67,9.28-1.73,3.36-3.8,8.06-6.2,14.1-2.4,6.04-4.22,10.15-5.45,12.34s-2.41,3.97-3.54,5.35c-1.13,1.38-2.13,2.27-3.01,2.68-.88,.41-2.41,.62-4.6,.62-.84,0-1.26-.23-1.26-.68,0-.05,.15-.76,.45-2.15,.3-1.39,.61-3.62,.92-6.68,.31-3.06,.54-8.27,.68-15.62s1.21-13.64,3.21-18.88c-2.14,2.44-4.33,8.11-6.57,17.02l-.86,3.35c-2.35,9.27-5.04,15.53-8.08,18.78-3.03,3.25-6.01,4.87-8.93,4.87-1.8,0-3.39-.57-4.76-1.71s-2.05-2.45-2.05-3.93c0-1.14,.82-2.42,2.46-3.83,1.64-1.41,2.68-2.12,3.11-2.12,.5,0,.83,.17,.99,.51,.16,.34,.37,1.28,.62,2.82s.63,2.54,1.15,3.01c.51,.47,1.16,.7,1.94,.7,1.76,0,3.7-1.76,5.83-5.28s4.07-8.96,5.83-16.32l.99-4.14c.8-3.37,1.59-6.06,2.37-8.07,.78-2,1.8-4.01,3.08-6.02,1.85-2.87,2.99-4.4,3.41-4.6,.42-.19,1.21-.35,2.38-.48,1.16-.12,2.32-.19,3.49-.19,.46,0,.68,.26,.68,.79,0,.25-.07,.76-.21,1.54-.45,3.19-.66,6.39-.64,9.6l.07,9.16c.04,7.98-.59,14.41-1.91,19.31,1.21-1.46,2.96-5.22,5.26-11.28,3.33-8.59,6.36-15.04,9.09-19.35,1.3-2.07,2.87-4.06,4.7-5.96,1.83-1.9,3.1-2.92,3.81-3.06,2.42-.46,4.45-.68,6.12-.68,.62,0,.92,.17,.92,.51,0,.48-.38,1.55-1.12,3.21-1.77,4.01-3.43,9.44-4.96,16.27s-2.31,12.28-2.32,16.33c0,4.58,1.4,6.87,4.2,6.87,2.28,0,4.99-1.94,8.13-5.81v3.93Z"/><path class="cls-1" d="M427.66,142.03c-5.33,5.61-9.32,8.41-11.96,8.41-1.46,0-2.69-.75-3.69-2.24-1-1.49-1.5-3.37-1.5-5.62,0-4.85,1.64-11.58,4.92-20.17l8.68-1.81h.41l-3.42,10.7c-1.41,4.42-2.12,7.58-2.12,9.47,0,.75,.17,1.36,.5,1.83,.33,.47,.75,.7,1.25,.7,.89,0,1.78-.32,2.68-.97s2.32-2.06,4.26-4.22v3.93Zm-.68-34.79c0,5.47-2.02,8.2-6.05,8.2-1.96,0-3.63-.59-5.02-1.78,1.32-2,2.35-4.26,3.08-6.77,1.8,1.12,3.25,1.67,4.34,1.67,1.23,0,2.45-.44,3.66-1.33Z"/><path class="cls-1" d="M461.22,142.03c-5.26,5.56-9.78,8.34-13.54,8.34-1.53,0-2.76-.54-3.69-1.61-.93-1.07-1.4-2.51-1.4-4.31,0-2.44,1-6.16,3.01-11.18,1.07-2.69,1.61-4.4,1.61-5.13s-.29-1.09-.85-1.09c-.32,0-.74,.16-1.26,.48-.48,.32-1.04,.76-1.67,1.33-.57,.52-1.21,1.16-1.91,1.91-.62,.64-1.28,1.37-1.98,2.19l-1.91,2.22c-.84,1.03-1.37,2.11-1.57,3.25-.34,1.94-.57,3.71-.68,5.33-.07,1.21-.1,2.84-.1,4.89l-7.55,1.78c-.25-3.08-.38-5.37-.38-6.87,0-3.67,.43-7.14,1.28-10.42,.86-3.28,2.23-6.97,4.12-11.07l8.34-1.61c-1.75,4.72-2.91,8.43-3.45,11.14,3.73-4.17,6.7-7.06,8.89-8.66,2.19-1.61,4.15-2.41,5.85-2.41,1.16,0,2.13,.44,2.9,1.31,.77,.88,1.16,1.97,1.16,3.29,0,2.18-.98,5.78-2.94,10.8-1.34,3.44-2.02,5.68-2.02,6.7,0,1.37,.56,2.06,1.68,2.06,1.67,0,4.36-2.2,8.09-6.6v3.93Z"/><path class="cls-1" d="M491.88,142.03c-1.16,1.03-2.29,1.75-3.38,2.17-1.09,.42-1.96,.63-2.6,.63-1.64,0-3.27-.64-4.89-1.91-3.28,4.97-7.04,7.45-11.28,7.45-2.64,0-4.79-.99-6.43-2.97s-2.46-4.61-2.46-7.9c0-5.2,1.85-9.66,5.54-13.38s8.1-5.59,13.23-5.59c1.94,0,3.35,.21,4.25,.63,.9,.42,1.45,.92,1.66,1.49,.21,.57,.31,1.29,.31,2.15,0,4.26-1.16,9.49-3.49,15.69,1.16,1.07,2.38,1.61,3.66,1.61,1.53,0,3.49-1.33,5.88-4v3.93Zm-11.28-19.11c-.34-.14-.83-.21-1.47-.21-2.96,0-5.28,1.55-6.96,4.65-1.67,3.1-2.51,6.72-2.51,10.87,0,2.3,.36,4.09,1.09,5.37,.73,1.28,1.74,1.91,3.04,1.91,1.62,0,3.37-1.49,5.26-4.48-2.14-2.69-3.21-5.58-3.21-8.68,0-3.65,1.58-6.79,4.75-9.43Z"/><path class="cls-1" d="M517.42,142.03c-5.72,5.61-10.13,8.41-13.23,8.41-1.39,0-2.56-.59-3.52-1.76s-1.44-2.63-1.44-4.36c0-3.21,1.72-7.52,5.16-12.92-1.69,.87-3.53,1.47-5.54,1.81-1.48,2.73-3.81,5.67-6.97,8.82h-.79v-3.08c1.78-1.85,3.38-3.83,4.82-5.95-1.96-.87-2.94-2.15-2.94-3.86s.6-3.63,1.79-5.62c1.2-1.99,2.84-2.99,4.94-2.99,1.78,0,2.67,.91,2.67,2.73,0,1.44-.51,3.49-1.54,6.15,3.78-.41,7.09-3.3,9.91-8.68l3.11-.14-3.18,8.75c-1.32,3.69-2.18,6.2-2.56,7.54-.39,1.33-.58,2.51-.58,3.54,0,.96,.22,1.72,.67,2.29,.44,.57,1.04,.85,1.79,.85,.82,0,1.61-.28,2.36-.84,.75-.56,2.44-2.1,5.06-4.63v3.93Z"/><path class="cls-1" d="M582.32,142.06c-5.24,5.58-10.05,8.37-14.42,8.37-2.42,0-4.33-.85-5.74-2.56-1.41-1.71-2.2-4.15-2.36-7.31-2.76,3.35-5.2,5.83-7.33,7.45s-4.4,2.43-6.82,2.43c-3.1,0-5.59-1.34-7.47-4.02-1.88-2.68-2.82-6.25-2.82-10.72,0-5.33,1.23-10.83,3.69-16.49,2.46-5.66,6.11-10.13,10.94-13.42,4.83-3.28,10.69-4.92,17.57-4.92,5.15,0,9.81,.7,13.98,2.08v2.26c-3.4,3.96-6.24,9.51-8.53,16.65-2.29,7.13-3.44,12.57-3.44,16.3,0,1.82,.37,3.24,1.11,4.24,.74,1,1.77,1.5,3.09,1.5,2.37,0,5.22-1.93,8.54-5.78v3.93Zm-9.95-36.85c-2.1-1.14-4.35-1.71-6.77-1.71-3.81,0-7.24,1.59-10.29,4.77-3.05,3.18-5.46,7.39-7.23,12.63-1.77,5.24-2.65,9.79-2.65,13.64,0,2.58,.5,4.67,1.49,6.27,.99,1.61,2.26,2.41,3.81,2.41,2.69,0,5.78-2.45,9.26-7.35,1.44-12.85,5.56-23.07,12.37-30.66Z"/><path class="cls-1" d="M607.85,142.03c-5.72,5.61-10.13,8.41-13.23,8.41-1.39,0-2.56-.59-3.52-1.76s-1.44-2.63-1.44-4.36c0-3.21,1.72-7.52,5.16-12.92-1.69,.87-3.53,1.47-5.54,1.81-1.48,2.73-3.81,5.67-6.97,8.82h-.79v-3.08c1.78-1.85,3.38-3.83,4.82-5.95-1.96-.87-2.94-2.15-2.94-3.86s.6-3.63,1.79-5.62c1.2-1.99,2.84-2.99,4.94-2.99,1.78,0,2.67,.91,2.67,2.73,0,1.44-.51,3.49-1.54,6.15,3.78-.41,7.09-3.3,9.91-8.68l3.11-.14-3.18,8.75c-1.32,3.69-2.18,6.2-2.56,7.54-.39,1.33-.58,2.51-.58,3.54,0,.96,.22,1.72,.67,2.29,.44,.57,1.04,.85,1.79,.85,.82,0,1.61-.28,2.36-.84,.75-.56,2.44-2.1,5.06-4.63v3.93Z"/><path class="cls-1" d="M633.42,142.03c-2.92,2.87-5.59,4.98-8.02,6.32-2.43,1.34-4.96,2.02-7.6,2.02-2.96,0-5.41-.96-7.33-2.89-1.93-1.93-2.89-4.37-2.89-7.33,0-4.85,1.77-9.34,5.31-13.45,3.54-4.11,7.38-6.17,11.5-6.17,2.03,0,3.68,.56,4.96,1.69,1.28,1.13,1.91,2.59,1.91,4.39,0,.64-.12,1.12-.36,1.44-.24,.32-.69,.64-1.35,.96l-3.96,1.88c-.48,.23-.83,.34-1.06,.34-.32,0-.48-.23-.48-.68,0-.18,.07-.78,.21-1.79,.14-1.01,.21-1.63,.21-1.86,0-1-.21-1.81-.63-2.43s-.99-.92-1.69-.92c-1.66,0-3.18,1.23-4.56,3.69-1.38,2.46-2.07,5.26-2.07,8.41,0,2.71,.65,4.88,1.95,6.49,1.3,1.62,3.03,2.43,5.2,2.43,1.85,0,3.58-.53,5.21-1.59s3.48-2.68,5.55-4.87v3.93Z"/><path class="cls-1" d="M669.92,142.03c-3.65,3.46-6.25,5.72-7.83,6.77s-3.08,1.57-4.51,1.57c-3.6,0-5.3-3.18-5.09-9.54-2.28,3.26-4.38,5.66-6.31,7.21s-3.91,2.32-5.96,2.32-3.71-.94-5.11-2.82c-1.4-1.88-2.1-4.19-2.1-6.92,0-3.42,.94-6.68,2.82-9.78,1.88-3.1,4.29-5.61,7.23-7.52s5.54-2.87,7.79-2.87c2.85,0,4.84,1.31,5.98,3.93l6.99-3.86h1.92l-3.01,10.02c-1.55,5.04-2.33,8.49-2.33,10.36s.69,2.94,2.08,2.94c.89,0,1.87-.47,2.94-1.42,1.07-.95,2.57-2.39,4.51-4.32v3.93Zm-25.02,1.88c2.28,0,4.43-1.94,6.44-5.83,2.02-3.88,3.02-7.47,3.02-10.75,0-1.28-.29-2.27-.85-2.99-.57-.72-1.33-1.08-2.29-1.08-2.28,0-4.44,1.94-6.48,5.81-2.04,3.87-3.06,7.44-3.06,10.7,0,1.23,.3,2.23,.91,2.99,.6,.76,1.37,1.15,2.31,1.15Z"/><path class="cls-1" d="M703.46,142.03c-5.26,5.56-9.78,8.34-13.54,8.34-1.53,0-2.76-.54-3.69-1.61-.93-1.07-1.4-2.51-1.4-4.31,0-2.44,1-6.16,3.01-11.18,1.07-2.69,1.61-4.4,1.61-5.13s-.29-1.09-.85-1.09c-.32,0-.74,.16-1.26,.48-.48,.32-1.04,.76-1.67,1.33-.57,.52-1.21,1.16-1.91,1.91-.62,.64-1.28,1.37-1.98,2.19l-1.91,2.22c-.84,1.03-1.37,2.11-1.57,3.25-.34,1.94-.57,3.71-.68,5.33-.07,1.21-.1,2.84-.1,4.89l-7.55,1.78c-.25-3.08-.38-5.37-.38-6.87,0-3.67,.43-7.14,1.28-10.42,.86-3.28,2.23-6.97,4.12-11.07l8.34-1.61c-1.75,4.72-2.91,8.43-3.45,11.14,3.73-4.17,6.7-7.06,8.89-8.66,2.19-1.61,4.15-2.41,5.85-2.41,1.16,0,2.13,.44,2.9,1.31,.77,.88,1.16,1.97,1.16,3.29,0,2.18-.98,5.78-2.94,10.8-1.34,3.44-2.02,5.68-2.02,6.7,0,1.37,.56,2.06,1.68,2.06,1.67,0,4.36-2.2,8.09-6.6v3.93Z"/><path class="cls-1" d="M739.92,142.03c-3.65,3.46-6.25,5.72-7.83,6.77s-3.08,1.57-4.51,1.57c-3.6,0-5.3-3.18-5.09-9.54-2.28,3.26-4.38,5.66-6.31,7.21s-3.91,2.32-5.96,2.32-3.71-.94-5.11-2.82c-1.4-1.88-2.1-4.19-2.1-6.92,0-3.42,.94-6.68,2.82-9.78,1.88-3.1,4.29-5.61,7.23-7.52s5.54-2.87,7.79-2.87c2.85,0,4.84,1.31,5.98,3.93l6.99-3.86h1.92l-3.01,10.02c-1.55,5.04-2.33,8.49-2.33,10.36s.69,2.94,2.08,2.94c.89,0,1.87-.47,2.94-1.42,1.07-.95,2.57-2.39,4.51-4.32v3.93Zm-25.02,1.88c2.28,0,4.43-1.94,6.44-5.83,2.02-3.88,3.02-7.47,3.02-10.75,0-1.28-.29-2.27-.85-2.99-.57-.72-1.33-1.08-2.29-1.08-2.28,0-4.44,1.94-6.48,5.81-2.04,3.87-3.06,7.44-3.06,10.7,0,1.23,.3,2.23,.91,2.99,.6,.76,1.37,1.15,2.31,1.15Z"/></g><g><path class="cls-1" d="M508.35,1856.06c-5.4,5.58-11.92,8.37-19.55,8.37-5.47,0-9.95-1.71-13.45-5.14-3.5-3.43-5.25-7.83-5.25-13.21s1.26-10.45,3.79-15.28c2.53-4.83,5.84-8.69,9.93-11.59,4.09-2.89,8.11-4.34,12.05-4.34,3.3,0,6,.99,8.08,2.97,2.09,1.98,3.13,4.56,3.13,7.72,0,4.12-1.26,7.7-3.78,10.72-2.52,3.02-5.46,4.53-8.84,4.53-1.78,0-3.24-.46-4.38-1.37-1.14-.91-1.71-2.08-1.71-3.52,0-1.23,.49-2.37,1.47-3.42,.73,1.34,1.73,2.02,3.01,2.02,1.82,0,3.51-1.14,5.08-3.42,1.56-2.28,2.34-4.77,2.34-7.49,0-1.89-.44-3.4-1.32-4.51-.88-1.12-2.04-1.67-3.5-1.67-2.12,0-4.38,1.32-6.78,3.96-2.41,2.64-4.41,6.04-6.02,10.19-1.61,4.15-2.41,8.09-2.41,11.83,0,4.76,1.35,8.67,4.05,11.72,2.7,3.05,6.13,4.58,10.3,4.58,2.64,0,5.02-.61,7.14-1.84,2.12-1.23,4.32-3.14,6.6-5.75v3.93Z"/><path class="cls-1" d="M544.82,1856.03c-3.01,2.85-5.53,4.95-7.55,6.31-2.03,1.36-3.85,2.03-5.47,2.03-1.8,0-3.18-.72-4.15-2.15s-1.45-3.38-1.45-5.84c-2.51,2.76-4.75,4.79-6.73,6.1s-3.92,1.97-5.81,1.97c-1.73,0-3.12-.72-4.17-2.15-1.05-1.44-1.57-3.38-1.57-5.84,0-4.74,1.59-11.42,4.79-20.03l9.13-1.82c-3.75,10.92-5.63,17.93-5.64,21.03,0,2.19,.82,3.28,2.46,3.28,1.18,0,2.65-.96,4.41-2.89,1.75-1.93,2.85-3.61,3.28-5.04l4.48-14.56,9.3-1.88c-2.15,6.86-3.62,11.68-4.42,14.46s-1.2,4.73-1.2,5.85c0,2.14,.73,3.21,2.19,3.21,1.19,0,2.94-1.08,5.27-3.25l2.87-2.7v3.93Z"/><path class="cls-1" d="M561.14,1840.41c1.64-1.98,3.19-3.45,4.64-4.39,1.46-.95,3.07-1.42,4.85-1.42,2.3,0,4.17,.88,5.62,2.65,1.45,1.77,2.17,4.08,2.17,6.96,0,5.04-1.74,9.66-5.21,13.86s-7.25,6.31-11.33,6.31c-1.14,0-2.04-.13-2.7-.38-.66-.25-1.53-.83-2.6-1.74-1.64,7.22-2.7,13.01-3.18,17.36l-8.68,1.54c1.62-10.66,3.68-21.46,6.19-32.4-3.01,3.94-5.04,6.37-6.08,7.28h-.79v-3.08c4.33-4.67,7.9-10.34,10.7-17.02l7.73-1.4-1.32,5.88Zm-3.95,18.28c1.19,1.96,2.5,2.94,3.93,2.94,2.3,0,4.34-1.75,6.11-5.25,1.77-3.5,2.65-6.91,2.65-10.24,0-1.75-.36-3.17-1.08-4.26-.72-1.08-1.65-1.62-2.78-1.62-.89,0-1.82,.4-2.8,1.2s-1.72,1.73-2.22,2.79-1.07,2.91-1.71,5.55l-2.1,8.88Z"/><path class="cls-1" d="M594.72,1836c1.57-.41,3.16-.75,4.75-1.01,1.59-.26,2.55-.39,2.87-.39,.23,0,.34,.09,.34,.27,0,.34-.09,.69-.27,1.06-.37,1.05-.55,2.05-.55,3.01,0,1.18,.69,2.8,2.05,4.85s2.05,3.96,2.05,5.71c0,3.49-1.67,6.85-5.01,10.08-3.34,3.24-6.8,4.85-10.37,4.85-1.55,0-2.96-.41-4.24-1.23-1.28-.82-1.91-1.7-1.91-2.63,0-.55,.63-1.58,1.9-3.11,1.26-1.53,2.17-2.29,2.72-2.29,.73,0,1.38,.93,1.95,2.8,.57,1.87,1.55,2.8,2.94,2.8s2.69-.64,3.91-1.93,1.83-2.67,1.83-4.15c0-1.44-.77-3.35-2.32-5.74s-2.58-4.4-3.08-6.02c-2.64,4.26-5.99,8.62-10.05,13.09h-.79v-3.08c5.58-5.95,9.34-11.6,11.28-16.95Z"/></g></g></g><g id="_반짝이"><polygon class="cls-7" points="340.41 588 353.34 638.19 394.99 648.5 353.34 659.81 340.41 710.92 326.78 659.81 285.83 648.5 326.78 638.19 340.41 588"/><polygon class="cls-7" points="913.41 977 921.61 1008.81 948.01 1015.35 921.61 1022.52 913.41 1054.92 904.77 1022.52 878.81 1015.35 904.77 1008.81 913.41 977"/><circle class="cls-8" cx="242.5" cy="679.5" r="9.5"/><circle class="cls-7" cx="199" cy="707" r="6"/><circle class="cls-7" cx="187.5" cy="1009.5" r="10.5"/><circle class="cls-8" cx="882.5" cy="926.5" r="8.5"/><circle class="cls-7" cx="946.5" cy="1274.5" r="9.5"/><circle class="cls-8" cx="918" cy="1357" r="7"/><circle class="cls-8" cx="293.5" cy="1377.5" r="11.5"/><circle class="cls-7" cx="343" cy="1398" r="8"/></g><g id="_컵_8"><path class="cls-4" d="M555,528.39c-9,6.55-20.07,10.42-32.06,10.42-30.14,0-54.57-24.43-54.57-54.57s24.43-54.57,54.57-54.57c11.98,0,23.05,3.87,32.06,10.42-13.19-17-33.81-27.94-56.99-27.94-39.81,0-72.09,32.28-72.09,72.09s32.28,72.09,72.09,72.09c23.18,0,43.8-10.94,56.99-27.94Z"/><path class="cls-3" d="M679.46,647.47c-2.33-2.3-18.44-17.7-40.49-15.98-7.2,.56-12.19,2.73-20.54,6.35-5.99,2.6-18.51,8.17-30.42,20.11-8.8,8.83-20.21,20.28-18.29,32.94,.75,4.93,2.74,4.97,6.38,16.09,3.82,11.7,1.78,12.19,4.61,19,4.29,10.32,9.29,9.98,18.11,24.33,4.12,6.7,6.18,10.05,7.29,15.08,2.54,11.51-2.98,15.86-1.66,27.85,.42,3.84,2.84,9.12,7.68,19.67,9.61,20.95,12.61,21.81,13.59,30.25,1.03,8.84-1.31,16.11-3.97,24.35-4.09,12.7-7.08,12.26-10.18,22.1-3.09,9.83-1.37,14.3-.74,38.85,.37,14.1-.07,17.8,.1,24.93,.33,14.36,2.97,37.53,15,70.77-.18-18.35-.96-33.14-1.64-43.27-1.36-20.14-2.67-26.97,.81-37.93,4.13-13,8.81-12.33,11.94-25.02,2.94-11.92-.97-13.37,1.12-34.26,1.16-11.63,1.83-17.58,5.96-24.51,5.1-8.57,9.32-8.38,10.8-14.76,1.67-7.21-2.9-10.98-7.15-25.25-1.91-6.41-2.83-11.82-3.31-15.42,1.78-2.18,4.23-5.8,5.13-10.59,1-5.37-.77-7.84-3.7-20.01-1.49-6.19-2.38-11.17-3.46-17.25-.96-5.37-1.11-6.91-2.08-12.75-.65-3.91-1.58-9.24-2.83-15.65-6.37-3.9-14.31-10.47-19.12-20.7-2.4-5.11-9.69-20.65-.38-34.34,5.4-7.94,16.31-15.28,28.52-13.78,9.11,1.12,19.31,7.22,21.19,16.73,1.25,6.32-.64,14.6-7.74,17.85-5.9,2.7-14.89,1.49-18.86-4.6-2.85-4.38-1.66-9.08-1.01-10.9,.6-1.7,2.58-2.64,4.41-2.11,1.84,.53,2.84,2.34,2.23,4.04-.27,.76-1.04,3.42,.38,5.6,1.92,2.95,6.77,3.6,9.81,2.21,4.03-1.84,4.53-7.63,3.89-10.84-1.28-6.46-8.85-10.79-15.32-11.58-9.1-1.12-17.4,4.6-21.59,10.76-7.34,10.8-1.14,24.01,.9,28.35,5.12,10.9,14.42,17.03,20.21,19.96,5.62,.22,12.9-.36,20.51-3.42,17.12-6.87,28.05-23.06,28.79-39.37,.83-18.33-11.49-30.48-14.9-33.84Z"/><path class="cls-8" d="M535.92,823.65v-68.65h-141.84v68.65c0,34.05,24,62.49,56,69.34-2.9,1.27-4.94,4.18-4.94,7.53h0c0,4.52,3.7,8.23,8.23,8.23h1.17v62.87l-49.4,19.97h49.4v.29h20.92v-.29h49.4l-49.4-19.97v-62.87h1.17c4.52,0,8.23-3.7,8.23-8.23h0c0-3.36-2.04-6.26-4.94-7.53,32-6.85,56-35.29,56-69.34Zm-52.87,12.41l-12.98-6.17-4.81,30.96-4.81-30.96-12.98,6.17,6.17-12.98-29.89-4.81,29.89-4.81-6.17-12.98,12.98,6.17,4.81-28.57,4.81,28.57,12.98-6.17-6.17,12.98,29.36,4.81-29.36,4.81,6.17,12.98Z"/><path class="cls-8" d="M349.92,823.65v-68.65H208.08v68.65c0,34.05,24,62.49,56,69.34-2.9,1.27-4.94,4.18-4.94,7.53h0c0,4.52,3.7,8.23,8.23,8.23h1.17v62.87l-49.4,19.97h49.4v.29h20.92v-.29h49.4l-49.4-19.97v-62.87h1.17c4.52,0,8.23-3.7,8.23-8.23h0c0-3.36-2.04-6.26-4.94-7.53,32-6.85,56-35.29,56-69.34Zm-52.87,12.41l-12.98-6.17-4.81,30.96-4.81-30.96-12.98,6.17,6.17-12.98-29.89-4.81,29.89-4.81-6.17-12.98,12.98,6.17,4.81-28.57,4.81,28.57,12.98-6.17-6.17,12.98,29.36,4.81-29.36,4.81,6.17,12.98Z"/><path class="cls-5" d="M610.92,1156.65v-68.65h-141.84v68.65c0,34.05,24,62.49,56,69.34-2.9,1.27-4.94,4.18-4.94,7.53h0c0,4.52,3.7,8.23,8.23,8.23h1.17v62.87l-49.4,19.97h49.4v.29h20.92v-.29h49.4l-49.4-19.97v-62.87h1.17c4.52,0,8.23-3.7,8.23-8.23h0c0-3.36-2.04-6.26-4.94-7.53,32-6.85,56-35.29,56-69.34Zm-52.87,12.41l-12.98-6.17-4.81,30.96-4.81-30.96-12.98,6.17,6.17-12.98-29.89-4.81,29.89-4.81-6.17-12.98,12.98,6.17,4.81-28.57,4.81,28.57,12.98-6.17-6.17,12.98,29.36,4.81-29.36,4.81,6.17,12.98Z"/><path class="cls-5" d="M780.42,1156.65v-68.65h-141.84v68.65c0,34.05,24,62.49,56,69.34-2.9,1.27-4.94,4.18-4.94,7.53h0c0,4.52,3.7,8.23,8.23,8.23h1.17v62.87l-49.4,19.97h49.4v.29h20.92v-.29h49.4l-49.4-19.97v-62.87h1.17c4.52,0,8.23-3.7,8.23-8.23h0c0-3.36-2.04-6.26-4.94-7.53,32-6.85,56-35.29,56-69.34Zm-52.87,12.41l-12.98-6.17-4.81,30.96-4.81-30.96-12.98,6.17,6.17-12.98-29.89-4.81,29.89-4.81-6.17-12.98,12.98,6.17,4.81-28.57,4.81,28.57,12.98-6.17-6.17,12.98,29.36,4.81-29.36,4.81,6.17,12.98Z"/><path class="cls-5" d="M949.92,1156.65v-68.65h-141.84v68.65c0,34.05,24,62.49,56,69.34-2.9,1.27-4.94,4.18-4.94,7.53h0c0,4.52,3.7,8.23,8.23,8.23h1.17v62.87l-49.4,19.97h49.4v.29h20.92v-.29h49.4l-49.4-19.97v-62.87h1.17c4.52,0,8.23-3.7,8.23-8.23h0c0-3.36-2.04-6.26-4.94-7.53,32-6.85,56-35.29,56-69.34Zm-52.87,12.41l-12.98-6.17-4.81,30.96-4.81-30.96-12.98,6.17,6.17-12.98-29.89-4.81,29.89-4.81-6.17-12.98,12.98,6.17,4.81-28.57,4.81,28.57,12.98-6.17-6.17,12.98,29.36,4.81-29.36,4.81,6.17,12.98Z"/><path class="cls-5" d="M441.42,1156.65v-68.65h-141.84v68.65c0,34.05,24,62.49,56,69.34-2.9,1.27-4.94,4.18-4.94,7.53h0c0,4.52,3.7,8.23,8.23,8.23h1.17v62.87l-49.4,19.97h49.4v.29h20.92v-.29h49.4l-49.4-19.97v-62.87h1.17c4.52,0,8.23-3.7,8.23-8.23h0c0-3.36-2.04-6.26-4.94-7.53,32-6.85,56-35.29,56-69.34Zm-52.87,12.41l-12.98-6.17-4.81,30.96-4.81-30.96-12.98,6.17,6.17-12.98-29.89-4.81,29.89-4.81-6.17-12.98,12.98,6.17,4.81-28.57,4.81,28.57,12.98-6.17-6.17,12.98,29.36,4.81-29.36,4.81,6.17,12.98Z"/><path class="cls-5" d="M271.92,1156.65v-68.65H130.08v68.65c0,34.05,24,62.49,56,69.34-2.9,1.27-4.94,4.18-4.94,7.53h0c0,4.52,3.7,8.23,8.23,8.23h1.17v62.87l-49.4,19.97h49.4v.29h20.92v-.29h49.4l-49.4-19.97v-62.87h1.17c4.52,0,8.23-3.7,8.23-8.23h0c0-3.36-2.04-6.26-4.94-7.53,32-6.85,56-35.29,56-69.34Zm-52.87,12.41l-12.98-6.17-4.81,30.96-4.81-30.96-12.98,6.17,6.17-12.98-29.89-4.81,29.89-4.81-6.17-12.98,12.98,6.17,4.81-28.57,4.81,28.57,12.98-6.17-6.17,12.98,29.36,4.81-29.36,4.81,6.17,12.98Z"/><path class="cls-8" d="M871.92,823.65v-68.65h-141.84v68.65c0,34.05,24,62.49,56,69.34-2.9,1.27-4.94,4.18-4.94,7.53h0c0,4.52,3.7,8.23,8.23,8.23h1.17v62.87l-49.4,19.97h49.4v.29h20.92v-.29h49.4l-49.4-19.97v-62.87h1.17c4.52,0,8.23-3.7,8.23-8.23h0c0-3.36-2.04-6.26-4.94-7.53,32-6.85,56-35.29,56-69.34Zm-52.87,12.41l-12.98-6.17-4.81,30.96-4.81-30.96-12.98,6.17,6.17-12.98-29.89-4.81,29.89-4.81-6.17-12.98,12.98,6.17,4.81-28.57,4.81,28.57,12.98-6.17-6.17,12.98,29.36,4.81-29.36,4.81,6.17,12.98Z"/></g></svg>