<?xml version="1.0" encoding="UTF-8"?><svg xmlns="http://www.w3.org/2000/svg" viewBox="0 0 1080 1944"><defs><style>.cls-1{fill:#fff;}.cls-2{fill:#f6ef84;}.cls-3{fill:#3f3730;}.cls-4{fill:#4c5fa9;}.cls-5{stroke-width:10px;}.cls-5,.cls-6,.cls-7{fill:none;stroke-linecap:round;stroke-miterlimit:10;}.cls-5,.cls-7{stroke:#f6ef84;}.cls-8{fill:#bad6eb;}.cls-9{fill:#c8c0de;}.cls-10{fill:#b1d4f0;}.cls-6{stroke:#4c5fa9;stroke-width:9px;}.cls-7{stroke-width:7px;}</style></defs><g id="_배경"><g><rect class="cls-8" width="1080" height="1944"/><rect class="cls-1" x="74.84" y="186.39" width="930.33" height="1606.64" rx="65.21" ry="65.21"/><g><path class="cls-3" d="M248.08,1651.62c1.4,0,2.09,.45,2.09,1.34l-1.29,7.14-.27,13.27c-.18,4.33-.84,8.33-1.99,11.98-1.04,3.4-2.49,6.5-4.35,9.29-1.68,2.58-3.71,4.85-6.07,6.82-2.18,1.83-4.58,3.37-7.2,4.62-2.44,1.15-5,2.01-7.68,2.58-2.47,.57-4.96,.86-7.47,.86-5.84,0-10.41-1.26-13.72-3.79-3.31-2.53-4.97-4.97-4.97-7.33,0-1.36,1.23-3.12,3.68-5.26,2.45-2.15,4.31-3.22,5.56-3.22,1.54,0,2.31,1.43,2.31,4.3,0,4.66,.76,7.67,2.28,9.05,1.52,1.38,3.55,2.07,6.1,2.07,4.12,0,7.73-1.31,10.82-3.92,3.1-2.61,5.18-5.74,6.26-9.37,1.07-3.63,1.63-9,1.67-16.09,.04-7.09,.56-11.97,1.58-14.64,1.02-2.67,2.89-4.95,5.61-6.85,2.72-1.9,5.07-2.85,7.04-2.85Zm20.14-16.49c-1.04,7.7-4.32,11.55-9.83,11.55-1.93,0-5.64-.87-11.12-2.6-5.48-1.74-10.21-2.61-14.18-2.61-5.12,0-9.55,1.9-13.29,5.7-3.74,3.8-5.61,7.12-5.61,9.95s1.72,5.22,5.16,7.37c1.4,.9,2.09,1.7,2.09,2.42,0,.97-.99,2.28-2.98,3.93-1.99,1.65-3.48,2.47-4.49,2.47-1.68,0-3.26-.97-4.73-2.9-1.47-1.93-2.2-4.05-2.2-6.34,0-4.44,1.81-9.28,5.42-14.53,3.62-5.25,8.34-9.53,14.18-12.84,5.84-3.31,11.96-4.97,18.37-4.97,4.33,0,8.43,.65,12.3,1.96,3.87,1.31,6.28,1.96,7.25,1.96,.86,0,1.59-.25,2.2-.75l.32-.11,1.13,.32Z"/><path class="cls-3" d="M316.19,1696.42c-8.49,8.81-15.47,13.21-20.95,13.21-2.44,0-4.45-.83-6.04-2.5-1.59-1.67-2.39-3.77-2.39-6.31,0-4.3,1.65-10.35,4.94-18.15,1.75-4.22,2.63-6.98,2.63-8.27,0-1.47-.7-2.2-2.09-2.2s-3.51,.98-6.23,2.93c-2.72,1.95-5.59,4.61-8.59,7.98-1.25,6.59-1.88,14.5-1.88,23.74l-11.98,2.79c-.47-3.76-.7-7.84-.7-12.25,0-10.67,1.47-20.61,4.4-29.81,2.94-9.2,7.55-18.96,13.86-29.27,4.69-1.9,8.78-3.45,12.27-4.65,3.49-1.2,5.49-1.8,5.99-1.8,.93,0,1.72,.75,2.36,2.26s.97,3.38,.97,5.64c0,3.8-1.16,7.99-3.49,12.6-2.33,4.6-5.98,10.16-10.96,16.68,4.77-2.76,7.94-4.49,9.52-5.21,1.58-.72,3.19-1.07,4.84-1.07,1.83,0,3.31,.65,4.44,1.96,1.13,1.31,1.69,3.04,1.69,5.19,0,3.23-1.28,8.22-3.85,14.99-2.57,6.76-3.85,11.01-3.85,12.72,0,.79,.24,1.49,.73,2.09s1.05,.91,1.69,.91c2.29,0,6.52-3.46,12.67-10.37v6.18Zm-37.22-22.02c12.78-14.86,19.17-25.82,19.17-32.87,0-2.15-.59-3.22-1.77-3.22-1.97,0-4.78,3.53-8.43,10.58-3.65,7.05-6.64,15.56-8.97,25.51Z"/><path class="cls-3" d="M356.31,1696.42c-4.55,4.48-8.63,7.78-12.25,9.91-3.62,2.13-7.61,3.2-11.98,3.2-4.87,0-8.8-1.56-11.79-4.67-2.99-3.12-4.48-7.21-4.48-12.3,0-7.59,2.63-14.46,7.9-20.6,5.26-6.14,11.1-9.21,17.51-9.21,3.33,0,6,.86,8,2.58,2,1.72,3.01,3.97,3.01,6.77,0,7.41-7.88,13.43-23.63,18.05,1.43,6.98,5.17,10.47,11.23,10.47,2.36,0,4.62-.64,6.77-1.91,2.15-1.27,5.39-4.09,9.72-8.46v6.18Zm-28.14-9.94c9.17-2.58,13.75-7.34,13.75-14.29,0-3.44-1.25-5.16-3.76-5.16-2.36,0-4.62,1.8-6.77,5.4-2.15,3.6-3.22,8.28-3.22,14.04Z"/><path class="cls-3" d="M481.19,1696.47c-4.37,4.53-8.33,7.86-11.9,9.98-3.56,2.12-7.22,3.18-10.98,3.18-4.23,0-7.78-1.86-10.66-5.59-2.88-3.72-4.32-9.17-4.32-16.33,0-2.97,.37-6.86,1.1-11.66-5.35,.43-8.63,.68-9.84,.75-2.27,11.82-6.24,20.24-11.91,25.27-5.67,5.03-12.09,7.55-19.25,7.55-5.3,0-9.67-1.23-13.1-3.68-3.44-2.45-5.16-4.83-5.16-7.12,0-1.68,1.28-3.61,3.84-5.77,2.56-2.17,4.32-3.25,5.29-3.25,1.4,0,2.09,1.5,2.09,4.51,0,7.41,2.49,11.12,7.47,11.12,3.65,0,6.69-2.04,9.1-6.12,2.42-4.08,4.34-10.85,5.76-20.3-4.29,.61-8.55,2.7-12.77,6.28-.29-.39-.54-1.93-.75-4.62,3.77-4.15,8.75-7.05,14.96-8.7,1.23-5.8,2.8-10.53,4.7-14.18,1.9-3.65,6.71-9.29,14.45-16.92-3.72,1.47-6.77,2.2-9.13,2.2-1.54,0-3.46-.41-5.77-1.24-2.31-.82-4.16-1.24-5.56-1.24-3.04,0-5.53,1.1-7.47,3.3-1.93,2.2-2.9,4.45-2.9,6.74s1.22,4.39,3.65,6.28c1.11,.68,1.67,1.33,1.67,1.93,0,1.07-.72,2.41-2.15,4-1.43,1.59-2.78,2.39-4.03,2.39-1.4,0-2.69-.99-3.87-2.98-1.18-1.99-1.77-4.18-1.77-6.58,0-5.3,2.6-10.62,7.79-15.95,5.19-5.33,10.35-8,15.47-8,1.11,0,3.26,.46,6.45,1.37,3.19,.91,5.35,1.37,6.5,1.37,2.29,0,4.53-1,6.71-3.01,2.72,1.43,4.08,2.33,4.08,2.69,0,.5-1.08,1.83-3.24,4s-3.94,5.26-5.33,9.27c-1.39,4.01-2.86,11.49-4.39,22.45,4.11-.18,7.71-.5,10.79-.97,1.63-5.55,3.39-10.22,5.29-14.02,1.9-3.79,4.07-7.62,6.53-11.47,2.45-3.85,4.33-6.2,5.64-7.06,1.31-.86,4.08-1.84,8.33-2.95,4.24-1.11,6.38-1.67,6.42-1.67,.43,0,.64,.11,.64,.32,0,.54-.8,1.92-2.41,4.16-1.61,2.24-3.92,6.27-6.94,12.09s-5.58,12.02-7.68,18.61c3.87-.64,7.83-2.36,11.88-5.16,.47,.21,.75,.53,.86,.94,.11,.41,.16,1.44,.16,3.09-3.07,3.72-8.02,6.37-14.84,7.95-1.47,6.99-2.21,11.93-2.21,14.83,0,3.51,.77,6.29,2.31,8.35,1.54,2.06,3.59,3.09,6.17,3.09,2.07,0,4.16-.67,6.25-2,2.09-1.34,4.76-3.91,8.02-7.72v6.18Z"/><path class="cls-3" d="M507.56,1696.42c-8.38,8.81-14.65,13.21-18.8,13.21-2.29,0-4.23-1.17-5.8-3.52-1.58-2.34-2.36-5.29-2.36-8.83,0-7.63,2.58-18.19,7.73-31.69l13.64-2.85h.64l-5.37,16.81c-2.22,6.95-3.33,11.91-3.33,14.88,0,1.18,.26,2.14,.78,2.87,.52,.73,1.17,1.1,1.96,1.1,1.4,0,2.8-.51,4.22-1.53,1.42-1.02,3.64-3.23,6.69-6.63v6.18Zm-1.07-54.68c0,8.59-3.17,12.89-9.51,12.89-3.08,0-5.71-.93-7.9-2.79,2.08-3.15,3.69-6.7,4.83-10.63,2.83,1.75,5.1,2.63,6.82,2.63,1.93,0,3.85-.7,5.75-2.09Z"/><path class="cls-3" d="M547.73,1696.42c-4.55,4.48-8.63,7.78-12.25,9.91-3.62,2.13-7.61,3.2-11.98,3.2-4.87,0-8.8-1.56-11.79-4.67-2.99-3.12-4.48-7.21-4.48-12.3,0-7.59,2.63-14.46,7.9-20.6,5.26-6.14,11.1-9.21,17.51-9.21,3.33,0,6,.86,8,2.58,2,1.72,3.01,3.97,3.01,6.77,0,7.41-7.88,13.43-23.63,18.05,1.43,6.98,5.17,10.47,11.23,10.47,2.36,0,4.62-.64,6.77-1.91,2.15-1.27,5.39-4.09,9.72-8.46v6.18Zm-28.14-9.94c9.17-2.58,13.75-7.34,13.75-14.29,0-3.44-1.25-5.16-3.76-5.16-2.36,0-4.62,1.8-6.77,5.4-2.15,3.6-3.22,8.28-3.22,14.04Z"/><path class="cls-3" d="M587.91,1696.42c-8.99,8.81-15.92,13.21-20.79,13.21-2.18,0-4.03-.92-5.53-2.77-1.5-1.84-2.26-4.13-2.26-6.85,0-5.05,2.7-11.82,8.11-20.3-2.65,1.36-5.55,2.31-8.7,2.85-2.33,4.3-5.98,8.92-10.96,13.86h-1.24v-4.83c2.79-2.9,5.32-6.02,7.57-9.35-3.08-1.36-4.62-3.38-4.62-6.07s.94-5.7,2.82-8.84c1.88-3.13,4.47-4.7,7.76-4.7,2.79,0,4.19,1.43,4.19,4.3,0,2.26-.81,5.48-2.42,9.67,5.94-.64,11.14-5.19,15.58-13.64l4.89-.21-5,13.75c-2.08,5.8-3.42,9.75-4.03,11.84-.61,2.09-.91,3.95-.91,5.56,0,1.5,.35,2.7,1.05,3.6,.7,.9,1.64,1.34,2.82,1.34,1.29,0,2.52-.44,3.71-1.32,1.18-.88,3.83-3.3,7.95-7.28v6.18Z"/><path class="cls-3" d="M636.14,1696.42c-1.83,1.61-3.6,2.75-5.32,3.41-1.72,.66-3.08,.99-4.08,.99-2.58,0-5.14-1-7.68-3.01-5.16,7.81-11.06,11.71-17.72,11.71-4.15,0-7.52-1.56-10.1-4.67s-3.87-7.25-3.87-12.41c0-8.16,2.9-15.17,8.7-21.03,5.8-5.85,12.73-8.78,20.79-8.78,3.04,0,5.27,.33,6.69,.99,1.42,.66,2.28,1.44,2.61,2.34,.32,.9,.48,2.02,.48,3.38,0,6.7-1.83,14.91-5.48,24.65,1.83,1.68,3.74,2.52,5.75,2.52,2.4,0,5.48-2.09,9.24-6.28v6.18Zm-17.72-30.02c-.54-.21-1.31-.32-2.31-.32-4.66,0-8.3,2.44-10.93,7.3-2.63,4.87-3.95,10.56-3.95,17.08,0,3.62,.57,6.43,1.72,8.43,1.15,2.01,2.74,3.01,4.78,3.01,2.54,0,5.3-2.34,8.27-7.04-3.37-4.22-5.05-8.77-5.05-13.64,0-5.73,2.49-10.67,7.47-14.82Z"/><path class="cls-3" d="M661.78,1671.87c2.58-3.12,5.01-5.42,7.3-6.91,2.29-1.49,4.83-2.23,7.62-2.23,3.61,0,6.56,1.39,8.83,4.16,2.27,2.78,3.41,6.42,3.41,10.93,0,7.91-2.73,15.17-8.19,21.78-5.46,6.61-11.4,9.91-17.81,9.91-1.79,0-3.21-.2-4.24-.59-1.04-.4-2.4-1.31-4.08-2.74-2.58,11.35-4.24,20.45-4.99,27.29l-13.64,2.42c2.54-16.76,5.78-33.73,9.72-50.92-4.73,6.2-7.91,10.01-9.56,11.44h-1.24v-4.83c6.8-7.34,12.41-16.26,16.81-26.75l12.14-2.2-2.08,9.24Zm-6.21,28.73c1.86,3.08,3.92,4.62,6.18,4.62,3.62,0,6.82-2.75,9.59-8.25,2.78-5.5,4.17-10.86,4.17-16.09,0-2.76-.56-4.99-1.69-6.69-1.13-1.7-2.59-2.55-4.38-2.55-1.4,0-2.86,.63-4.4,1.88s-2.7,2.71-3.49,4.38-1.68,4.58-2.68,8.73l-3.3,13.96Z"/><path class="cls-3" d="M745.82,1696.42c-8.49,8.81-15.47,13.21-20.95,13.21-2.44,0-4.45-.83-6.04-2.5-1.59-1.67-2.39-3.77-2.39-6.31,0-4.3,1.65-10.35,4.94-18.15,1.75-4.22,2.63-6.98,2.63-8.27,0-1.47-.7-2.2-2.09-2.2s-3.51,.98-6.23,2.93c-2.72,1.95-5.59,4.61-8.59,7.98-1.25,6.59-1.88,14.5-1.88,23.74l-11.98,2.79c-.47-3.76-.7-7.84-.7-12.25,0-10.67,1.47-20.61,4.4-29.81,2.94-9.2,7.55-18.96,13.86-29.27,4.69-1.9,8.78-3.45,12.27-4.65,3.49-1.2,5.49-1.8,5.99-1.8,.93,0,1.72,.75,2.36,2.26s.97,3.38,.97,5.64c0,3.8-1.16,7.99-3.49,12.6-2.33,4.6-5.98,10.16-10.96,16.68,4.77-2.76,7.94-4.49,9.52-5.21,1.58-.72,3.19-1.07,4.84-1.07,1.83,0,3.31,.65,4.44,1.96,1.13,1.31,1.69,3.04,1.69,5.19,0,3.23-1.28,8.22-3.85,14.99-2.57,6.76-3.85,11.01-3.85,12.72,0,.79,.24,1.49,.73,2.09s1.05,.91,1.69,.91c2.29,0,6.52-3.46,12.67-10.37v6.18Zm-37.22-22.02c12.78-14.86,19.17-25.82,19.17-32.87,0-2.15-.59-3.22-1.77-3.22-1.97,0-4.78,3.53-8.43,10.58-3.65,7.05-6.64,15.56-8.97,25.51Z"/><path class="cls-3" d="M803.13,1696.42c-5.73,5.44-9.83,8.99-12.3,10.63s-4.83,2.47-7.09,2.47c-5.66,0-8.33-5-8-14.99-3.58,5.12-6.88,8.9-9.91,11.33-3.03,2.43-6.15,3.65-9.37,3.65s-5.83-1.48-8.03-4.43c-2.2-2.96-3.3-6.58-3.3-10.88,0-5.37,1.48-10.49,4.43-15.36,2.95-4.87,6.74-8.81,11.36-11.82s8.7-4.51,12.25-4.51c4.48,0,7.61,2.06,9.4,6.18l10.98-6.07h3.01l-4.74,15.74c-2.44,7.91-3.66,13.34-3.66,16.28s1.09,4.62,3.27,4.62c1.4,0,2.93-.74,4.62-2.23,1.68-1.49,4.04-3.75,7.09-6.79v6.18Zm-39.32,2.95c3.58,0,6.96-3.05,10.12-9.16,3.17-6.1,4.75-11.74,4.75-16.89,0-2-.45-3.57-1.34-4.7-.9-1.13-2.09-1.69-3.6-1.69-3.58,0-6.97,3.04-10.18,9.13-3.2,6.09-4.81,11.69-4.81,16.81,0,1.93,.47,3.5,1.42,4.7,.95,1.2,2.16,1.8,3.62,1.8Z"/><path class="cls-3" d="M855.82,1696.42c-8.27,8.74-15.36,13.11-21.27,13.11-2.4,0-4.33-.84-5.8-2.52-1.47-1.68-2.2-3.94-2.2-6.77,0-3.83,1.58-9.69,4.73-17.56,1.68-4.22,2.52-6.91,2.52-8.06s-.45-1.72-1.34-1.72c-.5,0-1.16,.25-1.99,.75-.75,.5-1.63,1.2-2.63,2.09-.9,.82-1.9,1.83-3.01,3.01-.97,1-2.01,2.15-3.12,3.44l-3.01,3.49c-1.33,1.61-2.15,3.31-2.47,5.1-.54,3.04-.9,5.84-1.07,8.38-.11,1.9-.16,4.46-.16,7.68l-11.87,2.79c-.39-4.83-.59-8.43-.59-10.8,0-5.76,.67-11.23,2.01-16.38,1.34-5.16,3.5-10.96,6.47-17.4l13.11-2.52c-2.76,7.41-4.57,13.25-5.42,17.51,5.87-6.55,10.53-11.09,13.98-13.62,3.45-2.53,6.51-3.79,9.2-3.79,1.82,0,3.34,.69,4.56,2.07,1.22,1.38,1.82,3.1,1.82,5.18,0,3.43-1.54,9.09-4.62,16.97-2.11,5.41-3.17,8.92-3.17,10.53,0,2.15,.88,3.23,2.64,3.23,2.62,0,6.86-3.46,12.71-10.37v6.18Z"/><path class="cls-3" d="M886.7,1696.42c-4.51,4.48-8.42,7.78-11.71,9.91-3.29,2.13-6.43,3.2-9.4,3.2s-5.58-1.3-7.49-3.89c-1.92-2.6-2.87-6.01-2.87-10.23,0-3.72,.92-8.64,2.76-14.75l2.28-8.13-4.12,.21,1.72-8.43,5.11-.21,5.04-16.76,14.35-2.95-5.55,18.68,7.58-.43-1.77,8.27-8.33,.64-3.58,12.04c-1.24,4.18-1.87,7.51-1.87,9.98,0,1.68,.42,3.05,1.26,4.11,.84,1.06,1.93,1.58,3.25,1.58,1.83,0,3.64-.58,5.43-1.75,1.79-1.16,4.43-3.59,7.91-7.28v6.18Z"/></g><g><path class="cls-1" d="M353.98,142.06c-5.24,5.58-10.05,8.37-14.42,8.37-2.42,0-4.33-.85-5.74-2.56-1.41-1.71-2.2-4.15-2.36-7.31-2.76,3.35-5.2,5.83-7.33,7.45s-4.4,2.43-6.82,2.43c-3.1,0-5.59-1.34-7.47-4.02-1.88-2.68-2.82-6.25-2.82-10.72,0-5.33,1.23-10.83,3.69-16.49,2.46-5.66,6.11-10.13,10.94-13.42,4.83-3.28,10.69-4.92,17.57-4.92,5.15,0,9.81,.7,13.98,2.08v2.26c-3.4,3.96-6.24,9.51-8.53,16.65-2.29,7.13-3.44,12.57-3.44,16.3,0,1.82,.37,3.24,1.11,4.24,.74,1,1.77,1.5,3.09,1.5,2.37,0,5.22-1.93,8.54-5.78v3.93Zm-9.95-36.85c-2.1-1.14-4.35-1.71-6.77-1.71-3.81,0-7.24,1.59-10.29,4.77-3.05,3.18-5.46,7.39-7.23,12.63-1.77,5.24-2.65,9.79-2.65,13.64,0,2.58,.5,4.67,1.49,6.27,.99,1.61,2.26,2.41,3.81,2.41,2.69,0,5.78-2.45,9.26-7.35,1.44-12.85,5.56-23.07,12.37-30.66Z"/><path class="cls-1" d="M379.51,142.03c-5.72,5.61-10.13,8.41-13.23,8.41-1.39,0-2.56-.59-3.52-1.76s-1.44-2.63-1.44-4.36c0-3.21,1.72-7.52,5.16-12.92-1.69,.87-3.53,1.47-5.54,1.81-1.48,2.73-3.81,5.67-6.97,8.82h-.79v-3.08c1.78-1.85,3.38-3.83,4.82-5.95-1.96-.87-2.94-2.15-2.94-3.86s.6-3.63,1.79-5.62c1.2-1.99,2.84-2.99,4.94-2.99,1.78,0,2.67,.91,2.67,2.73,0,1.44-.51,3.49-1.54,6.15,3.78-.41,7.09-3.3,9.91-8.68l3.11-.14-3.18,8.75c-1.32,3.69-2.18,6.2-2.56,7.54-.39,1.33-.58,2.51-.58,3.54,0,.96,.22,1.72,.67,2.29,.44,.57,1.04,.85,1.79,.85,.82,0,1.61-.28,2.36-.84,.75-.56,2.44-2.1,5.06-4.63v3.93Z"/><path class="cls-1" d="M405.08,142.03c-2.92,2.87-5.59,4.98-8.02,6.32-2.43,1.34-4.96,2.02-7.6,2.02-2.96,0-5.41-.96-7.33-2.89-1.93-1.93-2.89-4.37-2.89-7.33,0-4.85,1.77-9.34,5.31-13.45,3.54-4.11,7.38-6.17,11.5-6.17,2.03,0,3.68,.56,4.96,1.69,1.28,1.13,1.91,2.59,1.91,4.39,0,.64-.12,1.12-.36,1.44-.24,.32-.69,.64-1.35,.96l-3.96,1.88c-.48,.23-.83,.34-1.06,.34-.32,0-.48-.23-.48-.68,0-.18,.07-.78,.21-1.79,.14-1.01,.21-1.63,.21-1.86,0-1-.21-1.81-.63-2.43s-.99-.92-1.69-.92c-1.66,0-3.18,1.23-4.56,3.69-1.38,2.46-2.07,5.26-2.07,8.41,0,2.71,.65,4.88,1.95,6.49,1.3,1.62,3.03,2.43,5.2,2.43,1.85,0,3.58-.53,5.21-1.59s3.48-2.68,5.55-4.87v3.93Z"/><path class="cls-1" d="M441.58,142.03c-3.65,3.46-6.25,5.72-7.83,6.77s-3.08,1.57-4.51,1.57c-3.6,0-5.3-3.18-5.09-9.54-2.28,3.26-4.38,5.66-6.31,7.21s-3.91,2.32-5.96,2.32-3.71-.94-5.11-2.82c-1.4-1.88-2.1-4.19-2.1-6.92,0-3.42,.94-6.68,2.82-9.78,1.88-3.1,4.29-5.61,7.23-7.52s5.54-2.87,7.79-2.87c2.85,0,4.84,1.31,5.98,3.93l6.99-3.86h1.92l-3.01,10.02c-1.55,5.04-2.33,8.49-2.33,10.36s.69,2.94,2.08,2.94c.89,0,1.87-.47,2.94-1.42,1.07-.95,2.57-2.39,4.51-4.32v3.93Zm-25.02,1.88c2.28,0,4.43-1.94,6.44-5.83,2.02-3.88,3.02-7.47,3.02-10.75,0-1.28-.29-2.27-.85-2.99-.57-.72-1.33-1.08-2.29-1.08-2.28,0-4.44,1.94-6.48,5.81-2.04,3.87-3.06,7.44-3.06,10.7,0,1.23,.3,2.23,.91,2.99,.6,.76,1.37,1.15,2.31,1.15Z"/><path class="cls-1" d="M475.11,142.03c-5.26,5.56-9.78,8.34-13.54,8.34-1.53,0-2.76-.54-3.69-1.61-.93-1.07-1.4-2.51-1.4-4.31,0-2.44,1-6.16,3.01-11.18,1.07-2.69,1.61-4.4,1.61-5.13s-.29-1.09-.85-1.09c-.32,0-.74,.16-1.26,.48-.48,.32-1.04,.76-1.67,1.33-.57,.52-1.21,1.16-1.91,1.91-.62,.64-1.28,1.37-1.98,2.19l-1.91,2.22c-.84,1.03-1.37,2.11-1.57,3.25-.34,1.94-.57,3.71-.68,5.33-.07,1.21-.1,2.84-.1,4.89l-7.55,1.78c-.25-3.08-.38-5.37-.38-6.87,0-3.67,.43-7.14,1.28-10.42,.86-3.28,2.23-6.97,4.12-11.07l8.34-1.61c-1.75,4.72-2.91,8.43-3.45,11.14,3.73-4.17,6.7-7.06,8.89-8.66,2.19-1.61,4.15-2.41,5.85-2.41,1.16,0,2.13,.44,2.9,1.31,.77,.88,1.16,1.97,1.16,3.29,0,2.18-.98,5.78-2.94,10.8-1.34,3.44-2.02,5.68-2.02,6.7,0,1.37,.56,2.06,1.68,2.06,1.67,0,4.36-2.2,8.09-6.6v3.93Z"/><path class="cls-1" d="M500.64,142.03c-2.89,2.85-5.49,4.95-7.79,6.31-2.3,1.36-4.84,2.03-7.62,2.03-3.1,0-5.6-.99-7.5-2.97s-2.85-4.59-2.85-7.83c0-4.83,1.67-9.2,5.02-13.11,3.35-3.91,7.06-5.86,11.14-5.86,2.12,0,3.82,.55,5.09,1.64,1.28,1.09,1.91,2.53,1.91,4.31,0,4.72-5.01,8.54-15.04,11.48,.91,4.44,3.29,6.67,7.14,6.67,1.5,0,2.94-.4,4.31-1.21,1.37-.81,3.43-2.6,6.19-5.38v3.93Zm-17.91-6.32c5.83-1.64,8.75-4.67,8.75-9.09,0-2.19-.8-3.28-2.39-3.28-1.5,0-2.94,1.15-4.31,3.44s-2.05,5.27-2.05,8.94Z"/><path class="cls-1" d="M511.17,122c1.57-.41,3.16-.75,4.75-1.01,1.59-.26,2.55-.39,2.87-.39,.23,0,.34,.09,.34,.27,0,.34-.09,.69-.27,1.06-.37,1.05-.55,2.05-.55,3.01,0,1.18,.69,2.8,2.05,4.85s2.05,3.96,2.05,5.71c0,3.49-1.67,6.85-5.01,10.08-3.34,3.24-6.8,4.85-10.37,4.85-1.55,0-2.96-.41-4.24-1.23-1.28-.82-1.91-1.7-1.91-2.63,0-.55,.63-1.58,1.9-3.11,1.26-1.53,2.17-2.29,2.72-2.29,.73,0,1.38,.93,1.95,2.8,.57,1.87,1.55,2.8,2.94,2.8s2.69-.64,3.91-1.93,1.83-2.67,1.83-4.15c0-1.44-.77-3.35-2.32-5.74s-2.58-4.4-3.08-6.02c-2.64,4.26-5.99,8.62-10.05,13.09h-.79v-3.08c5.58-5.95,9.34-11.6,11.28-16.95Z"/><path class="cls-1" d="M596.89,142.03c-2.85,2.78-5.29,4.87-7.31,6.25-2.03,1.39-4,2.08-5.91,2.08-1.5,0-2.7-.52-3.57-1.56s-1.32-2.43-1.32-4.19c0-2.46,.62-5.58,1.85-9.37,1.23-3.78,1.85-6.08,1.85-6.9,0-.73-.38-1.09-1.13-1.09-.23,0-.5,.08-.82,.24-.34,.16-.73,.39-1.16,.68-.43,.32-.9,.71-1.4,1.16-.5,.46-1.03,.98-1.57,1.57-.59,.59-1.18,1.24-1.78,1.95-1,1.19-1.59,2.18-1.78,2.97l-1.14,4.89-2.07,8.07-8.66,1.57,3.32-14.08c.25-1.03,.55-2.53,.89-4.51s.51-3.17,.51-3.55c0-.77-.26-1.16-.79-1.16-.16,0-.39,.08-.68,.24-.34,.16-.73,.4-1.16,.72-.5,.36-1.04,.8-1.61,1.3-.62,.55-1.28,1.17-1.98,1.88-.75,.75-1.53,1.58-2.32,2.5-1.09,1.23-1.78,2.67-2.05,4.31-.37,1.96-.62,3.71-.75,5.26-.16,1.55-.25,3.28-.27,5.2l-7.59,1.81c-.18-2.62-.27-4.81-.27-6.56,0-4.17,.43-7.8,1.3-10.89,.87-3.09,2.28-6.69,4.24-10.82l8.27-1.61c-1.48,3.71-2.63,7.3-3.45,10.77,6.13-7.13,10.82-10.7,14.08-10.7,1.18,0,2.15,.48,2.89,1.45,.74,.97,1.11,2.24,1.11,3.81,0,.73-.11,2.07-.34,4.03,3.85-3.85,6.62-6.36,8.29-7.54,1.67-1.17,3.22-1.76,4.63-1.76,1.25,0,2.28,.5,3.08,1.5s1.2,2.28,1.2,3.83c0,2.44-.67,5.57-2.01,9.4-1.34,3.83-2.01,6.36-2.01,7.59s.47,1.91,1.4,1.91c.59,0,1.42-.39,2.47-1.18,1.06-.79,2.91-2.59,5.54-5.42v3.93Z"/><path class="cls-1" d="M633.4,142.03c-3.65,3.46-6.25,5.72-7.83,6.77s-3.08,1.57-4.51,1.57c-3.6,0-5.3-3.18-5.09-9.54-2.28,3.26-4.38,5.66-6.31,7.21s-3.91,2.32-5.96,2.32-3.71-.94-5.11-2.82c-1.4-1.88-2.1-4.19-2.1-6.92,0-3.42,.94-6.68,2.82-9.78,1.88-3.1,4.29-5.61,7.23-7.52s5.54-2.87,7.79-2.87c2.85,0,4.84,1.31,5.98,3.93l6.99-3.86h1.92l-3.01,10.02c-1.55,5.04-2.33,8.49-2.33,10.36s.69,2.94,2.08,2.94c.89,0,1.87-.47,2.94-1.42,1.07-.95,2.57-2.39,4.51-4.32v3.93Zm-25.02,1.88c2.28,0,4.43-1.94,6.44-5.83,2.02-3.88,3.02-7.47,3.02-10.75,0-1.28-.29-2.27-.85-2.99-.57-.72-1.33-1.08-2.29-1.08-2.28,0-4.44,1.94-6.48,5.81-2.04,3.87-3.06,7.44-3.06,10.7,0,1.23,.3,2.23,.91,2.99,.6,.76,1.37,1.15,2.31,1.15Z"/><path class="cls-1" d="M658.93,142.03c-2.15,2.16-4.81,4.1-7.99,5.81-.83,6.22-2.41,11-4.75,14.32-2.34,3.33-4.72,4.99-7.16,4.99-1.53,0-2.83-.63-3.9-1.9-1.07-1.26-1.61-2.82-1.61-4.67,0-4.47,3.01-8.23,9.02-11.28l2.53-20.58c-4.74,5.92-8.64,10.36-11.69,13.3h-.79v-3.08c3.03-2.89,7.11-7.68,12.24-14.36l2.12-2.73c2.39-.27,5.07-.72,8.03-1.33-1,5.42-2.19,13.43-3.55,24.03,2.1-1.05,4.57-3.18,7.41-6.39l.07,3.86Zm-16.6,10.42c-1.91,.89-3.41,2.09-4.51,3.61s-1.65,3.07-1.65,4.67c0,1.03,.24,1.9,.72,2.62,.48,.72,1.04,1.08,1.67,1.08,1.57,0,2.6-2.01,3.08-6.02l.69-5.95Zm15.85-45.28c-.43,5.56-2.75,8.34-6.94,8.34-1.96,0-3.69-.66-5.2-1.98,1.98-2.53,3.16-4.72,3.52-6.56,1.82,1.12,3.34,1.67,4.55,1.67,1.37,0,2.72-.49,4.07-1.47Z"/><path class="cls-1" d="M684.49,142.03c-2.89,2.85-5.49,4.95-7.79,6.31-2.3,1.36-4.84,2.03-7.62,2.03-3.1,0-5.6-.99-7.5-2.97s-2.85-4.59-2.85-7.83c0-4.83,1.67-9.2,5.02-13.11,3.35-3.91,7.06-5.86,11.14-5.86,2.12,0,3.82,.55,5.09,1.64,1.28,1.09,1.91,2.53,1.91,4.31,0,4.72-5.01,8.54-15.04,11.48,.91,4.44,3.29,6.67,7.14,6.67,1.5,0,2.94-.4,4.31-1.21,1.37-.81,3.43-2.6,6.19-5.38v3.93Zm-17.91-6.32c5.83-1.64,8.75-4.67,8.75-9.09,0-2.19-.8-3.28-2.39-3.28-1.5,0-2.94,1.15-4.31,3.44s-2.05,5.27-2.05,8.94Z"/><path class="cls-1" d="M721,142.03c-3.01,2.85-5.53,4.95-7.55,6.31-2.03,1.36-3.85,2.03-5.47,2.03-1.8,0-3.18-.72-4.15-2.15s-1.45-3.38-1.45-5.84c-2.51,2.76-4.75,4.79-6.73,6.1s-3.92,1.97-5.81,1.97c-1.73,0-3.12-.72-4.17-2.15-1.05-1.44-1.57-3.38-1.57-5.84,0-4.74,1.59-11.42,4.79-20.03l9.13-1.82c-3.75,10.92-5.63,17.93-5.64,21.03,0,2.19,.82,3.28,2.46,3.28,1.18,0,2.65-.96,4.41-2.89,1.75-1.93,2.85-3.61,3.28-5.04l4.48-14.56,9.3-1.88c-2.15,6.86-3.62,11.68-4.42,14.46s-1.2,4.73-1.2,5.85c0,2.14,.73,3.21,2.19,3.21,1.19,0,2.94-1.08,5.27-3.25l2.87-2.7v3.93Z"/><path class="cls-1" d="M746.53,142.03c-5.72,5.61-10.13,8.41-13.23,8.41-1.39,0-2.56-.59-3.52-1.76s-1.44-2.63-1.44-4.36c0-3.21,1.72-7.52,5.16-12.92-1.69,.87-3.53,1.47-5.54,1.81-1.48,2.73-3.81,5.67-6.97,8.82h-.79v-3.08c1.78-1.85,3.38-3.83,4.82-5.95-1.96-.87-2.94-2.15-2.94-3.86s.6-3.63,1.79-5.62c1.2-1.99,2.84-2.99,4.94-2.99,1.78,0,2.67,.91,2.67,2.73,0,1.44-.51,3.49-1.54,6.15,3.78-.41,7.09-3.3,9.91-8.68l3.11-.14-3.18,8.75c-1.32,3.69-2.18,6.2-2.56,7.54-.39,1.33-.58,2.51-.58,3.54,0,.96,.22,1.72,.67,2.29,.44,.57,1.04,.85,1.79,.85,.82,0,1.61-.28,2.36-.84,.75-.56,2.44-2.1,5.06-4.63v3.93Z"/><path class="cls-1" d="M757.06,122c1.57-.41,3.16-.75,4.75-1.01,1.59-.26,2.55-.39,2.87-.39,.23,0,.34,.09,.34,.27,0,.34-.09,.69-.27,1.06-.37,1.05-.55,2.05-.55,3.01,0,1.18,.69,2.8,2.05,4.85s2.05,3.96,2.05,5.71c0,3.49-1.67,6.85-5.01,10.08-3.34,3.24-6.8,4.85-10.37,4.85-1.55,0-2.96-.41-4.24-1.23-1.28-.82-1.91-1.7-1.91-2.63,0-.55,.63-1.58,1.9-3.11,1.26-1.53,2.17-2.29,2.72-2.29,.73,0,1.38,.93,1.95,2.8,.57,1.87,1.55,2.8,2.94,2.8s2.69-.64,3.91-1.93,1.83-2.67,1.83-4.15c0-1.44-.77-3.35-2.32-5.74s-2.58-4.4-3.08-6.02c-2.64,4.26-5.99,8.62-10.05,13.09h-.79v-3.08c5.58-5.95,9.34-11.6,11.28-16.95Z"/></g></g></g><g id="_반짝이"><polygon class="cls-9" points="245.57 545.53 256.67 588.59 292.4 597.44 256.67 607.14 245.57 651 233.88 607.14 198.74 597.44 233.88 588.59 245.57 545.53"/><polygon class="cls-10" points="721.09 1235.01 730.24 1270.53 759.71 1277.82 730.24 1285.83 721.09 1322 711.44 1285.83 682.46 1277.82 711.44 1270.53 721.09 1235.01"/><circle class="cls-10" cx="195.5" cy="656.5" r="13.5"/><circle class="cls-9" cx="221" cy="746" r="7"/><circle class="cls-9" cx="741.5" cy="518.5" r="11.5"/><circle class="cls-9" cx="820.5" cy="628.5" r="9.5"/><circle class="cls-10" cx="797" cy="531" r="6"/><circle class="cls-8" cx="854.5" cy="1205.5" r="15.5"/><circle class="cls-9" cx="786" cy="1312" r="9"/><circle class="cls-9" cx="339.5" cy="1256.5" r="12.5"/><circle class="cls-10" cx="232" cy="1189" r="9"/></g><g id="_은둔자"><polygon class="cls-2" points="537.41 371 550.18 435.38 584.58 419.03 568.23 453.43 641.92 466.2 568.23 478.96 584.58 513.37 550.18 497.01 537.41 565 524.65 497.01 490.24 513.37 506.6 478.96 438.08 466.2 506.6 453.43 490.24 419.03 524.65 435.38 537.41 371"/></g><g id="_사제"><path class="cls-8" d="M623.2,620.84c-10.17,2.67-17.93,6.9-23.04,10.24,2.48,5.26,5.52,13.5,5.97,23.89,.41,9.32,.84,19.07-5.97,24.75-5.67,4.73-13.92,4.59-19.63,2.56-9.87-3.51-13.36-13.08-14.51-16.21-3.67-10.06-.73-19.05,.85-23.89,3.42-10.46,9.88-17.16,13.65-20.48-13.37-11.98-26.75-23.96-40.12-35.94,0-.25,0-.5,.01-.75-.14,.13-.28,.25-.43,.38-.14-.13-.28-.25-.43-.38,0,.25,0,.5,.01,.75-13.37,11.98-26.74,23.96-40.12,35.94,3.77,3.32,10.23,10.02,13.65,20.48,1.58,4.84,4.52,13.83,.85,23.89-1.14,3.13-4.63,12.71-14.51,16.21-5.71,2.03-13.96,2.17-19.63-2.56-6.81-5.67-6.38-15.42-5.97-24.75,.46-10.39,3.5-18.63,5.97-23.89-5.11-3.34-12.87-7.57-23.04-10.24-8.03-2.11-15.13-2.6-20.48-2.56,7.4,31.57,14.79,63.15,22.19,94.72h162.99c7.4-31.57,14.79-63.15,22.19-94.72-5.35-.04-12.45,.45-20.48,2.56Z"/><line class="cls-6" x1="541.5" y1="749.5" x2="541.5" y2="800.5"/><line class="cls-6" x1="518.5" y1="768.5" x2="563.5" y2="768.5"/><g><path class="cls-3" d="M518.69,903.01c-4.09-20.44-8.17-40.88-12.26-61.31-1.61-1.85-6.8-7.34-15.09-8.49-10.5-1.45-20.14,4.86-24.53,12.26-6.55,11.05-1.05,23.94,2.83,33.01,6.44,15.07,17.34,24.32,24.53,29.24,8.17-1.57,16.35-3.14,24.53-4.72Z"/><path class="cls-3" d="M562,906c4.33-21.67,8.67-43.33,13-65,1.7-1.96,7.2-7.78,16-9,11.13-1.54,21.35,5.16,26,13,6.94,11.71,1.11,25.38-3,35-6.82,15.98-18.39,25.78-26,31-8.67-1.67-17.33-3.33-26-5Z"/><polygon class="cls-3" points="529 906 513 815 569 815 551 906 529 906"/><rect class="cls-3" x="529" y="940" width="22" height="431" rx="11" ry="11"/><circle class="cls-2" cx="540" cy="1378" r="18"/><rect class="cls-4" x="514" y="1352" width="52" height="23" rx="11.5" ry="11.5"/><rect class="cls-4" x="521" y="931" width="39" height="23" rx="11.5" ry="11.5"/><rect class="cls-4" x="508" y="912" width="65" height="14" rx="7" ry="7"/></g><line class="cls-7" x1="707.09" y1="900.99" x2="807" y2="900.99"/><line class="cls-5" x1="701.12" y1="857.25" x2="872.01" y2="811.46"/><line class="cls-7" x1="684.04" y1="816.55" x2="773.41" y2="764.95"/><line class="cls-5" x1="657.01" y1="781.65" x2="782.11" y2="656.56"/><line class="cls-7" x1="621.87" y1="754.94" x2="667.23" y2="676.36"/><line class="cls-7" x1="452.78" y1="755.73" x2="407.29" y2="676.94"/><line class="cls-5" x1="417.88" y1="782.76" x2="292.79" y2="657.66"/><line class="cls-7" x1="391.18" y1="817.9" x2="308.72" y2="770.3"/><line class="cls-5" x1="374.47" y1="858.76" x2="203.59" y2="812.97"/><line class="cls-7" x1="368.92" y1="902.57" x2="279" y2="902.57"/><line class="cls-5" x1="374.88" y1="946.29" x2="203.99" y2="992.08"/><line class="cls-7" x1="391.96" y1="986.99" x2="306.09" y2="1036.57"/><line class="cls-5" x1="418.99" y1="1021.88" x2="293.89" y2="1146.98"/><line class="cls-7" x1="454.13" y1="1048.59" x2="401.47" y2="1139.81"/><line class="cls-5" x1="494.99" y1="1065.3" x2="449.2" y2="1236.18"/><line class="cls-5" x1="582.52" y1="1064.89" x2="628.31" y2="1235.78"/><line class="cls-7" x1="623.22" y1="1047.81" x2="672.83" y2="1133.75"/><line class="cls-5" x1="658.12" y1="1020.78" x2="783.21" y2="1145.87"/><line class="cls-7" x1="684.82" y1="985.63" x2="776.72" y2="1038.7"/><line class="cls-5" x1="701.53" y1="944.78" x2="872.41" y2="990.56"/></g></svg>