<?xml version="1.0" encoding="UTF-8"?><svg xmlns="http://www.w3.org/2000/svg" viewBox="0 0 1080 1944"><defs><style>.cls-1{fill:#fff;}.cls-2{fill:#4c5fa9;stroke:#4c5fa9;stroke-width:15px;}.cls-2,.cls-3{stroke-miterlimit:10;}.cls-3{stroke:#3f3730;stroke-width:5px;}.cls-3,.cls-4{fill:#3f3730;}.cls-5{fill:#f6ef84;}.cls-6{fill:#bad6eb;}.cls-7{fill:#c8c0de;}.cls-8{fill:#b1d4f0;}</style></defs><g id="_배경_텍스트"><g><rect class="cls-6" width="1080" height="1944"/><rect class="cls-1" x="74.84" y="186.39" width="930.33" height="1606.64" rx="65.21" ry="65.21"/><path class="cls-3" d="M494.88,1608.73c-.64-3.44-1.52-5.72-2.64-6.84-1.12-1.12-2.92-1.76-5.4-1.92-1.28-.16-1.92-.8-1.92-1.92,0-.48,.14-.9,.42-1.26,.28-.36,.74-.54,1.38-.54h21.96c.64,0,1.12,.2,1.44,.6,.32,.4,.48,.8,.48,1.2,0,.48-.16,.9-.48,1.26-.32,.36-.8,.58-1.44,.66-1.6,.16-2.82,.4-3.66,.72-.84,.32-1.4,.78-1.68,1.38-.28,.6-.34,1.42-.18,2.46,.16,1.04,.36,2.32,.6,3.84l9.96,58.32,11.16-58.92c.32-1.76,.48-3.12,.48-4.08s-.2-1.7-.6-2.22c-.4-.52-1-.86-1.8-1.02-.8-.16-1.8-.32-3-.48-.64-.08-1.12-.3-1.44-.66-.32-.36-.48-.78-.48-1.26,0-.4,.14-.8,.42-1.2,.28-.4,.74-.6,1.38-.6h18.12c.64,0,1.12,.2,1.44,.6,.32,.4,.48,.8,.48,1.2,0,1.04-.64,1.68-1.92,1.92-1.36,.24-2.44,.48-3.24,.72-.8,.24-1.48,.64-2.04,1.2s-1.02,1.38-1.38,2.46c-.36,1.08-.74,2.54-1.14,4.38l-15.48,74.64h-5.04l-14.76-74.64Zm64.08,60.84c0,1.92,.14,3.46,.42,4.62,.28,1.16,.68,2.04,1.2,2.64,.52,.6,1.22,1.02,2.1,1.26,.88,.24,1.92,.44,3.12,.6,.56,.08,.96,.3,1.2,.66,.24,.36,.36,.74,.36,1.14s-.14,.78-.42,1.14c-.28,.36-.74,.54-1.38,.54h-21.72c-.64,0-1.1-.18-1.38-.54-.28-.36-.42-.74-.42-1.14s.12-.78,.36-1.14c.24-.36,.64-.58,1.2-.66,1.2-.16,2.24-.36,3.12-.6,.88-.24,1.58-.66,2.1-1.26,.52-.6,.92-1.48,1.2-2.64,.28-1.16,.42-2.7,.42-4.62v-60.72c0-1.92-.14-3.46-.42-4.62-.28-1.16-.68-2.04-1.2-2.64-.52-.6-1.22-1.02-2.1-1.26-.88-.24-1.92-.44-3.12-.6-.56-.08-.96-.3-1.2-.66-.24-.36-.36-.74-.36-1.14s.14-.78,.42-1.14c.28-.36,.74-.54,1.38-.54h21.72c.64,0,1.1,.18,1.38,.54,.28,.36,.42,.74,.42,1.14s-.12,.78-.36,1.14c-.24,.36-.64,.58-1.2,.66-1.2,.16-2.24,.36-3.12,.6-.88,.24-1.58,.66-2.1,1.26-.52,.6-.92,1.48-1.2,2.64-.28,1.16-.42,2.7-.42,4.62v60.72Zm27.6,0c0,1.92,.14,3.46,.42,4.62,.28,1.16,.68,2.04,1.2,2.64,.52,.6,1.22,1.02,2.1,1.26,.88,.24,1.92,.44,3.12,.6,.56,.08,.96,.3,1.2,.66,.24,.36,.36,.74,.36,1.14s-.14,.78-.42,1.14c-.28,.36-.74,.54-1.38,.54h-21.72c-.64,0-1.1-.18-1.38-.54-.28-.36-.42-.74-.42-1.14s.12-.78,.36-1.14c.24-.36,.64-.58,1.2-.66,1.2-.16,2.24-.36,3.12-.6,.88-.24,1.58-.66,2.1-1.26,.52-.6,.92-1.48,1.2-2.64,.28-1.16,.42-2.7,.42-4.62v-60.72c0-1.92-.14-3.46-.42-4.62-.28-1.16-.68-2.04-1.2-2.64-.52-.6-1.22-1.02-2.1-1.26-.88-.24-1.92-.44-3.12-.6-.56-.08-.96-.3-1.2-.66-.24-.36-.36-.74-.36-1.14s.14-.78,.42-1.14c.28-.36,.74-.54,1.38-.54h21.72c.64,0,1.1,.18,1.38,.54,.28,.36,.42,.74,.42,1.14s-.12,.78-.36,1.14c-.24,.36-.64,.58-1.2,.66-1.2,.16-2.24,.36-3.12,.6-.88,.24-1.58,.66-2.1,1.26-.52,.6-.92,1.48-1.2,2.64-.28,1.16-.42,2.7-.42,4.62v60.72Z"/><g><path class="cls-1" d="M410.88,142.03c-5.1,5.49-9.75,8.24-13.95,8.24-2.55,0-4.5-1.23-5.83-3.69-1.33-2.46-2-5.75-2-9.88,0-3.19,.65-7.58,1.96-13.16,1.31-5.58,3-10.28,5.08-14.08l1.98-3.55c-2.71,2.83-4.93,5.92-6.67,9.28-1.73,3.36-3.8,8.06-6.2,14.1-2.4,6.04-4.22,10.15-5.45,12.34s-2.41,3.97-3.54,5.35c-1.13,1.38-2.13,2.27-3.01,2.68-.88,.41-2.41,.62-4.6,.62-.84,0-1.26-.23-1.26-.68,0-.05,.15-.76,.45-2.15,.3-1.39,.61-3.62,.92-6.68s.54-8.27,.68-15.62,1.21-13.64,3.21-18.88c-2.14,2.44-4.33,8.11-6.57,17.02l-.86,3.35c-2.35,9.27-5.04,15.53-8.08,18.78-3.03,3.25-6.01,4.87-8.93,4.87-1.8,0-3.39-.57-4.76-1.71-1.37-1.14-2.05-2.45-2.05-3.93,0-1.14,.82-2.41,2.46-3.83,1.64-1.41,2.68-2.12,3.11-2.12,.5,0,.83,.17,.99,.51,.16,.34,.37,1.28,.62,2.82s.63,2.54,1.15,3.01c.51,.47,1.16,.7,1.94,.7,1.76,0,3.7-1.76,5.83-5.28s4.07-8.96,5.83-16.32l.99-4.13c.8-3.37,1.59-6.06,2.37-8.07,.78-2.01,1.8-4.01,3.08-6.02,1.85-2.87,2.99-4.4,3.41-4.6,.42-.19,1.21-.35,2.38-.48s2.32-.19,3.49-.19c.46,0,.68,.26,.68,.79,0,.25-.07,.76-.21,1.54-.45,3.19-.66,6.39-.64,9.6l.07,9.16c.04,7.98-.59,14.41-1.91,19.31,1.21-1.46,2.96-5.22,5.26-11.28,3.33-8.59,6.36-15.04,9.09-19.35,1.3-2.07,2.87-4.06,4.7-5.96,1.83-1.9,3.1-2.92,3.81-3.06,2.42-.46,4.45-.68,6.12-.68,.62,0,.92,.17,.92,.51,0,.48-.38,1.55-1.12,3.21-1.77,4.01-3.43,9.44-4.96,16.27s-2.31,12.28-2.32,16.33c0,4.58,1.4,6.87,4.2,6.87,2.28,0,4.99-1.94,8.13-5.81v3.93Z"/><path class="cls-1" d="M427.66,142.03c-5.33,5.61-9.32,8.41-11.96,8.41-1.46,0-2.69-.75-3.69-2.24-1-1.49-1.5-3.37-1.5-5.62,0-4.85,1.64-11.57,4.92-20.17l8.68-1.81h.41l-3.42,10.7c-1.41,4.42-2.12,7.58-2.12,9.47,0,.75,.17,1.36,.5,1.83,.33,.47,.75,.7,1.25,.7,.89,0,1.78-.33,2.68-.97s2.32-2.06,4.26-4.22v3.93Zm-.68-34.79c0,5.47-2.02,8.2-6.05,8.2-1.96,0-3.63-.59-5.02-1.78,1.32-2,2.35-4.26,3.08-6.77,1.8,1.12,3.25,1.68,4.34,1.68,1.23,0,2.45-.45,3.66-1.33Z"/><path class="cls-1" d="M461.22,142.03c-5.26,5.56-9.78,8.34-13.54,8.34-1.53,0-2.76-.54-3.69-1.61-.93-1.07-1.4-2.51-1.4-4.31,0-2.44,1-6.16,3.01-11.18,1.07-2.69,1.61-4.4,1.61-5.13s-.29-1.09-.85-1.09c-.32,0-.74,.16-1.26,.48-.48,.32-1.04,.76-1.67,1.33-.57,.52-1.21,1.16-1.91,1.91-.62,.64-1.28,1.37-1.98,2.19l-1.91,2.22c-.84,1.03-1.37,2.11-1.57,3.25-.34,1.94-.57,3.71-.68,5.33-.07,1.21-.1,2.84-.1,4.89l-7.55,1.78c-.25-3.08-.38-5.37-.38-6.87,0-3.67,.43-7.14,1.28-10.43,.86-3.28,2.23-6.97,4.12-11.07l8.34-1.61c-1.75,4.72-2.91,8.43-3.45,11.14,3.73-4.17,6.7-7.06,8.89-8.67,2.19-1.61,4.15-2.41,5.85-2.41,1.16,0,2.13,.44,2.9,1.31,.77,.88,1.16,1.97,1.16,3.29,0,2.18-.98,5.78-2.94,10.8-1.34,3.44-2.02,5.68-2.02,6.7,0,1.37,.56,2.06,1.68,2.06,1.67,0,4.36-2.2,8.09-6.6v3.93Z"/><path class="cls-1" d="M491.88,142.03c-1.16,1.03-2.29,1.75-3.38,2.17-1.09,.42-1.96,.63-2.6,.63-1.64,0-3.27-.64-4.89-1.91-3.28,4.97-7.04,7.45-11.28,7.45-2.64,0-4.79-.99-6.43-2.97s-2.46-4.62-2.46-7.9c0-5.2,1.85-9.66,5.54-13.38s8.1-5.59,13.23-5.59c1.94,0,3.35,.21,4.25,.63,.9,.42,1.45,.92,1.66,1.49,.21,.57,.31,1.29,.31,2.15,0,4.26-1.16,9.49-3.49,15.69,1.16,1.07,2.38,1.61,3.66,1.61,1.53,0,3.49-1.33,5.88-4v3.93Zm-11.28-19.11c-.34-.14-.83-.21-1.47-.21-2.96,0-5.28,1.55-6.96,4.65-1.67,3.1-2.51,6.72-2.51,10.87,0,2.3,.36,4.09,1.09,5.37,.73,1.28,1.74,1.91,3.04,1.91,1.62,0,3.37-1.49,5.26-4.48-2.14-2.69-3.21-5.58-3.21-8.68,0-3.65,1.58-6.79,4.75-9.43Z"/><path class="cls-1" d="M517.42,142.03c-5.72,5.61-10.13,8.41-13.23,8.41-1.39,0-2.56-.59-3.52-1.76s-1.44-2.63-1.44-4.36c0-3.21,1.72-7.52,5.16-12.92-1.69,.87-3.53,1.47-5.54,1.81-1.48,2.73-3.81,5.67-6.97,8.82h-.79v-3.08c1.78-1.85,3.38-3.83,4.82-5.95-1.96-.87-2.94-2.15-2.94-3.86s.6-3.63,1.79-5.62c1.2-1.99,2.84-2.99,4.94-2.99,1.78,0,2.67,.91,2.67,2.73,0,1.44-.51,3.49-1.54,6.15,3.78-.41,7.09-3.3,9.91-8.68l3.11-.14-3.18,8.75c-1.32,3.69-2.18,6.2-2.56,7.54-.39,1.33-.58,2.51-.58,3.54,0,.96,.22,1.72,.67,2.29,.44,.57,1.04,.86,1.79,.86,.82,0,1.61-.28,2.36-.84s2.44-2.1,5.06-4.63v3.93Z"/><path class="cls-1" d="M582.32,142.06c-5.24,5.58-10.05,8.37-14.42,8.37-2.42,0-4.33-.85-5.74-2.56-1.41-1.71-2.2-4.15-2.36-7.31-2.76,3.35-5.2,5.83-7.33,7.45-2.13,1.62-4.4,2.43-6.82,2.43-3.1,0-5.59-1.34-7.47-4.02-1.88-2.68-2.82-6.25-2.82-10.71,0-5.33,1.23-10.83,3.69-16.49s6.11-10.13,10.94-13.42c4.83-3.28,10.69-4.92,17.57-4.92,5.15,0,9.81,.7,13.98,2.09v2.26c-3.4,3.96-6.24,9.51-8.53,16.64-2.29,7.13-3.44,12.57-3.44,16.3,0,1.82,.37,3.24,1.11,4.24,.74,1,1.77,1.5,3.09,1.5,2.37,0,5.22-1.93,8.54-5.78v3.93Zm-9.95-36.85c-2.1-1.14-4.35-1.71-6.77-1.71-3.81,0-7.24,1.59-10.29,4.77-3.05,3.18-5.46,7.39-7.23,12.63-1.77,5.24-2.65,9.79-2.65,13.64,0,2.57,.5,4.67,1.49,6.27,.99,1.61,2.26,2.41,3.81,2.41,2.69,0,5.78-2.45,9.26-7.35,1.44-12.85,5.56-23.07,12.37-30.66Z"/><path class="cls-1" d="M607.85,142.03c-5.72,5.61-10.13,8.41-13.23,8.41-1.39,0-2.56-.59-3.52-1.76s-1.44-2.63-1.44-4.36c0-3.21,1.72-7.52,5.16-12.92-1.69,.87-3.53,1.47-5.54,1.81-1.48,2.73-3.81,5.67-6.97,8.82h-.79v-3.08c1.78-1.85,3.38-3.83,4.82-5.95-1.96-.87-2.94-2.15-2.94-3.86s.6-3.63,1.79-5.62c1.2-1.99,2.84-2.99,4.94-2.99,1.78,0,2.67,.91,2.67,2.73,0,1.44-.51,3.49-1.54,6.15,3.78-.41,7.09-3.3,9.91-8.68l3.11-.14-3.18,8.75c-1.32,3.69-2.18,6.2-2.56,7.54-.39,1.33-.58,2.51-.58,3.54,0,.96,.22,1.72,.67,2.29,.44,.57,1.04,.86,1.79,.86,.82,0,1.61-.28,2.36-.84s2.44-2.1,5.06-4.63v3.93Z"/><path class="cls-1" d="M633.42,142.03c-2.92,2.87-5.59,4.98-8.02,6.32-2.43,1.34-4.96,2.02-7.6,2.02-2.96,0-5.41-.96-7.33-2.89-1.93-1.92-2.89-4.37-2.89-7.33,0-4.85,1.77-9.34,5.31-13.45,3.54-4.11,7.38-6.17,11.5-6.17,2.03,0,3.68,.56,4.96,1.69,1.28,1.13,1.91,2.59,1.91,4.39,0,.64-.12,1.12-.36,1.44-.24,.32-.69,.64-1.35,.96l-3.96,1.88c-.48,.23-.83,.34-1.06,.34-.32,0-.48-.23-.48-.68,0-.18,.07-.78,.21-1.79,.14-1.01,.21-1.63,.21-1.86,0-1-.21-1.81-.63-2.43s-.99-.92-1.69-.92c-1.66,0-3.18,1.23-4.56,3.69-1.38,2.46-2.07,5.26-2.07,8.41,0,2.71,.65,4.88,1.95,6.49,1.3,1.62,3.03,2.43,5.2,2.43,1.85,0,3.58-.53,5.21-1.59s3.48-2.68,5.55-4.87v3.93Z"/><path class="cls-1" d="M669.92,142.03c-3.65,3.46-6.25,5.72-7.83,6.77-1.57,1.05-3.08,1.57-4.51,1.57-3.6,0-5.3-3.18-5.09-9.54-2.28,3.26-4.38,5.66-6.31,7.21-1.93,1.55-3.91,2.32-5.96,2.32s-3.71-.94-5.11-2.82c-1.4-1.88-2.1-4.19-2.1-6.92,0-3.42,.94-6.68,2.82-9.78,1.88-3.1,4.29-5.61,7.23-7.52s5.54-2.87,7.79-2.87c2.85,0,4.84,1.31,5.98,3.93l6.99-3.86h1.92l-3.01,10.01c-1.55,5.04-2.33,8.49-2.33,10.36,0,1.96,.69,2.94,2.08,2.94,.89,0,1.87-.47,2.94-1.42,1.07-.95,2.57-2.39,4.51-4.32v3.93Zm-25.02,1.88c2.28,0,4.43-1.94,6.44-5.83,2.02-3.88,3.02-7.47,3.02-10.75,0-1.28-.29-2.27-.85-2.99-.57-.72-1.33-1.08-2.29-1.08-2.28,0-4.44,1.94-6.48,5.81-2.04,3.87-3.06,7.44-3.06,10.7,0,1.23,.3,2.23,.91,2.99,.6,.76,1.37,1.15,2.31,1.15Z"/><path class="cls-1" d="M703.46,142.03c-5.26,5.56-9.78,8.34-13.54,8.34-1.53,0-2.76-.54-3.69-1.61-.93-1.07-1.4-2.51-1.4-4.31,0-2.44,1-6.16,3.01-11.18,1.07-2.69,1.61-4.4,1.61-5.13s-.29-1.09-.85-1.09c-.32,0-.74,.16-1.26,.48-.48,.32-1.04,.76-1.67,1.33-.57,.52-1.21,1.16-1.91,1.91-.62,.64-1.28,1.37-1.98,2.19l-1.91,2.22c-.84,1.03-1.37,2.11-1.57,3.25-.34,1.94-.57,3.71-.68,5.33-.07,1.21-.1,2.84-.1,4.89l-7.55,1.78c-.25-3.08-.38-5.37-.38-6.87,0-3.67,.43-7.14,1.28-10.43,.86-3.28,2.23-6.97,4.12-11.07l8.34-1.61c-1.75,4.72-2.91,8.43-3.45,11.14,3.73-4.17,6.7-7.06,8.89-8.67,2.19-1.61,4.15-2.41,5.85-2.41,1.16,0,2.13,.44,2.9,1.31,.77,.88,1.16,1.97,1.16,3.29,0,2.18-.98,5.78-2.94,10.8-1.34,3.44-2.02,5.68-2.02,6.7,0,1.37,.56,2.06,1.68,2.06,1.67,0,4.36-2.2,8.09-6.6v3.93Z"/><path class="cls-1" d="M739.92,142.03c-3.65,3.46-6.25,5.72-7.83,6.77-1.57,1.05-3.08,1.57-4.51,1.57-3.6,0-5.3-3.18-5.09-9.54-2.28,3.26-4.38,5.66-6.31,7.21-1.93,1.55-3.91,2.32-5.96,2.32s-3.71-.94-5.11-2.82c-1.4-1.88-2.1-4.19-2.1-6.92,0-3.42,.94-6.68,2.82-9.78,1.88-3.1,4.29-5.61,7.23-7.52s5.54-2.87,7.79-2.87c2.85,0,4.84,1.31,5.98,3.93l6.99-3.86h1.92l-3.01,10.01c-1.55,5.04-2.33,8.49-2.33,10.36,0,1.96,.69,2.94,2.08,2.94,.89,0,1.87-.47,2.94-1.42,1.07-.95,2.57-2.39,4.51-4.32v3.93Zm-25.02,1.88c2.28,0,4.43-1.94,6.44-5.83,2.02-3.88,3.02-7.47,3.02-10.75,0-1.28-.29-2.27-.85-2.99-.57-.72-1.33-1.08-2.29-1.08-2.28,0-4.44,1.94-6.48,5.81-2.04,3.87-3.06,7.44-3.06,10.7,0,1.23,.3,2.23,.91,2.99,.6,.76,1.37,1.15,2.31,1.15Z"/></g><g><path class="cls-1" d="M472.53,1821.03c0,.89-1.47,3.08-4.41,6.56h-.62c-.46-.18-.74-.85-.85-2.02-.25-2.35-1.06-4.27-2.43-5.76s-3.01-2.24-4.92-2.24c-1.8,0-3.35,.65-4.65,1.96s-1.95,2.87-1.95,4.69c0,1.32,.41,2.74,1.24,4.25s2.96,3.91,6.41,7.2c3.45,3.29,5.66,5.9,6.64,7.85,.98,1.95,1.47,3.8,1.47,5.55,0,4.06-1.76,7.63-5.28,10.71-3.52,3.09-7.64,4.63-12.36,4.63-3.9,0-7.11-.91-9.64-2.72s-3.79-3.29-3.79-4.43c0-.64,.69-2.12,2.08-4.44s2.19-3.49,2.39-3.49c.73,0,1.25,.21,1.55,.63,.31,.42,.52,1.2,.63,2.34,.34,3.55,1.2,6,2.58,7.35,1.38,1.34,3.17,2.02,5.38,2.02,2.41,0,4.52-.84,6.32-2.51,1.8-1.67,2.7-3.61,2.7-5.82,0-1.14-.35-2.35-1.05-3.64-.7-1.29-2.67-3.47-5.91-6.57-3.24-3.09-5.37-5.71-6.37-7.85-1-2.14-1.5-4.23-1.5-6.25,0-3.53,1.33-6.78,4-9.74,2.67-2.96,6.21-4.44,10.63-4.44,3.35,0,6.13,.77,8.36,2.31,2.22,1.54,3.33,2.82,3.33,3.84Z"/><path class="cls-1" d="M523.63,1856.03c-1.09,.91-2.19,1.56-3.28,1.95-1.09,.39-1.94,.58-2.53,.58-1.66,0-3.29-.64-4.89-1.91-4.15,5.15-8.42,7.72-12.82,7.72-3.24,0-5.55-1.78-6.94-5.33-3.05,3.55-6.35,5.33-9.88,5.33-2.3,0-4.11-.76-5.43-2.27-1.32-1.51-1.98-3.61-1.98-6.27,0-2.87,.4-5.79,1.21-8.75,.81-2.96,2.04-6.58,3.71-10.87l9.01-1.67-2.53,7.62c-2.14,6.61-3.21,11.16-3.2,13.67,0,1.19,.28,2.16,.85,2.91,.57,.75,1.29,1.13,2.15,1.13,1.82,0,3.64-1.41,5.47-4.24,0-3.58,.65-7.29,1.95-11.14l2.8-8.27,9.15-1.67-3.83,11.82c-1.23,3.8-1.85,6.81-1.85,9.02,0,1.34,.29,2.42,.89,3.21,.59,.8,1.38,1.2,2.36,1.2,1.21,0,2.35-.44,3.42-1.33s2.28-2.23,3.63-4.03c-1.21-2.21-1.81-4.5-1.81-6.87,0-3.42,.86-6.44,2.56-9.07s3.63-3.95,5.78-3.95c1.48,0,2.22,1.12,2.22,3.35,0,4.81-1.86,10.25-5.57,16.34,1.14,1.07,2.35,1.61,3.62,1.61,1.53,0,3.44-1.24,5.74-3.72v3.93Z"/><path class="cls-1" d="M554.29,1856.03c-1.16,1.03-2.29,1.75-3.38,2.17-1.09,.42-1.96,.63-2.6,.63-1.64,0-3.27-.64-4.89-1.91-3.28,4.97-7.04,7.45-11.28,7.45-2.64,0-4.79-.99-6.43-2.97s-2.46-4.62-2.46-7.9c0-5.2,1.85-9.66,5.54-13.38s8.1-5.59,13.23-5.59c1.94,0,3.36,.21,4.26,.63,.9,.42,1.45,.92,1.66,1.49,.21,.57,.31,1.29,.31,2.15,0,4.26-1.16,9.49-3.49,15.69,1.16,1.07,2.38,1.61,3.66,1.61,1.53,0,3.49-1.33,5.88-4v3.93Zm-11.28-19.11c-.34-.14-.83-.21-1.47-.21-2.96,0-5.28,1.55-6.96,4.65-1.67,3.1-2.51,6.72-2.51,10.87,0,2.3,.36,4.09,1.09,5.37,.73,1.28,1.74,1.91,3.04,1.91,1.62,0,3.37-1.49,5.26-4.48-2.14-2.69-3.21-5.58-3.21-8.68,0-3.65,1.58-6.79,4.75-9.43Z"/><path class="cls-1" d="M579.82,1856.03c-5.72,5.61-10.13,8.41-13.23,8.41-1.39,0-2.56-.59-3.52-1.76s-1.44-2.63-1.44-4.36c0-3.21,1.72-7.52,5.16-12.92-1.69,.87-3.53,1.47-5.54,1.81-1.48,2.73-3.81,5.67-6.97,8.82h-.79v-3.08c1.78-1.85,3.38-3.83,4.82-5.95-1.96-.87-2.94-2.15-2.94-3.86s.6-3.63,1.79-5.62c1.2-1.99,2.84-2.99,4.94-2.99,1.78,0,2.67,.91,2.67,2.73,0,1.44-.51,3.49-1.54,6.15,3.78-.41,7.09-3.3,9.91-8.68l3.11-.14-3.18,8.75c-1.32,3.69-2.18,6.2-2.56,7.54s-.58,2.51-.58,3.54c0,.96,.22,1.72,.67,2.29,.44,.57,1.04,.86,1.79,.86,.82,0,1.61-.28,2.36-.84s2.44-2.1,5.06-4.63v3.93Z"/><path class="cls-1" d="M616.32,1856.03c-3.28,3.26-5.78,5.46-7.5,6.61s-3.24,1.73-4.56,1.73c-1.62,0-2.9-.79-3.85-2.36s-1.43-3.87-1.45-6.9c-1.87,3.03-3.9,5.33-6.1,6.9s-4.19,2.36-5.96,2.36c-1.94,0-3.65-.92-5.13-2.75-1.48-1.83-2.22-3.98-2.22-6.44,0-5.08,1.85-9.79,5.55-14.13s7.68-6.51,11.95-6.51c1.19,0,2.11,.17,2.79,.51s1.41,.92,2.21,1.74l4.89-20.44c3.99-.93,6.68-1.4,8.07-1.4,.46,0,.68,.18,.68,.55,0,.25-.57,2.61-1.71,7.08-4.55,17.87-6.83,28.64-6.83,32.33,0,.87,.18,1.56,.55,2.08,.36,.52,.84,.79,1.43,.79,1.46,0,3.86-1.89,7.2-5.67v3.93Zm-24.71,1.81c2.23,0,4.32-1.89,6.25-5.67,1.94-3.78,2.91-7.33,2.91-10.63,0-1.34-.3-2.41-.91-3.21-.6-.8-1.4-1.2-2.38-1.2-2.12,0-4.17,1.98-6.15,5.93s-2.97,7.53-2.97,10.71c0,1.25,.29,2.25,.87,2.97,.58,.73,1.37,1.09,2.38,1.09Z"/><path class="cls-1" d="M626.82,1836c1.57-.41,3.15-.75,4.75-1.01s2.55-.39,2.87-.39c.23,0,.34,.09,.34,.27,0,.34-.09,.69-.27,1.06-.37,1.05-.55,2.05-.55,3.01,0,1.18,.69,2.8,2.05,4.85s2.05,3.96,2.05,5.71c0,3.49-1.67,6.85-5.01,10.08-3.34,3.24-6.8,4.85-10.38,4.85-1.55,0-2.96-.41-4.24-1.23s-1.91-1.7-1.91-2.63c0-.55,.63-1.58,1.9-3.11,1.26-1.53,2.17-2.29,2.72-2.29,.73,0,1.38,.93,1.95,2.8,.57,1.87,1.55,2.8,2.94,2.8s2.7-.64,3.91-1.93,1.83-2.67,1.83-4.15c0-1.44-.77-3.35-2.32-5.74-1.55-2.39-2.58-4.4-3.08-6.01-2.64,4.26-5.99,8.62-10.05,13.09h-.79v-3.08c5.58-5.95,9.34-11.6,11.28-16.95Z"/></g></g></g><g id="_반짝이"><polygon class="cls-7" points="591.78 560.88 603.79 607.47 642.46 617.04 603.79 627.54 591.78 675 579.13 627.54 541.11 617.04 579.13 607.47 591.78 560.88"/><polygon class="cls-7" points="848.78 1160.88 857.84 1196.04 887.02 1203.26 857.84 1211.19 848.78 1247 839.23 1211.19 810.54 1203.26 839.23 1196.04 848.78 1160.88"/><circle class="cls-8" cx="660.5" cy="579.5" r="11.5"/><circle class="cls-7" cx="752" cy="658" r="8"/><circle class="cls-8" cx="900.5" cy="1114.5" r="10.5"/><circle class="cls-8" cx="251" cy="1063.5" r="8.5"/><circle class="cls-7" cx="248" cy="1176" r="15"/><circle class="cls-8" cx="296.5" cy="1215.5" r="9.5"/></g><g id="_소드_7"><g><circle class="cls-5" cx="163.95" cy="703.62" r="12.33"/><g><polygon class="cls-8" points="437.01 1287.78 432.74 1252.68 220.09 794.6 210.2 799.19 437.01 1287.78"/><polygon class="cls-8" points="433.9 1289.22 207.1 800.63 197.2 805.22 409.85 1263.31 433.9 1289.22"/></g><rect class="cls-4" x="156.52" y="786.47" width="101.94" height="21.92" rx="10.96" ry="10.96" transform="translate(731.46 1433.35) rotate(155.1)"/><rect class="cls-4" x="173.18" y="702.61" width="27.98" height="102.05" transform="translate(674.25 1358.39) rotate(155.1)"/><rect class="cls-4" x="145.35" y="700.69" width="38.94" height="9.59" rx="4.79" ry="4.79" transform="translate(611.36 1275.99) rotate(155.1)"/></g><g><circle class="cls-5" cx="206.95" cy="621.62" r="12.33"/><g><polygon class="cls-8" points="480.01 1205.78 475.74 1170.68 263.09 712.6 253.2 717.19 480.01 1205.78"/><polygon class="cls-8" points="476.9 1207.22 250.1 718.63 240.2 723.22 452.85 1181.31 476.9 1207.22"/></g><rect class="cls-4" x="199.52" y="704.47" width="101.94" height="21.92" rx="10.96" ry="10.96" transform="translate(778.93 1258.87) rotate(155.1)"/><rect class="cls-4" x="216.18" y="620.61" width="27.98" height="102.05" transform="translate(721.72 1183.91) rotate(155.1)"/><rect class="cls-4" x="188.35" y="618.69" width="38.94" height="9.59" rx="4.79" ry="4.79" transform="translate(658.83 1101.51) rotate(155.1)"/></g><g><circle class="cls-5" cx="263.71" cy="546.53" r="12.33"/><g><polygon class="cls-8" points="536.77 1130.68 532.5 1095.58 319.86 637.5 309.96 642.09 536.77 1130.68"/><polygon class="cls-8" points="533.66 1132.13 306.86 643.54 296.96 648.13 509.61 1106.21 533.66 1132.13"/></g><rect class="cls-4" x="256.29" y="629.37" width="101.94" height="21.92" rx="10.96" ry="10.96" transform="translate(855.56 1091.76) rotate(155.1)"/><rect class="cls-4" x="272.94" y="545.51" width="27.98" height="102.05" transform="translate(798.35 1016.8) rotate(155.1)"/><rect class="cls-4" x="245.11" y="543.6" width="38.94" height="9.59" rx="4.79" ry="4.79" transform="translate(735.46 934.4) rotate(155.1)"/></g><g><circle class="cls-5" cx="361.71" cy="546.53" r="12.33"/><g><polygon class="cls-8" points="634.77 1130.68 630.5 1095.58 417.86 637.5 407.96 642.09 634.77 1130.68"/><polygon class="cls-8" points="631.66 1132.13 404.86 643.54 394.96 648.13 607.61 1106.21 631.66 1132.13"/></g><rect class="cls-4" x="354.29" y="629.37" width="101.94" height="21.92" rx="10.96" ry="10.96" transform="translate(1042.45 1050.5) rotate(155.1)"/><rect class="cls-4" x="370.94" y="545.51" width="27.98" height="102.05" transform="translate(985.24 975.54) rotate(155.1)"/><rect class="cls-4" x="343.11" y="543.6" width="38.94" height="9.59" rx="4.79" ry="4.79" transform="translate(922.35 893.14) rotate(155.1)"/></g><g><circle class="cls-5" cx="408.71" cy="465.53" r="12.33"/><g><polygon class="cls-8" points="681.77 1049.68 677.5 1014.58 464.86 556.5 454.96 561.09 681.77 1049.68"/><polygon class="cls-8" points="678.66 1051.13 451.86 562.54 441.96 567.13 654.61 1025.21 678.66 1051.13"/></g><rect class="cls-4" x="401.29" y="548.37" width="101.94" height="21.92" rx="10.96" ry="10.96" transform="translate(1097.98 876.24) rotate(155.1)"/><rect class="cls-4" x="417.94" y="464.51" width="27.98" height="102.05" transform="translate(1040.77 801.28) rotate(155.1)"/><rect class="cls-4" x="390.11" y="462.6" width="38.94" height="9.59" rx="4.79" ry="4.79" transform="translate(977.88 718.88) rotate(155.1)"/></g><g><circle class="cls-5" cx="844.78" cy="673.66" r="12.33"/><g><polygon class="cls-8" points="640.65 1285.32 661.72 1256.92 822.87 778.29 812.53 774.81 640.65 1285.32"/><polygon class="cls-8" points="637.4 1284.23 809.29 773.72 798.95 770.24 637.8 1248.87 637.4 1284.23"/></g><rect class="cls-4" x="760.81" y="760.71" width="101.94" height="21.92" rx="10.96" ry="10.96" transform="translate(1334.89 1762.04) rotate(-161.39)"/><rect class="cls-4" x="813.2" y="674.89" width="27.98" height="102.05" transform="translate(1379.5 1677.83) rotate(-161.39)"/><rect class="cls-4" x="824.66" y="670.81" width="38.94" height="9.59" rx="4.79" ry="4.79" transform="translate(1428.54 1585.25) rotate(-161.39)"/></g><g><circle class="cls-5" cx="894.78" cy="776.66" r="12.33"/><g><polygon class="cls-8" points="690.65 1388.32 711.72 1359.92 872.87 881.29 862.53 877.81 690.65 1388.32"/><polygon class="cls-8" points="687.4 1387.23 859.29 876.72 848.95 873.24 687.8 1351.87 687.4 1387.23"/></g><rect class="cls-4" x="810.81" y="863.71" width="101.94" height="21.92" rx="10.96" ry="10.96" transform="translate(1399.41 1978.61) rotate(-161.39)"/><rect class="cls-4" x="863.2" y="777.89" width="27.98" height="102.05" transform="translate(1444.02 1894.4) rotate(-161.39)"/><rect class="cls-4" x="874.66" y="773.81" width="38.94" height="9.59" rx="4.79" ry="4.79" transform="translate(1493.06 1801.82) rotate(-161.39)"/></g><path class="cls-2" d="M715.76,796.43c-.54-6.32-3.41-39.98-25.83-51.26-14.94-7.51-34.25-.23-72.27,14.63-38.85,15.19-49.73,25.71-74.67,24.43-10.38-.53-18.27-2.86-33.89-7.46-29.51-8.69-32.45-15.08-53.84-21.31-18.19-5.3-47.31-13.78-68.76,1.29-15.79,11.09-19.92,29.68-21.08,34.88-4.67,21.02,2.89,38.04,7.88,49.27,3.43,7.72,16.92,38.1,50.09,53.62,23.77,11.12,56.97,14.3,82.05,3.13,6.39-2.85,14.76-7.74,27.61-8.28,13.48-.56,21.89,4.1,31.19,7.3,28.29,9.74,55.68,2.88,68.7-.38,12.09-3.03,35.26-8.83,55.08-29.22,4.7-4.84,31.04-31.93,27.75-70.63Zm-206.46,61.39c-2.46,3.24-6.87,7.04-19.13,9.73-10.48,2.3-39.78,8.74-66.61-10.04-6.4-4.48-25.71-17.99-27.91-40.79-.27-2.81-2.12-21.95,9.77-31.33,10.47-8.26,25.23-3.92,43.91,1.57,22.1,6.49,53.15,15.62,61.96,40.88,1.12,3.22,6.22,19.13-2,29.97Zm147.4-3.15c-24.57,18.96-52.39,13.45-62.33,11.49-11.64-2.3-15.93-5.88-18.36-8.97-8.13-10.34-3.91-25.95-2.98-29.11,7.37-24.8,36.27-34.47,56.83-41.36,17.39-5.82,31.13-10.42,41.28-2.66,11.53,8.81,10.49,27.48,10.34,30.22-1.24,22.23-18.92,35.87-24.78,40.4Z"/></g></svg>