<?xml version="1.0" encoding="UTF-8"?><svg xmlns="http://www.w3.org/2000/svg" viewBox="0 0 1080 1944"><defs><style>.cls-1{fill:#fff;}.cls-2{stroke:#3f3730;stroke-miterlimit:10;stroke-width:5px;}.cls-2,.cls-3{fill:#3f3730;}.cls-4{fill:#f6ef84;}.cls-5{fill:#4c5fa9;}.cls-6{fill:#bad6eb;}.cls-7{fill:#c8c0de;}.cls-8{fill:#b1d4f0;}</style></defs><g id="_배경_텍스트"><g><rect class="cls-6" y="2" width="1080" height="1944"/><rect class="cls-1" x="74.84" y="188.39" width="930.33" height="1606.64" rx="65.21" ry="65.21"/><path class="cls-2" d="M493.08,1610.73c-.56-3.44-1.32-5.72-2.28-6.84-.96-1.12-2.08-1.76-3.36-1.92-1.28-.16-1.92-.8-1.92-1.92,0-.48,.14-.9,.42-1.26,.28-.36,.74-.54,1.38-.54h17.16c.64,0,1.12,.2,1.44,.6,.32,.4,.48,.8,.48,1.2,0,1.04-.64,1.68-1.92,1.92-.88,.16-1.54,.4-1.98,.72-.44,.32-.72,.78-.84,1.38-.12,.6-.14,1.42-.06,2.46,.08,1.04,.2,2.32,.36,3.84l6.24,52.68,6.48-53.28c.24-1.76,.36-3.12,.36-4.08s-.12-1.7-.36-2.22c-.24-.52-.58-.86-1.02-1.02-.44-.16-.94-.32-1.5-.48-1.28-.24-1.92-.88-1.92-1.92,0-.4,.14-.8,.42-1.2,.28-.4,.74-.6,1.38-.6h13.32c.64,0,1.12,.2,1.44,.6,.32,.4,.48,.8,.48,1.2,0,.8-.64,1.44-1.92,1.92-.72,.24-1.36,.48-1.92,.72-.56,.24-1.04,.64-1.44,1.2-.4,.56-.76,1.36-1.08,2.4-.32,1.04-.64,2.52-.96,4.44l-10.68,74.64h-5.04l-11.16-74.64Zm50.64,60.84c0,1.92,.06,3.46,.18,4.62,.12,1.16,.34,2.04,.66,2.64,.32,.6,.78,1.02,1.38,1.26,.6,.24,1.34,.44,2.22,.6,1.04,.24,1.56,.84,1.56,1.8,0,.4-.14,.78-.42,1.14-.28,.36-.74,.54-1.38,.54h-16.92c-.64,0-1.1-.18-1.38-.54-.28-.36-.42-.74-.42-1.14,0-.96,.52-1.56,1.56-1.8,.88-.16,1.62-.36,2.22-.6,.6-.24,1.06-.66,1.38-1.26,.32-.6,.54-1.48,.66-2.64,.12-1.16,.18-2.7,.18-4.62v-60.72c0-1.92-.06-3.46-.18-4.62-.12-1.16-.34-2.04-.66-2.64-.32-.6-.78-1.02-1.38-1.26-.6-.24-1.34-.44-2.22-.6-1.04-.24-1.56-.84-1.56-1.8,0-.4,.14-.78,.42-1.14,.28-.36,.74-.54,1.38-.54h16.92c.64,0,1.1,.18,1.38,.54,.28,.36,.42,.74,.42,1.14,0,.96-.52,1.56-1.56,1.8-.88,.16-1.62,.36-2.22,.6-.6,.24-1.06,.66-1.38,1.26-.32,.6-.54,1.48-.66,2.64-.12,1.16-.18,2.7-.18,4.62v60.72Zm22.32,0c0,1.92,.06,3.46,.18,4.62,.12,1.16,.34,2.04,.66,2.64,.32,.6,.78,1.02,1.38,1.26,.6,.24,1.34,.44,2.22,.6,1.04,.24,1.56,.84,1.56,1.8,0,.4-.14,.78-.42,1.14-.28,.36-.74,.54-1.38,.54h-16.92c-.64,0-1.1-.18-1.38-.54-.28-.36-.42-.74-.42-1.14,0-.96,.52-1.56,1.56-1.8,.88-.16,1.62-.36,2.22-.6,.6-.24,1.06-.66,1.38-1.26,.32-.6,.54-1.48,.66-2.64,.12-1.16,.18-2.7,.18-4.62v-60.72c0-1.92-.06-3.46-.18-4.62-.12-1.16-.34-2.04-.66-2.64-.32-.6-.78-1.02-1.38-1.26-.6-.24-1.34-.44-2.22-.6-1.04-.24-1.56-.84-1.56-1.8,0-.4,.14-.78,.42-1.14,.28-.36,.74-.54,1.38-.54h16.92c.64,0,1.1,.18,1.38,.54,.28,.36,.42,.74,.42,1.14,0,.96-.52,1.56-1.56,1.8-.88,.16-1.62,.36-2.22,.6-.6,.24-1.06,.66-1.38,1.26-.32,.6-.54,1.48-.66,2.64-.12,1.16-.18,2.7-.18,4.62v60.72Zm22.32,0c0,1.92,.06,3.46,.18,4.62,.12,1.16,.34,2.04,.66,2.64,.32,.6,.78,1.02,1.38,1.26,.6,.24,1.34,.44,2.22,.6,1.04,.24,1.56,.84,1.56,1.8,0,.4-.14,.78-.42,1.14-.28,.36-.74,.54-1.38,.54h-16.92c-.64,0-1.1-.18-1.38-.54-.28-.36-.42-.74-.42-1.14,0-.96,.52-1.56,1.56-1.8,.88-.16,1.62-.36,2.22-.6,.6-.24,1.06-.66,1.38-1.26,.32-.6,.54-1.48,.66-2.64,.12-1.16,.18-2.7,.18-4.62v-60.72c0-1.92-.06-3.46-.18-4.62-.12-1.16-.34-2.04-.66-2.64-.32-.6-.78-1.02-1.38-1.26-.6-.24-1.34-.44-2.22-.6-1.04-.24-1.56-.84-1.56-1.8,0-.4,.14-.78,.42-1.14,.28-.36,.74-.54,1.38-.54h16.92c.64,0,1.1,.18,1.38,.54,.28,.36,.42,.74,.42,1.14,0,.96-.52,1.56-1.56,1.8-.88,.16-1.62,.36-2.22,.6-.6,.24-1.06,.66-1.38,1.26-.32,.6-.54,1.48-.66,2.64-.12,1.16-.18,2.7-.18,4.62v60.72Z"/><g><path class="cls-1" d="M410.88,144.03c-5.1,5.49-9.75,8.24-13.95,8.24-2.55,0-4.5-1.23-5.83-3.69-1.33-2.46-2-5.75-2-9.88,0-3.19,.65-7.58,1.96-13.16,1.31-5.58,3-10.28,5.08-14.08l1.98-3.55c-2.71,2.83-4.93,5.92-6.67,9.28-1.73,3.36-3.8,8.06-6.2,14.1-2.4,6.04-4.22,10.15-5.45,12.34s-2.41,3.97-3.54,5.35c-1.13,1.38-2.13,2.27-3.01,2.68-.88,.41-2.41,.62-4.6,.62-.84,0-1.26-.23-1.26-.68,0-.05,.15-.76,.45-2.15,.3-1.39,.61-3.62,.92-6.68s.54-8.27,.68-15.62,1.21-13.64,3.21-18.88c-2.14,2.44-4.33,8.11-6.57,17.02l-.86,3.35c-2.35,9.27-5.04,15.53-8.08,18.78-3.03,3.25-6.01,4.87-8.93,4.87-1.8,0-3.39-.57-4.76-1.71-1.37-1.14-2.05-2.45-2.05-3.93,0-1.14,.82-2.41,2.46-3.83,1.64-1.41,2.68-2.12,3.11-2.12,.5,0,.83,.17,.99,.51,.16,.34,.37,1.28,.62,2.82s.63,2.54,1.15,3.01c.51,.47,1.16,.7,1.94,.7,1.76,0,3.7-1.76,5.83-5.28s4.07-8.96,5.83-16.32l.99-4.13c.8-3.37,1.59-6.06,2.37-8.07,.78-2.01,1.8-4.01,3.08-6.02,1.85-2.87,2.99-4.4,3.41-4.6,.42-.19,1.21-.35,2.38-.48s2.32-.19,3.49-.19c.46,0,.68,.26,.68,.79,0,.25-.07,.76-.21,1.54-.45,3.19-.66,6.39-.64,9.6l.07,9.16c.04,7.98-.59,14.41-1.91,19.31,1.21-1.46,2.96-5.22,5.26-11.28,3.33-8.59,6.36-15.04,9.09-19.35,1.3-2.07,2.87-4.06,4.7-5.96,1.83-1.9,3.1-2.92,3.81-3.06,2.42-.46,4.45-.68,6.12-.68,.62,0,.92,.17,.92,.51,0,.48-.38,1.55-1.12,3.21-1.77,4.01-3.43,9.44-4.96,16.27s-2.31,12.28-2.32,16.33c0,4.58,1.4,6.87,4.2,6.87,2.28,0,4.99-1.94,8.13-5.81v3.93Z"/><path class="cls-1" d="M427.66,144.03c-5.33,5.61-9.32,8.41-11.96,8.41-1.46,0-2.69-.75-3.69-2.24-1-1.49-1.5-3.37-1.5-5.62,0-4.85,1.64-11.57,4.92-20.17l8.68-1.81h.41l-3.42,10.7c-1.41,4.42-2.12,7.58-2.12,9.47,0,.75,.17,1.36,.5,1.83,.33,.47,.75,.7,1.25,.7,.89,0,1.78-.33,2.68-.97s2.32-2.06,4.26-4.22v3.93Zm-.68-34.79c0,5.47-2.02,8.2-6.05,8.2-1.96,0-3.63-.59-5.02-1.78,1.32-2,2.35-4.26,3.08-6.77,1.8,1.12,3.25,1.68,4.34,1.68,1.23,0,2.45-.45,3.66-1.33Z"/><path class="cls-1" d="M461.22,144.03c-5.26,5.56-9.78,8.34-13.54,8.34-1.53,0-2.76-.54-3.69-1.61-.93-1.07-1.4-2.51-1.4-4.31,0-2.44,1-6.16,3.01-11.18,1.07-2.69,1.61-4.4,1.61-5.13s-.29-1.09-.85-1.09c-.32,0-.74,.16-1.26,.48-.48,.32-1.04,.76-1.67,1.33-.57,.52-1.21,1.16-1.91,1.91-.62,.64-1.28,1.37-1.98,2.19l-1.91,2.22c-.84,1.03-1.37,2.11-1.57,3.25-.34,1.94-.57,3.71-.68,5.33-.07,1.21-.1,2.84-.1,4.89l-7.55,1.78c-.25-3.08-.38-5.37-.38-6.87,0-3.67,.43-7.14,1.28-10.43,.86-3.28,2.23-6.97,4.12-11.07l8.34-1.61c-1.75,4.72-2.91,8.43-3.45,11.14,3.73-4.17,6.7-7.06,8.89-8.67,2.19-1.61,4.15-2.41,5.85-2.41,1.16,0,2.13,.44,2.9,1.31,.77,.88,1.16,1.97,1.16,3.29,0,2.18-.98,5.78-2.94,10.8-1.34,3.44-2.02,5.68-2.02,6.7,0,1.37,.56,2.06,1.68,2.06,1.67,0,4.36-2.2,8.09-6.6v3.93Z"/><path class="cls-1" d="M491.88,144.03c-1.16,1.03-2.29,1.75-3.38,2.17-1.09,.42-1.96,.63-2.6,.63-1.64,0-3.27-.64-4.89-1.91-3.28,4.97-7.04,7.45-11.28,7.45-2.64,0-4.79-.99-6.43-2.97s-2.46-4.62-2.46-7.9c0-5.2,1.85-9.66,5.54-13.38s8.1-5.59,13.23-5.59c1.94,0,3.35,.21,4.25,.63,.9,.42,1.45,.92,1.66,1.49,.21,.57,.31,1.29,.31,2.15,0,4.26-1.16,9.49-3.49,15.69,1.16,1.07,2.38,1.61,3.66,1.61,1.53,0,3.49-1.33,5.88-4v3.93Zm-11.28-19.11c-.34-.14-.83-.21-1.47-.21-2.96,0-5.28,1.55-6.96,4.65-1.67,3.1-2.51,6.72-2.51,10.87,0,2.3,.36,4.09,1.09,5.37,.73,1.28,1.74,1.91,3.04,1.91,1.62,0,3.37-1.49,5.26-4.48-2.14-2.69-3.21-5.58-3.21-8.68,0-3.65,1.58-6.79,4.75-9.43Z"/><path class="cls-1" d="M517.42,144.03c-5.72,5.61-10.13,8.41-13.23,8.41-1.39,0-2.56-.59-3.52-1.76s-1.44-2.63-1.44-4.36c0-3.21,1.72-7.52,5.16-12.92-1.69,.87-3.53,1.47-5.54,1.81-1.48,2.73-3.81,5.67-6.97,8.82h-.79v-3.08c1.78-1.85,3.38-3.83,4.82-5.95-1.96-.87-2.94-2.15-2.94-3.86s.6-3.63,1.79-5.62c1.2-1.99,2.84-2.99,4.94-2.99,1.78,0,2.67,.91,2.67,2.73,0,1.44-.51,3.49-1.54,6.15,3.78-.41,7.09-3.3,9.91-8.68l3.11-.14-3.18,8.75c-1.32,3.69-2.18,6.2-2.56,7.54-.39,1.33-.58,2.51-.58,3.54,0,.96,.22,1.72,.67,2.29,.44,.57,1.04,.86,1.79,.86,.82,0,1.61-.28,2.36-.84s2.44-2.1,5.06-4.63v3.93Z"/><path class="cls-1" d="M582.32,144.06c-5.24,5.58-10.05,8.37-14.42,8.37-2.42,0-4.33-.85-5.74-2.56-1.41-1.71-2.2-4.15-2.36-7.31-2.76,3.35-5.2,5.83-7.33,7.45-2.13,1.62-4.4,2.43-6.82,2.43-3.1,0-5.59-1.34-7.47-4.02-1.88-2.68-2.82-6.25-2.82-10.71,0-5.33,1.23-10.83,3.69-16.49s6.11-10.13,10.94-13.42c4.83-3.28,10.69-4.92,17.57-4.92,5.15,0,9.81,.7,13.98,2.09v2.26c-3.4,3.96-6.24,9.51-8.53,16.64-2.29,7.13-3.44,12.57-3.44,16.3,0,1.82,.37,3.24,1.11,4.24,.74,1,1.77,1.5,3.09,1.5,2.37,0,5.22-1.93,8.54-5.78v3.93Zm-9.95-36.85c-2.1-1.14-4.35-1.71-6.77-1.71-3.81,0-7.24,1.59-10.29,4.77-3.05,3.18-5.46,7.39-7.23,12.63-1.77,5.24-2.65,9.79-2.65,13.64,0,2.57,.5,4.67,1.49,6.27,.99,1.61,2.26,2.41,3.81,2.41,2.69,0,5.78-2.45,9.26-7.35,1.44-12.85,5.56-23.07,12.37-30.66Z"/><path class="cls-1" d="M607.85,144.03c-5.72,5.61-10.13,8.41-13.23,8.41-1.39,0-2.56-.59-3.52-1.76s-1.44-2.63-1.44-4.36c0-3.21,1.72-7.52,5.16-12.92-1.69,.87-3.53,1.47-5.54,1.81-1.48,2.73-3.81,5.67-6.97,8.82h-.79v-3.08c1.78-1.85,3.38-3.83,4.82-5.95-1.96-.87-2.94-2.15-2.94-3.86s.6-3.63,1.79-5.62c1.2-1.99,2.84-2.99,4.94-2.99,1.78,0,2.67,.91,2.67,2.73,0,1.44-.51,3.49-1.54,6.15,3.78-.41,7.09-3.3,9.91-8.68l3.11-.14-3.18,8.75c-1.32,3.69-2.18,6.2-2.56,7.54-.39,1.33-.58,2.51-.58,3.54,0,.96,.22,1.72,.67,2.29,.44,.57,1.04,.86,1.79,.86,.82,0,1.61-.28,2.36-.84s2.44-2.1,5.06-4.63v3.93Z"/><path class="cls-1" d="M633.42,144.03c-2.92,2.87-5.59,4.98-8.02,6.32-2.43,1.34-4.96,2.02-7.6,2.02-2.96,0-5.41-.96-7.33-2.89-1.93-1.92-2.89-4.37-2.89-7.33,0-4.85,1.77-9.34,5.31-13.45,3.54-4.11,7.38-6.17,11.5-6.17,2.03,0,3.68,.56,4.96,1.69,1.28,1.13,1.91,2.59,1.91,4.39,0,.64-.12,1.12-.36,1.44-.24,.32-.69,.64-1.35,.96l-3.96,1.88c-.48,.23-.83,.34-1.06,.34-.32,0-.48-.23-.48-.68,0-.18,.07-.78,.21-1.79,.14-1.01,.21-1.63,.21-1.86,0-1-.21-1.81-.63-2.43s-.99-.92-1.69-.92c-1.66,0-3.18,1.23-4.56,3.69-1.38,2.46-2.07,5.26-2.07,8.41,0,2.71,.65,4.88,1.95,6.49,1.3,1.62,3.03,2.43,5.2,2.43,1.85,0,3.58-.53,5.21-1.59s3.48-2.68,5.55-4.87v3.93Z"/><path class="cls-1" d="M669.92,144.03c-3.65,3.46-6.25,5.72-7.83,6.77-1.57,1.05-3.08,1.57-4.51,1.57-3.6,0-5.3-3.18-5.09-9.54-2.28,3.26-4.38,5.66-6.31,7.21-1.93,1.55-3.91,2.32-5.96,2.32s-3.71-.94-5.11-2.82c-1.4-1.88-2.1-4.19-2.1-6.92,0-3.42,.94-6.68,2.82-9.78,1.88-3.1,4.29-5.61,7.23-7.52s5.54-2.87,7.79-2.87c2.85,0,4.84,1.31,5.98,3.93l6.99-3.86h1.92l-3.01,10.01c-1.55,5.04-2.33,8.49-2.33,10.36,0,1.96,.69,2.94,2.08,2.94,.89,0,1.87-.47,2.94-1.42,1.07-.95,2.57-2.39,4.51-4.32v3.93Zm-25.02,1.88c2.28,0,4.43-1.94,6.44-5.83,2.02-3.88,3.02-7.47,3.02-10.75,0-1.28-.29-2.27-.85-2.99-.57-.72-1.33-1.08-2.29-1.08-2.28,0-4.44,1.94-6.48,5.81-2.04,3.87-3.06,7.44-3.06,10.7,0,1.23,.3,2.23,.91,2.99,.6,.76,1.37,1.15,2.31,1.15Z"/><path class="cls-1" d="M703.46,144.03c-5.26,5.56-9.78,8.34-13.54,8.34-1.53,0-2.76-.54-3.69-1.61-.93-1.07-1.4-2.51-1.4-4.31,0-2.44,1-6.16,3.01-11.18,1.07-2.69,1.61-4.4,1.61-5.13s-.29-1.09-.85-1.09c-.32,0-.74,.16-1.26,.48-.48,.32-1.04,.76-1.67,1.33-.57,.52-1.21,1.16-1.91,1.91-.62,.64-1.28,1.37-1.98,2.19l-1.91,2.22c-.84,1.03-1.37,2.11-1.57,3.25-.34,1.94-.57,3.71-.68,5.33-.07,1.21-.1,2.84-.1,4.89l-7.55,1.78c-.25-3.08-.38-5.37-.38-6.87,0-3.67,.43-7.14,1.28-10.43,.86-3.28,2.23-6.97,4.12-11.07l8.34-1.61c-1.75,4.72-2.91,8.43-3.45,11.14,3.73-4.17,6.7-7.06,8.89-8.67,2.19-1.61,4.15-2.41,5.85-2.41,1.16,0,2.13,.44,2.9,1.31,.77,.88,1.16,1.97,1.16,3.29,0,2.18-.98,5.78-2.94,10.8-1.34,3.44-2.02,5.68-2.02,6.7,0,1.37,.56,2.06,1.68,2.06,1.67,0,4.36-2.2,8.09-6.6v3.93Z"/><path class="cls-1" d="M739.92,144.03c-3.65,3.46-6.25,5.72-7.83,6.77-1.57,1.05-3.08,1.57-4.51,1.57-3.6,0-5.3-3.18-5.09-9.54-2.28,3.26-4.38,5.66-6.31,7.21-1.93,1.55-3.91,2.32-5.96,2.32s-3.71-.94-5.11-2.82c-1.4-1.88-2.1-4.19-2.1-6.92,0-3.42,.94-6.68,2.82-9.78,1.88-3.1,4.29-5.61,7.23-7.52s5.54-2.87,7.79-2.87c2.85,0,4.84,1.31,5.98,3.93l6.99-3.86h1.92l-3.01,10.01c-1.55,5.04-2.33,8.49-2.33,10.36,0,1.96,.69,2.94,2.08,2.94,.89,0,1.87-.47,2.94-1.42,1.07-.95,2.57-2.39,4.51-4.32v3.93Zm-25.02,1.88c2.28,0,4.43-1.94,6.44-5.83,2.02-3.88,3.02-7.47,3.02-10.75,0-1.28-.29-2.27-.85-2.99-.57-.72-1.33-1.08-2.29-1.08-2.28,0-4.44,1.94-6.48,5.81-2.04,3.87-3.06,7.44-3.06,10.7,0,1.23,.3,2.23,.91,2.99,.6,.76,1.37,1.15,2.31,1.15Z"/></g><g><path class="cls-1" d="M472.53,1823.03c0,.89-1.47,3.08-4.41,6.56h-.62c-.46-.18-.74-.85-.85-2.02-.25-2.35-1.06-4.27-2.43-5.76-1.37-1.49-3.01-2.24-4.92-2.24-1.8,0-3.35,.65-4.65,1.96s-1.95,2.87-1.95,4.7c0,1.32,.41,2.74,1.24,4.25,.82,1.51,2.96,3.91,6.41,7.2,3.45,3.29,5.66,5.9,6.64,7.85,.98,1.95,1.47,3.8,1.47,5.55,0,4.06-1.76,7.63-5.28,10.71-3.52,3.09-7.64,4.63-12.36,4.63-3.9,0-7.11-.91-9.64-2.72-2.53-1.81-3.79-3.29-3.79-4.43,0-.64,.69-2.12,2.08-4.44,1.39-2.32,2.19-3.49,2.39-3.49,.73,0,1.25,.21,1.55,.63,.31,.42,.52,1.2,.63,2.34,.34,3.55,1.2,6,2.58,7.35,1.38,1.34,3.17,2.02,5.38,2.02,2.42,0,4.52-.84,6.32-2.51,1.8-1.67,2.7-3.61,2.7-5.82,0-1.14-.35-2.35-1.05-3.64-.7-1.29-2.67-3.47-5.91-6.57s-5.37-5.71-6.37-7.85c-1-2.14-1.5-4.23-1.5-6.25,0-3.53,1.33-6.78,4-9.74s6.21-4.44,10.63-4.44c3.35,0,6.14,.77,8.36,2.31,2.22,1.54,3.33,2.82,3.33,3.84Z"/><path class="cls-1" d="M523.63,1858.03c-1.09,.91-2.19,1.56-3.28,1.95-1.09,.39-1.94,.58-2.53,.58-1.66,0-3.29-.64-4.89-1.91-4.15,5.15-8.42,7.72-12.82,7.72-3.24,0-5.55-1.78-6.94-5.33-3.05,3.55-6.35,5.33-9.88,5.33-2.3,0-4.11-.76-5.43-2.27-1.32-1.52-1.98-3.61-1.98-6.27,0-2.87,.4-5.79,1.21-8.75s2.04-6.58,3.71-10.87l9.01-1.67-2.53,7.62c-2.14,6.61-3.21,11.16-3.2,13.67,0,1.19,.28,2.16,.85,2.91,.57,.75,1.29,1.13,2.15,1.13,1.82,0,3.65-1.41,5.47-4.24,0-3.58,.65-7.29,1.95-11.14l2.8-8.27,9.15-1.67-3.83,11.82c-1.23,3.8-1.85,6.81-1.85,9.02,0,1.35,.3,2.42,.89,3.21,.59,.8,1.38,1.2,2.36,1.2,1.21,0,2.35-.44,3.42-1.33,1.07-.89,2.28-2.23,3.63-4.03-1.21-2.21-1.81-4.5-1.81-6.87,0-3.42,.85-6.44,2.56-9.08,1.71-2.63,3.63-3.95,5.78-3.95,1.48,0,2.22,1.12,2.22,3.35,0,4.81-1.86,10.25-5.57,16.34,1.14,1.07,2.35,1.61,3.62,1.61,1.53,0,3.44-1.24,5.74-3.73v3.93Z"/><path class="cls-1" d="M554.29,1858.03c-1.16,1.03-2.29,1.75-3.38,2.17s-1.96,.63-2.6,.63c-1.64,0-3.27-.64-4.89-1.91-3.28,4.97-7.04,7.45-11.28,7.45-2.64,0-4.79-.99-6.43-2.97s-2.46-4.61-2.46-7.9c0-5.2,1.85-9.66,5.54-13.38,3.69-3.72,8.1-5.59,13.23-5.59,1.94,0,3.35,.21,4.25,.63s1.45,.92,1.66,1.49c.21,.57,.31,1.29,.31,2.15,0,4.26-1.16,9.49-3.49,15.69,1.16,1.07,2.38,1.61,3.66,1.61,1.53,0,3.49-1.33,5.88-4v3.93Zm-11.28-19.11c-.34-.14-.83-.21-1.47-.21-2.96,0-5.28,1.55-6.96,4.65-1.67,3.1-2.51,6.72-2.51,10.87,0,2.3,.36,4.09,1.09,5.37,.73,1.28,1.74,1.91,3.04,1.91,1.62,0,3.37-1.49,5.26-4.48-2.14-2.69-3.21-5.58-3.21-8.68,0-3.65,1.58-6.79,4.75-9.43Z"/><path class="cls-1" d="M579.82,1858.03c-5.72,5.61-10.13,8.41-13.23,8.41-1.39,0-2.56-.59-3.52-1.76-.96-1.17-1.44-2.62-1.44-4.36,0-3.21,1.72-7.52,5.16-12.92-1.69,.87-3.53,1.47-5.54,1.81-1.48,2.73-3.81,5.67-6.97,8.82h-.79v-3.08c1.78-1.85,3.38-3.83,4.82-5.95-1.96-.87-2.94-2.15-2.94-3.86s.6-3.63,1.79-5.62c1.2-1.99,2.84-2.99,4.94-2.99,1.78,0,2.67,.91,2.67,2.73,0,1.44-.51,3.49-1.54,6.15,3.78-.41,7.09-3.3,9.91-8.68l3.11-.14-3.18,8.75c-1.32,3.69-2.18,6.2-2.56,7.54-.39,1.33-.58,2.51-.58,3.54,0,.96,.22,1.72,.67,2.29,.44,.57,1.04,.85,1.79,.85,.82,0,1.61-.28,2.36-.84,.75-.56,2.44-2.1,5.06-4.63v3.93Z"/><path class="cls-1" d="M616.32,1858.03c-3.28,3.26-5.78,5.46-7.5,6.61-1.72,1.15-3.24,1.73-4.56,1.73-1.62,0-2.9-.79-3.84-2.36-.95-1.57-1.43-3.87-1.45-6.9-1.87,3.03-3.9,5.33-6.1,6.9s-4.19,2.36-5.96,2.36c-1.94,0-3.65-.92-5.13-2.75-1.48-1.83-2.22-3.98-2.22-6.44,0-5.08,1.85-9.79,5.55-14.13,3.7-4.34,7.68-6.51,11.95-6.51,1.18,0,2.11,.17,2.79,.51s1.41,.92,2.21,1.74l4.89-20.44c3.99-.93,6.68-1.4,8.07-1.4,.46,0,.68,.18,.68,.55,0,.25-.57,2.61-1.71,7.08-4.55,17.87-6.83,28.64-6.83,32.33,0,.87,.18,1.56,.55,2.08,.36,.52,.84,.79,1.43,.79,1.46,0,3.86-1.89,7.2-5.67v3.93Zm-24.71,1.81c2.23,0,4.32-1.89,6.25-5.67,1.94-3.78,2.91-7.33,2.91-10.63,0-1.34-.3-2.42-.91-3.21-.6-.8-1.4-1.2-2.38-1.2-2.12,0-4.17,1.98-6.15,5.93-1.98,3.95-2.97,7.53-2.97,10.72,0,1.25,.29,2.25,.87,2.97,.58,.73,1.37,1.09,2.38,1.09Z"/><path class="cls-1" d="M626.82,1838c1.57-.41,3.16-.75,4.75-1.01,1.59-.26,2.55-.39,2.87-.39,.23,0,.34,.09,.34,.27,0,.34-.09,.69-.27,1.06-.37,1.05-.55,2.05-.55,3.01,0,1.18,.69,2.8,2.05,4.86,1.37,2.05,2.05,3.96,2.05,5.71,0,3.49-1.67,6.85-5.01,10.08-3.34,3.24-6.8,4.85-10.37,4.85-1.55,0-2.96-.41-4.24-1.23-1.28-.82-1.91-1.7-1.91-2.63,0-.55,.63-1.58,1.9-3.11,1.26-1.53,2.17-2.29,2.72-2.29,.73,0,1.38,.93,1.95,2.8,.57,1.87,1.55,2.8,2.94,2.8s2.69-.64,3.91-1.93c1.22-1.29,1.83-2.67,1.83-4.15,0-1.44-.77-3.35-2.32-5.74-1.55-2.39-2.58-4.4-3.08-6.02-2.64,4.26-5.99,8.62-10.05,13.09h-.79v-3.08c5.58-5.95,9.34-11.6,11.28-16.95Z"/></g></g></g><g id="_반짝이"><polygon class="cls-7" points="841.78 613.88 854.84 664.56 896.9 674.97 854.84 686.39 841.78 738 828.02 686.39 786.67 674.97 828.02 664.56 841.78 613.88"/><polygon class="cls-7" points="216.78 833 226.45 870.51 257.58 878.22 226.45 886.67 216.78 924.88 206.6 886.67 175.98 878.22 206.6 870.51 216.78 833"/><circle class="cls-8" cx="183.5" cy="820.5" r="7.5"/><circle class="cls-7" cx="208" cy="763" r="5"/><circle class="cls-8" cx="894.5" cy="743.5" r="9.5"/><circle class="cls-7" cx="818" cy="889" r="8"/></g><g id="_소드_8"><path class="cls-4" d="M546.45,539.47c-10.64,7.74-23.72,12.31-37.88,12.31-35.61,0-64.48-28.87-64.48-64.48s28.87-64.48,64.48-64.48c14.16,0,27.24,4.57,37.88,12.31-15.58-20.08-39.95-33.01-67.33-33.01-47.04,0-85.18,38.14-85.18,85.18s38.14,85.18,85.18,85.18c27.39,0,51.75-12.93,67.33-33.01Z"/><g><circle class="cls-4" cx="310.5" cy="673.91" r="11.15"/><g><polygon class="cls-8" points="312.05 1177.34 321.92 1151.9 321.92 769.94 312.05 769.94 312.05 1177.34"/><polygon class="cls-8" points="308.95 1177.34 308.95 769.94 299.08 769.94 299.08 1151.9 308.95 1177.34"/></g><rect class="cls-3" x="264.39" y="757.55" width="92.22" height="19.83" rx="8.89" ry="8.89" transform="translate(621 1534.93) rotate(180)"/><rect class="cls-3" x="297.85" y="677.63" width="25.31" height="92.32" transform="translate(621 1447.57) rotate(180)"/><rect class="cls-3" x="292.89" y="671.43" width="35.22" height="8.67" rx="3.89" ry="3.89" transform="translate(621 1351.53) rotate(-180)"/><polygon class="cls-4" points="310.35 791.01 307.54 774.33 299.96 777.93 303.56 770.35 286.42 767.54 303.56 764.73 299.96 757.15 307.54 760.76 310.35 742.68 313.16 760.76 320.73 757.15 317.13 764.73 334.58 767.54 317.13 770.35 320.73 777.93 313.16 774.33 310.35 791.01"/></g><g><circle class="cls-4" cx="377.16" cy="637.84" r="11.15"/><g><polygon class="cls-8" points="378.71 1141.27 388.57 1115.84 388.57 733.88 378.71 733.88 378.71 1141.27"/><polygon class="cls-8" points="375.61 1141.28 375.61 733.88 365.74 733.88 365.74 1115.84 375.61 1141.28"/></g><rect class="cls-3" x="331.05" y="721.48" width="92.22" height="19.83" rx="8.89" ry="8.89" transform="translate(754.31 1462.79) rotate(180)"/><rect class="cls-3" x="364.5" y="641.56" width="25.31" height="92.32" transform="translate(754.31 1375.44) rotate(180)"/><rect class="cls-3" x="359.55" y="635.36" width="35.22" height="8.67" rx="3.89" ry="3.89" transform="translate(754.31 1279.4) rotate(-180)"/><polygon class="cls-4" points="377 754.94 374.19 738.26 366.62 741.86 370.22 734.29 353.07 731.48 370.22 728.66 366.62 721.09 374.19 724.69 377 706.61 379.81 724.69 387.39 721.09 383.79 728.66 401.24 731.48 383.79 734.29 387.39 741.86 379.81 738.26 377 754.94"/></g><g><circle class="cls-4" cx="431.32" cy="751.61" r="11.15"/><g><polygon class="cls-8" points="432.87 1255.05 442.73 1229.61 442.73 847.65 432.87 847.65 432.87 1255.05"/><polygon class="cls-8" points="429.77 1255.05 429.77 847.65 419.9 847.65 419.9 1229.61 429.77 1255.05"/></g><rect class="cls-3" x="385.21" y="835.26" width="92.22" height="19.83" rx="8.89" ry="8.89" transform="translate(862.63 1690.34) rotate(180)"/><rect class="cls-3" x="418.66" y="755.33" width="25.31" height="92.32" transform="translate(862.63 1602.98) rotate(180)"/><rect class="cls-3" x="413.71" y="749.14" width="35.22" height="8.67" rx="3.89" ry="3.89" transform="translate(862.63 1506.95) rotate(180)"/><polygon class="cls-4" points="431.16 868.71 428.35 852.03 420.78 855.63 424.38 848.06 407.23 845.25 424.38 842.44 420.78 834.86 428.35 838.46 431.16 820.39 433.97 838.46 441.55 834.86 437.95 842.44 455.4 845.25 437.95 848.06 441.55 855.63 433.97 852.03 431.16 868.71"/></g><g><circle class="cls-4" cx="494.39" cy="699.54" r="11.15"/><g><polygon class="cls-8" points="495.94 1202.97 505.81 1177.54 505.81 795.57 495.94 795.57 495.94 1202.97"/><polygon class="cls-8" points="492.85 1202.97 492.85 795.57 482.98 795.57 482.98 1177.54 492.85 1202.97"/></g><rect class="cls-3" x="448.28" y="783.18" width="92.22" height="19.83" rx="8.89" ry="8.89" transform="translate(988.79 1586.19) rotate(180)"/><rect class="cls-3" x="481.74" y="703.26" width="25.31" height="92.32" transform="translate(988.79 1498.83) rotate(180)"/><rect class="cls-3" x="476.78" y="697.06" width="35.22" height="8.67" rx="3.89" ry="3.89" transform="translate(988.79 1402.8) rotate(-180)"/><polygon class="cls-4" points="494.24 816.64 491.43 799.96 483.85 803.56 487.46 795.99 470.31 793.17 487.46 790.36 483.85 782.79 491.43 786.39 494.24 768.31 497.05 786.39 504.63 782.79 501.03 790.36 518.48 793.17 501.03 795.99 504.63 803.56 497.05 799.96 494.24 816.64"/></g><g><circle class="cls-4" cx="559.01" cy="657.59" r="11.15"/><g><polygon class="cls-8" points="560.56 1161.02 570.43 1135.58 570.43 753.62 560.56 753.62 560.56 1161.02"/><polygon class="cls-8" points="557.46 1161.02 557.46 753.62 547.6 753.62 547.6 1135.58 557.46 1161.02"/></g><rect class="cls-3" x="512.9" y="741.23" width="92.22" height="19.83" rx="8.89" ry="8.89" transform="translate(1118.02 1502.28) rotate(180)"/><rect class="cls-3" x="546.36" y="661.3" width="25.31" height="92.32" transform="translate(1118.02 1414.92) rotate(180)"/><rect class="cls-3" x="541.4" y="655.11" width="35.22" height="8.67" rx="3.89" ry="3.89" transform="translate(1118.02 1318.89) rotate(-180)"/><polygon class="cls-4" points="558.86 774.68 556.05 758 548.47 761.61 552.07 754.03 534.93 751.22 552.07 748.41 548.47 740.83 556.05 744.43 558.86 726.36 561.67 744.43 569.24 740.83 565.64 748.41 583.09 751.22 565.64 754.03 569.24 761.61 561.67 758 558.86 774.68"/></g><g><circle class="cls-4" cx="632.59" cy="613.72" r="11.15"/><g><polygon class="cls-8" points="634.14 1117.16 644.01 1091.72 644.01 709.76 634.14 709.76 634.14 1117.16"/><polygon class="cls-8" points="631.04 1117.16 631.04 709.76 621.18 709.76 621.18 1091.72 631.04 1117.16"/></g><rect class="cls-3" x="586.48" y="697.37" width="92.22" height="19.83" rx="8.89" ry="8.89" transform="translate(1265.19 1414.56) rotate(180)"/><rect class="cls-3" x="619.94" y="617.44" width="25.31" height="92.32" transform="translate(1265.19 1327.2) rotate(180)"/><rect class="cls-3" x="614.98" y="611.25" width="35.22" height="8.67" rx="3.89" ry="3.89" transform="translate(1265.19 1231.17) rotate(-180)"/><polygon class="cls-4" points="632.44 730.82 629.63 714.14 622.05 717.74 625.66 710.17 608.51 707.36 625.66 704.55 622.05 696.97 629.63 700.57 632.44 682.5 635.25 700.57 642.83 696.97 639.23 704.55 656.68 707.36 639.23 710.17 642.83 717.74 635.25 714.14 632.44 730.82"/></g><g><circle class="cls-4" cx="679.4" cy="678.37" r="11.15"/><g><polygon class="cls-8" points="680.95 1181.8 690.82 1156.36 690.82 774.4 680.95 774.4 680.95 1181.8"/><polygon class="cls-8" points="677.85 1181.8 677.85 774.4 667.99 774.4 667.99 1156.36 677.85 1181.8"/></g><rect class="cls-3" x="633.29" y="762.01" width="92.22" height="19.83" rx="8.89" ry="8.89" transform="translate(1358.81 1543.84) rotate(180)"/><rect class="cls-3" x="666.75" y="682.08" width="25.31" height="92.32" transform="translate(1358.81 1456.48) rotate(180)"/><rect class="cls-3" x="661.79" y="675.89" width="35.22" height="8.67" rx="3.89" ry="3.89" transform="translate(1358.81 1360.45) rotate(-180)"/><polygon class="cls-4" points="679.25 795.46 676.44 778.78 668.86 782.39 672.46 774.81 655.32 772 672.46 769.19 668.86 761.61 676.44 765.21 679.25 747.14 682.06 765.21 689.64 761.61 686.04 769.19 703.49 772 686.04 774.81 689.64 782.39 682.06 778.78 679.25 795.46"/></g><g><circle class="cls-4" cx="746.27" cy="711.8" r="11.15"/><g><polygon class="cls-8" points="747.82 1215.23 757.69 1189.8 757.69 807.83 747.82 807.83 747.82 1215.23"/><polygon class="cls-8" points="744.72 1215.23 744.72 807.83 734.86 807.83 734.86 1189.8 744.72 1215.23"/></g><rect class="cls-3" x="700.16" y="795.44" width="92.22" height="19.83" rx="8.89" ry="8.89" transform="translate(1492.55 1610.71) rotate(180)"/><rect class="cls-3" x="733.62" y="715.52" width="25.31" height="92.32" transform="translate(1492.55 1523.35) rotate(180)"/><rect class="cls-3" x="728.66" y="709.32" width="35.22" height="8.67" rx="3.89" ry="3.89" transform="translate(1492.55 1427.32) rotate(-180)"/><polygon class="cls-4" points="746.12 828.9 743.31 812.22 735.73 815.82 739.34 808.24 722.19 805.43 739.34 802.62 735.73 795.05 743.31 798.65 746.12 780.57 748.93 798.65 756.51 795.05 752.91 802.62 770.36 805.43 752.91 808.24 756.51 815.82 748.93 812.22 746.12 828.9"/></g><g><path class="cls-3" d="M226.04,1094.9c0-.41,.01-.82,.02-1.24l.06-3.5h53.97c-2.75-4.73-5.74-9.93-8.91-15.55-14.96-26.55-20.32-38.26-33.44-55.73-20.76-27.66-32.46-31.78-37.89-33.24-2.95-.79-19.45-5.22-34.55,2.93-1.94,1.05-20.33,11.33-17.83,27.38,1.43,9.23,9.39,17.87,20.06,20.53,4.03,1.01,7.72,.98,10.61,.66,1.6-.55,8.29-3.21,10.91-10.24,.79-2.11,2.31-7.58-.56-12.78-.63-1.14-2.3-4.18-5.86-5.53-3.29-1.26-6.71,.19-8.81,1.97-1.81,1.53-2.57,3.21-2.4,4.07l-4.37,.89c-.54-2.67,.95-5.87,3.88-8.36,3.07-2.6,8.17-4.68,13.28-2.73,5.08,1.94,7.4,6.16,8.17,7.54,3.77,6.82,1.84,13.81,.83,16.5-2.1,5.62-6.22,9.02-9.46,10.93,5.29,9.39,12.29,26.66,16.09,42.06,8.92,36.18,10.27,35.94,21.18,58.66,6.19,12.91,23.08,34.27,43.77,54.54-25.3-30.19-38.76-64.28-38.76-99.77Z"/><path class="cls-3" d="M283.34,1095.74h-51.73c.26,42.37,20.73,81.69,55.41,114.09,1.78-33.01,3.55-66.02,5.32-99.03-2.35-3.87-5.42-8.96-9.01-15.05Z"/></g><g><path class="cls-3" d="M800.66,1095.74c-3.59,6.09-6.65,11.18-9.01,15.05,1.74,32.35,3.48,64.7,5.22,97.05,33.4-32.02,53.03-70.6,53.29-112.11h-49.5Z"/><path class="cls-3" d="M918.7,988.58c-15.1-8.16-31.6-3.73-34.55-2.93-5.43,1.46-17.14,5.59-37.89,33.24-13.11,17.47-18.47,29.19-33.44,55.73-3.16,5.61-6.15,10.82-8.91,15.55h51.74l.06,3.5c.01,.41,.02,.82,.02,1.24,0,40.9-17.88,79.94-51.16,113.31,27.1-23.66,50.8-52.23,58.41-68.08,10.9-22.72,12.26-22.49,21.18-58.66,3.8-15.4,10.8-32.67,16.09-42.06-3.25-1.91-7.36-5.31-9.46-10.93-1-2.69-2.93-9.68,.83-16.5,.76-1.39,3.09-5.6,8.17-7.54,5.11-1.95,10.21,.13,13.28,2.73,2.94,2.49,4.42,5.69,3.88,8.36l-4.37-.89c.18-.86-.59-2.54-2.4-4.07-2.1-1.78-5.51-3.23-8.81-1.97-3.55,1.36-5.23,4.39-5.86,5.53-2.87,5.2-1.35,10.67-.56,12.78,2.63,7.03,9.32,9.7,10.91,10.24,2.89,.32,6.58,.35,10.61-.66,10.67-2.67,18.63-11.3,20.06-20.53,2.49-16.04-15.89-26.33-17.83-27.38Z"/><path class="cls-3" d="M846.16,1095.19H235.61c0,.64-.04,1.27-.04,1.9,0,110.36,136.69,199.82,305.32,199.82s305.32-89.46,305.32-199.82c0-.64-.03-1.27-.04-1.9Zm-275.61,97.02l-16.89-8.03-6.27,40.3-6.27-40.3-16.89,8.03,8.03-16.89-25.93-6.27,25.93-6.27-8.03-16.89,16.89,8.03,6.27-37.19,6.27,37.19,16.89-8.03-8.03,16.89,28.51,6.27-28.51,6.27,8.03,16.89Z"/></g><path class="cls-5" d="M868.5,1253.85c-.77-8.56,.34-15.96,1.66-21.39-2.72-.2-25.68-1.44-37.14,18.63-1.78,3.12-3.79,7.63-4.99,13.8-8.6-.75-14.64-9.05-14.41-17.25,.16-5.63,3.27-10.87,7.76-13.8-1.87-.56-27.03-7.53-43.24,13.11-6.24,7.94-8.83,17.02-9.98,22.76-9.33-.03-16.87-7.38-18.29-16.56-1.32-8.51,3.13-15.42,3.88-16.56-19.55-4.45-37.29,1.68-44.9,16.56-1.58,3.09-3.24,7.57-3.88,13.8-11.56-.71-19.19-10.59-18.85-19.32,.29-7.39,6.22-12.31,7.21-13.11-21.43,3.32-38.51,18.19-43.54,38.32-2.39-5.47-4.22-11.8-4.87-19.01-.77-8.56,.34-15.96,1.66-21.39-2.72-.2-25.68-1.44-37.14,18.63-1.78,3.12-3.79,7.63-4.99,13.8-8.6-.75-14.64-9.05-14.41-17.25,.16-5.63,3.27-10.87,7.76-13.8-1.87-.56-27.03-7.53-43.24,13.11-6.24,7.94-8.83,17.02-9.98,22.76-9.33-.03-16.87-7.38-18.29-16.56-1.32-8.51,3.13-15.42,3.88-16.56-19.55-4.45-37.29,1.68-44.9,16.56-1.58,3.09-3.24,7.57-3.88,13.8-11.56-.71-19.19-10.59-18.85-19.32,.29-7.39,6.22-12.31,7.21-13.11-19.64,3.04-35.63,15.78-42.04,33.39-1.44-4.25-2.5-8.94-2.96-14.07-.77-8.56,.34-15.96,1.66-21.39-2.72-.2-25.68-1.44-37.14,18.63-1.78,3.12-3.79,7.63-4.99,13.8-8.6-.75-14.64-9.05-14.41-17.25,.16-5.63,3.27-10.87,7.76-13.8-1.87-.56-27.03-7.53-43.24,13.11-6.24,7.94-8.83,17.02-9.98,22.76-9.33-.03-16.87-7.38-18.29-16.56-1.32-8.51,3.13-15.42,3.88-16.56-19.55-4.45-37.29,1.68-44.9,16.56-1.58,3.09-3.24,7.57-3.88,13.8-11.56-.71-19.19-10.59-18.85-19.32,.29-7.39,6.22-12.31,7.21-13.11-21.79,3.38-39.09,18.68-43.79,39.32-1.08,4.75-2.25,13.11-.01,24.14H892.89c-3.08-2.35-21.97-17.25-24.39-44.15Z"/></g></svg>