<?xml version="1.0" encoding="UTF-8"?><svg xmlns="http://www.w3.org/2000/svg" viewBox="0 0 1080 1944"><defs><style>.cls-1{fill:#fff;}.cls-2{stroke:#3f3730;stroke-miterlimit:10;stroke-width:5px;}.cls-2,.cls-3{fill:#3f3730;}.cls-4{fill:#f6ef84;}.cls-5{fill:#4c5fa9;}.cls-6{fill:#bad6eb;}.cls-7{fill:#c8c0de;}.cls-8{fill:#b1d4f0;}</style></defs><g id="_배경_텍스트"><g><rect class="cls-6" y="2" width="1080" height="1944"/><rect class="cls-1" x="74.84" y="188.39" width="930.33" height="1606.64" rx="65.21" ry="65.21"/><path class="cls-2" d="M535.44,1642.05l-23.88-34.32c-.88-1.2-1.74-2.24-2.58-3.12-.84-.88-1.98-1.52-3.42-1.92-.88-.24-1.7-.4-2.46-.48-.76-.08-1.66-.16-2.7-.24-.64,0-1.14-.2-1.5-.6-.36-.4-.54-.84-.54-1.32s.18-.9,.54-1.26c.36-.36,.86-.54,1.5-.54h27.96c.64,0,1.1,.18,1.38,.54,.28,.36,.42,.78,.42,1.26s-.16,.92-.48,1.32c-.32,.4-.8,.6-1.44,.6-.96,.08-1.8,.18-2.52,.3-.72,.12-1.52,.26-2.4,.42-1.44,.32-2.26,.9-2.46,1.74-.2,.84,.02,1.7,.66,2.58l19.08,27.48,18.84-27.48c.8-1.2,.94-2.12,.42-2.76-.52-.64-1.3-1.12-2.34-1.44-1.04-.32-2.18-.54-3.42-.66-1.24-.12-2.22-.18-2.94-.18-.64,0-1.12-.2-1.44-.6-.32-.4-.48-.84-.48-1.32s.16-.9,.48-1.26c.32-.36,.8-.54,1.44-.54h25.68c.64,0,1.12,.18,1.44,.54,.32,.36,.48,.78,.48,1.26s-.16,.92-.48,1.32c-.32,.4-.8,.6-1.44,.6-1.44,.08-2.66,.18-3.66,.3-1,.12-1.9,.26-2.7,.42-1.6,.4-2.8,1.02-3.6,1.86-.8,.84-1.64,1.9-2.52,3.18l-21,30.72,25.32,36.36c.88,1.2,1.74,2.22,2.58,3.06s1.98,1.46,3.42,1.86c.88,.24,1.7,.4,2.46,.48,.76,.08,1.62,.16,2.58,.24,.64,0,1.14,.2,1.5,.6,.36,.4,.54,.84,.54,1.32s-.16,.9-.48,1.26c-.32,.36-.8,.54-1.44,.54h-29.28c-.64,0-1.12-.18-1.44-.54-.32-.36-.48-.78-.48-1.26s.16-.92,.48-1.32c.32-.4,.8-.6,1.44-.6,1.04-.08,2.1-.18,3.18-.3s2.06-.26,2.94-.42c1.44-.32,2.3-.88,2.58-1.68,.28-.8,.1-1.64-.54-2.52l-20.52-29.4-20.04,29.4c-.72,1.12-.88,2-.48,2.64,.4,.64,1.08,1.12,2.04,1.44,.96,.32,2,.54,3.12,.66,1.12,.12,2,.18,2.64,.18s1.12,.2,1.44,.6c.32,.4,.48,.84,.48,1.32s-.14,.9-.42,1.26c-.28,.36-.74,.54-1.38,.54h-25.44c-.64,0-1.14-.18-1.5-.54s-.54-.78-.54-1.26,.18-.92,.54-1.32c.36-.4,.86-.6,1.5-.6,2.8-.16,4.92-.4,6.36-.72,1.52-.4,2.76-.98,3.72-1.74,.96-.76,1.88-1.82,2.76-3.18l22.44-32.76Z"/><g><path class="cls-1" d="M410.88,144.03c-5.1,5.49-9.75,8.24-13.95,8.24-2.55,0-4.5-1.23-5.83-3.69-1.33-2.46-2-5.75-2-9.88,0-3.19,.65-7.58,1.96-13.16,1.31-5.58,3-10.28,5.08-14.08l1.98-3.55c-2.71,2.83-4.93,5.92-6.67,9.28-1.73,3.36-3.8,8.06-6.2,14.1-2.4,6.04-4.22,10.15-5.45,12.34s-2.41,3.97-3.54,5.35c-1.13,1.38-2.13,2.27-3.01,2.68-.88,.41-2.41,.62-4.6,.62-.84,0-1.26-.23-1.26-.68,0-.05,.15-.76,.45-2.15,.3-1.39,.61-3.62,.92-6.68s.54-8.27,.68-15.62,1.21-13.64,3.21-18.88c-2.14,2.44-4.33,8.11-6.57,17.02l-.86,3.35c-2.35,9.27-5.04,15.53-8.08,18.78-3.03,3.25-6.01,4.87-8.93,4.87-1.8,0-3.39-.57-4.76-1.71-1.37-1.14-2.05-2.45-2.05-3.93,0-1.14,.82-2.41,2.46-3.83,1.64-1.41,2.68-2.12,3.11-2.12,.5,0,.83,.17,.99,.51,.16,.34,.37,1.28,.62,2.82s.63,2.54,1.15,3.01c.51,.47,1.16,.7,1.94,.7,1.76,0,3.7-1.76,5.83-5.28s4.07-8.96,5.83-16.32l.99-4.13c.8-3.37,1.59-6.06,2.37-8.07,.78-2.01,1.8-4.01,3.08-6.02,1.85-2.87,2.99-4.4,3.41-4.6,.42-.19,1.21-.35,2.38-.48s2.32-.19,3.49-.19c.46,0,.68,.26,.68,.79,0,.25-.07,.76-.21,1.54-.45,3.19-.66,6.39-.64,9.6l.07,9.16c.04,7.98-.59,14.41-1.91,19.31,1.21-1.46,2.96-5.22,5.26-11.28,3.33-8.59,6.36-15.04,9.09-19.35,1.3-2.07,2.87-4.06,4.7-5.96,1.83-1.9,3.1-2.92,3.81-3.06,2.42-.46,4.45-.68,6.12-.68,.62,0,.92,.17,.92,.51,0,.48-.38,1.55-1.12,3.21-1.77,4.01-3.43,9.44-4.96,16.27s-2.31,12.28-2.32,16.33c0,4.58,1.4,6.87,4.2,6.87,2.28,0,4.99-1.94,8.13-5.81v3.93Z"/><path class="cls-1" d="M427.66,144.03c-5.33,5.61-9.32,8.41-11.96,8.41-1.46,0-2.69-.75-3.69-2.24-1-1.49-1.5-3.37-1.5-5.62,0-4.85,1.64-11.57,4.92-20.17l8.68-1.81h.41l-3.42,10.7c-1.41,4.42-2.12,7.58-2.12,9.47,0,.75,.17,1.36,.5,1.83,.33,.47,.75,.7,1.25,.7,.89,0,1.78-.33,2.68-.97s2.32-2.06,4.26-4.22v3.93Zm-.68-34.79c0,5.47-2.02,8.2-6.05,8.2-1.96,0-3.63-.59-5.02-1.78,1.32-2,2.35-4.26,3.08-6.77,1.8,1.12,3.25,1.68,4.34,1.68,1.23,0,2.45-.45,3.66-1.33Z"/><path class="cls-1" d="M461.22,144.03c-5.26,5.56-9.78,8.34-13.54,8.34-1.53,0-2.76-.54-3.69-1.61-.93-1.07-1.4-2.51-1.4-4.31,0-2.44,1-6.16,3.01-11.18,1.07-2.69,1.61-4.4,1.61-5.13s-.29-1.09-.85-1.09c-.32,0-.74,.16-1.26,.48-.48,.32-1.04,.76-1.67,1.33-.57,.52-1.21,1.16-1.91,1.91-.62,.64-1.28,1.37-1.98,2.19l-1.91,2.22c-.84,1.03-1.37,2.11-1.57,3.25-.34,1.94-.57,3.71-.68,5.33-.07,1.21-.1,2.84-.1,4.89l-7.55,1.78c-.25-3.08-.38-5.37-.38-6.87,0-3.67,.43-7.14,1.28-10.43,.86-3.28,2.23-6.97,4.12-11.07l8.34-1.61c-1.75,4.72-2.91,8.43-3.45,11.14,3.73-4.17,6.7-7.06,8.89-8.67,2.19-1.61,4.15-2.41,5.85-2.41,1.16,0,2.13,.44,2.9,1.31,.77,.88,1.16,1.97,1.16,3.29,0,2.18-.98,5.78-2.94,10.8-1.34,3.44-2.02,5.68-2.02,6.7,0,1.37,.56,2.06,1.68,2.06,1.67,0,4.36-2.2,8.09-6.6v3.93Z"/><path class="cls-1" d="M491.88,144.03c-1.16,1.03-2.29,1.75-3.38,2.17-1.09,.42-1.96,.63-2.6,.63-1.64,0-3.27-.64-4.89-1.91-3.28,4.97-7.04,7.45-11.28,7.45-2.64,0-4.79-.99-6.43-2.97s-2.46-4.62-2.46-7.9c0-5.2,1.85-9.66,5.54-13.38s8.1-5.59,13.23-5.59c1.94,0,3.35,.21,4.25,.63,.9,.42,1.45,.92,1.66,1.49,.21,.57,.31,1.29,.31,2.15,0,4.26-1.16,9.49-3.49,15.69,1.16,1.07,2.38,1.61,3.66,1.61,1.53,0,3.49-1.33,5.88-4v3.93Zm-11.28-19.11c-.34-.14-.83-.21-1.47-.21-2.96,0-5.28,1.55-6.96,4.65-1.67,3.1-2.51,6.72-2.51,10.87,0,2.3,.36,4.09,1.09,5.37,.73,1.28,1.74,1.91,3.04,1.91,1.62,0,3.37-1.49,5.26-4.48-2.14-2.69-3.21-5.58-3.21-8.68,0-3.65,1.58-6.79,4.75-9.43Z"/><path class="cls-1" d="M517.42,144.03c-5.72,5.61-10.13,8.41-13.23,8.41-1.39,0-2.56-.59-3.52-1.76s-1.44-2.63-1.44-4.36c0-3.21,1.72-7.52,5.16-12.92-1.69,.87-3.53,1.47-5.54,1.81-1.48,2.73-3.81,5.67-6.97,8.82h-.79v-3.08c1.78-1.85,3.38-3.83,4.82-5.95-1.96-.87-2.94-2.15-2.94-3.86s.6-3.63,1.79-5.62c1.2-1.99,2.84-2.99,4.94-2.99,1.78,0,2.67,.91,2.67,2.73,0,1.44-.51,3.49-1.54,6.15,3.78-.41,7.09-3.3,9.91-8.68l3.11-.14-3.18,8.75c-1.32,3.69-2.18,6.2-2.56,7.54-.39,1.33-.58,2.51-.58,3.54,0,.96,.22,1.72,.67,2.29,.44,.57,1.04,.86,1.79,.86,.82,0,1.61-.28,2.36-.84s2.44-2.1,5.06-4.63v3.93Z"/><path class="cls-1" d="M582.32,144.06c-5.24,5.58-10.05,8.37-14.42,8.37-2.42,0-4.33-.85-5.74-2.56-1.41-1.71-2.2-4.15-2.36-7.31-2.76,3.35-5.2,5.83-7.33,7.45-2.13,1.62-4.4,2.43-6.82,2.43-3.1,0-5.59-1.34-7.47-4.02-1.88-2.68-2.82-6.25-2.82-10.71,0-5.33,1.23-10.83,3.69-16.49s6.11-10.13,10.94-13.42c4.83-3.28,10.69-4.92,17.57-4.92,5.15,0,9.81,.7,13.98,2.09v2.26c-3.4,3.96-6.24,9.51-8.53,16.64-2.29,7.13-3.44,12.57-3.44,16.3,0,1.82,.37,3.24,1.11,4.24,.74,1,1.77,1.5,3.09,1.5,2.37,0,5.22-1.93,8.54-5.78v3.93Zm-9.95-36.85c-2.1-1.14-4.35-1.71-6.77-1.71-3.81,0-7.24,1.59-10.29,4.77-3.05,3.18-5.46,7.39-7.23,12.63-1.77,5.24-2.65,9.79-2.65,13.64,0,2.57,.5,4.67,1.49,6.27,.99,1.61,2.26,2.41,3.81,2.41,2.69,0,5.78-2.45,9.26-7.35,1.44-12.85,5.56-23.07,12.37-30.66Z"/><path class="cls-1" d="M607.85,144.03c-5.72,5.61-10.13,8.41-13.23,8.41-1.39,0-2.56-.59-3.52-1.76s-1.44-2.63-1.44-4.36c0-3.21,1.72-7.52,5.16-12.92-1.69,.87-3.53,1.47-5.54,1.81-1.48,2.73-3.81,5.67-6.97,8.82h-.79v-3.08c1.78-1.85,3.38-3.83,4.82-5.95-1.96-.87-2.94-2.15-2.94-3.86s.6-3.63,1.79-5.62c1.2-1.99,2.84-2.99,4.94-2.99,1.78,0,2.67,.91,2.67,2.73,0,1.44-.51,3.49-1.54,6.15,3.78-.41,7.09-3.3,9.91-8.68l3.11-.14-3.18,8.75c-1.32,3.69-2.18,6.2-2.56,7.54-.39,1.33-.58,2.51-.58,3.54,0,.96,.22,1.72,.67,2.29,.44,.57,1.04,.86,1.79,.86,.82,0,1.61-.28,2.36-.84s2.44-2.1,5.06-4.63v3.93Z"/><path class="cls-1" d="M633.42,144.03c-2.92,2.87-5.59,4.98-8.02,6.32-2.43,1.34-4.96,2.02-7.6,2.02-2.96,0-5.41-.96-7.33-2.89-1.93-1.92-2.89-4.37-2.89-7.33,0-4.85,1.77-9.34,5.31-13.45,3.54-4.11,7.38-6.17,11.5-6.17,2.03,0,3.68,.56,4.96,1.69,1.28,1.13,1.91,2.59,1.91,4.39,0,.64-.12,1.12-.36,1.44-.24,.32-.69,.64-1.35,.96l-3.96,1.88c-.48,.23-.83,.34-1.06,.34-.32,0-.48-.23-.48-.68,0-.18,.07-.78,.21-1.79,.14-1.01,.21-1.63,.21-1.86,0-1-.21-1.81-.63-2.43s-.99-.92-1.69-.92c-1.66,0-3.18,1.23-4.56,3.69-1.38,2.46-2.07,5.26-2.07,8.41,0,2.71,.65,4.88,1.95,6.49,1.3,1.62,3.03,2.43,5.2,2.43,1.85,0,3.58-.53,5.21-1.59s3.48-2.68,5.55-4.87v3.93Z"/><path class="cls-1" d="M669.92,144.03c-3.65,3.46-6.25,5.72-7.83,6.77-1.57,1.05-3.08,1.57-4.51,1.57-3.6,0-5.3-3.18-5.09-9.54-2.28,3.26-4.38,5.66-6.31,7.21-1.93,1.55-3.91,2.32-5.96,2.32s-3.71-.94-5.11-2.82c-1.4-1.88-2.1-4.19-2.1-6.92,0-3.42,.94-6.68,2.82-9.78,1.88-3.1,4.29-5.61,7.23-7.52s5.54-2.87,7.79-2.87c2.85,0,4.84,1.31,5.98,3.93l6.99-3.86h1.92l-3.01,10.01c-1.55,5.04-2.33,8.49-2.33,10.36,0,1.96,.69,2.94,2.08,2.94,.89,0,1.87-.47,2.94-1.42,1.07-.95,2.57-2.39,4.51-4.32v3.93Zm-25.02,1.88c2.28,0,4.43-1.94,6.44-5.83,2.02-3.88,3.02-7.47,3.02-10.75,0-1.28-.29-2.27-.85-2.99-.57-.72-1.33-1.08-2.29-1.08-2.28,0-4.44,1.94-6.48,5.81-2.04,3.87-3.06,7.44-3.06,10.7,0,1.23,.3,2.23,.91,2.99,.6,.76,1.37,1.15,2.31,1.15Z"/><path class="cls-1" d="M703.46,144.03c-5.26,5.56-9.78,8.34-13.54,8.34-1.53,0-2.76-.54-3.69-1.61-.93-1.07-1.4-2.51-1.4-4.31,0-2.44,1-6.16,3.01-11.18,1.07-2.69,1.61-4.4,1.61-5.13s-.29-1.09-.85-1.09c-.32,0-.74,.16-1.26,.48-.48,.32-1.04,.76-1.67,1.33-.57,.52-1.21,1.16-1.91,1.91-.62,.64-1.28,1.37-1.98,2.19l-1.91,2.22c-.84,1.03-1.37,2.11-1.57,3.25-.34,1.94-.57,3.71-.68,5.33-.07,1.21-.1,2.84-.1,4.89l-7.55,1.78c-.25-3.08-.38-5.37-.38-6.87,0-3.67,.43-7.14,1.28-10.43,.86-3.28,2.23-6.97,4.12-11.07l8.34-1.61c-1.75,4.72-2.91,8.43-3.45,11.14,3.73-4.17,6.7-7.06,8.89-8.67,2.19-1.61,4.15-2.41,5.85-2.41,1.16,0,2.13,.44,2.9,1.31,.77,.88,1.16,1.97,1.16,3.29,0,2.18-.98,5.78-2.94,10.8-1.34,3.44-2.02,5.68-2.02,6.7,0,1.37,.56,2.06,1.68,2.06,1.67,0,4.36-2.2,8.09-6.6v3.93Z"/><path class="cls-1" d="M739.92,144.03c-3.65,3.46-6.25,5.72-7.83,6.77-1.57,1.05-3.08,1.57-4.51,1.57-3.6,0-5.3-3.18-5.09-9.54-2.28,3.26-4.38,5.66-6.31,7.21-1.93,1.55-3.91,2.32-5.96,2.32s-3.71-.94-5.11-2.82c-1.4-1.88-2.1-4.19-2.1-6.92,0-3.42,.94-6.68,2.82-9.78,1.88-3.1,4.29-5.61,7.23-7.52s5.54-2.87,7.79-2.87c2.85,0,4.84,1.31,5.98,3.93l6.99-3.86h1.92l-3.01,10.01c-1.55,5.04-2.33,8.49-2.33,10.36,0,1.96,.69,2.94,2.08,2.94,.89,0,1.87-.47,2.94-1.42,1.07-.95,2.57-2.39,4.51-4.32v3.93Zm-25.02,1.88c2.28,0,4.43-1.94,6.44-5.83,2.02-3.88,3.02-7.47,3.02-10.75,0-1.28-.29-2.27-.85-2.99-.57-.72-1.33-1.08-2.29-1.08-2.28,0-4.44,1.94-6.48,5.81-2.04,3.87-3.06,7.44-3.06,10.7,0,1.23,.3,2.23,.91,2.99,.6,.76,1.37,1.15,2.31,1.15Z"/></g><g><path class="cls-1" d="M472.53,1823.03c0,.89-1.47,3.08-4.41,6.56h-.62c-.46-.18-.74-.85-.85-2.02-.25-2.35-1.06-4.27-2.43-5.76-1.37-1.49-3.01-2.24-4.92-2.24-1.8,0-3.35,.65-4.65,1.96s-1.95,2.87-1.95,4.7c0,1.32,.41,2.74,1.24,4.25,.82,1.51,2.96,3.91,6.41,7.2,3.45,3.29,5.66,5.9,6.64,7.85,.98,1.95,1.47,3.8,1.47,5.55,0,4.06-1.76,7.63-5.28,10.71-3.52,3.09-7.64,4.63-12.36,4.63-3.9,0-7.11-.91-9.64-2.72-2.53-1.81-3.79-3.29-3.79-4.43,0-.64,.69-2.12,2.08-4.44,1.39-2.32,2.19-3.49,2.39-3.49,.73,0,1.25,.21,1.55,.63,.31,.42,.52,1.2,.63,2.34,.34,3.55,1.2,6,2.58,7.35,1.38,1.34,3.17,2.02,5.38,2.02,2.42,0,4.52-.84,6.32-2.51,1.8-1.67,2.7-3.61,2.7-5.82,0-1.14-.35-2.35-1.05-3.64-.7-1.29-2.67-3.47-5.91-6.57s-5.37-5.71-6.37-7.85c-1-2.14-1.5-4.23-1.5-6.25,0-3.53,1.33-6.78,4-9.74s6.21-4.44,10.63-4.44c3.35,0,6.14,.77,8.36,2.31,2.22,1.54,3.33,2.82,3.33,3.84Z"/><path class="cls-1" d="M523.63,1858.03c-1.09,.91-2.19,1.56-3.28,1.95-1.09,.39-1.94,.58-2.53,.58-1.66,0-3.29-.64-4.89-1.91-4.15,5.15-8.42,7.72-12.82,7.72-3.24,0-5.55-1.78-6.94-5.33-3.05,3.55-6.35,5.33-9.88,5.33-2.3,0-4.11-.76-5.43-2.27-1.32-1.52-1.98-3.61-1.98-6.27,0-2.87,.4-5.79,1.21-8.75s2.04-6.58,3.71-10.87l9.01-1.67-2.53,7.62c-2.14,6.61-3.21,11.16-3.2,13.67,0,1.19,.28,2.16,.85,2.91,.57,.75,1.29,1.13,2.15,1.13,1.82,0,3.65-1.41,5.47-4.24,0-3.58,.65-7.29,1.95-11.14l2.8-8.27,9.15-1.67-3.83,11.82c-1.23,3.8-1.85,6.81-1.85,9.02,0,1.35,.3,2.42,.89,3.21,.59,.8,1.38,1.2,2.36,1.2,1.21,0,2.35-.44,3.42-1.33,1.07-.89,2.28-2.23,3.63-4.03-1.21-2.21-1.81-4.5-1.81-6.87,0-3.42,.85-6.44,2.56-9.08,1.71-2.63,3.63-3.95,5.78-3.95,1.48,0,2.22,1.12,2.22,3.35,0,4.81-1.86,10.25-5.57,16.34,1.14,1.07,2.35,1.61,3.62,1.61,1.53,0,3.44-1.24,5.74-3.73v3.93Z"/><path class="cls-1" d="M554.29,1858.03c-1.16,1.03-2.29,1.75-3.38,2.17s-1.96,.63-2.6,.63c-1.64,0-3.27-.64-4.89-1.91-3.28,4.97-7.04,7.45-11.28,7.45-2.64,0-4.79-.99-6.43-2.97s-2.46-4.61-2.46-7.9c0-5.2,1.85-9.66,5.54-13.38,3.69-3.72,8.1-5.59,13.23-5.59,1.94,0,3.35,.21,4.25,.63s1.45,.92,1.66,1.49c.21,.57,.31,1.29,.31,2.15,0,4.26-1.16,9.49-3.49,15.69,1.16,1.07,2.38,1.61,3.66,1.61,1.53,0,3.49-1.33,5.88-4v3.93Zm-11.28-19.11c-.34-.14-.83-.21-1.47-.21-2.96,0-5.28,1.55-6.96,4.65-1.67,3.1-2.51,6.72-2.51,10.87,0,2.3,.36,4.09,1.09,5.37,.73,1.28,1.74,1.91,3.04,1.91,1.62,0,3.37-1.49,5.26-4.48-2.14-2.69-3.21-5.58-3.21-8.68,0-3.65,1.58-6.79,4.75-9.43Z"/><path class="cls-1" d="M579.82,1858.03c-5.72,5.61-10.13,8.41-13.23,8.41-1.39,0-2.56-.59-3.52-1.76-.96-1.17-1.44-2.62-1.44-4.36,0-3.21,1.72-7.52,5.16-12.92-1.69,.87-3.53,1.47-5.54,1.81-1.48,2.73-3.81,5.67-6.97,8.82h-.79v-3.08c1.78-1.85,3.38-3.83,4.82-5.95-1.96-.87-2.94-2.15-2.94-3.86s.6-3.63,1.79-5.62c1.2-1.99,2.84-2.99,4.94-2.99,1.78,0,2.67,.91,2.67,2.73,0,1.44-.51,3.49-1.54,6.15,3.78-.41,7.09-3.3,9.91-8.68l3.11-.14-3.18,8.75c-1.32,3.69-2.18,6.2-2.56,7.54-.39,1.33-.58,2.51-.58,3.54,0,.96,.22,1.72,.67,2.29,.44,.57,1.04,.85,1.79,.85,.82,0,1.61-.28,2.36-.84,.75-.56,2.44-2.1,5.06-4.63v3.93Z"/><path class="cls-1" d="M616.32,1858.03c-3.28,3.26-5.78,5.46-7.5,6.61-1.72,1.15-3.24,1.73-4.56,1.73-1.62,0-2.9-.79-3.84-2.36-.95-1.57-1.43-3.87-1.45-6.9-1.87,3.03-3.9,5.33-6.1,6.9s-4.19,2.36-5.96,2.36c-1.94,0-3.65-.92-5.13-2.75-1.48-1.83-2.22-3.98-2.22-6.44,0-5.08,1.85-9.79,5.55-14.13,3.7-4.34,7.68-6.51,11.95-6.51,1.18,0,2.11,.17,2.79,.51s1.41,.92,2.21,1.74l4.89-20.44c3.99-.93,6.68-1.4,8.07-1.4,.46,0,.68,.18,.68,.55,0,.25-.57,2.61-1.71,7.08-4.55,17.87-6.83,28.64-6.83,32.33,0,.87,.18,1.56,.55,2.08,.36,.52,.84,.79,1.43,.79,1.46,0,3.86-1.89,7.2-5.67v3.93Zm-24.71,1.81c2.23,0,4.32-1.89,6.25-5.67,1.94-3.78,2.91-7.33,2.91-10.63,0-1.34-.3-2.42-.91-3.21-.6-.8-1.4-1.2-2.38-1.2-2.12,0-4.17,1.98-6.15,5.93-1.98,3.95-2.97,7.53-2.97,10.72,0,1.25,.29,2.25,.87,2.97,.58,.73,1.37,1.09,2.38,1.09Z"/><path class="cls-1" d="M626.82,1838c1.57-.41,3.16-.75,4.75-1.01,1.59-.26,2.55-.39,2.87-.39,.23,0,.34,.09,.34,.27,0,.34-.09,.69-.27,1.06-.37,1.05-.55,2.05-.55,3.01,0,1.18,.69,2.8,2.05,4.86,1.37,2.05,2.05,3.96,2.05,5.71,0,3.49-1.67,6.85-5.01,10.08-3.34,3.24-6.8,4.85-10.37,4.85-1.55,0-2.96-.41-4.24-1.23-1.28-.82-1.91-1.7-1.91-2.63,0-.55,.63-1.58,1.9-3.11,1.26-1.53,2.17-2.29,2.72-2.29,.73,0,1.38,.93,1.95,2.8,.57,1.87,1.55,2.8,2.94,2.8s2.69-.64,3.91-1.93c1.22-1.29,1.83-2.67,1.83-4.15,0-1.44-.77-3.35-2.32-5.74-1.55-2.39-2.58-4.4-3.08-6.02-2.64,4.26-5.99,8.62-10.05,13.09h-.79v-3.08c5.58-5.95,9.34-11.6,11.28-16.95Z"/></g></g></g><g id="_반짝이"><polygon class="cls-7" points="216.78 534.88 226.26 571.67 256.8 579.23 226.26 587.52 216.78 625 206.79 587.52 176.76 579.23 206.79 571.67 216.78 534.88"/><polygon class="cls-7" points="815.78 1030.88 829.26 1083.19 872.67 1093.93 829.26 1105.72 815.78 1159 801.58 1105.72 758.89 1093.93 801.58 1083.19 815.78 1030.88"/><circle class="cls-8" cx="270.5" cy="524.5" r="10.5"/><circle class="cls-7" cx="392.5" cy="536.5" r="6.5"/><circle class="cls-8" cx="869" cy="1018" r="11"/><circle class="cls-7" cx="833" cy="928" r="8"/><circle class="cls-7" cx="250" cy="1018" r="11"/><circle class="cls-8" cx="296.5" cy="1062.5" r="8.5"/></g><g id="_소드_10"><path class="cls-5" d="M351,1315c-3.14,7.87-6.48,13.89-9,18-7.5,12.24-12.46,15.24-15,25-1.06,4.06-2.69,10.33,0,17,3.76,9.35,14.22,15.09,24,15,2.18-.02,9.85-.21,16-6,7.14-6.73,7.13-16.23,7-19-.45-9.33-5.76-12.93-13-26-2.94-5.31-6.82-13.31-10-24Z"/><g><circle class="cls-4" cx="548.05" cy="538.59" r="12.33"/><g><polygon class="cls-8" points="542.67 1183.39 553.94 1149.88 559.5 644.88 548.6 644.76 542.67 1183.39"/><polygon class="cls-8" points="539.24 1183.35 545.17 644.72 534.27 644.6 528.71 1149.6 539.24 1183.35"/></g><rect class="cls-3" x="495.94" y="631.04" width="101.94" height="21.92" rx="10.96" ry="10.96" transform="translate(1086.73 1289.98) rotate(-179.37)"/><rect class="cls-3" x="533.46" y="542.7" width="27.98" height="102.05" transform="translate(1088.33 1193.43) rotate(-179.37)"/><rect class="cls-3" x="528.56" y="535.85" width="38.94" height="9.59" rx="4.79" ry="4.79" transform="translate(1090.08 1087.29) rotate(-179.37)"/></g><g><circle class="cls-4" cx="620.61" cy="583.49" r="12.33"/><g><polygon class="cls-8" points="573.3 1226.57 586.74 1193.86 625.13 690.29 614.25 689.46 573.3 1226.57"/><polygon class="cls-8" points="569.89 1226.31 610.84 689.2 599.96 688.37 561.57 1191.95 569.89 1226.31"/></g><rect class="cls-3" x="561.78" y="675.64" width="101.94" height="21.92" rx="10.96" ry="10.96" transform="translate(1171.54 1417.8) rotate(-175.64)"/><rect class="cls-3" x="602.43" y="587.44" width="27.98" height="102.05" transform="translate(1182.53 1321.93) rotate(-175.64)"/><rect class="cls-3" x="600.99" y="580.74" width="38.94" height="9.59" rx="4.79" ry="4.79" transform="translate(1194.61 1216.54) rotate(-175.64)"/></g><g><circle class="cls-4" cx="480.31" cy="565.16" r="12.33"/><g><polygon class="cls-8" points="521.3 1208.68 530.14 1174.44 499.37 670.35 488.48 671.01 521.3 1208.68"/><polygon class="cls-8" points="517.88 1208.89 485.06 671.22 474.18 671.89 504.95 1175.98 517.88 1208.89"/></g><rect class="cls-3" x="435.63" y="657.42" width="101.94" height="21.92" rx="10.96" ry="10.96" transform="translate(1013.03 1305.87) rotate(176.51)"/><rect class="cls-3" x="469.68" y="569.16" width="27.98" height="102.05" transform="translate(1004.22 1209.76) rotate(176.51)"/><rect class="cls-3" x="460.96" y="562.41" width="38.94" height="9.59" rx="4.79" ry="4.79" transform="translate(994.53 1104.09) rotate(176.51)"/></g><g><circle class="cls-4" cx="411.68" cy="609.1" r="12.33"/><g><polygon class="cls-8" points="533.45 1242.32 537.9 1207.25 443.85 711.05 433.13 713.08 533.45 1242.32"/><polygon class="cls-8" points="530.08 1242.96 429.77 713.72 419.05 715.75 513.1 1211.95 530.08 1242.96"/></g><rect class="cls-3" x="379.97" y="699.75" width="101.94" height="21.92" rx="10.96" ry="10.96" transform="translate(986.69 1328.73) rotate(169.27)"/><rect class="cls-3" x="407.96" y="612.25" width="27.98" height="102.05" transform="translate(960.03 1236.36) rotate(169.27)"/><rect class="cls-3" x="392.59" y="606.33" width="38.94" height="9.59" rx="4.79" ry="4.79" transform="translate(930.72 1134.81) rotate(169.27)"/></g><g><circle class="cls-4" cx="321.98" cy="581.23" r="12.33"/><g><polygon class="cls-8" points="504.26 1199.76 505.31 1164.41 363.83 679.6 353.36 682.66 504.26 1199.76"/><polygon class="cls-8" points="500.97 1200.72 350.08 683.62 339.61 686.67 481.08 1171.48 500.97 1200.72"/></g><rect class="cls-3" x="299.98" y="669.55" width="101.94" height="21.92" rx="10.96" ry="10.96" transform="translate(878.49 1235.46) rotate(163.73)"/><rect class="cls-3" x="323.44" y="583.13" width="27.98" height="102.05" transform="translate(838.99 1148.4) rotate(163.73)"/><rect class="cls-3" x="303.09" y="578.41" width="38.94" height="9.59" rx="4.79" ry="4.79" transform="translate(795.58 1052.7) rotate(163.73)"/></g><g><circle class="cls-4" cx="275.38" cy="630.29" r="12.33"/><g><polygon class="cls-8" points="495.56 1236.36 494.42 1201.02 323.23 725.89 312.97 729.58 495.56 1236.36"/><polygon class="cls-8" points="492.34 1237.52 309.75 730.74 299.49 734.44 470.68 1209.57 492.34 1237.52"/></g><rect class="cls-3" x="259.46" y="716.63" width="101.94" height="21.92" rx="10.96" ry="10.96" transform="translate(849.11 1306.87) rotate(160.19)"/><rect class="cls-3" x="280.08" y="631.14" width="27.98" height="102.05" transform="translate(801.95 1224.26) rotate(160.19)"/><rect class="cls-3" x="256.61" y="627.43" width="38.94" height="9.59" rx="4.79" ry="4.79" transform="translate(750.11 1133.44) rotate(160.19)"/></g><g><circle class="cls-4" cx="217.98" cy="702.56" r="12.33"/><g><polygon class="cls-8" points="502.11 1281.41 497.17 1246.39 275.84 792.45 266.04 797.23 502.11 1281.41"/><polygon class="cls-8" points="499.03 1282.91 262.96 798.73 253.16 803.51 474.49 1257.45 499.03 1282.91"/></g><rect class="cls-3" x="212.33" y="784.56" width="101.94" height="21.92" rx="10.96" ry="10.96" transform="translate(848.6 1395.17) rotate(154.01)"/><rect class="cls-3" x="228.15" y="701.09" width="27.98" height="102.05" transform="translate(789.4 1322.03) rotate(154.01)"/><rect class="cls-3" x="199.41" y="699.61" width="38.94" height="9.59" rx="4.79" ry="4.79" transform="translate(724.32 1241.64) rotate(154.01)"/></g><g><circle class="cls-4" cx="710.79" cy="557.75" r="12.33"/><g><polygon class="cls-8" points="585.61 1190.31 602.92 1159.48 702.28 664.31 691.59 662.17 585.61 1190.31"/><polygon class="cls-8" points="582.25 1189.63 688.23 661.5 677.53 659.35 578.18 1154.51 582.25 1189.63"/></g><rect class="cls-3" x="639.47" y="648.19" width="101.94" height="21.92" rx="10.96" ry="10.96" transform="translate(1237.72 1441.25) rotate(-168.65)"/><rect class="cls-3" x="685.96" y="560.78" width="27.98" height="102.05" transform="translate(1265.84 1349.36) rotate(-168.65)"/><rect class="cls-3" x="690.92" y="554.97" width="38.94" height="9.59" rx="4.79" ry="4.79" transform="translate(1296.76 1248.35) rotate(-168.65)"/></g><g><circle class="cls-4" cx="764.38" cy="609.22" r="12.33"/><g><polygon class="cls-8" points="619.54 1237.57 637.8 1207.29 752.55 715.47 741.92 712.99 619.54 1237.57"/><polygon class="cls-8" points="616.2 1236.79 738.59 712.21 727.97 709.73 613.22 1201.56 616.2 1236.79"/></g><rect class="cls-3" x="689.91" y="698.98" width="101.94" height="21.92" rx="10.96" ry="10.96" transform="translate(1301.09 1569.63) rotate(-166.87)"/><rect class="cls-3" x="737.86" y="611.89" width="27.98" height="102.05" transform="translate(1333.42 1479.31) rotate(-166.87)"/><rect class="cls-3" x="744.44" y="606.43" width="38.94" height="9.59" rx="4.79" ry="4.79" transform="translate(1368.97 1380.02) rotate(-166.87)"/></g><g><circle class="cls-4" cx="849.96" cy="675.21" r="12.33"/><g><polygon class="cls-8" points="589.65 1265.15 613.27 1238.85 818.38 777.34 808.41 772.91 589.65 1265.15"/><polygon class="cls-8" points="586.52 1263.76 805.28 771.52 795.31 767.09 590.21 1228.6 586.52 1263.76"/></g><rect class="cls-3" x="756.99" y="758.75" width="101.94" height="21.92" rx="10.96" ry="10.96" transform="translate(1233.69 1801.21) rotate(-156.04)"/><rect class="cls-3" x="813.58" y="674.56" width="27.98" height="102.05" transform="translate(1289.14 1724.73) rotate(-156.04)"/><rect class="cls-3" x="829.66" y="672.29" width="38.94" height="9.59" rx="4.79" ry="4.79" transform="translate(1350.09 1640.66) rotate(-156.04)"/></g><path class="cls-5" d="M266,1228.45c-.78-1.58-4.7-9.49-2-16.16,5.42-13.39,33.83-12.58,72-13.13,27.35-.39,54.66-2.08,82-3.03,62.21-2.15,68.11-5.72,119-6.06,23.53-.16,42.73-.24,69,2.02,45.58,3.92,42.95,8.91,83,12.12,43.13,3.46,59.59-1.25,80,13.13,3.45,2.43,22.93,16.15,21,31.31-1.82,14.28-22.25,26.62-25,28.28-7.58,4.58-12.06,5.16-16,11.11-4.84,7.3-1.95,12.24-7,18.18-4.31,5.06-12.11,8.16-19,7.07-10.17-1.61-11.17-11.2-22-14.14-8.01-2.17-15.24,.97-20,3.03-12.14,5.26-18.56,14.43-28,28.28-27.68,40.6-29.81,44.25-37,48.48-10.23,6-28.59,11.92-40,4.04-11.66-8.05-4.53-22.53-16-49.49-4.54-10.67-14.98-35.21-34-39.39-11.85-2.6-15.05,5.33-36,4.04-8.32-.51-18.63-1.28-28-8.08-8.54-6.2-6.26-10.14-16-18.18-10.02-8.27-20.91-11.1-27-12.12-1.84-.31-9.31-1.46-19,0-6.34,.96-18.75,.51-24,11.11-6,12.12-10.77,15.29-18,17.17-9.27,2.41-19.48-8.48-21-10.1-11.37-12.12-6.51-19.79-16-26.26-7.21-4.91-10.86-2.35-27-6.06-7.1-1.63-22.01-5.06-28-17.17Z"/><polygon class="cls-4" points="533.5 1094.5 553.21 1155.02 592.5 1135.4 576.08 1171.93 737 1190.25 576.08 1208.57 593 1245.56 553.21 1228.48 533.5 1286 513.79 1228.48 476.5 1243.24 489.92 1208.57 343 1190.25 489.92 1171.93 477 1137.73 513.79 1155.02 533.5 1094.5"/></g></svg>