<?xml version="1.0" encoding="UTF-8"?><svg xmlns="http://www.w3.org/2000/svg" viewBox="0 0 1080 1944"><defs><style>.cls-1{fill:#fff;}.cls-2{fill:#f6ef84;}.cls-3{fill:#3f3730;}.cls-4{fill:#4c5fa9;}.cls-5{fill:#bad6eb;}.cls-6{fill:#c8c0de;}.cls-7{fill:#b1d4f0;}</style></defs><g id="_배경_텍스트"><g><rect class="cls-5" y="2" width="1080" height="1944"/><rect class="cls-1" x="74.84" y="188.39" width="930.33" height="1606.64" rx="65.21" ry="65.21"/><g><path class="cls-3" d="M244.27,1666.36c-4.41,4.5-8.11,7.81-11.11,9.95-2.99,2.14-5.67,3.21-8.04,3.21s-4.24-.73-5.94-2.2-3.74-3.67-6.1-6.61c-7.3,5.87-13.91,8.81-19.85,8.81-5.19,0-9.44-2.13-12.74-6.39-3.31-4.26-4.96-9.76-4.96-16.49,0-7.2,1.41-14.43,4.23-21.7,2.82-7.27,6.4-13.69,10.74-19.25,4.34-5.57,7.91-9.28,10.7-11.15,2.79-1.86,7.05-2.79,12.78-2.79l.11,.75c-8.16,7.66-14.09,15.95-17.78,24.87s-5.53,17.46-5.53,25.62c0,5.3,1.04,9.44,3.12,12.43,2.08,2.99,4.93,4.48,8.54,4.48,2.4,0,5.14-.95,8.22-2.85-1.79-2.54-3.23-4.22-4.3-5.05-1.08-.82-2.35-1.24-3.82-1.24-.11,0-.46,.06-1.05,.19-.59,.13-.94,.19-1.05,.19-.5,0-.75-.23-.75-.7,0-.93,1.06-2.3,3.2-4.11,2.13-1.81,4.29-2.71,6.48-2.71,1.68,0,3.22,.47,4.6,1.4,1.38,.93,3,2.35,4.87,4.24,11.44-14.57,17.17-28.77,17.17-42.59,0-3.12-.51-5.59-1.53-7.44-1.02-1.84-2.37-2.77-4.04-2.77-3.11,0-5.99,2.35-8.65,7.04-2.66,4.69-3.99,8.83-3.99,12.41,0,2.69,1.21,4.19,3.62,4.51,1.03,.11,1.54,.56,1.54,1.34,0,1.61-.81,3.17-2.44,4.67s-3.32,2.26-5.08,2.26c-2.15,0-3.95-.96-5.4-2.87-1.45-1.92-2.17-4.34-2.17-7.28,0-6.19,2.34-12.21,7.01-18.05,4.67-5.84,9.41-8.75,14.21-8.75,3.4,0,6.07,1.33,8,4,1.93,2.67,2.9,6.35,2.9,11.04,0,14.72-6.24,30.01-18.72,45.87,3.37,4.98,6.49,7.47,9.36,7.47,3.59,0,8.14-3.31,13.66-9.94v6.18Z"/><path class="cls-3" d="M301.58,1666.42c-4.73,4.48-8.68,7.78-11.87,9.91-3.19,2.13-6.05,3.2-8.59,3.2-2.83,0-5-1.13-6.53-3.38-1.52-2.26-2.28-5.32-2.28-9.18-3.94,4.33-7.47,7.53-10.58,9.59-3.12,2.06-6.16,3.09-9.13,3.09-2.72,0-4.91-1.13-6.55-3.38s-2.47-5.32-2.47-9.18c0-7.45,2.51-17.94,7.52-31.47l14.35-2.86c-5.9,17.17-8.85,28.18-8.87,33.05,0,3.44,1.29,5.15,3.87,5.15,1.86,0,4.17-1.51,6.93-4.54,2.76-3.03,4.47-5.67,5.16-7.92l7.04-22.88,14.62-2.96c-3.38,10.78-5.69,18.35-6.95,22.72-1.26,4.37-1.88,7.43-1.88,9.18,0,3.37,1.15,5.05,3.44,5.05,1.86,0,4.62-1.7,8.28-5.1l4.51-4.24v6.18Z"/><path class="cls-3" d="M341.7,1666.42c-4.55,4.48-8.63,7.78-12.25,9.91-3.62,2.13-7.61,3.2-11.98,3.2-4.87,0-8.8-1.56-11.79-4.67s-4.48-7.21-4.48-12.3c0-7.59,2.63-14.46,7.89-20.6,5.26-6.14,11.1-9.21,17.51-9.21,3.33,0,6,.86,8,2.58,2,1.72,3.01,3.97,3.01,6.77,0,7.41-7.88,13.43-23.63,18.05,1.43,6.98,5.17,10.47,11.22,10.47,2.36,0,4.62-.64,6.77-1.91,2.15-1.27,5.39-4.09,9.72-8.46v6.18Zm-28.14-9.94c9.17-2.58,13.75-7.34,13.75-14.29,0-3.44-1.25-5.16-3.76-5.16-2.36,0-4.62,1.8-6.77,5.4-2.15,3.6-3.22,8.28-3.22,14.04Z"/><path class="cls-3" d="M381.88,1666.42c-4.55,4.48-8.63,7.78-12.25,9.91-3.62,2.13-7.61,3.2-11.98,3.2-4.87,0-8.8-1.56-11.79-4.67s-4.48-7.21-4.48-12.3c0-7.59,2.63-14.46,7.89-20.6,5.26-6.14,11.1-9.21,17.51-9.21,3.33,0,6,.86,8,2.58,2,1.72,3.01,3.97,3.01,6.77,0,7.41-7.88,13.43-23.63,18.05,1.43,6.98,5.17,10.47,11.22,10.47,2.36,0,4.62-.64,6.77-1.91,2.15-1.27,5.39-4.09,9.72-8.46v6.18Zm-28.14-9.94c9.17-2.58,13.75-7.34,13.75-14.29,0-3.44-1.25-5.16-3.76-5.16-2.36,0-4.62,1.8-6.77,5.4-2.15,3.6-3.22,8.28-3.22,14.04Z"/><path class="cls-3" d="M434.62,1666.42c-8.27,8.74-15.36,13.11-21.27,13.11-2.4,0-4.33-.84-5.8-2.52-1.47-1.68-2.2-3.94-2.2-6.77,0-3.83,1.58-9.69,4.73-17.56,1.68-4.22,2.53-6.91,2.53-8.06s-.45-1.72-1.34-1.72c-.5,0-1.16,.25-1.99,.75-.75,.5-1.63,1.2-2.63,2.09-.89,.82-1.9,1.83-3.01,3.01-.97,1-2.01,2.15-3.12,3.44l-3.01,3.49c-1.32,1.61-2.15,3.31-2.47,5.1-.54,3.04-.89,5.84-1.07,8.38-.11,1.9-.16,4.46-.16,7.68l-11.87,2.79c-.39-4.83-.59-8.43-.59-10.8,0-5.76,.67-11.23,2.01-16.38,1.34-5.16,3.5-10.96,6.47-17.4l13.11-2.52c-2.76,7.41-4.57,13.25-5.43,17.51,5.87-6.55,10.53-11.09,13.98-13.62,3.45-2.53,6.52-3.79,9.2-3.79,1.82,0,3.34,.69,4.56,2.07s1.82,3.1,1.82,5.18c0,3.43-1.54,9.09-4.62,16.97-2.11,5.41-3.17,8.92-3.17,10.53,0,2.15,.88,3.23,2.64,3.23,2.62,0,6.86-3.46,12.71-10.37v6.18Z"/><path class="cls-3" d="M510.3,1666.42c-1.83,1.61-3.6,2.75-5.32,3.41-1.72,.66-3.08,.99-4.08,.99-2.58,0-5.14-1-7.68-3.01-5.16,7.81-11.06,11.71-17.72,11.71-4.15,0-7.52-1.56-10.1-4.67s-3.87-7.25-3.87-12.41c0-8.16,2.9-15.17,8.7-21.03,5.8-5.85,12.73-8.78,20.79-8.78,3.04,0,5.27,.33,6.69,.99,1.42,.66,2.28,1.44,2.61,2.34,.32,.9,.48,2.02,.48,3.38,0,6.7-1.83,14.91-5.48,24.65,1.83,1.68,3.74,2.52,5.75,2.52,2.4,0,5.48-2.09,9.24-6.28v6.18Zm-17.72-30.02c-.54-.21-1.31-.32-2.31-.32-4.66,0-8.3,2.44-10.93,7.3-2.63,4.87-3.95,10.56-3.95,17.08,0,3.62,.57,6.43,1.72,8.43,1.15,2.01,2.74,3.01,4.78,3.01,2.54,0,5.3-2.34,8.27-7.04-3.37-4.22-5.05-8.77-5.05-13.64,0-5.73,2.49-10.67,7.46-14.82Z"/><path class="cls-3" d="M553.86,1666.42c-3.72,4.19-7.4,7.42-11.05,9.69-3.65,2.27-6.9,3.41-9.76,3.41-1.36,0-3.22-.52-5.58-1.55-1.51,7.88-2.84,16.38-3.99,25.5-3.73,.5-8.21,1.27-13.44,2.31,1.14-9.81,3.13-22.54,5.96-38.19-.39-.68-1.09-2.4-2.1-5.16l-3.6,3.97h-1.23v-4.83l10.24-10.62c1.95-9.61,3.53-16.56,4.75-20.86s2.92-9.05,5.1-14.26c2.18-5.21,3.56-8.2,4.13-8.97,.57-.77,1.96-1.5,4.16-2.2,2.2-.7,4.55-1.36,7.06-1.99,2.51-.63,3.85-.94,4.03-.94,1.36,0,2.47,.89,3.33,2.66s1.29,4.1,1.29,7c0,5.01-1.32,9.84-3.96,14.49-2.64,4.65-7.64,10.37-15,17.17l-4.51,22.45c1.75,3.75,4.38,5.63,7.88,5.63,5,0,10.44-3.63,16.3-10.9v6.18Zm-18.04-30.61c4.19-3.65,7.47-7.58,9.85-11.79,2.38-4.21,3.57-8.08,3.57-11.63,0-1.5-.28-2.74-.83-3.71-.55-.97-1.24-1.45-2.06-1.45-1.57,0-3.17,2.06-4.79,6.18-1.62,4.12-3.54,11.58-5.74,22.4Z"/><path class="cls-3" d="M637.43,1611.42c0,1.4-2.31,4.83-6.93,10.31h-.97c-.72-.29-1.16-1.34-1.34-3.17-.39-3.69-1.67-6.71-3.81-9.05-2.15-2.34-4.73-3.52-7.73-3.52-2.83,0-5.26,1.03-7.3,3.08-2.04,2.06-3.06,4.52-3.06,7.38,0,2.07,.65,4.3,1.94,6.68,1.3,2.38,4.65,6.15,10.07,11.31,5.42,5.17,8.89,9.28,10.44,12.34,1.54,3.06,2.31,5.97,2.31,8.73,0,6.37-2.77,11.99-8.3,16.84-5.53,4.85-12,7.28-19.42,7.28-6.12,0-11.17-1.42-15.15-4.27-3.97-2.85-5.96-5.16-5.96-6.96,0-1,1.09-3.33,3.28-6.98s3.44-5.48,3.76-5.48c1.15,0,1.96,.33,2.44,.99,.48,.66,.81,1.89,.99,3.68,.54,5.59,1.89,9.44,4.05,11.55,2.17,2.11,4.99,3.17,8.46,3.17,3.79,0,7.11-1.31,9.94-3.94,2.83-2.63,4.24-5.68,4.24-9.15,0-1.79-.55-3.69-1.65-5.71s-4.2-5.46-9.29-10.32c-5.1-4.86-8.43-8.97-10.01-12.34-1.58-3.37-2.36-6.64-2.36-9.83,0-5.55,2.09-10.65,6.28-15.31,4.19-4.65,9.76-6.98,16.71-6.98,5.26,0,9.64,1.21,13.13,3.63,3.49,2.42,5.24,4.43,5.24,6.04Z"/><path class="cls-3" d="M717.73,1666.42c-1.72,1.43-3.44,2.45-5.16,3.06-1.72,.61-3.04,.91-3.97,.91-2.61,0-5.17-1-7.68-3.01-6.52,8.09-13.23,12.14-20.14,12.14-5.08,0-8.72-2.79-10.9-8.38-4.8,5.59-9.97,8.38-15.52,8.38-3.62,0-6.46-1.19-8.54-3.57-2.08-2.38-3.12-5.67-3.12-9.86,0-4.51,.63-9.09,1.91-13.75,1.27-4.65,3.21-10.35,5.83-17.08l14.16-2.63-3.97,11.97c-3.37,10.38-5.04,17.54-5.03,21.48,0,1.86,.45,3.39,1.34,4.57,.89,1.18,2.02,1.77,3.38,1.77,2.86,0,5.73-2.22,8.59-6.66,0-5.62,1.02-11.46,3.06-17.51l4.4-13,14.38-2.63-6.02,18.58c-1.94,5.98-2.9,10.71-2.9,14.18,0,2.11,.46,3.8,1.4,5.05s2.17,1.88,3.71,1.88c1.9,0,3.69-.7,5.38-2.09s3.58-3.51,5.7-6.34c-1.9-3.47-2.85-7.07-2.85-10.8,0-5.37,1.34-10.12,4.03-14.26,2.69-4.13,5.71-6.2,9.08-6.2,2.33,0,3.49,1.75,3.49,5.26,0,7.56-2.92,16.11-8.76,25.67,1.79,1.68,3.69,2.52,5.69,2.52,2.4,0,5.41-1.95,9.02-5.85v6.18Z"/><path class="cls-3" d="M765.91,1666.42c-1.83,1.61-3.6,2.75-5.32,3.41-1.72,.66-3.08,.99-4.08,.99-2.58,0-5.14-1-7.68-3.01-5.16,7.81-11.06,11.71-17.72,11.71-4.15,0-7.52-1.56-10.1-4.67s-3.87-7.25-3.87-12.41c0-8.16,2.9-15.17,8.7-21.03,5.8-5.85,12.73-8.78,20.79-8.78,3.04,0,5.27,.33,6.69,.99,1.41,.66,2.28,1.44,2.61,2.34,.32,.9,.48,2.02,.48,3.38,0,6.7-1.83,14.91-5.48,24.65,1.83,1.68,3.74,2.52,5.75,2.52,2.4,0,5.48-2.09,9.24-6.28v6.18Zm-17.72-30.02c-.54-.21-1.31-.32-2.31-.32-4.65,0-8.3,2.44-10.93,7.3-2.63,4.87-3.95,10.56-3.95,17.08,0,3.62,.57,6.43,1.72,8.43,1.14,2.01,2.74,3.01,4.78,3.01,2.54,0,5.3-2.34,8.27-7.04-3.37-4.22-5.05-8.77-5.05-13.64,0-5.73,2.49-10.67,7.47-14.82Z"/><path class="cls-3" d="M806.03,1666.42c-8.99,8.81-15.92,13.21-20.79,13.21-2.19,0-4.03-.92-5.53-2.77-1.5-1.84-2.26-4.13-2.26-6.85,0-5.05,2.7-11.82,8.11-20.3-2.65,1.36-5.55,2.31-8.7,2.85-2.33,4.3-5.98,8.92-10.96,13.86h-1.24v-4.83c2.79-2.9,5.32-6.02,7.57-9.35-3.08-1.36-4.62-3.38-4.62-6.07s.94-5.7,2.82-8.84c1.88-3.13,4.47-4.7,7.76-4.7,2.79,0,4.19,1.43,4.19,4.3,0,2.26-.8,5.48-2.42,9.67,5.94-.64,11.13-5.19,15.58-13.64l4.89-.21-4.99,13.75c-2.08,5.8-3.42,9.75-4.03,11.84-.61,2.09-.91,3.95-.91,5.56,0,1.5,.35,2.7,1.05,3.6,.7,.9,1.64,1.34,2.82,1.34,1.29,0,2.52-.44,3.71-1.32,1.18-.88,3.83-3.3,7.95-7.28v6.18Z"/><path class="cls-3" d="M863.39,1666.42c-5.16,5.12-9.09,8.58-11.79,10.39-2.7,1.81-5.09,2.71-7.17,2.71-2.54,0-4.56-1.24-6.04-3.71s-2.25-6.09-2.28-10.85c-2.94,4.76-6.13,8.38-9.59,10.85-3.46,2.47-6.58,3.71-9.37,3.71-3.04,0-5.73-1.44-8.06-4.32-2.33-2.88-3.49-6.26-3.49-10.12,0-7.98,2.91-15.39,8.73-22.21,5.82-6.82,12.08-10.23,18.77-10.23,1.86,0,3.32,.27,4.38,.81,1.06,.54,2.21,1.45,3.46,2.74l7.68-32.12c6.27-1.47,10.5-2.2,12.69-2.2,.72,0,1.08,.29,1.08,.86,0,.39-.89,4.1-2.68,11.12-7.16,28.07-10.73,45.01-10.73,50.81,0,1.36,.29,2.45,.86,3.28s1.32,1.23,2.25,1.23c2.29,0,6.06-2.97,11.31-8.92v6.18Zm-38.83,2.85c3.51,0,6.79-2.97,9.83-8.92,3.04-5.94,4.57-11.51,4.57-16.7,0-2.11-.47-3.79-1.42-5.05-.95-1.25-2.19-1.88-3.73-1.88-3.33,0-6.55,3.11-9.67,9.32-3.12,6.21-4.67,11.83-4.67,16.84,0,1.97,.46,3.53,1.37,4.67,.91,1.15,2.16,1.72,3.73,1.72Z"/><path class="cls-3" d="M879.88,1634.94c2.47-.64,4.96-1.17,7.46-1.58,2.51-.41,4.01-.62,4.51-.62,.36,0,.54,.14,.54,.43,0,.54-.14,1.09-.43,1.66-.57,1.65-.86,3.22-.86,4.72,0,1.86,1.08,4.4,3.23,7.63,2.15,3.22,3.22,6.22,3.22,8.97,0,5.48-2.62,10.76-7.87,15.84-5.25,5.08-10.68,7.63-16.3,7.63-2.44,0-4.65-.64-6.66-1.93s-3.01-2.67-3.01-4.14c0-.86,.99-2.49,2.98-4.89,1.99-2.4,3.41-3.6,4.27-3.6,1.14,0,2.17,1.47,3.06,4.4,.89,2.94,2.44,4.4,4.62,4.4s4.23-1.01,6.15-3.04c1.92-2.02,2.87-4.2,2.87-6.53,0-2.26-1.21-5.26-3.65-9.02s-4.05-6.91-4.84-9.45c-4.15,6.7-9.42,13.55-15.79,20.57h-1.23v-4.83c8.77-9.35,14.68-18.23,17.72-26.64Z"/></g><g><path class="cls-1" d="M410.88,144.03c-5.1,5.49-9.75,8.24-13.95,8.24-2.55,0-4.5-1.23-5.83-3.69-1.33-2.46-2-5.75-2-9.88,0-3.19,.65-7.58,1.96-13.16,1.31-5.58,3-10.28,5.08-14.08l1.98-3.55c-2.71,2.83-4.93,5.92-6.67,9.28-1.73,3.36-3.8,8.06-6.2,14.1-2.4,6.04-4.22,10.15-5.45,12.34s-2.41,3.97-3.54,5.35c-1.13,1.38-2.13,2.27-3.01,2.68-.88,.41-2.41,.62-4.6,.62-.84,0-1.26-.23-1.26-.68,0-.05,.15-.76,.45-2.15,.3-1.39,.61-3.62,.92-6.68s.54-8.27,.68-15.62,1.21-13.64,3.21-18.88c-2.14,2.44-4.33,8.11-6.57,17.02l-.86,3.35c-2.35,9.27-5.04,15.53-8.08,18.78-3.03,3.25-6.01,4.87-8.93,4.87-1.8,0-3.39-.57-4.76-1.71-1.37-1.14-2.05-2.45-2.05-3.93,0-1.14,.82-2.41,2.46-3.83,1.64-1.41,2.68-2.12,3.11-2.12,.5,0,.83,.17,.99,.51,.16,.34,.37,1.28,.62,2.82s.63,2.54,1.15,3.01c.51,.47,1.16,.7,1.94,.7,1.76,0,3.7-1.76,5.83-5.28s4.07-8.96,5.83-16.32l.99-4.13c.8-3.37,1.59-6.06,2.37-8.07,.78-2.01,1.8-4.01,3.08-6.02,1.85-2.87,2.99-4.4,3.41-4.6,.42-.19,1.21-.35,2.38-.48s2.32-.19,3.49-.19c.46,0,.68,.26,.68,.79,0,.25-.07,.76-.21,1.54-.45,3.19-.66,6.39-.64,9.6l.07,9.16c.04,7.98-.59,14.41-1.91,19.31,1.21-1.46,2.96-5.22,5.26-11.28,3.33-8.59,6.36-15.04,9.09-19.35,1.3-2.07,2.87-4.06,4.7-5.96,1.83-1.9,3.1-2.92,3.81-3.06,2.42-.46,4.45-.68,6.12-.68,.62,0,.92,.17,.92,.51,0,.48-.38,1.55-1.12,3.21-1.77,4.01-3.43,9.44-4.96,16.27s-2.31,12.28-2.32,16.33c0,4.58,1.4,6.87,4.2,6.87,2.28,0,4.99-1.94,8.13-5.81v3.93Z"/><path class="cls-1" d="M427.66,144.03c-5.33,5.61-9.32,8.41-11.96,8.41-1.46,0-2.69-.75-3.69-2.24-1-1.49-1.5-3.37-1.5-5.62,0-4.85,1.64-11.57,4.92-20.17l8.68-1.81h.41l-3.42,10.7c-1.41,4.42-2.12,7.58-2.12,9.47,0,.75,.17,1.36,.5,1.83,.33,.47,.75,.7,1.25,.7,.89,0,1.78-.33,2.68-.97s2.32-2.06,4.26-4.22v3.93Zm-.68-34.79c0,5.47-2.02,8.2-6.05,8.2-1.96,0-3.63-.59-5.02-1.78,1.32-2,2.35-4.26,3.08-6.77,1.8,1.12,3.25,1.68,4.34,1.68,1.23,0,2.45-.45,3.66-1.33Z"/><path class="cls-1" d="M461.22,144.03c-5.26,5.56-9.78,8.34-13.54,8.34-1.53,0-2.76-.54-3.69-1.61-.93-1.07-1.4-2.51-1.4-4.31,0-2.44,1-6.16,3.01-11.18,1.07-2.69,1.61-4.4,1.61-5.13s-.29-1.09-.85-1.09c-.32,0-.74,.16-1.26,.48-.48,.32-1.04,.76-1.67,1.33-.57,.52-1.21,1.16-1.91,1.91-.62,.64-1.28,1.37-1.98,2.19l-1.91,2.22c-.84,1.03-1.37,2.11-1.57,3.25-.34,1.94-.57,3.71-.68,5.33-.07,1.21-.1,2.84-.1,4.89l-7.55,1.78c-.25-3.08-.38-5.37-.38-6.87,0-3.67,.43-7.14,1.28-10.43,.86-3.28,2.23-6.97,4.12-11.07l8.34-1.61c-1.75,4.72-2.91,8.43-3.45,11.14,3.73-4.17,6.7-7.06,8.89-8.67,2.19-1.61,4.15-2.41,5.85-2.41,1.16,0,2.13,.44,2.9,1.31,.77,.88,1.16,1.97,1.16,3.29,0,2.18-.98,5.78-2.94,10.8-1.34,3.44-2.02,5.68-2.02,6.7,0,1.37,.56,2.06,1.68,2.06,1.67,0,4.36-2.2,8.09-6.6v3.93Z"/><path class="cls-1" d="M491.88,144.03c-1.16,1.03-2.29,1.75-3.38,2.17-1.09,.42-1.96,.63-2.6,.63-1.64,0-3.27-.64-4.89-1.91-3.28,4.97-7.04,7.45-11.28,7.45-2.64,0-4.79-.99-6.43-2.97s-2.46-4.62-2.46-7.9c0-5.2,1.85-9.66,5.54-13.38s8.1-5.59,13.23-5.59c1.94,0,3.35,.21,4.25,.63,.9,.42,1.45,.92,1.66,1.49,.21,.57,.31,1.29,.31,2.15,0,4.26-1.16,9.49-3.49,15.69,1.16,1.07,2.38,1.61,3.66,1.61,1.53,0,3.49-1.33,5.88-4v3.93Zm-11.28-19.11c-.34-.14-.83-.21-1.47-.21-2.96,0-5.28,1.55-6.96,4.65-1.67,3.1-2.51,6.72-2.51,10.87,0,2.3,.36,4.09,1.09,5.37,.73,1.28,1.74,1.91,3.04,1.91,1.62,0,3.37-1.49,5.26-4.48-2.14-2.69-3.21-5.58-3.21-8.68,0-3.65,1.58-6.79,4.75-9.43Z"/><path class="cls-1" d="M517.42,144.03c-5.72,5.61-10.13,8.41-13.23,8.41-1.39,0-2.56-.59-3.52-1.76s-1.44-2.63-1.44-4.36c0-3.21,1.72-7.52,5.16-12.92-1.69,.87-3.53,1.47-5.54,1.81-1.48,2.73-3.81,5.67-6.97,8.82h-.79v-3.08c1.78-1.85,3.38-3.83,4.82-5.95-1.96-.87-2.94-2.15-2.94-3.86s.6-3.63,1.79-5.62c1.2-1.99,2.84-2.99,4.94-2.99,1.78,0,2.67,.91,2.67,2.73,0,1.44-.51,3.49-1.54,6.15,3.78-.41,7.09-3.3,9.91-8.68l3.11-.14-3.18,8.75c-1.32,3.69-2.18,6.2-2.56,7.54-.39,1.33-.58,2.51-.58,3.54,0,.96,.22,1.72,.67,2.29,.44,.57,1.04,.86,1.79,.86,.82,0,1.61-.28,2.36-.84s2.44-2.1,5.06-4.63v3.93Z"/><path class="cls-1" d="M582.32,144.06c-5.24,5.58-10.05,8.37-14.42,8.37-2.42,0-4.33-.85-5.74-2.56-1.41-1.71-2.2-4.15-2.36-7.31-2.76,3.35-5.2,5.83-7.33,7.45-2.13,1.62-4.4,2.43-6.82,2.43-3.1,0-5.59-1.34-7.47-4.02-1.88-2.68-2.82-6.25-2.82-10.71,0-5.33,1.23-10.83,3.69-16.49s6.11-10.13,10.94-13.42c4.83-3.28,10.69-4.92,17.57-4.92,5.15,0,9.81,.7,13.98,2.09v2.26c-3.4,3.96-6.24,9.51-8.53,16.64-2.29,7.13-3.44,12.57-3.44,16.3,0,1.82,.37,3.24,1.11,4.24,.74,1,1.77,1.5,3.09,1.5,2.37,0,5.22-1.93,8.54-5.78v3.93Zm-9.95-36.85c-2.1-1.14-4.35-1.71-6.77-1.71-3.81,0-7.24,1.59-10.29,4.77-3.05,3.18-5.46,7.39-7.23,12.63-1.77,5.24-2.65,9.79-2.65,13.64,0,2.57,.5,4.67,1.49,6.27,.99,1.61,2.26,2.41,3.81,2.41,2.69,0,5.78-2.45,9.26-7.35,1.44-12.85,5.56-23.07,12.37-30.66Z"/><path class="cls-1" d="M607.85,144.03c-5.72,5.61-10.13,8.41-13.23,8.41-1.39,0-2.56-.59-3.52-1.76s-1.44-2.63-1.44-4.36c0-3.21,1.72-7.52,5.16-12.92-1.69,.87-3.53,1.47-5.54,1.81-1.48,2.73-3.81,5.67-6.97,8.82h-.79v-3.08c1.78-1.85,3.38-3.83,4.82-5.95-1.96-.87-2.94-2.15-2.94-3.86s.6-3.63,1.79-5.62c1.2-1.99,2.84-2.99,4.94-2.99,1.78,0,2.67,.91,2.67,2.73,0,1.44-.51,3.49-1.54,6.15,3.78-.41,7.09-3.3,9.91-8.68l3.11-.14-3.18,8.75c-1.32,3.69-2.18,6.2-2.56,7.54-.39,1.33-.58,2.51-.58,3.54,0,.96,.22,1.72,.67,2.29,.44,.57,1.04,.86,1.79,.86,.82,0,1.61-.28,2.36-.84s2.44-2.1,5.06-4.63v3.93Z"/><path class="cls-1" d="M633.42,144.03c-2.92,2.87-5.59,4.98-8.02,6.32-2.43,1.34-4.96,2.02-7.6,2.02-2.96,0-5.41-.96-7.33-2.89-1.93-1.92-2.89-4.37-2.89-7.33,0-4.85,1.77-9.34,5.31-13.45,3.54-4.11,7.38-6.17,11.5-6.17,2.03,0,3.68,.56,4.96,1.69,1.28,1.13,1.91,2.59,1.91,4.39,0,.64-.12,1.12-.36,1.44-.24,.32-.69,.64-1.35,.96l-3.96,1.88c-.48,.23-.83,.34-1.06,.34-.32,0-.48-.23-.48-.68,0-.18,.07-.78,.21-1.79,.14-1.01,.21-1.63,.21-1.86,0-1-.21-1.81-.63-2.43s-.99-.92-1.69-.92c-1.66,0-3.18,1.23-4.56,3.69-1.38,2.46-2.07,5.26-2.07,8.41,0,2.71,.65,4.88,1.95,6.49,1.3,1.62,3.03,2.43,5.2,2.43,1.85,0,3.58-.53,5.21-1.59s3.48-2.68,5.55-4.87v3.93Z"/><path class="cls-1" d="M669.92,144.03c-3.65,3.46-6.25,5.72-7.83,6.77-1.57,1.05-3.08,1.57-4.51,1.57-3.6,0-5.3-3.18-5.09-9.54-2.28,3.26-4.38,5.66-6.31,7.21-1.93,1.55-3.91,2.32-5.96,2.32s-3.71-.94-5.11-2.82c-1.4-1.88-2.1-4.19-2.1-6.92,0-3.42,.94-6.68,2.82-9.78,1.88-3.1,4.29-5.61,7.23-7.52s5.54-2.87,7.79-2.87c2.85,0,4.84,1.31,5.98,3.93l6.99-3.86h1.92l-3.01,10.01c-1.55,5.04-2.33,8.49-2.33,10.36,0,1.96,.69,2.94,2.08,2.94,.89,0,1.87-.47,2.94-1.42,1.07-.95,2.57-2.39,4.51-4.32v3.93Zm-25.02,1.88c2.28,0,4.43-1.94,6.44-5.83,2.02-3.88,3.02-7.47,3.02-10.75,0-1.28-.29-2.27-.85-2.99-.57-.72-1.33-1.08-2.29-1.08-2.28,0-4.44,1.94-6.48,5.81-2.04,3.87-3.06,7.44-3.06,10.7,0,1.23,.3,2.23,.91,2.99,.6,.76,1.37,1.15,2.31,1.15Z"/><path class="cls-1" d="M703.46,144.03c-5.26,5.56-9.78,8.34-13.54,8.34-1.53,0-2.76-.54-3.69-1.61-.93-1.07-1.4-2.51-1.4-4.31,0-2.44,1-6.16,3.01-11.18,1.07-2.69,1.61-4.4,1.61-5.13s-.29-1.09-.85-1.09c-.32,0-.74,.16-1.26,.48-.48,.32-1.04,.76-1.67,1.33-.57,.52-1.21,1.16-1.91,1.91-.62,.64-1.28,1.37-1.98,2.19l-1.91,2.22c-.84,1.03-1.37,2.11-1.57,3.25-.34,1.94-.57,3.71-.68,5.33-.07,1.21-.1,2.84-.1,4.89l-7.55,1.78c-.25-3.08-.38-5.37-.38-6.87,0-3.67,.43-7.14,1.28-10.43,.86-3.28,2.23-6.97,4.12-11.07l8.34-1.61c-1.75,4.72-2.91,8.43-3.45,11.14,3.73-4.17,6.7-7.06,8.89-8.67,2.19-1.61,4.15-2.41,5.85-2.41,1.16,0,2.13,.44,2.9,1.31,.77,.88,1.16,1.97,1.16,3.29,0,2.18-.98,5.78-2.94,10.8-1.34,3.44-2.02,5.68-2.02,6.7,0,1.37,.56,2.06,1.68,2.06,1.67,0,4.36-2.2,8.09-6.6v3.93Z"/><path class="cls-1" d="M739.92,144.03c-3.65,3.46-6.25,5.72-7.83,6.77-1.57,1.05-3.08,1.57-4.51,1.57-3.6,0-5.3-3.18-5.09-9.54-2.28,3.26-4.38,5.66-6.31,7.21-1.93,1.55-3.91,2.32-5.96,2.32s-3.71-.94-5.11-2.82c-1.4-1.88-2.1-4.19-2.1-6.92,0-3.42,.94-6.68,2.82-9.78,1.88-3.1,4.29-5.61,7.23-7.52s5.54-2.87,7.79-2.87c2.85,0,4.84,1.31,5.98,3.93l6.99-3.86h1.92l-3.01,10.01c-1.55,5.04-2.33,8.49-2.33,10.36,0,1.96,.69,2.94,2.08,2.94,.89,0,1.87-.47,2.94-1.42,1.07-.95,2.57-2.39,4.51-4.32v3.93Zm-25.02,1.88c2.28,0,4.43-1.94,6.44-5.83,2.02-3.88,3.02-7.47,3.02-10.75,0-1.28-.29-2.27-.85-2.99-.57-.72-1.33-1.08-2.29-1.08-2.28,0-4.44,1.94-6.48,5.81-2.04,3.87-3.06,7.44-3.06,10.7,0,1.23,.3,2.23,.91,2.99,.6,.76,1.37,1.15,2.31,1.15Z"/></g></g></g><g id="_반짝이"><polygon class="cls-6" points="751.78 1154.88 767.16 1214.54 816.66 1226.79 767.16 1240.24 751.78 1301 735.58 1240.24 686.9 1226.79 735.58 1214.54 751.78 1154.88"/><polygon class="cls-7" points="302.78 877.88 313.95 921.21 349.9 930.11 313.95 939.87 302.78 984 291.02 939.87 255.66 930.11 291.02 921.21 302.78 877.88"/><circle class="cls-6" cx="402.5" cy="908.5" r="10.5"/><circle class="cls-7" cx="458" cy="925" r="6"/><circle class="cls-7" cx="236.5" cy="1029.5" r="8.5"/><circle class="cls-7" cx="809" cy="1161" r="11"/><circle class="cls-6" cx="809" cy="889" r="8"/></g><g id="_소드_퀸"><path class="cls-4" d="M453.68,757.47c-1.33,.14-2.64,.36-3.91,.65-3.28-11.25-14.21-18.9-26.27-17.65-1.29,.13-2.54,.39-3.76,.71-3.16-12.58-15.16-21.25-28.43-19.87-6.21,.65-11.7,3.39-15.83,7.46-2.37-17.77-18.46-30.54-36.41-28.67-16.46,1.71-28.85,15.14-29.78,31.14-1.31,0-2.64,.05-3.97,.19-20.06,2.08-34.63,20.03-32.54,40.09,.55,5.27,2.2,10.16,4.69,14.47-9.01,4.82-14.68,14.74-13.56,25.53,1.48,14.23,14.22,24.57,28.45,23.1,6.14-.64,11.56-3.38,15.61-7.42,6.58,13.74,21.28,22.54,37.3,20.87,8.98-.93,16.88-5,22.72-11,8.6,10.71,22.28,16.98,36.95,15.45,18.59-1.93,33.06-15.77,36.64-33.15,5.6,2.99,12.13,4.4,18.92,3.69,18.12-1.88,31.28-18.09,29.39-36.21-1.88-18.12-18.09-31.28-36.21-29.39Z"/><path class="cls-4" d="M807.34,984.61c-1.39,.14-2.76,.38-4.09,.68-3.44-11.76-14.86-19.77-27.49-18.46-1.35,.14-2.65,.41-3.93,.75-3.31-13.16-15.86-22.23-29.74-20.79-6.5,.68-12.24,3.55-16.56,7.8-2.48-18.59-19.31-31.95-38.09-30-17.22,1.79-30.19,15.84-31.15,32.58-1.37,0-2.76,.06-4.16,.2-20.98,2.18-36.23,20.96-34.05,41.94,.57,5.51,2.3,10.63,4.91,15.14-9.42,5.04-15.36,15.42-14.18,26.71,1.55,14.89,14.87,25.71,29.76,24.16,6.43-.67,12.09-3.53,16.33-7.76,6.89,14.37,22.26,23.58,39.02,21.83,9.4-.98,17.65-5.23,23.77-11.5,8.99,11.2,23.3,17.76,38.66,16.17,19.45-2.02,34.59-16.49,38.33-34.68,5.86,3.13,12.69,4.6,19.79,3.86,18.95-1.97,32.72-18.93,30.75-37.88-1.97-18.95-18.93-32.72-37.88-30.75Z"/><g><circle class="cls-6" cx="377.27" cy="1104.14" r="16.33"/><circle class="cls-6" cx="533.5" cy="1227.53" r="16.33"/><path class="cls-4" d="M414.68,1122.84c.57-6.83-2.26-13.3-2.97-14.91-2.82-6.43-5.63-7.54-6.19-11.94-.38-2.94,.24-7.54,5.81-13.84-2.61-.08-8.28,.12-14.22,3.48-1.8,1.02-8.22,4.78-11.5,12.89-2.42,6-1.91,11.35-1.52,13.78-2.07,.22-7.73,1.1-12.64,5.69-6.19,5.79-6.72,13.31-6.82,15.23-.23,4.24,.77,7.64,1.52,9.61,1.54-3.4,4.19-7.7,8.47-8.72,3.5-.84,6.28,.96,11.56,3.1,3.85,1.56,9.46,3.47,16.75,4.74,2.71-2.06,10.89-8.83,11.75-19.09Z"/><path class="cls-4" d="M508.75,1196.25c6.41-2.4,13.41-1.43,15.16-1.19,6.96,.97,8.79,3.38,13.18,2.72,2.94-.44,7.19-2.27,11.74-9.35,.78,2.49,2.13,8,.51,14.63-.49,2-2.37,9.21-9.29,14.57-5.12,3.96-10.41,4.91-12.85,5.2,.35,2.05,1.04,7.74-2.05,13.71-3.89,7.53-10.98,10.08-12.81,10.7-4.02,1.37-7.56,1.33-9.66,1.14,2.85-2.41,6.28-6.12,6.1-10.52-.15-3.6-2.63-5.79-6.12-10.29-2.54-3.28-5.9-8.16-9.1-14.83,1.25-3.16,5.55-12.88,15.18-16.49Z"/><g><circle class="cls-2" cx="357.32" cy="1291.39" r="18.91"/><g><polygon class="cls-7" points="882.67 618.55 842.87 642.13 442.71 1151.39 455.86 1161.73 882.67 618.55"/><polygon class="cls-7" points="886.8 621.79 459.99 1164.97 473.15 1175.31 873.31 666.04 886.8 621.79"/></g><rect class="cls-3" x="377.14" y="1149.84" width="156.38" height="33.62" rx="16" ry="16" transform="translate(818.11 -32.01) rotate(38.16)"/><g><rect class="cls-3" x="348.14" y="1268.62" width="42.92" height="18.58" transform="translate(867.81 44.44) rotate(38.13)"/><rect class="cls-3" x="362.66" y="1250.12" width="42.92" height="18.58" transform="translate(859.49 31.53) rotate(38.13)"/><rect class="cls-3" x="377.19" y="1231.62" width="42.92" height="18.58" transform="translate(851.16 18.62) rotate(38.13)"/><rect class="cls-3" x="391.71" y="1213.12" width="42.92" height="18.58" transform="translate(842.84 5.71) rotate(38.13)"/><rect class="cls-3" x="406.23" y="1194.62" width="42.92" height="18.58" transform="translate(834.51 -7.21) rotate(38.13)"/><rect class="cls-3" x="420.75" y="1176.11" width="42.92" height="18.58" transform="translate(826.19 -20.12) rotate(38.13)"/></g><rect class="cls-3" x="329.41" y="1281.56" width="59.72" height="14.71" rx="7" ry="7" transform="translate(873.12 53.46) rotate(38.16)"/><polygon class="cls-2" points="480.2 1135.42 466.47 1160.61 480.35 1163.74 467.61 1170.07 487.52 1191.78 461.72 1177.57 458.59 1191.44 452.26 1178.7 429.57 1199.86 444.76 1172.81 430.89 1169.68 443.63 1163.35 423.31 1141.32 449.52 1155.85 452.65 1141.98 458.98 1154.72 480.2 1135.42"/></g></g><g><path class="cls-2" d="M679.75,583.33c-3.82,7.47-2.68,15.09-1.91,18.51-6.25-2.34-11.66-3.01-15.31-3.19-4.79-.24-10.3-.44-15.95,2.55-1.37,.72-2.94,1.57-4.47,3.19-4.92,5.2-4.1,12.73-3.83,14.68,1.61-.57,12.72-4.32,21.7,1.91,4.85,3.37,6.8,8.07,7.66,10.21,1.06,2.67,3.7,10.53-4.47,33.82-5.98,17.06-9.13,25.65-16.59,28.08-7.29,2.38-14.82-1.61-16.59-2.55-5.96-3.16-8.89-7.84-12.76-14.04-2.38-3.8-5.45-9.56-7.66-17.23-2.86,5.35-9.72,16.98-19.78,23.61-3.09,2.03-5.82,3.17-8.93,3.19-5.56,.04-9.67-3.5-11.49-5.1-7.35-6.51-9.61-16.21-12.76-34.46-1.68-9.69-3.44-20.81-5.1-33.18,2.87-1.87,8.65-6.24,12.12-14.04,1.62-3.64,2.28-7,2.55-9.57,1.84-.29,6.09-.7,10.85,1.28,5.76,2.39,8.65,6.76,9.57,8.3,2.18-15.22-3.16-27.65-10.21-29.99-2.15-.72-7.25-1.41-12.76,0-2.18,.56-3.91,1.31-5.1,1.91,.18-3.27,.25-12.52-5.74-21.7-3.97-6.09-8.95-9.6-12.14-11.43,0-.23,0-.46,.01-.69-.2,.1-.41,.22-.64,.34-.22-.12-.44-.24-.64-.34,0,.23,0,.46,.01,.69-3.19,1.83-8.16,5.35-12.14,11.43-6,9.18-5.92,18.42-5.74,21.7-1.19-.6-2.93-1.36-5.1-1.91-5.51-1.41-10.61-.72-12.76,0-7.05,2.34-12.39,14.77-10.21,29.99,.92-1.54,3.81-5.91,9.57-8.3,4.76-1.97,9-1.57,10.85-1.28,.27,2.57,.93,5.93,2.55,9.57,3.47,7.8,9.25,12.16,12.12,14.04-1.67,12.37-3.43,23.49-5.1,33.18-3.15,18.25-5.41,27.95-12.76,34.46-1.81,1.61-5.93,5.14-11.49,5.1-3.11-.02-5.85-1.16-8.93-3.19-10.07-6.63-16.92-18.26-19.78-23.61-2.21,7.67-5.28,13.42-7.66,17.23-3.88,6.2-6.81,10.88-12.76,14.04-1.77,.94-9.3,4.93-16.59,2.55-7.46-2.43-10.61-11.01-16.59-28.08-8.17-23.29-5.53-31.15-4.47-33.82,.85-2.14,2.8-6.84,7.66-10.21,8.98-6.23,20.08-2.49,21.7-1.91,.27-1.95,1.09-9.47-3.83-14.68-1.53-1.62-3.1-2.47-4.47-3.19-5.65-2.99-11.16-2.79-15.95-2.55-3.66,.18-9.06,.85-15.31,3.19,.76-3.42,1.91-11.04-1.91-18.51-5.64-11.03-19.79-17.2-35.1-14.68,14.04,61.47,28.08,122.94,42.12,184.42,42.75-.43,89.97-.21,132.73-.64,42.75,.43,89.97,.21,132.73,.64,14.04-61.47,28.08-122.94,42.12-184.42-15.31-2.53-29.46,3.65-35.1,14.68Z"/><rect class="cls-2" x="408.87" y="766.47" width="262.27" height="18.51"/><polygon class="cls-4" points="537.6 660.42 544.13 709.15 561.72 700.79 553.36 718.39 615.82 724.91 553.36 731.44 561.72 749.04 544.13 740.67 537.6 803.48 531.07 740.67 513.48 749.04 521.84 731.44 464.18 724.91 521.84 718.39 513.48 700.79 531.07 709.15 537.6 660.42"/></g></g></svg>