<?xml version="1.0" encoding="UTF-8"?><svg xmlns="http://www.w3.org/2000/svg" viewBox="0 0 1080 1944"><defs><style>.cls-1{stroke-dasharray:0 0 5 25;stroke-width:10px;}.cls-1,.cls-2{fill:none;stroke:#fff;stroke-linecap:round;stroke-linejoin:round;}.cls-3{fill:#fff;}.cls-4{fill:#f6ef84;}.cls-5{fill:#3f3730;}.cls-6{fill:#4c5fa9;}.cls-2{stroke-width:5px;}.cls-7{fill:#bad6eb;}.cls-8{fill:#c8c0de;}.cls-9{fill:#b1d4f0;}</style></defs><g id="_배경_텍스트"><g><rect class="cls-7" width="1080" height="1944"/><rect class="cls-3" x="74.84" y="186.39" width="930.33" height="1606.64" rx="65.21" ry="65.21"/><g><path class="cls-5" d="M260.19,1664.47c-8.24,8.77-15.79,13.16-22.67,13.16-3.8,0-6.8-1.34-9.02-4.03-2.22-2.69-3.46-6.52-3.71-11.49-4.33,5.26-8.17,9.17-11.52,11.71-3.35,2.54-6.92,3.81-10.71,3.81-4.87,0-8.78-2.1-11.74-6.31-2.95-4.21-4.43-9.82-4.43-16.84,0-8.38,1.93-17.02,5.8-25.92,3.87-8.9,9.6-15.92,17.19-21.08,7.59-5.16,16.79-7.73,27.61-7.73,8.09,0,15.42,1.09,21.97,3.28v3.54c-5.34,6.23-9.8,14.95-13.4,26.16-3.6,11.21-5.4,19.75-5.4,25.62,0,2.87,.58,5.08,1.75,6.66,1.16,1.58,2.78,2.36,4.86,2.36,3.72,0,8.2-3.03,13.43-9.08v6.18Zm-15.63-57.9c-3.29-1.79-6.84-2.69-10.63-2.69-5.98,0-11.37,2.5-16.17,7.49-4.8,5-8.58,11.61-11.36,19.85-2.77,8.24-4.16,15.38-4.16,21.43,0,4.05,.78,7.33,2.34,9.86,1.56,2.53,3.55,3.79,5.99,3.79,4.22,0,9.08-3.85,14.56-11.55,2.26-20.2,8.74-36.25,19.44-48.18Z"/><path class="cls-5" d="M300.32,1664.42c-4.58,4.51-8.78,7.82-12.6,9.94-3.81,2.11-7.8,3.17-11.95,3.17-4.66,0-8.5-1.51-11.52-4.54s-4.54-6.87-4.54-11.52c0-7.63,2.78-14.67,8.35-21.13,5.57-6.46,11.59-9.7,18.07-9.7,3.19,0,5.78,.89,7.79,2.66,2,1.77,3.01,4.07,3.01,6.9,0,1-.19,1.75-.56,2.26-.38,.5-1.08,1-2.12,1.5l-6.23,2.95c-.75,.36-1.31,.54-1.67,.54-.5,0-.75-.36-.75-1.07,0-.29,.11-1.23,.32-2.82,.21-1.59,.32-2.57,.32-2.93,0-1.58-.33-2.85-.99-3.81-.66-.97-1.55-1.45-2.66-1.45-2.61,0-5,1.93-7.17,5.8-2.17,3.87-3.25,8.27-3.25,13.21,0,4.26,1.02,7.66,3.06,10.21,2.04,2.54,4.76,3.81,8.16,3.81,2.9,0,5.63-.83,8.19-2.5,2.56-1.67,5.47-4.22,8.73-7.65v6.18Z"/><path class="cls-5" d="M340.49,1664.42c-4.55,4.48-8.63,7.78-12.25,9.91-3.62,2.13-7.61,3.2-11.98,3.2-4.87,0-8.8-1.56-11.79-4.67-2.99-3.12-4.48-7.21-4.48-12.3,0-7.59,2.63-14.46,7.9-20.6,5.26-6.14,11.1-9.21,17.51-9.21,3.33,0,6,.86,8,2.58,2,1.72,3.01,3.97,3.01,6.77,0,7.41-7.88,13.43-23.63,18.05,1.43,6.98,5.17,10.47,11.23,10.47,2.36,0,4.62-.64,6.77-1.91,2.15-1.27,5.39-4.09,9.72-8.46v6.18Zm-28.14-9.94c9.17-2.58,13.75-7.34,13.75-14.29,0-3.44-1.25-5.16-3.76-5.16-2.36,0-4.62,1.8-6.77,5.4-2.15,3.6-3.22,8.28-3.22,14.04Z"/><path class="cls-5" d="M416.22,1664.42c-1.83,1.61-3.6,2.75-5.32,3.41-1.72,.66-3.08,.99-4.08,.99-2.58,0-5.14-1-7.68-3.01-5.16,7.81-11.06,11.71-17.72,11.71-4.15,0-7.52-1.56-10.1-4.67s-3.87-7.25-3.87-12.41c0-8.16,2.9-15.17,8.7-21.03,5.8-5.85,12.73-8.78,20.79-8.78,3.04,0,5.27,.33,6.69,.99,1.42,.66,2.28,1.44,2.61,2.34,.32,.9,.48,2.02,.48,3.38,0,6.7-1.83,14.91-5.48,24.65,1.83,1.68,3.74,2.52,5.75,2.52,2.4,0,5.48-2.09,9.24-6.28v6.18Zm-17.72-30.02c-.54-.21-1.31-.32-2.31-.32-4.66,0-8.3,2.44-10.93,7.3-2.63,4.87-3.95,10.56-3.95,17.08,0,3.62,.57,6.43,1.72,8.43,1.15,2.01,2.74,3.01,4.78,3.01,2.54,0,5.3-2.34,8.27-7.04-3.37-4.22-5.05-8.77-5.05-13.64,0-5.73,2.49-10.67,7.47-14.82Z"/><path class="cls-5" d="M459.78,1664.42c-3.72,4.19-7.4,7.42-11.05,9.69-3.65,2.27-6.9,3.41-9.76,3.41-1.36,0-3.22-.52-5.58-1.55-1.51,7.88-2.84,16.38-3.99,25.5-3.73,.5-8.21,1.27-13.44,2.31,1.15-9.81,3.13-22.54,5.96-38.19-.39-.68-1.09-2.4-2.09-5.16l-3.6,3.97h-1.24v-4.83l10.24-10.62c1.95-9.61,3.53-16.56,4.75-20.86,1.22-4.3,2.92-9.05,5.1-14.26,2.18-5.21,3.56-8.2,4.14-8.97,.57-.77,1.96-1.5,4.16-2.2,2.2-.7,4.56-1.36,7.06-1.99,2.51-.63,3.85-.94,4.03-.94,1.36,0,2.47,.89,3.33,2.66s1.29,4.1,1.29,7c0,5.01-1.32,9.84-3.97,14.49s-7.64,10.37-15,17.17l-4.51,22.45c1.75,3.75,4.38,5.63,7.88,5.63,5,0,10.44-3.63,16.3-10.9v6.18Zm-18.04-30.61c4.19-3.65,7.47-7.58,9.85-11.79s3.57-8.08,3.57-11.63c0-1.5-.28-2.74-.83-3.71-.55-.97-1.24-1.45-2.06-1.45-1.57,0-3.17,2.06-4.79,6.18-1.62,4.12-3.54,11.58-5.74,22.4Z"/><path class="cls-5" d="M545.99,1613.61c-2.34,2.11-4.04,4.58-5.11,7.39-1.06,2.81-2.16,8.67-3.29,17.56-1.13,8.9-2.93,15.9-5.42,21.02s-6.41,9.39-11.77,12.81c-5.36,3.42-11.24,5.13-17.65,5.13-4.55,0-8.25-1.13-11.1-3.38s-4.27-5.14-4.27-8.65c0-1.32,.41-2.41,1.24-3.25,.82-.84,2.51-1.98,5.05-3.41,2.54-1.43,4.26-2.15,5.16-2.15,.61,0,1.13,.21,1.56,.62,.43,.41,.64,.9,.64,1.48,0,.36-.17,1.68-.51,3.97-.34,2.29-.51,3.65-.51,4.08,0,4.26,1.79,6.39,5.37,6.39,4.05,0,7.45-2.37,10.21-7.12,2.76-4.75,4.75-12.16,5.99-22.24,1.24-10.08,3.11-17.2,5.61-21.35,2.51-4.15,5.43-7.1,8.78-8.83,3.35-1.74,5.67-2.61,6.96-2.61,.89,0,1.92,.84,3.06,2.52Zm-10.1-13.96c7.55,0,13.57,1.83,18.05,5.5,4.48,3.67,6.71,8.57,6.71,14.69,0,5.66-1.66,10.2-4.97,13.62-3.31,3.42-6.17,5.13-8.57,5.13-.9,0-1.91-.39-3.03-1.18-1.13-.79-1.69-1.5-1.69-2.15,0-.36,.84-1.65,2.52-3.87,3.94-4.87,5.91-9.7,5.91-14.5,0-4.05-1.36-7.26-4.08-9.64-2.72-2.38-6.41-3.57-11.06-3.57-7.02,0-13.37,2.14-19.07,6.42-5.69,4.28-8.54,8.96-8.54,14.05,0,3.37,1.54,5.68,4.62,6.93,1.22,.54,1.83,1.27,1.83,2.2s-1.34,2.09-4.03,3.38-4.57,1.93-5.64,1.93c-1.61,0-3.13-1.07-4.57-3.2-1.43-2.13-2.15-4.45-2.15-6.96,0-6.73,3.62-13.21,10.85-19.44,7.23-6.23,16.2-9.35,26.91-9.35Z"/><path class="cls-5" d="M595.24,1664.42c-4.55,4.48-8.63,7.78-12.25,9.91-3.62,2.13-7.61,3.2-11.98,3.2-4.87,0-8.8-1.56-11.79-4.67-2.99-3.12-4.48-7.21-4.48-12.3,0-7.59,2.63-14.46,7.9-20.6,5.26-6.14,11.1-9.21,17.51-9.21,3.33,0,6,.86,8,2.58,2,1.72,3.01,3.97,3.01,6.77,0,7.41-7.88,13.43-23.63,18.05,1.43,6.98,5.17,10.47,11.23,10.47,2.36,0,4.62-.64,6.77-1.91,2.15-1.27,5.39-4.09,9.72-8.46v6.18Zm-28.14-9.94c9.17-2.58,13.75-7.34,13.75-14.29,0-3.44-1.25-5.16-3.76-5.16-2.36,0-4.62,1.8-6.77,5.4-2.15,3.6-3.22,8.28-3.22,14.04Z"/><path class="cls-5" d="M647.99,1664.42c-8.27,8.74-15.36,13.11-21.27,13.11-2.4,0-4.33-.84-5.8-2.52-1.47-1.68-2.2-3.94-2.2-6.77,0-3.83,1.58-9.69,4.73-17.56,1.68-4.22,2.52-6.91,2.52-8.06s-.45-1.72-1.34-1.72c-.5,0-1.16,.25-1.99,.75-.75,.5-1.63,1.2-2.63,2.09-.9,.82-1.9,1.83-3.01,3.01-.97,1-2.01,2.15-3.12,3.44l-3.01,3.49c-1.33,1.61-2.15,3.31-2.47,5.1-.54,3.04-.9,5.84-1.07,8.38-.11,1.9-.16,4.46-.16,7.68l-11.87,2.79c-.39-4.83-.59-8.43-.59-10.8,0-5.76,.67-11.23,2.01-16.38,1.34-5.16,3.5-10.96,6.47-17.4l13.11-2.52c-2.76,7.41-4.57,13.25-5.42,17.51,5.87-6.55,10.53-11.09,13.98-13.62,3.45-2.53,6.51-3.79,9.2-3.79,1.82,0,3.34,.69,4.56,2.07,1.22,1.38,1.82,3.1,1.82,5.18,0,3.43-1.54,9.09-4.62,16.97-2.11,5.41-3.17,8.92-3.17,10.53,0,2.15,.88,3.23,2.64,3.23,2.62,0,6.86-3.46,12.71-10.37v6.18Z"/><path class="cls-5" d="M678.87,1664.42c-4.51,4.48-8.42,7.78-11.71,9.91-3.29,2.13-6.43,3.2-9.4,3.2s-5.58-1.3-7.49-3.89c-1.92-2.6-2.87-6.01-2.87-10.23,0-3.72,.92-8.64,2.76-14.75l2.28-8.13-4.12,.21,1.72-8.43,5.11-.21,5.04-16.76,14.35-2.95-5.55,18.68,7.58-.43-1.77,8.27-8.33,.64-3.58,12.04c-1.24,4.18-1.87,7.51-1.87,9.98,0,1.68,.42,3.05,1.26,4.11,.84,1.06,1.93,1.58,3.25,1.58,1.83,0,3.64-.58,5.43-1.75,1.79-1.16,4.43-3.59,7.91-7.28v6.18Z"/><path class="cls-5" d="M736.18,1664.42c-5.73,5.44-9.83,8.99-12.3,10.63s-4.83,2.47-7.09,2.47c-5.66,0-8.33-5-8-14.99-3.58,5.12-6.88,8.9-9.91,11.33-3.03,2.43-6.15,3.65-9.37,3.65s-5.83-1.48-8.03-4.43c-2.2-2.96-3.3-6.58-3.3-10.88,0-5.37,1.48-10.49,4.43-15.36,2.95-4.87,6.74-8.81,11.36-11.82s8.7-4.51,12.25-4.51c4.48,0,7.61,2.06,9.4,6.18l10.98-6.07h3.01l-4.74,15.74c-2.44,7.91-3.66,13.34-3.66,16.28s1.09,4.62,3.27,4.62c1.4,0,2.93-.74,4.62-2.23,1.68-1.49,4.04-3.75,7.09-6.79v6.18Zm-39.32,2.95c3.58,0,6.96-3.05,10.12-9.16,3.17-6.1,4.75-11.74,4.75-16.89,0-2-.45-3.57-1.34-4.7-.9-1.13-2.09-1.69-3.6-1.69-3.58,0-6.97,3.04-10.18,9.13-3.2,6.09-4.81,11.69-4.81,16.81,0,1.93,.47,3.5,1.42,4.7,.95,1.2,2.16,1.8,3.62,1.8Z"/><path class="cls-5" d="M776.3,1664.42c-4.58,4.51-8.78,7.82-12.6,9.94-3.81,2.11-7.8,3.17-11.95,3.17-4.66,0-8.5-1.51-11.52-4.54s-4.54-6.87-4.54-11.52c0-7.63,2.78-14.67,8.35-21.13,5.57-6.46,11.59-9.7,18.07-9.7,3.19,0,5.78,.89,7.79,2.66,2,1.77,3.01,4.07,3.01,6.9,0,1-.19,1.75-.56,2.26-.38,.5-1.08,1-2.12,1.5l-6.23,2.95c-.75,.36-1.31,.54-1.67,.54-.5,0-.75-.36-.75-1.07,0-.29,.11-1.23,.32-2.82,.21-1.59,.32-2.57,.32-2.93,0-1.58-.33-2.85-.99-3.81-.66-.97-1.55-1.45-2.66-1.45-2.61,0-5,1.93-7.17,5.8-2.17,3.87-3.25,8.27-3.25,13.21,0,4.26,1.02,7.66,3.06,10.21,2.04,2.54,4.76,3.81,8.16,3.81,2.9,0,5.63-.83,8.19-2.5,2.56-1.67,5.47-4.22,8.73-7.65v6.18Z"/><path class="cls-5" d="M811.86,1664.42c-4.87,4.48-9.14,7.78-12.81,9.91-3.67,2.13-7.17,3.2-10.5,3.2-3.83,0-6.92-1.49-9.27-4.46-2.34-2.97-3.52-6.96-3.52-11.98,0-7.52,1.63-16.54,4.89-27.07,3.26-10.53,7.21-20.23,11.87-29.11l13.64-5.05c.43-.14,.75-.21,.97-.21,1.04,0,1.89,.76,2.55,2.28,.66,1.52,.99,3.57,.99,6.15,0,7.3-1.68,14.38-5.05,21.22-3.37,6.84-8.63,14.14-15.79,21.91-.29,3.72-.43,6.28-.43,7.68,0,3.12,.57,5.59,1.72,7.41,1.15,1.83,2.67,2.74,4.57,2.74s3.99-.7,6.18-2.09c2.18-1.4,5.51-4.3,9.99-8.7v6.18Zm-20.57-21c4.55-5.06,8.24-10.72,11.06-17,2.83-6.27,4.24-11.67,4.24-16.19,0-1.33-.2-2.39-.59-3.2-.39-.81-.9-1.21-1.5-1.21-1.33,0-3.25,3.3-5.77,9.9-2.52,6.6-5,15.83-7.44,27.7Z"/><path class="cls-5" d="M852.03,1664.42c-4.55,4.48-8.63,7.78-12.25,9.91-3.62,2.13-7.61,3.2-11.98,3.2-4.87,0-8.8-1.56-11.79-4.67-2.99-3.12-4.48-7.21-4.48-12.3,0-7.59,2.63-14.46,7.9-20.6,5.26-6.14,11.1-9.21,17.51-9.21,3.33,0,6,.86,8,2.58,2,1.72,3.01,3.97,3.01,6.77,0,7.41-7.88,13.43-23.63,18.05,1.43,6.98,5.17,10.47,11.23,10.47,2.36,0,4.62-.64,6.77-1.91,2.15-1.27,5.39-4.09,9.72-8.46v6.18Zm-28.14-9.94c9.17-2.58,13.75-7.34,13.75-14.29,0-3.44-1.25-5.16-3.76-5.16-2.36,0-4.62,1.8-6.77,5.4-2.15,3.6-3.22,8.28-3.22,14.04Z"/><path class="cls-5" d="M868.58,1632.94c2.47-.64,4.96-1.17,7.47-1.58,2.51-.41,4.01-.62,4.51-.62,.36,0,.54,.14,.54,.43,0,.54-.14,1.09-.43,1.66-.57,1.65-.86,3.22-.86,4.72,0,1.86,1.08,4.4,3.23,7.63,2.15,3.22,3.22,6.22,3.22,8.97,0,5.48-2.62,10.76-7.87,15.84-5.25,5.08-10.68,7.63-16.3,7.63-2.44,0-4.66-.64-6.66-1.93-2.01-1.29-3.01-2.67-3.01-4.14,0-.86,.99-2.49,2.98-4.89,1.99-2.4,3.41-3.6,4.27-3.6,1.15,0,2.17,1.47,3.06,4.4,.89,2.94,2.43,4.4,4.62,4.4s4.23-1.01,6.15-3.04c1.92-2.02,2.87-4.2,2.87-6.53,0-2.26-1.21-5.26-3.65-9.02-2.44-3.76-4.05-6.91-4.84-9.45-4.15,6.7-9.42,13.55-15.79,20.57h-1.24v-4.83c8.77-9.35,14.68-18.23,17.72-26.64Z"/></g><g><path class="cls-3" d="M410.88,142.03c-5.1,5.49-9.75,8.24-13.95,8.24-2.55,0-4.5-1.23-5.83-3.69-1.33-2.46-2-5.75-2-9.88,0-3.19,.65-7.58,1.96-13.16,1.31-5.58,3-10.28,5.08-14.08l1.98-3.55c-2.71,2.83-4.93,5.92-6.67,9.28-1.73,3.36-3.8,8.06-6.2,14.1-2.4,6.04-4.22,10.15-5.45,12.34s-2.41,3.97-3.54,5.35c-1.13,1.38-2.13,2.27-3.01,2.68-.88,.41-2.41,.62-4.6,.62-.84,0-1.26-.23-1.26-.68,0-.05,.15-.76,.45-2.15,.3-1.39,.61-3.62,.92-6.68,.31-3.06,.54-8.27,.68-15.62s1.21-13.64,3.21-18.88c-2.14,2.44-4.33,8.11-6.57,17.02l-.86,3.35c-2.35,9.27-5.04,15.53-8.08,18.78-3.03,3.25-6.01,4.87-8.93,4.87-1.8,0-3.39-.57-4.76-1.71s-2.05-2.45-2.05-3.93c0-1.14,.82-2.42,2.46-3.83,1.64-1.41,2.68-2.12,3.11-2.12,.5,0,.83,.17,.99,.51,.16,.34,.37,1.28,.62,2.82s.63,2.54,1.15,3.01c.51,.47,1.16,.7,1.94,.7,1.76,0,3.7-1.76,5.83-5.28s4.07-8.96,5.83-16.32l.99-4.14c.8-3.37,1.59-6.06,2.37-8.07,.78-2,1.8-4.01,3.08-6.02,1.85-2.87,2.99-4.4,3.41-4.6,.42-.19,1.21-.35,2.38-.48,1.16-.12,2.32-.19,3.49-.19,.46,0,.68,.26,.68,.79,0,.25-.07,.76-.21,1.54-.45,3.19-.66,6.39-.64,9.6l.07,9.16c.04,7.98-.59,14.41-1.91,19.31,1.21-1.46,2.96-5.22,5.26-11.28,3.33-8.59,6.36-15.04,9.09-19.35,1.3-2.07,2.87-4.06,4.7-5.96,1.83-1.9,3.1-2.92,3.81-3.06,2.42-.46,4.45-.68,6.12-.68,.62,0,.92,.17,.92,.51,0,.48-.38,1.55-1.12,3.21-1.77,4.01-3.43,9.44-4.96,16.27s-2.31,12.28-2.32,16.33c0,4.58,1.4,6.87,4.2,6.87,2.28,0,4.99-1.94,8.13-5.81v3.93Z"/><path class="cls-3" d="M427.66,142.03c-5.33,5.61-9.32,8.41-11.96,8.41-1.46,0-2.69-.75-3.69-2.24-1-1.49-1.5-3.37-1.5-5.62,0-4.85,1.64-11.58,4.92-20.17l8.68-1.81h.41l-3.42,10.7c-1.41,4.42-2.12,7.58-2.12,9.47,0,.75,.17,1.36,.5,1.83,.33,.47,.75,.7,1.25,.7,.89,0,1.78-.32,2.68-.97s2.32-2.06,4.26-4.22v3.93Zm-.68-34.79c0,5.47-2.02,8.2-6.05,8.2-1.96,0-3.63-.59-5.02-1.78,1.32-2,2.35-4.26,3.08-6.77,1.8,1.12,3.25,1.67,4.34,1.67,1.23,0,2.45-.44,3.66-1.33Z"/><path class="cls-3" d="M461.22,142.03c-5.26,5.56-9.78,8.34-13.54,8.34-1.53,0-2.76-.54-3.69-1.61-.93-1.07-1.4-2.51-1.4-4.31,0-2.44,1-6.16,3.01-11.18,1.07-2.69,1.61-4.4,1.61-5.13s-.29-1.09-.85-1.09c-.32,0-.74,.16-1.26,.48-.48,.32-1.04,.76-1.67,1.33-.57,.52-1.21,1.16-1.91,1.91-.62,.64-1.28,1.37-1.98,2.19l-1.91,2.22c-.84,1.03-1.37,2.11-1.57,3.25-.34,1.94-.57,3.71-.68,5.33-.07,1.21-.1,2.84-.1,4.89l-7.55,1.78c-.25-3.08-.38-5.37-.38-6.87,0-3.67,.43-7.14,1.28-10.42,.86-3.28,2.23-6.97,4.12-11.07l8.34-1.61c-1.75,4.72-2.91,8.43-3.45,11.14,3.73-4.17,6.7-7.06,8.89-8.66,2.19-1.61,4.15-2.41,5.85-2.41,1.16,0,2.13,.44,2.9,1.31,.77,.88,1.16,1.97,1.16,3.29,0,2.18-.98,5.78-2.94,10.8-1.34,3.44-2.02,5.68-2.02,6.7,0,1.37,.56,2.06,1.68,2.06,1.67,0,4.36-2.2,8.09-6.6v3.93Z"/><path class="cls-3" d="M491.88,142.03c-1.16,1.03-2.29,1.75-3.38,2.17-1.09,.42-1.96,.63-2.6,.63-1.64,0-3.27-.64-4.89-1.91-3.28,4.97-7.04,7.45-11.28,7.45-2.64,0-4.79-.99-6.43-2.97s-2.46-4.61-2.46-7.9c0-5.2,1.85-9.66,5.54-13.38s8.1-5.59,13.23-5.59c1.94,0,3.35,.21,4.25,.63,.9,.42,1.45,.92,1.66,1.49,.21,.57,.31,1.29,.31,2.15,0,4.26-1.16,9.49-3.49,15.69,1.16,1.07,2.38,1.61,3.66,1.61,1.53,0,3.49-1.33,5.88-4v3.93Zm-11.28-19.11c-.34-.14-.83-.21-1.47-.21-2.96,0-5.28,1.55-6.96,4.65-1.67,3.1-2.51,6.72-2.51,10.87,0,2.3,.36,4.09,1.09,5.37,.73,1.28,1.74,1.91,3.04,1.91,1.62,0,3.37-1.49,5.26-4.48-2.14-2.69-3.21-5.58-3.21-8.68,0-3.65,1.58-6.79,4.75-9.43Z"/><path class="cls-3" d="M517.42,142.03c-5.72,5.61-10.13,8.41-13.23,8.41-1.39,0-2.56-.59-3.52-1.76s-1.44-2.63-1.44-4.36c0-3.21,1.72-7.52,5.16-12.92-1.69,.87-3.53,1.47-5.54,1.81-1.48,2.73-3.81,5.67-6.97,8.82h-.79v-3.08c1.78-1.85,3.38-3.83,4.82-5.95-1.96-.87-2.94-2.15-2.94-3.86s.6-3.63,1.79-5.62c1.2-1.99,2.84-2.99,4.94-2.99,1.78,0,2.67,.91,2.67,2.73,0,1.44-.51,3.49-1.54,6.15,3.78-.41,7.09-3.3,9.91-8.68l3.11-.14-3.18,8.75c-1.32,3.69-2.18,6.2-2.56,7.54-.39,1.33-.58,2.51-.58,3.54,0,.96,.22,1.72,.67,2.29,.44,.57,1.04,.85,1.79,.85,.82,0,1.61-.28,2.36-.84,.75-.56,2.44-2.1,5.06-4.63v3.93Z"/><path class="cls-3" d="M582.32,142.06c-5.24,5.58-10.05,8.37-14.42,8.37-2.42,0-4.33-.85-5.74-2.56-1.41-1.71-2.2-4.15-2.36-7.31-2.76,3.35-5.2,5.83-7.33,7.45s-4.4,2.43-6.82,2.43c-3.1,0-5.59-1.34-7.47-4.02-1.88-2.68-2.82-6.25-2.82-10.72,0-5.33,1.23-10.83,3.69-16.49,2.46-5.66,6.11-10.13,10.94-13.42,4.83-3.28,10.69-4.92,17.57-4.92,5.15,0,9.81,.7,13.98,2.08v2.26c-3.4,3.96-6.24,9.51-8.53,16.65-2.29,7.13-3.44,12.57-3.44,16.3,0,1.82,.37,3.24,1.11,4.24,.74,1,1.77,1.5,3.09,1.5,2.37,0,5.22-1.93,8.54-5.78v3.93Zm-9.95-36.85c-2.1-1.14-4.35-1.71-6.77-1.71-3.81,0-7.24,1.59-10.29,4.77-3.05,3.18-5.46,7.39-7.23,12.63-1.77,5.24-2.65,9.79-2.65,13.64,0,2.58,.5,4.67,1.49,6.27,.99,1.61,2.26,2.41,3.81,2.41,2.69,0,5.78-2.45,9.26-7.35,1.44-12.85,5.56-23.07,12.37-30.66Z"/><path class="cls-3" d="M607.85,142.03c-5.72,5.61-10.13,8.41-13.23,8.41-1.39,0-2.56-.59-3.52-1.76s-1.44-2.63-1.44-4.36c0-3.21,1.72-7.52,5.16-12.92-1.69,.87-3.53,1.47-5.54,1.81-1.48,2.73-3.81,5.67-6.97,8.82h-.79v-3.08c1.78-1.85,3.38-3.83,4.82-5.95-1.96-.87-2.94-2.15-2.94-3.86s.6-3.63,1.79-5.62c1.2-1.99,2.84-2.99,4.94-2.99,1.78,0,2.67,.91,2.67,2.73,0,1.44-.51,3.49-1.54,6.15,3.78-.41,7.09-3.3,9.91-8.68l3.11-.14-3.18,8.75c-1.32,3.69-2.18,6.2-2.56,7.54-.39,1.33-.58,2.51-.58,3.54,0,.96,.22,1.72,.67,2.29,.44,.57,1.04,.85,1.79,.85,.82,0,1.61-.28,2.36-.84,.75-.56,2.44-2.1,5.06-4.63v3.93Z"/><path class="cls-3" d="M633.42,142.03c-2.92,2.87-5.59,4.98-8.02,6.32-2.43,1.34-4.96,2.02-7.6,2.02-2.96,0-5.41-.96-7.33-2.89-1.93-1.93-2.89-4.37-2.89-7.33,0-4.85,1.77-9.34,5.31-13.45,3.54-4.11,7.38-6.17,11.5-6.17,2.03,0,3.68,.56,4.96,1.69,1.28,1.13,1.91,2.59,1.91,4.39,0,.64-.12,1.12-.36,1.44-.24,.32-.69,.64-1.35,.96l-3.96,1.88c-.48,.23-.83,.34-1.06,.34-.32,0-.48-.23-.48-.68,0-.18,.07-.78,.21-1.79,.14-1.01,.21-1.63,.21-1.86,0-1-.21-1.81-.63-2.43s-.99-.92-1.69-.92c-1.66,0-3.18,1.23-4.56,3.69-1.38,2.46-2.07,5.26-2.07,8.41,0,2.71,.65,4.88,1.95,6.49,1.3,1.62,3.03,2.43,5.2,2.43,1.85,0,3.58-.53,5.21-1.59s3.48-2.68,5.55-4.87v3.93Z"/><path class="cls-3" d="M669.92,142.03c-3.65,3.46-6.25,5.72-7.83,6.77s-3.08,1.57-4.51,1.57c-3.6,0-5.3-3.18-5.09-9.54-2.28,3.26-4.38,5.66-6.31,7.21s-3.91,2.32-5.96,2.32-3.71-.94-5.11-2.82c-1.4-1.88-2.1-4.19-2.1-6.92,0-3.42,.94-6.68,2.82-9.78,1.88-3.1,4.29-5.61,7.23-7.52s5.54-2.87,7.79-2.87c2.85,0,4.84,1.31,5.98,3.93l6.99-3.86h1.92l-3.01,10.02c-1.55,5.04-2.33,8.49-2.33,10.36s.69,2.94,2.08,2.94c.89,0,1.87-.47,2.94-1.42,1.07-.95,2.57-2.39,4.51-4.32v3.93Zm-25.02,1.88c2.28,0,4.43-1.94,6.44-5.83,2.02-3.88,3.02-7.47,3.02-10.75,0-1.28-.29-2.27-.85-2.99-.57-.72-1.33-1.08-2.29-1.08-2.28,0-4.44,1.94-6.48,5.81-2.04,3.87-3.06,7.44-3.06,10.7,0,1.23,.3,2.23,.91,2.99,.6,.76,1.37,1.15,2.31,1.15Z"/><path class="cls-3" d="M703.46,142.03c-5.26,5.56-9.78,8.34-13.54,8.34-1.53,0-2.76-.54-3.69-1.61-.93-1.07-1.4-2.51-1.4-4.31,0-2.44,1-6.16,3.01-11.18,1.07-2.69,1.61-4.4,1.61-5.13s-.29-1.09-.85-1.09c-.32,0-.74,.16-1.26,.48-.48,.32-1.04,.76-1.67,1.33-.57,.52-1.21,1.16-1.91,1.91-.62,.64-1.28,1.37-1.98,2.19l-1.91,2.22c-.84,1.03-1.37,2.11-1.57,3.25-.34,1.94-.57,3.71-.68,5.33-.07,1.21-.1,2.84-.1,4.89l-7.55,1.78c-.25-3.08-.38-5.37-.38-6.87,0-3.67,.43-7.14,1.28-10.42,.86-3.28,2.23-6.97,4.12-11.07l8.34-1.61c-1.75,4.72-2.91,8.43-3.45,11.14,3.73-4.17,6.7-7.06,8.89-8.66,2.19-1.61,4.15-2.41,5.85-2.41,1.16,0,2.13,.44,2.9,1.31,.77,.88,1.16,1.97,1.16,3.29,0,2.18-.98,5.78-2.94,10.8-1.34,3.44-2.02,5.68-2.02,6.7,0,1.37,.56,2.06,1.68,2.06,1.67,0,4.36-2.2,8.09-6.6v3.93Z"/><path class="cls-3" d="M739.92,142.03c-3.65,3.46-6.25,5.72-7.83,6.77s-3.08,1.57-4.51,1.57c-3.6,0-5.3-3.18-5.09-9.54-2.28,3.26-4.38,5.66-6.31,7.21s-3.91,2.32-5.96,2.32-3.71-.94-5.11-2.82c-1.4-1.88-2.1-4.19-2.1-6.92,0-3.42,.94-6.68,2.82-9.78,1.88-3.1,4.29-5.61,7.23-7.52s5.54-2.87,7.79-2.87c2.85,0,4.84,1.31,5.98,3.93l6.99-3.86h1.92l-3.01,10.02c-1.55,5.04-2.33,8.49-2.33,10.36s.69,2.94,2.08,2.94c.89,0,1.87-.47,2.94-1.42,1.07-.95,2.57-2.39,4.51-4.32v3.93Zm-25.02,1.88c2.28,0,4.43-1.94,6.44-5.83,2.02-3.88,3.02-7.47,3.02-10.75,0-1.28-.29-2.27-.85-2.99-.57-.72-1.33-1.08-2.29-1.08-2.28,0-4.44,1.94-6.48,5.81-2.04,3.87-3.06,7.44-3.06,10.7,0,1.23,.3,2.23,.91,2.99,.6,.76,1.37,1.15,2.31,1.15Z"/></g><g><path class="cls-3" d="M447.87,1823.7c-1.49,1.35-2.57,2.91-3.25,4.7-.68,1.79-1.37,5.52-2.09,11.18-.72,5.66-1.87,10.12-3.45,13.38s-4.08,5.98-7.49,8.15c-3.41,2.18-7.15,3.26-11.23,3.26-2.89,0-5.25-.72-7.06-2.15s-2.72-3.27-2.72-5.5c0-.84,.26-1.53,.79-2.07,.52-.54,1.59-1.26,3.21-2.17,1.62-.91,2.71-1.37,3.28-1.37,.39,0,.72,.13,.99,.39,.27,.26,.41,.58,.41,.94,0,.23-.11,1.07-.33,2.53-.22,1.46-.32,2.32-.32,2.6,0,2.71,1.14,4.07,3.42,4.07,2.57,0,4.74-1.51,6.49-4.53,1.75-3.02,3.03-7.74,3.81-14.15,.79-6.41,1.98-10.94,3.57-13.59,1.59-2.64,3.46-4.52,5.59-5.62,2.13-1.1,3.61-1.66,4.43-1.66,.57,0,1.22,.54,1.95,1.61Zm-6.43-8.89c4.81,0,8.64,1.17,11.48,3.5,2.85,2.34,4.27,5.45,4.27,9.35,0,3.6-1.05,6.49-3.16,8.66-2.11,2.18-3.93,3.26-5.45,3.26-.57,0-1.21-.25-1.93-.75-.72-.5-1.08-.96-1.08-1.37,0-.23,.54-1.05,1.61-2.46,2.51-3.1,3.76-6.17,3.76-9.23,0-2.57-.87-4.62-2.6-6.14-1.73-1.52-4.08-2.27-7.04-2.27-4.47,0-8.51,1.36-12.13,4.08-3.62,2.72-5.43,5.7-5.43,8.94,0,2.14,.98,3.61,2.94,4.41,.77,.34,1.16,.81,1.16,1.4s-.85,1.33-2.56,2.15-2.91,1.23-3.59,1.23c-1.03,0-1.99-.68-2.91-2.03-.91-1.36-1.37-2.83-1.37-4.43,0-4.28,2.3-8.41,6.9-12.37,4.6-3.96,10.31-5.95,17.12-5.95Z"/><path class="cls-3" d="M479.21,1856.03c-2.89,2.85-5.49,4.95-7.79,6.31-2.3,1.36-4.84,2.03-7.62,2.03-3.1,0-5.6-.99-7.5-2.97s-2.85-4.59-2.85-7.83c0-4.83,1.67-9.2,5.02-13.11,3.35-3.91,7.06-5.86,11.14-5.86,2.12,0,3.82,.55,5.09,1.64,1.28,1.09,1.91,2.53,1.91,4.31,0,4.72-5.01,8.54-15.04,11.48,.91,4.44,3.29,6.67,7.14,6.67,1.5,0,2.94-.4,4.31-1.21,1.37-.81,3.43-2.6,6.19-5.38v3.93Zm-17.91-6.32c5.83-1.64,8.75-4.67,8.75-9.09,0-2.19-.8-3.28-2.39-3.28-1.5,0-2.94,1.15-4.31,3.44s-2.05,5.27-2.05,8.94Z"/><path class="cls-3" d="M512.78,1856.03c-5.26,5.56-9.78,8.34-13.54,8.34-1.53,0-2.76-.54-3.69-1.61-.93-1.07-1.4-2.51-1.4-4.31,0-2.44,1-6.16,3.01-11.18,1.07-2.69,1.61-4.4,1.61-5.13s-.29-1.09-.85-1.09c-.32,0-.74,.16-1.26,.48-.48,.32-1.04,.76-1.67,1.33-.57,.52-1.21,1.16-1.91,1.91-.62,.64-1.28,1.37-1.98,2.19l-1.91,2.22c-.84,1.03-1.37,2.11-1.57,3.25-.34,1.94-.57,3.71-.68,5.33-.07,1.21-.1,2.84-.1,4.89l-7.55,1.78c-.25-3.08-.38-5.37-.38-6.87,0-3.67,.43-7.14,1.28-10.42,.86-3.28,2.23-6.97,4.12-11.07l8.34-1.61c-1.75,4.72-2.91,8.43-3.45,11.14,3.73-4.17,6.7-7.06,8.89-8.66,2.19-1.61,4.15-2.41,5.85-2.41,1.16,0,2.13,.44,2.9,1.31,.77,.88,1.16,1.97,1.16,3.29,0,2.18-.98,5.78-2.94,10.8-1.34,3.44-2.02,5.68-2.02,6.7,0,1.37,.56,2.06,1.68,2.06,1.67,0,4.36-2.2,8.09-6.6v3.93Z"/><path class="cls-3" d="M532.43,1856.03c-2.87,2.85-5.36,4.95-7.45,6.31-2.1,1.36-4.09,2.03-5.98,2.03s-3.55-.83-4.77-2.48c-1.22-1.65-1.83-3.82-1.83-6.51,0-2.37,.58-5.5,1.75-9.39l1.45-5.17-2.62,.14,1.09-5.37,3.25-.14,3.21-10.66,9.13-1.87-3.53,11.89,4.83-.27-1.13,5.26-5.3,.41-2.28,7.66c-.79,2.66-1.19,4.78-1.19,6.35,0,1.07,.27,1.94,.8,2.62s1.23,1.01,2.07,1.01c1.16,0,2.32-.37,3.46-1.11,1.14-.74,2.82-2.28,5.03-4.63v3.93Z"/><path class="cls-3" d="M568.9,1856.03c-3.65,3.46-6.25,5.72-7.83,6.77s-3.08,1.57-4.51,1.57c-3.6,0-5.3-3.18-5.09-9.54-2.28,3.26-4.38,5.66-6.31,7.21s-3.91,2.32-5.96,2.32-3.71-.94-5.11-2.82c-1.4-1.88-2.1-4.19-2.1-6.92,0-3.42,.94-6.68,2.82-9.78,1.88-3.1,4.29-5.61,7.23-7.52s5.54-2.87,7.79-2.87c2.85,0,4.84,1.31,5.98,3.93l6.99-3.86h1.92l-3.01,10.02c-1.55,5.04-2.33,8.49-2.33,10.36s.69,2.94,2.08,2.94c.89,0,1.87-.47,2.94-1.42,1.07-.95,2.57-2.39,4.51-4.32v3.93Zm-25.02,1.88c2.28,0,4.43-1.94,6.44-5.83,2.02-3.88,3.02-7.47,3.02-10.75,0-1.28-.29-2.27-.85-2.99-.57-.72-1.33-1.08-2.29-1.08-2.28,0-4.44,1.94-6.48,5.81-2.04,3.87-3.06,7.44-3.06,10.7,0,1.23,.3,2.23,.91,2.99,.6,.76,1.37,1.15,2.31,1.15Z"/><path class="cls-3" d="M594.43,1856.03c-2.92,2.87-5.59,4.98-8.02,6.32-2.43,1.34-4.96,2.02-7.6,2.02-2.96,0-5.41-.96-7.33-2.89-1.93-1.93-2.89-4.37-2.89-7.33,0-4.85,1.77-9.34,5.31-13.45,3.54-4.11,7.38-6.17,11.5-6.17,2.03,0,3.68,.56,4.96,1.69,1.28,1.13,1.91,2.59,1.91,4.39,0,.64-.12,1.12-.36,1.44-.24,.32-.69,.64-1.35,.96l-3.96,1.88c-.48,.23-.83,.34-1.06,.34-.32,0-.48-.23-.48-.68,0-.18,.07-.78,.21-1.79,.14-1.01,.21-1.63,.21-1.86,0-1-.21-1.81-.63-2.43s-.99-.92-1.69-.92c-1.66,0-3.18,1.23-4.56,3.69-1.38,2.46-2.07,5.26-2.07,8.41,0,2.71,.65,4.88,1.95,6.49,1.3,1.62,3.03,2.43,5.2,2.43,1.85,0,3.58-.53,5.21-1.59s3.48-2.68,5.55-4.87v3.93Z"/><path class="cls-3" d="M617.06,1856.03c-3.1,2.85-5.82,4.95-8.15,6.31s-4.56,2.03-6.68,2.03c-2.44,0-4.4-.95-5.9-2.84-1.49-1.89-2.24-4.43-2.24-7.62,0-4.79,1.04-10.53,3.11-17.23,2.07-6.7,4.59-12.87,7.55-18.53l8.68-3.21c.27-.09,.48-.14,.62-.14,.66,0,1.2,.48,1.62,1.45,.42,.97,.63,2.27,.63,3.91,0,4.65-1.07,9.15-3.21,13.5-2.14,4.35-5.49,9-10.05,13.95-.18,2.37-.27,4-.27,4.89,0,1.98,.36,3.55,1.09,4.72,.73,1.16,1.7,1.74,2.91,1.74s2.54-.44,3.93-1.33c1.39-.89,3.51-2.73,6.36-5.54v3.93Zm-13.09-13.36c2.89-3.22,5.24-6.82,7.04-10.82,1.8-3.99,2.7-7.43,2.7-10.3,0-.84-.13-1.52-.38-2.04-.25-.51-.57-.77-.96-.77-.84,0-2.07,2.1-3.67,6.3-1.61,4.2-3.18,10.07-4.73,17.63Z"/><path class="cls-3" d="M642.62,1856.03c-2.89,2.85-5.49,4.95-7.79,6.31-2.3,1.36-4.84,2.03-7.62,2.03-3.1,0-5.6-.99-7.5-2.97s-2.85-4.59-2.85-7.83c0-4.83,1.67-9.2,5.02-13.11,3.35-3.91,7.06-5.86,11.14-5.86,2.12,0,3.82,.55,5.09,1.64,1.28,1.09,1.91,2.53,1.91,4.31,0,4.72-5.01,8.54-15.04,11.48,.91,4.44,3.29,6.67,7.14,6.67,1.5,0,2.94-.4,4.31-1.21,1.37-.81,3.43-2.6,6.19-5.38v3.93Zm-17.91-6.32c5.83-1.64,8.75-4.67,8.75-9.09,0-2.19-.8-3.28-2.39-3.28-1.5,0-2.94,1.15-4.31,3.44s-2.05,5.27-2.05,8.94Z"/><path class="cls-3" d="M653.15,1836c1.57-.41,3.16-.75,4.75-1.01,1.59-.26,2.55-.39,2.87-.39,.23,0,.34,.09,.34,.27,0,.34-.09,.69-.27,1.06-.37,1.05-.55,2.05-.55,3.01,0,1.18,.69,2.8,2.05,4.85s2.05,3.96,2.05,5.71c0,3.49-1.67,6.85-5.01,10.08-3.34,3.24-6.8,4.85-10.37,4.85-1.55,0-2.96-.41-4.24-1.23-1.28-.82-1.91-1.7-1.91-2.63,0-.55,.63-1.58,1.9-3.11,1.26-1.53,2.17-2.29,2.72-2.29,.73,0,1.38,.93,1.95,2.8,.57,1.87,1.55,2.8,2.94,2.8s2.69-.64,3.91-1.93,1.83-2.67,1.83-4.15c0-1.44-.77-3.35-2.32-5.74s-2.58-4.4-3.08-6.02c-2.64,4.26-5.99,8.62-10.05,13.09h-.79v-3.08c5.58-5.95,9.34-11.6,11.28-16.95Z"/></g></g></g><g id="_반짝이"><polygon class="cls-8" points="798.41 581.92 815.57 648.5 870.82 662.18 815.57 677.19 798.41 745 780.33 677.19 726 662.18 780.33 648.5 798.41 581.92"/><polygon class="cls-8" points="199.41 818 211.08 863.29 248.66 872.59 211.08 882.8 199.41 928.92 187.11 882.8 150.16 872.59 187.11 863.29 199.41 818"/><circle class="cls-9" cx="243.5" cy="801.5" r="12.5"/><circle class="cls-8" cx="293" cy="740" r="8"/><circle class="cls-9" cx="294.5" cy="684.5" r="5.5"/><circle class="cls-9" cx="853.5" cy="746.5" r="11.5"/><circle class="cls-8" cx="841.5" cy="786.5" r="8.5"/><circle class="cls-8" cx="807.5" cy="890.5" r="11.5"/><circle class="cls-9" cx="685" cy="611" r="9"/><circle class="cls-8" cx="647" cy="575" r="7"/></g><g id="_펜타클_ace"><path class="cls-6" d="M873.22,1025.76c-1.96,.2-3.88,.54-5.76,.96-4.84-16.57-20.93-27.85-38.71-26-1.9,.2-3.74,.58-5.53,1.05-4.66-18.53-22.33-31.31-41.89-29.28-9.15,.95-17.23,5-23.32,10.99-3.5-26.18-27.2-44.99-53.64-42.25-24.25,2.52-42.51,22.31-43.87,45.88-1.93,0-3.89,.08-5.85,.28-29.55,3.07-51.02,29.52-47.95,59.07,.81,7.77,3.24,14.96,6.91,21.32-13.27,7.1-21.63,21.72-19.98,37.62,2.18,20.97,20.95,36.21,41.92,34.03,9.05-.94,17.03-4.97,23-10.93,9.7,20.24,31.35,33.2,54.95,30.75,13.23-1.37,24.86-7.37,33.48-16.2,12.66,15.78,32.82,25.02,54.44,22.77,27.39-2.85,48.71-23.23,53.98-48.84,8.25,4.41,17.87,6.48,27.87,5.44,26.69-2.77,46.08-26.66,43.31-53.35-2.77-26.69-26.66-46.08-53.35-43.31Z"/><circle class="cls-9" cx="533.83" cy="887" r="224"/><circle class="cls-2" cx="533.83" cy="887.5" r="201"/><circle class="cls-1" cx="533.83" cy="887.5" r="177.5"/><polygon class="cls-4" points="534.86 728.14 553.63 839.58 604.25 815.52 580.19 866.13 694.72 884.91 580.19 903.69 604.25 954.3 553.63 930.24 534.86 1051 516.08 930.24 465.46 954.3 489.52 903.69 372.95 884.91 489.52 866.13 465.46 815.52 516.08 839.58 534.86 728.14"/><path class="cls-6" d="M477.22,1036.76c-1.96,.2-3.88,.54-5.76,.96-4.84-16.57-20.93-27.85-38.71-26-1.9,.2-3.74,.58-5.53,1.05-4.66-18.53-22.33-31.31-41.89-29.28-9.15,.95-17.23,5-23.32,10.99-3.5-26.18-27.2-44.99-53.64-42.25-24.25,2.52-42.51,22.31-43.87,45.88-1.93,0-3.89,.08-5.85,.28-29.55,3.07-51.02,29.52-47.95,59.07,.81,7.77,3.24,14.96,6.91,21.32-13.27,7.1-21.63,21.72-19.98,37.62,2.18,20.97,20.95,36.21,41.92,34.03,9.05-.94,17.03-4.97,23-10.93,9.7,20.24,31.35,33.2,54.95,30.75,13.23-1.37,24.86-7.37,33.48-16.2,12.66,15.78,32.82,25.02,54.44,22.77,27.39-2.85,48.71-23.23,53.98-48.84,8.25,4.41,17.87,6.48,27.87,5.44,26.69-2.77,46.08-26.66,43.31-53.35-2.77-26.69-26.66-46.08-53.35-43.31Z"/></g></svg>