<?xml version="1.0" encoding="UTF-8"?><svg xmlns="http://www.w3.org/2000/svg" viewBox="0 0 1080 1944"><defs><style>.cls-1{fill:#fff;}.cls-2{fill:#f6ef84;}.cls-3{fill:#3f3730;}.cls-4{fill:#4c5fa9;}.cls-5{stroke:#fff;stroke-width:2px;}.cls-5,.cls-6{fill:none;stroke-miterlimit:10;}.cls-6{stroke:#4c5fa9;stroke-linecap:round;stroke-width:4px;}.cls-7{fill:#bad6eb;}.cls-8{fill:#c8c0de;}.cls-9{fill:#b1d4f0;}</style></defs><g id="_배경"><g><rect class="cls-7" width="1080" height="1944"/><rect class="cls-1" x="74.84" y="186.39" width="930.33" height="1606.64" rx="65.21" ry="65.21"/><g><path class="cls-3" d="M322.59,1646.47c1.52,0,2.29,.49,2.29,1.46l-1.41,7.79-.29,14.47c-.2,4.73-.92,9.08-2.17,13.07-1.13,3.71-2.72,7.09-4.75,10.14-1.84,2.81-4.04,5.29-6.62,7.44-2.38,1.99-5,3.67-7.85,5.04-2.66,1.25-5.45,2.19-8.38,2.81-2.7,.62-5.41,.94-8.14,.94-6.37,0-11.36-1.38-14.97-4.13-3.61-2.75-5.42-5.42-5.42-8,0-1.48,1.34-3.4,4.01-5.74,2.67-2.34,4.7-3.52,6.06-3.52,1.68,0,2.52,1.56,2.52,4.69,0,5.08,.83,8.37,2.49,9.87,1.66,1.5,3.88,2.26,6.65,2.26,4.49,0,8.43-1.43,11.81-4.28,3.38-2.85,5.65-6.26,6.83-10.22,1.17-3.96,1.78-9.81,1.82-17.55,.04-7.73,.62-13.06,1.73-15.97,1.11-2.91,3.15-5.4,6.12-7.47,2.97-2.07,5.53-3.11,7.68-3.11Zm21.97-17.99c-1.13,8.4-4.71,12.6-10.72,12.6-2.11,0-6.15-.95-12.13-2.84-5.98-1.89-11.13-2.84-15.47-2.84-5.59,0-10.42,2.07-14.5,6.22-4.08,4.15-6.12,7.77-6.12,10.86s1.88,5.69,5.62,8.04c1.52,.98,2.29,1.86,2.29,2.64,0,1.06-1.08,2.48-3.25,4.28s-3.8,2.7-4.89,2.7c-1.84,0-3.55-1.05-5.16-3.16-1.6-2.11-2.4-4.41-2.4-6.91,0-4.84,1.97-10.13,5.92-15.85,3.95-5.72,9.1-10.39,15.47-14,6.37-3.61,13.05-5.42,20.04-5.42,4.73,0,9.2,.71,13.42,2.14,4.22,1.43,6.86,2.14,7.91,2.14,.94,0,1.74-.27,2.4-.82l.35-.12,1.23,.35Z"/><path class="cls-3" d="M396.88,1695.34c-9.26,9.61-16.88,14.41-22.85,14.41-2.66,0-4.85-.91-6.59-2.72-1.74-1.82-2.61-4.11-2.61-6.88,0-4.69,1.8-11.29,5.39-19.8,1.91-4.61,2.87-7.62,2.87-9.02,0-1.6-.76-2.4-2.29-2.4s-3.83,1.06-6.8,3.19c-2.97,2.13-6.09,5.03-9.38,8.7-1.37,7.19-2.05,15.82-2.05,25.9l-13.07,3.05c-.51-4.1-.76-8.55-.76-13.36,0-11.64,1.6-22.48,4.8-32.52,3.2-10.04,8.24-20.68,15.12-31.93,5.12-2.07,9.58-3.76,13.39-5.07,3.81-1.31,5.99-1.96,6.53-1.96,1.02,0,1.88,.82,2.58,2.46s1.05,3.69,1.05,6.15c0,4.14-1.27,8.72-3.81,13.74-2.54,5.02-6.52,11.08-11.95,18.19,5.2-3.01,8.66-4.9,10.38-5.68,1.72-.78,3.48-1.17,5.28-1.17,1.99,0,3.61,.71,4.84,2.14s1.85,3.31,1.85,5.66c0,3.52-1.4,8.97-4.2,16.35-2.8,7.38-4.2,12.01-4.2,13.88,0,.86,.26,1.62,.79,2.29s1.14,1,1.84,1c2.5,0,7.11-3.77,13.82-11.31v6.74Zm-40.61-24.02c13.95-16.21,20.92-28.16,20.92-35.86,0-2.34-.64-3.52-1.93-3.52-2.15,0-5.21,3.85-9.2,11.54-3.98,7.7-7.25,16.97-9.79,27.83Z"/><path class="cls-3" d="M440.65,1695.34c-4.96,4.88-9.41,8.49-13.36,10.81-3.95,2.32-8.3,3.49-13.07,3.49-5.31,0-9.6-1.7-12.86-5.1-3.26-3.4-4.89-7.87-4.89-13.42,0-8.28,2.87-15.77,8.61-22.47,5.74-6.7,12.11-10.05,19.1-10.05,3.63,0,6.54,.94,8.73,2.81,2.19,1.88,3.28,4.34,3.28,7.38,0,8.09-8.59,14.65-25.78,19.69,1.56,7.62,5.64,11.43,12.25,11.43,2.58,0,5.04-.69,7.38-2.08,2.34-1.39,5.88-4.46,10.61-9.23v6.74Zm-30.7-10.84c10-2.81,15-8.01,15-15.59,0-3.75-1.37-5.62-4.1-5.62-2.58,0-5.04,1.96-7.38,5.89s-3.52,9.03-3.52,15.32Z"/><path class="cls-3" d="M538.27,1695.4c-9.26,9.57-20.43,14.36-33.52,14.36-9.38,0-17.06-2.94-23.06-8.82-6-5.88-8.99-13.43-8.99-22.65s2.17-17.91,6.5-26.19c4.34-8.28,10.01-14.9,17.02-19.86,7.01-4.96,13.9-7.44,20.65-7.44,5.66,0,10.28,1.7,13.86,5.1s5.36,7.81,5.36,13.24c0,7.07-2.16,13.19-6.47,18.37-4.32,5.18-9.37,7.76-15.15,7.76-3.05,0-5.55-.78-7.5-2.34-1.95-1.56-2.93-3.57-2.93-6.04,0-2.11,.84-4.06,2.52-5.86,1.25,2.31,2.97,3.46,5.16,3.46,3.12,0,6.03-1.95,8.7-5.86,2.67-3.91,4.01-8.18,4.01-12.83,0-3.24-.75-5.82-2.26-7.73-1.5-1.91-3.51-2.87-6.01-2.87-3.63,0-7.51,2.27-11.63,6.8-4.12,4.53-7.56,10.35-10.31,17.46-2.75,7.11-4.13,13.87-4.13,20.27,0,8.17,2.31,14.86,6.94,20.1,4.63,5.24,10.52,7.85,17.67,7.85,4.53,0,8.61-1.05,12.25-3.15s7.4-5.39,11.31-9.86v6.74Z"/><path class="cls-3" d="M595.75,1695.34c-9.26,9.61-16.88,14.41-22.85,14.41-2.66,0-4.85-.91-6.59-2.72-1.74-1.82-2.61-4.11-2.61-6.88,0-4.69,1.8-11.29,5.39-19.8,1.91-4.61,2.87-7.62,2.87-9.02,0-1.6-.76-2.4-2.29-2.4s-3.83,1.06-6.8,3.19c-2.97,2.13-6.09,5.03-9.38,8.7-1.37,7.19-2.05,15.82-2.05,25.9l-13.07,3.05c-.51-4.1-.76-8.55-.76-13.36,0-11.64,1.6-22.48,4.8-32.52,3.2-10.04,8.24-20.68,15.12-31.93,5.12-2.07,9.58-3.76,13.39-5.07,3.81-1.31,5.99-1.96,6.53-1.96,1.02,0,1.88,.82,2.58,2.46s1.05,3.69,1.05,6.15c0,4.14-1.27,8.72-3.81,13.74-2.54,5.02-6.52,11.08-11.95,18.19,5.2-3.01,8.66-4.9,10.38-5.68,1.72-.78,3.48-1.17,5.28-1.17,1.99,0,3.61,.71,4.84,2.14s1.85,3.31,1.85,5.66c0,3.52-1.4,8.97-4.2,16.35-2.8,7.38-4.2,12.01-4.2,13.88,0,.86,.26,1.62,.79,2.29s1.14,1,1.84,1c2.5,0,7.11-3.77,13.82-11.31v6.74Zm-40.61-24.02c13.95-16.21,20.92-28.16,20.92-35.86,0-2.34-.64-3.52-1.93-3.52-2.15,0-5.21,3.85-9.2,11.54-3.98,7.7-7.25,16.97-9.79,27.83Z"/><path class="cls-3" d="M658.27,1695.34c-6.25,5.94-10.72,9.81-13.42,11.6s-5.27,2.7-7.73,2.7c-6.17,0-9.08-5.45-8.73-16.35-3.91,5.59-7.51,9.71-10.81,12.36-3.3,2.66-6.71,3.98-10.22,3.98s-6.36-1.61-8.76-4.83-3.6-7.18-3.6-11.87c0-5.86,1.61-11.45,4.83-16.76,3.22-5.31,7.35-9.61,12.39-12.89s9.49-4.92,13.36-4.92c4.88,0,8.3,2.25,10.25,6.74l11.98-6.62h3.29l-5.17,17.17c-2.66,8.63-3.99,14.55-3.99,17.75s1.19,5.04,3.57,5.04c1.52,0,3.2-.81,5.04-2.43,1.83-1.62,4.41-4.09,7.73-7.41v6.74Zm-42.89,3.22c3.91,0,7.59-3.33,11.04-9.99,3.46-6.66,5.19-12.8,5.19-18.43,0-2.19-.49-3.9-1.46-5.13-.98-1.23-2.29-1.85-3.93-1.85-3.91,0-7.61,3.32-11.1,9.96-3.5,6.64-5.24,12.75-5.24,18.34,0,2.11,.52,3.82,1.55,5.13,1.03,1.31,2.35,1.96,3.96,1.96Z"/><path class="cls-3" d="M702.04,1695.34c-9.81,9.61-17.36,14.41-22.68,14.41-2.38,0-4.39-1.01-6.04-3.02s-2.46-4.5-2.46-7.47c0-5.51,2.95-12.89,8.85-22.15-2.89,1.49-6.06,2.52-9.49,3.11-2.54,4.69-6.52,9.73-11.95,15.12h-1.35v-5.27c3.05-3.16,5.8-6.56,8.26-10.2-3.36-1.48-5.04-3.69-5.04-6.62s1.03-6.22,3.08-9.64c2.05-3.42,4.87-5.13,8.47-5.13,3.05,0,4.57,1.56,4.57,4.69,0,2.46-.88,5.98-2.64,10.55,6.48-.7,12.15-5.66,16.99-14.88l5.33-.23-5.45,15c-2.27,6.33-3.73,10.63-4.39,12.92-.67,2.29-1,4.31-1,6.06,0,1.64,.38,2.95,1.14,3.93,.76,.98,1.79,1.46,3.08,1.46,1.41,0,2.75-.48,4.04-1.44,1.29-.96,4.18-3.6,8.67-7.94v6.74Z"/><path class="cls-3" d="M730.87,1695.34c-9.14,9.61-15.98,14.41-20.51,14.41-2.5,0-4.61-1.28-6.33-3.84-1.72-2.56-2.58-5.77-2.58-9.64,0-8.32,2.81-19.84,8.44-34.57l14.88-3.11h.7l-5.86,18.34c-2.42,7.58-3.63,12.99-3.63,16.23,0,1.29,.28,2.33,.85,3.13,.57,.8,1.28,1.2,2.14,1.2,1.52,0,3.06-.56,4.6-1.67,1.54-1.11,3.97-3.52,7.29-7.24v6.74Zm-1.17-59.65c0,9.38-3.46,14.06-10.37,14.06-3.36,0-6.23-1.02-8.61-3.05,2.26-3.44,4.02-7.3,5.27-11.6,3.08,1.91,5.57,2.87,7.44,2.87,2.11,0,4.2-.76,6.27-2.29Z"/><path class="cls-3" d="M783.49,1695.34c-1.99,1.76-3.93,3-5.8,3.72-1.88,.72-3.36,1.08-4.45,1.08-2.81,0-5.61-1.09-8.38-3.28-5.62,8.52-12.07,12.77-19.34,12.77-4.53,0-8.2-1.7-11.02-5.1s-4.22-7.91-4.22-13.54c0-8.91,3.16-16.55,9.49-22.94s13.89-9.58,22.68-9.58c3.32,0,5.75,.36,7.29,1.08,1.54,.72,2.49,1.57,2.84,2.55,.35,.98,.53,2.21,.53,3.69,0,7.3-1.99,16.27-5.98,26.89,1.99,1.84,4.08,2.75,6.27,2.75,2.62,0,5.98-2.29,10.08-6.86v6.74Zm-19.34-32.75c-.59-.23-1.43-.35-2.52-.35-5.08,0-9.05,2.66-11.92,7.97-2.87,5.31-4.31,11.52-4.31,18.63,0,3.95,.62,7.01,1.88,9.2,1.25,2.19,2.99,3.28,5.21,3.28,2.77,0,5.78-2.56,9.02-7.68-3.67-4.61-5.51-9.57-5.51-14.88,0-6.25,2.71-11.64,8.14-16.17Z"/><path class="cls-3" d="M817.18,1695.34c-4.92,4.88-9.18,8.49-12.77,10.81-3.59,2.32-7.01,3.49-10.25,3.49s-6.08-1.42-8.17-4.25c-2.09-2.83-3.13-6.55-3.13-11.16,0-4.06,1-9.43,3.01-16.09l2.49-8.87-4.5,.23,1.88-9.2,5.57-.23,5.5-18.28,15.65-3.21-6.06,20.38,8.27-.47-1.94,9.02-9.09,.7-3.9,13.13c-1.36,4.56-2.03,8.19-2.03,10.89,0,1.84,.46,3.33,1.38,4.49s2.1,1.73,3.55,1.73c2,0,3.97-.63,5.93-1.9,1.96-1.27,4.83-3.92,8.63-7.94v6.74Z"/></g><g><path class="cls-1" d="M353.98,142.06c-5.24,5.58-10.05,8.37-14.42,8.37-2.42,0-4.33-.85-5.74-2.56s-2.2-4.15-2.36-7.31c-2.76,3.35-5.2,5.83-7.33,7.45-2.13,1.62-4.4,2.43-6.82,2.43-3.1,0-5.59-1.34-7.47-4.02-1.88-2.68-2.82-6.25-2.82-10.71,0-5.33,1.23-10.83,3.69-16.49s6.11-10.13,10.94-13.42,10.69-4.92,17.57-4.92c5.15,0,9.81,.7,13.98,2.09v2.26c-3.4,3.96-6.24,9.51-8.53,16.64-2.29,7.13-3.44,12.57-3.44,16.3,0,1.82,.37,3.24,1.11,4.24,.74,1,1.77,1.5,3.09,1.5,2.37,0,5.22-1.93,8.54-5.78v3.93Zm-9.95-36.85c-2.1-1.14-4.35-1.71-6.77-1.71-3.81,0-7.24,1.59-10.29,4.77s-5.46,7.39-7.23,12.63c-1.77,5.24-2.65,9.79-2.65,13.64,0,2.57,.5,4.67,1.49,6.27,.99,1.61,2.26,2.41,3.81,2.41,2.69,0,5.78-2.45,9.26-7.35,1.44-12.85,5.56-23.07,12.37-30.66Z"/><path class="cls-1" d="M379.51,142.03c-5.72,5.61-10.13,8.41-13.23,8.41-1.39,0-2.56-.59-3.52-1.76s-1.44-2.63-1.44-4.36c0-3.21,1.72-7.52,5.16-12.92-1.69,.87-3.53,1.47-5.54,1.81-1.48,2.73-3.8,5.67-6.97,8.82h-.79v-3.08c1.78-1.85,3.38-3.83,4.82-5.95-1.96-.87-2.94-2.15-2.94-3.86s.6-3.63,1.79-5.62c1.2-1.99,2.84-2.99,4.94-2.99,1.78,0,2.67,.91,2.67,2.73,0,1.44-.51,3.49-1.54,6.15,3.78-.41,7.09-3.3,9.91-8.68l3.11-.14-3.18,8.75c-1.32,3.69-2.18,6.2-2.56,7.54-.39,1.33-.58,2.51-.58,3.54,0,.96,.22,1.72,.67,2.29,.44,.57,1.04,.86,1.79,.86,.82,0,1.61-.28,2.36-.84s2.44-2.1,5.06-4.63v3.93Z"/><path class="cls-1" d="M405.08,142.03c-2.92,2.87-5.59,4.98-8.02,6.32-2.43,1.34-4.96,2.02-7.61,2.02-2.96,0-5.41-.96-7.33-2.89-1.93-1.92-2.89-4.37-2.89-7.33,0-4.85,1.77-9.34,5.31-13.45,3.54-4.11,7.38-6.17,11.5-6.17,2.03,0,3.68,.56,4.96,1.69s1.91,2.59,1.91,4.39c0,.64-.12,1.12-.36,1.44-.24,.32-.69,.64-1.35,.96l-3.96,1.88c-.48,.23-.83,.34-1.06,.34-.32,0-.48-.23-.48-.68,0-.18,.07-.78,.21-1.79,.14-1.01,.21-1.63,.21-1.86,0-1-.21-1.81-.63-2.43s-.99-.92-1.69-.92c-1.66,0-3.19,1.23-4.56,3.69-1.38,2.46-2.07,5.26-2.07,8.41,0,2.71,.65,4.88,1.95,6.49,1.3,1.62,3.03,2.43,5.2,2.43,1.85,0,3.58-.53,5.21-1.59s3.48-2.68,5.55-4.87v3.93Z"/><path class="cls-1" d="M441.58,142.03c-3.65,3.46-6.26,5.72-7.83,6.77-1.57,1.05-3.08,1.57-4.51,1.57-3.6,0-5.3-3.18-5.09-9.54-2.28,3.26-4.38,5.66-6.31,7.21-1.93,1.55-3.91,2.32-5.96,2.32s-3.71-.94-5.11-2.82c-1.4-1.88-2.1-4.19-2.1-6.92,0-3.42,.94-6.68,2.82-9.78,1.88-3.1,4.29-5.61,7.23-7.52s5.54-2.87,7.79-2.87c2.85,0,4.84,1.31,5.98,3.93l6.99-3.86h1.92l-3.02,10.01c-1.55,5.04-2.33,8.49-2.33,10.36,0,1.96,.69,2.94,2.08,2.94,.89,0,1.87-.47,2.94-1.42,1.07-.95,2.57-2.39,4.51-4.32v3.93Zm-25.02,1.88c2.28,0,4.43-1.94,6.44-5.83,2.02-3.88,3.02-7.47,3.02-10.75,0-1.28-.29-2.27-.85-2.99-.57-.72-1.33-1.08-2.29-1.08-2.28,0-4.44,1.94-6.48,5.81-2.04,3.87-3.06,7.44-3.06,10.7,0,1.23,.3,2.23,.91,2.99,.6,.76,1.37,1.15,2.31,1.15Z"/><path class="cls-1" d="M475.11,142.03c-5.26,5.56-9.78,8.34-13.54,8.34-1.53,0-2.76-.54-3.69-1.61-.93-1.07-1.4-2.51-1.4-4.31,0-2.44,1-6.16,3.01-11.18,1.07-2.69,1.61-4.4,1.61-5.13s-.29-1.09-.85-1.09c-.32,0-.74,.16-1.27,.48-.48,.32-1.04,.76-1.67,1.33-.57,.52-1.21,1.16-1.91,1.91-.62,.64-1.28,1.37-1.98,2.19l-1.91,2.22c-.84,1.03-1.37,2.11-1.57,3.25-.34,1.94-.57,3.71-.68,5.33-.07,1.21-.1,2.84-.1,4.89l-7.55,1.78c-.25-3.08-.38-5.37-.38-6.87,0-3.67,.43-7.14,1.28-10.43,.86-3.28,2.23-6.97,4.12-11.07l8.34-1.61c-1.75,4.72-2.9,8.43-3.45,11.14,3.73-4.17,6.7-7.06,8.89-8.67,2.19-1.61,4.14-2.41,5.85-2.41,1.16,0,2.13,.44,2.9,1.31,.77,.88,1.16,1.97,1.16,3.29,0,2.18-.98,5.78-2.94,10.8-1.34,3.44-2.02,5.68-2.02,6.7,0,1.37,.56,2.06,1.68,2.06,1.67,0,4.36-2.2,8.09-6.6v3.93Z"/><path class="cls-1" d="M500.64,142.03c-2.89,2.85-5.49,4.95-7.79,6.31-2.3,1.36-4.84,2.03-7.62,2.03-3.1,0-5.6-.99-7.5-2.97s-2.85-4.59-2.85-7.83c0-4.83,1.67-9.2,5.02-13.11s7.06-5.86,11.14-5.86c2.12,0,3.82,.55,5.09,1.64,1.28,1.09,1.91,2.53,1.91,4.31,0,4.72-5.01,8.54-15.04,11.48,.91,4.44,3.29,6.66,7.14,6.66,1.5,0,2.94-.4,4.31-1.21s3.43-2.6,6.19-5.38v3.93Zm-17.91-6.32c5.83-1.64,8.75-4.67,8.75-9.09,0-2.19-.8-3.28-2.39-3.28-1.5,0-2.94,1.14-4.31,3.43s-2.05,5.27-2.05,8.94Z"/><path class="cls-1" d="M511.17,122c1.57-.41,3.15-.75,4.75-1.01s2.55-.39,2.87-.39c.23,0,.34,.09,.34,.27,0,.34-.09,.69-.27,1.06-.37,1.05-.55,2.05-.55,3.01,0,1.18,.69,2.8,2.05,4.85s2.05,3.96,2.05,5.71c0,3.49-1.67,6.85-5.01,10.08-3.34,3.24-6.8,4.85-10.38,4.85-1.55,0-2.96-.41-4.24-1.23s-1.91-1.7-1.91-2.63c0-.55,.63-1.58,1.9-3.11,1.26-1.53,2.17-2.29,2.72-2.29,.73,0,1.38,.93,1.95,2.8,.57,1.87,1.55,2.8,2.94,2.8s2.7-.64,3.91-1.93,1.83-2.67,1.83-4.15c0-1.44-.77-3.35-2.32-5.74-1.55-2.39-2.58-4.4-3.08-6.01-2.64,4.26-5.99,8.62-10.05,13.09h-.79v-3.08c5.58-5.95,9.34-11.6,11.28-16.95Z"/><path class="cls-1" d="M596.89,142.03c-2.85,2.78-5.29,4.87-7.31,6.26-2.03,1.39-4,2.08-5.91,2.08-1.5,0-2.7-.52-3.57-1.55s-1.31-2.43-1.31-4.19c0-2.46,.62-5.58,1.85-9.37,1.23-3.78,1.85-6.08,1.85-6.9,0-.73-.38-1.09-1.13-1.09-.23,0-.5,.08-.82,.24-.34,.16-.73,.39-1.16,.68-.43,.32-.9,.71-1.4,1.16-.5,.46-1.03,.98-1.57,1.57-.59,.59-1.18,1.24-1.78,1.95-1,1.18-1.59,2.18-1.78,2.97l-1.14,4.89-2.07,8.07-8.66,1.57,3.32-14.08c.25-1.03,.55-2.53,.89-4.51s.51-3.17,.51-3.55c0-.77-.26-1.16-.79-1.16-.16,0-.39,.08-.68,.24-.34,.16-.73,.4-1.16,.72-.5,.37-1.04,.8-1.61,1.3-.62,.55-1.28,1.17-1.98,1.88-.75,.75-1.53,1.58-2.32,2.49-1.09,1.23-1.78,2.67-2.05,4.31-.37,1.96-.62,3.71-.75,5.26-.16,1.55-.25,3.28-.27,5.2l-7.59,1.81c-.18-2.62-.27-4.81-.27-6.56,0-4.17,.43-7.8,1.3-10.89s2.28-6.69,4.24-10.82l8.27-1.61c-1.48,3.71-2.63,7.3-3.45,10.77,6.13-7.13,10.82-10.7,14.08-10.7,1.18,0,2.15,.48,2.89,1.45,.74,.97,1.11,2.24,1.11,3.81,0,.73-.11,2.07-.34,4.03,3.85-3.85,6.62-6.36,8.29-7.54,1.67-1.17,3.22-1.76,4.63-1.76,1.25,0,2.28,.5,3.08,1.5,.8,1,1.2,2.28,1.2,3.83,0,2.44-.67,5.57-2.01,9.4-1.34,3.83-2.01,6.36-2.01,7.59s.46,1.91,1.4,1.91c.59,0,1.42-.39,2.47-1.18,1.06-.79,2.9-2.59,5.54-5.42v3.93Z"/><path class="cls-1" d="M633.4,142.03c-3.65,3.46-6.26,5.72-7.83,6.77-1.57,1.05-3.08,1.57-4.51,1.57-3.6,0-5.3-3.18-5.09-9.54-2.28,3.26-4.38,5.66-6.31,7.21-1.93,1.55-3.91,2.32-5.96,2.32s-3.71-.94-5.11-2.82c-1.4-1.88-2.1-4.19-2.1-6.92,0-3.42,.94-6.68,2.82-9.78,1.88-3.1,4.29-5.61,7.23-7.52s5.54-2.87,7.79-2.87c2.85,0,4.84,1.31,5.98,3.93l6.99-3.86h1.92l-3.02,10.01c-1.55,5.04-2.33,8.49-2.33,10.36,0,1.96,.69,2.94,2.08,2.94,.89,0,1.87-.47,2.94-1.42,1.07-.95,2.57-2.39,4.51-4.32v3.93Zm-25.02,1.88c2.28,0,4.43-1.94,6.44-5.83,2.02-3.88,3.02-7.47,3.02-10.75,0-1.28-.29-2.27-.85-2.99-.57-.72-1.33-1.08-2.29-1.08-2.28,0-4.44,1.94-6.48,5.81-2.04,3.87-3.06,7.44-3.06,10.7,0,1.23,.3,2.23,.91,2.99,.6,.76,1.37,1.15,2.31,1.15Z"/><path class="cls-1" d="M658.93,142.03c-2.15,2.16-4.81,4.1-7.99,5.81-.83,6.22-2.41,11-4.75,14.32-2.34,3.33-4.72,4.99-7.16,4.99-1.53,0-2.83-.63-3.9-1.9s-1.61-2.82-1.61-4.67c0-4.47,3.01-8.23,9.02-11.28l2.53-20.58c-4.74,5.92-8.64,10.36-11.69,13.29h-.79v-3.08c3.03-2.89,7.11-7.68,12.24-14.36l2.12-2.73c2.39-.27,5.07-.72,8.03-1.33-1.01,5.42-2.19,13.43-3.55,24.03,2.1-1.05,4.57-3.18,7.41-6.39l.07,3.86Zm-16.6,10.42c-1.91,.89-3.41,2.09-4.51,3.61-1.1,1.52-1.65,3.07-1.65,4.67,0,1.03,.24,1.9,.72,2.62s1.04,1.08,1.67,1.08c1.57,0,2.6-2.01,3.08-6.02l.69-5.95Zm15.85-45.29c-.43,5.56-2.75,8.34-6.94,8.34-1.96,0-3.69-.66-5.2-1.98,1.98-2.53,3.15-4.72,3.52-6.56,1.82,1.12,3.34,1.68,4.55,1.68,1.37,0,2.72-.49,4.07-1.47Z"/><path class="cls-1" d="M684.49,142.03c-2.89,2.85-5.49,4.95-7.79,6.31s-4.84,2.03-7.62,2.03c-3.1,0-5.6-.99-7.5-2.97s-2.85-4.59-2.85-7.83c0-4.83,1.68-9.2,5.03-13.11s7.06-5.86,11.14-5.86c2.12,0,3.82,.55,5.09,1.64s1.91,2.53,1.91,4.31c0,4.72-5.01,8.54-15.04,11.48,.91,4.44,3.29,6.66,7.14,6.66,1.5,0,2.94-.4,4.31-1.21s3.43-2.6,6.19-5.38v3.93Zm-17.91-6.32c5.83-1.64,8.75-4.67,8.75-9.09,0-2.19-.8-3.28-2.39-3.28-1.5,0-2.94,1.14-4.31,3.43s-2.05,5.27-2.05,8.94Z"/><path class="cls-1" d="M721,142.03c-3.01,2.85-5.53,4.95-7.55,6.31-2.03,1.36-3.85,2.03-5.47,2.03-1.8,0-3.19-.72-4.15-2.15s-1.45-3.38-1.45-5.85c-2.51,2.76-4.75,4.79-6.73,6.1s-3.92,1.96-5.81,1.96c-1.73,0-3.12-.72-4.17-2.15s-1.57-3.38-1.57-5.85c0-4.74,1.6-11.42,4.79-20.03l9.13-1.82c-3.75,10.92-5.63,17.93-5.64,21.03,0,2.19,.82,3.28,2.46,3.28,1.19,0,2.65-.96,4.41-2.89,1.75-1.92,2.85-3.61,3.28-5.04l4.48-14.56,9.3-1.88c-2.15,6.86-3.62,11.68-4.42,14.46-.8,2.78-1.2,4.73-1.2,5.85,0,2.14,.73,3.21,2.19,3.21,1.19,0,2.94-1.08,5.27-3.25l2.87-2.7v3.93Z"/><path class="cls-1" d="M746.53,142.03c-5.72,5.61-10.13,8.41-13.23,8.41-1.39,0-2.56-.59-3.52-1.76s-1.44-2.63-1.44-4.36c0-3.21,1.72-7.52,5.16-12.92-1.69,.87-3.53,1.47-5.54,1.81-1.48,2.73-3.8,5.67-6.97,8.82h-.79v-3.08c1.78-1.85,3.38-3.83,4.82-5.95-1.96-.87-2.94-2.15-2.94-3.86s.6-3.63,1.79-5.62c1.2-1.99,2.84-2.99,4.94-2.99,1.78,0,2.67,.91,2.67,2.73,0,1.44-.51,3.49-1.54,6.15,3.78-.41,7.09-3.3,9.91-8.68l3.11-.14-3.18,8.75c-1.32,3.69-2.18,6.2-2.56,7.54-.39,1.33-.58,2.51-.58,3.54,0,.96,.22,1.72,.67,2.29,.44,.57,1.04,.86,1.79,.86,.82,0,1.61-.28,2.36-.84s2.44-2.1,5.06-4.63v3.93Z"/><path class="cls-1" d="M757.06,122c1.57-.41,3.15-.75,4.75-1.01s2.55-.39,2.87-.39c.23,0,.34,.09,.34,.27,0,.34-.09,.69-.27,1.06-.37,1.05-.55,2.05-.55,3.01,0,1.18,.69,2.8,2.05,4.85s2.05,3.96,2.05,5.71c0,3.49-1.67,6.85-5.01,10.08-3.34,3.24-6.8,4.85-10.38,4.85-1.55,0-2.96-.41-4.24-1.23s-1.91-1.7-1.91-2.63c0-.55,.63-1.58,1.9-3.11,1.26-1.53,2.17-2.29,2.72-2.29,.73,0,1.38,.93,1.95,2.8,.57,1.87,1.55,2.8,2.94,2.8s2.7-.64,3.91-1.93,1.83-2.67,1.83-4.15c0-1.44-.77-3.35-2.32-5.74-1.55-2.39-2.58-4.4-3.08-6.01-2.64,4.26-5.99,8.62-10.05,13.09h-.79v-3.08c5.58-5.95,9.34-11.6,11.28-16.95Z"/></g></g></g><g id="_반짝이"><polygon class="cls-8" points="296.57 550.53 309.56 600.94 351.39 611.3 309.56 622.66 296.57 674 282.88 622.66 241.74 611.3 282.88 600.94 296.57 550.53"/><polygon class="cls-8" points="874.57 1210.53 887.56 1260.94 929.39 1271.3 887.56 1282.66 874.57 1334 860.88 1282.66 819.74 1271.3 860.88 1260.94 874.57 1210.53"/><polygon class="cls-9" points="719.09 489.01 728.24 524.53 757.71 531.82 728.24 539.83 719.09 576 709.44 539.83 680.46 531.82 709.44 524.53 719.09 489.01"/></g><g id="_전차"><rect class="cls-3" x="661" y="760" width="15" height="221"/><rect class="cls-3" x="720" y="760" width="15" height="221"/><rect class="cls-3" x="440" y="760" width="15" height="221"/><rect class="cls-3" x="378" y="760" width="15" height="221"/><path class="cls-9" d="M760,918l-10.28-91.88c.45-.04,.88-.08,1.28-.12-2-49.33-4-98.67-6-148H376c-1.67,45.33-3.33,90.67-5,136,0,0,.01,0,.02,0l-21.02,114,67,2,2.5-114.93c46.42-5.93,78.71-30.51,93.5-42.07,24.74-19.34,41.64-41.22,53-60,5.67,14.28,24.9,57.34,73,87,21.23,13.09,42.29,19.98,60.56,23.48l-1.56,97.52,62-3Z"/><rect class="cls-3" x="371" y="1141" width="369" height="33"/><rect class="cls-3" x="316" y="1114" width="68" height="26"/><rect class="cls-3" x="716" y="1114" width="68" height="26"/><path class="cls-4" d="M371,974v168h369v-168H371Zm215.63,99.74l-19.36-9.2-7.18,38.25-7.18-38.25-19.36,9.2,9.2-19.36-38.55-7.18,38.55-7.18-9.2-19.36,19.36,9.2,7.18-36.22,7.18,36.22,19.36-9.2-9.2,19.36,41.46,7.18-41.46,7.18,9.2,19.36Z"/><rect class="cls-4" x="285" y="1102" width="28" height="51" rx="14" ry="14"/><rect class="cls-4" x="796" y="1102" width="28" height="51" rx="14" ry="14"/><rect class="cls-3" x="298" y="1021" width="45" height="220" rx="22.5" ry="22.5"/><rect class="cls-3" x="767" y="1021" width="45" height="220" rx="22.5" ry="22.5"/><line class="cls-5" x1="291" y1="1053" x2="351" y2="1053"/><line class="cls-5" x1="291" y1="1075.5" x2="351" y2="1075.5"/><line class="cls-5" x1="291" y1="1098" x2="351" y2="1098"/><line class="cls-5" x1="298" y1="1120.5" x2="343" y2="1120.5"/><line class="cls-5" x1="298" y1="1143" x2="343" y2="1143"/><line class="cls-5" x1="291" y1="1165.5" x2="351" y2="1165.5"/><line class="cls-5" x1="291" y1="1188" x2="351" y2="1188"/><line class="cls-5" x1="291" y1="1210.5" x2="351" y2="1210.5"/><line class="cls-5" x1="760" y1="1053" x2="820" y2="1053"/><line class="cls-5" x1="760" y1="1075.5" x2="820" y2="1075.5"/><line class="cls-5" x1="760" y1="1098" x2="820" y2="1098"/><line class="cls-5" x1="767" y1="1120.5" x2="812" y2="1120.5"/><line class="cls-5" x1="767" y1="1143" x2="812" y2="1143"/><line class="cls-5" x1="760" y1="1165.5" x2="820" y2="1165.5"/><line class="cls-5" x1="760" y1="1188" x2="820" y2="1188"/><line class="cls-5" x1="760" y1="1210.5" x2="820" y2="1210.5"/><path class="cls-6" d="M548,716c-11.83,11.75-26.72,24.65-45,37-31.21,21.09-61.13,33.02-84,40"/><path class="cls-6" d="M493,733c-9.56,7.25-23.23,16.05-41,23-14.43,5.65-27.56,8.51-38,10"/><path class="cls-6" d="M596,732c8.27,11.67,21.99,27.91,43,42,33.83,22.69,67.52,27.02,84,28"/><path class="cls-6" d="M655,758c12.71,4.44,27.44,8.71,44,12,12.55,2.5,24.3,4.06,35,5"/></g><g id="_세계"><g id="_세계-2"><polygon class="cls-2" points="559.97 984.43 568.58 1027.85 591.79 1016.82 580.75 1040.03 630.46 1048.64 580.75 1057.25 591.79 1080.46 568.58 1069.43 559.97 1115.29 551.36 1069.43 528.15 1080.46 539.18 1057.25 492.97 1048.64 539.18 1040.03 528.15 1016.82 551.36 1027.85 559.97 984.43"/><circle class="cls-9" cx="235" cy="666" r="14"/><circle class="cls-8" cx="231" cy="731" r="8"/><circle class="cls-9" cx="177" cy="1063" r="15"/><circle class="cls-8" cx="194.5" cy="1112.5" r="6.5"/><circle class="cls-8" cx="796" cy="593" r="13"/><circle class="cls-8" cx="835" cy="819" r="10"/><circle class="cls-9" cx="813.5" cy="862.5" r="7.5"/><circle class="cls-8" cx="885.5" cy="965.5" r="11.5"/><circle class="cls-9" cx="803.5" cy="1315.5" r="11.5"/></g></g></svg>