<?xml version="1.0" encoding="UTF-8"?><svg xmlns="http://www.w3.org/2000/svg" viewBox="0 0 1080 1944"><defs><style>.cls-1{fill:#fff;}.cls-2{stroke:#3f3730;stroke-miterlimit:10;stroke-width:5px;}.cls-2,.cls-3{fill:#3f3730;}.cls-4{fill:#4c5fa9;}.cls-5{fill:#bad6eb;}.cls-6{fill:#c8c0de;}.cls-7{fill:#b1d4f0;}</style></defs><g id="_배경_텍스트"><g><rect class="cls-5" width="1080" height="1944"/><rect class="cls-1" x="74.84" y="186.39" width="930.33" height="1606.64" rx="65.21" ry="65.21"/><path class="cls-2" d="M494.88,1608.73c-.64-3.44-1.52-5.72-2.64-6.84-1.12-1.12-2.92-1.76-5.4-1.92-1.28-.16-1.92-.8-1.92-1.92,0-.48,.14-.9,.42-1.26,.28-.36,.74-.54,1.38-.54h21.96c.64,0,1.12,.2,1.44,.6,.32,.4,.48,.8,.48,1.2,0,.48-.16,.9-.48,1.26-.32,.36-.8,.58-1.44,.66-1.6,.16-2.82,.4-3.66,.72-.84,.32-1.4,.78-1.68,1.38-.28,.6-.34,1.42-.18,2.46,.16,1.04,.36,2.32,.6,3.84l9.96,58.32,11.16-58.92c.32-1.76,.48-3.12,.48-4.08s-.2-1.7-.6-2.22c-.4-.52-1-.86-1.8-1.02-.8-.16-1.8-.32-3-.48-.64-.08-1.12-.3-1.44-.66-.32-.36-.48-.78-.48-1.26,0-.4,.14-.8,.42-1.2,.28-.4,.74-.6,1.38-.6h18.12c.64,0,1.12,.2,1.44,.6,.32,.4,.48,.8,.48,1.2,0,1.04-.64,1.68-1.92,1.92-1.36,.24-2.44,.48-3.24,.72-.8,.24-1.48,.64-2.04,1.2s-1.02,1.38-1.38,2.46c-.36,1.08-.74,2.54-1.14,4.38l-15.48,74.64h-5.04l-14.76-74.64Zm64.08,60.84c0,1.92,.14,3.46,.42,4.62,.28,1.16,.68,2.04,1.2,2.64,.52,.6,1.22,1.02,2.1,1.26,.88,.24,1.92,.44,3.12,.6,.56,.08,.96,.3,1.2,.66,.24,.36,.36,.74,.36,1.14s-.14,.78-.42,1.14c-.28,.36-.74,.54-1.38,.54h-21.72c-.64,0-1.1-.18-1.38-.54-.28-.36-.42-.74-.42-1.14s.12-.78,.36-1.14c.24-.36,.64-.58,1.2-.66,1.2-.16,2.24-.36,3.12-.6,.88-.24,1.58-.66,2.1-1.26,.52-.6,.92-1.48,1.2-2.64,.28-1.16,.42-2.7,.42-4.62v-60.72c0-1.92-.14-3.46-.42-4.62-.28-1.16-.68-2.04-1.2-2.64-.52-.6-1.22-1.02-2.1-1.26-.88-.24-1.92-.44-3.12-.6-.56-.08-.96-.3-1.2-.66-.24-.36-.36-.74-.36-1.14s.14-.78,.42-1.14c.28-.36,.74-.54,1.38-.54h21.72c.64,0,1.1,.18,1.38,.54,.28,.36,.42,.74,.42,1.14s-.12,.78-.36,1.14c-.24,.36-.64,.58-1.2,.66-1.2,.16-2.24,.36-3.12,.6-.88,.24-1.58,.66-2.1,1.26-.52,.6-.92,1.48-1.2,2.64-.28,1.16-.42,2.7-.42,4.62v60.72Zm27.6,0c0,1.92,.14,3.46,.42,4.62,.28,1.16,.68,2.04,1.2,2.64,.52,.6,1.22,1.02,2.1,1.26,.88,.24,1.92,.44,3.12,.6,.56,.08,.96,.3,1.2,.66,.24,.36,.36,.74,.36,1.14s-.14,.78-.42,1.14c-.28,.36-.74,.54-1.38,.54h-21.72c-.64,0-1.1-.18-1.38-.54-.28-.36-.42-.74-.42-1.14s.12-.78,.36-1.14c.24-.36,.64-.58,1.2-.66,1.2-.16,2.24-.36,3.12-.6,.88-.24,1.58-.66,2.1-1.26,.52-.6,.92-1.48,1.2-2.64,.28-1.16,.42-2.7,.42-4.62v-60.72c0-1.92-.14-3.46-.42-4.62-.28-1.16-.68-2.04-1.2-2.64-.52-.6-1.22-1.02-2.1-1.26-.88-.24-1.92-.44-3.12-.6-.56-.08-.96-.3-1.2-.66-.24-.36-.36-.74-.36-1.14s.14-.78,.42-1.14c.28-.36,.74-.54,1.38-.54h21.72c.64,0,1.1,.18,1.38,.54,.28,.36,.42,.74,.42,1.14s-.12,.78-.36,1.14c-.24,.36-.64,.58-1.2,.66-1.2,.16-2.24,.36-3.12,.6-.88,.24-1.58,.66-2.1,1.26-.52,.6-.92,1.48-1.2,2.64-.28,1.16-.42,2.7-.42,4.62v60.72Z"/><g><path class="cls-1" d="M410.88,142.03c-5.1,5.49-9.75,8.24-13.95,8.24-2.55,0-4.5-1.23-5.83-3.69-1.33-2.46-2-5.75-2-9.88,0-3.19,.65-7.58,1.96-13.16,1.31-5.58,3-10.28,5.08-14.08l1.98-3.55c-2.71,2.83-4.93,5.92-6.67,9.28-1.73,3.36-3.8,8.06-6.2,14.1-2.4,6.04-4.22,10.15-5.45,12.34s-2.41,3.97-3.54,5.35c-1.13,1.38-2.13,2.27-3.01,2.68-.88,.41-2.41,.62-4.6,.62-.84,0-1.26-.23-1.26-.68,0-.05,.15-.76,.45-2.15,.3-1.39,.61-3.62,.92-6.68,.31-3.06,.54-8.27,.68-15.62s1.21-13.64,3.21-18.88c-2.14,2.44-4.33,8.11-6.57,17.02l-.86,3.35c-2.35,9.27-5.04,15.53-8.08,18.78-3.03,3.25-6.01,4.87-8.93,4.87-1.8,0-3.39-.57-4.76-1.71s-2.05-2.45-2.05-3.93c0-1.14,.82-2.42,2.46-3.83,1.64-1.41,2.68-2.12,3.11-2.12,.5,0,.83,.17,.99,.51,.16,.34,.37,1.28,.62,2.82s.63,2.54,1.15,3.01c.51,.47,1.16,.7,1.94,.7,1.76,0,3.7-1.76,5.83-5.28s4.07-8.96,5.83-16.32l.99-4.14c.8-3.37,1.59-6.06,2.37-8.07,.78-2,1.8-4.01,3.08-6.02,1.85-2.87,2.99-4.4,3.41-4.6,.42-.19,1.21-.35,2.38-.48,1.16-.12,2.32-.19,3.49-.19,.46,0,.68,.26,.68,.79,0,.25-.07,.76-.21,1.54-.45,3.19-.66,6.39-.64,9.6l.07,9.16c.04,7.98-.59,14.41-1.91,19.31,1.21-1.46,2.96-5.22,5.26-11.28,3.33-8.59,6.36-15.04,9.09-19.35,1.3-2.07,2.87-4.06,4.7-5.96,1.83-1.9,3.1-2.92,3.81-3.06,2.42-.46,4.45-.68,6.12-.68,.62,0,.92,.17,.92,.51,0,.48-.38,1.55-1.12,3.21-1.77,4.01-3.43,9.44-4.96,16.27s-2.31,12.28-2.32,16.33c0,4.58,1.4,6.87,4.2,6.87,2.28,0,4.99-1.94,8.13-5.81v3.93Z"/><path class="cls-1" d="M427.66,142.03c-5.33,5.61-9.32,8.41-11.96,8.41-1.46,0-2.69-.75-3.69-2.24-1-1.49-1.5-3.37-1.5-5.62,0-4.85,1.64-11.58,4.92-20.17l8.68-1.81h.41l-3.42,10.7c-1.41,4.42-2.12,7.58-2.12,9.47,0,.75,.17,1.36,.5,1.83,.33,.47,.75,.7,1.25,.7,.89,0,1.78-.32,2.68-.97s2.32-2.06,4.26-4.22v3.93Zm-.68-34.79c0,5.47-2.02,8.2-6.05,8.2-1.96,0-3.63-.59-5.02-1.78,1.32-2,2.35-4.26,3.08-6.77,1.8,1.12,3.25,1.67,4.34,1.67,1.23,0,2.45-.44,3.66-1.33Z"/><path class="cls-1" d="M461.22,142.03c-5.26,5.56-9.78,8.34-13.54,8.34-1.53,0-2.76-.54-3.69-1.61-.93-1.07-1.4-2.51-1.4-4.31,0-2.44,1-6.16,3.01-11.18,1.07-2.69,1.61-4.4,1.61-5.13s-.29-1.09-.85-1.09c-.32,0-.74,.16-1.26,.48-.48,.32-1.04,.76-1.67,1.33-.57,.52-1.21,1.16-1.91,1.91-.62,.64-1.28,1.37-1.98,2.19l-1.91,2.22c-.84,1.03-1.37,2.11-1.57,3.25-.34,1.94-.57,3.71-.68,5.33-.07,1.21-.1,2.84-.1,4.89l-7.55,1.78c-.25-3.08-.38-5.37-.38-6.87,0-3.67,.43-7.14,1.28-10.42,.86-3.28,2.23-6.97,4.12-11.07l8.34-1.61c-1.75,4.72-2.91,8.43-3.45,11.14,3.73-4.17,6.7-7.06,8.89-8.66,2.19-1.61,4.15-2.41,5.85-2.41,1.16,0,2.13,.44,2.9,1.31,.77,.88,1.16,1.97,1.16,3.29,0,2.18-.98,5.78-2.94,10.8-1.34,3.44-2.02,5.68-2.02,6.7,0,1.37,.56,2.06,1.68,2.06,1.67,0,4.36-2.2,8.09-6.6v3.93Z"/><path class="cls-1" d="M491.88,142.03c-1.16,1.03-2.29,1.75-3.38,2.17-1.09,.42-1.96,.63-2.6,.63-1.64,0-3.27-.64-4.89-1.91-3.28,4.97-7.04,7.45-11.28,7.45-2.64,0-4.79-.99-6.43-2.97s-2.46-4.61-2.46-7.9c0-5.2,1.85-9.66,5.54-13.38s8.1-5.59,13.23-5.59c1.94,0,3.35,.21,4.25,.63,.9,.42,1.45,.92,1.66,1.49,.21,.57,.31,1.29,.31,2.15,0,4.26-1.16,9.49-3.49,15.69,1.16,1.07,2.38,1.61,3.66,1.61,1.53,0,3.49-1.33,5.88-4v3.93Zm-11.28-19.11c-.34-.14-.83-.21-1.47-.21-2.96,0-5.28,1.55-6.96,4.65-1.67,3.1-2.51,6.72-2.51,10.87,0,2.3,.36,4.09,1.09,5.37,.73,1.28,1.74,1.91,3.04,1.91,1.62,0,3.37-1.49,5.26-4.48-2.14-2.69-3.21-5.58-3.21-8.68,0-3.65,1.58-6.79,4.75-9.43Z"/><path class="cls-1" d="M517.42,142.03c-5.72,5.61-10.13,8.41-13.23,8.41-1.39,0-2.56-.59-3.52-1.76s-1.44-2.63-1.44-4.36c0-3.21,1.72-7.52,5.16-12.92-1.69,.87-3.53,1.47-5.54,1.81-1.48,2.73-3.81,5.67-6.97,8.82h-.79v-3.08c1.78-1.85,3.38-3.83,4.82-5.95-1.96-.87-2.94-2.15-2.94-3.86s.6-3.63,1.79-5.62c1.2-1.99,2.84-2.99,4.94-2.99,1.78,0,2.67,.91,2.67,2.73,0,1.44-.51,3.49-1.54,6.15,3.78-.41,7.09-3.3,9.91-8.68l3.11-.14-3.18,8.75c-1.32,3.69-2.18,6.2-2.56,7.54-.39,1.33-.58,2.51-.58,3.54,0,.96,.22,1.72,.67,2.29,.44,.57,1.04,.85,1.79,.85,.82,0,1.61-.28,2.36-.84,.75-.56,2.44-2.1,5.06-4.63v3.93Z"/><path class="cls-1" d="M582.32,142.06c-5.24,5.58-10.05,8.37-14.42,8.37-2.42,0-4.33-.85-5.74-2.56-1.41-1.71-2.2-4.15-2.36-7.31-2.76,3.35-5.2,5.83-7.33,7.45s-4.4,2.43-6.82,2.43c-3.1,0-5.59-1.34-7.47-4.02-1.88-2.68-2.82-6.25-2.82-10.72,0-5.33,1.23-10.83,3.69-16.49,2.46-5.66,6.11-10.13,10.94-13.42,4.83-3.28,10.69-4.92,17.57-4.92,5.15,0,9.81,.7,13.98,2.08v2.26c-3.4,3.96-6.24,9.51-8.53,16.65-2.29,7.13-3.44,12.57-3.44,16.3,0,1.82,.37,3.24,1.11,4.24,.74,1,1.77,1.5,3.09,1.5,2.37,0,5.22-1.93,8.54-5.78v3.93Zm-9.95-36.85c-2.1-1.14-4.35-1.71-6.77-1.71-3.81,0-7.24,1.59-10.29,4.77-3.05,3.18-5.46,7.39-7.23,12.63-1.77,5.24-2.65,9.79-2.65,13.64,0,2.58,.5,4.67,1.49,6.27,.99,1.61,2.26,2.41,3.81,2.41,2.69,0,5.78-2.45,9.26-7.35,1.44-12.85,5.56-23.07,12.37-30.66Z"/><path class="cls-1" d="M607.85,142.03c-5.72,5.61-10.13,8.41-13.23,8.41-1.39,0-2.56-.59-3.52-1.76s-1.44-2.63-1.44-4.36c0-3.21,1.72-7.52,5.16-12.92-1.69,.87-3.53,1.47-5.54,1.81-1.48,2.73-3.81,5.67-6.97,8.82h-.79v-3.08c1.78-1.85,3.38-3.83,4.82-5.95-1.96-.87-2.94-2.15-2.94-3.86s.6-3.63,1.79-5.62c1.2-1.99,2.84-2.99,4.94-2.99,1.78,0,2.67,.91,2.67,2.73,0,1.44-.51,3.49-1.54,6.15,3.78-.41,7.09-3.3,9.91-8.68l3.11-.14-3.18,8.75c-1.32,3.69-2.18,6.2-2.56,7.54-.39,1.33-.58,2.51-.58,3.54,0,.96,.22,1.72,.67,2.29,.44,.57,1.04,.85,1.79,.85,.82,0,1.61-.28,2.36-.84,.75-.56,2.44-2.1,5.06-4.63v3.93Z"/><path class="cls-1" d="M633.42,142.03c-2.92,2.87-5.59,4.98-8.02,6.32-2.43,1.34-4.96,2.02-7.6,2.02-2.96,0-5.41-.96-7.33-2.89-1.93-1.93-2.89-4.37-2.89-7.33,0-4.85,1.77-9.34,5.31-13.45,3.54-4.11,7.38-6.17,11.5-6.17,2.03,0,3.68,.56,4.96,1.69,1.28,1.13,1.91,2.59,1.91,4.39,0,.64-.12,1.12-.36,1.44-.24,.32-.69,.64-1.35,.96l-3.96,1.88c-.48,.23-.83,.34-1.06,.34-.32,0-.48-.23-.48-.68,0-.18,.07-.78,.21-1.79,.14-1.01,.21-1.63,.21-1.86,0-1-.21-1.81-.63-2.43s-.99-.92-1.69-.92c-1.66,0-3.18,1.23-4.56,3.69-1.38,2.46-2.07,5.26-2.07,8.41,0,2.71,.65,4.88,1.95,6.49,1.3,1.62,3.03,2.43,5.2,2.43,1.85,0,3.58-.53,5.21-1.59s3.48-2.68,5.55-4.87v3.93Z"/><path class="cls-1" d="M669.92,142.03c-3.65,3.46-6.25,5.72-7.83,6.77s-3.08,1.57-4.51,1.57c-3.6,0-5.3-3.18-5.09-9.54-2.28,3.26-4.38,5.66-6.31,7.21s-3.91,2.32-5.96,2.32-3.71-.94-5.11-2.82c-1.4-1.88-2.1-4.19-2.1-6.92,0-3.42,.94-6.68,2.82-9.78,1.88-3.1,4.29-5.61,7.23-7.52s5.54-2.87,7.79-2.87c2.85,0,4.84,1.31,5.98,3.93l6.99-3.86h1.92l-3.01,10.02c-1.55,5.04-2.33,8.49-2.33,10.36s.69,2.94,2.08,2.94c.89,0,1.87-.47,2.94-1.42,1.07-.95,2.57-2.39,4.51-4.32v3.93Zm-25.02,1.88c2.28,0,4.43-1.94,6.44-5.83,2.02-3.88,3.02-7.47,3.02-10.75,0-1.28-.29-2.27-.85-2.99-.57-.72-1.33-1.08-2.29-1.08-2.28,0-4.44,1.94-6.48,5.81-2.04,3.87-3.06,7.44-3.06,10.7,0,1.23,.3,2.23,.91,2.99,.6,.76,1.37,1.15,2.31,1.15Z"/><path class="cls-1" d="M703.46,142.03c-5.26,5.56-9.78,8.34-13.54,8.34-1.53,0-2.76-.54-3.69-1.61-.93-1.07-1.4-2.51-1.4-4.31,0-2.44,1-6.16,3.01-11.18,1.07-2.69,1.61-4.4,1.61-5.13s-.29-1.09-.85-1.09c-.32,0-.74,.16-1.26,.48-.48,.32-1.04,.76-1.67,1.33-.57,.52-1.21,1.16-1.91,1.91-.62,.64-1.28,1.37-1.98,2.19l-1.91,2.22c-.84,1.03-1.37,2.11-1.57,3.25-.34,1.94-.57,3.71-.68,5.33-.07,1.21-.1,2.84-.1,4.89l-7.55,1.78c-.25-3.08-.38-5.37-.38-6.87,0-3.67,.43-7.14,1.28-10.42,.86-3.28,2.23-6.97,4.12-11.07l8.34-1.61c-1.75,4.72-2.91,8.43-3.45,11.14,3.73-4.17,6.7-7.06,8.89-8.66,2.19-1.61,4.15-2.41,5.85-2.41,1.16,0,2.13,.44,2.9,1.31,.77,.88,1.16,1.97,1.16,3.29,0,2.18-.98,5.78-2.94,10.8-1.34,3.44-2.02,5.68-2.02,6.7,0,1.37,.56,2.06,1.68,2.06,1.67,0,4.36-2.2,8.09-6.6v3.93Z"/><path class="cls-1" d="M739.92,142.03c-3.65,3.46-6.25,5.72-7.83,6.77s-3.08,1.57-4.51,1.57c-3.6,0-5.3-3.18-5.09-9.54-2.28,3.26-4.38,5.66-6.31,7.21s-3.91,2.32-5.96,2.32-3.71-.94-5.11-2.82c-1.4-1.88-2.1-4.19-2.1-6.92,0-3.42,.94-6.68,2.82-9.78,1.88-3.1,4.29-5.61,7.23-7.52s5.54-2.87,7.79-2.87c2.85,0,4.84,1.31,5.98,3.93l6.99-3.86h1.92l-3.01,10.02c-1.55,5.04-2.33,8.49-2.33,10.36s.69,2.94,2.08,2.94c.89,0,1.87-.47,2.94-1.42,1.07-.95,2.57-2.39,4.51-4.32v3.93Zm-25.02,1.88c2.28,0,4.43-1.94,6.44-5.83,2.02-3.88,3.02-7.47,3.02-10.75,0-1.28-.29-2.27-.85-2.99-.57-.72-1.33-1.08-2.29-1.08-2.28,0-4.44,1.94-6.48,5.81-2.04,3.87-3.06,7.44-3.06,10.7,0,1.23,.3,2.23,.91,2.99,.6,.76,1.37,1.15,2.31,1.15Z"/></g><g><path class="cls-1" d="M447.87,1823.7c-1.49,1.35-2.57,2.91-3.25,4.7-.68,1.79-1.38,5.52-2.09,11.18-.72,5.66-1.87,10.12-3.45,13.38s-4.08,5.98-7.49,8.15c-3.41,2.18-7.15,3.26-11.23,3.26-2.89,0-5.25-.72-7.06-2.15s-2.72-3.27-2.72-5.5c0-.84,.26-1.53,.79-2.07,.52-.54,1.59-1.26,3.21-2.17,1.62-.91,2.71-1.37,3.28-1.37,.39,0,.72,.13,.99,.39,.27,.26,.41,.58,.41,.94,0,.23-.11,1.07-.32,2.53-.22,1.46-.32,2.32-.32,2.6,0,2.71,1.14,4.07,3.42,4.07,2.57,0,4.74-1.51,6.49-4.53,1.75-3.02,3.03-7.74,3.81-14.15,.79-6.41,1.98-10.94,3.57-13.59,1.59-2.64,3.46-4.52,5.59-5.62,2.13-1.1,3.61-1.66,4.43-1.66,.57,0,1.22,.54,1.95,1.61Zm-6.43-8.89c4.81,0,8.63,1.17,11.48,3.5,2.85,2.34,4.27,5.45,4.27,9.35,0,3.6-1.05,6.49-3.16,8.66-2.11,2.18-3.93,3.26-5.45,3.26-.57,0-1.21-.25-1.93-.75-.72-.5-1.08-.96-1.08-1.37,0-.23,.54-1.05,1.61-2.46,2.51-3.1,3.76-6.17,3.76-9.23,0-2.57-.87-4.62-2.6-6.14-1.73-1.52-4.08-2.27-7.04-2.27-4.47,0-8.51,1.36-12.13,4.08-3.62,2.72-5.43,5.7-5.43,8.94,0,2.14,.98,3.61,2.94,4.41,.77,.34,1.16,.81,1.16,1.4s-.86,1.33-2.56,2.15-2.9,1.23-3.59,1.23c-1.03,0-1.99-.68-2.91-2.03-.91-1.36-1.37-2.83-1.37-4.43,0-4.28,2.3-8.41,6.9-12.37s10.31-5.95,17.12-5.95Z"/><path class="cls-1" d="M479.21,1856.03c-2.89,2.85-5.49,4.95-7.79,6.31s-4.84,2.03-7.62,2.03c-3.1,0-5.6-.99-7.5-2.97s-2.85-4.59-2.85-7.83c0-4.83,1.68-9.2,5.03-13.11,3.35-3.91,7.06-5.86,11.14-5.86,2.12,0,3.82,.55,5.09,1.64s1.91,2.53,1.91,4.31c0,4.72-5.01,8.54-15.04,11.48,.91,4.44,3.29,6.67,7.14,6.67,1.5,0,2.94-.4,4.31-1.21,1.37-.81,3.43-2.6,6.19-5.38v3.93Zm-17.91-6.32c5.83-1.64,8.75-4.67,8.75-9.09,0-2.19-.8-3.28-2.39-3.28-1.5,0-2.94,1.15-4.31,3.44s-2.05,5.27-2.05,8.94Z"/><path class="cls-1" d="M512.78,1856.03c-5.26,5.56-9.78,8.34-13.54,8.34-1.53,0-2.76-.54-3.69-1.61s-1.4-2.51-1.4-4.31c0-2.44,1-6.16,3.01-11.18,1.07-2.69,1.61-4.4,1.61-5.13s-.29-1.09-.85-1.09c-.32,0-.74,.16-1.27,.48-.48,.32-1.04,.76-1.67,1.33-.57,.52-1.21,1.16-1.91,1.91-.62,.64-1.28,1.37-1.98,2.19l-1.91,2.22c-.84,1.03-1.37,2.11-1.57,3.25-.34,1.94-.57,3.71-.68,5.33-.07,1.21-.1,2.84-.1,4.89l-7.55,1.78c-.25-3.08-.38-5.37-.38-6.87,0-3.67,.43-7.14,1.28-10.42,.86-3.28,2.23-6.97,4.12-11.07l8.34-1.61c-1.75,4.72-2.9,8.43-3.45,11.14,3.73-4.17,6.7-7.06,8.89-8.66,2.19-1.61,4.14-2.41,5.85-2.41,1.16,0,2.13,.44,2.9,1.31,.77,.88,1.16,1.97,1.16,3.29,0,2.18-.98,5.78-2.94,10.8-1.34,3.44-2.02,5.68-2.02,6.7,0,1.37,.56,2.06,1.68,2.06,1.67,0,4.36-2.2,8.09-6.6v3.93Z"/><path class="cls-1" d="M532.43,1856.03c-2.87,2.85-5.36,4.95-7.45,6.31-2.1,1.36-4.09,2.03-5.98,2.03s-3.55-.83-4.77-2.48c-1.22-1.65-1.83-3.82-1.83-6.51,0-2.37,.58-5.5,1.75-9.39l1.45-5.17-2.62,.14,1.1-5.37,3.25-.14,3.21-10.66,9.13-1.87-3.53,11.89,4.83-.27-1.13,5.26-5.3,.41-2.28,7.66c-.79,2.66-1.19,4.78-1.19,6.35,0,1.07,.27,1.94,.8,2.62,.54,.67,1.23,1.01,2.07,1.01,1.16,0,2.32-.37,3.46-1.11,1.14-.74,2.82-2.28,5.03-4.63v3.93Z"/><path class="cls-1" d="M568.9,1856.03c-3.65,3.46-6.25,5.72-7.83,6.77s-3.08,1.57-4.51,1.57c-3.6,0-5.3-3.18-5.09-9.54-2.28,3.26-4.38,5.66-6.31,7.21s-3.91,2.32-5.96,2.32-3.71-.94-5.11-2.82c-1.4-1.88-2.1-4.19-2.1-6.92,0-3.42,.94-6.68,2.82-9.78,1.88-3.1,4.29-5.61,7.23-7.52s5.54-2.87,7.79-2.87c2.85,0,4.84,1.31,5.98,3.93l6.99-3.86h1.92l-3.01,10.02c-1.55,5.04-2.33,8.49-2.33,10.36s.7,2.94,2.08,2.94c.89,0,1.87-.47,2.94-1.42,1.07-.95,2.57-2.39,4.51-4.32v3.93Zm-25.02,1.88c2.28,0,4.43-1.94,6.44-5.83,2.02-3.88,3.03-7.47,3.03-10.75,0-1.28-.29-2.27-.86-2.99s-1.33-1.08-2.29-1.08c-2.28,0-4.44,1.94-6.48,5.81-2.04,3.87-3.06,7.44-3.06,10.7,0,1.23,.3,2.23,.91,2.99,.6,.76,1.37,1.15,2.31,1.15Z"/><path class="cls-1" d="M594.43,1856.03c-2.92,2.87-5.59,4.98-8.02,6.32-2.43,1.34-4.96,2.02-7.61,2.02-2.96,0-5.41-.96-7.33-2.89-1.93-1.93-2.89-4.37-2.89-7.33,0-4.85,1.77-9.34,5.31-13.45,3.54-4.11,7.38-6.17,11.5-6.17,2.03,0,3.68,.56,4.96,1.69s1.91,2.59,1.91,4.39c0,.64-.12,1.12-.36,1.44-.24,.32-.69,.64-1.35,.96l-3.96,1.88c-.48,.23-.83,.34-1.06,.34-.32,0-.48-.23-.48-.68,0-.18,.07-.78,.21-1.79,.14-1.01,.21-1.63,.21-1.86,0-1-.21-1.81-.63-2.43s-.99-.92-1.69-.92c-1.66,0-3.19,1.23-4.56,3.69-1.38,2.46-2.07,5.26-2.07,8.41,0,2.71,.65,4.88,1.95,6.49,1.3,1.62,3.03,2.43,5.2,2.43,1.85,0,3.58-.53,5.21-1.59s3.48-2.68,5.55-4.87v3.93Z"/><path class="cls-1" d="M617.06,1856.03c-3.1,2.85-5.82,4.95-8.15,6.31s-4.56,2.03-6.68,2.03c-2.44,0-4.4-.95-5.9-2.84-1.49-1.89-2.24-4.43-2.24-7.62,0-4.79,1.04-10.53,3.11-17.23s4.59-12.87,7.55-18.53l8.68-3.21c.27-.09,.48-.14,.62-.14,.66,0,1.2,.48,1.62,1.45,.42,.97,.63,2.27,.63,3.91,0,4.65-1.07,9.15-3.21,13.5-2.14,4.35-5.49,9-10.05,13.95-.18,2.37-.27,4-.27,4.89,0,1.98,.36,3.55,1.09,4.72,.73,1.16,1.7,1.74,2.9,1.74s2.54-.44,3.93-1.33c1.39-.89,3.51-2.73,6.36-5.54v3.93Zm-13.09-13.36c2.89-3.22,5.24-6.82,7.04-10.82,1.8-3.99,2.7-7.43,2.7-10.3,0-.84-.13-1.52-.38-2.04-.25-.51-.57-.77-.96-.77-.84,0-2.07,2.1-3.67,6.3-1.61,4.2-3.19,10.07-4.73,17.63Z"/><path class="cls-1" d="M642.62,1856.03c-2.89,2.85-5.49,4.95-7.79,6.31-2.3,1.36-4.84,2.03-7.62,2.03-3.1,0-5.6-.99-7.5-2.97s-2.85-4.59-2.85-7.83c0-4.83,1.67-9.2,5.02-13.11,3.35-3.91,7.06-5.86,11.14-5.86,2.12,0,3.82,.55,5.09,1.64,1.28,1.09,1.91,2.53,1.91,4.31,0,4.72-5.01,8.54-15.04,11.48,.91,4.44,3.29,6.67,7.14,6.67,1.5,0,2.94-.4,4.31-1.21,1.37-.81,3.43-2.6,6.19-5.38v3.93Zm-17.91-6.32c5.83-1.64,8.75-4.67,8.75-9.09,0-2.19-.8-3.28-2.39-3.28-1.5,0-2.94,1.15-4.31,3.44s-2.05,5.27-2.05,8.94Z"/><path class="cls-1" d="M653.15,1836c1.57-.41,3.15-.75,4.75-1.01,1.6-.26,2.55-.39,2.87-.39,.23,0,.34,.09,.34,.27,0,.34-.09,.69-.27,1.06-.37,1.05-.55,2.05-.55,3.01,0,1.18,.69,2.8,2.05,4.85s2.05,3.96,2.05,5.71c0,3.49-1.67,6.85-5.01,10.08-3.34,3.24-6.8,4.85-10.38,4.85-1.55,0-2.96-.41-4.24-1.23s-1.91-1.7-1.91-2.63c0-.55,.63-1.58,1.9-3.11,1.26-1.53,2.17-2.29,2.72-2.29,.73,0,1.38,.93,1.95,2.8,.57,1.87,1.55,2.8,2.94,2.8s2.7-.64,3.91-1.93,1.83-2.67,1.83-4.15c0-1.44-.77-3.35-2.32-5.74-1.55-2.39-2.58-4.4-3.08-6.02-2.64,4.26-5.99,8.62-10.05,13.09h-.79v-3.08c5.58-5.95,9.34-11.6,11.28-16.95Z"/></g></g></g><g id="_반짝이"><circle class="cls-7" cx="610.15" cy="679.98" r="12.02"/><circle class="cls-6" cx="571.92" cy="630.83" r="9.83"/><circle class="cls-7" cx="456.74" cy="1162.32" r="13.32"/><circle class="cls-6" cx="486.7" cy="1221.12" r="8.88"/><circle class="cls-7" cx="624.35" cy="556.55" r="6.55"/><circle class="cls-7" cx="234" cy="1094" r="10"/><polygon class="cls-6" points="575.76 721.95 588.81 772.6 630.84 783 588.81 794.42 575.76 846 562.01 794.42 520.68 783 562.01 772.6 575.76 721.95"/><polygon class="cls-6" points="337.76 1038.95 353.34 1099.4 403.5 1111.82 353.34 1125.44 337.76 1187 321.35 1125.44 272.02 1111.82 321.35 1099.4 337.76 1038.95"/></g><g id="_펜타클_7"><g><circle class="cls-7" cx="774.5" cy="499.71" r="98.29"/><path class="cls-1" d="M774.5,586.59c-47.78,0-86.66-38.87-86.66-86.66s38.87-86.66,86.66-86.66,86.66,38.87,86.66,86.66-38.87,86.66-86.66,86.66Zm0-168.05c-44.88,0-81.39,36.51-81.39,81.39s36.51,81.39,81.39,81.39,81.39-36.51,81.39-81.39-36.51-81.39-81.39-81.39Z"/><polygon class="cls-1" points="774.95 430.01 783.19 478.91 805.4 468.35 794.84 490.56 845.09 498.8 794.84 507.04 805.4 529.24 783.19 518.69 774.95 571.67 766.71 518.69 744.5 529.24 755.06 507.04 703.91 498.8 755.06 490.56 744.5 468.35 766.71 478.91 774.95 430.01"/></g><g><circle class="cls-7" cx="774.5" cy="715.71" r="98.29"/><path class="cls-1" d="M774.5,802.59c-47.78,0-86.66-38.87-86.66-86.66s38.87-86.66,86.66-86.66,86.66,38.87,86.66,86.66-38.87,86.66-86.66,86.66Zm0-168.05c-44.88,0-81.39,36.51-81.39,81.39s36.51,81.39,81.39,81.39,81.39-36.51,81.39-81.39-36.51-81.39-81.39-81.39Z"/><polygon class="cls-1" points="774.95 646.01 783.19 694.91 805.4 684.35 794.84 706.56 845.09 714.8 794.84 723.04 805.4 745.24 783.19 734.69 774.95 787.67 766.71 734.69 744.5 745.24 755.06 723.04 703.91 714.8 755.06 706.56 744.5 684.35 766.71 694.91 774.95 646.01"/></g><g><circle class="cls-7" cx="774.5" cy="931.71" r="98.29"/><path class="cls-1" d="M774.5,1018.59c-47.78,0-86.66-38.87-86.66-86.66s38.87-86.66,86.66-86.66,86.66,38.87,86.66,86.66-38.87,86.66-86.66,86.66Zm0-168.05c-44.88,0-81.39,36.51-81.39,81.39s36.51,81.39,81.39,81.39,81.39-36.51,81.39-81.39-36.51-81.39-81.39-81.39Z"/><polygon class="cls-1" points="774.95 862.01 783.19 910.91 805.4 900.35 794.84 922.56 845.09 930.8 794.84 939.04 805.4 961.24 783.19 950.69 774.95 1003.67 766.71 950.69 744.5 961.24 755.06 939.04 703.91 930.8 755.06 922.56 744.5 900.35 766.71 910.91 774.95 862.01"/></g><g><circle class="cls-7" cx="500.5" cy="997.71" r="98.29"/><path class="cls-1" d="M500.5,1084.59c-47.78,0-86.66-38.87-86.66-86.66s38.87-86.66,86.66-86.66,86.66,38.87,86.66,86.66-38.87,86.66-86.66,86.66Zm0-168.05c-44.88,0-81.39,36.51-81.39,81.39s36.51,81.39,81.39,81.39,81.39-36.51,81.39-81.39-36.51-81.39-81.39-81.39Z"/><polygon class="cls-1" points="500.95 928.01 509.19 976.91 531.4 966.35 520.84 988.56 571.09 996.8 520.84 1005.04 531.4 1027.24 509.19 1016.69 500.95 1069.67 492.71 1016.69 470.5 1027.24 481.06 1005.04 429.91 996.8 481.06 988.56 470.5 966.35 492.71 976.91 500.95 928.01"/></g><g><ellipse class="cls-7" cx="308.94" cy="1242.5" rx="110.39" ry="45.5"/><path class="cls-1" d="M308.94,1282.72c-53.67,0-97.33-18-97.33-40.12s43.66-40.12,97.33-40.12,97.33,18,97.33,40.12-43.66,40.12-97.33,40.12Zm0-77.8c-50.41,0-91.42,16.9-91.42,37.68s41.01,37.68,91.42,37.68,91.42-16.9,91.42-37.68-41.01-37.68-91.42-37.68Z"/><polygon class="cls-1" points="309.44 1210.23 318.7 1232.87 343.64 1227.98 331.78 1238.26 388.23 1242.08 331.78 1245.89 343.64 1256.17 318.7 1251.28 309.44 1275.81 300.19 1251.28 275.25 1256.17 287.1 1245.89 229.65 1242.08 287.1 1238.26 275.25 1227.98 300.19 1232.87 309.44 1210.23"/></g><g><circle class="cls-7" cx="774.5" cy="1147.71" r="98.29"/><path class="cls-1" d="M774.5,1234.59c-47.78,0-86.66-38.87-86.66-86.66s38.87-86.66,86.66-86.66,86.66,38.87,86.66,86.66-38.87,86.66-86.66,86.66Zm0-168.05c-44.88,0-81.39,36.51-81.39,81.39s36.51,81.39,81.39,81.39,81.39-36.51,81.39-81.39-36.51-81.39-81.39-81.39Z"/><polygon class="cls-1" points="774.95 1078.01 783.19 1126.91 805.4 1116.35 794.84 1138.56 845.09 1146.8 794.84 1155.04 805.4 1177.24 783.19 1166.69 774.95 1219.67 766.71 1166.69 744.5 1177.24 755.06 1155.04 703.91 1146.8 755.06 1138.56 744.5 1116.35 766.71 1126.91 774.95 1078.01"/></g><g><circle class="cls-7" cx="774.5" cy="1363.71" r="98.29"/><path class="cls-1" d="M774.5,1450.59c-47.78,0-86.66-38.87-86.66-86.66s38.87-86.66,86.66-86.66,86.66,38.87,86.66,86.66-38.87,86.66-86.66,86.66Zm0-168.05c-44.88,0-81.39,36.51-81.39,81.39s36.51,81.39,81.39,81.39,81.39-36.51,81.39-81.39-36.51-81.39-81.39-81.39Z"/><polygon class="cls-1" points="774.95 1294.01 783.19 1342.91 805.4 1332.35 794.84 1354.56 845.09 1362.8 794.84 1371.04 805.4 1393.24 783.19 1382.69 774.95 1435.67 766.71 1382.69 744.5 1393.24 755.06 1371.04 703.91 1362.8 755.06 1354.56 744.5 1332.35 766.71 1342.91 774.95 1294.01"/></g><path class="cls-4" d="M354.34,594c14.36,22.5,29.53,38.5,41.18,49.15,11.38,10.4,27,24.44,51.23,35.26,22.86,10.21,43.44,13.11,57.25,13.89-23.44,34.9-46.87,69.8-70.31,104.71-3.95-13.69-12.42-35.43-31.14-54.49-24.6-25.05-52.78-31.09-68.3-34.19-24.27-4.85-44.67-2.48-57.25,0,25.78-38.11,51.56-76.21,77.34-114.32Z"/><path class="cls-3" d="M353,740c3.79-4.95-1.67-12.75,2-16,2.24-1.98,6.24-.83,9,0,11.34,3.41,26.01,14.42,24,23-1.73,7.41-14.22,5.9-20,18-1.58,3.32-2.38,7.06-3,10-2.01,9.49-.15,11.46-2,16-2.86,7.01-8.74,5.88-15,13-5.79,6.58-4.39,11.69-8,22-4,11.41-8.9,14.25-18,27-7.83,10.97-12.22,20.65-21,40-10.99,24.23-12.25,33.3-18,47-6.81,16.24-19.78,38.62-47,62-4.33-2.33-8.67-4.67-13-7,10.32-28.68,21.72-50.06,30-64,16.8-28.3,22.3-28.63,34-53,16.03-33.42,9.54-40.84,25-59,12.18-14.31,21.06-24.28,20-37-.64-7.59-1-7.21-1-18,0-2.84,0-13.87,7-19,5.91-4.33,11.72-.71,15-5Z"/><ellipse class="cls-3" cx="433.5" cy="647.5" rx="14.5" ry="20.5" transform="translate(-345.68 655.36) rotate(-56.78)"/></g></svg>