<?xml version="1.0" encoding="UTF-8"?><svg xmlns="http://www.w3.org/2000/svg" viewBox="0 0 1080 1944"><defs><style>.cls-1{fill:#fff;}.cls-2{stroke:#3f3730;stroke-miterlimit:10;stroke-width:5px;}.cls-2,.cls-3{fill:#3f3730;}.cls-4{fill:#f6ef84;}.cls-5{fill:#4c5fa9;}.cls-6{fill:#bad6eb;}.cls-7{fill:#c8c0de;}.cls-8{fill:#b1d4f0;}</style></defs><g id="_배경_텍스트"><g><rect class="cls-6" width="1080" height="1944"/><rect class="cls-1" x="74.84" y="186.39" width="930.33" height="1606.64" rx="65.21" ry="65.21"/><path class="cls-2" d="M506.4,1669.57c0,1.92,.2,3.46,.6,4.62,.4,1.16,.98,2.04,1.74,2.64,.76,.6,1.72,1.02,2.88,1.26,1.16,.24,2.5,.44,4.02,.6,.56,.08,.96,.3,1.2,.66,.24,.36,.36,.74,.36,1.14s-.14,.78-.42,1.14c-.28,.36-.74,.54-1.38,.54h-26.52c-.64,0-1.1-.18-1.38-.54-.28-.36-.42-.74-.42-1.14s.12-.78,.36-1.14c.24-.36,.64-.58,1.2-.66,1.52-.16,2.84-.36,3.96-.6,1.12-.24,2.08-.66,2.88-1.26,.8-.6,1.4-1.48,1.8-2.64,.4-1.16,.6-2.7,.6-4.62v-60.72c0-1.92-.2-3.46-.6-4.62-.4-1.16-1-2.04-1.8-2.64-.8-.6-1.76-1.02-2.88-1.26-1.12-.24-2.44-.44-3.96-.6-.56-.08-.96-.3-1.2-.66-.24-.36-.36-.74-.36-1.14s.14-.78,.42-1.14c.28-.36,.74-.54,1.38-.54h26.52c.64,0,1.1,.18,1.38,.54,.28,.36,.42,.74,.42,1.14s-.12,.78-.36,1.14c-.24,.36-.64,.58-1.2,.66-1.52,.16-2.86,.36-4.02,.6-1.16,.24-2.12,.66-2.88,1.26-.76,.6-1.34,1.48-1.74,2.64-.4,1.16-.6,2.7-.6,4.62v60.72Zm45.96-29.16l-17.88-34.68c-.88-1.2-1.74-2.24-2.58-3.12-.84-.88-1.98-1.52-3.42-1.92-.88-.24-1.7-.4-2.46-.48-.76-.08-1.66-.16-2.7-.24-.64,0-1.14-.2-1.5-.6-.36-.4-.54-.84-.54-1.32s.18-.9,.54-1.26c.36-.36,.86-.54,1.5-.54h27.96c.64,0,1.1,.18,1.38,.54,.28,.36,.42,.78,.42,1.26s-.16,.92-.48,1.32c-.32,.4-.8,.6-1.44,.6-.96,.08-1.8,.18-2.52,.3-.72,.12-1.52,.26-2.4,.42-1.44,.32-2.26,.9-2.46,1.74-.2,.84,.02,1.7,.66,2.58l13.08,25.32,12.84-25.32c.8-1.2,.94-2.12,.42-2.76-.52-.64-1.3-1.12-2.34-1.44-1.04-.32-2.18-.54-3.42-.66-1.24-.12-2.22-.18-2.94-.18-.64,0-1.12-.2-1.44-.6-.32-.4-.48-.84-.48-1.32s.16-.9,.48-1.26c.32-.36,.8-.54,1.44-.54h25.68c.64,0,1.12,.18,1.44,.54,.32,.36,.48,.78,.48,1.26s-.16,.92-.48,1.32c-.32,.4-.8,.6-1.44,.6-1.44,.08-2.66,.18-3.66,.3-1,.12-1.9,.26-2.7,.42-1.6,.4-2.8,1.02-3.6,1.86-.8,.84-1.64,1.9-2.52,3.18l-15,29.76,19.32,37.32c.88,1.2,1.74,2.22,2.58,3.06s1.98,1.46,3.42,1.86c.88,.24,1.7,.4,2.46,.48,.76,.08,1.62,.16,2.58,.24,.64,0,1.14,.2,1.5,.6,.36,.4,.54,.84,.54,1.32s-.16,.9-.48,1.26c-.32,.36-.8,.54-1.44,.54h-29.28c-.64,0-1.12-.18-1.44-.54-.32-.36-.48-.78-.48-1.26s.16-.92,.48-1.32c.32-.4,.8-.6,1.44-.6,1.04-.08,2.1-.18,3.18-.3,1.08-.12,2.06-.26,2.94-.42,1.44-.32,2.3-.88,2.58-1.68,.28-.8,.1-1.64-.54-2.52l-14.52-27.84-14.04,27.84c-.72,1.12-.88,2-.48,2.64,.4,.64,1.08,1.12,2.04,1.44,.96,.32,2,.54,3.12,.66,1.12,.12,2,.18,2.64,.18s1.12,.2,1.44,.6c.32,.4,.48,.84,.48,1.32s-.14,.9-.42,1.26c-.28,.36-.74,.54-1.38,.54h-25.44c-.64,0-1.14-.18-1.5-.54-.36-.36-.54-.78-.54-1.26s.18-.92,.54-1.32c.36-.4,.86-.6,1.5-.6,2.8-.16,4.92-.4,6.36-.72,1.52-.4,2.76-.98,3.72-1.74,.96-.76,1.88-1.82,2.76-3.18l16.44-32.4Z"/><g><path class="cls-1" d="M410.88,142.03c-5.1,5.49-9.75,8.24-13.95,8.24-2.55,0-4.5-1.23-5.83-3.69-1.33-2.46-2-5.75-2-9.88,0-3.19,.65-7.58,1.96-13.16,1.31-5.58,3-10.28,5.08-14.08l1.98-3.55c-2.71,2.83-4.93,5.92-6.67,9.28-1.73,3.36-3.8,8.06-6.2,14.1-2.4,6.04-4.22,10.15-5.45,12.34s-2.41,3.97-3.54,5.35c-1.13,1.38-2.13,2.27-3.01,2.68-.88,.41-2.41,.62-4.6,.62-.84,0-1.26-.23-1.26-.68,0-.05,.15-.76,.45-2.15,.3-1.39,.61-3.62,.92-6.68,.31-3.06,.54-8.27,.68-15.62s1.21-13.64,3.21-18.88c-2.14,2.44-4.33,8.11-6.57,17.02l-.86,3.35c-2.35,9.27-5.04,15.53-8.08,18.78-3.03,3.25-6.01,4.87-8.93,4.87-1.8,0-3.39-.57-4.76-1.71s-2.05-2.45-2.05-3.93c0-1.14,.82-2.42,2.46-3.83,1.64-1.41,2.68-2.12,3.11-2.12,.5,0,.83,.17,.99,.51,.16,.34,.37,1.28,.62,2.82s.63,2.54,1.15,3.01c.51,.47,1.16,.7,1.94,.7,1.76,0,3.7-1.76,5.83-5.28s4.07-8.96,5.83-16.32l.99-4.14c.8-3.37,1.59-6.06,2.37-8.07,.78-2,1.8-4.01,3.08-6.02,1.85-2.87,2.99-4.4,3.41-4.6,.42-.19,1.21-.35,2.38-.48,1.16-.12,2.32-.19,3.49-.19,.46,0,.68,.26,.68,.79,0,.25-.07,.76-.21,1.54-.45,3.19-.66,6.39-.64,9.6l.07,9.16c.04,7.98-.59,14.41-1.91,19.31,1.21-1.46,2.96-5.22,5.26-11.28,3.33-8.59,6.36-15.04,9.09-19.35,1.3-2.07,2.87-4.06,4.7-5.96,1.83-1.9,3.1-2.92,3.81-3.06,2.42-.46,4.45-.68,6.12-.68,.62,0,.92,.17,.92,.51,0,.48-.38,1.55-1.12,3.21-1.77,4.01-3.43,9.44-4.96,16.27s-2.31,12.28-2.32,16.33c0,4.58,1.4,6.87,4.2,6.87,2.28,0,4.99-1.94,8.13-5.81v3.93Z"/><path class="cls-1" d="M427.66,142.03c-5.33,5.61-9.32,8.41-11.96,8.41-1.46,0-2.69-.75-3.69-2.24-1-1.49-1.5-3.37-1.5-5.62,0-4.85,1.64-11.58,4.92-20.17l8.68-1.81h.41l-3.42,10.7c-1.41,4.42-2.12,7.58-2.12,9.47,0,.75,.17,1.36,.5,1.83,.33,.47,.75,.7,1.25,.7,.89,0,1.78-.32,2.68-.97s2.32-2.06,4.26-4.22v3.93Zm-.68-34.79c0,5.47-2.02,8.2-6.05,8.2-1.96,0-3.63-.59-5.02-1.78,1.32-2,2.35-4.26,3.08-6.77,1.8,1.12,3.25,1.67,4.34,1.67,1.23,0,2.45-.44,3.66-1.33Z"/><path class="cls-1" d="M461.22,142.03c-5.26,5.56-9.78,8.34-13.54,8.34-1.53,0-2.76-.54-3.69-1.61-.93-1.07-1.4-2.51-1.4-4.31,0-2.44,1-6.16,3.01-11.18,1.07-2.69,1.61-4.4,1.61-5.13s-.29-1.09-.85-1.09c-.32,0-.74,.16-1.26,.48-.48,.32-1.04,.76-1.67,1.33-.57,.52-1.21,1.16-1.91,1.91-.62,.64-1.28,1.37-1.98,2.19l-1.91,2.22c-.84,1.03-1.37,2.11-1.57,3.25-.34,1.94-.57,3.71-.68,5.33-.07,1.21-.1,2.84-.1,4.89l-7.55,1.78c-.25-3.08-.38-5.37-.38-6.87,0-3.67,.43-7.14,1.28-10.42,.86-3.28,2.23-6.97,4.12-11.07l8.34-1.61c-1.75,4.72-2.91,8.43-3.45,11.14,3.73-4.17,6.7-7.06,8.89-8.66,2.19-1.61,4.15-2.41,5.85-2.41,1.16,0,2.13,.44,2.9,1.31,.77,.88,1.16,1.97,1.16,3.29,0,2.18-.98,5.78-2.94,10.8-1.34,3.44-2.02,5.68-2.02,6.7,0,1.37,.56,2.06,1.68,2.06,1.67,0,4.36-2.2,8.09-6.6v3.93Z"/><path class="cls-1" d="M491.88,142.03c-1.16,1.03-2.29,1.75-3.38,2.17-1.09,.42-1.96,.63-2.6,.63-1.64,0-3.27-.64-4.89-1.91-3.28,4.97-7.04,7.45-11.28,7.45-2.64,0-4.79-.99-6.43-2.97s-2.46-4.61-2.46-7.9c0-5.2,1.85-9.66,5.54-13.38s8.1-5.59,13.23-5.59c1.94,0,3.35,.21,4.25,.63,.9,.42,1.45,.92,1.66,1.49,.21,.57,.31,1.29,.31,2.15,0,4.26-1.16,9.49-3.49,15.69,1.16,1.07,2.38,1.61,3.66,1.61,1.53,0,3.49-1.33,5.88-4v3.93Zm-11.28-19.11c-.34-.14-.83-.21-1.47-.21-2.96,0-5.28,1.55-6.96,4.65-1.67,3.1-2.51,6.72-2.51,10.87,0,2.3,.36,4.09,1.09,5.37,.73,1.28,1.74,1.91,3.04,1.91,1.62,0,3.37-1.49,5.26-4.48-2.14-2.69-3.21-5.58-3.21-8.68,0-3.65,1.58-6.79,4.75-9.43Z"/><path class="cls-1" d="M517.42,142.03c-5.72,5.61-10.13,8.41-13.23,8.41-1.39,0-2.56-.59-3.52-1.76s-1.44-2.63-1.44-4.36c0-3.21,1.72-7.52,5.16-12.92-1.69,.87-3.53,1.47-5.54,1.81-1.48,2.73-3.81,5.67-6.97,8.82h-.79v-3.08c1.78-1.85,3.38-3.83,4.82-5.95-1.96-.87-2.94-2.15-2.94-3.86s.6-3.63,1.79-5.62c1.2-1.99,2.84-2.99,4.94-2.99,1.78,0,2.67,.91,2.67,2.73,0,1.44-.51,3.49-1.54,6.15,3.78-.41,7.09-3.3,9.91-8.68l3.11-.14-3.18,8.75c-1.32,3.69-2.18,6.2-2.56,7.54-.39,1.33-.58,2.51-.58,3.54,0,.96,.22,1.72,.67,2.29,.44,.57,1.04,.85,1.79,.85,.82,0,1.61-.28,2.36-.84,.75-.56,2.44-2.1,5.06-4.63v3.93Z"/><path class="cls-1" d="M582.32,142.06c-5.24,5.58-10.05,8.37-14.42,8.37-2.42,0-4.33-.85-5.74-2.56-1.41-1.71-2.2-4.15-2.36-7.31-2.76,3.35-5.2,5.83-7.33,7.45s-4.4,2.43-6.82,2.43c-3.1,0-5.59-1.34-7.47-4.02-1.88-2.68-2.82-6.25-2.82-10.72,0-5.33,1.23-10.83,3.69-16.49,2.46-5.66,6.11-10.13,10.94-13.42,4.83-3.28,10.69-4.92,17.57-4.92,5.15,0,9.81,.7,13.98,2.08v2.26c-3.4,3.96-6.24,9.51-8.53,16.65-2.29,7.13-3.44,12.57-3.44,16.3,0,1.82,.37,3.24,1.11,4.24,.74,1,1.77,1.5,3.09,1.5,2.37,0,5.22-1.93,8.54-5.78v3.93Zm-9.95-36.85c-2.1-1.14-4.35-1.71-6.77-1.71-3.81,0-7.24,1.59-10.29,4.77-3.05,3.18-5.46,7.39-7.23,12.63-1.77,5.24-2.65,9.79-2.65,13.64,0,2.58,.5,4.67,1.49,6.27,.99,1.61,2.26,2.41,3.81,2.41,2.69,0,5.78-2.45,9.26-7.35,1.44-12.85,5.56-23.07,12.37-30.66Z"/><path class="cls-1" d="M607.85,142.03c-5.72,5.61-10.13,8.41-13.23,8.41-1.39,0-2.56-.59-3.52-1.76s-1.44-2.63-1.44-4.36c0-3.21,1.72-7.52,5.16-12.92-1.69,.87-3.53,1.47-5.54,1.81-1.48,2.73-3.81,5.67-6.97,8.82h-.79v-3.08c1.78-1.85,3.38-3.83,4.82-5.95-1.96-.87-2.94-2.15-2.94-3.86s.6-3.63,1.79-5.62c1.2-1.99,2.84-2.99,4.94-2.99,1.78,0,2.67,.91,2.67,2.73,0,1.44-.51,3.49-1.54,6.15,3.78-.41,7.09-3.3,9.91-8.68l3.11-.14-3.18,8.75c-1.32,3.69-2.18,6.2-2.56,7.54-.39,1.33-.58,2.51-.58,3.54,0,.96,.22,1.72,.67,2.29,.44,.57,1.04,.85,1.79,.85,.82,0,1.61-.28,2.36-.84,.75-.56,2.44-2.1,5.06-4.63v3.93Z"/><path class="cls-1" d="M633.42,142.03c-2.92,2.87-5.59,4.98-8.02,6.32-2.43,1.34-4.96,2.02-7.6,2.02-2.96,0-5.41-.96-7.33-2.89-1.93-1.93-2.89-4.37-2.89-7.33,0-4.85,1.77-9.34,5.31-13.45,3.54-4.11,7.38-6.17,11.5-6.17,2.03,0,3.68,.56,4.96,1.69,1.28,1.13,1.91,2.59,1.91,4.39,0,.64-.12,1.12-.36,1.44-.24,.32-.69,.64-1.35,.96l-3.96,1.88c-.48,.23-.83,.34-1.06,.34-.32,0-.48-.23-.48-.68,0-.18,.07-.78,.21-1.79,.14-1.01,.21-1.63,.21-1.86,0-1-.21-1.81-.63-2.43s-.99-.92-1.69-.92c-1.66,0-3.18,1.23-4.56,3.69-1.38,2.46-2.07,5.26-2.07,8.41,0,2.71,.65,4.88,1.95,6.49,1.3,1.62,3.03,2.43,5.2,2.43,1.85,0,3.58-.53,5.21-1.59s3.48-2.68,5.55-4.87v3.93Z"/><path class="cls-1" d="M669.92,142.03c-3.65,3.46-6.25,5.72-7.83,6.77s-3.08,1.57-4.51,1.57c-3.6,0-5.3-3.18-5.09-9.54-2.28,3.26-4.38,5.66-6.31,7.21s-3.91,2.32-5.96,2.32-3.71-.94-5.11-2.82c-1.4-1.88-2.1-4.19-2.1-6.92,0-3.42,.94-6.68,2.82-9.78,1.88-3.1,4.29-5.61,7.23-7.52s5.54-2.87,7.79-2.87c2.85,0,4.84,1.31,5.98,3.93l6.99-3.86h1.92l-3.01,10.02c-1.55,5.04-2.33,8.49-2.33,10.36s.69,2.94,2.08,2.94c.89,0,1.87-.47,2.94-1.42,1.07-.95,2.57-2.39,4.51-4.32v3.93Zm-25.02,1.88c2.28,0,4.43-1.94,6.44-5.83,2.02-3.88,3.02-7.47,3.02-10.75,0-1.28-.29-2.27-.85-2.99-.57-.72-1.33-1.08-2.29-1.08-2.28,0-4.44,1.94-6.48,5.81-2.04,3.87-3.06,7.44-3.06,10.7,0,1.23,.3,2.23,.91,2.99,.6,.76,1.37,1.15,2.31,1.15Z"/><path class="cls-1" d="M703.46,142.03c-5.26,5.56-9.78,8.34-13.54,8.34-1.53,0-2.76-.54-3.69-1.61-.93-1.07-1.4-2.51-1.4-4.31,0-2.44,1-6.16,3.01-11.18,1.07-2.69,1.61-4.4,1.61-5.13s-.29-1.09-.85-1.09c-.32,0-.74,.16-1.26,.48-.48,.32-1.04,.76-1.67,1.33-.57,.52-1.21,1.16-1.91,1.91-.62,.64-1.28,1.37-1.98,2.19l-1.91,2.22c-.84,1.03-1.37,2.11-1.57,3.25-.34,1.94-.57,3.71-.68,5.33-.07,1.21-.1,2.84-.1,4.89l-7.55,1.78c-.25-3.08-.38-5.37-.38-6.87,0-3.67,.43-7.14,1.28-10.42,.86-3.28,2.23-6.97,4.12-11.07l8.34-1.61c-1.75,4.72-2.91,8.43-3.45,11.14,3.73-4.17,6.7-7.06,8.89-8.66,2.19-1.61,4.15-2.41,5.85-2.41,1.16,0,2.13,.44,2.9,1.31,.77,.88,1.16,1.97,1.16,3.29,0,2.18-.98,5.78-2.94,10.8-1.34,3.44-2.02,5.68-2.02,6.7,0,1.37,.56,2.06,1.68,2.06,1.67,0,4.36-2.2,8.09-6.6v3.93Z"/><path class="cls-1" d="M739.92,142.03c-3.65,3.46-6.25,5.72-7.83,6.77s-3.08,1.57-4.51,1.57c-3.6,0-5.3-3.18-5.09-9.54-2.28,3.26-4.38,5.66-6.31,7.21s-3.91,2.32-5.96,2.32-3.71-.94-5.11-2.82c-1.4-1.88-2.1-4.19-2.1-6.92,0-3.42,.94-6.68,2.82-9.78,1.88-3.1,4.29-5.61,7.23-7.52s5.54-2.87,7.79-2.87c2.85,0,4.84,1.31,5.98,3.93l6.99-3.86h1.92l-3.01,10.02c-1.55,5.04-2.33,8.49-2.33,10.36s.69,2.94,2.08,2.94c.89,0,1.87-.47,2.94-1.42,1.07-.95,2.57-2.39,4.51-4.32v3.93Zm-25.02,1.88c2.28,0,4.43-1.94,6.44-5.83,2.02-3.88,3.02-7.47,3.02-10.75,0-1.28-.29-2.27-.85-2.99-.57-.72-1.33-1.08-2.29-1.08-2.28,0-4.44,1.94-6.48,5.81-2.04,3.87-3.06,7.44-3.06,10.7,0,1.23,.3,2.23,.91,2.99,.6,.76,1.37,1.15,2.31,1.15Z"/></g><g><path class="cls-1" d="M447.87,1823.7c-1.49,1.35-2.57,2.91-3.25,4.7-.68,1.79-1.37,5.52-2.09,11.18-.72,5.66-1.87,10.12-3.45,13.38s-4.08,5.98-7.49,8.15c-3.41,2.18-7.15,3.26-11.23,3.26-2.89,0-5.25-.72-7.06-2.15s-2.72-3.27-2.72-5.5c0-.84,.26-1.53,.79-2.07,.52-.54,1.59-1.26,3.21-2.17,1.62-.91,2.71-1.37,3.28-1.37,.39,0,.72,.13,.99,.39,.27,.26,.41,.58,.41,.94,0,.23-.11,1.07-.33,2.53-.22,1.46-.32,2.32-.32,2.6,0,2.71,1.14,4.07,3.42,4.07,2.57,0,4.74-1.51,6.49-4.53,1.75-3.02,3.03-7.74,3.81-14.15,.79-6.41,1.98-10.94,3.57-13.59,1.59-2.64,3.46-4.52,5.59-5.62,2.13-1.1,3.61-1.66,4.43-1.66,.57,0,1.22,.54,1.95,1.61Zm-6.43-8.89c4.81,0,8.64,1.17,11.48,3.5,2.85,2.34,4.27,5.45,4.27,9.35,0,3.6-1.05,6.49-3.16,8.66-2.11,2.18-3.93,3.26-5.45,3.26-.57,0-1.21-.25-1.93-.75-.72-.5-1.08-.96-1.08-1.37,0-.23,.54-1.05,1.61-2.46,2.51-3.1,3.76-6.17,3.76-9.23,0-2.57-.87-4.62-2.6-6.14-1.73-1.52-4.08-2.27-7.04-2.27-4.47,0-8.51,1.36-12.13,4.08-3.62,2.72-5.43,5.7-5.43,8.94,0,2.14,.98,3.61,2.94,4.41,.77,.34,1.16,.81,1.16,1.4s-.85,1.33-2.56,2.15-2.91,1.23-3.59,1.23c-1.03,0-1.99-.68-2.91-2.03-.91-1.36-1.37-2.83-1.37-4.43,0-4.28,2.3-8.41,6.9-12.37,4.6-3.96,10.31-5.95,17.12-5.95Z"/><path class="cls-1" d="M479.21,1856.03c-2.89,2.85-5.49,4.95-7.79,6.31-2.3,1.36-4.84,2.03-7.62,2.03-3.1,0-5.6-.99-7.5-2.97s-2.85-4.59-2.85-7.83c0-4.83,1.67-9.2,5.02-13.11,3.35-3.91,7.06-5.86,11.14-5.86,2.12,0,3.82,.55,5.09,1.64,1.28,1.09,1.91,2.53,1.91,4.31,0,4.72-5.01,8.54-15.04,11.48,.91,4.44,3.29,6.67,7.14,6.67,1.5,0,2.94-.4,4.31-1.21,1.37-.81,3.43-2.6,6.19-5.38v3.93Zm-17.91-6.32c5.83-1.64,8.75-4.67,8.75-9.09,0-2.19-.8-3.28-2.39-3.28-1.5,0-2.94,1.15-4.31,3.44s-2.05,5.27-2.05,8.94Z"/><path class="cls-1" d="M512.78,1856.03c-5.26,5.56-9.78,8.34-13.54,8.34-1.53,0-2.76-.54-3.69-1.61-.93-1.07-1.4-2.51-1.4-4.31,0-2.44,1-6.16,3.01-11.18,1.07-2.69,1.61-4.4,1.61-5.13s-.29-1.09-.85-1.09c-.32,0-.74,.16-1.26,.48-.48,.32-1.04,.76-1.67,1.33-.57,.52-1.21,1.16-1.91,1.91-.62,.64-1.28,1.37-1.98,2.19l-1.91,2.22c-.84,1.03-1.37,2.11-1.57,3.25-.34,1.94-.57,3.71-.68,5.33-.07,1.21-.1,2.84-.1,4.89l-7.55,1.78c-.25-3.08-.38-5.37-.38-6.87,0-3.67,.43-7.14,1.28-10.42,.86-3.28,2.23-6.97,4.12-11.07l8.34-1.61c-1.75,4.72-2.91,8.43-3.45,11.14,3.73-4.17,6.7-7.06,8.89-8.66,2.19-1.61,4.15-2.41,5.85-2.41,1.16,0,2.13,.44,2.9,1.31,.77,.88,1.16,1.97,1.16,3.29,0,2.18-.98,5.78-2.94,10.8-1.34,3.44-2.02,5.68-2.02,6.7,0,1.37,.56,2.06,1.68,2.06,1.67,0,4.36-2.2,8.09-6.6v3.93Z"/><path class="cls-1" d="M532.43,1856.03c-2.87,2.85-5.36,4.95-7.45,6.31-2.1,1.36-4.09,2.03-5.98,2.03s-3.55-.83-4.77-2.48c-1.22-1.65-1.83-3.82-1.83-6.51,0-2.37,.58-5.5,1.75-9.39l1.45-5.17-2.62,.14,1.09-5.37,3.25-.14,3.21-10.66,9.13-1.87-3.53,11.89,4.83-.27-1.13,5.26-5.3,.41-2.28,7.66c-.79,2.66-1.19,4.78-1.19,6.35,0,1.07,.27,1.94,.8,2.62s1.23,1.01,2.07,1.01c1.16,0,2.32-.37,3.46-1.11,1.14-.74,2.82-2.28,5.03-4.63v3.93Z"/><path class="cls-1" d="M568.9,1856.03c-3.65,3.46-6.25,5.72-7.83,6.77s-3.08,1.57-4.51,1.57c-3.6,0-5.3-3.18-5.09-9.54-2.28,3.26-4.38,5.66-6.31,7.21s-3.91,2.32-5.96,2.32-3.71-.94-5.11-2.82c-1.4-1.88-2.1-4.19-2.1-6.92,0-3.42,.94-6.68,2.82-9.78,1.88-3.1,4.29-5.61,7.23-7.52s5.54-2.87,7.79-2.87c2.85,0,4.84,1.31,5.98,3.93l6.99-3.86h1.92l-3.01,10.02c-1.55,5.04-2.33,8.49-2.33,10.36s.69,2.94,2.08,2.94c.89,0,1.87-.47,2.94-1.42,1.07-.95,2.57-2.39,4.51-4.32v3.93Zm-25.02,1.88c2.28,0,4.43-1.94,6.44-5.83,2.02-3.88,3.02-7.47,3.02-10.75,0-1.28-.29-2.27-.85-2.99-.57-.72-1.33-1.08-2.29-1.08-2.28,0-4.44,1.94-6.48,5.81-2.04,3.87-3.06,7.44-3.06,10.7,0,1.23,.3,2.23,.91,2.99,.6,.76,1.37,1.15,2.31,1.15Z"/><path class="cls-1" d="M594.43,1856.03c-2.92,2.87-5.59,4.98-8.02,6.32-2.43,1.34-4.96,2.02-7.6,2.02-2.96,0-5.41-.96-7.33-2.89-1.93-1.93-2.89-4.37-2.89-7.33,0-4.85,1.77-9.34,5.31-13.45,3.54-4.11,7.38-6.17,11.5-6.17,2.03,0,3.68,.56,4.96,1.69,1.28,1.13,1.91,2.59,1.91,4.39,0,.64-.12,1.12-.36,1.44-.24,.32-.69,.64-1.35,.96l-3.96,1.88c-.48,.23-.83,.34-1.06,.34-.32,0-.48-.23-.48-.68,0-.18,.07-.78,.21-1.79,.14-1.01,.21-1.63,.21-1.86,0-1-.21-1.81-.63-2.43s-.99-.92-1.69-.92c-1.66,0-3.18,1.23-4.56,3.69-1.38,2.46-2.07,5.26-2.07,8.41,0,2.71,.65,4.88,1.95,6.49,1.3,1.62,3.03,2.43,5.2,2.43,1.85,0,3.58-.53,5.21-1.59s3.48-2.68,5.55-4.87v3.93Z"/><path class="cls-1" d="M617.06,1856.03c-3.1,2.85-5.82,4.95-8.15,6.31s-4.56,2.03-6.68,2.03c-2.44,0-4.4-.95-5.9-2.84-1.49-1.89-2.24-4.43-2.24-7.62,0-4.79,1.04-10.53,3.11-17.23,2.07-6.7,4.59-12.87,7.55-18.53l8.68-3.21c.27-.09,.48-.14,.62-.14,.66,0,1.2,.48,1.62,1.45,.42,.97,.63,2.27,.63,3.91,0,4.65-1.07,9.15-3.21,13.5-2.14,4.35-5.49,9-10.05,13.95-.18,2.37-.27,4-.27,4.89,0,1.98,.36,3.55,1.09,4.72,.73,1.16,1.7,1.74,2.91,1.74s2.54-.44,3.93-1.33c1.39-.89,3.51-2.73,6.36-5.54v3.93Zm-13.09-13.36c2.89-3.22,5.24-6.82,7.04-10.82,1.8-3.99,2.7-7.43,2.7-10.3,0-.84-.13-1.52-.38-2.04-.25-.51-.57-.77-.96-.77-.84,0-2.07,2.1-3.67,6.3-1.61,4.2-3.18,10.07-4.73,17.63Z"/><path class="cls-1" d="M642.62,1856.03c-2.89,2.85-5.49,4.95-7.79,6.31-2.3,1.36-4.84,2.03-7.62,2.03-3.1,0-5.6-.99-7.5-2.97s-2.85-4.59-2.85-7.83c0-4.83,1.67-9.2,5.02-13.11,3.35-3.91,7.06-5.86,11.14-5.86,2.12,0,3.82,.55,5.09,1.64,1.28,1.09,1.91,2.53,1.91,4.31,0,4.72-5.01,8.54-15.04,11.48,.91,4.44,3.29,6.67,7.14,6.67,1.5,0,2.94-.4,4.31-1.21,1.37-.81,3.43-2.6,6.19-5.38v3.93Zm-17.91-6.32c5.83-1.64,8.75-4.67,8.75-9.09,0-2.19-.8-3.28-2.39-3.28-1.5,0-2.94,1.15-4.31,3.44s-2.05,5.27-2.05,8.94Z"/><path class="cls-1" d="M653.15,1836c1.57-.41,3.16-.75,4.75-1.01,1.59-.26,2.55-.39,2.87-.39,.23,0,.34,.09,.34,.27,0,.34-.09,.69-.27,1.06-.37,1.05-.55,2.05-.55,3.01,0,1.18,.69,2.8,2.05,4.85s2.05,3.96,2.05,5.71c0,3.49-1.67,6.85-5.01,10.08-3.34,3.24-6.8,4.85-10.37,4.85-1.55,0-2.96-.41-4.24-1.23-1.28-.82-1.91-1.7-1.91-2.63,0-.55,.63-1.58,1.9-3.11,1.26-1.53,2.17-2.29,2.72-2.29,.73,0,1.38,.93,1.95,2.8,.57,1.87,1.55,2.8,2.94,2.8s2.69-.64,3.91-1.93,1.83-2.67,1.83-4.15c0-1.44-.77-3.35-2.32-5.74s-2.58-4.4-3.08-6.02c-2.64,4.26-5.99,8.62-10.05,13.09h-.79v-3.08c5.58-5.95,9.34-11.6,11.28-16.95Z"/></g></g></g><g id="_반짝이"><polygon class="cls-8" points="280.75 532.63 297.29 596.83 350.57 610.02 297.29 624.48 280.75 689.87 263.32 624.48 210.93 610.02 263.32 596.83 280.75 532.63"/><polygon class="cls-7" points="735.78 1310.36 746.85 1353.29 782.48 1362.11 746.85 1371.79 735.78 1415.52 724.12 1371.79 689.08 1362.11 724.12 1353.29 735.78 1310.36"/><circle class="cls-7" cx="217.16" cy="710.15" r="13.28"/><circle class="cls-8" cx="248" cy="780" r="9"/><circle class="cls-8" cx="809.09" cy="1323.09" r="13.09"/><circle class="cls-7" cx="900.76" cy="1357.76" r="9.24"/><circle class="cls-7" cx="882.5" cy="921.5" r="11.5"/><circle class="cls-8" cx="904.5" cy="838.5" r="7.5"/></g><g id="_펜타클_9"><g><circle class="cls-8" cx="326.43" cy="891.86" r="79.14"/><path class="cls-1" d="M326.43,961.81c-38.48,0-69.78-31.3-69.78-69.78s31.3-69.78,69.78-69.78,69.78,31.3,69.78,69.78-31.3,69.78-69.78,69.78Zm0-135.32c-36.14,0-65.54,29.4-65.54,65.54s29.4,65.54,65.54,65.54,65.54-29.4,65.54-65.54-29.4-65.54-65.54-65.54Z"/><polygon class="cls-1" points="326.79 835.73 333.42 875.1 351.31 866.6 342.81 884.48 383.27 891.12 342.81 897.75 351.31 915.64 333.42 907.14 326.79 949.8 320.16 907.14 302.27 915.64 310.77 897.75 269.58 891.12 310.77 884.48 302.27 866.6 320.16 875.1 326.79 835.73"/></g><g><circle class="cls-8" cx="252.43" cy="1043.86" r="79.14"/><path class="cls-1" d="M252.43,1113.81c-38.48,0-69.78-31.3-69.78-69.78s31.3-69.78,69.78-69.78,69.78,31.3,69.78,69.78-31.3,69.78-69.78,69.78Zm0-135.32c-36.14,0-65.54,29.4-65.54,65.54s29.4,65.54,65.54,65.54,65.54-29.4,65.54-65.54-29.4-65.54-65.54-65.54Z"/><polygon class="cls-1" points="252.79 987.73 259.42 1027.1 277.31 1018.6 268.81 1036.48 309.27 1043.12 268.81 1049.75 277.31 1067.64 259.42 1059.14 252.79 1101.8 246.16 1059.14 228.27 1067.64 236.77 1049.75 195.58 1043.12 236.77 1036.48 228.27 1018.6 246.16 1027.1 252.79 987.73"/></g><g><circle class="cls-8" cx="439.43" cy="1017.86" r="79.14"/><path class="cls-1" d="M439.43,1087.81c-38.48,0-69.78-31.3-69.78-69.78s31.3-69.78,69.78-69.78,69.78,31.3,69.78,69.78-31.3,69.78-69.78,69.78Zm0-135.32c-36.14,0-65.54,29.4-65.54,65.54s29.4,65.54,65.54,65.54,65.54-29.4,65.54-65.54-29.4-65.54-65.54-65.54Z"/><polygon class="cls-1" points="439.79 961.73 446.42 1001.1 464.31 992.6 455.81 1010.48 496.27 1017.12 455.81 1023.75 464.31 1041.64 446.42 1033.14 439.79 1075.8 433.16 1033.14 415.27 1041.64 423.77 1023.75 382.58 1017.12 423.77 1010.48 415.27 992.6 433.16 1001.1 439.79 961.73"/></g><g><circle class="cls-8" cx="372.43" cy="1183.86" r="79.14"/><path class="cls-1" d="M372.43,1253.81c-38.48,0-69.78-31.3-69.78-69.78s31.3-69.78,69.78-69.78,69.78,31.3,69.78,69.78-31.3,69.78-69.78,69.78Zm0-135.32c-36.14,0-65.54,29.4-65.54,65.54s29.4,65.54,65.54,65.54,65.54-29.4,65.54-65.54-29.4-65.54-65.54-65.54Z"/><polygon class="cls-1" points="372.79 1127.73 379.42 1167.1 397.31 1158.6 388.81 1176.48 429.27 1183.12 388.81 1189.75 397.31 1207.64 379.42 1199.14 372.79 1241.8 366.16 1199.14 348.27 1207.64 356.77 1189.75 315.58 1183.12 356.77 1176.48 348.27 1158.6 366.16 1167.1 372.79 1127.73"/></g><g><circle class="cls-8" cx="321.43" cy="1350.86" r="79.14"/><path class="cls-1" d="M321.43,1420.81c-38.48,0-69.78-31.3-69.78-69.78s31.3-69.78,69.78-69.78,69.78,31.3,69.78,69.78-31.3,69.78-69.78,69.78Zm0-135.32c-36.14,0-65.54,29.4-65.54,65.54s29.4,65.54,65.54,65.54,65.54-29.4,65.54-65.54-29.4-65.54-65.54-65.54Z"/><polygon class="cls-1" points="321.79 1294.73 328.42 1334.1 346.31 1325.6 337.81 1343.48 378.27 1350.12 337.81 1356.75 346.31 1374.64 328.42 1366.14 321.79 1408.8 315.16 1366.14 297.27 1374.64 305.77 1356.75 264.58 1350.12 305.77 1343.48 297.27 1325.6 315.16 1334.1 321.79 1294.73"/></g><g><circle class="cls-8" cx="527.43" cy="1288.86" r="79.14"/><path class="cls-1" d="M527.43,1358.81c-38.48,0-69.78-31.3-69.78-69.78s31.3-69.78,69.78-69.78,69.78,31.3,69.78,69.78-31.3,69.78-69.78,69.78Zm0-135.32c-36.14,0-65.54,29.4-65.54,65.54s29.4,65.54,65.54,65.54,65.54-29.4,65.54-65.54-29.4-65.54-65.54-65.54Z"/><polygon class="cls-1" points="527.79 1232.73 534.42 1272.1 552.31 1263.6 543.81 1281.48 584.27 1288.12 543.81 1294.75 552.31 1312.64 534.42 1304.14 527.79 1346.8 521.16 1304.14 503.27 1312.64 511.77 1294.75 470.58 1288.12 511.77 1281.48 503.27 1263.6 521.16 1272.1 527.79 1232.73"/></g><g><circle class="cls-8" cx="690.43" cy="1178.86" r="79.14"/><path class="cls-1" d="M690.43,1248.81c-38.48,0-69.78-31.3-69.78-69.78s31.3-69.78,69.78-69.78,69.78,31.3,69.78,69.78-31.3,69.78-69.78,69.78Zm0-135.32c-36.14,0-65.54,29.4-65.54,65.54s29.4,65.54,65.54,65.54,65.54-29.4,65.54-65.54-29.4-65.54-65.54-65.54Z"/><polygon class="cls-1" points="690.79 1122.73 697.42 1162.1 715.31 1153.6 706.81 1171.48 747.27 1178.12 706.81 1184.75 715.31 1202.64 697.42 1194.14 690.79 1236.8 684.16 1194.14 666.27 1202.64 674.77 1184.75 633.58 1178.12 674.77 1171.48 666.27 1153.6 684.16 1162.1 690.79 1122.73"/></g><g><circle class="cls-8" cx="816.43" cy="1045.86" r="79.14"/><path class="cls-1" d="M816.43,1115.81c-38.48,0-69.78-31.3-69.78-69.78s31.3-69.78,69.78-69.78,69.78,31.3,69.78,69.78-31.3,69.78-69.78,69.78Zm0-135.32c-36.14,0-65.54,29.4-65.54,65.54s29.4,65.54,65.54,65.54,65.54-29.4,65.54-65.54-29.4-65.54-65.54-65.54Z"/><polygon class="cls-1" points="816.79 989.73 823.42 1029.1 841.31 1020.6 832.81 1038.48 873.27 1045.12 832.81 1051.75 841.31 1069.64 823.42 1061.14 816.79 1103.8 810.16 1061.14 792.27 1069.64 800.77 1051.75 759.58 1045.12 800.77 1038.48 792.27 1020.6 810.16 1029.1 816.79 989.73"/></g><g><circle class="cls-8" cx="872.43" cy="1203.86" r="79.14"/><path class="cls-1" d="M872.43,1273.81c-38.48,0-69.78-31.3-69.78-69.78s31.3-69.78,69.78-69.78,69.78,31.3,69.78,69.78-31.3,69.78-69.78,69.78Zm0-135.32c-36.14,0-65.54,29.4-65.54,65.54s29.4,65.54,65.54,65.54,65.54-29.4,65.54-65.54-29.4-65.54-65.54-65.54Z"/><polygon class="cls-1" points="872.79 1147.73 879.42 1187.1 897.31 1178.6 888.81 1196.48 929.27 1203.12 888.81 1209.75 897.31 1227.64 879.42 1219.14 872.79 1261.8 866.16 1219.14 848.27 1227.64 856.77 1209.75 815.58 1203.12 856.77 1196.48 848.27 1178.6 866.16 1187.1 872.79 1147.73"/></g><path class="cls-3" d="M584,821.5c-1.63,0-3.2-.89-4-2.43-4.25-8.22-8.83-21.27-6.45-36.75,4.15-27.08,26.83-41.41,36.39-46.32,23.52-12.08,57.96-14.06,75.45,6.05,.68,.78,1.32,1.58,1.94,2.41,7.65-.64,14.4,.36,19.32,1.09,23.84,3.52,39.91,16.65,45.19,20.97,7.21,5.89,10.6,10.3,13.33,13.84,2.89,3.75,4.64,6.02,9.83,8.62,.22,.11,22.22,10.89,38.37-.64,9.83-7.02,12.2-18.39,13.21-23.25,1.38-6.62,3.68-17.69-2.94-25.08-5.95-6.64-15.6-6.66-18.41-6.51-2.48,.15-4.6-1.77-4.73-4.25-.13-2.48,1.77-4.6,4.25-4.73,3.82-.21,16.97-.12,25.59,9.49,9.66,10.78,6.67,25.18,5.06,32.92-1.12,5.38-4.1,19.68-16.79,28.75-20.51,14.64-46.53,1.91-47.63,1.36-7.04-3.52-9.77-7.07-12.94-11.18-2.57-3.34-5.49-7.13-11.9-12.36-4.8-3.93-19.43-15.88-40.81-19.03-3.61-.53-8.02-1.18-12.9-1.2,5.04,11.46,5.52,24.98,.65,35.62-4.93,10.77-12.56,17.37-21.49,18.58-12.24,1.67-25.77-7.35-28.95-19.3-4.61-17.28,14.51-32.51,25.26-38.15,3.09-1.62,6.16-2.82,9.17-3.69-15.86-15.75-46.04-11.04-63.03-2.32-8.33,4.28-28.08,16.7-31.61,39.68-2.01,13.09,1.91,24.22,5.55,31.25,1.14,2.21,.28,4.92-1.93,6.06-.66,.34-1.37,.5-2.06,.5Zm98.86-67.34c-3.52,.71-7.14,1.92-10.78,3.82-9.55,5.01-23.64,17-20.74,27.86,1.82,6.82,10.54,13.85,19.05,12.7,7.38-1,11.97-7.85,14.52-13.41,4.67-10.21,2.74-22.12-2.04-30.96Z"/><g><circle class="cls-5" cx="524.56" cy="857.11" r="42"/><circle class="cls-5" cx="610.75" cy="841.6" r="42"/><circle class="cls-5" cx="565.74" cy="918.61" r="42"/><circle class="cls-5" cx="459.73" cy="917.61" r="42"/><circle class="cls-5" cx="653.76" cy="912.61" r="42"/><circle class="cls-5" cx="620.75" cy="984.62" r="42"/><circle class="cls-5" cx="519.73" cy="981.62" r="42"/><circle class="cls-5" cx="571.74" cy="1038.63" r="42"/><circle class="cls-5" cx="450.72" cy="1002.62" r="42"/><circle class="cls-5" cx="701.76" cy="964.62" r="42"/><circle class="cls-5" cx="664.75" cy="1043.63" r="42"/><circle class="cls-5" cx="500.73" cy="1065.63" r="42"/><circle class="cls-5" cx="554.04" cy="1123.9" r="42"/><circle class="cls-5" cx="633.75" cy="1089.64" r="42"/><circle class="cls-5" cx="592.75" cy="1181.65" r="42"/><circle class="cls-5" cx="653.74" cy="1146.65" r="42"/><circle class="cls-5" cx="650.75" cy="1233.64" r="42"/></g><path class="cls-3" d="M555,792c1.19-2.81,9.47-23.03,3-45-9.11-30.95-44.06-53.68-87-55,4.33,6.33,8.67,12.67,13,19-8.18-1.12-18.81-1.69-31,0-22.87,3.16-39.67,12.66-49,19,7.67,5.67,15.33,11.33,23,17-12.05,1.54-28.63,4.97-47,13-19.26,8.43-33.54,18.89-43,27,12.89-1.23,31.04-1.5,52,3,15.48,3.32,28.27,8.33,38,13-8.67,4-17.33,8-26,12,4.52,.86,11.18,2.36,19,5,15.49,5.24,22.68,10.64,30,14,23.57,10.82,50.43,1.32,57-1,8.49-3,35.97-12.71,48-41Z"/><path class="cls-3" d="M718,743c-10.2-2.11-15.83-11-19-16-10.98-17.34-7.44-36.69-6-43l15,6c1.92-2.16,4.34-5.48,6-10,3.65-9.95,1.07-18.87,0-22,4.08,1.5,8.76,3.94,13,8,16.08,15.37,11.56,40.18,11,43,4.67-2.67,9.33-5.33,14-8,.98,3.49,2.98,12.46-1,22-5.33,12.76-19.79,22.73-33,20Z"/><path class="cls-3" d="M784.61,811.23c6.84-7.86,17.35-8.41,23.26-8.72,20.5-1.08,35.63,11.49,40.42,15.84-4.19,3.38-8.39,6.76-12.58,10.13,.95,2.73,2.65,6.47,5.78,10.13,6.88,8.06,15.93,10.18,19.18,10.78-3.31,2.82-7.73,5.7-13.34,7.41-21.28,6.48-40.69-9.62-42.87-11.49,.04,5.37,.07,10.75,.11,16.12-3.52-.85-12.33-3.51-18.69-11.65-8.51-10.9-10.11-28.39-1.26-38.57Z"/><path class="cls-7" d="M675,559c-4.46-.87-14.02-3.02-27-9-22.96-10.58-21.48-16.95-36-21-4.69-1.31-20.82-5.81-36,3-15.25,8.85-19.07,25.06-20,29-1.07,4.53-5.1,21.63,5,33,2.73,3.08,5.77,4.91,8,6-2.21,1.03-5.4,2.65-9,5-16.26,10.63-23.96,25.19-29,35-17.5,34.06-23.21,82.88-24,90,10.69-5.49,27.08-12.52,48-16,25.28-4.2,33.46,.73,50-6,3.51-1.43,35.16-14.89,40-45,3.74-23.26-9.84-48.22-34-62,3.32-2.91,8.04-6.82,14-11,4.73-3.32,19.35-13.21,41-21,7.61-2.74,17.74-5.81,30-8-5.32,0-12.58-.36-21-2Z"/><path class="cls-4" d="M575,526c2.84-3.12,5.74-4.92,8-6,14.42-6.88,30.19,2.85,32,4,1.72-5.27,5.12-13.27,12-21,12.5-14.04,28.2-17.88,34-19-5.37-1.41-13.37-2.83-23-2-14.13,1.21-24.55,6.63-30,10,.75-6.52,1.08-14.7,0-24-1.7-14.66-6.21-26.25-10-34-2.61,7.39-5.14,16.1-7,26-2.42,12.9-3.09,24.46-3,34-4.18-2.79-9.51-5.73-16-8-17.4-6.08-32.98-3.82-41-2,1.93-.27,19.63-2.47,33,11,12.48,12.58,11.21,28.77,11,31Z"/></g></svg>