<?xml version="1.0" encoding="UTF-8"?><svg xmlns="http://www.w3.org/2000/svg" viewBox="0 0 1080 1944"><defs><style>.cls-1{fill:#fff;}.cls-2{fill:#f6ef84;}.cls-3{stroke:#4c5fa9;stroke-miterlimit:10;}.cls-3,.cls-4{fill:none;stroke-linecap:round;stroke-width:5px;}.cls-5{fill:#3f3730;}.cls-6{fill:#4c5fa9;}.cls-4{stroke:#fff;stroke-linejoin:round;}.cls-7{fill:#bad6eb;}.cls-8{fill:#c8c0de;}.cls-9{fill:#b1d4f0;}</style></defs><g id="_배경_텍스트"><g><rect class="cls-7" width="1080" height="1944"/><rect class="cls-1" x="74.84" y="186.39" width="930.33" height="1606.64" rx="65.21" ry="65.21"/><g><path class="cls-5" d="M202.88,1664.36c-4.41,4.5-8.11,7.81-11.1,9.95-2.99,2.14-5.67,3.21-8.04,3.21s-4.24-.73-5.94-2.2c-1.7-1.47-3.74-3.67-6.1-6.61-7.3,5.87-13.92,8.81-19.85,8.81-5.19,0-9.44-2.13-12.74-6.39-3.31-4.26-4.96-9.76-4.96-16.49,0-7.2,1.41-14.43,4.23-21.7,2.82-7.27,6.4-13.69,10.74-19.25,4.34-5.57,7.91-9.28,10.7-11.15,2.79-1.86,7.05-2.79,12.78-2.79l.11,.75c-8.16,7.66-14.09,15.95-17.78,24.87-3.69,8.92-5.53,17.46-5.53,25.62,0,5.3,1.04,9.44,3.12,12.43,2.08,2.99,4.93,4.48,8.55,4.48,2.4,0,5.14-.95,8.22-2.85-1.79-2.54-3.23-4.22-4.3-5.05-1.08-.82-2.35-1.24-3.82-1.24-.11,0-.46,.06-1.05,.19-.59,.13-.94,.19-1.05,.19-.5,0-.75-.23-.75-.7,0-.93,1.07-2.3,3.2-4.11,2.13-1.81,4.29-2.71,6.48-2.71,1.69,0,3.22,.47,4.6,1.4,1.38,.93,3,2.35,4.87,4.24,11.44-14.57,17.16-28.77,17.16-42.59,0-3.12-.51-5.59-1.53-7.44-1.02-1.84-2.37-2.77-4.04-2.77-3.11,0-5.99,2.35-8.65,7.04-2.66,4.69-3.99,8.83-3.99,12.41,0,2.69,1.2,4.19,3.61,4.51,1.03,.11,1.54,.56,1.54,1.34,0,1.61-.81,3.17-2.44,4.67-1.63,1.5-3.32,2.26-5.08,2.26-2.15,0-3.95-.96-5.4-2.87-1.45-1.92-2.18-4.34-2.18-7.28,0-6.19,2.34-12.21,7.01-18.05,4.67-5.84,9.41-8.75,14.21-8.75,3.4,0,6.07,1.33,8,4,1.93,2.67,2.9,6.35,2.9,11.04,0,14.72-6.24,30.01-18.72,45.87,3.37,4.98,6.49,7.47,9.36,7.47,3.58,0,8.14-3.31,13.66-9.94v6.18Z"/><path class="cls-5" d="M260.19,1664.42c-4.73,4.48-8.68,7.78-11.87,9.91-3.19,2.13-6.05,3.2-8.59,3.2-2.83,0-5-1.13-6.53-3.38s-2.28-5.32-2.28-9.18c-3.94,4.33-7.46,7.53-10.58,9.59-3.12,2.06-6.16,3.09-9.13,3.09-2.72,0-4.91-1.13-6.55-3.38-1.65-2.26-2.47-5.32-2.47-9.18,0-7.45,2.51-17.94,7.52-31.47l14.35-2.86c-5.9,17.17-8.86,28.18-8.87,33.05,0,3.44,1.29,5.15,3.87,5.15,1.86,0,4.17-1.51,6.93-4.54,2.76-3.03,4.48-5.67,5.16-7.92l7.04-22.88,14.62-2.96c-3.38,10.78-5.69,18.35-6.95,22.72-1.26,4.37-1.88,7.43-1.88,9.18,0,3.37,1.15,5.05,3.44,5.05,1.86,0,4.62-1.7,8.28-5.1l4.52-4.24v6.18Z"/><path class="cls-5" d="M300.31,1664.42c-4.55,4.48-8.63,7.78-12.25,9.91-3.62,2.13-7.61,3.2-11.98,3.2-4.87,0-8.8-1.56-11.79-4.67-2.99-3.12-4.48-7.21-4.48-12.3,0-7.59,2.63-14.46,7.9-20.6,5.26-6.14,11.1-9.21,17.51-9.21,3.33,0,6,.86,8,2.58s3.01,3.97,3.01,6.77c0,7.41-7.88,13.43-23.63,18.05,1.43,6.98,5.17,10.47,11.23,10.47,2.36,0,4.62-.64,6.77-1.91,2.15-1.27,5.39-4.09,9.72-8.46v6.18Zm-28.14-9.94c9.17-2.58,13.75-7.34,13.75-14.29,0-3.44-1.25-5.16-3.76-5.16-2.36,0-4.62,1.8-6.77,5.4-2.15,3.6-3.22,8.28-3.22,14.04Z"/><path class="cls-5" d="M340.49,1664.42c-4.55,4.48-8.63,7.78-12.25,9.91-3.62,2.13-7.61,3.2-11.98,3.2-4.87,0-8.8-1.56-11.79-4.67-2.99-3.12-4.48-7.21-4.48-12.3,0-7.59,2.63-14.46,7.9-20.6,5.26-6.14,11.1-9.21,17.51-9.21,3.33,0,6,.86,8,2.58s3.01,3.97,3.01,6.77c0,7.41-7.88,13.43-23.63,18.05,1.43,6.98,5.17,10.47,11.23,10.47,2.36,0,4.62-.64,6.77-1.91,2.15-1.27,5.39-4.09,9.72-8.46v6.18Zm-28.14-9.94c9.17-2.58,13.75-7.34,13.75-14.29,0-3.44-1.25-5.16-3.76-5.16-2.36,0-4.62,1.8-6.77,5.4-2.15,3.6-3.22,8.28-3.22,14.04Z"/><path class="cls-5" d="M393.23,1664.42c-8.27,8.74-15.36,13.11-21.27,13.11-2.4,0-4.33-.84-5.8-2.52s-2.2-3.94-2.2-6.77c0-3.83,1.57-9.69,4.73-17.56,1.68-4.22,2.52-6.91,2.52-8.06s-.45-1.72-1.34-1.72c-.5,0-1.16,.25-1.99,.75-.75,.5-1.63,1.2-2.63,2.09-.9,.82-1.9,1.83-3.01,3.01-.97,1-2.01,2.15-3.12,3.44l-3.01,3.49c-1.33,1.61-2.15,3.31-2.47,5.1-.54,3.04-.9,5.84-1.07,8.38-.11,1.9-.16,4.46-.16,7.68l-11.87,2.79c-.39-4.83-.59-8.43-.59-10.8,0-5.76,.67-11.23,2.01-16.38,1.34-5.16,3.5-10.96,6.47-17.4l13.11-2.52c-2.76,7.41-4.56,13.25-5.42,17.51,5.87-6.55,10.53-11.09,13.98-13.62,3.45-2.53,6.51-3.79,9.2-3.79,1.82,0,3.34,.69,4.56,2.07,1.22,1.38,1.82,3.1,1.82,5.18,0,3.43-1.54,9.09-4.62,16.97-2.11,5.41-3.17,8.92-3.17,10.53,0,2.15,.88,3.23,2.64,3.23,2.62,0,6.86-3.46,12.71-10.37v6.18Z"/><path class="cls-5" d="M468.91,1664.42c-1.83,1.61-3.6,2.75-5.32,3.41-1.72,.66-3.08,.99-4.08,.99-2.58,0-5.14-1-7.68-3.01-5.16,7.81-11.06,11.71-17.72,11.71-4.15,0-7.52-1.56-10.1-4.67s-3.87-7.25-3.87-12.41c0-8.16,2.9-15.17,8.7-21.03,5.8-5.85,12.73-8.78,20.79-8.78,3.04,0,5.27,.33,6.69,.99,1.41,.66,2.28,1.44,2.61,2.34,.32,.9,.48,2.02,.48,3.38,0,6.7-1.83,14.91-5.48,24.65,1.83,1.68,3.74,2.52,5.75,2.52,2.4,0,5.48-2.09,9.24-6.28v6.18Zm-17.72-30.02c-.54-.21-1.31-.32-2.31-.32-4.65,0-8.3,2.44-10.93,7.3-2.63,4.87-3.95,10.56-3.95,17.08,0,3.62,.57,6.43,1.72,8.43,1.14,2.01,2.74,3.01,4.78,3.01,2.54,0,5.3-2.34,8.27-7.04-3.37-4.22-5.05-8.77-5.05-13.64,0-5.73,2.49-10.67,7.47-14.82Z"/><path class="cls-5" d="M512.47,1664.42c-3.72,4.19-7.4,7.42-11.05,9.69-3.65,2.27-6.9,3.41-9.77,3.41-1.36,0-3.22-.52-5.58-1.55-1.51,7.88-2.84,16.38-3.99,25.5-3.73,.5-8.21,1.27-13.44,2.31,1.15-9.81,3.13-22.54,5.96-38.19-.39-.68-1.09-2.4-2.09-5.16l-3.6,3.97h-1.24v-4.83l10.24-10.62c1.95-9.61,3.53-16.56,4.75-20.86,1.22-4.3,2.92-9.05,5.1-14.26,2.18-5.21,3.56-8.2,4.14-8.97,.57-.77,1.96-1.5,4.16-2.2,2.2-.7,4.56-1.36,7.06-1.99,2.51-.63,3.85-.94,4.03-.94,1.36,0,2.47,.89,3.33,2.66s1.29,4.1,1.29,7c0,5.01-1.32,9.84-3.97,14.49-2.64,4.65-7.64,10.37-15,17.17l-4.51,22.45c1.75,3.75,4.38,5.63,7.88,5.63,5,0,10.44-3.63,16.3-10.9v6.18Zm-18.04-30.61c4.19-3.65,7.47-7.58,9.85-11.79,2.38-4.21,3.57-8.08,3.57-11.63,0-1.5-.28-2.74-.83-3.71s-1.24-1.45-2.06-1.45c-1.57,0-3.17,2.06-4.79,6.18-1.62,4.12-3.54,11.58-5.73,22.4Z"/><path class="cls-5" d="M598.68,1613.61c-2.34,2.11-4.04,4.58-5.11,7.39-1.06,2.81-2.16,8.67-3.29,17.56-1.12,8.9-2.93,15.9-5.42,21.02-2.49,5.12-6.41,9.39-11.77,12.81-5.36,3.42-11.24,5.13-17.65,5.13-4.55,0-8.25-1.13-11.1-3.38s-4.27-5.14-4.27-8.65c0-1.32,.41-2.41,1.24-3.25,.82-.84,2.51-1.98,5.05-3.41,2.54-1.43,4.26-2.15,5.16-2.15,.61,0,1.13,.21,1.56,.62,.43,.41,.64,.9,.64,1.48,0,.36-.17,1.68-.51,3.97-.34,2.29-.51,3.65-.51,4.08,0,4.26,1.79,6.39,5.37,6.39,4.04,0,7.45-2.37,10.21-7.12,2.76-4.75,4.75-12.16,5.99-22.24,1.24-10.08,3.11-17.2,5.61-21.35,2.51-4.15,5.43-7.1,8.78-8.83,3.35-1.74,5.67-2.61,6.96-2.61,.89,0,1.92,.84,3.06,2.52Zm-10.1-13.96c7.55,0,13.57,1.83,18.05,5.5,4.47,3.67,6.71,8.57,6.71,14.69,0,5.66-1.66,10.2-4.97,13.62-3.31,3.42-6.17,5.13-8.57,5.13-.89,0-1.91-.39-3.03-1.18-1.13-.79-1.69-1.5-1.69-2.15,0-.36,.84-1.65,2.53-3.87,3.94-4.87,5.91-9.7,5.91-14.5,0-4.05-1.36-7.26-4.08-9.64-2.72-2.38-6.41-3.57-11.06-3.57-7.02,0-13.38,2.14-19.07,6.42-5.69,4.28-8.54,8.96-8.54,14.05,0,3.37,1.54,5.68,4.62,6.93,1.22,.54,1.83,1.27,1.83,2.2s-1.34,2.09-4.03,3.38-4.56,1.93-5.64,1.93c-1.61,0-3.13-1.07-4.57-3.2-1.43-2.13-2.15-4.45-2.15-6.96,0-6.73,3.62-13.21,10.85-19.44s16.2-9.35,26.91-9.35Z"/><path class="cls-5" d="M647.93,1664.42c-4.55,4.48-8.63,7.78-12.25,9.91-3.62,2.13-7.61,3.2-11.98,3.2-4.87,0-8.8-1.56-11.79-4.67-2.99-3.12-4.48-7.21-4.48-12.3,0-7.59,2.63-14.46,7.9-20.6,5.26-6.14,11.1-9.21,17.51-9.21,3.33,0,6,.86,8,2.58s3.01,3.97,3.01,6.77c0,7.41-7.88,13.43-23.63,18.05,1.43,6.98,5.17,10.47,11.23,10.47,2.36,0,4.62-.64,6.77-1.91,2.15-1.27,5.39-4.09,9.72-8.46v6.18Zm-28.14-9.94c9.17-2.58,13.75-7.34,13.75-14.29,0-3.44-1.25-5.16-3.76-5.16-2.36,0-4.62,1.8-6.77,5.4-2.15,3.6-3.22,8.28-3.22,14.04Z"/><path class="cls-5" d="M700.68,1664.42c-8.27,8.74-15.36,13.11-21.27,13.11-2.4,0-4.33-.84-5.8-2.52s-2.2-3.94-2.2-6.77c0-3.83,1.57-9.69,4.73-17.56,1.68-4.22,2.52-6.91,2.52-8.06s-.45-1.72-1.34-1.72c-.5,0-1.16,.25-1.99,.75-.75,.5-1.63,1.2-2.63,2.09-.9,.82-1.9,1.83-3.01,3.01-.97,1-2.01,2.15-3.12,3.44l-3.01,3.49c-1.33,1.61-2.15,3.31-2.47,5.1-.54,3.04-.9,5.84-1.07,8.38-.11,1.9-.16,4.46-.16,7.68l-11.87,2.79c-.39-4.83-.59-8.43-.59-10.8,0-5.76,.67-11.23,2.01-16.38,1.34-5.16,3.5-10.96,6.47-17.4l13.11-2.52c-2.76,7.41-4.56,13.25-5.42,17.51,5.87-6.55,10.53-11.09,13.98-13.62,3.45-2.53,6.51-3.79,9.2-3.79,1.82,0,3.34,.69,4.56,2.07,1.22,1.38,1.82,3.1,1.82,5.18,0,3.43-1.54,9.09-4.62,16.97-2.11,5.41-3.17,8.92-3.17,10.53,0,2.15,.88,3.23,2.64,3.23,2.62,0,6.86-3.46,12.71-10.37v6.18Z"/><path class="cls-5" d="M731.56,1664.42c-4.51,4.48-8.42,7.78-11.71,9.91-3.29,2.13-6.43,3.2-9.4,3.2s-5.58-1.3-7.49-3.89c-1.92-2.6-2.87-6.01-2.87-10.23,0-3.72,.92-8.64,2.76-14.75l2.28-8.13-4.12,.21,1.72-8.43,5.11-.21,5.04-16.76,14.35-2.95-5.55,18.68,7.58-.43-1.77,8.27-8.33,.64-3.58,12.04c-1.24,4.18-1.87,7.51-1.87,9.98,0,1.68,.42,3.05,1.27,4.11,.84,1.06,1.93,1.58,3.25,1.58,1.83,0,3.64-.58,5.43-1.75,1.79-1.16,4.43-3.59,7.91-7.28v6.18Z"/><path class="cls-5" d="M788.87,1664.42c-5.73,5.44-9.83,8.99-12.3,10.63s-4.83,2.47-7.09,2.47c-5.66,0-8.33-5-8-14.99-3.58,5.12-6.88,8.9-9.91,11.33-3.03,2.43-6.15,3.65-9.37,3.65s-5.83-1.48-8.03-4.43c-2.2-2.96-3.3-6.58-3.3-10.88,0-5.37,1.48-10.49,4.43-15.36,2.95-4.87,6.74-8.81,11.36-11.82s8.7-4.51,12.25-4.51c4.48,0,7.61,2.06,9.4,6.18l10.98-6.07h3.01l-4.74,15.74c-2.44,7.91-3.66,13.34-3.66,16.28s1.09,4.62,3.27,4.62c1.4,0,2.94-.74,4.62-2.23,1.68-1.49,4.04-3.75,7.09-6.79v6.18Zm-39.32,2.95c3.58,0,6.96-3.05,10.12-9.16,3.17-6.1,4.75-11.74,4.75-16.89,0-2-.45-3.57-1.34-4.7-.89-1.13-2.09-1.69-3.6-1.69-3.58,0-6.97,3.04-10.18,9.13-3.2,6.09-4.81,11.69-4.81,16.81,0,1.93,.47,3.5,1.42,4.7,.95,1.2,2.16,1.8,3.62,1.8Z"/><path class="cls-5" d="M828.99,1664.42c-4.58,4.51-8.78,7.82-12.6,9.94-3.81,2.11-7.8,3.17-11.95,3.17-4.65,0-8.49-1.51-11.52-4.54-3.03-3.03-4.54-6.87-4.54-11.52,0-7.63,2.78-14.67,8.35-21.13,5.57-6.46,11.59-9.7,18.07-9.7,3.19,0,5.78,.89,7.79,2.66,2.01,1.77,3.01,4.07,3.01,6.9,0,1-.19,1.75-.56,2.26-.38,.5-1.08,1-2.12,1.5l-6.23,2.95c-.75,.36-1.31,.54-1.66,.54-.5,0-.75-.36-.75-1.07,0-.29,.11-1.23,.32-2.82,.21-1.59,.32-2.57,.32-2.93,0-1.58-.33-2.85-.99-3.81s-1.55-1.45-2.66-1.45c-2.62,0-5,1.93-7.17,5.8-2.17,3.87-3.25,8.27-3.25,13.21,0,4.26,1.02,7.66,3.06,10.21,2.04,2.54,4.76,3.81,8.16,3.81,2.9,0,5.63-.83,8.19-2.5,2.56-1.67,5.47-4.22,8.73-7.65v6.18Z"/><path class="cls-5" d="M864.55,1664.42c-4.87,4.48-9.14,7.78-12.81,9.91-3.67,2.13-7.17,3.2-10.5,3.2-3.83,0-6.92-1.49-9.27-4.46-2.35-2.97-3.52-6.96-3.52-11.98,0-7.52,1.63-16.54,4.89-27.07s7.21-20.23,11.87-29.11l13.64-5.05c.43-.14,.75-.21,.97-.21,1.04,0,1.89,.76,2.55,2.28,.66,1.52,.99,3.57,.99,6.15,0,7.3-1.68,14.38-5.05,21.22-3.37,6.84-8.63,14.14-15.79,21.91-.29,3.72-.43,6.28-.43,7.68,0,3.12,.57,5.59,1.72,7.41,1.14,1.83,2.67,2.74,4.56,2.74s3.99-.7,6.18-2.09c2.18-1.4,5.51-4.3,9.99-8.7v6.18Zm-20.57-21c4.55-5.06,8.24-10.72,11.06-17,2.83-6.27,4.24-11.67,4.24-16.19,0-1.33-.2-2.39-.59-3.2-.39-.81-.89-1.21-1.5-1.21-1.32,0-3.25,3.3-5.77,9.9-2.52,6.6-5,15.83-7.44,27.7Z"/><path class="cls-5" d="M904.72,1664.42c-4.55,4.48-8.63,7.78-12.25,9.91-3.62,2.13-7.61,3.2-11.98,3.2-4.87,0-8.8-1.56-11.79-4.67s-4.48-7.21-4.48-12.3c0-7.59,2.63-14.46,7.89-20.6,5.26-6.14,11.1-9.21,17.51-9.21,3.33,0,6,.86,8,2.58,2,1.72,3.01,3.97,3.01,6.77,0,7.41-7.88,13.43-23.63,18.05,1.43,6.98,5.17,10.47,11.22,10.47,2.36,0,4.62-.64,6.77-1.91,2.15-1.27,5.39-4.09,9.72-8.46v6.18Zm-28.14-9.94c9.17-2.58,13.75-7.34,13.75-14.29,0-3.44-1.25-5.16-3.76-5.16-2.36,0-4.62,1.8-6.77,5.4-2.15,3.6-3.22,8.28-3.22,14.04Z"/><path class="cls-5" d="M921.27,1632.94c2.47-.64,4.96-1.17,7.46-1.58,2.51-.41,4.01-.62,4.51-.62,.36,0,.54,.14,.54,.43,0,.54-.14,1.09-.43,1.66-.57,1.65-.86,3.22-.86,4.72,0,1.86,1.08,4.4,3.23,7.63,2.15,3.22,3.22,6.22,3.22,8.97,0,5.48-2.62,10.76-7.87,15.84-5.25,5.08-10.68,7.63-16.3,7.63-2.44,0-4.65-.64-6.66-1.93s-3.01-2.67-3.01-4.14c0-.86,.99-2.49,2.98-4.89,1.99-2.4,3.41-3.6,4.27-3.6,1.14,0,2.17,1.47,3.06,4.4,.89,2.94,2.44,4.4,4.62,4.4s4.23-1.01,6.15-3.04c1.92-2.02,2.87-4.2,2.87-6.53,0-2.26-1.21-5.26-3.65-9.02s-4.05-6.91-4.84-9.45c-4.15,6.7-9.42,13.55-15.79,20.57h-1.23v-4.83c8.77-9.35,14.68-18.23,17.72-26.64Z"/></g><g><path class="cls-1" d="M410.88,142.03c-5.1,5.49-9.75,8.24-13.95,8.24-2.55,0-4.5-1.23-5.83-3.69-1.33-2.46-2-5.75-2-9.88,0-3.19,.65-7.58,1.96-13.16,1.31-5.58,3-10.28,5.08-14.08l1.98-3.55c-2.71,2.83-4.93,5.92-6.67,9.28-1.73,3.36-3.8,8.06-6.2,14.1-2.4,6.04-4.22,10.15-5.45,12.34s-2.41,3.97-3.54,5.35c-1.13,1.38-2.13,2.27-3.01,2.68-.88,.41-2.41,.62-4.6,.62-.84,0-1.26-.23-1.26-.68,0-.05,.15-.76,.45-2.15,.3-1.39,.61-3.62,.92-6.68,.31-3.06,.54-8.27,.68-15.62s1.21-13.64,3.21-18.88c-2.14,2.44-4.33,8.11-6.57,17.02l-.86,3.35c-2.35,9.27-5.04,15.53-8.08,18.78-3.03,3.25-6.01,4.87-8.93,4.87-1.8,0-3.39-.57-4.76-1.71s-2.05-2.45-2.05-3.93c0-1.14,.82-2.42,2.46-3.83,1.64-1.41,2.68-2.12,3.11-2.12,.5,0,.83,.17,.99,.51,.16,.34,.37,1.28,.62,2.82s.63,2.54,1.15,3.01c.51,.47,1.16,.7,1.94,.7,1.76,0,3.7-1.76,5.83-5.28s4.07-8.96,5.83-16.32l.99-4.14c.8-3.37,1.59-6.06,2.37-8.07,.78-2,1.8-4.01,3.08-6.02,1.85-2.87,2.99-4.4,3.41-4.6,.42-.19,1.21-.35,2.38-.48,1.16-.12,2.32-.19,3.49-.19,.46,0,.68,.26,.68,.79,0,.25-.07,.76-.21,1.54-.45,3.19-.66,6.39-.64,9.6l.07,9.16c.04,7.98-.59,14.41-1.91,19.31,1.21-1.46,2.96-5.22,5.26-11.28,3.33-8.59,6.36-15.04,9.09-19.35,1.3-2.07,2.87-4.06,4.7-5.96,1.83-1.9,3.1-2.92,3.81-3.06,2.42-.46,4.45-.68,6.12-.68,.62,0,.92,.17,.92,.51,0,.48-.38,1.55-1.12,3.21-1.77,4.01-3.43,9.44-4.96,16.27s-2.31,12.28-2.32,16.33c0,4.58,1.4,6.87,4.2,6.87,2.28,0,4.99-1.94,8.13-5.81v3.93Z"/><path class="cls-1" d="M427.66,142.03c-5.33,5.61-9.32,8.41-11.96,8.41-1.46,0-2.69-.75-3.69-2.24-1-1.49-1.5-3.37-1.5-5.62,0-4.85,1.64-11.58,4.92-20.17l8.68-1.81h.41l-3.42,10.7c-1.41,4.42-2.12,7.58-2.12,9.47,0,.75,.17,1.36,.5,1.83,.33,.47,.75,.7,1.25,.7,.89,0,1.78-.32,2.68-.97s2.32-2.06,4.26-4.22v3.93Zm-.68-34.79c0,5.47-2.02,8.2-6.05,8.2-1.96,0-3.63-.59-5.02-1.78,1.32-2,2.35-4.26,3.08-6.77,1.8,1.12,3.25,1.67,4.34,1.67,1.23,0,2.45-.44,3.66-1.33Z"/><path class="cls-1" d="M461.22,142.03c-5.26,5.56-9.78,8.34-13.54,8.34-1.53,0-2.76-.54-3.69-1.61-.93-1.07-1.4-2.51-1.4-4.31,0-2.44,1-6.16,3.01-11.18,1.07-2.69,1.61-4.4,1.61-5.13s-.29-1.09-.85-1.09c-.32,0-.74,.16-1.26,.48-.48,.32-1.04,.76-1.67,1.33-.57,.52-1.21,1.16-1.91,1.91-.62,.64-1.28,1.37-1.98,2.19l-1.91,2.22c-.84,1.03-1.37,2.11-1.57,3.25-.34,1.94-.57,3.71-.68,5.33-.07,1.21-.1,2.84-.1,4.89l-7.55,1.78c-.25-3.08-.38-5.37-.38-6.87,0-3.67,.43-7.14,1.28-10.42,.86-3.28,2.23-6.97,4.12-11.07l8.34-1.61c-1.75,4.72-2.91,8.43-3.45,11.14,3.73-4.17,6.7-7.06,8.89-8.66,2.19-1.61,4.15-2.41,5.85-2.41,1.16,0,2.13,.44,2.9,1.31,.77,.88,1.16,1.97,1.16,3.29,0,2.18-.98,5.78-2.94,10.8-1.34,3.44-2.02,5.68-2.02,6.7,0,1.37,.56,2.06,1.68,2.06,1.67,0,4.36-2.2,8.09-6.6v3.93Z"/><path class="cls-1" d="M491.88,142.03c-1.16,1.03-2.29,1.75-3.38,2.17-1.09,.42-1.96,.63-2.6,.63-1.64,0-3.27-.64-4.89-1.91-3.28,4.97-7.04,7.45-11.28,7.45-2.64,0-4.79-.99-6.43-2.97s-2.46-4.61-2.46-7.9c0-5.2,1.85-9.66,5.54-13.38s8.1-5.59,13.23-5.59c1.94,0,3.35,.21,4.25,.63,.9,.42,1.45,.92,1.66,1.49,.21,.57,.31,1.29,.31,2.15,0,4.26-1.16,9.49-3.49,15.69,1.16,1.07,2.38,1.61,3.66,1.61,1.53,0,3.49-1.33,5.88-4v3.93Zm-11.28-19.11c-.34-.14-.83-.21-1.47-.21-2.96,0-5.28,1.55-6.96,4.65-1.67,3.1-2.51,6.72-2.51,10.87,0,2.3,.36,4.09,1.09,5.37,.73,1.28,1.74,1.91,3.04,1.91,1.62,0,3.37-1.49,5.26-4.48-2.14-2.69-3.21-5.58-3.21-8.68,0-3.65,1.58-6.79,4.75-9.43Z"/><path class="cls-1" d="M517.42,142.03c-5.72,5.61-10.13,8.41-13.23,8.41-1.39,0-2.56-.59-3.52-1.76s-1.44-2.63-1.44-4.36c0-3.21,1.72-7.52,5.16-12.92-1.69,.87-3.53,1.47-5.54,1.81-1.48,2.73-3.81,5.67-6.97,8.82h-.79v-3.08c1.78-1.85,3.38-3.83,4.82-5.95-1.96-.87-2.94-2.15-2.94-3.86s.6-3.63,1.79-5.62c1.2-1.99,2.84-2.99,4.94-2.99,1.78,0,2.67,.91,2.67,2.73,0,1.44-.51,3.49-1.54,6.15,3.78-.41,7.09-3.3,9.91-8.68l3.11-.14-3.18,8.75c-1.32,3.69-2.18,6.2-2.56,7.54-.39,1.33-.58,2.51-.58,3.54,0,.96,.22,1.72,.67,2.29,.44,.57,1.04,.85,1.79,.85,.82,0,1.61-.28,2.36-.84,.75-.56,2.44-2.1,5.06-4.63v3.93Z"/><path class="cls-1" d="M582.32,142.06c-5.24,5.58-10.05,8.37-14.42,8.37-2.42,0-4.33-.85-5.74-2.56-1.41-1.71-2.2-4.15-2.36-7.31-2.76,3.35-5.2,5.83-7.33,7.45s-4.4,2.43-6.82,2.43c-3.1,0-5.59-1.34-7.47-4.02-1.88-2.68-2.82-6.25-2.82-10.72,0-5.33,1.23-10.83,3.69-16.49,2.46-5.66,6.11-10.13,10.94-13.42,4.83-3.28,10.69-4.92,17.57-4.92,5.15,0,9.81,.7,13.98,2.08v2.26c-3.4,3.96-6.24,9.51-8.53,16.65-2.29,7.13-3.44,12.57-3.44,16.3,0,1.82,.37,3.24,1.11,4.24,.74,1,1.77,1.5,3.09,1.5,2.37,0,5.22-1.93,8.54-5.78v3.93Zm-9.95-36.85c-2.1-1.14-4.35-1.71-6.77-1.71-3.81,0-7.24,1.59-10.29,4.77-3.05,3.18-5.46,7.39-7.23,12.63-1.77,5.24-2.65,9.79-2.65,13.64,0,2.58,.5,4.67,1.49,6.27,.99,1.61,2.26,2.41,3.81,2.41,2.69,0,5.78-2.45,9.26-7.35,1.44-12.85,5.56-23.07,12.37-30.66Z"/><path class="cls-1" d="M607.85,142.03c-5.72,5.61-10.13,8.41-13.23,8.41-1.39,0-2.56-.59-3.52-1.76s-1.44-2.63-1.44-4.36c0-3.21,1.72-7.52,5.16-12.92-1.69,.87-3.53,1.47-5.54,1.81-1.48,2.73-3.81,5.67-6.97,8.82h-.79v-3.08c1.78-1.85,3.38-3.83,4.82-5.95-1.96-.87-2.94-2.15-2.94-3.86s.6-3.63,1.79-5.62c1.2-1.99,2.84-2.99,4.94-2.99,1.78,0,2.67,.91,2.67,2.73,0,1.44-.51,3.49-1.54,6.15,3.78-.41,7.09-3.3,9.91-8.68l3.11-.14-3.18,8.75c-1.32,3.69-2.18,6.2-2.56,7.54-.39,1.33-.58,2.51-.58,3.54,0,.96,.22,1.72,.67,2.29,.44,.57,1.04,.85,1.79,.85,.82,0,1.61-.28,2.36-.84,.75-.56,2.44-2.1,5.06-4.63v3.93Z"/><path class="cls-1" d="M633.42,142.03c-2.92,2.87-5.59,4.98-8.02,6.32-2.43,1.34-4.96,2.02-7.6,2.02-2.96,0-5.41-.96-7.33-2.89-1.93-1.93-2.89-4.37-2.89-7.33,0-4.85,1.77-9.34,5.31-13.45,3.54-4.11,7.38-6.17,11.5-6.17,2.03,0,3.68,.56,4.96,1.69,1.28,1.13,1.91,2.59,1.91,4.39,0,.64-.12,1.12-.36,1.44-.24,.32-.69,.64-1.35,.96l-3.96,1.88c-.48,.23-.83,.34-1.06,.34-.32,0-.48-.23-.48-.68,0-.18,.07-.78,.21-1.79,.14-1.01,.21-1.63,.21-1.86,0-1-.21-1.81-.63-2.43s-.99-.92-1.69-.92c-1.66,0-3.18,1.23-4.56,3.69-1.38,2.46-2.07,5.26-2.07,8.41,0,2.71,.65,4.88,1.95,6.49,1.3,1.62,3.03,2.43,5.2,2.43,1.85,0,3.58-.53,5.21-1.59s3.48-2.68,5.55-4.87v3.93Z"/><path class="cls-1" d="M669.92,142.03c-3.65,3.46-6.25,5.72-7.83,6.77s-3.08,1.57-4.51,1.57c-3.6,0-5.3-3.18-5.09-9.54-2.28,3.26-4.38,5.66-6.31,7.21s-3.91,2.32-5.96,2.32-3.71-.94-5.11-2.82c-1.4-1.88-2.1-4.19-2.1-6.92,0-3.42,.94-6.68,2.82-9.78,1.88-3.1,4.29-5.61,7.23-7.52s5.54-2.87,7.79-2.87c2.85,0,4.84,1.31,5.98,3.93l6.99-3.86h1.92l-3.01,10.02c-1.55,5.04-2.33,8.49-2.33,10.36s.69,2.94,2.08,2.94c.89,0,1.87-.47,2.94-1.42,1.07-.95,2.57-2.39,4.51-4.32v3.93Zm-25.02,1.88c2.28,0,4.43-1.94,6.44-5.83,2.02-3.88,3.02-7.47,3.02-10.75,0-1.28-.29-2.27-.85-2.99-.57-.72-1.33-1.08-2.29-1.08-2.28,0-4.44,1.94-6.48,5.81-2.04,3.87-3.06,7.44-3.06,10.7,0,1.23,.3,2.23,.91,2.99,.6,.76,1.37,1.15,2.31,1.15Z"/><path class="cls-1" d="M703.46,142.03c-5.26,5.56-9.78,8.34-13.54,8.34-1.53,0-2.76-.54-3.69-1.61-.93-1.07-1.4-2.51-1.4-4.31,0-2.44,1-6.16,3.01-11.18,1.07-2.69,1.61-4.4,1.61-5.13s-.29-1.09-.85-1.09c-.32,0-.74,.16-1.26,.48-.48,.32-1.04,.76-1.67,1.33-.57,.52-1.21,1.16-1.91,1.91-.62,.64-1.28,1.37-1.98,2.19l-1.91,2.22c-.84,1.03-1.37,2.11-1.57,3.25-.34,1.94-.57,3.71-.68,5.33-.07,1.21-.1,2.84-.1,4.89l-7.55,1.78c-.25-3.08-.38-5.37-.38-6.87,0-3.67,.43-7.14,1.28-10.42,.86-3.28,2.23-6.97,4.12-11.07l8.34-1.61c-1.75,4.72-2.91,8.43-3.45,11.14,3.73-4.17,6.7-7.06,8.89-8.66,2.19-1.61,4.15-2.41,5.85-2.41,1.16,0,2.13,.44,2.9,1.31,.77,.88,1.16,1.97,1.16,3.29,0,2.18-.98,5.78-2.94,10.8-1.34,3.44-2.02,5.68-2.02,6.7,0,1.37,.56,2.06,1.68,2.06,1.67,0,4.36-2.2,8.09-6.6v3.93Z"/><path class="cls-1" d="M739.92,142.03c-3.65,3.46-6.25,5.72-7.83,6.77s-3.08,1.57-4.51,1.57c-3.6,0-5.3-3.18-5.09-9.54-2.28,3.26-4.38,5.66-6.31,7.21s-3.91,2.32-5.96,2.32-3.71-.94-5.11-2.82c-1.4-1.88-2.1-4.19-2.1-6.92,0-3.42,.94-6.68,2.82-9.78,1.88-3.1,4.29-5.61,7.23-7.52s5.54-2.87,7.79-2.87c2.85,0,4.84,1.31,5.98,3.93l6.99-3.86h1.92l-3.01,10.02c-1.55,5.04-2.33,8.49-2.33,10.36s.69,2.94,2.08,2.94c.89,0,1.87-.47,2.94-1.42,1.07-.95,2.57-2.39,4.51-4.32v3.93Zm-25.02,1.88c2.28,0,4.43-1.94,6.44-5.83,2.02-3.88,3.02-7.47,3.02-10.75,0-1.28-.29-2.27-.85-2.99-.57-.72-1.33-1.08-2.29-1.08-2.28,0-4.44,1.94-6.48,5.81-2.04,3.87-3.06,7.44-3.06,10.7,0,1.23,.3,2.23,.91,2.99,.6,.76,1.37,1.15,2.31,1.15Z"/></g></g></g><g id="_반짝이"><polygon class="cls-8" points="769.01 777 780.59 821.97 817.91 831.2 780.59 841.33 769.01 887.13 756.8 841.33 720.11 831.2 756.8 821.97 769.01 777"/><polygon class="cls-8" points="307.01 1150.13 321.94 1208.05 370 1219.95 321.94 1233.01 307.01 1292 291.28 1233.01 244.01 1219.95 291.28 1208.05 307.01 1150.13"/><circle class="cls-9" cx="384" cy="1282" r="13"/><circle class="cls-8" cx="447" cy="1263" r="9"/><circle class="cls-8" cx="224" cy="1146" r="7"/><circle class="cls-9" cx="812.5" cy="881.5" r="9.5"/><circle class="cls-9" cx="817" cy="759" r="10"/><circle class="cls-8" cx="804.5" cy="705.5" r="8.5"/><circle class="cls-9" cx="720" cy="1242" r="10"/><circle class="cls-8" cx="690" cy="1289" r="6"/></g><g id="_펜타클_퀸"><g><circle class="cls-9" cx="540" cy="1045.43" r="192.57"/><circle class="cls-4" cx="540" cy="1045.86" r="172.8"/><path class="cls-1" d="M539.78,1203.45h0c-1.72,0-3.46-.03-5.16-.09-2.76-.09-4.92-2.41-4.83-5.17s2.38-4.91,5.17-4.83c1.6,.05,3.22,.08,4.83,.08,2.76,0,5,2.24,4.99,5.01,0,2.76-2.24,4.99-5,4.99Zm24.88-1.98c-2.41,0-4.53-1.74-4.93-4.2-.44-2.73,1.41-5.29,4.13-5.74,1.59-.26,3.2-.55,4.76-.85,2.7-.53,5.34,1.23,5.87,3.94s-1.23,5.34-3.94,5.87c-1.67,.33-3.38,.63-5.08,.91-.27,.04-.54,.07-.81,.07Zm-54.67-.97c-.32,0-.65-.03-.98-.1-1.7-.34-3.4-.71-5.05-1.09-2.69-.63-4.36-3.32-3.73-6.01s3.32-4.36,6.01-3.73c1.54,.36,3.13,.71,4.72,1.02,2.71,.54,4.46,3.17,3.92,5.88-.48,2.38-2.56,4.02-4.9,4.02Zm83.61-6.73c-2.02,0-3.93-1.24-4.68-3.24-.97-2.58,.34-5.47,2.92-6.44,1.51-.57,3.02-1.16,4.5-1.77,2.55-1.05,5.48,.16,6.53,2.71s-.16,5.48-2.71,6.53c-1.58,.65-3.19,1.29-4.8,1.89-.58,.22-1.17,.32-1.76,.32Zm-112.27-2.01c-.64,0-1.29-.12-1.92-.39-1.59-.66-3.18-1.36-4.74-2.07-2.51-1.15-3.62-4.11-2.47-6.62,1.15-2.51,4.11-3.62,6.62-2.47,1.46,.67,2.95,1.32,4.44,1.94,2.55,1.06,3.75,3.99,2.69,6.54-.8,1.92-2.66,3.08-4.62,3.08Zm139.13-11.22c-1.67,0-3.31-.84-4.25-2.36-1.46-2.35-.74-5.43,1.61-6.89,1.35-.84,2.72-1.72,4.06-2.61,2.3-1.53,5.4-.92,6.93,1.38,1.53,2.3,.92,5.4-1.38,6.93-1.43,.96-2.89,1.9-4.33,2.79-.82,.51-1.73,.75-2.63,.75Zm-165.52-2.98c-.96,0-1.93-.28-2.79-.85-1.43-.96-2.85-1.95-4.24-2.95-2.24-1.61-2.75-4.74-1.13-6.98,1.61-2.24,4.74-2.75,6.98-1.13,1.3,.94,2.64,1.87,3.97,2.77,2.29,1.54,2.9,4.65,1.36,6.94-.97,1.43-2.54,2.21-4.15,2.21Zm189.27-15.24c-1.34,0-2.67-.53-3.65-1.59-1.89-2.02-1.78-5.18,.24-7.07,1.16-1.08,2.33-2.21,3.47-3.36,1.95-1.95,5.12-1.95,7.07,0,1.95,1.95,1.95,5.12,0,7.07-1.22,1.22-2.47,2.43-3.71,3.59-.96,.9-2.19,1.35-3.41,1.35Zm-212.37-3.83c-1.28,0-2.57-.49-3.54-1.47-1.2-1.2-2.4-2.45-3.58-3.71-1.88-2.02-1.77-5.18,.24-7.07,2.02-1.88,5.18-1.77,7.07,.25,1.1,1.18,2.23,2.35,3.35,3.48,1.95,1.96,1.94,5.12-.02,7.07-.98,.97-2.25,1.46-3.53,1.46Zm232.13-18.66c-1.01,0-2.03-.3-2.91-.94-2.24-1.61-2.75-4.74-1.14-6.98,.93-1.3,1.86-2.64,2.76-3.98,1.54-2.29,4.64-2.9,6.94-1.37,2.29,1.54,2.9,4.64,1.37,6.94-.96,1.43-1.95,2.86-2.95,4.24-.98,1.36-2.51,2.08-4.06,2.08Zm-251.08-4.52c-1.62,0-3.2-.78-4.17-2.23-.95-1.43-1.89-2.89-2.79-4.34-1.45-2.35-.73-5.43,1.62-6.88,2.35-1.46,5.43-.73,6.88,1.62,.84,1.36,1.72,2.73,2.61,4.06,1.53,2.3,.91,5.4-1.39,6.93-.85,.57-1.81,.84-2.77,.84Zm266.1-21.4c-.69,0-1.39-.14-2.06-.45-2.51-1.14-3.63-4.11-2.49-6.62,.67-1.47,1.32-2.96,1.93-4.45,1.06-2.55,3.99-3.76,6.54-2.7,2.55,1.06,3.76,3.98,2.7,6.54-.66,1.58-1.35,3.18-2.06,4.75-.84,1.84-2.65,2.93-4.56,2.93Zm-280.16-5.02c-1.97,0-3.83-1.17-4.63-3.1-.66-1.59-1.29-3.21-1.89-4.81-.97-2.59,.35-5.47,2.94-6.43,2.59-.96,5.47,.35,6.43,2.94,.56,1.5,1.15,3.01,1.77,4.5,1.05,2.55-.17,5.48-2.72,6.53-.62,.26-1.27,.38-1.9,.38Zm289.81-23.36c-.38,0-.76-.04-1.14-.13-2.69-.63-4.36-3.31-3.74-6,.36-1.56,.71-3.15,1.02-4.72,.54-2.71,3.17-4.47,5.88-3.93,2.71,.54,4.47,3.17,3.93,5.88-.33,1.69-.7,3.38-1.09,5.05-.54,2.31-2.59,3.87-4.87,3.87Zm-298.42-5.32c-2.34,0-4.44-1.66-4.9-4.04-.33-1.68-.63-3.39-.9-5.08-.44-2.73,1.42-5.29,4.14-5.73,2.73-.44,5.29,1.42,5.73,4.14,.25,1.58,.54,3.19,.85,4.76,.53,2.71-1.24,5.33-3.95,5.86-.32,.06-.65,.09-.96,.09Zm302.3-24.37c-.05,0-.11,0-.17,0-2.76-.09-4.92-2.4-4.83-5.16,.05-1.61,.08-3.24,.08-4.84,0-2.76,2.24-5,5-5s5,2.24,5,5c0,1.71-.03,3.44-.08,5.16-.09,2.7-2.31,4.84-4.99,4.84Zm-305.11-5.44h-.02c-2.76,0-4.99-2.25-4.99-5.01,0-1.71,.04-3.44,.1-5.16,.1-2.76,2.43-4.92,5.17-4.82,2.76,.1,4.92,2.41,4.82,5.17-.06,1.61-.09,3.24-.09,4.84,0,2.76-2.25,4.99-5,4.99Zm303.31-23.57c-2.42,0-4.54-1.76-4.93-4.22-.25-1.59-.53-3.19-.83-4.76-.52-2.71,1.25-5.33,3.97-5.85,2.71-.52,5.33,1.25,5.85,3.97,.32,1.68,.62,3.39,.89,5.09,.43,2.73-1.43,5.29-4.16,5.72-.26,.04-.53,.06-.79,.06Zm-300.31-6.22c-.33,0-.66-.03-.99-.1-2.71-.54-4.46-3.18-3.92-5.89,.34-1.67,.71-3.37,1.1-5.04,.63-2.69,3.33-4.35,6.01-3.72,2.69,.63,4.35,3.33,3.72,6.01-.37,1.57-.72,3.16-1.03,4.72-.48,2.38-2.56,4.02-4.9,4.02Zm292.74-22.75c-2.03,0-3.94-1.25-4.69-3.26-.56-1.5-1.15-3.02-1.75-4.5-1.04-2.56,.18-5.48,2.74-6.52,2.56-1.04,5.48,.18,6.52,2.74,.65,1.59,1.28,3.21,1.87,4.81,.96,2.59-.36,5.47-2.95,6.42-.57,.21-1.16,.31-1.74,.31Zm-283.97-5.89c-.64,0-1.3-.12-1.93-.39-2.55-1.07-3.75-4-2.68-6.54,.67-1.59,1.36-3.18,2.08-4.74,1.15-2.51,4.12-3.61,6.63-2.46,2.51,1.15,3.61,4.12,2.46,6.63-.67,1.46-1.32,2.95-1.94,4.44-.8,1.92-2.66,3.07-4.61,3.07Zm270.87-21.01c-1.68,0-3.32-.85-4.26-2.38-.83-1.35-1.7-2.72-2.6-4.07-1.52-2.3-.89-5.41,1.41-6.93,2.3-1.52,5.41-.89,6.93,1.41,.95,1.44,1.88,2.9,2.77,4.35,1.45,2.35,.71,5.43-1.64,6.88-.82,.5-1.72,.74-2.61,.74Zm-256.63-5.35c-.96,0-1.93-.28-2.79-.86-2.29-1.54-2.89-4.65-1.35-6.94,.96-1.42,1.96-2.85,2.96-4.24,1.62-2.24,4.75-2.74,6.98-1.12,2.24,1.62,2.74,4.75,1.12,6.98-.94,1.3-1.87,2.63-2.77,3.97-.97,1.43-2.54,2.2-4.15,2.2Zm238.52-18.48c-1.34,0-2.68-.54-3.67-1.6-1.09-1.18-2.22-2.35-3.35-3.49-1.94-1.96-1.92-5.13,.04-7.07,1.96-1.94,5.13-1.93,7.07,.04,1.2,1.22,2.4,2.47,3.57,3.73,1.88,2.02,1.76,5.19-.27,7.07-.96,.89-2.18,1.33-3.4,1.33Zm-219.42-4.59c-1.29,0-2.57-.49-3.55-1.48-1.95-1.96-1.93-5.13,.03-7.07,1.22-1.21,2.47-2.41,3.72-3.58,2.02-1.88,5.19-1.76,7.07,.26,1.88,2.02,1.76,5.19-.26,7.07-1.17,1.09-2.35,2.22-3.49,3.35-.98,.97-2.25,1.45-3.52,1.45Zm197-15.28c-1.02,0-2.05-.31-2.93-.95-1.29-.94-2.62-1.87-3.96-2.78-2.29-1.55-2.89-4.66-1.34-6.94,1.55-2.29,4.66-2.88,6.94-1.34,1.43,.97,2.85,1.97,4.23,2.96,2.24,1.62,2.73,4.75,1.11,6.98-.98,1.35-2.5,2.06-4.05,2.06Zm-173.79-3.64c-1.62,0-3.21-.79-4.17-2.24-1.53-2.3-.9-5.4,1.4-6.93,1.43-.95,2.89-1.88,4.34-2.78,2.35-1.45,5.43-.72,6.88,1.63,1.45,2.35,.72,5.43-1.63,6.88-1.36,.84-2.73,1.71-4.06,2.6-.85,.57-1.81,.84-2.76,.84Zm147.94-11.49c-.7,0-1.41-.15-2.09-.46-1.46-.67-2.95-1.33-4.44-1.95-2.54-1.07-3.74-4-2.67-6.55,1.07-2.55,4-3.74,6.55-2.67,1.58,.67,3.18,1.37,4.74,2.08,2.51,1.15,3.61,4.12,2.45,6.63-.84,1.83-2.65,2.91-4.55,2.91Zm-121.5-2.53c-1.97,0-3.84-1.17-4.63-3.11-1.05-2.55,.18-5.48,2.73-6.52,1.57-.64,3.19-1.28,4.81-1.88,2.59-.96,5.47,.35,6.43,2.94,.96,2.59-.35,5.47-2.94,6.43-1.52,.57-3.04,1.16-4.51,1.76-.62,.25-1.26,.37-1.89,.37Zm93.18-7.23c-.38,0-.77-.04-1.16-.14-1.55-.37-3.14-.72-4.72-1.04-2.71-.55-4.46-3.18-3.91-5.89,.55-2.71,3.18-4.46,5.89-3.91,1.69,.34,3.38,.71,5.05,1.11,2.69,.64,4.35,3.33,3.71,6.02-.55,2.3-2.6,3.85-4.86,3.85Zm-64.49-1.33c-2.35,0-4.44-1.66-4.9-4.05-.52-2.71,1.25-5.33,3.96-5.86,1.69-.33,3.4-.63,5.08-.9,2.72-.44,5.29,1.42,5.73,4.15,.44,2.73-1.42,5.29-4.15,5.73-1.58,.25-3.18,.54-4.76,.84-.32,.06-.64,.09-.95,.09Zm34.82-2.68c-.06,0-.12,0-.19,0-1.6-.06-3.22-.09-4.83-.1-2.76-.01-4.99-2.26-4.98-5.02,.01-2.76,2.28-5,5.02-4.98,1.72,0,3.46,.04,5.16,.11,2.76,.1,4.91,2.42,4.81,5.18-.1,2.7-2.32,4.81-4.99,4.81Z"/><polygon class="cls-2" points="540.88 908.86 557.02 1004.66 600.53 983.98 579.85 1027.49 678.31 1043.63 579.85 1059.77 600.53 1103.29 557.02 1082.6 540.88 1186.42 524.74 1082.6 481.22 1103.29 501.91 1059.77 401.69 1043.63 501.91 1027.49 481.22 983.98 524.74 1004.66 540.88 908.86"/></g><g><path class="cls-2" d="M691.55,576.25c-4.14,8.1-2.9,16.36-2.08,20.07-6.78-2.54-12.64-3.27-16.61-3.46-5.19-.26-11.17-.48-17.3,2.77-1.48,.78-3.18,1.7-4.84,3.46-5.34,5.64-4.45,13.8-4.15,15.92,1.75-.62,13.79-4.68,23.53,2.08,5.26,3.66,7.38,8.76,8.3,11.07,1.15,2.89,4.01,11.42-4.84,36.68-6.49,18.51-9.9,27.81-17.99,30.45-7.91,2.58-16.07-1.75-17.99-2.77-6.46-3.42-9.64-8.5-13.84-15.22-2.58-4.13-5.91-10.37-8.3-18.68-3.11,5.8-10.54,18.41-21.45,25.6-3.35,2.21-6.32,3.44-9.69,3.46-6.03,.04-10.49-3.8-12.46-5.54-7.98-7.06-10.42-17.58-13.84-37.37-1.82-10.51-3.73-22.57-5.54-35.98,3.11-2.03,9.38-6.77,13.15-15.22,1.76-3.95,2.47-7.6,2.77-10.38,2-.31,6.6-.76,11.76,1.38,6.24,2.59,9.38,7.33,10.38,9,2.36-16.5-3.43-29.99-11.07-32.52-2.34-.78-7.86-1.53-13.84,0-2.36,.6-4.24,1.42-5.54,2.08,.19-3.55,.27-13.57-6.23-23.53-4.31-6.6-9.71-10.41-13.16-12.4,0-.25,0-.5,.02-.75-.22,.11-.45,.24-.69,.37-.24-.13-.48-.26-.69-.37,0,.25,0,.5,.02,.75-3.46,1.99-8.85,5.8-13.16,12.4-6.5,9.96-6.42,19.98-6.23,23.53-1.3-.65-3.18-1.47-5.54-2.08-5.98-1.53-11.5-.78-13.84,0-7.64,2.54-13.43,16.02-11.07,32.52,1-1.67,4.14-6.41,10.38-9,5.16-2.14,9.76-1.7,11.76-1.38,.29,2.79,1.01,6.43,2.77,10.38,3.76,8.46,10.03,13.19,13.15,15.22-1.81,13.41-3.72,25.48-5.54,35.98-3.42,19.79-5.87,30.31-13.84,37.37-1.97,1.74-6.43,5.58-12.46,5.54-3.37-.02-6.34-1.25-9.69-3.46-10.92-7.19-18.35-19.81-21.45-25.6-2.4,8.31-5.72,14.56-8.3,18.68-4.2,6.72-7.38,11.8-13.84,15.22-1.92,1.02-10.08,5.35-17.99,2.77-8.09-2.64-11.5-11.94-17.99-30.45-8.86-25.26-6-33.79-4.84-36.68,.93-2.32,3.04-7.42,8.3-11.07,9.74-6.76,21.78-2.7,23.53-2.08,.29-2.12,1.18-10.27-4.15-15.92-1.66-1.76-3.36-2.68-4.84-3.46-6.13-3.25-12.11-3.02-17.3-2.77-3.96,.2-9.83,.92-16.61,3.46,.83-3.71,2.07-11.97-2.08-20.07-6.12-11.96-21.46-18.66-38.06-15.92,15.22,66.66,30.45,133.33,45.67,199.99,46.37-.46,97.57-.23,143.94-.69,46.37,.46,97.57,.23,143.94,.69,15.22-66.66,30.45-133.33,45.67-199.99-16.6-2.74-31.94,3.96-38.06,15.92Z"/><rect class="cls-2" x="397.79" y="774.86" width="284.42" height="20.07"/><polygon class="cls-6" points="537.4 659.86 544.47 712.71 563.56 703.64 554.49 722.72 622.22 729.8 554.49 736.88 563.56 755.96 544.47 746.89 537.4 815 530.32 746.89 511.24 755.96 520.31 736.88 457.78 729.8 520.31 722.72 511.24 703.64 530.32 712.71 537.4 659.86"/></g><g><path class="cls-6" d="M829.97,1039.9c4.39-.86,14.18-3.46,21.15-12.01,10.11-12.39,10.17-32.18-.52-48.88-3.32,1.14-15.77,5.85-22.81,18.93-10.87,20.22,1.59,41.04,2.17,41.96Z"/><path class="cls-6" d="M828.47,1039.97c2.76,3.52,9.54,11.04,20.34,13.35,15.64,3.34,33.28-5.62,43.27-22.75-2.53-2.44-12.4-11.37-27.25-11.66-22.95-.46-35.8,20.14-36.36,21.07Z"/><path class="cls-6" d="M823.65,1032.61c-2.79,3.49-8.57,11.81-8.35,22.85,.32,15.99,13.07,31.12,32.03,36.93,1.8-3.02,8.24-14.66,5.13-29.19-4.8-22.45-27.78-30.25-28.81-30.59Z"/><path class="cls-6" d="M830.5,1040.15c1.59-4.18,4.56-13.86,.98-24.31-5.18-15.13-21.94-25.65-41.77-25.4-.79,3.42-3.37,16.48,4.02,29.37,11.41,19.92,35.68,20.34,36.77,20.34Z"/><path class="cls-6" d="M829.24,1031.47c-.54,4.44-2.42,14.39-10.45,21.97-11.63,10.98-31.36,12.48-48.79,3.03,.9-3.4,4.69-16.15,17.23-24.12,19.37-12.31,41.05-1.39,42.01-.88Z"/><circle class="cls-9" cx="828.16" cy="1032.15" r="14.82"/></g><g><path class="cls-6" d="M286.94,886.27c4.02-1.83,12.83-6.58,17.57-16.4,6.87-14.23,2.39-33.27-11.72-46.86-2.93,1.86-13.81,9.24-17.57,23.43-5.81,21.93,10.95,39.08,11.72,39.83Z"/><path class="cls-6" d="M285.52,886.68c3.46,2.75,11.7,8.42,22.61,8.16,15.8-.38,30.7-13.04,36.36-31.8-2.99-1.76-14.52-8.08-28.87-4.95-22.16,4.83-29.78,27.57-30.11,28.59Z"/><path class="cls-6" d="M279.21,880.72c-1.88,4-5.52,13.32-2.78,23.88,3.97,15.3,19.71,26.91,39.26,28.14,1.03-3.31,4.55-15.98-1.77-29.24-9.76-20.48-33.64-22.7-34.71-22.78Z"/><path class="cls-6" d="M287.52,886.38c.57-4.38,1.2-14.37-4.63-23.59-8.45-13.36-26.98-19.61-45.97-14.83,.03,3.47,.54,16.61,10.6,27.3,15.54,16.52,38.96,11.36,40.01,11.11Z"/><path class="cls-6" d="M284.31,878.33c.51,4.39,.98,14.38-5,23.51-8.65,13.22-27.28,19.2-46.2,14.12,.08-3.47,.8-16.6,11.02-27.14,15.79-16.28,39.13-10.76,40.17-10.49Z"/><circle class="cls-9" cx="283.43" cy="879.24" r="14.65"/></g><path class="cls-3" d="M839.98,1079.34c1.23,12.66,1.39,27.59-.97,44.07-7.46,52.13-35.65,88.11-51.15,105.06"/><path class="cls-3" d="M281.91,900.29c-8.92,15.15-17.38,33.66-22.65,55.39-16.67,68.73,8.72,127.89,24.25,156.89"/><path class="cls-6" d="M245.1,981.08c-.54-6.95-1.99-15.36-5.42-24.4-10.32-27.14-31.59-41.58-40.67-46.99-.33,7.17,.21,17.55,4.52,28.92,10.51,27.69,35.24,39.64,41.57,42.47Z"/><path class="cls-6" d="M264,1082.84c-3.09-6.24-7.58-13.51-14.15-20.61-19.71-21.32-44.84-26.77-55.28-28.39,2.38,6.78,6.75,16.2,15,25.14,20.09,21.76,47.5,23.6,54.43,23.87Z"/><path class="cls-6" d="M826.38,1159.93c1.02-6.43,1.53-14.4,.37-23.37-3.49-26.92-19.69-44.68-26.78-51.57-1.86,6.45-3.62,16.01-2.17,27.28,3.54,27.46,23.44,43.7,28.58,47.66Z"/><path class="cls-6" d="M264.01,1025.94c6.03-3.49,12.99-8.44,19.64-15.46,19.99-21.06,23.8-46.48,24.74-57.01-6.61,2.81-15.73,7.79-24.11,16.6-20.41,21.46-20.47,48.93-20.28,55.87Z"/><path class="cls-6" d="M808.57,1210.21c6.52,.03,14.47-.69,23.15-3.21,26.07-7.56,41.14-26.29,46.87-34.34-6.66-.85-16.37-1.14-27.29,2.02-26.6,7.7-39.61,29.84-42.73,35.53Z"/></g></svg>