<?xml version="1.0" encoding="UTF-8"?><svg xmlns="http://www.w3.org/2000/svg" viewBox="0 0 1080 1944"><defs><style>.cls-1,.cls-2,.cls-3,.cls-4{fill:#081f5c;}.cls-2{stroke-width:8px;}.cls-2,.cls-3,.cls-4{stroke:#f7f5b4;stroke-miterlimit:10;}.cls-3{stroke-width:5px;}.cls-4{stroke-width:10px;}.cls-5{fill:#f7f5b4;}</style></defs><g id="_레이어_2"><rect class="cls-1" width="1080" height="1944"/><rect class="cls-2" x="129.48" y="356.22" width="821.04" height="1205.4" rx="36.41" ry="36.41"/></g><g id="_레이어_1"><g><circle class="cls-5" cx="679.51" cy="1290.91" r="30.85"/><circle class="cls-5" cx="672.67" cy="1523.44" r="12.65"/><circle class="cls-5" cx="667.47" cy="1632.57" r="20.43"/><circle class="cls-5" cx="739.03" cy="1697.6" r="8.68"/><circle class="cls-5" cx="778.56" cy="1774.78" r="11.37"/><circle class="cls-5" cx="881.69" cy="1868.12" r="18.65"/><circle class="cls-5" cx="668.21" cy="1841.29" r="9.81"/><circle class="cls-5" cx="478.81" cy="1773.29" r="14.61"/><circle class="cls-5" cx="291.38" cy="1636.81" r="11.42"/><circle class="cls-5" cx="195.64" cy="1701.71" r="16.24"/><circle class="cls-5" cx="53.55" cy="1642.44" r="12.17"/><circle class="cls-5" cx="582.08" cy="1203.22" r="8.12"/><circle class="cls-5" cx="695.19" cy="1020.29" r="10.81"/><circle class="cls-5" cx="772.87" cy="1051.4" r="8.93"/><circle class="cls-5" cx="766.38" cy="1139.09" r="12.18"/><circle class="cls-5" cx="671.66" cy="1160.74" r="10.01"/><circle class="cls-5" cx="635.67" cy="1084.69" r="14.61"/><circle class="cls-5" cx="860.76" cy="1585.28" r="13.8"/><circle class="cls-5" cx="1041.6" cy="1768.28" r="6.49"/><circle class="cls-5" cx="195.77" cy="149.16" r="22.2"/><circle class="cls-5" cx="281.99" cy="243.33" r="11.34"/><circle class="cls-5" cx="275.59" cy="385.76" r="11.83"/><circle class="cls-5" cx="356.92" cy="422.73" r="11.83"/><circle class="cls-5" cx="419.02" cy="365.06" r="7.39"/><circle class="cls-5" cx="569.84" cy="218.68" r="19.22"/><circle class="cls-5" cx="545.44" cy="61.21" r="9.61"/><circle class="cls-5" cx="481.12" cy="323.66" r="16.26"/><circle class="cls-5" cx="516.61" cy="391.68" r="13.31"/><circle class="cls-5" cx="484.82" cy="475.22" r="11.09"/><circle class="cls-5" cx="272.64" cy="507.01" r="17.74"/><circle class="cls-5" cx="118.86" cy="708.1" r="25.14"/><circle class="cls-5" cx="411.63" cy="790.9" r="25.14"/></g><circle class="cls-3" cx="540.5" cy="1549.04" r="232.43"/><circle class="cls-4" cx="540.5" cy="1551.06" r="195"/><path class="cls-5" d="M540.99,1416.47c-30.44,0-58.53,10.09-81.1,27.11,13.7-5.84,28.77-9.07,44.6-9.07,62.85,0,113.8,50.95,113.8,113.8s-50.95,113.8-113.8,113.8c-22.51,0-43.49-6.54-61.16-17.82,24.56,25.79,59.23,41.87,97.66,41.87,74.47,0,134.84-60.37,134.84-134.84s-60.37-134.84-134.84-134.84Z"/><circle class="cls-3" cx="540" cy="375.34" r="232.43"/><circle class="cls-4" cx="540" cy="375.34" r="195"/><g><circle class="cls-5" cx="545.03" cy="774.79" r="32.2"/><circle class="cls-5" cx="545.03" cy="955.4" r="32.2"/><circle class="cls-5" cx="545.03" cy="1136.01" r="32.2"/></g><path class="cls-5" d="M541.34,252.81c-68.78,0-124.53,55.76-124.53,124.53s55.76,124.53,124.53,124.53,124.53-55.76,124.53-124.53-55.76-124.53-124.53-124.53Zm20.3,146.35l-23.22,91.77-24.46-91.77-73.53-20.31,73.53-18.51,24.46-90.1,23.22,90.1,74.77,18.51-74.77,20.31Z"/><circle class="cls-5" cx="845.01" cy="237.77" r="5.92"/><circle class="cls-5" cx="976.97" cy="132.03" r="10.15"/></g></svg>