<?xml version="1.0" encoding="UTF-8"?><svg xmlns="http://www.w3.org/2000/svg" viewBox="0 0 1080 1944"><defs><style>.cls-1{fill:#fff;}.cls-2{fill:#f6ef84;}.cls-3{fill:#3f3730;}.cls-4{fill:#4c5fa9;}.cls-5{fill:#bad6eb;}.cls-6{fill:#c8c0de;}</style></defs><g id="_배경"><g><rect class="cls-5" width="1080" height="1944"/><path class="cls-1" d="M140.05,186.39H939.95c35.99,0,65.21,29.22,65.21,65.21V1727.82c0,35.99-29.22,65.21-65.21,65.21H140.05c-35.99,0-65.21-29.22-65.21-65.21V251.6c0-35.99,29.22-65.21,65.21-65.21Z"/><g><path class="cls-3" d="M214.67,1691.37c-6.45,12.1-13.46,18.15-21.05,18.15-3.97,0-7.16-1.46-9.56-4.38-2.4-2.92-3.6-6.78-3.6-11.57,0-5.59,2-14.07,5.99-25.46,3.99-11.39,5.99-19.44,5.99-24.17,0-2.11-.6-3.87-1.8-5.26-1.2-1.4-2.69-2.09-4.48-2.09-2.76,0-5.5,1.68-8.22,5.05-2.72,3.37-4.08,6.8-4.08,10.31,0,2.69,1.22,5.48,3.65,8.38,1,1.22,1.5,2.06,1.5,2.52,0,.54-.77,1.74-2.31,3.6-1.54,1.86-2.87,2.79-3.97,2.79-1.18,0-2.52-.86-4.03-2.58s-2.26-4.28-2.26-7.68c0-6.91,2.43-13.19,7.28-18.85,4.85-5.66,10.21-8.49,16.09-8.49,4.4,0,8.13,1.82,11.17,5.47,3.04,3.65,4.57,8.19,4.57,13.63-.05,5.72-1.91,13.83-5.56,24.3-3.66,10.48-5.47,17.49-5.45,21.04,0,1.69,.43,3.02,1.29,4.01,.86,.99,2,1.48,3.44,1.48,3.12,0,6.21-2.54,9.29-7.63,3.08-5.08,5.89-12.37,8.43-21.86l5.05-18.91c1.97-7.45,4.17-13.95,6.6-19.5,.25-.61,1.92-1.08,5.02-1.42,3.09-.34,5.34-.51,6.74-.51s2.09,.29,2.09,.86l-9.84,37.49c-2.81,11-4.21,19.04-4.21,24.12,0,2.22,.46,3.99,1.4,5.29,.93,1.31,2.18,1.96,3.76,1.96,2.33,0,5.5-1.91,9.53-5.72,4.03-3.81,7.42-8.68,10.18-14.61,2.76-5.93,4.14-11.99,4.14-18.18,0-6.62-1.61-13.21-4.83-19.77-.9-1.9-1.34-3.08-1.34-3.54,0-1.54,1.48-3.24,4.43-5.1,2.95-1.86,5.08-2.79,6.36-2.79,1.22,0,2.44,1.62,3.68,4.86,1.24,3.24,1.85,6.63,1.85,10.18,0,9.42-2.2,19.06-6.61,28.92-4.4,9.87-9.88,17.97-16.44,24.3s-12.48,9.51-17.78,9.51c-3.76,0-6.74-1.51-8.94-4.54-2.2-3.03-3.25-7.56-3.14-13.62Z"/><path class="cls-3" d="M322.36,1696.42c-8.49,8.81-15.47,13.21-20.95,13.21-2.44,0-4.45-.83-6.04-2.5-1.59-1.67-2.39-3.77-2.39-6.31,0-4.3,1.65-10.35,4.94-18.15,1.75-4.22,2.63-6.98,2.63-8.27,0-1.47-.7-2.2-2.09-2.2s-3.51,.98-6.23,2.93c-2.72,1.95-5.59,4.61-8.59,7.98-1.25,6.59-1.88,14.5-1.88,23.74l-11.98,2.79c-.47-3.76-.7-7.84-.7-12.25,0-10.67,1.47-20.61,4.4-29.81,2.94-9.2,7.55-18.96,13.86-29.27,4.69-1.9,8.78-3.45,12.27-4.65,3.49-1.2,5.49-1.8,5.99-1.8,.93,0,1.72,.75,2.36,2.26s.97,3.38,.97,5.64c0,3.8-1.16,7.99-3.49,12.6-2.33,4.6-5.98,10.16-10.96,16.68,4.77-2.76,7.94-4.49,9.52-5.21,1.58-.72,3.19-1.07,4.84-1.07,1.83,0,3.31,.65,4.44,1.96,1.13,1.31,1.69,3.04,1.69,5.19,0,3.23-1.28,8.22-3.85,14.99-2.57,6.76-3.85,11.01-3.85,12.72,0,.79,.24,1.49,.73,2.09s1.05,.91,1.69,.91c2.29,0,6.52-3.46,12.67-10.37v6.18Zm-37.22-22.02c12.78-14.86,19.17-25.82,19.17-32.87,0-2.15-.59-3.22-1.77-3.22-1.97,0-4.78,3.53-8.43,10.58-3.65,7.05-6.64,15.56-8.97,25.51Z"/><path class="cls-3" d="M362.48,1696.42c-4.55,4.48-8.63,7.78-12.25,9.91-3.62,2.13-7.61,3.2-11.98,3.2-4.87,0-8.8-1.56-11.79-4.67-2.99-3.12-4.48-7.21-4.48-12.3,0-7.59,2.63-14.46,7.9-20.6,5.26-6.14,11.1-9.21,17.51-9.21,3.33,0,6,.86,8,2.58,2,1.72,3.01,3.97,3.01,6.77,0,7.41-7.88,13.43-23.63,18.05,1.43,6.98,5.17,10.47,11.23,10.47,2.36,0,4.62-.64,6.77-1.91,2.15-1.27,5.39-4.09,9.72-8.46v6.18Zm-28.14-9.94c9.17-2.58,13.75-7.34,13.75-14.29,0-3.44-1.25-5.16-3.76-5.16-2.36,0-4.62,1.8-6.77,5.4-2.15,3.6-3.22,8.28-3.22,14.04Z"/><path class="cls-3" d="M402.66,1696.42c-4.55,4.48-8.63,7.78-12.25,9.91-3.62,2.13-7.61,3.2-11.98,3.2-4.87,0-8.8-1.56-11.79-4.67-2.99-3.12-4.48-7.21-4.48-12.3,0-7.59,2.63-14.46,7.9-20.6,5.26-6.14,11.1-9.21,17.51-9.21,3.33,0,6,.86,8,2.58,2,1.72,3.01,3.97,3.01,6.77,0,7.41-7.88,13.43-23.63,18.05,1.43,6.98,5.17,10.47,11.23,10.47,2.36,0,4.62-.64,6.77-1.91,2.15-1.27,5.39-4.09,9.72-8.46v6.18Zm-28.14-9.94c9.17-2.58,13.75-7.34,13.75-14.29,0-3.44-1.25-5.16-3.76-5.16-2.36,0-4.62,1.8-6.77,5.4-2.15,3.6-3.22,8.28-3.22,14.04Z"/><path class="cls-3" d="M438.22,1696.42c-4.87,4.48-9.14,7.78-12.81,9.91-3.67,2.13-7.17,3.2-10.5,3.2-3.83,0-6.92-1.49-9.27-4.46-2.34-2.97-3.52-6.96-3.52-11.98,0-7.52,1.63-16.54,4.89-27.07,3.26-10.53,7.21-20.23,11.87-29.11l13.64-5.05c.43-.14,.75-.21,.97-.21,1.04,0,1.89,.76,2.55,2.28,.66,1.52,.99,3.57,.99,6.15,0,7.3-1.68,14.38-5.05,21.22-3.37,6.84-8.63,14.14-15.79,21.91-.29,3.72-.43,6.28-.43,7.68,0,3.12,.57,5.59,1.72,7.41,1.15,1.83,2.67,2.74,4.57,2.74s3.99-.7,6.18-2.09c2.18-1.4,5.51-4.3,9.99-8.7v6.18Zm-20.57-21c4.55-5.06,8.24-10.72,11.06-17,2.83-6.27,4.24-11.67,4.24-16.19,0-1.33-.2-2.39-.59-3.2-.39-.81-.9-1.21-1.5-1.21-1.33,0-3.25,3.3-5.77,9.9-2.52,6.6-5,15.83-7.44,27.7Z"/><path class="cls-3" d="M513.95,1696.42c-1.83,1.61-3.6,2.75-5.32,3.41-1.72,.66-3.08,.99-4.08,.99-2.58,0-5.14-1-7.68-3.01-5.16,7.81-11.06,11.71-17.72,11.71-4.15,0-7.52-1.56-10.1-4.67s-3.87-7.25-3.87-12.41c0-8.16,2.9-15.17,8.7-21.03,5.8-5.85,12.73-8.78,20.79-8.78,3.04,0,5.27,.33,6.69,.99,1.42,.66,2.28,1.44,2.61,2.34,.32,.9,.48,2.02,.48,3.38,0,6.7-1.83,14.91-5.48,24.65,1.83,1.68,3.74,2.52,5.75,2.52,2.4,0,5.48-2.09,9.24-6.28v6.18Zm-17.72-30.02c-.54-.21-1.31-.32-2.31-.32-4.66,0-8.3,2.44-10.93,7.3-2.63,4.87-3.95,10.56-3.95,17.08,0,3.62,.57,6.43,1.72,8.43,1.15,2.01,2.74,3.01,4.78,3.01,2.54,0,5.3-2.34,8.27-7.04-3.37-4.22-5.05-8.77-5.05-13.64,0-5.73,2.49-10.67,7.47-14.82Z"/><path class="cls-3" d="M557.51,1696.42c-3.72,4.19-7.4,7.42-11.05,9.69-3.65,2.27-6.9,3.41-9.76,3.41-1.36,0-3.22-.52-5.58-1.55-1.51,7.88-2.84,16.38-3.99,25.5-3.73,.5-8.21,1.27-13.44,2.31,1.15-9.81,3.13-22.54,5.96-38.19-.39-.68-1.09-2.4-2.09-5.16l-3.6,3.97h-1.24v-4.83l10.24-10.62c1.95-9.61,3.53-16.56,4.75-20.86,1.22-4.3,2.92-9.05,5.1-14.26,2.18-5.21,3.56-8.2,4.14-8.97,.57-.77,1.96-1.5,4.16-2.2,2.2-.7,4.56-1.36,7.06-1.99,2.51-.63,3.85-.94,4.03-.94,1.36,0,2.47,.89,3.33,2.66s1.29,4.1,1.29,7c0,5.01-1.32,9.84-3.97,14.49s-7.64,10.37-15,17.17l-4.51,22.45c1.75,3.75,4.38,5.63,7.88,5.63,5,0,10.44-3.63,16.3-10.9v6.18Zm-18.04-30.61c4.19-3.65,7.47-7.58,9.85-11.79s3.57-8.08,3.57-11.63c0-1.5-.28-2.74-.83-3.71-.55-.97-1.24-1.45-2.06-1.45-1.57,0-3.17,2.06-4.79,6.18-1.62,4.12-3.54,11.58-5.74,22.4Z"/><path class="cls-3" d="M648.01,1663.49l-.97,9.4c-.57,.79-1.76,1.55-3.55,2.28-1.79,.73-4.95,1.69-9.47,2.87-.85,9.38-3.98,16.95-9.38,22.69-5.41,5.75-12.21,8.62-20.4,8.62-5.76,0-10.25-1.25-13.45-3.76-3.2-2.51-4.81-4.98-4.81-7.41,0-1.15,1.24-2.83,3.73-5.05,2.49-2.22,4.32-3.33,5.5-3.33,.89,0,1.45,.33,1.67,.99,.21,.66,.33,2.33,.35,4.99,.02,2.67,.7,4.91,2.04,6.71,1.34,1.81,3.21,2.71,5.61,2.71,7.23,0,11.85-7.48,13.86-22.45-3.29,.72-7.04,2.26-11.23,4.62l2.31-7.25c3.04-2.61,6.28-4.53,9.71-5.75,.55-5.76,1.53-10.35,2.94-13.75,1.41-3.4,3.73-6.73,6.95-9.99,4.26-.54,7.16-.84,8.7-.91-1.22,2.36-2.06,4.66-2.52,6.88-.47,2.22-.77,6.29-.91,12.19,4.69-1.54,9.14-3.31,13.33-5.32Zm2.31-32.76c-.86,4.83-2.2,8.33-4.03,10.5-1.83,2.17-5.28,3.25-10.37,3.25l-16.76-.43c-4.94,0-8.94,.96-12,2.87-3.06,1.92-4.59,4.59-4.59,8.03,0,3.22,1.95,5.75,5.85,7.57,1.32,.61,1.99,1.16,1.99,1.67,0,1-.72,2.25-2.18,3.73-1.45,1.49-3.12,2.59-5.02,3.3-4.83-1.32-7.25-4.44-7.25-9.35,0-3.44,1.36-7.74,4.08-12.92,2.72-5.17,6.37-9.4,10.96-12.68,4.58-3.28,9.67-4.91,15.25-4.91,.46,0,3.02,.19,7.65,.56,4.64,.38,7.44,.56,8.41,.56,2.9,0,4.65-.59,5.26-1.77h2.74Z"/><path class="cls-3" d="M695.76,1696.42c-1.83,1.61-3.6,2.75-5.32,3.41-1.72,.66-3.08,.99-4.08,.99-2.58,0-5.14-1-7.68-3.01-5.16,7.81-11.06,11.71-17.72,11.71-4.15,0-7.52-1.56-10.1-4.67s-3.87-7.25-3.87-12.41c0-8.16,2.9-15.17,8.7-21.03,5.8-5.85,12.73-8.78,20.79-8.78,3.04,0,5.27,.33,6.69,.99,1.42,.66,2.28,1.44,2.61,2.34,.32,.9,.48,2.02,.48,3.38,0,6.7-1.83,14.91-5.48,24.65,1.83,1.68,3.74,2.52,5.75,2.52,2.4,0,5.48-2.09,9.24-6.28v6.18Zm-17.72-30.02c-.54-.21-1.31-.32-2.31-.32-4.66,0-8.3,2.44-10.93,7.3-2.63,4.87-3.95,10.56-3.95,17.08,0,3.62,.57,6.43,1.72,8.43,1.15,2.01,2.74,3.01,4.78,3.01,2.54,0,5.3-2.34,8.27-7.04-3.37-4.22-5.05-8.77-5.05-13.64,0-5.73,2.49-10.67,7.47-14.82Z"/><path class="cls-3" d="M735.88,1696.42c-8.99,8.81-15.92,13.21-20.79,13.21-2.18,0-4.03-.92-5.53-2.77-1.5-1.84-2.26-4.13-2.26-6.85,0-5.05,2.7-11.82,8.11-20.3-2.65,1.36-5.55,2.31-8.7,2.85-2.33,4.3-5.98,8.92-10.96,13.86h-1.24v-4.83c2.79-2.9,5.32-6.02,7.57-9.35-3.08-1.36-4.62-3.38-4.62-6.07s.94-5.7,2.82-8.84c1.88-3.13,4.47-4.7,7.76-4.7,2.79,0,4.19,1.43,4.19,4.3,0,2.26-.81,5.48-2.42,9.67,5.94-.64,11.14-5.19,15.58-13.64l4.89-.21-5,13.75c-2.08,5.8-3.42,9.75-4.03,11.84-.61,2.09-.91,3.95-.91,5.56,0,1.5,.35,2.7,1.05,3.6,.7,.9,1.64,1.34,2.82,1.34,1.29,0,2.52-.44,3.71-1.32,1.18-.88,3.83-3.3,7.95-7.28v6.18Z"/><path class="cls-3" d="M766.82,1696.42c-4.51,4.48-8.42,7.78-11.71,9.91-3.29,2.13-6.43,3.2-9.4,3.2s-5.58-1.3-7.49-3.89c-1.92-2.6-2.87-6.01-2.87-10.23,0-3.72,.92-8.64,2.76-14.75l2.28-8.13-4.12,.21,1.72-8.43,5.11-.21,5.04-16.76,14.35-2.95-5.55,18.68,7.58-.43-1.77,8.27-8.33,.64-3.58,12.04c-1.24,4.18-1.87,7.51-1.87,9.98,0,1.68,.42,3.05,1.26,4.11,.84,1.06,1.93,1.58,3.25,1.58,1.83,0,3.64-.58,5.43-1.75,1.79-1.16,4.43-3.59,7.91-7.28v6.18Z"/><path class="cls-3" d="M824.13,1696.42c-4.73,4.48-8.68,7.78-11.87,9.91-3.19,2.13-6.05,3.2-8.59,3.2-2.83,0-5-1.13-6.53-3.38-1.52-2.26-2.28-5.32-2.28-9.18-3.94,4.33-7.47,7.53-10.58,9.59-3.12,2.06-6.16,3.09-9.13,3.09-2.72,0-4.91-1.13-6.55-3.38-1.65-2.26-2.47-5.32-2.47-9.18,0-7.45,2.51-17.94,7.52-31.47l14.35-2.86c-5.9,17.17-8.85,28.18-8.87,33.05,0,3.44,1.29,5.15,3.87,5.15,1.86,0,4.17-1.51,6.93-4.54,2.76-3.03,4.48-5.67,5.16-7.92l7.04-22.88,14.62-2.96c-3.38,10.78-5.69,18.35-6.95,22.72s-1.88,7.43-1.88,9.18c0,3.37,1.15,5.05,3.44,5.05,1.86,0,4.62-1.7,8.28-5.1l4.51-4.24v6.18Z"/><path class="cls-3" d="M876.82,1696.42c-8.27,8.74-15.36,13.11-21.27,13.11-2.4,0-4.33-.84-5.8-2.52-1.47-1.68-2.2-3.94-2.2-6.77,0-3.83,1.58-9.69,4.73-17.56,1.68-4.22,2.52-6.91,2.52-8.06s-.45-1.72-1.34-1.72c-.5,0-1.16,.25-1.99,.75-.75,.5-1.63,1.2-2.63,2.09-.9,.82-1.9,1.83-3.01,3.01-.97,1-2.01,2.15-3.12,3.44l-3.01,3.49c-1.33,1.61-2.15,3.31-2.47,5.1-.54,3.04-.9,5.84-1.07,8.38-.11,1.9-.16,4.46-.16,7.68l-11.87,2.79c-.39-4.83-.59-8.43-.59-10.8,0-5.76,.67-11.23,2.01-16.38,1.34-5.16,3.5-10.96,6.47-17.4l13.11-2.52c-2.76,7.41-4.57,13.25-5.42,17.51,5.87-6.55,10.53-11.09,13.98-13.62,3.45-2.53,6.51-3.79,9.2-3.79,1.82,0,3.34,.69,4.56,2.07,1.22,1.38,1.82,3.1,1.82,5.18,0,3.43-1.54,9.09-4.62,16.97-2.11,5.41-3.17,8.92-3.17,10.53,0,2.15,.88,3.23,2.64,3.23,2.62,0,6.86-3.46,12.71-10.37v6.18Z"/><path class="cls-3" d="M916.94,1696.42c-4.55,4.48-8.63,7.78-12.25,9.91-3.62,2.13-7.61,3.2-11.98,3.2-4.87,0-8.8-1.56-11.79-4.67-2.99-3.12-4.48-7.21-4.48-12.3,0-7.59,2.63-14.46,7.9-20.6,5.26-6.14,11.1-9.21,17.51-9.21,3.33,0,6,.86,8,2.58,2,1.72,3.01,3.97,3.01,6.77,0,7.41-7.88,13.43-23.63,18.05,1.43,6.98,5.17,10.47,11.23,10.47,2.36,0,4.62-.64,6.77-1.91,2.15-1.27,5.39-4.09,9.72-8.46v6.18Zm-28.14-9.94c9.17-2.58,13.75-7.34,13.75-14.29,0-3.44-1.25-5.16-3.76-5.16-2.36,0-4.62,1.8-6.77,5.4-2.15,3.6-3.22,8.28-3.22,14.04Z"/></g><g><path class="cls-1" d="M353.98,142.06c-5.24,5.58-10.05,8.37-14.42,8.37-2.42,0-4.33-.85-5.74-2.56s-2.2-4.15-2.36-7.31c-2.76,3.35-5.2,5.83-7.33,7.45-2.13,1.62-4.4,2.43-6.82,2.43-3.1,0-5.59-1.34-7.47-4.02-1.88-2.68-2.82-6.25-2.82-10.71,0-5.33,1.23-10.83,3.69-16.49s6.11-10.13,10.94-13.42,10.69-4.92,17.57-4.92c5.15,0,9.81,.7,13.98,2.09v2.26c-3.4,3.96-6.24,9.51-8.53,16.64-2.29,7.13-3.44,12.57-3.44,16.3,0,1.82,.37,3.24,1.11,4.24,.74,1,1.77,1.5,3.09,1.5,2.37,0,5.22-1.93,8.54-5.78v3.93Zm-9.95-36.85c-2.1-1.14-4.35-1.71-6.77-1.71-3.81,0-7.24,1.59-10.29,4.77s-5.46,7.39-7.23,12.63c-1.77,5.24-2.65,9.79-2.65,13.64,0,2.57,.5,4.67,1.49,6.27,.99,1.61,2.26,2.41,3.81,2.41,2.69,0,5.78-2.45,9.26-7.35,1.44-12.85,5.56-23.07,12.37-30.66Z"/><path class="cls-1" d="M379.51,142.03c-5.72,5.61-10.13,8.41-13.23,8.41-1.39,0-2.56-.59-3.52-1.76s-1.44-2.63-1.44-4.36c0-3.21,1.72-7.52,5.16-12.92-1.69,.87-3.53,1.47-5.54,1.81-1.48,2.73-3.8,5.67-6.97,8.82h-.79v-3.08c1.78-1.85,3.38-3.83,4.82-5.95-1.96-.87-2.94-2.15-2.94-3.86s.6-3.63,1.79-5.62c1.2-1.99,2.84-2.99,4.94-2.99,1.78,0,2.67,.91,2.67,2.73,0,1.44-.51,3.49-1.54,6.15,3.78-.41,7.09-3.3,9.91-8.68l3.11-.14-3.18,8.75c-1.32,3.69-2.18,6.2-2.56,7.54-.39,1.33-.58,2.51-.58,3.54,0,.96,.22,1.72,.67,2.29,.44,.57,1.04,.86,1.79,.86,.82,0,1.61-.28,2.36-.84s2.44-2.1,5.06-4.63v3.93Z"/><path class="cls-1" d="M405.08,142.03c-2.92,2.87-5.59,4.98-8.02,6.32-2.43,1.34-4.96,2.02-7.61,2.02-2.96,0-5.41-.96-7.33-2.89-1.93-1.92-2.89-4.37-2.89-7.33,0-4.85,1.77-9.34,5.31-13.45,3.54-4.11,7.38-6.17,11.5-6.17,2.03,0,3.68,.56,4.96,1.69s1.91,2.59,1.91,4.39c0,.64-.12,1.12-.36,1.44-.24,.32-.69,.64-1.35,.96l-3.96,1.88c-.48,.23-.83,.34-1.06,.34-.32,0-.48-.23-.48-.68,0-.18,.07-.78,.21-1.79,.14-1.01,.21-1.63,.21-1.86,0-1-.21-1.81-.63-2.43s-.99-.92-1.69-.92c-1.66,0-3.19,1.23-4.56,3.69-1.38,2.46-2.07,5.26-2.07,8.41,0,2.71,.65,4.88,1.95,6.49,1.3,1.62,3.03,2.43,5.2,2.43,1.85,0,3.58-.53,5.21-1.59s3.48-2.68,5.55-4.87v3.93Z"/><path class="cls-1" d="M441.58,142.03c-3.65,3.46-6.26,5.72-7.83,6.77-1.57,1.05-3.08,1.57-4.51,1.57-3.6,0-5.3-3.18-5.09-9.54-2.28,3.26-4.38,5.66-6.31,7.21-1.93,1.55-3.91,2.32-5.96,2.32s-3.71-.94-5.11-2.82c-1.4-1.88-2.1-4.19-2.1-6.92,0-3.42,.94-6.68,2.82-9.78,1.88-3.1,4.29-5.61,7.23-7.52s5.54-2.87,7.79-2.87c2.85,0,4.84,1.31,5.98,3.93l6.99-3.86h1.92l-3.02,10.01c-1.55,5.04-2.33,8.49-2.33,10.36,0,1.96,.69,2.94,2.08,2.94,.89,0,1.87-.47,2.94-1.42,1.07-.95,2.57-2.39,4.51-4.32v3.93Zm-25.02,1.88c2.28,0,4.43-1.94,6.44-5.83,2.02-3.88,3.02-7.47,3.02-10.75,0-1.28-.29-2.27-.85-2.99-.57-.72-1.33-1.08-2.29-1.08-2.28,0-4.44,1.94-6.48,5.81-2.04,3.87-3.06,7.44-3.06,10.7,0,1.23,.3,2.23,.91,2.99,.6,.76,1.37,1.15,2.31,1.15Z"/><path class="cls-1" d="M475.11,142.03c-5.26,5.56-9.78,8.34-13.54,8.34-1.53,0-2.76-.54-3.69-1.61-.93-1.07-1.4-2.51-1.4-4.31,0-2.44,1-6.16,3.01-11.18,1.07-2.69,1.61-4.4,1.61-5.13s-.29-1.09-.85-1.09c-.32,0-.74,.16-1.27,.48-.48,.32-1.04,.76-1.67,1.33-.57,.52-1.21,1.16-1.91,1.91-.62,.64-1.28,1.37-1.98,2.19l-1.91,2.22c-.84,1.03-1.37,2.11-1.57,3.25-.34,1.94-.57,3.71-.68,5.33-.07,1.21-.1,2.84-.1,4.89l-7.55,1.78c-.25-3.08-.38-5.37-.38-6.87,0-3.67,.43-7.14,1.28-10.43,.86-3.28,2.23-6.97,4.12-11.07l8.34-1.61c-1.75,4.72-2.9,8.43-3.45,11.14,3.73-4.17,6.7-7.06,8.89-8.67,2.19-1.61,4.14-2.41,5.85-2.41,1.16,0,2.13,.44,2.9,1.31,.77,.88,1.16,1.97,1.16,3.29,0,2.18-.98,5.78-2.94,10.8-1.34,3.44-2.02,5.68-2.02,6.7,0,1.37,.56,2.06,1.68,2.06,1.67,0,4.36-2.2,8.09-6.6v3.93Z"/><path class="cls-1" d="M500.64,142.03c-2.89,2.85-5.49,4.95-7.79,6.31-2.3,1.36-4.84,2.03-7.62,2.03-3.1,0-5.6-.99-7.5-2.97s-2.85-4.59-2.85-7.83c0-4.83,1.67-9.2,5.02-13.11s7.06-5.86,11.14-5.86c2.12,0,3.82,.55,5.09,1.64,1.28,1.09,1.91,2.53,1.91,4.31,0,4.72-5.01,8.54-15.04,11.48,.91,4.44,3.29,6.66,7.14,6.66,1.5,0,2.94-.4,4.31-1.21s3.43-2.6,6.19-5.38v3.93Zm-17.91-6.32c5.83-1.64,8.75-4.67,8.75-9.09,0-2.19-.8-3.28-2.39-3.28-1.5,0-2.94,1.14-4.31,3.43s-2.05,5.27-2.05,8.94Z"/><path class="cls-1" d="M511.17,122c1.57-.41,3.15-.75,4.75-1.01s2.55-.39,2.87-.39c.23,0,.34,.09,.34,.27,0,.34-.09,.69-.27,1.06-.37,1.05-.55,2.05-.55,3.01,0,1.18,.69,2.8,2.05,4.85s2.05,3.96,2.05,5.71c0,3.49-1.67,6.85-5.01,10.08-3.34,3.24-6.8,4.85-10.38,4.85-1.55,0-2.96-.41-4.24-1.23s-1.91-1.7-1.91-2.63c0-.55,.63-1.58,1.9-3.11,1.26-1.53,2.17-2.29,2.72-2.29,.73,0,1.38,.93,1.95,2.8,.57,1.87,1.55,2.8,2.94,2.8s2.7-.64,3.91-1.93,1.83-2.67,1.83-4.15c0-1.44-.77-3.35-2.32-5.74-1.55-2.39-2.58-4.4-3.08-6.01-2.64,4.26-5.99,8.62-10.05,13.09h-.79v-3.08c5.58-5.95,9.34-11.6,11.28-16.95Z"/><path class="cls-1" d="M596.89,142.03c-2.85,2.78-5.29,4.87-7.31,6.26-2.03,1.39-4,2.08-5.91,2.08-1.5,0-2.7-.52-3.57-1.55s-1.31-2.43-1.31-4.19c0-2.46,.62-5.58,1.85-9.37,1.23-3.78,1.85-6.08,1.85-6.9,0-.73-.38-1.09-1.13-1.09-.23,0-.5,.08-.82,.24-.34,.16-.73,.39-1.16,.68-.43,.32-.9,.71-1.4,1.16-.5,.46-1.03,.98-1.57,1.57-.59,.59-1.18,1.24-1.78,1.95-1,1.18-1.59,2.18-1.78,2.97l-1.14,4.89-2.07,8.07-8.66,1.57,3.32-14.08c.25-1.03,.55-2.53,.89-4.51s.51-3.17,.51-3.55c0-.77-.26-1.16-.79-1.16-.16,0-.39,.08-.68,.24-.34,.16-.73,.4-1.16,.72-.5,.37-1.04,.8-1.61,1.3-.62,.55-1.28,1.17-1.98,1.88-.75,.75-1.53,1.58-2.32,2.49-1.09,1.23-1.78,2.67-2.05,4.31-.37,1.96-.62,3.71-.75,5.26-.16,1.55-.25,3.28-.27,5.2l-7.59,1.81c-.18-2.62-.27-4.81-.27-6.56,0-4.17,.43-7.8,1.3-10.89s2.28-6.69,4.24-10.82l8.27-1.61c-1.48,3.71-2.63,7.3-3.45,10.77,6.13-7.13,10.82-10.7,14.08-10.7,1.18,0,2.15,.48,2.89,1.45,.74,.97,1.11,2.24,1.11,3.81,0,.73-.11,2.07-.34,4.03,3.85-3.85,6.62-6.36,8.29-7.54,1.67-1.17,3.22-1.76,4.63-1.76,1.25,0,2.28,.5,3.08,1.5,.8,1,1.2,2.28,1.2,3.83,0,2.44-.67,5.57-2.01,9.4-1.34,3.83-2.01,6.36-2.01,7.59s.46,1.91,1.4,1.91c.59,0,1.42-.39,2.47-1.18,1.06-.79,2.9-2.59,5.54-5.42v3.93Z"/><path class="cls-1" d="M633.4,142.03c-3.65,3.46-6.26,5.72-7.83,6.77-1.57,1.05-3.08,1.57-4.51,1.57-3.6,0-5.3-3.18-5.09-9.54-2.28,3.26-4.38,5.66-6.31,7.21-1.93,1.55-3.91,2.32-5.96,2.32s-3.71-.94-5.11-2.82c-1.4-1.88-2.1-4.19-2.1-6.92,0-3.42,.94-6.68,2.82-9.78,1.88-3.1,4.29-5.61,7.23-7.52s5.54-2.87,7.79-2.87c2.85,0,4.84,1.31,5.98,3.93l6.99-3.86h1.92l-3.02,10.01c-1.55,5.04-2.33,8.49-2.33,10.36,0,1.96,.69,2.94,2.08,2.94,.89,0,1.87-.47,2.94-1.42,1.07-.95,2.57-2.39,4.51-4.32v3.93Zm-25.02,1.88c2.28,0,4.43-1.94,6.44-5.83,2.02-3.88,3.02-7.47,3.02-10.75,0-1.28-.29-2.27-.85-2.99-.57-.72-1.33-1.08-2.29-1.08-2.28,0-4.44,1.94-6.48,5.81-2.04,3.87-3.06,7.44-3.06,10.7,0,1.23,.3,2.23,.91,2.99,.6,.76,1.37,1.15,2.31,1.15Z"/><path class="cls-1" d="M658.93,142.03c-2.15,2.16-4.81,4.1-7.99,5.81-.83,6.22-2.41,11-4.75,14.32-2.34,3.33-4.72,4.99-7.16,4.99-1.53,0-2.83-.63-3.9-1.9s-1.61-2.82-1.61-4.67c0-4.47,3.01-8.23,9.02-11.28l2.53-20.58c-4.74,5.92-8.64,10.36-11.69,13.29h-.79v-3.08c3.03-2.89,7.11-7.68,12.24-14.36l2.12-2.73c2.39-.27,5.07-.72,8.03-1.33-1.01,5.42-2.19,13.43-3.55,24.03,2.1-1.05,4.57-3.18,7.41-6.39l.07,3.86Zm-16.6,10.42c-1.91,.89-3.41,2.09-4.51,3.61-1.1,1.52-1.65,3.07-1.65,4.67,0,1.03,.24,1.9,.72,2.62s1.04,1.08,1.67,1.08c1.57,0,2.6-2.01,3.08-6.02l.69-5.95Zm15.85-45.29c-.43,5.56-2.75,8.34-6.94,8.34-1.96,0-3.69-.66-5.2-1.98,1.98-2.53,3.15-4.72,3.52-6.56,1.82,1.12,3.34,1.68,4.55,1.68,1.37,0,2.72-.49,4.07-1.47Z"/><path class="cls-1" d="M684.49,142.03c-2.89,2.85-5.49,4.95-7.79,6.31s-4.84,2.03-7.62,2.03c-3.1,0-5.6-.99-7.5-2.97s-2.85-4.59-2.85-7.83c0-4.83,1.68-9.2,5.03-13.11s7.06-5.86,11.14-5.86c2.12,0,3.82,.55,5.09,1.64s1.91,2.53,1.91,4.31c0,4.72-5.01,8.54-15.04,11.48,.91,4.44,3.29,6.66,7.14,6.66,1.5,0,2.94-.4,4.31-1.21s3.43-2.6,6.19-5.38v3.93Zm-17.91-6.32c5.83-1.64,8.75-4.67,8.75-9.09,0-2.19-.8-3.28-2.39-3.28-1.5,0-2.94,1.14-4.31,3.43s-2.05,5.27-2.05,8.94Z"/><path class="cls-1" d="M721,142.03c-3.01,2.85-5.53,4.95-7.55,6.31-2.03,1.36-3.85,2.03-5.47,2.03-1.8,0-3.19-.72-4.15-2.15s-1.45-3.38-1.45-5.85c-2.51,2.76-4.75,4.79-6.73,6.1s-3.92,1.96-5.81,1.96c-1.73,0-3.12-.72-4.17-2.15s-1.57-3.38-1.57-5.85c0-4.74,1.6-11.42,4.79-20.03l9.13-1.82c-3.75,10.92-5.63,17.93-5.64,21.03,0,2.19,.82,3.28,2.46,3.28,1.19,0,2.65-.96,4.41-2.89,1.75-1.92,2.85-3.61,3.28-5.04l4.48-14.56,9.3-1.88c-2.15,6.86-3.62,11.68-4.42,14.46-.8,2.78-1.2,4.73-1.2,5.85,0,2.14,.73,3.21,2.19,3.21,1.19,0,2.94-1.08,5.27-3.25l2.87-2.7v3.93Z"/><path class="cls-1" d="M746.53,142.03c-5.72,5.61-10.13,8.41-13.23,8.41-1.39,0-2.56-.59-3.52-1.76s-1.44-2.63-1.44-4.36c0-3.21,1.72-7.52,5.16-12.92-1.69,.87-3.53,1.47-5.54,1.81-1.48,2.73-3.8,5.67-6.97,8.82h-.79v-3.08c1.78-1.85,3.38-3.83,4.82-5.95-1.96-.87-2.94-2.15-2.94-3.86s.6-3.63,1.79-5.62c1.2-1.99,2.84-2.99,4.94-2.99,1.78,0,2.67,.91,2.67,2.73,0,1.44-.51,3.49-1.54,6.15,3.78-.41,7.09-3.3,9.91-8.68l3.11-.14-3.18,8.75c-1.32,3.69-2.18,6.2-2.56,7.54-.39,1.33-.58,2.51-.58,3.54,0,.96,.22,1.72,.67,2.29,.44,.57,1.04,.86,1.79,.86,.82,0,1.61-.28,2.36-.84s2.44-2.1,5.06-4.63v3.93Z"/><path class="cls-1" d="M757.06,122c1.57-.41,3.15-.75,4.75-1.01s2.55-.39,2.87-.39c.23,0,.34,.09,.34,.27,0,.34-.09,.69-.27,1.06-.37,1.05-.55,2.05-.55,3.01,0,1.18,.69,2.8,2.05,4.85s2.05,3.96,2.05,5.71c0,3.49-1.67,6.85-5.01,10.08-3.34,3.24-6.8,4.85-10.38,4.85-1.55,0-2.96-.41-4.24-1.23s-1.91-1.7-1.91-2.63c0-.55,.63-1.58,1.9-3.11,1.26-1.53,2.17-2.29,2.72-2.29,.73,0,1.38,.93,1.95,2.8,.57,1.87,1.55,2.8,2.94,2.8s2.7-.64,3.91-1.93,1.83-2.67,1.83-4.15c0-1.44-.77-3.35-2.32-5.74-1.55-2.39-2.58-4.4-3.08-6.01-2.64,4.26-5.99,8.62-10.05,13.09h-.79v-3.08c5.58-5.95,9.34-11.6,11.28-16.95Z"/></g></g></g><g id="_반짝이"><polygon class="cls-6" points="290.09 1174.01 303.55 1226.27 346.92 1237 303.55 1248.78 290.09 1302 275.9 1248.78 233.26 1237 275.9 1226.27 290.09 1174.01"/><polygon class="cls-6" points="807.45 686.32 819.45 732.87 858.08 742.43 819.45 752.92 807.45 800.33 794.82 752.92 756.83 742.43 794.82 732.87 807.45 686.32"/><circle class="cls-5" cx="217" cy="1177" r="14"/><circle class="cls-6" cx="214" cy="1048" r="9"/><circle class="cls-5" cx="865" cy="809" r="13"/><circle class="cls-6" cx="841.5" cy="959.5" r="9.5"/><circle class="cls-6" cx="895.23" cy="850.23" r="8.16"/></g><g id="_운명의_수레바퀴"><path class="cls-4" d="M723.4,820.25c-49.67-49.67-115.72-77.03-185.97-77.03s-136.29,27.36-185.97,77.03c-49.67,49.67-77.03,115.72-77.03,185.97s27.36,136.29,77.03,185.97c49.67,49.67,115.72,77.03,185.97,77.03s136.29-27.36,185.97-77.03c49.67-49.67,77.03-115.72,77.03-185.97s-27.36-136.29-77.03-185.97Zm-165.97-36.12c45.39,4.05,86.91,21.76,120.41,48.99l-120.41,120.41v-169.39Zm-40,167.52l-119.37-119.37c33.32-26.75,74.44-44.13,119.37-48.15v167.52Zm-26.58,29.99h-175.06c5.1-46.25,24.38-88.29,53.42-121.65l121.65,121.65Zm-1.54,40l-125,125c-28.14-34.62-46.11-77.81-49.35-125h174.35Zm28.11,28.46v178.22c-47.59-4.25-90.93-23.5-125.22-53l125.22-125.22Zm40-1.88l126.23,126.23c-34.45,29.99-78.17,49.58-126.23,53.87v-180.1Zm29.99-26.58h172.47c-3.21,46.71-20.86,89.51-48.51,123.96l-123.96-123.96Zm-1.54-40l120.64-120.64c28.55,33.19,47.5,74.85,52.55,120.64h-173.18Z"/><polygon class="cls-2" points="538.01 914.5 548.68 977.81 577.43 964.14 563.76 992.9 628.84 1003.57 563.76 1014.23 577.43 1042.99 548.68 1029.32 538.01 1097.93 527.34 1029.32 498.59 1042.99 512.25 1014.23 446.02 1003.57 512.25 992.9 498.59 964.14 527.34 977.81 538.01 914.5"/><g><circle class="cls-2" cx="631.15" cy="629" r="79"/><path class="cls-2" d="M483.41,691.25c-34.38,0-62.25-27.87-62.25-62.25s27.87-62.25,62.25-62.25c5.87,0,11.53,.83,16.91,2.35-13.83-11.89-31.8-19.1-51.47-19.1-43.63,0-79,35.37-79,79s35.37,79,79,79c19.67,0,37.65-7.21,51.47-19.1-5.38,1.52-11.05,2.35-16.91,2.35Z"/></g><path class="cls-5" d="M388.35,823.03c-1.39,.14-2.76,.38-4.09,.68-3.44-11.76-14.86-19.77-27.49-18.46-1.35,.14-2.65,.41-3.93,.75-3.31-13.16-15.86-22.23-29.74-20.79-6.5,.68-12.24,3.55-16.56,7.8-2.48-18.59-19.31-31.95-38.09-30-17.22,1.79-30.19,15.84-31.15,32.58-1.37,0-2.76,.06-4.16,.2-20.98,2.18-36.23,20.96-34.05,41.94,.57,5.51,2.3,10.63,4.91,15.14-9.42,5.04-15.36,15.42-14.18,26.71,1.55,14.89,14.87,25.71,29.76,24.16,6.43-.67,12.09-3.53,16.33-7.76,6.89,14.37,22.26,23.58,39.02,21.83,9.4-.98,17.65-5.23,23.77-11.5,8.99,11.2,23.3,17.76,38.66,16.17,19.45-2.02,34.59-16.49,38.33-34.68,5.86,3.13,12.69,4.6,19.79,3.86,18.95-1.97,32.72-18.93,30.75-37.88-1.97-18.95-18.93-32.72-37.88-30.75Z"/><path class="cls-5" d="M841.85,1129.53c-1.39,.14-2.76,.38-4.09,.68-3.44-11.76-14.86-19.77-27.49-18.46-1.35,.14-2.65,.41-3.93,.75-3.31-13.16-15.86-22.23-29.74-20.79-6.5,.68-12.24,3.55-16.56,7.8-2.48-18.59-19.31-31.95-38.09-30-17.22,1.79-30.19,15.84-31.15,32.58-1.37,0-2.76,.06-4.16,.2-20.98,2.18-36.23,20.96-34.05,41.94,.57,5.51,2.3,10.63,4.91,15.14-9.42,5.04-15.36,15.42-14.18,26.71,1.55,14.89,14.87,25.71,29.76,24.16,6.43-.67,12.09-3.53,16.33-7.76,6.89,14.37,22.26,23.58,39.02,21.83,9.4-.98,17.65-5.23,23.77-11.5,8.99,11.2,23.3,17.76,38.66,16.17,19.45-2.02,34.59-16.49,38.33-34.68,5.86,3.13,12.69,4.6,19.79,3.86,18.95-1.97,32.72-18.93,30.75-37.88-1.97-18.95-18.93-32.72-37.88-30.75Z"/></g></svg>