<?xml version="1.0" encoding="UTF-8"?><svg xmlns="http://www.w3.org/2000/svg" viewBox="0 0 1080 1944"><defs><style>.cls-1{fill:#fff;}.cls-2{fill:#b6d1e5;}.cls-3{fill:#f6ef84;}.cls-4{fill:#3f3730;}.cls-5{fill:#4c5fa9;}.cls-6{fill:#bad6eb;}.cls-7{fill:#c8c0de;}.cls-8{fill:#b1d4f0;}.cls-9{fill:#eddfed;}.cls-10{fill:none;stroke:#fff;stroke-miterlimit:10;stroke-width:4px;}</style></defs><g id="_배경"><g><rect class="cls-6" width="1080" height="1944"/><rect class="cls-1" x="74.84" y="186.39" width="930.33" height="1606.64" rx="65.21" ry="65.21"/><g><path class="cls-4" d="M441.27,1695.34c-3.64,4.06-10.78,8.18-21.42,12.36-3.67,10.51-8.58,18.25-14.73,23.23-6.15,4.98-11.95,7.47-17.42,7.47-2.5,0-4.52-.79-6.06-2.37s-2.31-3.66-2.31-6.24c0-8.59,8.36-15.8,25.08-21.62,2.97-17.62,5.16-29.66,6.56-36.12,1.41-6.46,3.03-11.56,4.86-15.29,1.84-3.73,4.67-8.05,8.5-12.95,3.83-4.9,6.23-8.13,7.21-9.7-3.79,2.03-6.99,3.05-9.61,3.05-1.56,0-3.46-.47-5.68-1.41s-4.22-1.41-5.98-1.41c-2.93,0-5.52,1.1-7.76,3.31-2.25,2.21-3.37,4.72-3.37,7.53,0,2.42,1,4.4,2.99,5.95,1.99,1.54,2.99,2.63,2.99,3.25,0,.59-.88,1.86-2.64,3.81-1.76,1.95-3.16,2.93-4.22,2.93s-2.31-.97-3.87-2.9c-1.56-1.93-2.34-4.37-2.34-7.29,0-5.9,2.79-11.73,8.38-17.49,5.59-5.76,11.23-8.64,16.93-8.64,1.88,0,3.91,.52,6.09,1.55,2.19,1.04,4.04,1.55,5.57,1.55,2.11,0,4.37-1.03,6.8-3.11,3.05,.35,4.57,.94,4.57,1.76,0,.55-.89,2.24-2.67,5.07-1.78,2.83-3.39,6.44-4.82,10.84-1.43,4.39-2.66,10.14-3.67,17.25l-.88,5.86c-2.5,17.66-4.68,29.77-6.56,36.33,8.41-2.85,14.9-7.29,19.48-13.3v6.74Zm-38.2,18.11c-12.77,4.53-19.16,9.8-19.16,15.82,0,1.21,.38,2.22,1.14,3.02,.76,.8,1.73,1.2,2.9,1.2,2.62,0,5.34-1.57,8.17-4.72,2.83-3.14,5.15-8.25,6.94-15.32Z"/><path class="cls-4" d="M503.79,1695.34c-5.16,4.88-9.47,8.49-12.95,10.81-3.48,2.32-6.6,3.49-9.38,3.49-3.09,0-5.46-1.23-7.12-3.69-1.66-2.46-2.49-5.8-2.49-10.02-4.3,4.73-8.14,8.21-11.54,10.46s-6.72,3.37-9.96,3.37c-2.97,0-5.35-1.23-7.15-3.69-1.8-2.46-2.7-5.8-2.7-10.02,0-8.12,2.73-19.57,8.2-34.34l15.65-3.12c-6.44,18.73-9.66,30.74-9.67,36.05,0,3.75,1.41,5.62,4.22,5.62,2.03,0,4.55-1.65,7.56-4.95,3.01-3.3,4.88-6.18,5.62-8.64l7.68-24.96,15.95-3.23c-3.68,11.76-6.21,20.02-7.58,24.78-1.37,4.77-2.06,8.11-2.06,10.02,0,3.67,1.25,5.51,3.75,5.51,2.03,0,5.04-1.85,9.03-5.57l4.93-4.63v6.74Z"/><path class="cls-4" d="M521.78,1661c2.7-.7,5.41-1.28,8.14-1.73,2.73-.45,4.37-.67,4.92-.67,.39,0,.59,.16,.59,.47,0,.59-.16,1.19-.47,1.81-.62,1.8-.94,3.51-.94,5.15,0,2.03,1.18,4.8,3.52,8.32,2.34,3.52,3.51,6.78,3.51,9.79,0,5.98-2.86,11.74-8.58,17.29-5.72,5.55-11.65,8.32-17.78,8.32-2.66,0-5.08-.7-7.27-2.11-2.19-1.41-3.28-2.91-3.28-4.51,0-.94,1.08-2.71,3.25-5.33,2.17-2.62,3.72-3.93,4.66-3.93,1.25,0,2.36,1.6,3.34,4.8,.98,3.2,2.66,4.8,5.04,4.8s4.62-1.1,6.71-3.31c2.09-2.21,3.13-4.58,3.13-7.12,0-2.46-1.33-5.74-3.98-9.84-2.66-4.1-4.42-7.54-5.28-10.31-4.53,7.3-10.27,14.79-17.23,22.44h-1.35v-5.27c9.57-10.2,16.02-19.88,19.34-29.06Z"/><path class="cls-4" d="M586.17,1695.34c-4.92,4.88-9.18,8.49-12.77,10.81-3.59,2.32-7.01,3.49-10.25,3.49s-6.08-1.42-8.17-4.25c-2.09-2.83-3.13-6.55-3.13-11.16,0-4.06,1-9.43,3.01-16.09l2.49-8.87-4.5,.23,1.88-9.2,5.57-.23,5.5-18.28,15.65-3.21-6.06,20.38,8.27-.47-1.94,9.02-9.09,.7-3.9,13.13c-1.36,4.56-2.03,8.19-2.03,10.89,0,1.84,.46,3.33,1.38,4.49s2.1,1.73,3.55,1.73c2,0,3.97-.63,5.93-1.9,1.96-1.27,4.83-3.92,8.63-7.94v6.74Z"/><path class="cls-4" d="M614.94,1695.34c-9.14,9.61-15.98,14.41-20.51,14.41-2.5,0-4.61-1.28-6.33-3.84-1.72-2.56-2.58-5.77-2.58-9.64,0-8.32,2.81-19.84,8.44-34.57l14.88-3.11h.7l-5.86,18.34c-2.42,7.58-3.63,12.99-3.63,16.23,0,1.29,.28,2.33,.85,3.13,.57,.8,1.28,1.2,2.14,1.2,1.52,0,3.06-.56,4.6-1.67,1.54-1.11,3.97-3.52,7.29-7.24v6.74Zm-1.17-59.65c0,9.38-3.46,14.06-10.37,14.06-3.36,0-6.23-1.02-8.61-3.05,2.26-3.44,4.02-7.3,5.27-11.6,3.08,1.91,5.57,2.87,7.44,2.87,2.11,0,4.2-.76,6.27-2.29Z"/><path class="cls-4" d="M658.77,1695.34c-5,4.92-9.58,8.54-13.74,10.84s-8.51,3.46-13.04,3.46c-5.08,0-9.27-1.65-12.57-4.95-3.3-3.3-4.95-7.49-4.95-12.57,0-8.32,3.04-16,9.11-23.06,6.07-7.05,12.65-10.58,19.72-10.58,3.48,0,6.31,.97,8.5,2.9,2.19,1.93,3.28,4.44,3.28,7.53,0,1.09-.21,1.91-.62,2.46-.41,.55-1.18,1.09-2.31,1.64l-6.8,3.22c-.82,.39-1.43,.59-1.82,.59-.55,0-.82-.39-.82-1.17,0-.31,.12-1.34,.35-3.08,.23-1.74,.35-2.8,.35-3.19,0-1.72-.36-3.11-1.08-4.16-.72-1.05-1.69-1.58-2.9-1.58-2.85,0-5.46,2.11-7.82,6.33-2.36,4.22-3.54,9.02-3.54,14.41,0,4.65,1.11,8.36,3.34,11.13,2.23,2.77,5.19,4.16,8.91,4.16,3.16,0,6.14-.91,8.94-2.72,2.79-1.82,5.97-4.6,9.52-8.35v6.74Z"/><path class="cls-4" d="M702.6,1695.34c-4.96,4.88-9.41,8.49-13.36,10.81-3.95,2.32-8.3,3.49-13.07,3.49-5.31,0-9.6-1.7-12.86-5.1-3.26-3.4-4.89-7.87-4.89-13.42,0-8.28,2.87-15.77,8.61-22.47,5.74-6.7,12.11-10.05,19.1-10.05,3.63,0,6.54,.94,8.73,2.81,2.19,1.88,3.28,4.34,3.28,7.38,0,8.09-8.59,14.65-25.78,19.69,1.56,7.62,5.64,11.43,12.25,11.43,2.58,0,5.04-.69,7.38-2.08,2.34-1.39,5.88-4.46,10.61-9.23v6.74Zm-30.7-10.84c10-2.81,15-8.01,15-15.59,0-3.75-1.37-5.62-4.1-5.62-2.58,0-5.04,1.96-7.38,5.89s-3.52,9.03-3.52,15.32Z"/></g><g><path class="cls-1" d="M353.98,142.06c-5.24,5.58-10.05,8.37-14.42,8.37-2.42,0-4.33-.85-5.74-2.56-1.41-1.71-2.2-4.15-2.36-7.31-2.76,3.35-5.2,5.83-7.33,7.45s-4.4,2.43-6.82,2.43c-3.1,0-5.59-1.34-7.47-4.02-1.88-2.68-2.82-6.25-2.82-10.72,0-5.33,1.23-10.83,3.69-16.49,2.46-5.66,6.11-10.13,10.94-13.42,4.83-3.28,10.69-4.92,17.57-4.92,5.15,0,9.81,.7,13.98,2.08v2.26c-3.4,3.96-6.24,9.51-8.53,16.65-2.29,7.13-3.44,12.57-3.44,16.3,0,1.82,.37,3.24,1.11,4.24,.74,1,1.77,1.5,3.09,1.5,2.37,0,5.22-1.93,8.54-5.78v3.93Zm-9.95-36.85c-2.1-1.14-4.35-1.71-6.77-1.71-3.81,0-7.24,1.59-10.29,4.77-3.05,3.18-5.46,7.39-7.23,12.63-1.77,5.24-2.65,9.79-2.65,13.64,0,2.58,.5,4.67,1.49,6.27,.99,1.61,2.26,2.41,3.81,2.41,2.69,0,5.78-2.45,9.26-7.35,1.44-12.85,5.56-23.07,12.37-30.66Z"/><path class="cls-1" d="M379.51,142.03c-5.72,5.61-10.13,8.41-13.23,8.41-1.39,0-2.56-.59-3.52-1.76s-1.44-2.63-1.44-4.36c0-3.21,1.72-7.52,5.16-12.92-1.69,.87-3.53,1.47-5.54,1.81-1.48,2.73-3.81,5.67-6.97,8.82h-.79v-3.08c1.78-1.85,3.38-3.83,4.82-5.95-1.96-.87-2.94-2.15-2.94-3.86s.6-3.63,1.79-5.62c1.2-1.99,2.84-2.99,4.94-2.99,1.78,0,2.67,.91,2.67,2.73,0,1.44-.51,3.49-1.54,6.15,3.78-.41,7.09-3.3,9.91-8.68l3.11-.14-3.18,8.75c-1.32,3.69-2.18,6.2-2.56,7.54-.39,1.33-.58,2.51-.58,3.54,0,.96,.22,1.72,.67,2.29,.44,.57,1.04,.85,1.79,.85,.82,0,1.61-.28,2.36-.84,.75-.56,2.44-2.1,5.06-4.63v3.93Z"/><path class="cls-1" d="M405.08,142.03c-2.92,2.87-5.59,4.98-8.02,6.32-2.43,1.34-4.96,2.02-7.6,2.02-2.96,0-5.41-.96-7.33-2.89-1.93-1.93-2.89-4.37-2.89-7.33,0-4.85,1.77-9.34,5.31-13.45,3.54-4.11,7.38-6.17,11.5-6.17,2.03,0,3.68,.56,4.96,1.69,1.28,1.13,1.91,2.59,1.91,4.39,0,.64-.12,1.12-.36,1.44-.24,.32-.69,.64-1.35,.96l-3.96,1.88c-.48,.23-.83,.34-1.06,.34-.32,0-.48-.23-.48-.68,0-.18,.07-.78,.21-1.79,.14-1.01,.21-1.63,.21-1.86,0-1-.21-1.81-.63-2.43s-.99-.92-1.69-.92c-1.66,0-3.18,1.23-4.56,3.69-1.38,2.46-2.07,5.26-2.07,8.41,0,2.71,.65,4.88,1.95,6.49,1.3,1.62,3.03,2.43,5.2,2.43,1.85,0,3.58-.53,5.21-1.59s3.48-2.68,5.55-4.87v3.93Z"/><path class="cls-1" d="M441.58,142.03c-3.65,3.46-6.25,5.72-7.83,6.77s-3.08,1.57-4.51,1.57c-3.6,0-5.3-3.18-5.09-9.54-2.28,3.26-4.38,5.66-6.31,7.21s-3.91,2.32-5.96,2.32-3.71-.94-5.11-2.82c-1.4-1.88-2.1-4.19-2.1-6.92,0-3.42,.94-6.68,2.82-9.78,1.88-3.1,4.29-5.61,7.23-7.52s5.54-2.87,7.79-2.87c2.85,0,4.84,1.31,5.98,3.93l6.99-3.86h1.92l-3.01,10.02c-1.55,5.04-2.33,8.49-2.33,10.36s.69,2.94,2.08,2.94c.89,0,1.87-.47,2.94-1.42,1.07-.95,2.57-2.39,4.51-4.32v3.93Zm-25.02,1.88c2.28,0,4.43-1.94,6.44-5.83,2.02-3.88,3.02-7.47,3.02-10.75,0-1.28-.29-2.27-.85-2.99-.57-.72-1.33-1.08-2.29-1.08-2.28,0-4.44,1.94-6.48,5.81-2.04,3.87-3.06,7.44-3.06,10.7,0,1.23,.3,2.23,.91,2.99,.6,.76,1.37,1.15,2.31,1.15Z"/><path class="cls-1" d="M475.11,142.03c-5.26,5.56-9.78,8.34-13.54,8.34-1.53,0-2.76-.54-3.69-1.61-.93-1.07-1.4-2.51-1.4-4.31,0-2.44,1-6.16,3.01-11.18,1.07-2.69,1.61-4.4,1.61-5.13s-.29-1.09-.85-1.09c-.32,0-.74,.16-1.26,.48-.48,.32-1.04,.76-1.67,1.33-.57,.52-1.21,1.16-1.91,1.91-.62,.64-1.28,1.37-1.98,2.19l-1.91,2.22c-.84,1.03-1.37,2.11-1.57,3.25-.34,1.94-.57,3.71-.68,5.33-.07,1.21-.1,2.84-.1,4.89l-7.55,1.78c-.25-3.08-.38-5.37-.38-6.87,0-3.67,.43-7.14,1.28-10.42,.86-3.28,2.23-6.97,4.12-11.07l8.34-1.61c-1.75,4.72-2.91,8.43-3.45,11.14,3.73-4.17,6.7-7.06,8.89-8.66,2.19-1.61,4.15-2.41,5.85-2.41,1.16,0,2.13,.44,2.9,1.31,.77,.88,1.16,1.97,1.16,3.29,0,2.18-.98,5.78-2.94,10.8-1.34,3.44-2.02,5.68-2.02,6.7,0,1.37,.56,2.06,1.68,2.06,1.67,0,4.36-2.2,8.09-6.6v3.93Z"/><path class="cls-1" d="M500.64,142.03c-2.89,2.85-5.49,4.95-7.79,6.31-2.3,1.36-4.84,2.03-7.62,2.03-3.1,0-5.6-.99-7.5-2.97s-2.85-4.59-2.85-7.83c0-4.83,1.67-9.2,5.02-13.11,3.35-3.91,7.06-5.86,11.14-5.86,2.12,0,3.82,.55,5.09,1.64,1.28,1.09,1.91,2.53,1.91,4.31,0,4.72-5.01,8.54-15.04,11.48,.91,4.44,3.29,6.67,7.14,6.67,1.5,0,2.94-.4,4.31-1.21,1.37-.81,3.43-2.6,6.19-5.38v3.93Zm-17.91-6.32c5.83-1.64,8.75-4.67,8.75-9.09,0-2.19-.8-3.28-2.39-3.28-1.5,0-2.94,1.15-4.31,3.44s-2.05,5.27-2.05,8.94Z"/><path class="cls-1" d="M511.17,122c1.57-.41,3.16-.75,4.75-1.01,1.59-.26,2.55-.39,2.87-.39,.23,0,.34,.09,.34,.27,0,.34-.09,.69-.27,1.06-.37,1.05-.55,2.05-.55,3.01,0,1.18,.69,2.8,2.05,4.85s2.05,3.96,2.05,5.71c0,3.49-1.67,6.85-5.01,10.08-3.34,3.24-6.8,4.85-10.37,4.85-1.55,0-2.96-.41-4.24-1.23-1.28-.82-1.91-1.7-1.91-2.63,0-.55,.63-1.58,1.9-3.11,1.26-1.53,2.17-2.29,2.72-2.29,.73,0,1.38,.93,1.95,2.8,.57,1.87,1.55,2.8,2.94,2.8s2.69-.64,3.91-1.93,1.83-2.67,1.83-4.15c0-1.44-.77-3.35-2.32-5.74s-2.58-4.4-3.08-6.02c-2.64,4.26-5.99,8.62-10.05,13.09h-.79v-3.08c5.58-5.95,9.34-11.6,11.28-16.95Z"/><path class="cls-1" d="M596.89,142.03c-2.85,2.78-5.29,4.87-7.31,6.25-2.03,1.39-4,2.08-5.91,2.08-1.5,0-2.7-.52-3.57-1.56s-1.32-2.43-1.32-4.19c0-2.46,.62-5.58,1.85-9.37,1.23-3.78,1.85-6.08,1.85-6.9,0-.73-.38-1.09-1.13-1.09-.23,0-.5,.08-.82,.24-.34,.16-.73,.39-1.16,.68-.43,.32-.9,.71-1.4,1.16-.5,.46-1.03,.98-1.57,1.57-.59,.59-1.18,1.24-1.78,1.95-1,1.19-1.59,2.18-1.78,2.97l-1.14,4.89-2.07,8.07-8.66,1.57,3.32-14.08c.25-1.03,.55-2.53,.89-4.51s.51-3.17,.51-3.55c0-.77-.26-1.16-.79-1.16-.16,0-.39,.08-.68,.24-.34,.16-.73,.4-1.16,.72-.5,.36-1.04,.8-1.61,1.3-.62,.55-1.28,1.17-1.98,1.88-.75,.75-1.53,1.58-2.32,2.5-1.09,1.23-1.78,2.67-2.05,4.31-.37,1.96-.62,3.71-.75,5.26-.16,1.55-.25,3.28-.27,5.2l-7.59,1.81c-.18-2.62-.27-4.81-.27-6.56,0-4.17,.43-7.8,1.3-10.89,.87-3.09,2.28-6.69,4.24-10.82l8.27-1.61c-1.48,3.71-2.63,7.3-3.45,10.77,6.13-7.13,10.82-10.7,14.08-10.7,1.18,0,2.15,.48,2.89,1.45,.74,.97,1.11,2.24,1.11,3.81,0,.73-.11,2.07-.34,4.03,3.85-3.85,6.62-6.36,8.29-7.54,1.67-1.17,3.22-1.76,4.63-1.76,1.25,0,2.28,.5,3.08,1.5s1.2,2.28,1.2,3.83c0,2.44-.67,5.57-2.01,9.4-1.34,3.83-2.01,6.36-2.01,7.59s.47,1.91,1.4,1.91c.59,0,1.42-.39,2.47-1.18,1.06-.79,2.91-2.59,5.54-5.42v3.93Z"/><path class="cls-1" d="M633.4,142.03c-3.65,3.46-6.25,5.72-7.83,6.77s-3.08,1.57-4.51,1.57c-3.6,0-5.3-3.18-5.09-9.54-2.28,3.26-4.38,5.66-6.31,7.21s-3.91,2.32-5.96,2.32-3.71-.94-5.11-2.82c-1.4-1.88-2.1-4.19-2.1-6.92,0-3.42,.94-6.68,2.82-9.78,1.88-3.1,4.29-5.61,7.23-7.52s5.54-2.87,7.79-2.87c2.85,0,4.84,1.31,5.98,3.93l6.99-3.86h1.92l-3.01,10.02c-1.55,5.04-2.33,8.49-2.33,10.36s.69,2.94,2.08,2.94c.89,0,1.87-.47,2.94-1.42,1.07-.95,2.57-2.39,4.51-4.32v3.93Zm-25.02,1.88c2.28,0,4.43-1.94,6.44-5.83,2.02-3.88,3.02-7.47,3.02-10.75,0-1.28-.29-2.27-.85-2.99-.57-.72-1.33-1.08-2.29-1.08-2.28,0-4.44,1.94-6.48,5.81-2.04,3.87-3.06,7.44-3.06,10.7,0,1.23,.3,2.23,.91,2.99,.6,.76,1.37,1.15,2.31,1.15Z"/><path class="cls-1" d="M658.93,142.03c-2.15,2.16-4.81,4.1-7.99,5.81-.83,6.22-2.41,11-4.75,14.32-2.34,3.33-4.72,4.99-7.16,4.99-1.53,0-2.83-.63-3.9-1.9-1.07-1.26-1.61-2.82-1.61-4.67,0-4.47,3.01-8.23,9.02-11.28l2.53-20.58c-4.74,5.92-8.64,10.36-11.69,13.3h-.79v-3.08c3.03-2.89,7.11-7.68,12.24-14.36l2.12-2.73c2.39-.27,5.07-.72,8.03-1.33-1,5.42-2.19,13.43-3.55,24.03,2.1-1.05,4.57-3.18,7.41-6.39l.07,3.86Zm-16.6,10.42c-1.91,.89-3.41,2.09-4.51,3.61s-1.65,3.07-1.65,4.67c0,1.03,.24,1.9,.72,2.62,.48,.72,1.04,1.08,1.67,1.08,1.57,0,2.6-2.01,3.08-6.02l.69-5.95Zm15.85-45.28c-.43,5.56-2.75,8.34-6.94,8.34-1.96,0-3.69-.66-5.2-1.98,1.98-2.53,3.16-4.72,3.52-6.56,1.82,1.12,3.34,1.67,4.55,1.67,1.37,0,2.72-.49,4.07-1.47Z"/><path class="cls-1" d="M684.49,142.03c-2.89,2.85-5.49,4.95-7.79,6.31-2.3,1.36-4.84,2.03-7.62,2.03-3.1,0-5.6-.99-7.5-2.97s-2.85-4.59-2.85-7.83c0-4.83,1.67-9.2,5.02-13.11,3.35-3.91,7.06-5.86,11.14-5.86,2.12,0,3.82,.55,5.09,1.64,1.28,1.09,1.91,2.53,1.91,4.31,0,4.72-5.01,8.54-15.04,11.48,.91,4.44,3.29,6.67,7.14,6.67,1.5,0,2.94-.4,4.31-1.21,1.37-.81,3.43-2.6,6.19-5.38v3.93Zm-17.91-6.32c5.83-1.64,8.75-4.67,8.75-9.09,0-2.19-.8-3.28-2.39-3.28-1.5,0-2.94,1.15-4.31,3.44s-2.05,5.27-2.05,8.94Z"/><path class="cls-1" d="M721,142.03c-3.01,2.85-5.53,4.95-7.55,6.31-2.03,1.36-3.85,2.03-5.47,2.03-1.8,0-3.18-.72-4.15-2.15s-1.45-3.38-1.45-5.84c-2.51,2.76-4.75,4.79-6.73,6.1s-3.92,1.97-5.81,1.97c-1.73,0-3.12-.72-4.17-2.15-1.05-1.44-1.57-3.38-1.57-5.84,0-4.74,1.59-11.42,4.79-20.03l9.13-1.82c-3.75,10.92-5.63,17.93-5.64,21.03,0,2.19,.82,3.28,2.46,3.28,1.18,0,2.65-.96,4.41-2.89,1.75-1.93,2.85-3.61,3.28-5.04l4.48-14.56,9.3-1.88c-2.15,6.86-3.62,11.68-4.42,14.46s-1.2,4.73-1.2,5.85c0,2.14,.73,3.21,2.19,3.21,1.19,0,2.94-1.08,5.27-3.25l2.87-2.7v3.93Z"/><path class="cls-1" d="M746.53,142.03c-5.72,5.61-10.13,8.41-13.23,8.41-1.39,0-2.56-.59-3.52-1.76s-1.44-2.63-1.44-4.36c0-3.21,1.72-7.52,5.16-12.92-1.69,.87-3.53,1.47-5.54,1.81-1.48,2.73-3.81,5.67-6.97,8.82h-.79v-3.08c1.78-1.85,3.38-3.83,4.82-5.95-1.96-.87-2.94-2.15-2.94-3.86s.6-3.63,1.79-5.62c1.2-1.99,2.84-2.99,4.94-2.99,1.78,0,2.67,.91,2.67,2.73,0,1.44-.51,3.49-1.54,6.15,3.78-.41,7.09-3.3,9.91-8.68l3.11-.14-3.18,8.75c-1.32,3.69-2.18,6.2-2.56,7.54-.39,1.33-.58,2.51-.58,3.54,0,.96,.22,1.72,.67,2.29,.44,.57,1.04,.85,1.79,.85,.82,0,1.61-.28,2.36-.84,.75-.56,2.44-2.1,5.06-4.63v3.93Z"/><path class="cls-1" d="M757.06,122c1.57-.41,3.16-.75,4.75-1.01,1.59-.26,2.55-.39,2.87-.39,.23,0,.34,.09,.34,.27,0,.34-.09,.69-.27,1.06-.37,1.05-.55,2.05-.55,3.01,0,1.18,.69,2.8,2.05,4.85s2.05,3.96,2.05,5.71c0,3.49-1.67,6.85-5.01,10.08-3.34,3.24-6.8,4.85-10.37,4.85-1.55,0-2.96-.41-4.24-1.23-1.28-.82-1.91-1.7-1.91-2.63,0-.55,.63-1.58,1.9-3.11,1.26-1.53,2.17-2.29,2.72-2.29,.73,0,1.38,.93,1.95,2.8,.57,1.87,1.55,2.8,2.94,2.8s2.69-.64,3.91-1.93,1.83-2.67,1.83-4.15c0-1.44-.77-3.35-2.32-5.74s-2.58-4.4-3.08-6.02c-2.64,4.26-5.99,8.62-10.05,13.09h-.79v-3.08c5.58-5.95,9.34-11.6,11.28-16.95Z"/></g></g></g><g id="_정의"><g><polygon class="cls-2" points="544.25 668 457.25 754 553.25 1453 544.25 668"/><polygon class="cls-2" points="565.25 668 652.25 754 556.25 1453 565.25 668"/></g><rect class="cls-4" x="415.75" y="628" width="278" height="28" rx="12" ry="12"/><rect class="cls-4" x="531" y="515" width="47" height="136" rx="12" ry="12"/><line class="cls-10" x1="510" y1="540" x2="608" y2="540"/><line class="cls-10" x1="510" y1="558" x2="608" y2="558"/><line class="cls-10" x1="510" y1="576" x2="608" y2="576"/><line class="cls-10" x1="510" y1="594" x2="608" y2="594"/><line class="cls-10" x1="510" y1="612" x2="608" y2="612"/><circle class="cls-7" cx="361" cy="638" r="19"/><circle class="cls-7" cx="743" cy="638" r="19"/><path class="cls-5" d="M409,630c-4.13-6.81-11.23-10.96-13-12-7.05-4.12-10.46-3.24-14-7-2.37-2.51-4.93-7.26-4-17-2.51,1.71-7.71,5.77-11,13-.99,2.18-4.47,10.12-2,20,1.82,7.3,5.97,11.98,8,14-1.8,1.62-6.52,6.33-8,14-1.87,9.68,2.78,17.12,4,19,2.69,4.15,5.95,6.66,8,8-.87-4.25-1.33-10.11,2-14,2.72-3.18,6.57-3.39,13-5,4.69-1.17,11.27-3.21,19-7,1.14-3.79,4.21-15.77-2-26Z"/><path class="cls-5" d="M696,630c4.13-6.81,11.23-10.96,13-12,7.05-4.12,10.46-3.24,14-7,2.37-2.51,4.93-7.26,4-17,2.51,1.71,7.71,5.77,11,13,.99,2.18,4.47,10.12,2,20-1.82,7.3-5.97,11.98-8,14,1.8,1.62,6.52,6.33,8,14,1.87,9.68-2.78,17.12-4,19-2.69,4.15-5.95,6.66-8,8,.87-4.25,1.33-10.11-2-14-2.72-3.18-6.57-3.39-13-5-4.69-1.17-11.27-3.21-19-7-1.14-3.79-4.21-15.77,2-26Z"/><rect class="cls-4" x="400" y="619" width="29" height="45" rx="14.5" ry="14.5"/><rect class="cls-4" x="676.04" y="619" width="29" height="45" rx="14.5" ry="14.5"/><circle class="cls-4" cx="357" cy="692" r="6"/><circle class="cls-4" cx="740" cy="711" r="6"/><circle class="cls-4" cx="745" cy="756" r="6"/><circle class="cls-4" cx="747" cy="799" r="6"/><circle class="cls-4" cx="750" cy="840" r="6"/><circle class="cls-4" cx="753" cy="886" r="6"/><circle class="cls-4" cx="755" cy="929" r="6"/><circle class="cls-4" cx="351" cy="729" r="6"/><circle class="cls-4" cx="349" cy="766" r="6"/><circle class="cls-4" cx="348" cy="811" r="6"/><polygon class="cls-3" points="351 835.53 361.86 866.05 391.12 852.14 377.21 881.41 407.74 892.26 377.21 903.12 391.12 932.38 361.86 918.47 351 949 340.14 918.47 310.88 932.38 324.79 903.12 294.26 892.26 324.79 881.41 310.88 852.14 340.14 866.05 351 835.53"/><polygon class="cls-3" points="757 948.53 767.86 979.05 797.12 965.14 783.21 994.41 813.74 1005.26 783.21 1016.12 797.12 1045.38 767.86 1031.47 757 1062 746.14 1031.47 716.88 1045.38 730.79 1016.12 700.26 1005.26 730.79 994.41 716.88 965.14 746.14 979.05 757 948.53"/><polygon class="cls-3" points="554.57 425.33 563.16 458.68 590.83 465.53 563.16 473.04 554.57 507 545.52 473.04 518.31 465.53 545.52 458.68 554.57 425.33"/></g><g id="_반짝이"><polygon class="cls-7" points="293.57 1031.53 304.88 1075.41 341.29 1084.42 304.88 1094.31 293.57 1139 281.66 1094.31 245.85 1084.42 281.66 1075.41 293.57 1031.53"/><polygon class="cls-3" points="555.57 423.33 564.16 456.68 591.83 463.53 564.16 471.04 555.57 505 546.52 471.04 519.31 463.53 546.52 456.68 555.57 423.33"/><polygon class="cls-8" points="846.09 659.01 855.03 693.71 883.82 700.84 855.03 708.66 846.09 744 836.66 708.66 808.35 700.84 836.66 693.71 846.09 659.01"/><circle class="cls-8" cx="337.32" cy="1142.33" r="14.06"/><circle class="cls-9" cx="443.25" cy="1266.42" r="7.85"/><circle class="cls-9" cx="781.7" cy="1123.87" r="10.3"/><circle class="cls-8" cx="723" cy="1193" r="6"/></g></svg>