<?xml version="1.0" encoding="UTF-8"?><svg xmlns="http://www.w3.org/2000/svg" viewBox="0 0 1080 1944"><defs><style>.cls-1{fill:#fff;}.cls-2{stroke:#4c5fa9;stroke-miterlimit:10;}.cls-2,.cls-3{fill:#4c5fa9;}.cls-4{fill:#f6ef84;}.cls-5{fill:#3f3730;}.cls-6{fill:#bad6eb;}.cls-7{fill:#c8c0de;}.cls-8{fill:#b1d4f0;}</style></defs><g id="_배경"><g><rect class="cls-6" width="1080" height="1944"/><path class="cls-1" d="M140.05,186.39H939.95c35.99,0,65.21,29.22,65.21,65.21V1727.82c0,35.99-29.22,65.21-65.21,65.21H140.05c-35.99,0-65.21-29.22-65.21-65.21V251.6c0-35.99,29.22-65.21,65.21-65.21Z"/><g><path class="cls-5" d="M428.21,1697.74l7.5,3.16c2.42,1.05,4.4,1.77,5.95,2.14,1.54,.37,3.02,.56,4.42,.56,6.49,0,11.69-4.25,15.62-12.74s5.89-17.61,5.89-27.33c0-10.27-2.49-18.54-7.47-24.81s-11.49-9.4-19.54-9.4c-6.45,0-12.49,2.31-18.13,6.94-5.65,4.63-8.47,9.52-8.47,14.68,0,3.87,1.64,6.5,4.92,7.91,1.41,.67,2.11,1.54,2.11,2.64s-1.53,2.36-4.6,3.69c-3.07,1.33-4.93,1.99-5.6,1.99-1.99,0-3.75-1.16-5.27-3.49-1.52-2.32-2.29-4.89-2.29-7.71,0-7.46,3.9-14.54,11.69-21.24,7.79-6.7,17.94-10.05,30.44-10.05s21.48,3.29,28.59,9.87c7.11,6.58,10.66,15.4,10.66,26.46,0,8.44-2.2,16.45-6.59,24.02-4.39,7.58-10.31,13.59-17.75,18.05s-15.32,6.68-23.64,6.68c-6.99,0-13.52-1.52-19.57-4.57-4.88,3.05-9.12,4.57-12.71,4.57-2.03,0-3.74-.59-5.13-1.76-1.39-1.17-2.08-2.6-2.08-4.28,0-2.73,1.43-5.04,4.28-6.91,2.85-1.88,6.42-2.81,10.72-2.81,3.05,0,5.96,.49,8.73,1.46,2.46-2.03,4.14-4.47,5.04-7.32,.9-2.85,1.8-7.89,2.7-15.12,.9-7.23,2.3-12.91,4.22-17.05,1.91-4.14,4.74-7.61,8.47-10.4,3.73-2.79,7.49-4.4,11.28-4.83l2.29,3.11c-2.42,2.46-4.23,4.96-5.42,7.5-1.19,2.54-2.27,8-3.23,16.38-.96,8.38-2.8,14.67-5.52,18.87-2.72,4.2-6.88,7.92-12.51,11.16Z"/><path class="cls-5" d="M531.28,1695.34c-4.96,4.88-9.41,8.49-13.36,10.81-3.95,2.32-8.3,3.49-13.07,3.49-5.31,0-9.6-1.7-12.86-5.1-3.26-3.4-4.89-7.87-4.89-13.42,0-8.28,2.87-15.77,8.61-22.47,5.74-6.7,12.11-10.05,19.1-10.05,3.63,0,6.54,.94,8.73,2.81,2.19,1.88,3.28,4.34,3.28,7.38,0,8.09-8.59,14.65-25.78,19.69,1.56,7.62,5.64,11.43,12.25,11.43,2.58,0,5.04-.69,7.38-2.08,2.34-1.39,5.88-4.46,10.61-9.23v6.74Zm-30.7-10.84c10-2.81,15-8.01,15-15.59,0-3.75-1.37-5.62-4.1-5.62-2.58,0-5.04,1.96-7.38,5.89s-3.52,9.03-3.52,15.32Z"/><path class="cls-5" d="M593.86,1695.34c-6.25,5.94-10.72,9.81-13.42,11.6s-5.27,2.7-7.73,2.7c-6.17,0-9.08-5.45-8.73-16.35-3.91,5.59-7.51,9.71-10.81,12.36-3.3,2.66-6.71,3.98-10.22,3.98s-6.36-1.61-8.76-4.83-3.6-7.18-3.6-11.87c0-5.86,1.61-11.45,4.83-16.76,3.22-5.31,7.35-9.61,12.39-12.89s9.49-4.92,13.36-4.92c4.88,0,8.3,2.25,10.25,6.74l11.98-6.62h3.29l-5.17,17.17c-2.66,8.63-3.99,14.55-3.99,17.75s1.19,5.04,3.57,5.04c1.52,0,3.2-.81,5.04-2.43,1.83-1.62,4.41-4.09,7.73-7.41v6.74Zm-42.89,3.22c3.91,0,7.59-3.33,11.04-9.99,3.46-6.66,5.19-12.8,5.19-18.43,0-2.19-.49-3.9-1.46-5.13-.98-1.23-2.29-1.85-3.93-1.85-3.91,0-7.61,3.32-11.1,9.96-3.5,6.64-5.24,12.75-5.24,18.34,0,2.11,.52,3.82,1.55,5.13,1.03,1.31,2.35,1.96,3.96,1.96Z"/><path class="cls-5" d="M627.55,1695.34c-4.92,4.88-9.18,8.49-12.77,10.81-3.59,2.32-7.01,3.49-10.25,3.49s-6.08-1.42-8.17-4.25c-2.09-2.83-3.13-6.55-3.13-11.16,0-4.06,1-9.43,3.01-16.09l2.49-8.87-4.5,.23,1.88-9.2,5.57-.23,5.5-18.28,15.65-3.21-6.06,20.38,8.27-.47-1.94,9.02-9.09,.7-3.9,13.13c-1.36,4.56-2.03,8.19-2.03,10.89,0,1.84,.46,3.33,1.38,4.49s2.1,1.73,3.55,1.73c2,0,3.97-.63,5.93-1.9,1.96-1.27,4.83-3.92,8.63-7.94v6.74Z"/><path class="cls-5" d="M685.03,1695.34c-9.26,9.61-16.88,14.41-22.85,14.41-2.66,0-4.85-.91-6.59-2.72-1.74-1.82-2.61-4.11-2.61-6.88,0-4.69,1.8-11.29,5.39-19.8,1.91-4.61,2.87-7.62,2.87-9.02,0-1.6-.76-2.4-2.29-2.4s-3.83,1.06-6.8,3.19c-2.97,2.13-6.09,5.03-9.38,8.7-1.37,7.19-2.05,15.82-2.05,25.9l-13.07,3.05c-.51-4.1-.76-8.55-.76-13.36,0-11.64,1.6-22.48,4.8-32.52,3.2-10.04,8.24-20.68,15.12-31.93,5.12-2.07,9.58-3.76,13.39-5.07,3.81-1.31,5.99-1.96,6.53-1.96,1.02,0,1.88,.82,2.58,2.46s1.05,3.69,1.05,6.15c0,4.14-1.27,8.72-3.81,13.74-2.54,5.02-6.52,11.08-11.95,18.19,5.2-3.01,8.66-4.9,10.38-5.68,1.72-.78,3.48-1.17,5.28-1.17,1.99,0,3.61,.71,4.84,2.14s1.85,3.31,1.85,5.66c0,3.52-1.4,8.97-4.2,16.35-2.8,7.38-4.2,12.01-4.2,13.88,0,.86,.26,1.62,.79,2.29s1.14,1,1.84,1c2.5,0,7.11-3.77,13.82-11.31v6.74Zm-40.61-24.02c13.95-16.21,20.92-28.16,20.92-35.86,0-2.34-.64-3.52-1.93-3.52-2.15,0-5.21,3.85-9.2,11.54-3.98,7.7-7.25,16.97-9.79,27.83Z"/></g><g><path class="cls-1" d="M353.98,142.06c-5.24,5.58-10.05,8.37-14.42,8.37-2.42,0-4.33-.85-5.74-2.56s-2.2-4.15-2.36-7.31c-2.76,3.35-5.2,5.83-7.33,7.45-2.13,1.62-4.4,2.43-6.82,2.43-3.1,0-5.59-1.34-7.47-4.02-1.88-2.68-2.82-6.25-2.82-10.71,0-5.33,1.23-10.83,3.69-16.49s6.11-10.13,10.94-13.42,10.69-4.92,17.57-4.92c5.15,0,9.81,.7,13.98,2.09v2.26c-3.4,3.96-6.24,9.51-8.53,16.64-2.29,7.13-3.44,12.57-3.44,16.3,0,1.82,.37,3.24,1.11,4.24,.74,1,1.77,1.5,3.09,1.5,2.37,0,5.22-1.93,8.54-5.78v3.93Zm-9.95-36.85c-2.1-1.14-4.35-1.71-6.77-1.71-3.81,0-7.24,1.59-10.29,4.77s-5.46,7.39-7.23,12.63c-1.77,5.24-2.65,9.79-2.65,13.64,0,2.57,.5,4.67,1.49,6.27,.99,1.61,2.26,2.41,3.81,2.41,2.69,0,5.78-2.45,9.26-7.35,1.44-12.85,5.56-23.07,12.37-30.66Z"/><path class="cls-1" d="M379.51,142.03c-5.72,5.61-10.13,8.41-13.23,8.41-1.39,0-2.56-.59-3.52-1.76s-1.44-2.63-1.44-4.36c0-3.21,1.72-7.52,5.16-12.92-1.69,.87-3.53,1.47-5.54,1.81-1.48,2.73-3.8,5.67-6.97,8.82h-.79v-3.08c1.78-1.85,3.38-3.83,4.82-5.95-1.96-.87-2.94-2.15-2.94-3.86s.6-3.63,1.79-5.62c1.2-1.99,2.84-2.99,4.94-2.99,1.78,0,2.67,.91,2.67,2.73,0,1.44-.51,3.49-1.54,6.15,3.78-.41,7.09-3.3,9.91-8.68l3.11-.14-3.18,8.75c-1.32,3.69-2.18,6.2-2.56,7.54-.39,1.33-.58,2.51-.58,3.54,0,.96,.22,1.72,.67,2.29,.44,.57,1.04,.86,1.79,.86,.82,0,1.61-.28,2.36-.84s2.44-2.1,5.06-4.63v3.93Z"/><path class="cls-1" d="M405.08,142.03c-2.92,2.87-5.59,4.98-8.02,6.32-2.43,1.34-4.96,2.02-7.61,2.02-2.96,0-5.41-.96-7.33-2.89-1.93-1.92-2.89-4.37-2.89-7.33,0-4.85,1.77-9.34,5.31-13.45,3.54-4.11,7.38-6.17,11.5-6.17,2.03,0,3.68,.56,4.96,1.69s1.91,2.59,1.91,4.39c0,.64-.12,1.12-.36,1.44-.24,.32-.69,.64-1.35,.96l-3.96,1.88c-.48,.23-.83,.34-1.06,.34-.32,0-.48-.23-.48-.68,0-.18,.07-.78,.21-1.79,.14-1.01,.21-1.63,.21-1.86,0-1-.21-1.81-.63-2.43s-.99-.92-1.69-.92c-1.66,0-3.19,1.23-4.56,3.69-1.38,2.46-2.07,5.26-2.07,8.41,0,2.71,.65,4.88,1.95,6.49,1.3,1.62,3.03,2.43,5.2,2.43,1.85,0,3.58-.53,5.21-1.59s3.48-2.68,5.55-4.87v3.93Z"/><path class="cls-1" d="M441.58,142.03c-3.65,3.46-6.26,5.72-7.83,6.77-1.57,1.05-3.08,1.57-4.51,1.57-3.6,0-5.3-3.18-5.09-9.54-2.28,3.26-4.38,5.66-6.31,7.21-1.93,1.55-3.91,2.32-5.96,2.32s-3.71-.94-5.11-2.82c-1.4-1.88-2.1-4.19-2.1-6.92,0-3.42,.94-6.68,2.82-9.78,1.88-3.1,4.29-5.61,7.23-7.52s5.54-2.87,7.79-2.87c2.85,0,4.84,1.31,5.98,3.93l6.99-3.86h1.92l-3.02,10.01c-1.55,5.04-2.33,8.49-2.33,10.36,0,1.96,.69,2.94,2.08,2.94,.89,0,1.87-.47,2.94-1.42,1.07-.95,2.57-2.39,4.51-4.32v3.93Zm-25.02,1.88c2.28,0,4.43-1.94,6.44-5.83,2.02-3.88,3.02-7.47,3.02-10.75,0-1.28-.29-2.27-.85-2.99-.57-.72-1.33-1.08-2.29-1.08-2.28,0-4.44,1.94-6.48,5.81-2.04,3.87-3.06,7.44-3.06,10.7,0,1.23,.3,2.23,.91,2.99,.6,.76,1.37,1.15,2.31,1.15Z"/><path class="cls-1" d="M475.11,142.03c-5.26,5.56-9.78,8.34-13.54,8.34-1.53,0-2.76-.54-3.69-1.61-.93-1.07-1.4-2.51-1.4-4.31,0-2.44,1-6.16,3.01-11.18,1.07-2.69,1.61-4.4,1.61-5.13s-.29-1.09-.85-1.09c-.32,0-.74,.16-1.27,.48-.48,.32-1.04,.76-1.67,1.33-.57,.52-1.21,1.16-1.91,1.91-.62,.64-1.28,1.37-1.98,2.19l-1.91,2.22c-.84,1.03-1.37,2.11-1.57,3.25-.34,1.94-.57,3.71-.68,5.33-.07,1.21-.1,2.84-.1,4.89l-7.55,1.78c-.25-3.08-.38-5.37-.38-6.87,0-3.67,.43-7.14,1.28-10.43,.86-3.28,2.23-6.97,4.12-11.07l8.34-1.61c-1.75,4.72-2.9,8.43-3.45,11.14,3.73-4.17,6.7-7.06,8.89-8.67,2.19-1.61,4.14-2.41,5.85-2.41,1.16,0,2.13,.44,2.9,1.31,.77,.88,1.16,1.97,1.16,3.29,0,2.18-.98,5.78-2.94,10.8-1.34,3.44-2.02,5.68-2.02,6.7,0,1.37,.56,2.06,1.68,2.06,1.67,0,4.36-2.2,8.09-6.6v3.93Z"/><path class="cls-1" d="M500.64,142.03c-2.89,2.85-5.49,4.95-7.79,6.31-2.3,1.36-4.84,2.03-7.62,2.03-3.1,0-5.6-.99-7.5-2.97s-2.85-4.59-2.85-7.83c0-4.83,1.67-9.2,5.02-13.11s7.06-5.86,11.14-5.86c2.12,0,3.82,.55,5.09,1.64,1.28,1.09,1.91,2.53,1.91,4.31,0,4.72-5.01,8.54-15.04,11.48,.91,4.44,3.29,6.66,7.14,6.66,1.5,0,2.94-.4,4.31-1.21s3.43-2.6,6.19-5.38v3.93Zm-17.91-6.32c5.83-1.64,8.75-4.67,8.75-9.09,0-2.19-.8-3.28-2.39-3.28-1.5,0-2.94,1.14-4.31,3.43s-2.05,5.27-2.05,8.94Z"/><path class="cls-1" d="M511.17,122c1.57-.41,3.15-.75,4.75-1.01s2.55-.39,2.87-.39c.23,0,.34,.09,.34,.27,0,.34-.09,.69-.27,1.06-.37,1.05-.55,2.05-.55,3.01,0,1.18,.69,2.8,2.05,4.85s2.05,3.96,2.05,5.71c0,3.49-1.67,6.85-5.01,10.08-3.34,3.24-6.8,4.85-10.38,4.85-1.55,0-2.96-.41-4.24-1.23s-1.91-1.7-1.91-2.63c0-.55,.63-1.58,1.9-3.11,1.26-1.53,2.17-2.29,2.72-2.29,.73,0,1.38,.93,1.95,2.8,.57,1.87,1.55,2.8,2.94,2.8s2.7-.64,3.91-1.93,1.83-2.67,1.83-4.15c0-1.44-.77-3.35-2.32-5.74-1.55-2.39-2.58-4.4-3.08-6.01-2.64,4.26-5.99,8.62-10.05,13.09h-.79v-3.08c5.58-5.95,9.34-11.6,11.28-16.95Z"/><path class="cls-1" d="M596.89,142.03c-2.85,2.78-5.29,4.87-7.31,6.26-2.03,1.39-4,2.08-5.91,2.08-1.5,0-2.7-.52-3.57-1.55s-1.31-2.43-1.31-4.19c0-2.46,.62-5.58,1.85-9.37,1.23-3.78,1.85-6.08,1.85-6.9,0-.73-.38-1.09-1.13-1.09-.23,0-.5,.08-.82,.24-.34,.16-.73,.39-1.16,.68-.43,.32-.9,.71-1.4,1.16-.5,.46-1.03,.98-1.57,1.57-.59,.59-1.18,1.24-1.78,1.95-1,1.18-1.59,2.18-1.78,2.97l-1.14,4.89-2.07,8.07-8.66,1.57,3.32-14.08c.25-1.03,.55-2.53,.89-4.51s.51-3.17,.51-3.55c0-.77-.26-1.16-.79-1.16-.16,0-.39,.08-.68,.24-.34,.16-.73,.4-1.16,.72-.5,.37-1.04,.8-1.61,1.3-.62,.55-1.28,1.17-1.98,1.88-.75,.75-1.53,1.58-2.32,2.49-1.09,1.23-1.78,2.67-2.05,4.31-.37,1.96-.62,3.71-.75,5.26-.16,1.55-.25,3.28-.27,5.2l-7.59,1.81c-.18-2.62-.27-4.81-.27-6.56,0-4.17,.43-7.8,1.3-10.89s2.28-6.69,4.24-10.82l8.27-1.61c-1.48,3.71-2.63,7.3-3.45,10.77,6.13-7.13,10.82-10.7,14.08-10.7,1.18,0,2.15,.48,2.89,1.45,.74,.97,1.11,2.24,1.11,3.81,0,.73-.11,2.07-.34,4.03,3.85-3.85,6.62-6.36,8.29-7.54,1.67-1.17,3.22-1.76,4.63-1.76,1.25,0,2.28,.5,3.08,1.5,.8,1,1.2,2.28,1.2,3.83,0,2.44-.67,5.57-2.01,9.4-1.34,3.83-2.01,6.36-2.01,7.59s.46,1.91,1.4,1.91c.59,0,1.42-.39,2.47-1.18,1.06-.79,2.9-2.59,5.54-5.42v3.93Z"/><path class="cls-1" d="M633.4,142.03c-3.65,3.46-6.26,5.72-7.83,6.77-1.57,1.05-3.08,1.57-4.51,1.57-3.6,0-5.3-3.18-5.09-9.54-2.28,3.26-4.38,5.66-6.31,7.21-1.93,1.55-3.91,2.32-5.96,2.32s-3.71-.94-5.11-2.82c-1.4-1.88-2.1-4.19-2.1-6.92,0-3.42,.94-6.68,2.82-9.78,1.88-3.1,4.29-5.61,7.23-7.52s5.54-2.87,7.79-2.87c2.85,0,4.84,1.31,5.98,3.93l6.99-3.86h1.92l-3.02,10.01c-1.55,5.04-2.33,8.49-2.33,10.36,0,1.96,.69,2.94,2.08,2.94,.89,0,1.87-.47,2.94-1.42,1.07-.95,2.57-2.39,4.51-4.32v3.93Zm-25.02,1.88c2.28,0,4.43-1.94,6.44-5.83,2.02-3.88,3.02-7.47,3.02-10.75,0-1.28-.29-2.27-.85-2.99-.57-.72-1.33-1.08-2.29-1.08-2.28,0-4.44,1.94-6.48,5.81-2.04,3.87-3.06,7.44-3.06,10.7,0,1.23,.3,2.23,.91,2.99,.6,.76,1.37,1.15,2.31,1.15Z"/><path class="cls-1" d="M658.93,142.03c-2.15,2.16-4.81,4.1-7.99,5.81-.83,6.22-2.41,11-4.75,14.32-2.34,3.33-4.72,4.99-7.16,4.99-1.53,0-2.83-.63-3.9-1.9s-1.61-2.82-1.61-4.67c0-4.47,3.01-8.23,9.02-11.28l2.53-20.58c-4.74,5.92-8.64,10.36-11.69,13.29h-.79v-3.08c3.03-2.89,7.11-7.68,12.24-14.36l2.12-2.73c2.39-.27,5.07-.72,8.03-1.33-1.01,5.42-2.19,13.43-3.55,24.03,2.1-1.05,4.57-3.18,7.41-6.39l.07,3.86Zm-16.6,10.42c-1.91,.89-3.41,2.09-4.51,3.61-1.1,1.52-1.65,3.07-1.65,4.67,0,1.03,.24,1.9,.72,2.62s1.04,1.08,1.67,1.08c1.57,0,2.6-2.01,3.08-6.02l.69-5.95Zm15.85-45.29c-.43,5.56-2.75,8.34-6.94,8.34-1.96,0-3.69-.66-5.2-1.98,1.98-2.53,3.15-4.72,3.52-6.56,1.82,1.12,3.34,1.68,4.55,1.68,1.37,0,2.72-.49,4.07-1.47Z"/><path class="cls-1" d="M684.49,142.03c-2.89,2.85-5.49,4.95-7.79,6.31s-4.84,2.03-7.62,2.03c-3.1,0-5.6-.99-7.5-2.97s-2.85-4.59-2.85-7.83c0-4.83,1.68-9.2,5.03-13.11s7.06-5.86,11.14-5.86c2.12,0,3.82,.55,5.09,1.64s1.91,2.53,1.91,4.31c0,4.72-5.01,8.54-15.04,11.48,.91,4.44,3.29,6.66,7.14,6.66,1.5,0,2.94-.4,4.31-1.21s3.43-2.6,6.19-5.38v3.93Zm-17.91-6.32c5.83-1.64,8.75-4.67,8.75-9.09,0-2.19-.8-3.28-2.39-3.28-1.5,0-2.94,1.14-4.31,3.43s-2.05,5.27-2.05,8.94Z"/><path class="cls-1" d="M721,142.03c-3.01,2.85-5.53,4.95-7.55,6.31-2.03,1.36-3.85,2.03-5.47,2.03-1.8,0-3.19-.72-4.15-2.15s-1.45-3.38-1.45-5.85c-2.51,2.76-4.75,4.79-6.73,6.1s-3.92,1.96-5.81,1.96c-1.73,0-3.12-.72-4.17-2.15s-1.57-3.38-1.57-5.85c0-4.74,1.6-11.42,4.79-20.03l9.13-1.82c-3.75,10.92-5.63,17.93-5.64,21.03,0,2.19,.82,3.28,2.46,3.28,1.19,0,2.65-.96,4.41-2.89,1.75-1.92,2.85-3.61,3.28-5.04l4.48-14.56,9.3-1.88c-2.15,6.86-3.62,11.68-4.42,14.46-.8,2.78-1.2,4.73-1.2,5.85,0,2.14,.73,3.21,2.19,3.21,1.19,0,2.94-1.08,5.27-3.25l2.87-2.7v3.93Z"/><path class="cls-1" d="M746.53,142.03c-5.72,5.61-10.13,8.41-13.23,8.41-1.39,0-2.56-.59-3.52-1.76s-1.44-2.63-1.44-4.36c0-3.21,1.72-7.52,5.16-12.92-1.69,.87-3.53,1.47-5.54,1.81-1.48,2.73-3.8,5.67-6.97,8.82h-.79v-3.08c1.78-1.85,3.38-3.83,4.82-5.95-1.96-.87-2.94-2.15-2.94-3.86s.6-3.63,1.79-5.62c1.2-1.99,2.84-2.99,4.94-2.99,1.78,0,2.67,.91,2.67,2.73,0,1.44-.51,3.49-1.54,6.15,3.78-.41,7.09-3.3,9.91-8.68l3.11-.14-3.18,8.75c-1.32,3.69-2.18,6.2-2.56,7.54-.39,1.33-.58,2.51-.58,3.54,0,.96,.22,1.72,.67,2.29,.44,.57,1.04,.86,1.79,.86,.82,0,1.61-.28,2.36-.84s2.44-2.1,5.06-4.63v3.93Z"/><path class="cls-1" d="M757.06,122c1.57-.41,3.15-.75,4.75-1.01s2.55-.39,2.87-.39c.23,0,.34,.09,.34,.27,0,.34-.09,.69-.27,1.06-.37,1.05-.55,2.05-.55,3.01,0,1.18,.69,2.8,2.05,4.85s2.05,3.96,2.05,5.71c0,3.49-1.67,6.85-5.01,10.08-3.34,3.24-6.8,4.85-10.38,4.85-1.55,0-2.96-.41-4.24-1.23s-1.91-1.7-1.91-2.63c0-.55,.63-1.58,1.9-3.11,1.26-1.53,2.17-2.29,2.72-2.29,.73,0,1.38,.93,1.95,2.8,.57,1.87,1.55,2.8,2.94,2.8s2.7-.64,3.91-1.93,1.83-2.67,1.83-4.15c0-1.44-.77-3.35-2.32-5.74-1.55-2.39-2.58-4.4-3.08-6.01-2.64,4.26-5.99,8.62-10.05,13.09h-.79v-3.08c5.58-5.95,9.34-11.6,11.28-16.95Z"/></g></g></g><g id="_반짝이"><polygon class="cls-7" points="293.09 539.01 312.24 613.32 373.89 628.58 312.24 645.32 293.09 721 272.91 645.32 212.28 628.58 272.91 613.32 293.09 539.01"/><polygon class="cls-8" points="840.09 811.01 850.29 850.61 883.15 858.75 850.29 867.67 840.09 908 829.33 867.67 797.02 858.75 829.33 850.61 840.09 811.01"/><polygon class="cls-7" points="298.09 999.01 305.98 1029.63 331.38 1035.92 305.98 1042.82 298.09 1074 289.77 1042.82 264.79 1035.92 289.77 1029.63 298.09 999.01"/><circle class="cls-8" cx="225.5" cy="700.5" r="12.5"/><circle class="cls-7" cx="199" cy="774" r="9"/><circle class="cls-8" cx="245.5" cy="815.5" r="5.5"/><circle class="cls-8" cx="803.5" cy="683.5" r="9.5"/><circle class="cls-7" cx="787" cy="762" r="13"/><circle class="cls-7" cx="860" cy="1098" r="16"/><circle class="cls-8" cx="814.5" cy="1160.5" r="9.5"/></g><g id="_죽음"><path class="cls-2" d="M556,684c-4.59,3.76-9.32-1.53-25,0-11.56,1.13-21,5-21,5-9.04,3.71-10.63,6.68-15,6-7.04-1.1-12.13-10.28-13.5-17.5-2.71-14.32,8.24-26.04,11-29,4.33-4.64,8.89-7.41,12-9,4.16-.18,10.06-.13,17,1,11.41,1.86,25.51,4.16,33,15,6.31,9.12,7.46,23.62,1.5,28.5Z"/><path class="cls-2" d="M576.5,698.5c.26-1.8,2.99-19.02,15-24,4.61-1.91,10.48-1.98,12-2,1.93-.02,6.88,.06,13,2,7.4,2.35,10.04,5.36,15,8,4.82,2.57,12.4,5.08,24,4,.89,2.66,2.58,6.55,6,10,5.72,5.76,10.49,4.48,21,10,6.25,3.29,13.1,6.89,16,14,1.61,3.94,.24,4.64,1,14,.72,8.84,2.08,9.95,4,22,1.02,6.43,1.88,11.8,2,19,.03,1.92,.12,10.48-2,22-2.19,11.89-3.28,17.84-7,23-.45,.62-8.52,11.5-22,14-5.86,1.09-7.72-.34-15,1-7.05,1.3-12.5,3.96-16,6-3.33-4.67-6.67-9.33-10-14,4.23-2.49,10.66-7.12,15-15,7.81-14.19,3.66-29.5,0-43-2.3-8.47-5.19-19.13-14-29-6.3-7.06-7.66-4.8-18-15-11-10.85-12.39-16.31-20-18-4.22-.94-7.82-.15-13-3-3.38-1.86-5.64-4.28-7-6Z"/><path class="cls-2" d="M471.5,721.5c.47-3.47,1.22-12.66-4-22-8.64-15.45-26.04-17.77-28-18-1.06,2.09-2.88,4.91-6,7-6.36,4.25-13.29,2.23-19,2-20.33-.82-37.48,20.6-41,25-5.27,6.58-3.1,6.59-15,25-8.48,13.12-9.49,12.97-12,18-7.99,16.01-5.34,32.64-4,41,3.64,22.79,15.83,38.2,22,45,7.4-3.28,18.19-6.53,29-3,8.9,2.9,9.04,7.53,20,13,2.76,1.38,18.1,8.75,37,5,7.99-1.58,14.11-4.66,18-7-2.7-3.49-6.82-8.75-12-15-19.66-23.7-23.04-23.71-28-33-11.01-20.63-5.92-42.32-5-46,1.74-6.94,4.57-18.21,15-27,13.13-11.06,28.96-10.31,33-10Z"/><path class="cls-2" d="M546.5,722.5c-6.28-2.47-8.06-3.68-12-4-5.12-.42-7.78,1.15-12,2-4.72,.95-11.64,1.04-21-3,1.73-2.68,4.59-6.46,9-10,2.9-2.32,10.74-7.98,22-9,5.33-.48,9.22,.34,17,2,7.32,1.56,13.6,2.89,21,7,1.55,.86,8.8,4.98,16,13,3.7,4.12,6.27,8.03,8,11-3.02,1.1-7.99,2.47-14,2-4.42-.35-5.7-1.41-19-6-11.25-3.89-9.69-2.91-15-5Z"/><path class="cls-2" d="M502.5,733.5c-2.2,.46-5.4,1.32-9,3-3.93,1.83-9.92,4.63-14,11-3.34,5.22-3.97,10.61-4,14,2.06,3.02,5.84,7.62,12,11,13.47,7.39,27.31,2.93,30,2,.47-1.69,.92-4.29,0-7-1.98-5.85-8.05-5.54-12-12-2.08-3.4-2.44-6.83-3-12-.44-4.09-.26-7.55,0-10Z"/><path class="cls-2" d="M454.5,735.5c-8.68,2.03-12.22,14.67-14,21-4.34,15.46-1.47,28.63,0,34,2.74,10.02,5.04,18.46,13,23,10.19,5.82,22.31,1.06,25,0,7.16-2.81,11.72-7.37,14-10-4.23-.96-9.39-2.85-11-7-1.42-3.65,1.19-5.77,0-10-1.31-4.66-5.47-5.64-12-11-1.46-1.2-7.96-6.66-11-12-1.62-2.85-5.59-11.54,1-28-1.25-.27-3.02-.46-5,0Z"/><path class="cls-2" d="M516.5,750.5c.77-2.61,2.61-7.5,7-12,1.91-1.96,7-7.01,15-8,8.81-1.09,15.37,3.47,19,6,6.52,4.53,14.12,13.08,12,18-.77,1.79-2.71,2.85-3,3-2.68,1.42-5.62,.69-8,0-10.24-2.97-10.8-5.44-16-6-5.42-.58-6.27,1.94-13,2-5.47,.05-9.98-1.57-13-3Z"/><path class="cls-4" d="M530.5,769.5c1.79-1.24,4.84-3.03,9-4,5.36-1.25,9.64-.46,12,0,3.42,.67,6.8,1.33,10,4,.73,.61,6.72,5.62,5,10-1.18,2.99-5.23,3.85-6,4-3.43-.07-7.55-.56-12-2-7.18-2.32-11.79-6-13-7-2.25-1.85-3.89-3.66-5-5Z"/><path class="cls-2" d="M590.5,749.5c1.24,4.91,2.84,14.17,0,25-1.67,6.35-3.89,14.82-11,19-4.56,2.68-11.44,1.82-25,0-14.08-1.89-21.12-2.84-26-4-2.35-.56-11.01-2.68-19,0-1.51,.51-3.41,1.32-4,3-1.11,3.14,3.11,7.15,4,8,6,5.71,10.7,3.25,18,8,6.74,4.38,4.65,7.72,10,10,6.9,2.94,10.11-2.74,22-1,2.59,.38,5.72,1.25,12,3,7.18,2,7.4,2.42,10,3,1.58,.35,13.47,2.84,23-3,7.64-4.69,6.15-10.07,14-13,2.52-.94,5.39-1.4,9-4,1.83-1.32,4.44-3.2,5-6,.7-3.48-2.12-6.55-4-9-7.33-9.54-2.91-12.92-10-24-2.7-4.22-8.16-12.75-18-15-4.04-.92-7.61-.51-10,0Z"/><path class="cls-3" d="M499,817c-5.81,1.25-8.47,4.36-9,5-3.73,4.53-3.11,10.14-3,11,.42,3.34,2.09,6.91,9,13,5.33,4.69,11.49,10.13,22,14,14.03,5.17,26.31,4.06,38,3,12.89-1.17,11.54-3,25-4,14.95-1.11,20.13,.89,26-3,3.83-2.53,8.5-7.93,10-21-2.5,1.27-6.25,2.91-11,4-4.74,1.09-9.66,1.45-23,0-9-.98-15.98-1.74-26-4-6.03-1.36-14.09-3.22-24-7-17.92-6.85-23.93-13.16-34-11Z"/><path class="cls-3" d="M487,867c-2.87,2.02-7.46,5.81-11,12-1.97,3.43-4.13,7.21-4,12,.27,9.74,9.81,16.22,11,17,8.59,5.65,13.8,1.8,29,6,9.88,2.73,8.42,4.56,19,8,12.99,4.23,24.47,5.33,36,3,3.91-.79,9.23-.52,24-9,1.18-.68,6.23-2.61,9-3,6.75-.95,15.65-1.37,19-1,9,1,24.65,.24,32-9,2.95-3.71,3.3-8.14,4-17,.94-11.89-.58-21.66-2-28-6.09-.6-15.24-.94-26,1-17.48,3.14-24.26,9.61-41,14-11.48,3.01-19.85,3.01-35,3-15.35,0-37.57-1.58-64-9Z"/><path class="cls-2" d="M480,927c-3.44-2.35-8.37-6.19-13-12-8.75-10.96-7.77-18.04-15-25-6.49-6.25-12.36-5.46-24-9-9.33-2.84-22.43-8.48-37-21-3.94,1.73-12.11,5.97-18,15-1.71,2.63-10.78,17.23-5,28,1.65,3.07,3.56,4.08,16,11,.95,.53,18.26,10.15,25,14,8.29,4.73,8.45,5.19,25,15,17.03,10.1,19.72,11.3,24,11,7.8-.55,16.18-5.79,20-14,2.49-5.37,2.3-10.41,2-13Z"/><path class="cls-2" d="M501.5,943.5c-.59,4.07-1.18,9.93-1,17,.35,13.42,.52,20.13,5,24,4.9,4.24,9.51,.49,26,5,2.71,.74,5.48,1.51,9,3,11.02,4.67,12.58,9.3,19,12,10.85,4.56,23.19-1.6,28-4,10.52-5.25,8.51-9.31,22-19,13.41-9.63,21.07-9.7,23-17,.79-2.98,.16-5.42-4-16-3.8-9.66-7.26-17.79-10-24-5,.26-12.35,.96-21,3-13.36,3.15-16.62,6.37-29,10-10.22,2.99-18.14,3.66-34,5-8.45,.71-19.68,1.31-33,1Z"/><path class="cls-2" d="M639.5,936.5c-.59-4.14-1.18-8.28-1.77-12.41-.23-.43-.47-1.06-.23-1.59,.98-2.15,8.51,.74,14,0,9.24-1.25,14.74-13.03,18-20,7.72-16.53,6.54-32.8,5-42,2.79-3.89,6.37-8.06,11-12,5.46-4.65,9.42-6.48,20-13,4.15-2.56,8.86-5.56,14-9,2.34,4.44,5.58,10.94,9,19,8.76,20.66,13.13,30.99,12,43-1.7,17.98-13.95,30.01-17,33-14.49,14.22-32.05,16.47-44,18-16.09,2.06-29.96-.21-40-3Z"/><path class="cls-5" d="M547,1011c-3.67-4.33-7.33-8.67-11-13-6.39,9.75-13.14,16.09-18,20-6.98,5.61-10.3,6.36-13,6-6.3-.85-9.65-7.82-11-7-1.39,.84,2.82,7.84,4,17,1.1,8.56-.91,15.33-2,19-3.71,12.48-9.16,11.89-21,30-9.06,13.87-9.81,20.25-18,24-2.79,1.28-5.83,1.97-12,5-6.4,3.15-10.69,6.13-12,7-10.89,7.23-27.73,9.05-35,10-13.68,1.79-34.2,5.8-67,15,.67,2.64,2.01,6.16,5,9,4.69,4.46,8.47,2.55,11,6,3.99,5.44-3.18,13.31,1,21,1.4,2.58,3.53,4.13,5,5,4.71-4.38,12.34-10.49,23-15,14.54-6.15,18.6-2.48,30-9,10.16-5.81,10.47-10.74,25-19,4.24-2.41,9.32-4.89,16-5,4.68-.08,8.51,1.04,11,2,.16-1.46,.6-3.73,2-6,2.22-3.6,6.19-6.16,23-10,3.74-.86,8.85-1.94,15-3-.97-.92-2.38-2.29-4-4-5.24-5.53-7.85-8.29-8-11-.18-3.39,2.94-6.07,8-10,10.15-7.89,15.23-11.83,21-15,7.83-4.3,18.57-9.68,32-15-3.16-.72-7.63-1.74-13-3-6.83-1.6-8.78-2.11-10-4-2.32-3.61,.1-8.99,1-11,1.92-4.28,3.73-4.52,7-9,3.92-5.37,3.22-7.64,7-15,1.5-2.92,3.98-7.19,8-12Z"/><path class="cls-8" d="M465,1044c-7.9,1.14-27.1,2.81-48-7-28-13.14-39.28-37.61-42-44h12c-3.67-14-7.33-28-11-42,6.5-.89,16.32-1.62,28,0,12.62,1.75,38.85,5.39,55,27,15.94,21.33,12.1,46.84,11,53l-48-42c14.33,18.33,28.67,36.67,43,55Z"/><path class="cls-8" d="M574,1067c.11-6.74,1.13-16.96,6-28,10.47-23.76,31.32-34.48,44-41,32.11-16.51,63.57-14.94,79-13l-9,9c12.13-2.22,21.55-1.31,28,0,12.68,2.57,18.77,7.6,34,10,7.5,1.18,13.8,1.19,18,1-2.67,7.48-6.73,16.54-13,26-11.32,17.09-24.76,27.83-34,34,2,2.67,4,5.33,6,8-2.55,1.54-6.41,3.93-11,7-15.72,10.49-24.54,18.55-29,22-24.1,18.65-61.72,11.83-66,11-26.26-5.09-43.16-20.13-50-27,28.33-12.67,56.67-25.33,85-38-29.33,6.33-58.67,12.67-88,19Z"/><path class="cls-8" d="M505,1132c9.95-7.9,11.42-13.82,17-19,9.37-8.7,22.87-8.33,35-8,14.98,.41,26.76,5.21,34,9-3.33,3-6.67,6-10,9,4.27-.28,10.6-.08,17,3,8.98,4.32,12,11.34,22,23,3.7,4.31,9.3,10.36,17,17-3.6,2.09-8.72,4.93-15,8-5.93,2.9-13.78,6.74-21,9-6.86,2.15-18.65,4.61-35,2,1.67,2.67,3.33,5.33,5,8-3.46-.9-8.67-1.95-15-2-13.88-.11-18.21,4.7-29,5-11.35,.32-19.8-4.62-29-10-10.69-6.25-23.13-13.52-23-24,.09-7.02,5.78-12.42,9-15,24.67,1.33,49.33,2.67,74,4-20.67-4.33-41.33-8.67-62-13,2.15-1.19,5.4-3.14,9-6Z"/></g></svg>