<?xml version="1.0" encoding="UTF-8"?><svg xmlns="http://www.w3.org/2000/svg" viewBox="0 0 1080 1944"><defs><style>.cls-1{fill:#fff;}.cls-2{fill:#f6ef84;}.cls-3{fill:#3f3730;}.cls-4{fill:#4c5fa9;}.cls-5{fill:#bad6eb;}.cls-6{fill:#c8c0de;}.cls-7{fill:#b1d4f0;}</style></defs><g id="_배경"><g><rect class="cls-5" width="1080" height="1944"/><rect class="cls-1" x="74.84" y="186.39" width="930.33" height="1606.64" rx="65.21" ry="65.21"/><g><path class="cls-3" d="M321.59,1646.47c1.52,0,2.29,.49,2.29,1.46l-1.41,7.79-.29,14.47c-.2,4.73-.92,9.08-2.17,13.07-1.13,3.71-2.72,7.09-4.75,10.14-1.84,2.81-4.04,5.29-6.62,7.44-2.38,1.99-5,3.67-7.85,5.04-2.66,1.25-5.45,2.19-8.38,2.81-2.7,.62-5.41,.94-8.14,.94-6.37,0-11.36-1.38-14.97-4.13-3.61-2.75-5.42-5.42-5.42-8,0-1.48,1.34-3.4,4.01-5.74,2.67-2.34,4.7-3.52,6.06-3.52,1.68,0,2.52,1.56,2.52,4.69,0,5.08,.83,8.37,2.49,9.87,1.66,1.5,3.88,2.26,6.65,2.26,4.49,0,8.43-1.43,11.81-4.28,3.38-2.85,5.65-6.26,6.83-10.22,1.17-3.96,1.78-9.81,1.82-17.55,.04-7.73,.62-13.06,1.73-15.97,1.11-2.91,3.15-5.4,6.12-7.47,2.97-2.07,5.53-3.11,7.68-3.11Zm21.97-17.99c-1.13,8.4-4.71,12.6-10.72,12.6-2.11,0-6.15-.95-12.13-2.84-5.98-1.89-11.13-2.84-15.47-2.84-5.59,0-10.42,2.07-14.5,6.22-4.08,4.15-6.12,7.77-6.12,10.86s1.88,5.69,5.62,8.04c1.52,.98,2.29,1.86,2.29,2.64,0,1.06-1.08,2.48-3.25,4.28s-3.8,2.7-4.89,2.7c-1.84,0-3.55-1.05-5.16-3.16-1.6-2.11-2.4-4.41-2.4-6.91,0-4.84,1.97-10.13,5.92-15.85,3.95-5.72,9.1-10.39,15.47-14,6.37-3.61,13.05-5.42,20.04-5.42,4.73,0,9.2,.71,13.42,2.14,4.22,1.43,6.86,2.14,7.91,2.14,.94,0,1.74-.27,2.4-.82l.35-.12,1.23,.35Z"/><path class="cls-3" d="M374.97,1695.34c-4.96,4.88-9.41,8.49-13.36,10.81-3.95,2.32-8.3,3.49-13.07,3.49-5.31,0-9.6-1.7-12.86-5.1-3.26-3.4-4.89-7.87-4.89-13.42,0-8.28,2.87-15.77,8.61-22.47,5.74-6.7,12.11-10.05,19.1-10.05,3.63,0,6.54,.94,8.73,2.81,2.19,1.88,3.28,4.34,3.28,7.38,0,8.09-8.59,14.65-25.78,19.69,1.56,7.62,5.64,11.43,12.25,11.43,2.58,0,5.04-.69,7.38-2.08,2.34-1.39,5.88-4.46,10.61-9.23v6.74Zm-30.7-10.84c10-2.81,15-8.01,15-15.59,0-3.75-1.37-5.62-4.1-5.62-2.58,0-5.04,1.96-7.38,5.89s-3.52,9.03-3.52,15.32Z"/><path class="cls-3" d="M461.28,1695.34c-4.88,4.77-9.06,8.34-12.54,10.72-3.48,2.38-6.86,3.57-10.14,3.57-2.58,0-4.62-.89-6.12-2.67-1.5-1.78-2.26-4.17-2.26-7.18,0-4.22,1.05-9.57,3.16-16.05,2.11-6.48,3.16-10.43,3.16-11.84,0-1.25-.64-1.88-1.93-1.88-.39,0-.86,.14-1.41,.41-.59,.27-1.25,.67-1.99,1.17-.74,.55-1.54,1.21-2.4,1.99-.86,.78-1.76,1.68-2.69,2.7-1.02,1.02-2.03,2.13-3.05,3.34-1.72,2.03-2.73,3.73-3.05,5.1l-1.95,8.38-3.54,13.83-14.84,2.69,5.68-24.14c.43-1.76,.94-4.34,1.52-7.73s.88-5.43,.88-6.09c0-1.33-.45-1.99-1.35-1.99-.27,0-.67,.14-1.17,.41-.59,.27-1.25,.68-1.99,1.23-.86,.62-1.78,1.37-2.75,2.23-1.05,.94-2.19,2.01-3.4,3.22-1.29,1.29-2.62,2.72-3.98,4.28-1.88,2.11-3.05,4.57-3.52,7.38-.62,3.36-1.05,6.37-1.29,9.02-.27,2.66-.43,5.62-.47,8.91l-13.01,3.11c-.31-4.49-.47-8.24-.47-11.25,0-7.15,.74-13.37,2.23-18.66,1.48-5.29,3.91-11.47,7.27-18.54l14.18-2.75c-2.54,6.37-4.51,12.52-5.92,18.46,10.51-12.23,18.55-18.34,24.14-18.34,2.03,0,3.68,.83,4.95,2.49,1.27,1.66,1.9,3.84,1.9,6.53,0,1.25-.2,3.55-.59,6.91,6.6-6.6,11.34-10.91,14.21-12.92,2.87-2.01,5.52-3.02,7.94-3.02,2.15,0,3.91,.86,5.28,2.58,1.37,1.72,2.05,3.91,2.05,6.56,0,4.18-1.15,9.55-3.45,16.12-2.3,6.56-3.45,10.9-3.45,13.01s.8,3.28,2.4,3.28c1.01,0,2.43-.67,4.24-2.02,1.81-1.35,4.98-4.44,9.51-9.29v6.74Z"/><path class="cls-3" d="M489.31,1668.56c2.81-3.4,5.46-5.91,7.96-7.53,2.5-1.62,5.27-2.43,8.31-2.43,3.94,0,7.15,1.51,9.63,4.54,2.48,3.03,3.72,7,3.72,11.92,0,8.63-2.98,16.55-8.94,23.76s-12.43,10.81-19.43,10.81c-1.95,0-3.5-.21-4.63-.64-1.13-.43-2.62-1.43-4.45-2.99-2.81,12.38-4.62,22.31-5.44,29.77l-14.88,2.64c2.77-18.28,6.31-36.8,10.61-55.55-5.16,6.76-8.63,10.92-10.43,12.48h-1.35v-5.27c7.42-8.01,13.54-17.73,18.34-29.18l13.25-2.4-2.27,10.08Zm-6.78,31.34c2.03,3.36,4.28,5.04,6.74,5.04,3.95,0,7.44-3,10.47-8.99,3.03-6,4.54-11.84,4.54-17.55,0-3.01-.62-5.44-1.84-7.29-1.23-1.85-2.82-2.78-4.77-2.78-1.52,0-3.12,.68-4.8,2.05-1.68,1.37-2.95,2.96-3.81,4.78-.86,1.82-1.83,4.99-2.93,9.52l-3.6,15.23Z"/><path class="cls-3" d="M566.69,1695.34c-4.96,4.88-9.41,8.49-13.36,10.81-3.95,2.32-8.3,3.49-13.07,3.49-5.31,0-9.6-1.7-12.86-5.1-3.26-3.4-4.89-7.87-4.89-13.42,0-8.28,2.87-15.77,8.61-22.47,5.74-6.7,12.11-10.05,19.1-10.05,3.63,0,6.54,.94,8.73,2.81,2.19,1.88,3.28,4.34,3.28,7.38,0,8.09-8.59,14.65-25.78,19.69,1.56,7.62,5.64,11.43,12.25,11.43,2.58,0,5.04-.69,7.38-2.08,2.34-1.39,5.88-4.46,10.61-9.23v6.74Zm-30.7-10.84c10-2.81,15-8.01,15-15.59,0-3.75-1.37-5.62-4.1-5.62-2.58,0-5.04,1.96-7.38,5.89s-3.52,9.03-3.52,15.32Z"/><path class="cls-3" d="M610.52,1695.34c-9.81,9.61-17.36,14.41-22.68,14.41-2.38,0-4.39-1.01-6.04-3.02s-2.46-4.5-2.46-7.47c0-5.51,2.95-12.89,8.85-22.15-2.89,1.49-6.06,2.52-9.49,3.11-2.54,4.69-6.52,9.73-11.95,15.12h-1.35v-5.27c3.05-3.16,5.8-6.56,8.26-10.2-3.36-1.48-5.04-3.69-5.04-6.62s1.03-6.22,3.08-9.64c2.05-3.42,4.87-5.13,8.47-5.13,3.05,0,4.57,1.56,4.57,4.69,0,2.46-.88,5.98-2.64,10.55,6.48-.7,12.15-5.66,16.99-14.88l5.33-.23-5.45,15c-2.27,6.33-3.73,10.63-4.39,12.92-.67,2.29-1,4.31-1,6.06,0,1.64,.38,2.95,1.14,3.93,.76,.98,1.79,1.46,3.08,1.46,1.41,0,2.75-.48,4.04-1.44,1.29-.96,4.18-3.6,8.67-7.94v6.74Z"/><path class="cls-3" d="M673.09,1695.34c-6.25,5.94-10.72,9.81-13.42,11.6s-5.27,2.7-7.73,2.7c-6.17,0-9.08-5.45-8.73-16.35-3.91,5.59-7.51,9.71-10.81,12.36-3.3,2.66-6.71,3.98-10.22,3.98s-6.36-1.61-8.76-4.83-3.6-7.18-3.6-11.87c0-5.86,1.61-11.45,4.83-16.76,3.22-5.31,7.35-9.61,12.39-12.89s9.49-4.92,13.36-4.92c4.88,0,8.3,2.25,10.25,6.74l11.98-6.62h3.29l-5.17,17.17c-2.66,8.63-3.99,14.55-3.99,17.75s1.19,5.04,3.57,5.04c1.52,0,3.2-.81,5.04-2.43,1.83-1.62,4.41-4.09,7.73-7.41v6.74Zm-42.89,3.22c3.91,0,7.59-3.33,11.04-9.99,3.46-6.66,5.19-12.8,5.19-18.43,0-2.19-.49-3.9-1.46-5.13-.98-1.23-2.29-1.85-3.93-1.85-3.91,0-7.61,3.32-11.1,9.96-3.5,6.64-5.24,12.75-5.24,18.34,0,2.11,.52,3.82,1.55,5.13,1.03,1.31,2.35,1.96,3.96,1.96Z"/><path class="cls-3" d="M730.58,1695.34c-9.02,9.53-16.76,14.3-23.2,14.3-2.62,0-4.73-.92-6.33-2.75-1.6-1.84-2.4-4.3-2.4-7.38,0-4.18,1.72-10.57,5.16-19.16,1.84-4.61,2.75-7.54,2.75-8.79s-.49-1.88-1.46-1.88c-.55,0-1.27,.27-2.17,.82-.82,.55-1.78,1.31-2.87,2.29-.98,.9-2.07,1.99-3.28,3.28-1.05,1.09-2.19,2.34-3.4,3.75l-3.28,3.81c-1.45,1.76-2.34,3.61-2.7,5.57-.59,3.32-.98,6.37-1.17,9.14-.12,2.07-.18,4.86-.18,8.38l-12.95,3.05c-.43-5.27-.64-9.2-.64-11.78,0-6.29,.73-12.25,2.2-17.87s3.82-11.95,7.06-18.98l14.3-2.75c-3.01,8.09-4.98,14.45-5.92,19.1,6.4-7.15,11.48-12.1,15.25-14.85s7.11-4.13,10.03-4.13c1.99,0,3.65,.75,4.97,2.25,1.33,1.5,1.99,3.38,1.99,5.65,0,3.75-1.68,9.92-5.04,18.51-2.3,5.9-3.46,9.73-3.46,11.49,0,2.35,.96,3.53,2.88,3.53,2.86,0,7.48-3.77,13.86-11.31v6.74Z"/><path class="cls-3" d="M774.34,1695.34c-5,4.92-9.58,8.54-13.74,10.84s-8.51,3.46-13.04,3.46c-5.08,0-9.27-1.65-12.57-4.95-3.3-3.3-4.95-7.49-4.95-12.57,0-8.32,3.04-16,9.11-23.06,6.07-7.05,12.65-10.58,19.72-10.58,3.48,0,6.31,.97,8.5,2.9,2.19,1.93,3.28,4.44,3.28,7.53,0,1.09-.21,1.91-.62,2.46-.41,.55-1.18,1.09-2.31,1.64l-6.8,3.22c-.82,.39-1.43,.59-1.82,.59-.55,0-.82-.39-.82-1.17,0-.31,.12-1.34,.35-3.08,.23-1.74,.35-2.8,.35-3.19,0-1.72-.36-3.11-1.08-4.16-.72-1.05-1.69-1.58-2.9-1.58-2.85,0-5.46,2.11-7.82,6.33-2.36,4.22-3.54,9.02-3.54,14.41,0,4.65,1.11,8.36,3.34,11.13,2.23,2.77,5.19,4.16,8.91,4.16,3.16,0,6.14-.91,8.94-2.72,2.79-1.82,5.97-4.6,9.52-8.35v6.74Z"/><path class="cls-3" d="M818.17,1695.34c-4.96,4.88-9.41,8.49-13.36,10.81-3.95,2.32-8.3,3.49-13.07,3.49-5.31,0-9.6-1.7-12.86-5.1-3.26-3.4-4.89-7.87-4.89-13.42,0-8.28,2.87-15.77,8.61-22.47,5.74-6.7,12.11-10.05,19.1-10.05,3.63,0,6.54,.94,8.73,2.81,2.19,1.88,3.28,4.34,3.28,7.38,0,8.09-8.59,14.65-25.78,19.69,1.56,7.62,5.64,11.43,12.25,11.43,2.58,0,5.04-.69,7.38-2.08,2.34-1.39,5.88-4.46,10.61-9.23v6.74Zm-30.7-10.84c10-2.81,15-8.01,15-15.59,0-3.75-1.37-5.62-4.1-5.62-2.58,0-5.04,1.96-7.38,5.89s-3.52,9.03-3.52,15.32Z"/></g><g><path class="cls-1" d="M353.98,142.06c-5.24,5.58-10.05,8.37-14.42,8.37-2.42,0-4.33-.85-5.74-2.56-1.41-1.71-2.2-4.15-2.36-7.31-2.76,3.35-5.2,5.83-7.33,7.45-2.13,1.62-4.4,2.43-6.82,2.43-3.1,0-5.59-1.34-7.47-4.02-1.88-2.68-2.82-6.25-2.82-10.71,0-5.33,1.23-10.83,3.69-16.49s6.11-10.13,10.94-13.42c4.83-3.28,10.69-4.92,17.57-4.92,5.15,0,9.81,.7,13.98,2.09v2.26c-3.4,3.96-6.24,9.51-8.53,16.64-2.29,7.13-3.44,12.57-3.44,16.3,0,1.82,.37,3.24,1.11,4.24,.74,1,1.77,1.5,3.09,1.5,2.37,0,5.22-1.93,8.54-5.78v3.93Zm-9.95-36.85c-2.1-1.14-4.35-1.71-6.77-1.71-3.81,0-7.24,1.59-10.29,4.77-3.05,3.18-5.46,7.39-7.23,12.63-1.77,5.24-2.65,9.79-2.65,13.64,0,2.57,.5,4.67,1.49,6.27,.99,1.61,2.26,2.41,3.81,2.41,2.69,0,5.78-2.45,9.26-7.35,1.44-12.85,5.56-23.07,12.37-30.66Z"/><path class="cls-1" d="M379.51,142.03c-5.72,5.61-10.13,8.41-13.23,8.41-1.39,0-2.56-.59-3.52-1.76s-1.44-2.63-1.44-4.36c0-3.21,1.72-7.52,5.16-12.92-1.69,.87-3.53,1.47-5.54,1.81-1.48,2.73-3.81,5.67-6.97,8.82h-.79v-3.08c1.78-1.85,3.38-3.83,4.82-5.95-1.96-.87-2.94-2.15-2.94-3.86s.6-3.63,1.79-5.62c1.2-1.99,2.84-2.99,4.94-2.99,1.78,0,2.67,.91,2.67,2.73,0,1.44-.51,3.49-1.54,6.15,3.78-.41,7.09-3.3,9.91-8.68l3.11-.14-3.18,8.75c-1.32,3.69-2.18,6.2-2.56,7.54-.39,1.33-.58,2.51-.58,3.54,0,.96,.22,1.72,.67,2.29,.44,.57,1.04,.86,1.79,.86,.82,0,1.61-.28,2.36-.84s2.44-2.1,5.06-4.63v3.93Z"/><path class="cls-1" d="M405.08,142.03c-2.92,2.87-5.59,4.98-8.02,6.32-2.43,1.34-4.96,2.02-7.6,2.02-2.96,0-5.41-.96-7.33-2.89-1.93-1.92-2.89-4.37-2.89-7.33,0-4.85,1.77-9.34,5.31-13.45,3.54-4.11,7.38-6.17,11.5-6.17,2.03,0,3.68,.56,4.96,1.69,1.28,1.13,1.91,2.59,1.91,4.39,0,.64-.12,1.12-.36,1.44-.24,.32-.69,.64-1.35,.96l-3.96,1.88c-.48,.23-.83,.34-1.06,.34-.32,0-.48-.23-.48-.68,0-.18,.07-.78,.21-1.79,.14-1.01,.21-1.63,.21-1.86,0-1-.21-1.81-.63-2.43s-.99-.92-1.69-.92c-1.66,0-3.18,1.23-4.56,3.69-1.38,2.46-2.07,5.26-2.07,8.41,0,2.71,.65,4.88,1.95,6.49,1.3,1.62,3.03,2.43,5.2,2.43,1.85,0,3.58-.53,5.21-1.59s3.48-2.68,5.55-4.87v3.93Z"/><path class="cls-1" d="M441.58,142.03c-3.65,3.46-6.25,5.72-7.83,6.77-1.57,1.05-3.08,1.57-4.51,1.57-3.6,0-5.3-3.18-5.09-9.54-2.28,3.26-4.38,5.66-6.31,7.21-1.93,1.55-3.91,2.32-5.96,2.32s-3.71-.94-5.11-2.82c-1.4-1.88-2.1-4.19-2.1-6.92,0-3.42,.94-6.68,2.82-9.78,1.88-3.1,4.29-5.61,7.23-7.52s5.54-2.87,7.79-2.87c2.85,0,4.84,1.31,5.98,3.93l6.99-3.86h1.92l-3.01,10.01c-1.55,5.04-2.33,8.49-2.33,10.36,0,1.96,.69,2.94,2.08,2.94,.89,0,1.87-.47,2.94-1.42,1.07-.95,2.57-2.39,4.51-4.32v3.93Zm-25.02,1.88c2.28,0,4.43-1.94,6.44-5.83,2.02-3.88,3.02-7.47,3.02-10.75,0-1.28-.29-2.27-.85-2.99-.57-.72-1.33-1.08-2.29-1.08-2.28,0-4.44,1.94-6.48,5.81-2.04,3.87-3.06,7.44-3.06,10.7,0,1.23,.3,2.23,.91,2.99,.6,.76,1.37,1.15,2.31,1.15Z"/><path class="cls-1" d="M475.11,142.03c-5.26,5.56-9.78,8.34-13.54,8.34-1.53,0-2.76-.54-3.69-1.61-.93-1.07-1.4-2.51-1.4-4.31,0-2.44,1-6.16,3.01-11.18,1.07-2.69,1.61-4.4,1.61-5.13s-.29-1.09-.85-1.09c-.32,0-.74,.16-1.26,.48-.48,.32-1.04,.76-1.67,1.33-.57,.52-1.21,1.16-1.91,1.91-.62,.64-1.28,1.37-1.98,2.19l-1.91,2.22c-.84,1.03-1.37,2.11-1.57,3.25-.34,1.94-.57,3.71-.68,5.33-.07,1.21-.1,2.84-.1,4.89l-7.55,1.78c-.25-3.08-.38-5.37-.38-6.87,0-3.67,.43-7.14,1.28-10.43,.86-3.28,2.23-6.97,4.12-11.07l8.34-1.61c-1.75,4.72-2.91,8.43-3.45,11.14,3.73-4.17,6.7-7.06,8.89-8.67,2.19-1.61,4.15-2.41,5.85-2.41,1.16,0,2.13,.44,2.9,1.31,.77,.88,1.16,1.97,1.16,3.29,0,2.18-.98,5.78-2.94,10.8-1.34,3.44-2.02,5.68-2.02,6.7,0,1.37,.56,2.06,1.68,2.06,1.67,0,4.36-2.2,8.09-6.6v3.93Z"/><path class="cls-1" d="M500.64,142.03c-2.89,2.85-5.49,4.95-7.79,6.31-2.3,1.36-4.84,2.03-7.62,2.03-3.1,0-5.6-.99-7.5-2.97s-2.85-4.59-2.85-7.83c0-4.83,1.67-9.2,5.02-13.11s7.06-5.86,11.14-5.86c2.12,0,3.82,.55,5.09,1.64,1.28,1.09,1.91,2.53,1.91,4.31,0,4.72-5.01,8.54-15.04,11.48,.91,4.44,3.29,6.66,7.14,6.66,1.5,0,2.94-.4,4.31-1.21s3.43-2.6,6.19-5.38v3.93Zm-17.91-6.32c5.83-1.64,8.75-4.67,8.75-9.09,0-2.19-.8-3.28-2.39-3.28-1.5,0-2.94,1.14-4.31,3.43s-2.05,5.27-2.05,8.94Z"/><path class="cls-1" d="M511.17,122c1.57-.41,3.16-.75,4.75-1.01,1.59-.26,2.55-.39,2.87-.39,.23,0,.34,.09,.34,.27,0,.34-.09,.69-.27,1.06-.37,1.05-.55,2.05-.55,3.01,0,1.18,.69,2.8,2.05,4.85s2.05,3.96,2.05,5.71c0,3.49-1.67,6.85-5.01,10.08-3.34,3.24-6.8,4.85-10.37,4.85-1.55,0-2.96-.41-4.24-1.23-1.28-.82-1.91-1.7-1.91-2.63,0-.55,.63-1.58,1.9-3.11,1.26-1.53,2.17-2.29,2.72-2.29,.73,0,1.38,.93,1.95,2.8,.57,1.87,1.55,2.8,2.94,2.8s2.69-.64,3.91-1.93,1.83-2.67,1.83-4.15c0-1.44-.77-3.35-2.32-5.74s-2.58-4.4-3.08-6.01c-2.64,4.26-5.99,8.62-10.05,13.09h-.79v-3.08c5.58-5.95,9.34-11.6,11.28-16.95Z"/><path class="cls-1" d="M596.89,142.03c-2.85,2.78-5.29,4.87-7.31,6.26-2.03,1.39-4,2.08-5.91,2.08-1.5,0-2.7-.52-3.57-1.55s-1.32-2.43-1.32-4.19c0-2.46,.62-5.58,1.85-9.37,1.23-3.78,1.85-6.08,1.85-6.9,0-.73-.38-1.09-1.13-1.09-.23,0-.5,.08-.82,.24-.34,.16-.73,.39-1.16,.68-.43,.32-.9,.71-1.4,1.16-.5,.46-1.03,.98-1.57,1.57-.59,.59-1.18,1.24-1.78,1.95-1,1.18-1.59,2.18-1.78,2.97l-1.14,4.89-2.07,8.07-8.66,1.57,3.32-14.08c.25-1.03,.55-2.53,.89-4.51s.51-3.17,.51-3.55c0-.77-.26-1.16-.79-1.16-.16,0-.39,.08-.68,.24-.34,.16-.73,.4-1.16,.72-.5,.37-1.04,.8-1.61,1.3-.62,.55-1.28,1.17-1.98,1.88-.75,.75-1.53,1.58-2.32,2.49-1.09,1.23-1.78,2.67-2.05,4.31-.37,1.96-.62,3.71-.75,5.26-.16,1.55-.25,3.28-.27,5.2l-7.59,1.81c-.18-2.62-.27-4.81-.27-6.56,0-4.17,.43-7.8,1.3-10.89,.87-3.09,2.28-6.69,4.24-10.82l8.27-1.61c-1.48,3.71-2.63,7.3-3.45,10.77,6.13-7.13,10.82-10.7,14.08-10.7,1.18,0,2.15,.48,2.89,1.45,.74,.97,1.11,2.24,1.11,3.81,0,.73-.11,2.07-.34,4.03,3.85-3.85,6.62-6.36,8.29-7.54,1.67-1.17,3.22-1.76,4.63-1.76,1.25,0,2.28,.5,3.08,1.5s1.2,2.28,1.2,3.83c0,2.44-.67,5.57-2.01,9.4-1.34,3.83-2.01,6.36-2.01,7.59s.47,1.91,1.4,1.91c.59,0,1.42-.39,2.47-1.18,1.06-.79,2.91-2.59,5.54-5.42v3.93Z"/><path class="cls-1" d="M633.4,142.03c-3.65,3.46-6.25,5.72-7.83,6.77-1.57,1.05-3.08,1.57-4.51,1.57-3.6,0-5.3-3.18-5.09-9.54-2.28,3.26-4.38,5.66-6.31,7.21-1.93,1.55-3.91,2.32-5.96,2.32s-3.71-.94-5.11-2.82c-1.4-1.88-2.1-4.19-2.1-6.92,0-3.42,.94-6.68,2.82-9.78,1.88-3.1,4.29-5.61,7.23-7.52s5.54-2.87,7.79-2.87c2.85,0,4.84,1.31,5.98,3.93l6.99-3.86h1.92l-3.01,10.01c-1.55,5.04-2.33,8.49-2.33,10.36,0,1.96,.69,2.94,2.08,2.94,.89,0,1.87-.47,2.94-1.42,1.07-.95,2.57-2.39,4.51-4.32v3.93Zm-25.02,1.88c2.28,0,4.43-1.94,6.44-5.83,2.02-3.88,3.02-7.47,3.02-10.75,0-1.28-.29-2.27-.85-2.99-.57-.72-1.33-1.08-2.29-1.08-2.28,0-4.44,1.94-6.48,5.81-2.04,3.87-3.06,7.44-3.06,10.7,0,1.23,.3,2.23,.91,2.99,.6,.76,1.37,1.15,2.31,1.15Z"/><path class="cls-1" d="M658.93,142.03c-2.15,2.16-4.81,4.1-7.99,5.81-.83,6.22-2.41,11-4.75,14.32-2.34,3.33-4.72,4.99-7.16,4.99-1.53,0-2.83-.63-3.9-1.9-1.07-1.26-1.61-2.82-1.61-4.67,0-4.47,3.01-8.23,9.02-11.28l2.53-20.58c-4.74,5.92-8.64,10.36-11.69,13.29h-.79v-3.08c3.03-2.89,7.11-7.68,12.24-14.36l2.12-2.73c2.39-.27,5.07-.72,8.03-1.33-1,5.42-2.19,13.43-3.55,24.03,2.1-1.05,4.57-3.18,7.41-6.39l.07,3.86Zm-16.6,10.42c-1.91,.89-3.41,2.09-4.51,3.61s-1.65,3.07-1.65,4.67c0,1.03,.24,1.9,.72,2.62s1.04,1.08,1.67,1.08c1.57,0,2.6-2.01,3.08-6.02l.69-5.95Zm15.85-45.29c-.43,5.56-2.75,8.34-6.94,8.34-1.96,0-3.69-.66-5.2-1.98,1.98-2.53,3.16-4.72,3.52-6.56,1.82,1.12,3.34,1.68,4.55,1.68,1.37,0,2.72-.49,4.07-1.47Z"/><path class="cls-1" d="M684.49,142.03c-2.89,2.85-5.49,4.95-7.79,6.31-2.3,1.36-4.84,2.03-7.62,2.03-3.1,0-5.6-.99-7.5-2.97s-2.85-4.59-2.85-7.83c0-4.83,1.67-9.2,5.02-13.11s7.06-5.86,11.14-5.86c2.12,0,3.82,.55,5.09,1.64,1.28,1.09,1.91,2.53,1.91,4.31,0,4.72-5.01,8.54-15.04,11.48,.91,4.44,3.29,6.66,7.14,6.66,1.5,0,2.94-.4,4.31-1.21s3.43-2.6,6.19-5.38v3.93Zm-17.91-6.32c5.83-1.64,8.75-4.67,8.75-9.09,0-2.19-.8-3.28-2.39-3.28-1.5,0-2.94,1.14-4.31,3.43s-2.05,5.27-2.05,8.94Z"/><path class="cls-1" d="M721,142.03c-3.01,2.85-5.53,4.95-7.55,6.31-2.03,1.36-3.85,2.03-5.47,2.03-1.8,0-3.18-.72-4.15-2.15s-1.45-3.38-1.45-5.85c-2.51,2.76-4.75,4.79-6.73,6.1s-3.92,1.96-5.81,1.96c-1.73,0-3.12-.72-4.17-2.15-1.05-1.44-1.57-3.38-1.57-5.85,0-4.74,1.59-11.42,4.79-20.03l9.13-1.82c-3.75,10.92-5.63,17.93-5.64,21.03,0,2.19,.82,3.28,2.46,3.28,1.18,0,2.65-.96,4.41-2.89,1.75-1.92,2.85-3.61,3.28-5.04l4.48-14.56,9.3-1.88c-2.15,6.86-3.62,11.68-4.42,14.46-.8,2.78-1.2,4.73-1.2,5.85,0,2.14,.73,3.21,2.19,3.21,1.19,0,2.94-1.08,5.27-3.25l2.87-2.7v3.93Z"/><path class="cls-1" d="M746.53,142.03c-5.72,5.61-10.13,8.41-13.23,8.41-1.39,0-2.56-.59-3.52-1.76s-1.44-2.63-1.44-4.36c0-3.21,1.72-7.52,5.16-12.92-1.69,.87-3.53,1.47-5.54,1.81-1.48,2.73-3.81,5.67-6.97,8.82h-.79v-3.08c1.78-1.85,3.38-3.83,4.82-5.95-1.96-.87-2.94-2.15-2.94-3.86s.6-3.63,1.79-5.62c1.2-1.99,2.84-2.99,4.94-2.99,1.78,0,2.67,.91,2.67,2.73,0,1.44-.51,3.49-1.54,6.15,3.78-.41,7.09-3.3,9.91-8.68l3.11-.14-3.18,8.75c-1.32,3.69-2.18,6.2-2.56,7.54-.39,1.33-.58,2.51-.58,3.54,0,.96,.22,1.72,.67,2.29,.44,.57,1.04,.86,1.79,.86,.82,0,1.61-.28,2.36-.84s2.44-2.1,5.06-4.63v3.93Z"/><path class="cls-1" d="M757.06,122c1.57-.41,3.16-.75,4.75-1.01,1.59-.26,2.55-.39,2.87-.39,.23,0,.34,.09,.34,.27,0,.34-.09,.69-.27,1.06-.37,1.05-.55,2.05-.55,3.01,0,1.18,.69,2.8,2.05,4.85s2.05,3.96,2.05,5.71c0,3.49-1.67,6.85-5.01,10.08-3.34,3.24-6.8,4.85-10.37,4.85-1.55,0-2.96-.41-4.24-1.23-1.28-.82-1.91-1.7-1.91-2.63,0-.55,.63-1.58,1.9-3.11,1.26-1.53,2.17-2.29,2.72-2.29,.73,0,1.38,.93,1.95,2.8,.57,1.87,1.55,2.8,2.94,2.8s2.69-.64,3.91-1.93,1.83-2.67,1.83-4.15c0-1.44-.77-3.35-2.32-5.74s-2.58-4.4-3.08-6.01c-2.64,4.26-5.99,8.62-10.05,13.09h-.79v-3.08c5.58-5.95,9.34-11.6,11.28-16.95Z"/></g></g></g><g id="_반짝이"><polygon class="cls-6" points="381.57 982.53 392.25 1023.96 426.63 1032.47 392.25 1041.81 381.57 1084 370.32 1041.81 336.51 1032.47 370.32 1023.96 381.57 982.53"/><polygon class="cls-7" points="482.09 1128.01 489.35 1156.18 512.72 1161.97 489.35 1168.31 482.09 1197 474.44 1168.31 451.45 1161.97 474.44 1156.18 482.09 1128.01"/><circle class="cls-7" cx="303" cy="939" r="15"/><circle class="cls-6" cx="307.5" cy="882.5" r="6.5"/><circle class="cls-6" cx="795" cy="795" r="16"/><circle class="cls-6" cx="851" cy="1085" r="10"/><circle class="cls-7" cx="845" cy="858" r="7"/><circle class="cls-7" cx="343.5" cy="1118.5" r="11.5"/><circle class="cls-6" cx="263.5" cy="1192.5" r="6.5"/></g><g id="_절제"><path class="cls-5" d="M468.59,807.87c25.35,1.53,56.52,6.49,89.99,19.38,101.72,39.18,152.2,123.73,168.88,155.13-30.96,11.92-73.39,22.06-121.21,14.42-6.01-.96-11.8-2.15-17.37-3.53-.24-11.48-1.8-27.93-8-46.49-4.58-13.7-17.6-46.24-48.26-71.13-39.95-32.44-82.06-29.33-83.24-46.05-.35-4.93,2.82-12.14,19.21-21.72Z"/><g><polygon class="cls-4" points="724.2 1115 604.81 1115 556.88 984 773.87 984 724.2 1115"/><rect class="cls-4" x="652.87" y="1097" width="27.13" height="35"/><path class="cls-4" d="M727,1244c-9.43-1.04-23.07-2.71-36-12-6.12-4.39-11.28-8.1-14-15-2.36-6-1.18-10.12-3-24-.67-5.14-1.45-9.31-2-12v-9.02c-2.33,1.5-4.67,3.01-7,4.51-2.33-1.5-4.67-3.01-7-4.51v9.02c-.55,2.69-1.33,6.86-2,12-1.82,13.88-.64,18-3,24-2.72,6.9-7.88,10.61-14,15-12.93,9.29-26.57,10.96-36,12-8.82,.98-16.38,.62-22,0v15h168v-15c-5.62,.62-13.18,.98-22,0Z"/><circle class="cls-4" cx="665" cy="1156" r="23"/><rect class="cls-4" x="645.88" y="1126" width="39.12" height="13" rx="6.5" ry="6.5"/><rect class="cls-4" x="645.88" y="1173" width="39.12" height="13" rx="6.5" ry="6.5"/><polygon class="cls-2" points="667.87 1020.19 672.73 1044.68 685.82 1038.46 679.6 1051.55 707.63 1056.41 679.6 1061.27 685.82 1074.36 672.73 1068.13 667.87 1094 663.02 1068.13 649.93 1074.36 656.15 1061.27 630.08 1056.41 656.15 1051.55 649.93 1038.46 663.02 1044.68 667.87 1020.19"/><rect class="cls-3" x="555" y="967" width="221" height="19"/></g><g><polygon class="cls-4" points="356.18 797.5 397.9 685.64 537.39 686.51 461.56 889.83 356.18 797.5"/><rect class="cls-4" x="363.27" y="726.06" width="27.13" height="35" transform="translate(1205.2 650.34) rotate(110.46)"/><path class="cls-4" d="M234.33,755.04c4.27-8.47,10.6-20.66,23.82-29.54,6.26-4.2,11.53-7.74,18.95-7.88,6.44-.12,9.9,2.43,23.54,5.58,5.05,1.17,9.23,1.89,11.94,2.32,2.82,1.05,5.64,2.1,8.45,3.15-.59-2.71-1.19-5.42-1.78-8.14,2.22-1.66,4.45-3.32,6.67-4.98-2.82-1.05-5.64-2.1-8.45-3.15-2.33-1.45-5.97-3.64-10.54-6.07-12.37-6.55-16.64-6.89-21.44-11.2-5.52-4.96-7.18-11.09-9.16-18.36-4.18-15.36-.98-28.73,1.34-37.92,2.17-8.61,5.15-15.57,7.69-20.61-4.68-1.75-9.37-3.49-14.05-5.24-8.97,24.05-17.94,48.1-26.91,72.14-1.63,4.37-3.26,8.74-4.89,13.12-8.97,24.05-17.94,48.1-26.91,72.14l14.05,5.24c1.38-5.48,3.69-12.69,7.69-20.61Z"/><circle class="cls-4" cx="338.45" cy="727.71" r="23"/><rect class="cls-4" x="340.76" y="729.83" width="39.12" height="13" rx="6.5" ry="6.5" transform="translate(1176.14 656.06) rotate(110.46)"/><rect class="cls-4" x="296.72" y="713.4" width="39.12" height="13" rx="6.5" ry="6.5" transform="translate(1101.33 675.16) rotate(110.46)"/><polygon class="cls-2" points="464.69 777.86 440.05 773.85 441.3 788.29 431.21 777.89 416.86 802.46 422.11 774.49 407.67 775.75 418.08 765.66 395.54 752.07 421.47 756.56 420.22 742.12 430.31 752.52 443.97 729.79 439.41 755.92 453.85 754.66 443.44 764.75 464.69 777.86"/><rect class="cls-3" x="395.96" y="781.41" width="221" height="19" transform="translate(1424.49 592.79) rotate(110.46)"/></g><polygon class="cls-2" points="705.88 513 720.8 635.49 761.02 616.37 741.9 656.59 828.04 671.51 741.9 686.43 761.02 726.65 720.8 707.53 705.88 837 690.96 707.53 650.74 726.65 669.86 686.43 589.77 671.51 669.86 656.59 650.74 616.37 690.96 635.49 705.88 513"/></g></svg>