<?xml version="1.0" encoding="UTF-8"?><svg xmlns="http://www.w3.org/2000/svg" viewBox="0 0 1080 1944"><defs><style>.cls-1{fill:#fff;}.cls-2{stroke:#3f3730;stroke-miterlimit:10;stroke-width:5px;}.cls-2,.cls-3{fill:#3f3730;}.cls-4{fill:#f6ef84;}.cls-5{fill:#4c5fa9;}.cls-6{fill:#bad6eb;}.cls-7{fill:#c8c0de;}.cls-8{fill:#b1d4f0;}</style></defs><g id="_배경_텍스트"><g><rect class="cls-6" width="1080" height="1944"/><rect class="cls-1" x="74.84" y="186.39" width="930.33" height="1606.64" rx="65.21" ry="65.21"/><path class="cls-2" d="M510.72,1669.57c0,1.92,.2,3.46,.6,4.62,.4,1.16,.98,2.04,1.74,2.64,.76,.6,1.72,1.02,2.88,1.26,1.16,.24,2.5,.44,4.02,.6,.56,.08,.96,.3,1.2,.66,.24,.36,.36,.74,.36,1.14s-.14,.78-.42,1.14c-.28,.36-.74,.54-1.38,.54h-26.52c-.64,0-1.1-.18-1.38-.54-.28-.36-.42-.74-.42-1.14s.12-.78,.36-1.14c.24-.36,.64-.58,1.2-.66,1.52-.16,2.84-.36,3.96-.6,1.12-.24,2.08-.66,2.88-1.26,.8-.6,1.4-1.48,1.8-2.64,.4-1.16,.6-2.7,.6-4.62v-60.72c0-1.92-.2-3.46-.6-4.62-.4-1.16-1-2.04-1.8-2.64-.8-.6-1.76-1.02-2.88-1.26-1.12-.24-2.44-.44-3.96-.6-.56-.08-.96-.3-1.2-.66-.24-.36-.36-.74-.36-1.14s.14-.78,.42-1.14c.28-.36,.74-.54,1.38-.54h26.52c.64,0,1.1,.18,1.38,.54,.28,.36,.42,.74,.42,1.14s-.12,.78-.36,1.14c-.24,.36-.64,.58-1.2,.66-1.52,.16-2.86,.36-4.02,.6-1.16,.24-2.12,.66-2.88,1.26-.76,.6-1.34,1.48-1.74,2.64-.4,1.16-.6,2.7-.6,4.62v60.72Zm33.6,0c0,1.92,.2,3.46,.6,4.62,.4,1.16,.98,2.04,1.74,2.64,.76,.6,1.72,1.02,2.88,1.26,1.16,.24,2.5,.44,4.02,.6,.56,.08,.96,.3,1.2,.66,.24,.36,.36,.74,.36,1.14s-.14,.78-.42,1.14c-.28,.36-.74,.54-1.38,.54h-26.52c-.64,0-1.1-.18-1.38-.54-.28-.36-.42-.74-.42-1.14s.12-.78,.36-1.14c.24-.36,.64-.58,1.2-.66,1.52-.16,2.84-.36,3.96-.6,1.12-.24,2.08-.66,2.88-1.26,.8-.6,1.4-1.48,1.8-2.64,.4-1.16,.6-2.7,.6-4.62v-60.72c0-1.92-.2-3.46-.6-4.62-.4-1.16-1-2.04-1.8-2.64-.8-.6-1.76-1.02-2.88-1.26-1.12-.24-2.44-.44-3.96-.6-.56-.08-.96-.3-1.2-.66-.24-.36-.36-.74-.36-1.14s.14-.78,.42-1.14c.28-.36,.74-.54,1.38-.54h26.52c.64,0,1.1,.18,1.38,.54,.28,.36,.42,.74,.42,1.14s-.12,.78-.36,1.14c-.24,.36-.64,.58-1.2,.66-1.52,.16-2.86,.36-4.02,.6-1.16,.24-2.12,.66-2.88,1.26-.76,.6-1.34,1.48-1.74,2.64-.4,1.16-.6,2.7-.6,4.62v60.72Zm33.36,0c0,1.92,.2,3.46,.6,4.62,.4,1.16,.98,2.04,1.74,2.64,.76,.6,1.72,1.02,2.88,1.26,1.16,.24,2.5,.44,4.02,.6,.56,.08,.96,.3,1.2,.66,.24,.36,.36,.74,.36,1.14s-.14,.78-.42,1.14c-.28,.36-.74,.54-1.38,.54h-26.52c-.64,0-1.1-.18-1.38-.54-.28-.36-.42-.74-.42-1.14s.12-.78,.36-1.14c.24-.36,.64-.58,1.2-.66,1.52-.16,2.84-.36,3.96-.6,1.12-.24,2.08-.66,2.88-1.26,.8-.6,1.4-1.48,1.8-2.64,.4-1.16,.6-2.7,.6-4.62v-60.72c0-1.92-.2-3.46-.6-4.62-.4-1.16-1-2.04-1.8-2.64-.8-.6-1.76-1.02-2.88-1.26-1.12-.24-2.44-.44-3.96-.6-.56-.08-.96-.3-1.2-.66-.24-.36-.36-.74-.36-1.14s.14-.78,.42-1.14c.28-.36,.74-.54,1.38-.54h26.52c.64,0,1.1,.18,1.38,.54,.28,.36,.42,.74,.42,1.14s-.12,.78-.36,1.14c-.24,.36-.64,.58-1.2,.66-1.52,.16-2.86,.36-4.02,.6-1.16,.24-2.12,.66-2.88,1.26-.76,.6-1.34,1.48-1.74,2.64-.4,1.16-.6,2.7-.6,4.62v60.72Z"/><g><path class="cls-1" d="M410.88,142.03c-5.1,5.49-9.75,8.24-13.95,8.24-2.55,0-4.5-1.23-5.83-3.69-1.33-2.46-2-5.75-2-9.88,0-3.19,.65-7.58,1.96-13.16,1.31-5.58,3-10.28,5.08-14.08l1.98-3.55c-2.71,2.83-4.93,5.92-6.67,9.28-1.73,3.36-3.8,8.06-6.2,14.1-2.4,6.04-4.22,10.15-5.45,12.34s-2.41,3.97-3.54,5.35c-1.13,1.38-2.13,2.27-3.01,2.68-.88,.41-2.41,.62-4.6,.62-.84,0-1.26-.23-1.26-.68,0-.05,.15-.76,.45-2.15,.3-1.39,.61-3.62,.92-6.68s.54-8.27,.68-15.62,1.21-13.64,3.21-18.88c-2.14,2.44-4.33,8.11-6.57,17.02l-.86,3.35c-2.35,9.27-5.04,15.53-8.08,18.78-3.03,3.25-6.01,4.87-8.93,4.87-1.8,0-3.39-.57-4.76-1.71-1.37-1.14-2.05-2.45-2.05-3.93,0-1.14,.82-2.41,2.46-3.83,1.64-1.41,2.68-2.12,3.11-2.12,.5,0,.83,.17,.99,.51,.16,.34,.37,1.28,.62,2.82s.63,2.54,1.15,3.01c.51,.47,1.16,.7,1.94,.7,1.76,0,3.7-1.76,5.83-5.28s4.07-8.96,5.83-16.32l.99-4.13c.8-3.37,1.59-6.06,2.37-8.07,.78-2.01,1.8-4.01,3.08-6.02,1.85-2.87,2.99-4.4,3.41-4.6,.42-.19,1.21-.35,2.38-.48s2.32-.19,3.49-.19c.46,0,.68,.26,.68,.79,0,.25-.07,.76-.21,1.54-.45,3.19-.66,6.39-.64,9.6l.07,9.16c.04,7.98-.59,14.41-1.91,19.31,1.21-1.46,2.96-5.22,5.26-11.28,3.33-8.59,6.36-15.04,9.09-19.35,1.3-2.07,2.87-4.06,4.7-5.96,1.83-1.9,3.1-2.92,3.81-3.06,2.42-.46,4.45-.68,6.12-.68,.62,0,.92,.17,.92,.51,0,.48-.38,1.55-1.12,3.21-1.77,4.01-3.43,9.44-4.96,16.27s-2.31,12.28-2.32,16.33c0,4.58,1.4,6.87,4.2,6.87,2.28,0,4.99-1.94,8.13-5.81v3.93Z"/><path class="cls-1" d="M427.66,142.03c-5.33,5.61-9.32,8.41-11.96,8.41-1.46,0-2.69-.75-3.69-2.24-1-1.49-1.5-3.37-1.5-5.62,0-4.85,1.64-11.57,4.92-20.17l8.68-1.81h.41l-3.42,10.7c-1.41,4.42-2.12,7.58-2.12,9.47,0,.75,.17,1.36,.5,1.83,.33,.47,.75,.7,1.25,.7,.89,0,1.78-.33,2.68-.97s2.32-2.06,4.26-4.22v3.93Zm-.68-34.79c0,5.47-2.02,8.2-6.05,8.2-1.96,0-3.63-.59-5.02-1.78,1.32-2,2.35-4.26,3.08-6.77,1.8,1.12,3.25,1.68,4.34,1.68,1.23,0,2.45-.45,3.66-1.33Z"/><path class="cls-1" d="M461.22,142.03c-5.26,5.56-9.78,8.34-13.54,8.34-1.53,0-2.76-.54-3.69-1.61-.93-1.07-1.4-2.51-1.4-4.31,0-2.44,1-6.16,3.01-11.18,1.07-2.69,1.61-4.4,1.61-5.13s-.29-1.09-.85-1.09c-.32,0-.74,.16-1.26,.48-.48,.32-1.04,.76-1.67,1.33-.57,.52-1.21,1.16-1.91,1.91-.62,.64-1.28,1.37-1.98,2.19l-1.91,2.22c-.84,1.03-1.37,2.11-1.57,3.25-.34,1.94-.57,3.71-.68,5.33-.07,1.21-.1,2.84-.1,4.89l-7.55,1.78c-.25-3.08-.38-5.37-.38-6.87,0-3.67,.43-7.14,1.28-10.43,.86-3.28,2.23-6.97,4.12-11.07l8.34-1.61c-1.75,4.72-2.91,8.43-3.45,11.14,3.73-4.17,6.7-7.06,8.89-8.67,2.19-1.61,4.15-2.41,5.85-2.41,1.16,0,2.13,.44,2.9,1.31,.77,.88,1.16,1.97,1.16,3.29,0,2.18-.98,5.78-2.94,10.8-1.34,3.44-2.02,5.68-2.02,6.7,0,1.37,.56,2.06,1.68,2.06,1.67,0,4.36-2.2,8.09-6.6v3.93Z"/><path class="cls-1" d="M491.88,142.03c-1.16,1.03-2.29,1.75-3.38,2.17-1.09,.42-1.96,.63-2.6,.63-1.64,0-3.27-.64-4.89-1.91-3.28,4.97-7.04,7.45-11.28,7.45-2.64,0-4.79-.99-6.43-2.97s-2.46-4.62-2.46-7.9c0-5.2,1.85-9.66,5.54-13.38s8.1-5.59,13.23-5.59c1.94,0,3.35,.21,4.25,.63,.9,.42,1.45,.92,1.66,1.49,.21,.57,.31,1.29,.31,2.15,0,4.26-1.16,9.49-3.49,15.69,1.16,1.07,2.38,1.61,3.66,1.61,1.53,0,3.49-1.33,5.88-4v3.93Zm-11.28-19.11c-.34-.14-.83-.21-1.47-.21-2.96,0-5.28,1.55-6.96,4.65-1.67,3.1-2.51,6.72-2.51,10.87,0,2.3,.36,4.09,1.09,5.37,.73,1.28,1.74,1.91,3.04,1.91,1.62,0,3.37-1.49,5.26-4.48-2.14-2.69-3.21-5.58-3.21-8.68,0-3.65,1.58-6.79,4.75-9.43Z"/><path class="cls-1" d="M517.42,142.03c-5.72,5.61-10.13,8.41-13.23,8.41-1.39,0-2.56-.59-3.52-1.76s-1.44-2.63-1.44-4.36c0-3.21,1.72-7.52,5.16-12.92-1.69,.87-3.53,1.47-5.54,1.81-1.48,2.73-3.81,5.67-6.97,8.82h-.79v-3.08c1.78-1.85,3.38-3.83,4.82-5.95-1.96-.87-2.94-2.15-2.94-3.86s.6-3.63,1.79-5.62c1.2-1.99,2.84-2.99,4.94-2.99,1.78,0,2.67,.91,2.67,2.73,0,1.44-.51,3.49-1.54,6.15,3.78-.41,7.09-3.3,9.91-8.68l3.11-.14-3.18,8.75c-1.32,3.69-2.18,6.2-2.56,7.54-.39,1.33-.58,2.51-.58,3.54,0,.96,.22,1.72,.67,2.29,.44,.57,1.04,.86,1.79,.86,.82,0,1.61-.28,2.36-.84s2.44-2.1,5.06-4.63v3.93Z"/><path class="cls-1" d="M582.32,142.06c-5.24,5.58-10.05,8.37-14.42,8.37-2.42,0-4.33-.85-5.74-2.56-1.41-1.71-2.2-4.15-2.36-7.31-2.76,3.35-5.2,5.83-7.33,7.45-2.13,1.62-4.4,2.43-6.82,2.43-3.1,0-5.59-1.34-7.47-4.02-1.88-2.68-2.82-6.25-2.82-10.71,0-5.33,1.23-10.83,3.69-16.49s6.11-10.13,10.94-13.42c4.83-3.28,10.69-4.92,17.57-4.92,5.15,0,9.81,.7,13.98,2.09v2.26c-3.4,3.96-6.24,9.51-8.53,16.64-2.29,7.13-3.44,12.57-3.44,16.3,0,1.82,.37,3.24,1.11,4.24,.74,1,1.77,1.5,3.09,1.5,2.37,0,5.22-1.93,8.54-5.78v3.93Zm-9.95-36.85c-2.1-1.14-4.35-1.71-6.77-1.71-3.81,0-7.24,1.59-10.29,4.77-3.05,3.18-5.46,7.39-7.23,12.63-1.77,5.24-2.65,9.79-2.65,13.64,0,2.57,.5,4.67,1.49,6.27,.99,1.61,2.26,2.41,3.81,2.41,2.69,0,5.78-2.45,9.26-7.35,1.44-12.85,5.56-23.07,12.37-30.66Z"/><path class="cls-1" d="M607.85,142.03c-5.72,5.61-10.13,8.41-13.23,8.41-1.39,0-2.56-.59-3.52-1.76s-1.44-2.63-1.44-4.36c0-3.21,1.72-7.52,5.16-12.92-1.69,.87-3.53,1.47-5.54,1.81-1.48,2.73-3.81,5.67-6.97,8.82h-.79v-3.08c1.78-1.85,3.38-3.83,4.82-5.95-1.96-.87-2.94-2.15-2.94-3.86s.6-3.63,1.79-5.62c1.2-1.99,2.84-2.99,4.94-2.99,1.78,0,2.67,.91,2.67,2.73,0,1.44-.51,3.49-1.54,6.15,3.78-.41,7.09-3.3,9.91-8.68l3.11-.14-3.18,8.75c-1.32,3.69-2.18,6.2-2.56,7.54-.39,1.33-.58,2.51-.58,3.54,0,.96,.22,1.72,.67,2.29,.44,.57,1.04,.86,1.79,.86,.82,0,1.61-.28,2.36-.84s2.44-2.1,5.06-4.63v3.93Z"/><path class="cls-1" d="M633.42,142.03c-2.92,2.87-5.59,4.98-8.02,6.32-2.43,1.34-4.96,2.02-7.6,2.02-2.96,0-5.41-.96-7.33-2.89-1.93-1.92-2.89-4.37-2.89-7.33,0-4.85,1.77-9.34,5.31-13.45,3.54-4.11,7.38-6.17,11.5-6.17,2.03,0,3.68,.56,4.96,1.69,1.28,1.13,1.91,2.59,1.91,4.39,0,.64-.12,1.12-.36,1.44-.24,.32-.69,.64-1.35,.96l-3.96,1.88c-.48,.23-.83,.34-1.06,.34-.32,0-.48-.23-.48-.68,0-.18,.07-.78,.21-1.79,.14-1.01,.21-1.63,.21-1.86,0-1-.21-1.81-.63-2.43s-.99-.92-1.69-.92c-1.66,0-3.18,1.23-4.56,3.69-1.38,2.46-2.07,5.26-2.07,8.41,0,2.71,.65,4.88,1.95,6.49,1.3,1.62,3.03,2.43,5.2,2.43,1.85,0,3.58-.53,5.21-1.59s3.48-2.68,5.55-4.87v3.93Z"/><path class="cls-1" d="M669.92,142.03c-3.65,3.46-6.25,5.72-7.83,6.77-1.57,1.05-3.08,1.57-4.51,1.57-3.6,0-5.3-3.18-5.09-9.54-2.28,3.26-4.38,5.66-6.31,7.21-1.93,1.55-3.91,2.32-5.96,2.32s-3.71-.94-5.11-2.82c-1.4-1.88-2.1-4.19-2.1-6.92,0-3.42,.94-6.68,2.82-9.78,1.88-3.1,4.29-5.61,7.23-7.52s5.54-2.87,7.79-2.87c2.85,0,4.84,1.31,5.98,3.93l6.99-3.86h1.92l-3.01,10.01c-1.55,5.04-2.33,8.49-2.33,10.36,0,1.96,.69,2.94,2.08,2.94,.89,0,1.87-.47,2.94-1.42,1.07-.95,2.57-2.39,4.51-4.32v3.93Zm-25.02,1.88c2.28,0,4.43-1.94,6.44-5.83,2.02-3.88,3.02-7.47,3.02-10.75,0-1.28-.29-2.27-.85-2.99-.57-.72-1.33-1.08-2.29-1.08-2.28,0-4.44,1.94-6.48,5.81-2.04,3.87-3.06,7.44-3.06,10.7,0,1.23,.3,2.23,.91,2.99,.6,.76,1.37,1.15,2.31,1.15Z"/><path class="cls-1" d="M703.46,142.03c-5.26,5.56-9.78,8.34-13.54,8.34-1.53,0-2.76-.54-3.69-1.61-.93-1.07-1.4-2.51-1.4-4.31,0-2.44,1-6.16,3.01-11.18,1.07-2.69,1.61-4.4,1.61-5.13s-.29-1.09-.85-1.09c-.32,0-.74,.16-1.26,.48-.48,.32-1.04,.76-1.67,1.33-.57,.52-1.21,1.16-1.91,1.91-.62,.64-1.28,1.37-1.98,2.19l-1.91,2.22c-.84,1.03-1.37,2.11-1.57,3.25-.34,1.94-.57,3.71-.68,5.33-.07,1.21-.1,2.84-.1,4.89l-7.55,1.78c-.25-3.08-.38-5.37-.38-6.87,0-3.67,.43-7.14,1.28-10.43,.86-3.28,2.23-6.97,4.12-11.07l8.34-1.61c-1.75,4.72-2.91,8.43-3.45,11.14,3.73-4.17,6.7-7.06,8.89-8.67,2.19-1.61,4.15-2.41,5.85-2.41,1.16,0,2.13,.44,2.9,1.31,.77,.88,1.16,1.97,1.16,3.29,0,2.18-.98,5.78-2.94,10.8-1.34,3.44-2.02,5.68-2.02,6.7,0,1.37,.56,2.06,1.68,2.06,1.67,0,4.36-2.2,8.09-6.6v3.93Z"/><path class="cls-1" d="M739.92,142.03c-3.65,3.46-6.25,5.72-7.83,6.77-1.57,1.05-3.08,1.57-4.51,1.57-3.6,0-5.3-3.18-5.09-9.54-2.28,3.26-4.38,5.66-6.31,7.21-1.93,1.55-3.91,2.32-5.96,2.32s-3.71-.94-5.11-2.82c-1.4-1.88-2.1-4.19-2.1-6.92,0-3.42,.94-6.68,2.82-9.78,1.88-3.1,4.29-5.61,7.23-7.52s5.54-2.87,7.79-2.87c2.85,0,4.84,1.31,5.98,3.93l6.99-3.86h1.92l-3.01,10.01c-1.55,5.04-2.33,8.49-2.33,10.36,0,1.96,.69,2.94,2.08,2.94,.89,0,1.87-.47,2.94-1.42,1.07-.95,2.57-2.39,4.51-4.32v3.93Zm-25.02,1.88c2.28,0,4.43-1.94,6.44-5.83,2.02-3.88,3.02-7.47,3.02-10.75,0-1.28-.29-2.27-.85-2.99-.57-.72-1.33-1.08-2.29-1.08-2.28,0-4.44,1.94-6.48,5.81-2.04,3.87-3.06,7.44-3.06,10.7,0,1.23,.3,2.23,.91,2.99,.6,.76,1.37,1.15,2.31,1.15Z"/></g><g><path class="cls-1" d="M472.58,1852.82c-4.1,7.7-8.57,11.55-13.4,11.55-2.53,0-4.56-.93-6.08-2.79-1.53-1.86-2.29-4.31-2.29-7.37,0-3.55,1.27-8.96,3.81-16.2s3.81-12.37,3.81-15.38c0-1.34-.38-2.46-1.15-3.35s-1.71-1.33-2.85-1.33c-1.75,0-3.5,1.07-5.23,3.21-1.73,2.14-2.6,4.33-2.6,6.56,0,1.71,.77,3.49,2.32,5.33,.64,.78,.96,1.31,.96,1.61,0,.34-.49,1.11-1.47,2.29-.98,1.19-1.82,1.78-2.53,1.78-.75,0-1.61-.55-2.56-1.64s-1.44-2.72-1.44-4.89c0-4.4,1.54-8.4,4.63-12,3.09-3.6,6.5-5.4,10.24-5.4,2.8,0,5.17,1.16,7.11,3.48,1.94,2.32,2.91,5.21,2.91,8.67-.03,3.64-1.21,8.8-3.54,15.47-2.33,6.67-3.48,11.13-3.47,13.39,0,1.07,.27,1.92,.82,2.55,.55,.63,1.28,.94,2.19,.94,1.98,0,3.95-1.62,5.91-4.85,1.96-3.23,3.75-7.87,5.37-13.91l3.21-12.03c1.25-4.74,2.65-8.88,4.2-12.41,.16-.39,1.22-.69,3.19-.91,1.97-.22,3.4-.33,4.29-.33s1.33,.18,1.33,.54l-6.26,23.86c-1.79,7-2.68,12.11-2.68,15.35,0,1.41,.3,2.54,.89,3.37,.59,.83,1.39,1.25,2.39,1.25,1.48,0,3.5-1.21,6.07-3.64,2.56-2.43,4.72-5.53,6.48-9.3,1.75-3.77,2.63-7.63,2.63-11.57,0-4.22-1.03-8.41-3.08-12.58-.57-1.21-.85-1.96-.85-2.26,0-.98,.94-2.06,2.82-3.25,1.88-1.18,3.23-1.78,4.05-1.78,.77,0,1.56,1.03,2.34,3.09,.79,2.06,1.18,4.22,1.18,6.48,0,5.99-1.4,12.13-4.2,18.41s-6.29,11.43-10.46,15.47-7.94,6.05-11.31,6.05c-2.39,0-4.29-.96-5.69-2.89-1.4-1.92-2.07-4.81-2-8.67Z"/><path class="cls-1" d="M542.65,1856.03c-3.65,3.46-6.25,5.72-7.83,6.77-1.57,1.05-3.08,1.57-4.51,1.57-3.6,0-5.3-3.18-5.09-9.54-2.28,3.26-4.38,5.66-6.31,7.21-1.93,1.55-3.91,2.32-5.96,2.32s-3.71-.94-5.11-2.82c-1.4-1.88-2.1-4.19-2.1-6.92,0-3.42,.94-6.68,2.82-9.78,1.88-3.1,4.29-5.61,7.23-7.52s5.54-2.87,7.79-2.87c2.85,0,4.84,1.31,5.98,3.93l6.99-3.86h1.92l-3.01,10.01c-1.55,5.04-2.33,8.49-2.33,10.36,0,1.96,.69,2.94,2.08,2.94,.89,0,1.87-.47,2.94-1.42,1.07-.95,2.57-2.39,4.51-4.32v3.93Zm-25.02,1.88c2.28,0,4.43-1.94,6.44-5.83,2.02-3.88,3.02-7.47,3.02-10.75,0-1.28-.29-2.27-.85-2.99-.57-.72-1.33-1.08-2.29-1.08-2.28,0-4.44,1.94-6.48,5.81-2.04,3.87-3.06,7.44-3.06,10.7,0,1.23,.3,2.23,.91,2.99,.6,.76,1.37,1.15,2.31,1.15Z"/><path class="cls-1" d="M576.18,1856.03c-5.26,5.56-9.78,8.34-13.54,8.34-1.53,0-2.76-.54-3.69-1.61-.93-1.07-1.4-2.51-1.4-4.31,0-2.44,1-6.16,3.01-11.18,1.07-2.69,1.61-4.4,1.61-5.13s-.29-1.09-.85-1.09c-.32,0-.74,.16-1.26,.48-.48,.32-1.04,.76-1.67,1.33-.57,.52-1.21,1.16-1.91,1.91-.62,.64-1.28,1.37-1.98,2.19l-1.91,2.22c-.84,1.03-1.37,2.11-1.57,3.25-.34,1.94-.57,3.71-.68,5.33-.07,1.21-.1,2.84-.1,4.89l-7.55,1.78c-.25-3.08-.38-5.37-.38-6.87,0-3.67,.43-7.14,1.28-10.43,.86-3.28,2.23-6.97,4.12-11.07l8.34-1.61c-1.75,4.72-2.91,8.43-3.45,11.14,3.73-4.17,6.7-7.06,8.89-8.67,2.19-1.61,4.15-2.41,5.85-2.41,1.16,0,2.13,.44,2.9,1.31,.77,.88,1.16,1.97,1.16,3.29,0,2.18-.98,5.78-2.94,10.8-1.34,3.44-2.02,5.68-2.02,6.7,0,1.37,.56,2.06,1.68,2.06,1.67,0,4.36-2.2,8.09-6.6v3.93Z"/><path class="cls-1" d="M612.65,1856.03c-3.28,3.26-5.78,5.46-7.5,6.61-1.72,1.15-3.24,1.73-4.56,1.73-1.62,0-2.9-.79-3.84-2.36-.95-1.57-1.43-3.87-1.45-6.9-1.87,3.03-3.9,5.33-6.1,6.9s-4.19,2.36-5.96,2.36c-1.94,0-3.65-.92-5.13-2.75-1.48-1.83-2.22-3.98-2.22-6.44,0-5.08,1.85-9.79,5.55-14.13,3.7-4.34,7.68-6.51,11.95-6.51,1.18,0,2.11,.17,2.79,.51s1.41,.92,2.21,1.74l4.89-20.44c3.99-.93,6.68-1.4,8.07-1.4,.46,0,.68,.18,.68,.55,0,.25-.57,2.61-1.71,7.08-4.55,17.87-6.83,28.64-6.83,32.33,0,.87,.18,1.56,.55,2.08,.36,.52,.84,.79,1.43,.79,1.46,0,3.86-1.89,7.2-5.67v3.93Zm-24.71,1.81c2.23,0,4.32-1.89,6.25-5.67,1.94-3.78,2.91-7.33,2.91-10.63,0-1.34-.3-2.41-.91-3.21-.6-.8-1.4-1.2-2.38-1.2-2.12,0-4.17,1.98-6.15,5.93s-2.97,7.53-2.97,10.71c0,1.25,.29,2.25,.87,2.97,.58,.73,1.37,1.09,2.38,1.09Z"/><path class="cls-1" d="M623.14,1836c1.57-.41,3.16-.75,4.75-1.01,1.59-.26,2.55-.39,2.87-.39,.23,0,.34,.09,.34,.27,0,.34-.09,.69-.27,1.06-.37,1.05-.55,2.05-.55,3.01,0,1.18,.69,2.8,2.05,4.85s2.05,3.96,2.05,5.71c0,3.49-1.67,6.85-5.01,10.08-3.34,3.24-6.8,4.85-10.37,4.85-1.55,0-2.96-.41-4.24-1.23-1.28-.82-1.91-1.7-1.91-2.63,0-.55,.63-1.58,1.9-3.11,1.26-1.53,2.17-2.29,2.72-2.29,.73,0,1.38,.93,1.95,2.8,.57,1.87,1.55,2.8,2.94,2.8s2.69-.64,3.91-1.93,1.83-2.67,1.83-4.15c0-1.44-.77-3.35-2.32-5.74s-2.58-4.4-3.08-6.01c-2.64,4.26-5.99,8.62-10.05,13.09h-.79v-3.08c5.58-5.95,9.34-11.6,11.28-16.95Z"/></g></g></g><g id="_반짝이"><polygon class="cls-8" points="450.75 613 463.57 662.76 504.86 672.98 463.57 684.19 450.75 734.87 437.24 684.19 396.64 672.98 437.24 662.76 450.75 613"/><polygon class="cls-7" points="584.75 915.87 592.76 946.95 618.56 953.34 592.76 960.34 584.75 992 576.31 960.34 550.94 953.34 576.31 946.95 584.75 915.87"/><circle class="cls-7" cx="525.5" cy="745.5" r="11.5"/><circle class="cls-8" cx="509.5" cy="803.5" r="6.5"/><circle class="cls-8" cx="405" cy="1017" r="13"/><circle class="cls-7" cx="394.5" cy="969.5" r="7.78"/><circle class="cls-7" cx="238.94" cy="1102.59" r="9.41"/><circle class="cls-8" cx="187.6" cy="1027.16" r="12.42"/><circle class="cls-8" cx="741.5" cy="647.5" r="8.5"/></g><g id="_완드_3"><path class="cls-3" d="M840.07,540.59c-11.7-1.94-20.79,3.03-24,4.84-5.28,2.99-13.34,7.55-16,16.95-1.25,4.41-.47,6.92,1,20.58,0,0,.38,3.5,2,23,1.24,14.85-.34,19.52-1,39.95-.14,4.41-.72,24.47,1,48.42,1.41,19.61,2.78,19.76,4,39.95,.48,7.91,.37,9.54,1,36.32,.68,28.93,.79,26.26,1,38.74,.36,21.62,.17,38.29,0,52.05-.19,15.9-.35,28.47-1,44.79-1.8,44.97-4.62,48.77-4,77.47,.3,13.93,1.07,17.82,1,33.89-.08,17.44-1.05,28.28-2,42.37-2.51,37.23-.44,31.61-3,81.1,0,0-.59,11.42,0,50.84,.21,13.83,.52,22.92,6,30.26,5.22,6.99,15.29,12.64,21,8.47,7.42-5.41,2.58-23.84,2-65.37-.1-6.89,.27-18.71,1-42.37,1.84-59.63,4.41-61.74,4-95.63-.21-16.98-.96-25.5-1-52.05-.02-15.26,.21-26.29,1-38.74,.93-14.72,2.15-23.51,3-31.47,3.5-32.65-.47-38.46,1-81.1,.86-25.06,2.16-20.97,4-59.32,1.21-25.32,1.8-38.33,1-55.68-1.03-22.33-3-43.58-3-43.58-2.15-23.2-.7-29.28,3-38.74,3.58-9.15,4.26-9.21,14-23,9.16-12.96,16.11-22.8,15-33.89-1.59-15.87-18.91-26.88-32-29.05Z"/><path class="cls-3" d="M702,715c-6.4-8.9-8.53-11.61-12-12-3.66-.41-4.82,2.23-13,7-11.19,6.52-14.45,4.74-17,9-3.24,5.42-.71,12.93,2,21,2.38,7.07,4.48,8.76,6,16,1.03,4.9,.72,7.25,1,12,.94,15.82,6.02,17.83,6,28-.02,10.12-5.07,11.31-9,25-2.58,8.97-2.84,16.91-2,30,1.9,29.79,7.63,57.06,9,64,3.77,19.05,3.51,39.03,3,79-.54,41.98-3.95,52.94-8,125-.8,14.19-1.02,20.14-2,32-1.9,23.04-3.51,30.48-4,49-.24,8.88,.09,8.95,0,24-.11,19.06-2.11,25.29-1,40,.71,9.42,1.46,8.35,2,17,.74,11.94-.5,16.93-2,35-2.27,27.26-1.03,34.88,2,42,.74,1.74,5.75,13.52,11,13,3.55-.35,5.75-6.17,7-10,8.63-26.45,6.54-64.87,6-77-.52-11.66-1.21-28.41,0-50,2.01-35.8,6.35-32.63,7-62,.49-21.82-1.7-32.81,6-47,4.28-7.88,7.82-9.78,10-18,3.36-12.64-1.65-20.85-4-35-2.19-13.17,.72-15.01,2-39,1-18.74-.52-19.82-1-51-.25-15.87-.57-36.48,1-62,2.3-37.59,5.61-35.52,4-53-1.49-16.2-5.05-25.77-2-43,1.07-6.06,2.04-7.85,5-22,3.01-14.38,4.51-21.56,5-28,.82-10.81,2.01-26.52-6-42-.57-1.1-4.38-6.4-12-17Z"/><path class="cls-3" d="M297,621c3.25-3.12,8.83-4.07,13-3,3.13,.8,5.1,2.64,12,11,6.94,8.41,10.42,12.62,11,14,1.58,3.73,2.01,7.14,1,26-.35,6.6-.53,9.9-1,16-1.59,20.53,2.79,29.86,4,49,.77,12.14-.85,10.76-3,41-1.33,18.61-2.64,37.09-2,59,.71,24.3,3,24.58,5,61,.96,17.5,1.52,28.24,1,43-.82,23.08-3.35,29.38-5,50-1.53,19.11,.04,21.21,1,64,.8,35.35,1.19,53.02,0,73-2.28,38.18-6.42,38.85-6,68,.22,15.67-2.25,31.5,0,47,1.12,7.75,3.15,17.5-2,27-.55,1.01-6.52,11.73-14,11-6.72-.66-10.48-10.16-12-14-4.35-11.01-2.88-20.29-2-30,2.45-26.91-2.42-25.82,0-55,1.33-16,3.41-23.79,5-34,4.06-26.11,.23-38.12-4-84-5.49-59.55-8.24-89.4-5-119,1.66-15.14,4.29-24.83,1-40-2.74-12.61-7.68-20.3-5-33,1.15-5.44,2.79-7.5,5-17,1.96-8.44,2.58-15.06,3-20,2.99-35.52,3-55,3-55,.02-35.64-2.25-32.46-2-63,.31-38.27,3.81-36.6,1-53-3.27-19.07-10.05-33.24-3-40Z"/><path class="cls-5" d="M651.64,840.32c.86-2.46,4.31-13.22,.05-26.19-6.21-18.87-22.89-24.48-23.71-24.74-1.07,2.52-3.39,8.86-2.57,17.75,.28,3.01,1.31,10.5,5.95,18.03,7.42,12.02,18.28,14.7,20.28,15.16Z"/><path class="cls-5" d="M283.64,851.32c.86-2.46,4.31-13.22,.05-26.19-6.21-18.87-22.89-24.48-23.71-24.74-1.07,2.52-3.39,8.86-2.57,17.75,.28,3.01,1.31,10.5,5.95,18.03,7.42,12.02,18.28,14.7,20.28,15.16Z"/><path class="cls-5" d="M275.88,864.11c-1.4-2.19-7.69-11.58-20.51-16.28-18.66-6.83-33.41,2.77-34.12,3.25,1.31,2.4,4.85,8.16,12.32,13.02,2.54,1.65,9.05,5.49,17.83,6.51,14.03,1.63,22.87-5.22,24.47-6.51Z"/><polygon class="cls-4" points="515.32 981 533.2 1087.11 581.39 1064.2 558.49 1112.4 639.84 1130.28 558.49 1148.16 581.39 1196.35 533.2 1173.44 515.32 1288.43 497.44 1173.44 449.25 1196.35 472.15 1148.16 398.16 1130.28 472.15 1112.4 449.25 1064.2 497.44 1087.11 515.32 981"/></g></svg>