<?xml version="1.0" encoding="UTF-8"?><svg xmlns="http://www.w3.org/2000/svg" viewBox="0 0 1080 1944"><defs><style>.cls-1{fill:#fff;}.cls-2{stroke:#3f3730;stroke-miterlimit:10;stroke-width:5px;}.cls-2,.cls-3{fill:#3f3730;}.cls-4{fill:#4c5fa9;}.cls-5{fill:#bad6eb;}.cls-6{fill:#c8c0de;}.cls-7{fill:#b1d4f0;}</style></defs><g id="_배경_텍스트"><g><rect class="cls-5" width="1080" height="1944"/><rect class="cls-1" x="74.84" y="186.39" width="930.33" height="1606.64" rx="65.21" ry="65.21"/><path class="cls-2" d="M506.88,1669.57c0,1.92,.2,3.46,.6,4.62,.4,1.16,.98,2.04,1.74,2.64,.76,.6,1.72,1.02,2.88,1.26,1.16,.24,2.5,.44,4.02,.6,.56,.08,.96,.3,1.2,.66,.24,.36,.36,.74,.36,1.14s-.14,.78-.42,1.14c-.28,.36-.74,.54-1.38,.54h-26.52c-.64,0-1.1-.18-1.38-.54-.28-.36-.42-.74-.42-1.14s.12-.78,.36-1.14c.24-.36,.64-.58,1.2-.66,1.52-.16,2.84-.36,3.96-.6,1.12-.24,2.08-.66,2.88-1.26,.8-.6,1.4-1.48,1.8-2.64,.4-1.16,.6-2.7,.6-4.62v-60.72c0-1.92-.2-3.46-.6-4.62-.4-1.16-1-2.04-1.8-2.64-.8-.6-1.76-1.02-2.88-1.26-1.12-.24-2.44-.44-3.96-.6-.56-.08-.96-.3-1.2-.66-.24-.36-.36-.74-.36-1.14s.14-.78,.42-1.14c.28-.36,.74-.54,1.38-.54h26.52c.64,0,1.1,.18,1.38,.54,.28,.36,.42,.74,.42,1.14s-.12,.78-.36,1.14c-.24,.36-.64,.58-1.2,.66-1.52,.16-2.86,.36-4.02,.6-1.16,.24-2.12,.66-2.88,1.26-.76,.6-1.34,1.48-1.74,2.64-.4,1.16-.6,2.7-.6,4.62v60.72Zm26.16-60.84c-.96-3.36-2.18-5.62-3.66-6.78-1.48-1.16-3.74-1.82-6.78-1.98-1.28-.16-1.92-.8-1.92-1.92,0-.48,.14-.9,.42-1.26,.28-.36,.74-.54,1.38-.54h26.76c.64,0,1.12,.2,1.44,.6,.32,.4,.48,.8,.48,1.2,0,.48-.16,.9-.48,1.26-.32,.36-.8,.58-1.44,.66-2.16,.16-3.9,.34-5.22,.54-1.32,.2-2.22,.74-2.7,1.62-.32,.64-.4,1.42-.24,2.34,.16,.92,.44,2.22,.84,3.9l15.96,61.32,17.16-61.92c.48-1.68,.64-3.02,.48-4.02-.16-1-.56-1.76-1.2-2.28-.64-.52-1.52-.86-2.64-1.02-1.12-.16-2.44-.32-3.96-.48-.64-.08-1.12-.3-1.44-.66-.32-.36-.48-.78-.48-1.26,0-.4,.14-.8,.42-1.2,.28-.4,.74-.6,1.38-.6h22.92c.64,0,1.12,.2,1.44,.6,.32,.4,.48,.8,.48,1.2,0,1.04-.64,1.68-1.92,1.92-1.6,.24-2.94,.48-4.02,.72-1.08,.24-1.98,.66-2.7,1.26-.72,.6-1.34,1.42-1.86,2.46-.52,1.04-1.06,2.48-1.62,4.32l-21.48,74.64h-5.04l-20.76-74.64Z"/><g><path class="cls-1" d="M410.88,142.03c-5.1,5.49-9.75,8.24-13.95,8.24-2.55,0-4.5-1.23-5.83-3.69-1.33-2.46-2-5.75-2-9.88,0-3.19,.65-7.58,1.96-13.16,1.31-5.58,3-10.28,5.08-14.08l1.98-3.55c-2.71,2.83-4.93,5.92-6.67,9.28-1.73,3.36-3.8,8.06-6.2,14.1-2.4,6.04-4.22,10.15-5.45,12.34s-2.41,3.97-3.54,5.35c-1.13,1.38-2.13,2.27-3.01,2.68-.88,.41-2.41,.62-4.6,.62-.84,0-1.26-.23-1.26-.68,0-.05,.15-.76,.45-2.15,.3-1.39,.61-3.62,.92-6.68s.54-8.27,.68-15.62,1.21-13.64,3.21-18.88c-2.14,2.44-4.33,8.11-6.57,17.02l-.86,3.35c-2.35,9.27-5.04,15.53-8.08,18.78-3.03,3.25-6.01,4.87-8.93,4.87-1.8,0-3.39-.57-4.76-1.71-1.37-1.14-2.05-2.45-2.05-3.93,0-1.14,.82-2.41,2.46-3.83,1.64-1.41,2.68-2.12,3.11-2.12,.5,0,.83,.17,.99,.51,.16,.34,.37,1.28,.62,2.82s.63,2.54,1.15,3.01c.51,.47,1.16,.7,1.94,.7,1.76,0,3.7-1.76,5.83-5.28s4.07-8.96,5.83-16.32l.99-4.13c.8-3.37,1.59-6.06,2.37-8.07,.78-2.01,1.8-4.01,3.08-6.02,1.85-2.87,2.99-4.4,3.41-4.6,.42-.19,1.21-.35,2.38-.48s2.32-.19,3.49-.19c.46,0,.68,.26,.68,.79,0,.25-.07,.76-.21,1.54-.45,3.19-.66,6.39-.64,9.6l.07,9.16c.04,7.98-.59,14.41-1.91,19.31,1.21-1.46,2.96-5.22,5.26-11.28,3.33-8.59,6.36-15.04,9.09-19.35,1.3-2.07,2.87-4.06,4.7-5.96,1.83-1.9,3.1-2.92,3.81-3.06,2.42-.46,4.45-.68,6.12-.68,.62,0,.92,.17,.92,.51,0,.48-.38,1.55-1.12,3.21-1.77,4.01-3.43,9.44-4.96,16.27s-2.31,12.28-2.32,16.33c0,4.58,1.4,6.87,4.2,6.87,2.28,0,4.99-1.94,8.13-5.81v3.93Z"/><path class="cls-1" d="M427.66,142.03c-5.33,5.61-9.32,8.41-11.96,8.41-1.46,0-2.69-.75-3.69-2.24-1-1.49-1.5-3.37-1.5-5.62,0-4.85,1.64-11.57,4.92-20.17l8.68-1.81h.41l-3.42,10.7c-1.41,4.42-2.12,7.58-2.12,9.47,0,.75,.17,1.36,.5,1.83,.33,.47,.75,.7,1.25,.7,.89,0,1.78-.33,2.68-.97s2.32-2.06,4.26-4.22v3.93Zm-.68-34.79c0,5.47-2.02,8.2-6.05,8.2-1.96,0-3.63-.59-5.02-1.78,1.32-2,2.35-4.26,3.08-6.77,1.8,1.12,3.25,1.68,4.34,1.68,1.23,0,2.45-.45,3.66-1.33Z"/><path class="cls-1" d="M461.22,142.03c-5.26,5.56-9.78,8.34-13.54,8.34-1.53,0-2.76-.54-3.69-1.61-.93-1.07-1.4-2.51-1.4-4.31,0-2.44,1-6.16,3.01-11.18,1.07-2.69,1.61-4.4,1.61-5.13s-.29-1.09-.85-1.09c-.32,0-.74,.16-1.26,.48-.48,.32-1.04,.76-1.67,1.33-.57,.52-1.21,1.16-1.91,1.91-.62,.64-1.28,1.37-1.98,2.19l-1.91,2.22c-.84,1.03-1.37,2.11-1.57,3.25-.34,1.94-.57,3.71-.68,5.33-.07,1.21-.1,2.84-.1,4.89l-7.55,1.78c-.25-3.08-.38-5.37-.38-6.87,0-3.67,.43-7.14,1.28-10.43,.86-3.28,2.23-6.97,4.12-11.07l8.34-1.61c-1.75,4.72-2.91,8.43-3.45,11.14,3.73-4.17,6.7-7.06,8.89-8.67,2.19-1.61,4.15-2.41,5.85-2.41,1.16,0,2.13,.44,2.9,1.31,.77,.88,1.16,1.97,1.16,3.29,0,2.18-.98,5.78-2.94,10.8-1.34,3.44-2.02,5.68-2.02,6.7,0,1.37,.56,2.06,1.68,2.06,1.67,0,4.36-2.2,8.09-6.6v3.93Z"/><path class="cls-1" d="M491.88,142.03c-1.16,1.03-2.29,1.75-3.38,2.17-1.09,.42-1.96,.63-2.6,.63-1.64,0-3.27-.64-4.89-1.91-3.28,4.97-7.04,7.45-11.28,7.45-2.64,0-4.79-.99-6.43-2.97s-2.46-4.62-2.46-7.9c0-5.2,1.85-9.66,5.54-13.38s8.1-5.59,13.23-5.59c1.94,0,3.35,.21,4.25,.63,.9,.42,1.45,.92,1.66,1.49,.21,.57,.31,1.29,.31,2.15,0,4.26-1.16,9.49-3.49,15.69,1.16,1.07,2.38,1.61,3.66,1.61,1.53,0,3.49-1.33,5.88-4v3.93Zm-11.28-19.11c-.34-.14-.83-.21-1.47-.21-2.96,0-5.28,1.55-6.96,4.65-1.67,3.1-2.51,6.72-2.51,10.87,0,2.3,.36,4.09,1.09,5.37,.73,1.28,1.74,1.91,3.04,1.91,1.62,0,3.37-1.49,5.26-4.48-2.14-2.69-3.21-5.58-3.21-8.68,0-3.65,1.58-6.79,4.75-9.43Z"/><path class="cls-1" d="M517.42,142.03c-5.72,5.61-10.13,8.41-13.23,8.41-1.39,0-2.56-.59-3.52-1.76s-1.44-2.63-1.44-4.36c0-3.21,1.72-7.52,5.16-12.92-1.69,.87-3.53,1.47-5.54,1.81-1.48,2.73-3.81,5.67-6.97,8.82h-.79v-3.08c1.78-1.85,3.38-3.83,4.82-5.95-1.96-.87-2.94-2.15-2.94-3.86s.6-3.63,1.79-5.62c1.2-1.99,2.84-2.99,4.94-2.99,1.78,0,2.67,.91,2.67,2.73,0,1.44-.51,3.49-1.54,6.15,3.78-.41,7.09-3.3,9.91-8.68l3.11-.14-3.18,8.75c-1.32,3.69-2.18,6.2-2.56,7.54-.39,1.33-.58,2.51-.58,3.54,0,.96,.22,1.72,.67,2.29,.44,.57,1.04,.86,1.79,.86,.82,0,1.61-.28,2.36-.84s2.44-2.1,5.06-4.63v3.93Z"/><path class="cls-1" d="M582.32,142.06c-5.24,5.58-10.05,8.37-14.42,8.37-2.42,0-4.33-.85-5.74-2.56-1.41-1.71-2.2-4.15-2.36-7.31-2.76,3.35-5.2,5.83-7.33,7.45-2.13,1.62-4.4,2.43-6.82,2.43-3.1,0-5.59-1.34-7.47-4.02-1.88-2.68-2.82-6.25-2.82-10.71,0-5.33,1.23-10.83,3.69-16.49s6.11-10.13,10.94-13.42c4.83-3.28,10.69-4.92,17.57-4.92,5.15,0,9.81,.7,13.98,2.09v2.26c-3.4,3.96-6.24,9.51-8.53,16.64-2.29,7.13-3.44,12.57-3.44,16.3,0,1.82,.37,3.24,1.11,4.24,.74,1,1.77,1.5,3.09,1.5,2.37,0,5.22-1.93,8.54-5.78v3.93Zm-9.95-36.85c-2.1-1.14-4.35-1.71-6.77-1.71-3.81,0-7.24,1.59-10.29,4.77-3.05,3.18-5.46,7.39-7.23,12.63-1.77,5.24-2.65,9.79-2.65,13.64,0,2.57,.5,4.67,1.49,6.27,.99,1.61,2.26,2.41,3.81,2.41,2.69,0,5.78-2.45,9.26-7.35,1.44-12.85,5.56-23.07,12.37-30.66Z"/><path class="cls-1" d="M607.85,142.03c-5.72,5.61-10.13,8.41-13.23,8.41-1.39,0-2.56-.59-3.52-1.76s-1.44-2.63-1.44-4.36c0-3.21,1.72-7.52,5.16-12.92-1.69,.87-3.53,1.47-5.54,1.81-1.48,2.73-3.81,5.67-6.97,8.82h-.79v-3.08c1.78-1.85,3.38-3.83,4.82-5.95-1.96-.87-2.94-2.15-2.94-3.86s.6-3.63,1.79-5.62c1.2-1.99,2.84-2.99,4.94-2.99,1.78,0,2.67,.91,2.67,2.73,0,1.44-.51,3.49-1.54,6.15,3.78-.41,7.09-3.3,9.91-8.68l3.11-.14-3.18,8.75c-1.32,3.69-2.18,6.2-2.56,7.54-.39,1.33-.58,2.51-.58,3.54,0,.96,.22,1.72,.67,2.29,.44,.57,1.04,.86,1.79,.86,.82,0,1.61-.28,2.36-.84s2.44-2.1,5.06-4.63v3.93Z"/><path class="cls-1" d="M633.42,142.03c-2.92,2.87-5.59,4.98-8.02,6.32-2.43,1.34-4.96,2.02-7.6,2.02-2.96,0-5.41-.96-7.33-2.89-1.93-1.92-2.89-4.37-2.89-7.33,0-4.85,1.77-9.34,5.31-13.45,3.54-4.11,7.38-6.17,11.5-6.17,2.03,0,3.68,.56,4.96,1.69,1.28,1.13,1.91,2.59,1.91,4.39,0,.64-.12,1.12-.36,1.44-.24,.32-.69,.64-1.35,.96l-3.96,1.88c-.48,.23-.83,.34-1.06,.34-.32,0-.48-.23-.48-.68,0-.18,.07-.78,.21-1.79,.14-1.01,.21-1.63,.21-1.86,0-1-.21-1.81-.63-2.43s-.99-.92-1.69-.92c-1.66,0-3.18,1.23-4.56,3.69-1.38,2.46-2.07,5.26-2.07,8.41,0,2.71,.65,4.88,1.95,6.49,1.3,1.62,3.03,2.43,5.2,2.43,1.85,0,3.58-.53,5.21-1.59s3.48-2.68,5.55-4.87v3.93Z"/><path class="cls-1" d="M669.92,142.03c-3.65,3.46-6.25,5.72-7.83,6.77-1.57,1.05-3.08,1.57-4.51,1.57-3.6,0-5.3-3.18-5.09-9.54-2.28,3.26-4.38,5.66-6.31,7.21-1.93,1.55-3.91,2.32-5.96,2.32s-3.71-.94-5.11-2.82c-1.4-1.88-2.1-4.19-2.1-6.92,0-3.42,.94-6.68,2.82-9.78,1.88-3.1,4.29-5.61,7.23-7.52s5.54-2.87,7.79-2.87c2.85,0,4.84,1.31,5.98,3.93l6.99-3.86h1.92l-3.01,10.01c-1.55,5.04-2.33,8.49-2.33,10.36,0,1.96,.69,2.94,2.08,2.94,.89,0,1.87-.47,2.94-1.42,1.07-.95,2.57-2.39,4.51-4.32v3.93Zm-25.02,1.88c2.28,0,4.43-1.94,6.44-5.83,2.02-3.88,3.02-7.47,3.02-10.75,0-1.28-.29-2.27-.85-2.99-.57-.72-1.33-1.08-2.29-1.08-2.28,0-4.44,1.94-6.48,5.81-2.04,3.87-3.06,7.44-3.06,10.7,0,1.23,.3,2.23,.91,2.99,.6,.76,1.37,1.15,2.31,1.15Z"/><path class="cls-1" d="M703.46,142.03c-5.26,5.56-9.78,8.34-13.54,8.34-1.53,0-2.76-.54-3.69-1.61-.93-1.07-1.4-2.51-1.4-4.31,0-2.44,1-6.16,3.01-11.18,1.07-2.69,1.61-4.4,1.61-5.13s-.29-1.09-.85-1.09c-.32,0-.74,.16-1.26,.48-.48,.32-1.04,.76-1.67,1.33-.57,.52-1.21,1.16-1.91,1.91-.62,.64-1.28,1.37-1.98,2.19l-1.91,2.22c-.84,1.03-1.37,2.11-1.57,3.25-.34,1.94-.57,3.71-.68,5.33-.07,1.21-.1,2.84-.1,4.89l-7.55,1.78c-.25-3.08-.38-5.37-.38-6.87,0-3.67,.43-7.14,1.28-10.43,.86-3.28,2.23-6.97,4.12-11.07l8.34-1.61c-1.75,4.72-2.91,8.43-3.45,11.14,3.73-4.17,6.7-7.06,8.89-8.67,2.19-1.61,4.15-2.41,5.85-2.41,1.16,0,2.13,.44,2.9,1.31,.77,.88,1.16,1.97,1.16,3.29,0,2.18-.98,5.78-2.94,10.8-1.34,3.44-2.02,5.68-2.02,6.7,0,1.37,.56,2.06,1.68,2.06,1.67,0,4.36-2.2,8.09-6.6v3.93Z"/><path class="cls-1" d="M739.92,142.03c-3.65,3.46-6.25,5.72-7.83,6.77-1.57,1.05-3.08,1.57-4.51,1.57-3.6,0-5.3-3.18-5.09-9.54-2.28,3.26-4.38,5.66-6.31,7.21-1.93,1.55-3.91,2.32-5.96,2.32s-3.71-.94-5.11-2.82c-1.4-1.88-2.1-4.19-2.1-6.92,0-3.42,.94-6.68,2.82-9.78,1.88-3.1,4.29-5.61,7.23-7.52s5.54-2.87,7.79-2.87c2.85,0,4.84,1.31,5.98,3.93l6.99-3.86h1.92l-3.01,10.01c-1.55,5.04-2.33,8.49-2.33,10.36,0,1.96,.69,2.94,2.08,2.94,.89,0,1.87-.47,2.94-1.42,1.07-.95,2.57-2.39,4.51-4.32v3.93Zm-25.02,1.88c2.28,0,4.43-1.94,6.44-5.83,2.02-3.88,3.02-7.47,3.02-10.75,0-1.28-.29-2.27-.85-2.99-.57-.72-1.33-1.08-2.29-1.08-2.28,0-4.44,1.94-6.48,5.81-2.04,3.87-3.06,7.44-3.06,10.7,0,1.23,.3,2.23,.91,2.99,.6,.76,1.37,1.15,2.31,1.15Z"/></g><g><path class="cls-1" d="M472.58,1852.82c-4.1,7.7-8.57,11.55-13.4,11.55-2.53,0-4.56-.93-6.08-2.79-1.53-1.86-2.29-4.31-2.29-7.37,0-3.55,1.27-8.96,3.81-16.2s3.81-12.37,3.81-15.38c0-1.34-.38-2.46-1.15-3.35s-1.71-1.33-2.85-1.33c-1.75,0-3.5,1.07-5.23,3.21-1.73,2.14-2.6,4.33-2.6,6.56,0,1.71,.77,3.49,2.32,5.33,.64,.78,.96,1.31,.96,1.61,0,.34-.49,1.11-1.47,2.29-.98,1.19-1.82,1.78-2.53,1.78-.75,0-1.61-.55-2.56-1.64s-1.44-2.72-1.44-4.89c0-4.4,1.54-8.4,4.63-12,3.09-3.6,6.5-5.4,10.24-5.4,2.8,0,5.17,1.16,7.11,3.48,1.94,2.32,2.91,5.21,2.91,8.67-.03,3.64-1.21,8.8-3.54,15.47-2.33,6.67-3.48,11.13-3.47,13.39,0,1.07,.27,1.92,.82,2.55,.55,.63,1.28,.94,2.19,.94,1.98,0,3.95-1.62,5.91-4.85,1.96-3.23,3.75-7.87,5.37-13.91l3.21-12.03c1.25-4.74,2.65-8.88,4.2-12.41,.16-.39,1.22-.69,3.19-.91,1.97-.22,3.4-.33,4.29-.33s1.33,.18,1.33,.54l-6.26,23.86c-1.79,7-2.68,12.11-2.68,15.35,0,1.41,.3,2.54,.89,3.37,.59,.83,1.39,1.25,2.39,1.25,1.48,0,3.5-1.21,6.07-3.64,2.56-2.43,4.72-5.53,6.48-9.3,1.75-3.77,2.63-7.63,2.63-11.57,0-4.22-1.03-8.41-3.08-12.58-.57-1.21-.85-1.96-.85-2.26,0-.98,.94-2.06,2.82-3.25,1.88-1.18,3.23-1.78,4.05-1.78,.77,0,1.56,1.03,2.34,3.09,.79,2.06,1.18,4.22,1.18,6.48,0,5.99-1.4,12.13-4.2,18.41s-6.29,11.43-10.46,15.47-7.94,6.05-11.31,6.05c-2.39,0-4.29-.96-5.69-2.89-1.4-1.92-2.07-4.81-2-8.67Z"/><path class="cls-1" d="M542.65,1856.03c-3.65,3.46-6.25,5.72-7.83,6.77-1.57,1.05-3.08,1.57-4.51,1.57-3.6,0-5.3-3.18-5.09-9.54-2.28,3.26-4.38,5.66-6.31,7.21-1.93,1.55-3.91,2.32-5.96,2.32s-3.71-.94-5.11-2.82c-1.4-1.88-2.1-4.19-2.1-6.92,0-3.42,.94-6.68,2.82-9.78,1.88-3.1,4.29-5.61,7.23-7.52s5.54-2.87,7.79-2.87c2.85,0,4.84,1.31,5.98,3.93l6.99-3.86h1.92l-3.01,10.01c-1.55,5.04-2.33,8.49-2.33,10.36,0,1.96,.69,2.94,2.08,2.94,.89,0,1.87-.47,2.94-1.42,1.07-.95,2.57-2.39,4.51-4.32v3.93Zm-25.02,1.88c2.28,0,4.43-1.94,6.44-5.83,2.02-3.88,3.02-7.47,3.02-10.75,0-1.28-.29-2.27-.85-2.99-.57-.72-1.33-1.08-2.29-1.08-2.28,0-4.44,1.94-6.48,5.81-2.04,3.87-3.06,7.44-3.06,10.7,0,1.23,.3,2.23,.91,2.99,.6,.76,1.37,1.15,2.31,1.15Z"/><path class="cls-1" d="M576.18,1856.03c-5.26,5.56-9.78,8.34-13.54,8.34-1.53,0-2.76-.54-3.69-1.61-.93-1.07-1.4-2.51-1.4-4.31,0-2.44,1-6.16,3.01-11.18,1.07-2.69,1.61-4.4,1.61-5.13s-.29-1.09-.85-1.09c-.32,0-.74,.16-1.26,.48-.48,.32-1.04,.76-1.67,1.33-.57,.52-1.21,1.16-1.91,1.91-.62,.64-1.28,1.37-1.98,2.19l-1.91,2.22c-.84,1.03-1.37,2.11-1.57,3.25-.34,1.94-.57,3.71-.68,5.33-.07,1.21-.1,2.84-.1,4.89l-7.55,1.78c-.25-3.08-.38-5.37-.38-6.87,0-3.67,.43-7.14,1.28-10.43,.86-3.28,2.23-6.97,4.12-11.07l8.34-1.61c-1.75,4.72-2.91,8.43-3.45,11.14,3.73-4.17,6.7-7.06,8.89-8.67,2.19-1.61,4.15-2.41,5.85-2.41,1.16,0,2.13,.44,2.9,1.31,.77,.88,1.16,1.97,1.16,3.29,0,2.18-.98,5.78-2.94,10.8-1.34,3.44-2.02,5.68-2.02,6.7,0,1.37,.56,2.06,1.68,2.06,1.67,0,4.36-2.2,8.09-6.6v3.93Z"/><path class="cls-1" d="M612.65,1856.03c-3.28,3.26-5.78,5.46-7.5,6.61-1.72,1.15-3.24,1.73-4.56,1.73-1.62,0-2.9-.79-3.84-2.36-.95-1.57-1.43-3.87-1.45-6.9-1.87,3.03-3.9,5.33-6.1,6.9s-4.19,2.36-5.96,2.36c-1.94,0-3.65-.92-5.13-2.75-1.48-1.83-2.22-3.98-2.22-6.44,0-5.08,1.85-9.79,5.55-14.13,3.7-4.34,7.68-6.51,11.95-6.51,1.18,0,2.11,.17,2.79,.51s1.41,.92,2.21,1.74l4.89-20.44c3.99-.93,6.68-1.4,8.07-1.4,.46,0,.68,.18,.68,.55,0,.25-.57,2.61-1.71,7.08-4.55,17.87-6.83,28.64-6.83,32.33,0,.87,.18,1.56,.55,2.08,.36,.52,.84,.79,1.43,.79,1.46,0,3.86-1.89,7.2-5.67v3.93Zm-24.71,1.81c2.23,0,4.32-1.89,6.25-5.67,1.94-3.78,2.91-7.33,2.91-10.63,0-1.34-.3-2.41-.91-3.21-.6-.8-1.4-1.2-2.38-1.2-2.12,0-4.17,1.98-6.15,5.93s-2.97,7.53-2.97,10.71c0,1.25,.29,2.25,.87,2.97,.58,.73,1.37,1.09,2.38,1.09Z"/><path class="cls-1" d="M623.14,1836c1.57-.41,3.16-.75,4.75-1.01,1.59-.26,2.55-.39,2.87-.39,.23,0,.34,.09,.34,.27,0,.34-.09,.69-.27,1.06-.37,1.05-.55,2.05-.55,3.01,0,1.18,.69,2.8,2.05,4.85s2.05,3.96,2.05,5.71c0,3.49-1.67,6.85-5.01,10.08-3.34,3.24-6.8,4.85-10.37,4.85-1.55,0-2.96-.41-4.24-1.23-1.28-.82-1.91-1.7-1.91-2.63,0-.55,.63-1.58,1.9-3.11,1.26-1.53,2.17-2.29,2.72-2.29,.73,0,1.38,.93,1.95,2.8,.57,1.87,1.55,2.8,2.94,2.8s2.69-.64,3.91-1.93,1.83-2.67,1.83-4.15c0-1.44-.77-3.35-2.32-5.74s-2.58-4.4-3.08-6.01c-2.64,4.26-5.99,8.62-10.05,13.09h-.79v-3.08c5.58-5.95,9.34-11.6,11.28-16.95Z"/></g></g></g><g id="_반짝이"><polygon class="cls-7" points="899.75 1146 912.57 1195.76 953.86 1205.98 912.57 1217.19 899.75 1267.87 886.24 1217.19 845.64 1205.98 886.24 1195.76 899.75 1146"/><polygon class="cls-6" points="366.75 522 377.05 561.96 410.21 570.17 377.05 579.17 366.75 619.87 355.9 579.17 323.29 570.17 355.9 561.96 366.75 522"/></g><g id="_완드_4"><path class="cls-7" d="M368.42,666.21c.07-3.22-.04-15.44-8.83-24.06-10.8-10.59-30.44-11.61-46.64-.62-3.41-4.76-9.76-12.28-20-18.05-5.8-3.26-14.05-7.91-23.32-7-13.14,1.28-24.68,13.35-30.33,29.7-.9-.82-9.76-8.71-20.87-6.27-10.43,2.3-18.44,12.76-18.3,25.28-3.54,1.01-12.29,4.05-17.06,12.27-6.86,11.82-2.88,29.84,11.41,42.23-1.64,2.35-4.52,7.3-4.05,13.5,.74,9.72,9.42,18.56,21.72,21.24-.35,2.79-1.61,15.34,6.87,26.15,8.23,10.5,22.42,15.24,36.45,12.28,2.89,4.16,9.31,12.1,20.37,16.82,21.07,8.99,40.9-1.41,43.7-2.94,6.39,11.88,19.91,18.1,32.89,15.23,13.47-2.98,23.28-15.07,23.45-29.09,7.47,9.93,20.2,13.22,29.46,8.84,11.6-5.48,17.02-22.65,8.23-36.33,1.31-.35,12.02-3.44,16.21-13.87,3.74-9.31,.71-20.59-7.73-27.74,7.13-5.61,9.93-15.07,7-23.32-3.22-9.09-12.73-14.86-22.71-13.51,4.78-9.2,4.71-19.6-.36-25.53-7.21-8.42-25.49-8.92-37.56,4.78Z"/><path class="cls-7" d="M535.28,698.07c-1.15-3.01-5.85-14.28-17.25-18.96-13.99-5.74-32.57,.72-43.44,17-4.96-3.13-13.67-7.7-25.33-9.18-6.6-.84-16-2.02-24.24,2.3-11.69,6.14-17.82,21.67-16.89,38.94-1.14-.42-12.33-4.39-21.69,2.06-8.8,6.06-12.27,18.77-7.42,30.31-2.9,2.26-9.86,8.39-11.18,17.8-1.9,13.53,8.58,28.72,26.48,34.81-.63,2.79-1.44,8.47,1.33,14.03,4.35,8.73,15.72,13.64,28.13,11.49,.73,2.71,4.29,14.81,16.22,21.63,11.58,6.62,26.51,5.66,38.39-2.36,4.24,2.76,13.18,7.7,25.21,7.9,22.9,.38,37.35-16.72,39.37-19.19,10.4,8.59,25.27,9.26,36.21,1.71,11.35-7.84,15.89-22.74,10.76-35.78,10.67,6.38,23.69,4.63,30.62-2.91,8.68-9.45,7.23-27.39-6.07-36.75,1.08-.82,9.84-7.72,9.78-18.95-.05-10.03-7.11-19.34-17.61-22.78,4.49-7.89,3.51-17.7-2.3-24.24-6.41-7.21-17.39-8.97-26.12-3.95,.96-10.32-3.02-19.93-9.96-23.51-9.85-5.08-26.97,1.34-32.99,18.58Z"/><path class="cls-7" d="M685.04,646.46c-2.07-2.48-10.17-11.61-22.47-12.33-15.09-.88-30.57,11.26-35.56,30.19-5.7-1.35-15.43-2.84-26.94-.45-6.52,1.35-15.79,3.28-22.18,10.05-9.06,9.6-9.82,26.28-3.33,42.31-1.22-.03-13.08-.15-19.84,8.99-6.35,8.59-5.51,21.73,2.83,31.08-2.01,3.08-6.6,11.13-4.79,20.46,2.6,13.41,17.45,24.38,36.35,24.33,.31,2.85,1.39,8.48,5.82,12.84,6.95,6.84,19.3,7.8,30.33,1.73,1.57,2.33,8.87,12.62,22.36,15.19,13.1,2.5,26.91-3.25,35.55-14.7,4.91,1.23,14.97,3,26.41-.71,21.78-7.07,29.9-27.95,31-30.94,12.62,4.75,26.9,.55,34.8-10.14,8.19-11.1,7.64-26.66-1.44-37.33,12.16,2.57,23.91-3.32,28.01-12.7,5.14-11.75-2.06-28.26-17.68-32.79,.75-1.12,6.8-10.5,3.1-21.1-3.3-9.47-13-15.98-24.06-15.83,1.68-8.92-2.43-17.88-10.05-22.18-8.4-4.73-19.36-2.83-25.99,4.74-2.44-10.07-9.33-17.87-17.05-19-10.97-1.61-25.08,10.03-25.17,28.29Z"/><path class="cls-7" d="M802.04,567.46c-2.07-2.48-10.17-11.61-22.47-12.33-15.09-.88-30.57,11.26-35.56,30.19-5.7-1.35-15.43-2.84-26.94-.45-6.52,1.35-15.79,3.28-22.18,10.05-9.06,9.6-9.82,26.28-3.33,42.31-1.22-.03-13.08-.15-19.84,8.99-6.35,8.59-5.51,21.73,2.83,31.08-2.01,3.08-6.6,11.13-4.79,20.46,2.6,13.41,17.45,24.38,36.35,24.33,.31,2.85,1.39,8.48,5.82,12.84,6.95,6.84,19.3,7.8,30.33,1.73,1.57,2.33,8.87,12.62,22.36,15.19,13.1,2.5,26.91-3.25,35.55-14.7,4.91,1.23,14.97,3,26.41-.71,21.78-7.07,29.9-27.95,31-30.94,12.62,4.75,26.9,.55,34.8-10.14,8.19-11.1,7.64-26.66-1.44-37.33,12.16,2.57,23.91-3.32,28.01-12.7,5.14-11.75-2.06-28.26-17.68-32.79,.75-1.12,6.8-10.5,3.1-21.1-3.3-9.47-13-15.98-24.06-15.83,1.68-8.92-2.43-17.88-10.05-22.18-8.4-4.73-19.36-2.83-25.99,4.74-2.44-10.07-9.33-17.87-17.05-19-10.97-1.61-25.08,10.03-25.17,28.29Z"/><path class="cls-3" d="M292.73,618.42c-11.02-1.83-19.6,2.84-22.62,4.55-4.98,2.81-12.57,7.08-15.08,15.91-1.18,4.15-.44,6.5,.94,19.32,0,0,.36,3.29,1.88,21.59,1.16,13.94-.32,18.33-.94,37.51-.13,4.14-.68,22.98,.94,45.46,1.33,18.41,2.62,18.55,3.77,37.51,.45,7.42,.35,8.96,.94,34.1,.64,27.16,.75,24.66,.94,36.37,.34,20.3,.16,35.95,0,48.87-.18,14.93-.33,26.73-.94,42.05-1.7,42.22-4.36,45.79-3.77,72.74,.29,13.08,1.01,16.73,.94,31.82-.07,16.38-.99,26.55-1.88,39.78-2.37,34.96-.42,29.68-2.83,76.15,0,0-.56,10.72,0,47.74,.19,12.98,.49,21.52,5.65,28.41,4.92,6.56,14.41,11.87,19.79,7.96,6.99-5.08,2.43-22.39,1.88-61.37-.09-6.47,.25-17.57,.94-39.78,1.73-55.99,4.16-57.97,3.77-89.79-.2-15.94-.91-23.94-.94-48.87-.02-14.33,.2-24.69,.94-36.37,.88-13.82,2.02-22.08,2.83-29.55,3.29-30.66-.44-36.11,.94-76.15,.81-23.53,2.04-19.69,3.77-55.69,1.14-23.77,1.7-35.99,.94-52.28-.97-20.97-2.83-40.92-2.83-40.92-2.02-21.78-.66-27.49,2.83-36.37,3.37-8.59,4.01-8.65,13.19-21.59,8.63-12.17,15.18-21.4,14.14-31.82-1.49-14.9-17.82-25.23-30.16-27.28Z"/><path class="cls-3" d="M726.84,637.17c3.25-3.12,8.83-4.07,13-3,3.13,.8,5.1,2.64,12,11,6.94,8.41,10.42,12.62,11,14,1.58,3.73,2.01,7.14,1,26-.35,6.6-.53,9.9-1,16-1.59,20.53,2.79,29.86,4,49,.77,12.14-.85,10.76-3,41-1.33,18.61-2.64,37.09-2,59,.71,24.3,3,24.58,5,61,.96,17.5,1.52,28.24,1,43-.82,23.08-3.35,29.38-5,50-1.53,19.11,.04,21.21,1,64,.8,35.35,1.19,53.02,0,73-2.28,38.18-6.42,38.85-6,68,.22,15.67-2.25,31.5,0,47,1.12,7.75,3.15,17.5-2,27-.55,1.01-6.52,11.73-14,11-6.72-.66-10.48-10.16-12-14-4.35-11.01-2.88-20.29-2-30,2.45-26.91-2.42-25.82,0-55,1.33-16,3.41-23.79,5-34,4.06-26.11,.23-38.12-4-84-5.49-59.55-8.24-89.4-5-119,1.66-15.14,4.29-24.83,1-40-2.74-12.61-7.68-20.3-5-33,1.15-5.44,2.79-7.5,5-17,1.96-8.44,2.58-15.06,3-20,2.99-35.52,3-55,3-55,.02-35.64-2.25-32.46-2-63,.31-38.27,3.81-36.6,1-53-3.27-19.07-10.05-33.24-3-40Z"/><path class="cls-3" d="M383.1,754.28c-6.5-8.33-8.68-10.88-12.2-11.24-3.73-.38-4.9,2.09-13.22,6.56-11.37,6.11-14.69,4.45-17.28,8.43-3.3,5.08-.73,12.12,2.03,19.68,2.42,6.63,4.56,8.21,6.1,14.99,1.04,4.59,.73,6.79,1.02,11.24,.95,14.82,6.12,16.71,6.1,26.24-.02,9.49-5.15,10.6-9.15,23.42-2.62,8.4-2.88,15.84-2.03,28.11,1.93,27.91,7.75,53.47,9.15,59.97,3.83,17.85,3.57,36.57,3.05,74.02-.55,39.33-4.02,49.6-8.13,117.12-.81,13.3-1.04,18.87-2.03,29.98-1.93,21.59-3.57,28.56-4.07,45.91-.24,8.32,.09,8.39,0,22.49-.11,17.86-2.15,23.69-1.02,37.48,.73,8.83,1.49,7.82,2.03,15.93,.76,11.19-.5,15.86-2.03,32.79-2.31,25.54-1.04,32.69,2.03,39.35,.75,1.63,5.85,12.67,11.18,12.18,3.6-.33,5.85-5.78,7.12-9.37,8.77-24.79,6.65-60.78,6.1-72.15-.52-10.92-1.23-26.62,0-46.85,2.05-33.54,6.45-30.57,7.12-58.09,.49-20.45-1.73-30.74,6.1-44.04,4.35-7.39,7.95-9.16,10.17-16.87,3.41-11.85-1.68-19.54-4.07-32.79-2.22-12.34,.73-14.07,2.03-36.54,1.02-17.56-.53-18.57-1.02-47.79-.25-14.87-.57-34.18,1.02-58.09,2.34-35.22,5.7-33.28,4.07-49.66-1.52-15.18-5.13-24.15-2.03-40.29,1.09-5.68,2.07-7.36,5.08-20.61,3.06-13.47,4.59-20.2,5.08-26.24,.83-10.13,2.04-24.85-6.1-39.35-.58-1.04-4.45-6-12.2-15.93Z"/><path class="cls-3" d="M851,527.81c-1.6-3.14-5.3-10.13-13-12.82-4.92-1.72-12.42-2.02-17,1.97-3.43,2.99-4.58,7.84-2,30.58,1.62,14.32,3.4,24.09,5,34.53,1.88,12.28,2.86,21.18,4,31.57,3,27.31,3.82,48.36,4,53.27,.43,11.94,.29,24.4,0,49.33-.25,21.61-.58,33.35-1,54.26-.33,16.57-.73,38.32-1,64.12-.5,46.84,.07,49.49-1,67.08-1.46,23.93-2.77,23.33-5,52.29-1.47,19.04-2,36.96-3,72.02-1.28,44.96-.7,47.16-2,71.03-1.89,34.62-2.84,51.93-5,59.19-7.45,25.01-7.97,34.43-9,53.27-.19,3.43-.46,10.57,4,13.81,3.65,2.65,9.32,1.85,13,0,8.74-4.4,10.09-16.63,12-28.61,5.33-33.48,8.44-23.72,12-52.29,2.93-23.49,1.44-35.07,0-76.95-1.52-44.06-2.28-66.09-1-85.83,2.46-38.05,7.31-38.61,11-79.91,1.64-18.34,1.19-23.89,1-92.73-.07-25.57-.17-63.33,0-101.61,.15-32.88-4.2-66.03,0-98.65,0,0,6.91-53.65-6-78.92Z"/><path class="cls-4" d="M667.25,1092.25v16.5h-23v-20.25h-33v15h-10v-82.5h-95v68.25h-13v-18.75h-34v37.5h-20v-21.75h-24l-4,135.75h59.24c3.08-42.74,39.39-76.48,83.76-76.48s80.68,33.74,83.76,76.48h59.24v-129.75h-30Zm-98.25-15.25h-31v-31h31v31Z"/><polygon class="cls-3" points="553.25 950 495.23 1033 611.27 1033 553.25 950"/><path class="cls-4" d="M350.66,671.97c-.18-.74-1.39-5.41-5.82-7.55-3.49-1.68-6.99-.84-9.24,.05,.96-2.89,1.23-6.04-.41-8.68-2.46-3.96-7.73-4.44-8.34-4.49-.76-.06-5.57-.35-8.98,3.21-2.87,3-2.99,6.9-2.77,9.3-2.44-1.8-5.34-3.01-8.35-2.27-4.52,1.11-6.61,5.98-6.85,6.54-.29,.71-2.06,5.19,.28,9.53,1.97,3.66,5.64,4.97,7.99,5.51-2.46,1.77-4.51,4.15-4.74,7.24-.34,4.65,3.64,8.14,4.11,8.53,.58,.5,4.3,3.56,9.15,2.68,4.09-.74,6.47-3.83,7.71-5.9,.92,2.89,2.55,5.57,5.43,6.74,4.31,1.76,8.86-.95,9.38-1.27,.65-.4,4.71-2.99,5.38-7.87,.54-3.95-1.47-7.08-3.03-8.93,2.81-.09,5.57-.87,7.42-3.07,3-3.56,1.84-8.72,1.69-9.32Z"/><path class="cls-4" d="M433.48,746.31c-.12-.48-.9-3.5-3.77-4.89-2.26-1.09-4.53-.55-5.99,.03,.62-1.87,.8-3.91-.27-5.63-1.59-2.56-5.01-2.88-5.4-2.91-.49-.04-3.61-.23-5.82,2.08-1.86,1.95-1.94,4.47-1.79,6.03-1.58-1.16-3.46-1.95-5.41-1.47-2.93,.72-4.28,3.87-4.44,4.24-.19,.46-1.33,3.36,.18,6.17,1.27,2.37,3.65,3.22,5.18,3.57-1.6,1.15-2.92,2.69-3.07,4.69-.22,3.01,2.36,5.27,2.66,5.53,.38,.32,2.79,2.31,5.93,1.74,2.65-.48,4.19-2.48,4.99-3.82,.6,1.87,1.65,3.61,3.52,4.37,2.8,1.14,5.74-.61,6.08-.82,.42-.26,3.06-1.94,3.49-5.1,.35-2.56-.95-4.59-1.97-5.79,1.82-.06,3.61-.57,4.81-1.99,1.95-2.31,1.19-5.65,1.1-6.04Z"/><path class="cls-4" d="M250.68,703.16c-.12-.5-.93-3.63-3.91-5.07-2.34-1.13-4.69-.56-6.2,.03,.65-1.94,.83-4.05-.28-5.83-1.65-2.66-5.19-2.98-5.6-3.01-.51-.04-3.74-.24-6.03,2.15-1.93,2.02-2,4.63-1.86,6.24-1.64-1.21-3.59-2.02-5.61-1.52-3.04,.75-4.44,4.01-4.6,4.39-.2,.47-1.38,3.48,.18,6.4,1.32,2.46,3.78,3.34,5.36,3.7-1.65,1.19-3.03,2.79-3.18,4.86-.23,3.12,2.44,5.46,2.76,5.73,.39,.33,2.89,2.39,6.14,1.8,2.74-.5,4.34-2.57,5.17-3.96,.62,1.94,1.71,3.74,3.64,4.53,2.9,1.18,5.95-.64,6.3-.85,.44-.27,3.16-2.01,3.61-5.28,.36-2.65-.99-4.75-2.04-5.99,1.88-.06,3.74-.59,4.98-2.06,2.02-2.39,1.23-5.85,1.14-6.25Z"/><path class="cls-4" d="M503.66,726.97c-.18-.74-1.39-5.41-5.82-7.55-3.49-1.68-6.99-.84-9.24,.05,.96-2.89,1.23-6.04-.41-8.68-2.46-3.96-7.73-4.44-8.34-4.49-.76-.06-5.57-.35-8.98,3.21-2.87,3-2.99,6.9-2.77,9.3-2.44-1.8-5.34-3.01-8.35-2.27-4.52,1.11-6.61,5.98-6.85,6.54-.29,.71-2.06,5.19,.28,9.53,1.97,3.66,5.64,4.97,7.99,5.51-2.46,1.77-4.51,4.15-4.74,7.24-.34,4.65,3.64,8.14,4.11,8.53,.58,.5,4.3,3.56,9.15,2.68,4.09-.74,6.47-3.83,7.71-5.9,.92,2.89,2.55,5.57,5.43,6.74,4.31,1.76,8.86-.95,9.38-1.27,.65-.4,4.71-2.99,5.38-7.87,.54-3.95-1.47-7.08-3.03-8.93,2.81-.09,5.57-.87,7.42-3.07,3-3.56,1.84-8.72,1.69-9.32Z"/><path class="cls-4" d="M669.66,759.97c-.18-.74-1.39-5.41-5.82-7.55-3.49-1.68-6.99-.84-9.24,.05,.96-2.89,1.23-6.04-.41-8.68-2.46-3.96-7.73-4.44-8.34-4.49-.76-.06-5.57-.35-8.98,3.21-2.87,3-2.99,6.9-2.77,9.3-2.44-1.8-5.34-3.01-8.35-2.27-4.52,1.11-6.61,5.98-6.85,6.54-.29,.71-2.06,5.19,.28,9.53,1.97,3.66,5.64,4.97,7.99,5.51-2.46,1.77-4.51,4.15-4.74,7.24-.34,4.65,3.64,8.14,4.11,8.53,.58,.5,4.3,3.56,9.15,2.68,4.09-.74,6.47-3.83,7.71-5.9,.92,2.89,2.55,5.57,5.43,6.74,4.31,1.76,8.86-.95,9.38-1.27,.65-.4,4.71-2.99,5.38-7.87,.54-3.95-1.47-7.08-3.03-8.93,2.81-.09,5.57-.87,7.42-3.07,3-3.56,1.84-8.72,1.69-9.32Z"/><path class="cls-4" d="M555.92,803.9c-.14-.57-1.07-4.16-4.48-5.81-2.69-1.3-5.37-.65-7.11,.04,.74-2.22,.95-4.64-.32-6.68-1.89-3.04-5.95-3.42-6.41-3.45-.59-.05-4.29-.27-6.91,2.47-2.21,2.31-2.3,5.31-2.13,7.15-1.88-1.38-4.11-2.31-6.43-1.74-3.48,.86-5.09,4.6-5.27,5.03-.22,.54-1.58,3.99,.21,7.33,1.51,2.82,4.34,3.83,6.15,4.24-1.89,1.36-3.47,3.19-3.64,5.57-.26,3.57,2.8,6.26,3.16,6.56,.45,.38,3.31,2.74,7.04,2.06,3.15-.57,4.98-2.94,5.93-4.54,.71,2.22,1.96,4.29,4.17,5.19,3.32,1.35,6.82-.73,7.22-.98,.5-.31,3.63-2.3,4.14-6.06,.41-3.04-1.13-5.45-2.33-6.87,2.16-.07,4.28-.67,5.71-2.36,2.31-2.74,1.41-6.71,1.3-7.17Z"/><path class="cls-4" d="M700.99,699.52c-.13-.52-.97-3.79-4.08-5.29-2.45-1.18-4.9-.59-6.48,.04,.68-2.03,.86-4.23-.29-6.09-1.72-2.77-5.42-3.11-5.85-3.15-.53-.04-3.91-.25-6.3,2.25-2.01,2.11-2.09,4.84-1.94,6.52-1.71-1.26-3.75-2.11-5.86-1.59-3.17,.78-4.64,4.19-4.8,4.59-.2,.5-1.44,3.64,.19,6.68,1.38,2.57,3.95,3.49,5.6,3.86-1.73,1.24-3.16,2.91-3.32,5.08-.24,3.26,2.55,5.7,2.88,5.98,.41,.35,3.01,2.5,6.41,1.88,2.87-.52,4.54-2.68,5.4-4.13,.65,2.03,1.79,3.91,3.8,4.73,3.02,1.23,6.21-.67,6.58-.89,.46-.28,3.31-2.1,3.77-5.52,.38-2.77-1.03-4.96-2.13-6.26,1.97-.06,3.9-.61,5.2-2.15,2.11-2.5,1.29-6.12,1.19-6.53Z"/><path class="cls-4" d="M794.66,606.97c-.18-.74-1.39-5.41-5.82-7.55-3.49-1.68-6.99-.84-9.24,.05,.96-2.89,1.23-6.04-.41-8.68-2.46-3.96-7.73-4.44-8.34-4.49-.76-.06-5.57-.35-8.98,3.21-2.87,3-2.99,6.9-2.77,9.3-2.44-1.8-5.34-3.01-8.35-2.27-4.52,1.11-6.61,5.98-6.85,6.54-.29,.71-2.06,5.19,.28,9.53,1.97,3.66,5.64,4.97,7.99,5.51-2.46,1.77-4.51,4.15-4.74,7.24-.34,4.65,3.64,8.14,4.11,8.53,.58,.5,4.3,3.56,9.15,2.68,4.09-.74,6.47-3.83,7.71-5.9,.92,2.89,2.55,5.57,5.43,6.74,4.31,1.76,8.86-.95,9.38-1.27,.65-.4,4.71-2.99,5.38-7.87,.54-3.95-1.47-7.08-3.03-8.93,2.81-.09,5.57-.87,7.42-3.07,3-3.56,1.84-8.72,1.69-9.32Z"/><path class="cls-4" d="M885.72,629.98c-.14-.6-1.12-4.37-4.7-6.09-2.82-1.36-5.64-.68-7.46,.04,.78-2.33,.99-4.88-.33-7.01-1.98-3.2-6.24-3.59-6.73-3.62-.62-.05-4.5-.29-7.25,2.59-2.32,2.42-2.41,5.57-2.24,7.51-1.97-1.45-4.31-2.43-6.74-1.83-3.65,.9-5.34,4.83-5.53,5.28-.24,.57-1.66,4.19,.22,7.69,1.59,2.96,4.55,4.02,6.45,4.45-1.99,1.43-3.64,3.35-3.82,5.85-.27,3.75,2.94,6.57,3.32,6.89,.47,.4,3.47,2.87,7.39,2.17,3.3-.6,5.23-3.09,6.22-4.76,.74,2.33,2.06,4.5,4.38,5.44,3.48,1.42,7.16-.77,7.58-1.02,.53-.32,3.81-2.41,4.34-6.36,.43-3.19-1.18-5.72-2.45-7.21,2.27-.07,4.5-.7,5.99-2.48,2.43-2.87,1.48-7.04,1.37-7.52Z"/><path class="cls-4" d="M806.83,660.55c-.09-.37-.69-2.7-2.91-3.78-1.75-.84-3.49-.42-4.62,.03,.48-1.45,.62-3.02-.21-4.34-1.23-1.98-3.87-2.22-4.17-2.25-.38-.03-2.79-.18-4.49,1.6-1.44,1.5-1.49,3.45-1.39,4.65-1.22-.9-2.67-1.5-4.18-1.13-2.26,.56-3.31,2.99-3.42,3.27-.15,.35-1.03,2.6,.14,4.77,.98,1.83,2.82,2.49,4,2.75-1.23,.88-2.26,2.08-2.37,3.62-.17,2.32,1.82,4.07,2.05,4.27,.29,.25,2.15,1.78,4.58,1.34,2.05-.37,3.24-1.91,3.85-2.95,.46,1.44,1.28,2.79,2.71,3.37,2.16,.88,4.43-.47,4.69-.63,.33-.2,2.36-1.5,2.69-3.94,.27-1.98-.73-3.54-1.52-4.47,1.4-.05,2.79-.44,3.71-1.53,1.5-1.78,.92-4.36,.85-4.66Z"/><circle class="cls-7" cx="424.5" cy="531.5" r="9.5"/><circle class="cls-6" cx="483" cy="561" r="7"/><circle class="cls-6" cx="925" cy="1098" r="13"/><circle class="cls-7" cx="890.5" cy="1044.5" r="8.5"/><circle class="cls-6" cx="209" cy="1149" r="14"/><circle class="cls-7" cx="179" cy="1096" r="11"/><circle class="cls-6" cx="222.5" cy="1007.5" r="6.5"/></g></svg>