<?xml version="1.0" encoding="UTF-8"?><svg xmlns="http://www.w3.org/2000/svg" viewBox="0 0 1080 1944"><defs><style>.cls-1{fill:#fff;}.cls-2{stroke:#3f3730;stroke-miterlimit:10;stroke-width:5px;}.cls-2,.cls-3{fill:#3f3730;}.cls-4{fill:#f6ef84;}.cls-5{fill:#bad6eb;}.cls-6{fill:#c8c0de;}.cls-7{fill:#b1d4f0;}</style></defs><g id="_배경_텍스트"><g><rect class="cls-5" width="1080" height="1944"/><rect class="cls-1" x="74.84" y="186.39" width="930.33" height="1606.64" rx="65.21" ry="65.21"/><path class="cls-2" d="M494.88,1608.73c-.64-3.44-1.52-5.72-2.64-6.84-1.12-1.12-2.92-1.76-5.4-1.92-1.28-.16-1.92-.8-1.92-1.92,0-.48,.14-.9,.42-1.26,.28-.36,.74-.54,1.38-.54h21.96c.64,0,1.12,.2,1.44,.6,.32,.4,.48,.8,.48,1.2,0,.48-.16,.9-.48,1.26-.32,.36-.8,.58-1.44,.66-1.6,.16-2.82,.4-3.66,.72-.84,.32-1.4,.78-1.68,1.38-.28,.6-.34,1.42-.18,2.46,.16,1.04,.36,2.32,.6,3.84l9.96,58.32,11.16-58.92c.32-1.76,.48-3.12,.48-4.08s-.2-1.7-.6-2.22c-.4-.52-1-.86-1.8-1.02-.8-.16-1.8-.32-3-.48-.64-.08-1.12-.3-1.44-.66-.32-.36-.48-.78-.48-1.26,0-.4,.14-.8,.42-1.2,.28-.4,.74-.6,1.38-.6h18.12c.64,0,1.12,.2,1.44,.6,.32,.4,.48,.8,.48,1.2,0,1.04-.64,1.68-1.92,1.92-1.36,.24-2.44,.48-3.24,.72-.8,.24-1.48,.64-2.04,1.2s-1.02,1.38-1.38,2.46c-.36,1.08-.74,2.54-1.14,4.38l-15.48,74.64h-5.04l-14.76-74.64Zm64.08,60.84c0,1.92,.14,3.46,.42,4.62,.28,1.16,.68,2.04,1.2,2.64,.52,.6,1.22,1.02,2.1,1.26,.88,.24,1.92,.44,3.12,.6,.56,.08,.96,.3,1.2,.66,.24,.36,.36,.74,.36,1.14s-.14,.78-.42,1.14c-.28,.36-.74,.54-1.38,.54h-21.72c-.64,0-1.1-.18-1.38-.54-.28-.36-.42-.74-.42-1.14s.12-.78,.36-1.14c.24-.36,.64-.58,1.2-.66,1.2-.16,2.24-.36,3.12-.6,.88-.24,1.58-.66,2.1-1.26,.52-.6,.92-1.48,1.2-2.64,.28-1.16,.42-2.7,.42-4.62v-60.72c0-1.92-.14-3.46-.42-4.62-.28-1.16-.68-2.04-1.2-2.64-.52-.6-1.22-1.02-2.1-1.26-.88-.24-1.92-.44-3.12-.6-.56-.08-.96-.3-1.2-.66-.24-.36-.36-.74-.36-1.14s.14-.78,.42-1.14c.28-.36,.74-.54,1.38-.54h21.72c.64,0,1.1,.18,1.38,.54,.28,.36,.42,.74,.42,1.14s-.12,.78-.36,1.14c-.24,.36-.64,.58-1.2,.66-1.2,.16-2.24,.36-3.12,.6-.88,.24-1.58,.66-2.1,1.26-.52,.6-.92,1.48-1.2,2.64-.28,1.16-.42,2.7-.42,4.62v60.72Zm27.6,0c0,1.92,.14,3.46,.42,4.62,.28,1.16,.68,2.04,1.2,2.64,.52,.6,1.22,1.02,2.1,1.26,.88,.24,1.92,.44,3.12,.6,.56,.08,.96,.3,1.2,.66,.24,.36,.36,.74,.36,1.14s-.14,.78-.42,1.14c-.28,.36-.74,.54-1.38,.54h-21.72c-.64,0-1.1-.18-1.38-.54-.28-.36-.42-.74-.42-1.14s.12-.78,.36-1.14c.24-.36,.64-.58,1.2-.66,1.2-.16,2.24-.36,3.12-.6,.88-.24,1.58-.66,2.1-1.26,.52-.6,.92-1.48,1.2-2.64,.28-1.16,.42-2.7,.42-4.62v-60.72c0-1.92-.14-3.46-.42-4.62-.28-1.16-.68-2.04-1.2-2.64-.52-.6-1.22-1.02-2.1-1.26-.88-.24-1.92-.44-3.12-.6-.56-.08-.96-.3-1.2-.66-.24-.36-.36-.74-.36-1.14s.14-.78,.42-1.14c.28-.36,.74-.54,1.38-.54h21.72c.64,0,1.1,.18,1.38,.54,.28,.36,.42,.74,.42,1.14s-.12,.78-.36,1.14c-.24,.36-.64,.58-1.2,.66-1.2,.16-2.24,.36-3.12,.6-.88,.24-1.58,.66-2.1,1.26-.52,.6-.92,1.48-1.2,2.64-.28,1.16-.42,2.7-.42,4.62v60.72Z"/><g><path class="cls-1" d="M410.88,142.03c-5.1,5.49-9.75,8.24-13.95,8.24-2.55,0-4.5-1.23-5.83-3.69-1.33-2.46-2-5.75-2-9.88,0-3.19,.65-7.58,1.96-13.16,1.31-5.58,3-10.28,5.08-14.08l1.98-3.55c-2.71,2.83-4.93,5.92-6.67,9.28-1.73,3.36-3.8,8.06-6.2,14.1-2.4,6.04-4.22,10.15-5.45,12.34s-2.41,3.97-3.54,5.35c-1.13,1.38-2.13,2.27-3.01,2.68-.88,.41-2.41,.62-4.6,.62-.84,0-1.26-.23-1.26-.68,0-.05,.15-.76,.45-2.15,.3-1.39,.61-3.62,.92-6.68s.54-8.27,.68-15.62,1.21-13.64,3.21-18.88c-2.14,2.44-4.33,8.11-6.57,17.02l-.86,3.35c-2.35,9.27-5.04,15.53-8.08,18.78-3.03,3.25-6.01,4.87-8.93,4.87-1.8,0-3.39-.57-4.76-1.71-1.37-1.14-2.05-2.45-2.05-3.93,0-1.14,.82-2.41,2.46-3.83,1.64-1.41,2.68-2.12,3.11-2.12,.5,0,.83,.17,.99,.51,.16,.34,.37,1.28,.62,2.82s.63,2.54,1.15,3.01c.51,.47,1.16,.7,1.94,.7,1.76,0,3.7-1.76,5.83-5.28s4.07-8.96,5.83-16.32l.99-4.13c.8-3.37,1.59-6.06,2.37-8.07,.78-2.01,1.8-4.01,3.08-6.02,1.85-2.87,2.99-4.4,3.41-4.6,.42-.19,1.21-.35,2.38-.48s2.32-.19,3.49-.19c.46,0,.68,.26,.68,.79,0,.25-.07,.76-.21,1.54-.45,3.19-.66,6.39-.64,9.6l.07,9.16c.04,7.98-.59,14.41-1.91,19.31,1.21-1.46,2.96-5.22,5.26-11.28,3.33-8.59,6.36-15.04,9.09-19.35,1.3-2.07,2.87-4.06,4.7-5.96,1.83-1.9,3.1-2.92,3.81-3.06,2.42-.46,4.45-.68,6.12-.68,.62,0,.92,.17,.92,.51,0,.48-.38,1.55-1.12,3.21-1.77,4.01-3.43,9.44-4.96,16.27s-2.31,12.28-2.32,16.33c0,4.58,1.4,6.87,4.2,6.87,2.28,0,4.99-1.94,8.13-5.81v3.93Z"/><path class="cls-1" d="M427.66,142.03c-5.33,5.61-9.32,8.41-11.96,8.41-1.46,0-2.69-.75-3.69-2.24-1-1.49-1.5-3.37-1.5-5.62,0-4.85,1.64-11.57,4.92-20.17l8.68-1.81h.41l-3.42,10.7c-1.41,4.42-2.12,7.58-2.12,9.47,0,.75,.17,1.36,.5,1.83,.33,.47,.75,.7,1.25,.7,.89,0,1.78-.33,2.68-.97s2.32-2.06,4.26-4.22v3.93Zm-.68-34.79c0,5.47-2.02,8.2-6.05,8.2-1.96,0-3.63-.59-5.02-1.78,1.32-2,2.35-4.26,3.08-6.77,1.8,1.12,3.25,1.68,4.34,1.68,1.23,0,2.45-.45,3.66-1.33Z"/><path class="cls-1" d="M461.22,142.03c-5.26,5.56-9.78,8.34-13.54,8.34-1.53,0-2.76-.54-3.69-1.61-.93-1.07-1.4-2.51-1.4-4.31,0-2.44,1-6.16,3.01-11.18,1.07-2.69,1.61-4.4,1.61-5.13s-.29-1.09-.85-1.09c-.32,0-.74,.16-1.26,.48-.48,.32-1.04,.76-1.67,1.33-.57,.52-1.21,1.16-1.91,1.91-.62,.64-1.28,1.37-1.98,2.19l-1.91,2.22c-.84,1.03-1.37,2.11-1.57,3.25-.34,1.94-.57,3.71-.68,5.33-.07,1.21-.1,2.84-.1,4.89l-7.55,1.78c-.25-3.08-.38-5.37-.38-6.87,0-3.67,.43-7.14,1.28-10.43,.86-3.28,2.23-6.97,4.12-11.07l8.34-1.61c-1.75,4.72-2.91,8.43-3.45,11.14,3.73-4.17,6.7-7.06,8.89-8.67,2.19-1.61,4.15-2.41,5.85-2.41,1.16,0,2.13,.44,2.9,1.31,.77,.88,1.16,1.97,1.16,3.29,0,2.18-.98,5.78-2.94,10.8-1.34,3.44-2.02,5.68-2.02,6.7,0,1.37,.56,2.06,1.68,2.06,1.67,0,4.36-2.2,8.09-6.6v3.93Z"/><path class="cls-1" d="M491.88,142.03c-1.16,1.03-2.29,1.75-3.38,2.17-1.09,.42-1.96,.63-2.6,.63-1.64,0-3.27-.64-4.89-1.91-3.28,4.97-7.04,7.45-11.28,7.45-2.64,0-4.79-.99-6.43-2.97s-2.46-4.62-2.46-7.9c0-5.2,1.85-9.66,5.54-13.38s8.1-5.59,13.23-5.59c1.94,0,3.35,.21,4.25,.63,.9,.42,1.45,.92,1.66,1.49,.21,.57,.31,1.29,.31,2.15,0,4.26-1.16,9.49-3.49,15.69,1.16,1.07,2.38,1.61,3.66,1.61,1.53,0,3.49-1.33,5.88-4v3.93Zm-11.28-19.11c-.34-.14-.83-.21-1.47-.21-2.96,0-5.28,1.55-6.96,4.65-1.67,3.1-2.51,6.72-2.51,10.87,0,2.3,.36,4.09,1.09,5.37,.73,1.28,1.74,1.91,3.04,1.91,1.62,0,3.37-1.49,5.26-4.48-2.14-2.69-3.21-5.58-3.21-8.68,0-3.65,1.58-6.79,4.75-9.43Z"/><path class="cls-1" d="M517.42,142.03c-5.72,5.61-10.13,8.41-13.23,8.41-1.39,0-2.56-.59-3.52-1.76s-1.44-2.63-1.44-4.36c0-3.21,1.72-7.52,5.16-12.92-1.69,.87-3.53,1.47-5.54,1.81-1.48,2.73-3.81,5.67-6.97,8.82h-.79v-3.08c1.78-1.85,3.38-3.83,4.82-5.95-1.96-.87-2.94-2.15-2.94-3.86s.6-3.63,1.79-5.62c1.2-1.99,2.84-2.99,4.94-2.99,1.78,0,2.67,.91,2.67,2.73,0,1.44-.51,3.49-1.54,6.15,3.78-.41,7.09-3.3,9.91-8.68l3.11-.14-3.18,8.75c-1.32,3.69-2.18,6.2-2.56,7.54-.39,1.33-.58,2.51-.58,3.54,0,.96,.22,1.72,.67,2.29,.44,.57,1.04,.86,1.79,.86,.82,0,1.61-.28,2.36-.84s2.44-2.1,5.06-4.63v3.93Z"/><path class="cls-1" d="M582.32,142.06c-5.24,5.58-10.05,8.37-14.42,8.37-2.42,0-4.33-.85-5.74-2.56-1.41-1.71-2.2-4.15-2.36-7.31-2.76,3.35-5.2,5.83-7.33,7.45-2.13,1.62-4.4,2.43-6.82,2.43-3.1,0-5.59-1.34-7.47-4.02-1.88-2.68-2.82-6.25-2.82-10.71,0-5.33,1.23-10.83,3.69-16.49s6.11-10.13,10.94-13.42c4.83-3.28,10.69-4.92,17.57-4.92,5.15,0,9.81,.7,13.98,2.09v2.26c-3.4,3.96-6.24,9.51-8.53,16.64-2.29,7.13-3.44,12.57-3.44,16.3,0,1.82,.37,3.24,1.11,4.24,.74,1,1.77,1.5,3.09,1.5,2.37,0,5.22-1.93,8.54-5.78v3.93Zm-9.95-36.85c-2.1-1.14-4.35-1.71-6.77-1.71-3.81,0-7.24,1.59-10.29,4.77-3.05,3.18-5.46,7.39-7.23,12.63-1.77,5.24-2.65,9.79-2.65,13.64,0,2.57,.5,4.67,1.49,6.27,.99,1.61,2.26,2.41,3.81,2.41,2.69,0,5.78-2.45,9.26-7.35,1.44-12.85,5.56-23.07,12.37-30.66Z"/><path class="cls-1" d="M607.85,142.03c-5.72,5.61-10.13,8.41-13.23,8.41-1.39,0-2.56-.59-3.52-1.76s-1.44-2.63-1.44-4.36c0-3.21,1.72-7.52,5.16-12.92-1.69,.87-3.53,1.47-5.54,1.81-1.48,2.73-3.81,5.67-6.97,8.82h-.79v-3.08c1.78-1.85,3.38-3.83,4.82-5.95-1.96-.87-2.94-2.15-2.94-3.86s.6-3.63,1.79-5.62c1.2-1.99,2.84-2.99,4.94-2.99,1.78,0,2.67,.91,2.67,2.73,0,1.44-.51,3.49-1.54,6.15,3.78-.41,7.09-3.3,9.91-8.68l3.11-.14-3.18,8.75c-1.32,3.69-2.18,6.2-2.56,7.54-.39,1.33-.58,2.51-.58,3.54,0,.96,.22,1.72,.67,2.29,.44,.57,1.04,.86,1.79,.86,.82,0,1.61-.28,2.36-.84s2.44-2.1,5.06-4.63v3.93Z"/><path class="cls-1" d="M633.42,142.03c-2.92,2.87-5.59,4.98-8.02,6.32-2.43,1.34-4.96,2.02-7.6,2.02-2.96,0-5.41-.96-7.33-2.89-1.93-1.92-2.89-4.37-2.89-7.33,0-4.85,1.77-9.34,5.31-13.45,3.54-4.11,7.38-6.17,11.5-6.17,2.03,0,3.68,.56,4.96,1.69,1.28,1.13,1.91,2.59,1.91,4.39,0,.64-.12,1.12-.36,1.44-.24,.32-.69,.64-1.35,.96l-3.96,1.88c-.48,.23-.83,.34-1.06,.34-.32,0-.48-.23-.48-.68,0-.18,.07-.78,.21-1.79,.14-1.01,.21-1.63,.21-1.86,0-1-.21-1.81-.63-2.43s-.99-.92-1.69-.92c-1.66,0-3.18,1.23-4.56,3.69-1.38,2.46-2.07,5.26-2.07,8.41,0,2.71,.65,4.88,1.95,6.49,1.3,1.62,3.03,2.43,5.2,2.43,1.85,0,3.58-.53,5.21-1.59s3.48-2.68,5.55-4.87v3.93Z"/><path class="cls-1" d="M669.92,142.03c-3.65,3.46-6.25,5.72-7.83,6.77-1.57,1.05-3.08,1.57-4.51,1.57-3.6,0-5.3-3.18-5.09-9.54-2.28,3.26-4.38,5.66-6.31,7.21-1.93,1.55-3.91,2.32-5.96,2.32s-3.71-.94-5.11-2.82c-1.4-1.88-2.1-4.19-2.1-6.92,0-3.42,.94-6.68,2.82-9.78,1.88-3.1,4.29-5.61,7.23-7.52s5.54-2.87,7.79-2.87c2.85,0,4.84,1.31,5.98,3.93l6.99-3.86h1.92l-3.01,10.01c-1.55,5.04-2.33,8.49-2.33,10.36,0,1.96,.69,2.94,2.08,2.94,.89,0,1.87-.47,2.94-1.42,1.07-.95,2.57-2.39,4.51-4.32v3.93Zm-25.02,1.88c2.28,0,4.43-1.94,6.44-5.83,2.02-3.88,3.02-7.47,3.02-10.75,0-1.28-.29-2.27-.85-2.99-.57-.72-1.33-1.08-2.29-1.08-2.28,0-4.44,1.94-6.48,5.81-2.04,3.87-3.06,7.44-3.06,10.7,0,1.23,.3,2.23,.91,2.99,.6,.76,1.37,1.15,2.31,1.15Z"/><path class="cls-1" d="M703.46,142.03c-5.26,5.56-9.78,8.34-13.54,8.34-1.53,0-2.76-.54-3.69-1.61-.93-1.07-1.4-2.51-1.4-4.31,0-2.44,1-6.16,3.01-11.18,1.07-2.69,1.61-4.4,1.61-5.13s-.29-1.09-.85-1.09c-.32,0-.74,.16-1.26,.48-.48,.32-1.04,.76-1.67,1.33-.57,.52-1.21,1.16-1.91,1.91-.62,.64-1.28,1.37-1.98,2.19l-1.91,2.22c-.84,1.03-1.37,2.11-1.57,3.25-.34,1.94-.57,3.71-.68,5.33-.07,1.21-.1,2.84-.1,4.89l-7.55,1.78c-.25-3.08-.38-5.37-.38-6.87,0-3.67,.43-7.14,1.28-10.43,.86-3.28,2.23-6.97,4.12-11.07l8.34-1.61c-1.75,4.72-2.91,8.43-3.45,11.14,3.73-4.17,6.7-7.06,8.89-8.67,2.19-1.61,4.15-2.41,5.85-2.41,1.16,0,2.13,.44,2.9,1.31,.77,.88,1.16,1.97,1.16,3.29,0,2.18-.98,5.78-2.94,10.8-1.34,3.44-2.02,5.68-2.02,6.7,0,1.37,.56,2.06,1.68,2.06,1.67,0,4.36-2.2,8.09-6.6v3.93Z"/><path class="cls-1" d="M739.92,142.03c-3.65,3.46-6.25,5.72-7.83,6.77-1.57,1.05-3.08,1.57-4.51,1.57-3.6,0-5.3-3.18-5.09-9.54-2.28,3.26-4.38,5.66-6.31,7.21-1.93,1.55-3.91,2.32-5.96,2.32s-3.71-.94-5.11-2.82c-1.4-1.88-2.1-4.19-2.1-6.92,0-3.42,.94-6.68,2.82-9.78,1.88-3.1,4.29-5.61,7.23-7.52s5.54-2.87,7.79-2.87c2.85,0,4.84,1.31,5.98,3.93l6.99-3.86h1.92l-3.01,10.01c-1.55,5.04-2.33,8.49-2.33,10.36,0,1.96,.69,2.94,2.08,2.94,.89,0,1.87-.47,2.94-1.42,1.07-.95,2.57-2.39,4.51-4.32v3.93Zm-25.02,1.88c2.28,0,4.43-1.94,6.44-5.83,2.02-3.88,3.02-7.47,3.02-10.75,0-1.28-.29-2.27-.85-2.99-.57-.72-1.33-1.08-2.29-1.08-2.28,0-4.44,1.94-6.48,5.81-2.04,3.87-3.06,7.44-3.06,10.7,0,1.23,.3,2.23,.91,2.99,.6,.76,1.37,1.15,2.31,1.15Z"/></g><g><path class="cls-1" d="M472.58,1852.82c-4.1,7.7-8.57,11.55-13.4,11.55-2.53,0-4.56-.93-6.08-2.79s-2.29-4.31-2.29-7.37c0-3.55,1.27-8.96,3.81-16.2s3.81-12.37,3.81-15.38c0-1.34-.38-2.46-1.14-3.35s-1.71-1.33-2.85-1.33c-1.76,0-3.5,1.07-5.23,3.21-1.73,2.14-2.6,4.33-2.6,6.56,0,1.71,.78,3.49,2.32,5.33,.64,.78,.96,1.31,.96,1.61,0,.34-.49,1.11-1.47,2.29-.98,1.19-1.82,1.78-2.53,1.78-.75,0-1.61-.55-2.56-1.64s-1.44-2.72-1.44-4.89c0-4.4,1.54-8.4,4.63-12,3.09-3.6,6.5-5.4,10.24-5.4,2.8,0,5.17,1.16,7.11,3.48,1.94,2.32,2.9,5.21,2.9,8.67-.03,3.64-1.21,8.8-3.54,15.47-2.33,6.67-3.48,11.13-3.47,13.39,0,1.07,.27,1.92,.82,2.55,.55,.63,1.28,.94,2.19,.94,1.98,0,3.95-1.62,5.91-4.85,1.96-3.23,3.75-7.87,5.37-13.91l3.21-12.03c1.25-4.74,2.65-8.88,4.2-12.41,.16-.39,1.22-.69,3.19-.91,1.97-.22,3.4-.33,4.29-.33s1.33,.18,1.33,.54l-6.27,23.86c-1.79,7-2.68,12.11-2.68,15.35,0,1.41,.3,2.54,.89,3.37s1.39,1.25,2.39,1.25c1.48,0,3.5-1.21,6.07-3.64,2.56-2.43,4.72-5.53,6.48-9.3,1.75-3.77,2.63-7.63,2.63-11.57,0-4.22-1.03-8.41-3.08-12.58-.57-1.21-.85-1.96-.85-2.26,0-.98,.94-2.06,2.82-3.25,1.88-1.18,3.23-1.78,4.05-1.78,.78,0,1.56,1.03,2.34,3.09,.79,2.06,1.18,4.22,1.18,6.48,0,5.99-1.4,12.13-4.21,18.41s-6.29,11.43-10.46,15.47-7.94,6.05-11.31,6.05c-2.39,0-4.29-.96-5.69-2.89-1.4-1.92-2.07-4.81-2-8.67Z"/><path class="cls-1" d="M542.65,1856.03c-3.65,3.46-6.25,5.72-7.83,6.77-1.57,1.05-3.08,1.57-4.51,1.57-3.6,0-5.3-3.18-5.09-9.54-2.28,3.26-4.38,5.66-6.31,7.21-1.93,1.55-3.91,2.32-5.96,2.32s-3.71-.94-5.11-2.82c-1.4-1.88-2.1-4.19-2.1-6.92,0-3.42,.94-6.68,2.82-9.78,1.88-3.1,4.29-5.61,7.23-7.52s5.54-2.87,7.79-2.87c2.85,0,4.84,1.31,5.98,3.93l6.99-3.86h1.92l-3.01,10.01c-1.55,5.04-2.33,8.49-2.33,10.36,0,1.96,.7,2.94,2.08,2.94,.89,0,1.87-.47,2.94-1.42,1.07-.95,2.57-2.39,4.51-4.32v3.93Zm-25.02,1.88c2.28,0,4.43-1.94,6.44-5.83,2.02-3.88,3.03-7.47,3.03-10.75,0-1.28-.29-2.27-.86-2.99s-1.33-1.08-2.29-1.08c-2.28,0-4.44,1.94-6.48,5.81-2.04,3.87-3.06,7.44-3.06,10.7,0,1.23,.3,2.23,.91,2.99,.6,.76,1.37,1.15,2.31,1.15Z"/><path class="cls-1" d="M576.18,1856.03c-5.26,5.56-9.78,8.34-13.54,8.34-1.53,0-2.76-.54-3.69-1.61-.94-1.07-1.4-2.51-1.4-4.31,0-2.44,1-6.16,3.01-11.18,1.07-2.69,1.61-4.4,1.61-5.13s-.29-1.09-.86-1.09c-.32,0-.74,.16-1.26,.48-.48,.32-1.04,.76-1.68,1.33-.57,.52-1.21,1.16-1.91,1.91-.62,.64-1.28,1.37-1.98,2.19l-1.91,2.22c-.84,1.03-1.37,2.11-1.57,3.25-.34,1.94-.57,3.71-.68,5.33-.07,1.21-.1,2.84-.1,4.89l-7.55,1.78c-.25-3.08-.38-5.37-.38-6.87,0-3.67,.43-7.14,1.28-10.43,.86-3.28,2.23-6.97,4.12-11.07l8.34-1.61c-1.76,4.72-2.91,8.43-3.45,11.14,3.73-4.17,6.7-7.06,8.89-8.67s4.15-2.41,5.85-2.41c1.16,0,2.13,.44,2.9,1.31,.77,.88,1.16,1.97,1.16,3.29,0,2.18-.98,5.78-2.94,10.8-1.35,3.44-2.02,5.68-2.02,6.7,0,1.37,.56,2.06,1.68,2.06,1.67,0,4.36-2.2,8.09-6.6v3.93Z"/><path class="cls-1" d="M612.65,1856.03c-3.28,3.26-5.78,5.46-7.5,6.61s-3.24,1.73-4.56,1.73c-1.62,0-2.9-.79-3.85-2.36s-1.43-3.87-1.45-6.9c-1.87,3.03-3.9,5.33-6.1,6.9s-4.19,2.36-5.96,2.36c-1.94,0-3.65-.92-5.13-2.75-1.48-1.83-2.22-3.98-2.22-6.44,0-5.08,1.85-9.79,5.55-14.13s7.68-6.51,11.95-6.51c1.19,0,2.11,.17,2.79,.51s1.41,.92,2.21,1.74l4.89-20.44c3.99-.93,6.68-1.4,8.07-1.4,.46,0,.68,.18,.68,.55,0,.25-.57,2.61-1.71,7.08-4.55,17.87-6.83,28.64-6.83,32.33,0,.87,.18,1.56,.55,2.08,.36,.52,.84,.79,1.43,.79,1.46,0,3.86-1.89,7.2-5.67v3.93Zm-24.71,1.81c2.23,0,4.32-1.89,6.25-5.67,1.94-3.78,2.91-7.33,2.91-10.63,0-1.34-.3-2.41-.91-3.21-.6-.8-1.4-1.2-2.38-1.2-2.12,0-4.17,1.98-6.15,5.93s-2.97,7.53-2.97,10.71c0,1.25,.29,2.25,.87,2.97,.58,.73,1.37,1.09,2.38,1.09Z"/><path class="cls-1" d="M623.14,1836c1.57-.41,3.15-.75,4.75-1.01s2.55-.39,2.87-.39c.23,0,.34,.09,.34,.27,0,.34-.09,.69-.27,1.06-.37,1.05-.55,2.05-.55,3.01,0,1.18,.69,2.8,2.05,4.85s2.05,3.96,2.05,5.71c0,3.49-1.67,6.85-5.01,10.08-3.34,3.24-6.8,4.85-10.38,4.85-1.55,0-2.96-.41-4.24-1.23s-1.91-1.7-1.91-2.63c0-.55,.63-1.58,1.9-3.11,1.26-1.53,2.17-2.29,2.72-2.29,.73,0,1.38,.93,1.95,2.8,.57,1.87,1.55,2.8,2.94,2.8s2.7-.64,3.91-1.93,1.83-2.67,1.83-4.15c0-1.44-.77-3.35-2.32-5.74-1.55-2.39-2.58-4.4-3.08-6.01-2.64,4.26-5.99,8.62-10.05,13.09h-.79v-3.08c5.58-5.95,9.34-11.6,11.28-16.95Z"/></g></g></g><g id="_반짝이"><polygon class="cls-6" points="695.75 470.87 713.23 538.7 769.52 552.63 713.23 567.92 695.75 637 677.33 567.92 621.98 552.63 677.33 538.7 695.75 470.87"/><polygon class="cls-7" points="329.75 697.87 341.13 742.02 377.77 751.08 341.13 761.03 329.75 806 317.76 761.03 281.73 751.08 317.76 742.02 329.75 697.87"/><circle class="cls-7" cx="767" cy="614" r="10"/><circle class="cls-6" cx="824" cy="675" r="13"/><circle class="cls-7" cx="798.5" cy="724.5" r="9.5"/><circle class="cls-6" cx="405.5" cy="813.5" r="10.5"/><circle class="cls-6" cx="180.5" cy="1029.5" r="14.5"/><circle class="cls-7" cx="195.5" cy="1088.5" r="10.5"/><circle class="cls-6" cx="250.5" cy="723.5" r="11.5"/><circle class="cls-7" cx="460.5" cy="779.5" r="8.5"/></g><g id="_완드_7"><path class="cls-4" d="M255.25,623.37c20.23,3.66,32.77,5.92,46.78,.23,20.99-8.53,39.51-32.56,46.61-54.18,9.21-28.06-1.19-50.93-15.75-60.8-15.44-10.46-28.55-1.56-43.16-10.41-11.09-6.73-21.3-22.63-17.85-62.75-4.39,5.89-11.07,16.02-15.36,29.07-6.11,18.57-3.9,32.37-2.49,38.36-4.56-6.02-11.32-12.57-21.25-17.11-33.86-15.46-76.62,5.29-85.49,9.79,6.79-.15,27.77,.34,41.2,16.72,6.45,7.86,8.94,16.7,9.99,22.88-1.64,1.08-17.36,11.17-31.2,6.16-9.88-3.57-12.65-12.61-13.31-15.12-.72,3.96-1.07,8.47-.48,13.11,2.45,19.22,19.14,25.79,23.48,27.32-1.48-.23-9.26-1.24-18.15,4.77-6.15,4.16-9.57,9.47-10.82,11.61,4.75-.71,11.92-1.38,19.94-.39,5.99,.74,13.65,2.55,33.25,14.73,18.95,11.78,20.7,15.62,33.69,20.57,8.62,3.28,15.78,4.61,20.38,5.44Z"/><path class="cls-3" d="M216.15,554.11c-4.26,9.42-1.8,18.81-.78,22.03,1.06,3.34,3.59,11.31,11.25,16.99,5.74,4.25,11.09,4.77,19.12,6.41,11.48,2.34,5,2.17,37.65,11.64,27.5,7.98,26.15,6.38,37.07,10.46,13.6,5.08,12.77,6.47,31.92,14.75,16.26,7.03,20.67,7.68,40.32,15.59,13.43,5.41,24.04,10.2,30.42,13.17-3.8,2.95-8.35,6.04-13.73,8.96-9.99,5.43-19.65,8.57-27.51,10.45,1.79,5.13,3.59,10.25,5.38,15.38,4.05-.43,10.36-1.02,18.15-1.46,20.8-1.17,29.4,.05,43.09-.92,8-.56,19.57-2.01,33.29-6.09,2.08,1.14,5.15,2.8,8.88,4.78,6.17,3.27,9.25,4.91,10.72,5.57,7.21,3.25,8.95,2.56,18.19,6.01,3.06,1.14,5.72,2.36,11.06,4.79,10.31,4.7,12.03,6.05,19.02,9.17,7.03,3.13,7.05,2.54,17.85,6.8,6.32,2.49,13.82,5.45,21.2,9.18,5.2,2.63,7.45,4.18,23.19,14.7,17.01,11.36,25.58,17.09,28.96,19.06,10.68,6.24,11.33,5.61,24.79,13.53,12.24,7.2,17.32,11.02,20.43,13.5,7.32,5.85,6.63,6.61,11.21,9.51,6.21,3.94,10.97,4.75,24.99,8.02,14.68,3.42,22.02,5.13,25.67,6.45,8.81,3.19,7.28,4,26.05,13.14,13.76,6.7,17.21,7.54,25.13,12.74,4.88,3.21,5.05,3.86,13.97,10.71,7.69,5.9,16.14,12.4,26.78,19.05,13.43,8.4,11,4.95,28.48,15.13,5.55,3.23,13.44,8.03,23.73,8.41,.92,.03,1.67,.03,2.18,.01,2.27-2.64,5.35-6.81,7.62-12.54,1.74-4.39,4.02-10.17,2.77-16.51-1.14-5.74-5.05-11.34-16.45-20.17-14.3-11.07-26.78-16.69-35.76-21.07-1.89-.92-17.56-10.16-48.91-28.63-42.67-25.15-41.81-25.29-50.75-29.43-18.41-8.53-24.1-8.87-36.19-17.53-11.83-8.48-14.72-14.12-26.1-20.62-11.96-6.83-23.73-9.14-31.78-10.03-2.12-3.82-5.64-9.13-11.35-14.23-10.44-9.33-20.63-11.22-36.53-16.75-4.92-1.71-25.65-9.07-46.67-21.14-19.05-10.94-15.53-12.65-35.66-23.82-10.08-5.6-17.53-8.82-24.36-17.07-1.8-2.17-4.56-6.32-10.09-14.62-5.91-8.87-7.16-11.26-11.01-15.02-.74-.72-11.09-10.68-15.91-8.75-1.25,.5-1.82,1.68-1.94,1.96-.97,2.19,.69,4.59,2.23,7.49,2.77,5.2,.98,4.14,5.14,13.41,.96,2.14,2.31,4.98,4.07,8.29-4.15-1.92-10.52-4.78-18.44-7.98-9.15-3.7-17.78-7.2-29.26-10.8-11.61-3.64-16.39-4.34-24.65-8.81-5.06-2.74-8.71-4.76-11.55-8.73-4.29-5.99-2.71-10.81-6.4-13.02-1.87-1.12-5.44-1.78-12.86,1.89-4.61-2.49-8.49-3.94-11.06-4.79-7.97-2.62-11.63-2.13-17.27-5.61-1.58-.98-4.22-2.64-6.36-5.55-3.66-4.98-1.92-9.15-2.62-14.18-1.46-10.42-12.12-18.29-15.18-20.55-12.41-9.16-26.11-9.22-29.94-9.23-7-.03-13.27,2.16-25.81,6.53-8.71,3.04-17.03,5.98-26.93,11.64-12.47,7.12-18.71,10.68-22.18,18.35Z"/><path class="cls-3" d="M699.11,842.37c-2.16-1.88-7.13-6.05-15.87-6.37-5.59-.2-13.8,1.13-18.27,4.88-3.34,2.82-3.95,6.46,1.88,21.96,3.67,9.76,6.91,16.28,10.04,23.31,3.68,8.27,5.93,14.34,8.55,21.43,6.9,18.63,10.59,33.29,11.44,36.72,2.06,8.32,3.56,17.14,6.56,34.76,2.6,15.28,3.8,23.62,6.12,38.44,1.84,11.75,4.3,27.16,7.43,45.4,5.68,33.11,6.65,34.86,7.83,47.48,1.59,17.16,.08,17.01,1.5,37.87,.93,13.72,2.73,26.46,6.3,51.37,4.57,31.95,5.51,33.38,7.26,50.47,2.54,24.78,3.81,37.18,2.42,42.74-4.8,19.16-4.11,25.9-2.73,39.39,.25,2.46,.9,7.54,6.19,8.91,4.33,1.12,10.4-.61,14.17-2.67,8.94-4.89,8.79-13.8,9.28-22.63,1.36-24.69,6.05-18.45,6.13-39.31,.07-17.15-3.09-25.01-10.23-54.23-7.51-30.74-11.27-46.1-12.5-60.28-2.37-27.32,2.84-28.71,1.37-58.57-.65-13.26-1.88-17.08-11.23-65.56-3.47-18.01-8.61-44.6-13.5-71.61-4.21-23.2-13.35-45.67-13.11-69.52,0,0,.4-39.23-17.03-54.39Z"/><path class="cls-3" d="M287.49,802.92c-1.63-2.36-5.4-7.62-13.8-10.1-5.37-1.58-13.65-2.33-18.91,.21-3.93,1.9-5.42,5.28-3.62,21.75,1.14,10.36,2.66,17.48,3.95,25.07,1.52,8.92,2.19,15.36,2.98,22.88,2.07,19.76,2.01,34.88,1.98,38.41-.07,8.58-.8,17.48-2.26,35.3-1.27,15.45-2.17,23.83-3.59,38.76-1.13,11.84-2.56,27.37-4.05,45.82-2.7,33.49-2.19,35.42-4.18,47.94-2.71,17.02-4.13,16.5-7.93,37.07-2.5,13.52-3.91,26.31-6.62,51.33-3.48,32.09-2.93,33.7-5.47,50.69-3.68,24.64-5.52,36.96-8.25,42.01-9.39,17.37-10.4,24.08-12.4,37.49-.37,2.44-.99,7.53,3.79,10.17,3.92,2.16,10.23,1.98,14.39,.92,9.88-2.53,11.93-11.19,14.59-19.62,7.43-23.58,10.43-16.38,15.68-36.57,4.32-16.6,3.21-25,3.53-55.07,.34-31.64,.51-47.46,2.83-61.5,4.47-27.06,9.86-27.12,15.84-56.41,2.65-13.01,2.41-17.01,5.36-66.3,1.09-18.31,2.71-45.34,4.66-72.72,1.67-23.52-1.62-47.55,4.52-70.6,0,0,10.11-37.91-3.02-56.91Z"/><path class="cls-3" d="M492.34,893c5.44-6.07,7.26-7.93,10.23-8.21,3.14-.3,4.14,1.49,11.16,4.69,9.61,4.37,12.4,3.15,14.6,6.03,2.8,3.66,.66,8.78-1.63,14.27-2.01,4.81-3.81,5.97-5.08,10.89-.86,3.33-.59,4.92-.81,8.15-.74,10.74-5.09,12.14-5.03,19.04,.06,6.87,4.39,7.66,7.81,16.93,2.24,6.07,2.5,11.47,1.83,20.36-1.51,20.23-6.31,38.78-7.46,43.49-3.16,12.95-2.86,26.52-2.26,53.65,.63,28.49,3.59,35.92,7.34,84.82,.74,9.63,.96,13.67,1.84,21.71,1.72,15.64,3.12,20.68,3.62,33.25,.24,6.03-.04,6.08,.09,16.29,.17,12.94,1.91,17.16,1.01,27.15-.57,6.4-1.22,5.67-1.65,11.55-.59,8.11,.49,11.49,1.85,23.75,2.05,18.5,1.02,23.68-1.55,28.52-.63,1.18-4.87,9.21-9.37,8.88-3.04-.22-4.95-4.16-6.04-6.75-7.5-17.92-5.85-44.01-5.44-52.25,.4-7.92,.93-19.3-.2-33.94-1.86-24.29-5.56-22.12-6.24-42.06-.5-14.81,1.33-22.28-5.32-31.88-3.69-5.33-6.74-6.6-8.64-12.17-2.92-8.57,1.33-14.17,3.29-23.78,1.82-8.95-.67-10.19-1.87-26.47-.93-12.72,.37-13.46,.66-34.63,.15-10.77,.34-24.77-1.1-42.09-2.12-25.51-4.95-24.09-3.63-35.96,1.22-11,4.22-17.52,1.55-29.2-.94-4.11-1.78-5.32-4.37-14.91-2.63-9.74-3.95-14.62-4.39-18.98-.74-7.34-1.82-17.99,4.98-28.54,.49-.75,3.73-4.37,10.21-11.6Z"/><path class="cls-3" d="M357.98,864.58c-3.11-1.64-7.87-1.41-11.2-.02-2.5,1.04-3.89,2.62-8.55,9.47-4.68,6.89-7.02,10.33-7.32,11.37-.83,2.82-.74,5.23,2.56,18.06,1.15,4.49,1.73,6.74,2.92,10.86,4,13.89,1.57,21.01,3.06,34.38,.95,8.48,2.11,7.28,7.84,27.76,3.53,12.61,7.03,25.13,9.36,40.32,2.58,16.84,.71,17.4,3.79,42.8,1.48,12.21,2.42,19.69,4.77,29.77,3.69,15.76,6.61,19.71,10.68,33.65,3.77,12.92,2.74,14.62,7.51,44.23,3.95,24.47,5.92,36.71,9.52,50.27,6.88,25.93,10.4,25.75,13.86,45.89,1.86,10.82,5.98,21.34,6.13,32.37,.07,5.51-.34,12.55,5.18,18.28,.59,.61,6.95,7.05,13.08,5.37,5.51-1.51,7.39-8.64,8.16-11.53,2.18-8.27-.25-14.43-2.25-20.98-5.55-18.15-1.35-18.16-7.17-37.88-3.19-10.81-5.94-15.84-8.59-22.63-6.78-17.34-5.16-26.22-7.63-58.48-3.2-41.88-4.8-62.86-11.36-82.74-3.35-10.17-6.81-16.42-6.05-27.39,.63-9.11,3.74-15.19-.14-23.51-1.67-3.57-3.3-4.73-6.38-10.92-2.74-5.51-4.11-9.96-5.1-13.3-7.12-23.99-9.67-37.4-9.67-37.4-4.67-24.54-2.36-22.7-6.55-43.7-5.25-26.31-7.94-24.6-7.74-36.34,.23-13.65,4.02-24.47-2.72-28.02Z"/><path class="cls-3" d="M845.96,924.09c-2.08-1.86-5.69-2.48-8.42-1.91-2.04,.43-3.34,1.48-7.92,6.29-4.6,4.84-6.9,7.26-7.3,8.06-1.06,2.16-1.38,4.15-.92,15.19,.16,3.86,.24,5.8,.48,9.37,.82,12.02-2.13,17.43-3.12,28.6-.63,7.09,.44,6.3,1.52,24.01,.66,10.9,1.32,21.72,.68,34.52-.72,14.2-2.21,14.33-3.89,35.61-.81,10.22-1.29,16.49-1.1,25.13,.29,13.5,1.86,17.22,2.72,29.29,.79,11.19-.25,12.4-1.33,37.41-.89,20.66-1.34,30.99-.77,42.68,1.08,22.35,3.76,22.79,3.18,39.83-.31,9.16,1.13,18.44-.5,27.48-.81,4.52-2.23,10.19,1.01,15.81,.35,.6,4.11,6.93,8.98,6.6,4.38-.3,6.92-5.81,7.95-8.04,2.94-6.39,2.09-11.83,1.62-17.52-1.31-15.76,1.85-15.07,.58-32.16-.69-9.37-1.97-13.95-2.89-19.94-2.36-15.31,.25-22.29,3.49-49.07,4.2-34.76,6.3-52.17,4.51-69.52-.92-8.87-2.53-14.57-.23-23.4,1.91-7.34,5.21-11.78,3.6-19.24-.69-3.19-1.73-4.42-3.07-10-1.19-4.96-1.52-8.84-1.74-11.73-1.57-20.81-1.37-32.19-1.37-32.19,.36-20.84,1.8-18.95,1.96-36.81,.2-22.38-2.09-21.44-.09-31,2.33-11.11,6.88-19.32,2.37-23.35Z"/><path class="cls-3" d="M603.15,993.41c2.25-1.28,5.9-1.39,8.55-.62,1.99,.58,3.18,1.57,7.26,5.99,4.11,4.44,6.16,6.66,6.48,7.35,.85,1.87,.97,3.52-.54,12.44-.53,3.12-.8,4.68-1.38,7.56-1.97,9.68,.44,14.4,.34,23.58-.06,5.83-1.04,5.07-3.82,19.34-1.71,8.78-3.41,17.5-4,27.97-.65,11.62,.82,11.89,.44,29.36-.18,8.4-.31,13.54-1.32,20.54-1.59,10.94-3.51,13.79-5.53,23.5-1.87,9-.95,10.11-2.29,30.54-1.1,16.88-1.66,25.33-3.35,34.76-3.23,18.04-5.93,18.1-7,32.01-.57,7.47-2.9,14.86-2.15,22.38,.37,3.76,1.24,8.53-2.53,12.73-.4,.45-4.76,5.18-9.56,4.37-4.32-.73-6.32-5.49-7.12-7.41-2.31-5.51-.94-9.84,.08-14.41,2.82-12.66-.38-12.45,2.52-26.19,1.59-7.54,3.3-11.11,4.79-15.88,3.82-12.18,1.9-18.14,1.26-40.25-.82-28.7-1.24-43.09,2.22-56.98,1.77-7.11,3.92-11.56,2.48-18.99-1.19-6.17-4.04-10.15-1.72-16.03,.99-2.52,2.15-3.4,4.01-7.78,1.66-3.9,2.36-7.01,2.86-9.34,3.56-16.73,4.46-26.01,4.46-26.01,1.65-16.97,.03-15.6,1.59-30.13,1.95-18.21,4.14-17.19,3.08-25.18-1.24-9.29-4.98-16.46-.11-19.24Z"/></g></svg>