<?xml version="1.0" encoding="UTF-8"?><svg xmlns="http://www.w3.org/2000/svg" viewBox="0 0 1080 1944"><defs><style>.cls-1{fill:#fff;}.cls-2{stroke:#3f3730;stroke-miterlimit:10;stroke-width:5px;}.cls-2,.cls-3{fill:#3f3730;}.cls-4{fill:#f6ef84;}.cls-5{fill:#bad6eb;}.cls-6{fill:#c8c0de;}.cls-7{fill:#b1d4f0;}</style></defs><g id="_배경_텍스트"><g><rect class="cls-5" width="1080" height="1944"/><rect class="cls-1" x="74.84" y="186.39" width="930.33" height="1606.64" rx="65.21" ry="65.21"/><path class="cls-2" d="M493.08,1608.73c-.56-3.44-1.32-5.72-2.28-6.84-.96-1.12-2.08-1.76-3.36-1.92-1.28-.16-1.92-.8-1.92-1.92,0-.48,.14-.9,.42-1.26,.28-.36,.74-.54,1.38-.54h17.16c.64,0,1.12,.2,1.44,.6,.32,.4,.48,.8,.48,1.2,0,1.04-.64,1.68-1.92,1.92-.88,.16-1.54,.4-1.98,.72-.44,.32-.72,.78-.84,1.38-.12,.6-.14,1.42-.06,2.46,.08,1.04,.2,2.32,.36,3.84l6.24,52.68,6.48-53.28c.24-1.76,.36-3.12,.36-4.08s-.12-1.7-.36-2.22c-.24-.52-.58-.86-1.02-1.02-.44-.16-.94-.32-1.5-.48-1.28-.24-1.92-.88-1.92-1.92,0-.4,.14-.8,.42-1.2,.28-.4,.74-.6,1.38-.6h13.32c.64,0,1.12,.2,1.44,.6,.32,.4,.48,.8,.48,1.2,0,.8-.64,1.44-1.92,1.92-.72,.24-1.36,.48-1.92,.72-.56,.24-1.04,.64-1.44,1.2-.4,.56-.76,1.36-1.08,2.4-.32,1.04-.64,2.52-.96,4.44l-10.68,74.64h-5.04l-11.16-74.64Zm50.64,60.84c0,1.92,.06,3.46,.18,4.62,.12,1.16,.34,2.04,.66,2.64,.32,.6,.78,1.02,1.38,1.26,.6,.24,1.34,.44,2.22,.6,1.04,.24,1.56,.84,1.56,1.8,0,.4-.14,.78-.42,1.14-.28,.36-.74,.54-1.38,.54h-16.92c-.64,0-1.1-.18-1.38-.54-.28-.36-.42-.74-.42-1.14,0-.96,.52-1.56,1.56-1.8,.88-.16,1.62-.36,2.22-.6,.6-.24,1.06-.66,1.38-1.26,.32-.6,.54-1.48,.66-2.64,.12-1.16,.18-2.7,.18-4.62v-60.72c0-1.92-.06-3.46-.18-4.62-.12-1.16-.34-2.04-.66-2.64-.32-.6-.78-1.02-1.38-1.26-.6-.24-1.34-.44-2.22-.6-1.04-.24-1.56-.84-1.56-1.8,0-.4,.14-.78,.42-1.14,.28-.36,.74-.54,1.38-.54h16.92c.64,0,1.1,.18,1.38,.54,.28,.36,.42,.74,.42,1.14,0,.96-.52,1.56-1.56,1.8-.88,.16-1.62,.36-2.22,.6-.6,.24-1.06,.66-1.38,1.26-.32,.6-.54,1.48-.66,2.64-.12,1.16-.18,2.7-.18,4.62v60.72Zm22.32,0c0,1.92,.06,3.46,.18,4.62,.12,1.16,.34,2.04,.66,2.64,.32,.6,.78,1.02,1.38,1.26,.6,.24,1.34,.44,2.22,.6,1.04,.24,1.56,.84,1.56,1.8,0,.4-.14,.78-.42,1.14-.28,.36-.74,.54-1.38,.54h-16.92c-.64,0-1.1-.18-1.38-.54-.28-.36-.42-.74-.42-1.14,0-.96,.52-1.56,1.56-1.8,.88-.16,1.62-.36,2.22-.6,.6-.24,1.06-.66,1.38-1.26,.32-.6,.54-1.48,.66-2.64,.12-1.16,.18-2.7,.18-4.62v-60.72c0-1.92-.06-3.46-.18-4.62-.12-1.16-.34-2.04-.66-2.64-.32-.6-.78-1.02-1.38-1.26-.6-.24-1.34-.44-2.22-.6-1.04-.24-1.56-.84-1.56-1.8,0-.4,.14-.78,.42-1.14,.28-.36,.74-.54,1.38-.54h16.92c.64,0,1.1,.18,1.38,.54,.28,.36,.42,.74,.42,1.14,0,.96-.52,1.56-1.56,1.8-.88,.16-1.62,.36-2.22,.6-.6,.24-1.06,.66-1.38,1.26-.32,.6-.54,1.48-.66,2.64-.12,1.16-.18,2.7-.18,4.62v60.72Zm22.32,0c0,1.92,.06,3.46,.18,4.62,.12,1.16,.34,2.04,.66,2.64,.32,.6,.78,1.02,1.38,1.26,.6,.24,1.34,.44,2.22,.6,1.04,.24,1.56,.84,1.56,1.8,0,.4-.14,.78-.42,1.14-.28,.36-.74,.54-1.38,.54h-16.92c-.64,0-1.1-.18-1.38-.54-.28-.36-.42-.74-.42-1.14,0-.96,.52-1.56,1.56-1.8,.88-.16,1.62-.36,2.22-.6,.6-.24,1.06-.66,1.38-1.26,.32-.6,.54-1.48,.66-2.64,.12-1.16,.18-2.7,.18-4.62v-60.72c0-1.92-.06-3.46-.18-4.62-.12-1.16-.34-2.04-.66-2.64-.32-.6-.78-1.02-1.38-1.26-.6-.24-1.34-.44-2.22-.6-1.04-.24-1.56-.84-1.56-1.8,0-.4,.14-.78,.42-1.14,.28-.36,.74-.54,1.38-.54h16.92c.64,0,1.1,.18,1.38,.54,.28,.36,.42,.74,.42,1.14,0,.96-.52,1.56-1.56,1.8-.88,.16-1.62,.36-2.22,.6-.6,.24-1.06,.66-1.38,1.26-.32,.6-.54,1.48-.66,2.64-.12,1.16-.18,2.7-.18,4.62v60.72Z"/><g><path class="cls-1" d="M410.88,142.03c-5.1,5.49-9.75,8.24-13.95,8.24-2.55,0-4.5-1.23-5.83-3.69-1.33-2.46-2-5.75-2-9.88,0-3.19,.65-7.58,1.96-13.16,1.31-5.58,3-10.28,5.08-14.08l1.98-3.55c-2.71,2.83-4.93,5.92-6.67,9.28-1.73,3.36-3.8,8.06-6.2,14.1-2.4,6.04-4.22,10.15-5.45,12.34s-2.41,3.97-3.54,5.35c-1.13,1.38-2.13,2.27-3.01,2.68-.88,.41-2.41,.62-4.6,.62-.84,0-1.26-.23-1.26-.68,0-.05,.15-.76,.45-2.15,.3-1.39,.61-3.62,.92-6.68s.54-8.27,.68-15.62,1.21-13.64,3.21-18.88c-2.14,2.44-4.33,8.11-6.57,17.02l-.86,3.35c-2.35,9.27-5.04,15.53-8.08,18.78-3.03,3.25-6.01,4.87-8.93,4.87-1.8,0-3.39-.57-4.76-1.71-1.37-1.14-2.05-2.45-2.05-3.93,0-1.14,.82-2.41,2.46-3.83,1.64-1.41,2.68-2.12,3.11-2.12,.5,0,.83,.17,.99,.51,.16,.34,.37,1.28,.62,2.82s.63,2.54,1.15,3.01c.51,.47,1.16,.7,1.94,.7,1.76,0,3.7-1.76,5.83-5.28s4.07-8.96,5.83-16.32l.99-4.13c.8-3.37,1.59-6.06,2.37-8.07,.78-2.01,1.8-4.01,3.08-6.02,1.85-2.87,2.99-4.4,3.41-4.6,.42-.19,1.21-.35,2.38-.48s2.32-.19,3.49-.19c.46,0,.68,.26,.68,.79,0,.25-.07,.76-.21,1.54-.45,3.19-.66,6.39-.64,9.6l.07,9.16c.04,7.98-.59,14.41-1.91,19.31,1.21-1.46,2.96-5.22,5.26-11.28,3.33-8.59,6.36-15.04,9.09-19.35,1.3-2.07,2.87-4.06,4.7-5.96,1.83-1.9,3.1-2.92,3.81-3.06,2.42-.46,4.45-.68,6.12-.68,.62,0,.92,.17,.92,.51,0,.48-.38,1.55-1.12,3.21-1.77,4.01-3.43,9.44-4.96,16.27s-2.31,12.28-2.32,16.33c0,4.58,1.4,6.87,4.2,6.87,2.28,0,4.99-1.94,8.13-5.81v3.93Z"/><path class="cls-1" d="M427.66,142.03c-5.33,5.61-9.32,8.41-11.96,8.41-1.46,0-2.69-.75-3.69-2.24-1-1.49-1.5-3.37-1.5-5.62,0-4.85,1.64-11.57,4.92-20.17l8.68-1.81h.41l-3.42,10.7c-1.41,4.42-2.12,7.58-2.12,9.47,0,.75,.17,1.36,.5,1.83,.33,.47,.75,.7,1.25,.7,.89,0,1.78-.33,2.68-.97s2.32-2.06,4.26-4.22v3.93Zm-.68-34.79c0,5.47-2.02,8.2-6.05,8.2-1.96,0-3.63-.59-5.02-1.78,1.32-2,2.35-4.26,3.08-6.77,1.8,1.12,3.25,1.68,4.34,1.68,1.23,0,2.45-.45,3.66-1.33Z"/><path class="cls-1" d="M461.22,142.03c-5.26,5.56-9.78,8.34-13.54,8.34-1.53,0-2.76-.54-3.69-1.61-.93-1.07-1.4-2.51-1.4-4.31,0-2.44,1-6.16,3.01-11.18,1.07-2.69,1.61-4.4,1.61-5.13s-.29-1.09-.85-1.09c-.32,0-.74,.16-1.26,.48-.48,.32-1.04,.76-1.67,1.33-.57,.52-1.21,1.16-1.91,1.91-.62,.64-1.28,1.37-1.98,2.19l-1.91,2.22c-.84,1.03-1.37,2.11-1.57,3.25-.34,1.94-.57,3.71-.68,5.33-.07,1.21-.1,2.84-.1,4.89l-7.55,1.78c-.25-3.08-.38-5.37-.38-6.87,0-3.67,.43-7.14,1.28-10.43,.86-3.28,2.23-6.97,4.12-11.07l8.34-1.61c-1.75,4.72-2.91,8.43-3.45,11.14,3.73-4.17,6.7-7.06,8.89-8.67,2.19-1.61,4.15-2.41,5.85-2.41,1.16,0,2.13,.44,2.9,1.31,.77,.88,1.16,1.97,1.16,3.29,0,2.18-.98,5.78-2.94,10.8-1.34,3.44-2.02,5.68-2.02,6.7,0,1.37,.56,2.06,1.68,2.06,1.67,0,4.36-2.2,8.09-6.6v3.93Z"/><path class="cls-1" d="M491.88,142.03c-1.16,1.03-2.29,1.75-3.38,2.17-1.09,.42-1.96,.63-2.6,.63-1.64,0-3.27-.64-4.89-1.91-3.28,4.97-7.04,7.45-11.28,7.45-2.64,0-4.79-.99-6.43-2.97s-2.46-4.62-2.46-7.9c0-5.2,1.85-9.66,5.54-13.38s8.1-5.59,13.23-5.59c1.94,0,3.35,.21,4.25,.63,.9,.42,1.45,.92,1.66,1.49,.21,.57,.31,1.29,.31,2.15,0,4.26-1.16,9.49-3.49,15.69,1.16,1.07,2.38,1.61,3.66,1.61,1.53,0,3.49-1.33,5.88-4v3.93Zm-11.28-19.11c-.34-.14-.83-.21-1.47-.21-2.96,0-5.28,1.55-6.96,4.65-1.67,3.1-2.51,6.72-2.51,10.87,0,2.3,.36,4.09,1.09,5.37,.73,1.28,1.74,1.91,3.04,1.91,1.62,0,3.37-1.49,5.26-4.48-2.14-2.69-3.21-5.58-3.21-8.68,0-3.65,1.58-6.79,4.75-9.43Z"/><path class="cls-1" d="M517.42,142.03c-5.72,5.61-10.13,8.41-13.23,8.41-1.39,0-2.56-.59-3.52-1.76s-1.44-2.63-1.44-4.36c0-3.21,1.72-7.52,5.16-12.92-1.69,.87-3.53,1.47-5.54,1.81-1.48,2.73-3.81,5.67-6.97,8.82h-.79v-3.08c1.78-1.85,3.38-3.83,4.82-5.95-1.96-.87-2.94-2.15-2.94-3.86s.6-3.63,1.79-5.62c1.2-1.99,2.84-2.99,4.94-2.99,1.78,0,2.67,.91,2.67,2.73,0,1.44-.51,3.49-1.54,6.15,3.78-.41,7.09-3.3,9.91-8.68l3.11-.14-3.18,8.75c-1.32,3.69-2.18,6.2-2.56,7.54-.39,1.33-.58,2.51-.58,3.54,0,.96,.22,1.72,.67,2.29,.44,.57,1.04,.86,1.79,.86,.82,0,1.61-.28,2.36-.84s2.44-2.1,5.06-4.63v3.93Z"/><path class="cls-1" d="M582.32,142.06c-5.24,5.58-10.05,8.37-14.42,8.37-2.42,0-4.33-.85-5.74-2.56-1.41-1.71-2.2-4.15-2.36-7.31-2.76,3.35-5.2,5.83-7.33,7.45-2.13,1.62-4.4,2.43-6.82,2.43-3.1,0-5.59-1.34-7.47-4.02-1.88-2.68-2.82-6.25-2.82-10.71,0-5.33,1.23-10.83,3.69-16.49s6.11-10.13,10.94-13.42c4.83-3.28,10.69-4.92,17.57-4.92,5.15,0,9.81,.7,13.98,2.09v2.26c-3.4,3.96-6.24,9.51-8.53,16.64-2.29,7.13-3.44,12.57-3.44,16.3,0,1.82,.37,3.24,1.11,4.24,.74,1,1.77,1.5,3.09,1.5,2.37,0,5.22-1.93,8.54-5.78v3.93Zm-9.95-36.85c-2.1-1.14-4.35-1.71-6.77-1.71-3.81,0-7.24,1.59-10.29,4.77-3.05,3.18-5.46,7.39-7.23,12.63-1.77,5.24-2.65,9.79-2.65,13.64,0,2.57,.5,4.67,1.49,6.27,.99,1.61,2.26,2.41,3.81,2.41,2.69,0,5.78-2.45,9.26-7.35,1.44-12.85,5.56-23.07,12.37-30.66Z"/><path class="cls-1" d="M607.85,142.03c-5.72,5.61-10.13,8.41-13.23,8.41-1.39,0-2.56-.59-3.52-1.76s-1.44-2.63-1.44-4.36c0-3.21,1.72-7.52,5.16-12.92-1.69,.87-3.53,1.47-5.54,1.81-1.48,2.73-3.81,5.67-6.97,8.82h-.79v-3.08c1.78-1.85,3.38-3.83,4.82-5.95-1.96-.87-2.94-2.15-2.94-3.86s.6-3.63,1.79-5.62c1.2-1.99,2.84-2.99,4.94-2.99,1.78,0,2.67,.91,2.67,2.73,0,1.44-.51,3.49-1.54,6.15,3.78-.41,7.09-3.3,9.91-8.68l3.11-.14-3.18,8.75c-1.32,3.69-2.18,6.2-2.56,7.54-.39,1.33-.58,2.51-.58,3.54,0,.96,.22,1.72,.67,2.29,.44,.57,1.04,.86,1.79,.86,.82,0,1.61-.28,2.36-.84s2.44-2.1,5.06-4.63v3.93Z"/><path class="cls-1" d="M633.42,142.03c-2.92,2.87-5.59,4.98-8.02,6.32-2.43,1.34-4.96,2.02-7.6,2.02-2.96,0-5.41-.96-7.33-2.89-1.93-1.92-2.89-4.37-2.89-7.33,0-4.85,1.77-9.34,5.31-13.45,3.54-4.11,7.38-6.17,11.5-6.17,2.03,0,3.68,.56,4.96,1.69,1.28,1.13,1.91,2.59,1.91,4.39,0,.64-.12,1.12-.36,1.44-.24,.32-.69,.64-1.35,.96l-3.96,1.88c-.48,.23-.83,.34-1.06,.34-.32,0-.48-.23-.48-.68,0-.18,.07-.78,.21-1.79,.14-1.01,.21-1.63,.21-1.86,0-1-.21-1.81-.63-2.43s-.99-.92-1.69-.92c-1.66,0-3.18,1.23-4.56,3.69-1.38,2.46-2.07,5.26-2.07,8.41,0,2.71,.65,4.88,1.95,6.49,1.3,1.62,3.03,2.43,5.2,2.43,1.85,0,3.58-.53,5.21-1.59s3.48-2.68,5.55-4.87v3.93Z"/><path class="cls-1" d="M669.92,142.03c-3.65,3.46-6.25,5.72-7.83,6.77-1.57,1.05-3.08,1.57-4.51,1.57-3.6,0-5.3-3.18-5.09-9.54-2.28,3.26-4.38,5.66-6.31,7.21-1.93,1.55-3.91,2.32-5.96,2.32s-3.71-.94-5.11-2.82c-1.4-1.88-2.1-4.19-2.1-6.92,0-3.42,.94-6.68,2.82-9.78,1.88-3.1,4.29-5.61,7.23-7.52s5.54-2.87,7.79-2.87c2.85,0,4.84,1.31,5.98,3.93l6.99-3.86h1.92l-3.01,10.01c-1.55,5.04-2.33,8.49-2.33,10.36,0,1.96,.69,2.94,2.08,2.94,.89,0,1.87-.47,2.94-1.42,1.07-.95,2.57-2.39,4.51-4.32v3.93Zm-25.02,1.88c2.28,0,4.43-1.94,6.44-5.83,2.02-3.88,3.02-7.47,3.02-10.75,0-1.28-.29-2.27-.85-2.99-.57-.72-1.33-1.08-2.29-1.08-2.28,0-4.44,1.94-6.48,5.81-2.04,3.87-3.06,7.44-3.06,10.7,0,1.23,.3,2.23,.91,2.99,.6,.76,1.37,1.15,2.31,1.15Z"/><path class="cls-1" d="M703.46,142.03c-5.26,5.56-9.78,8.34-13.54,8.34-1.53,0-2.76-.54-3.69-1.61-.93-1.07-1.4-2.51-1.4-4.31,0-2.44,1-6.16,3.01-11.18,1.07-2.69,1.61-4.4,1.61-5.13s-.29-1.09-.85-1.09c-.32,0-.74,.16-1.26,.48-.48,.32-1.04,.76-1.67,1.33-.57,.52-1.21,1.16-1.91,1.91-.62,.64-1.28,1.37-1.98,2.19l-1.91,2.22c-.84,1.03-1.37,2.11-1.57,3.25-.34,1.94-.57,3.71-.68,5.33-.07,1.21-.1,2.84-.1,4.89l-7.55,1.78c-.25-3.08-.38-5.37-.38-6.87,0-3.67,.43-7.14,1.28-10.43,.86-3.28,2.23-6.97,4.12-11.07l8.34-1.61c-1.75,4.72-2.91,8.43-3.45,11.14,3.73-4.17,6.7-7.06,8.89-8.67,2.19-1.61,4.15-2.41,5.85-2.41,1.16,0,2.13,.44,2.9,1.31,.77,.88,1.16,1.97,1.16,3.29,0,2.18-.98,5.78-2.94,10.8-1.34,3.44-2.02,5.68-2.02,6.7,0,1.37,.56,2.06,1.68,2.06,1.67,0,4.36-2.2,8.09-6.6v3.93Z"/><path class="cls-1" d="M739.92,142.03c-3.65,3.46-6.25,5.72-7.83,6.77-1.57,1.05-3.08,1.57-4.51,1.57-3.6,0-5.3-3.18-5.09-9.54-2.28,3.26-4.38,5.66-6.31,7.21-1.93,1.55-3.91,2.32-5.96,2.32s-3.71-.94-5.11-2.82c-1.4-1.88-2.1-4.19-2.1-6.92,0-3.42,.94-6.68,2.82-9.78,1.88-3.1,4.29-5.61,7.23-7.52s5.54-2.87,7.79-2.87c2.85,0,4.84,1.31,5.98,3.93l6.99-3.86h1.92l-3.01,10.01c-1.55,5.04-2.33,8.49-2.33,10.36,0,1.96,.69,2.94,2.08,2.94,.89,0,1.87-.47,2.94-1.42,1.07-.95,2.57-2.39,4.51-4.32v3.93Zm-25.02,1.88c2.28,0,4.43-1.94,6.44-5.83,2.02-3.88,3.02-7.47,3.02-10.75,0-1.28-.29-2.27-.85-2.99-.57-.72-1.33-1.08-2.29-1.08-2.28,0-4.44,1.94-6.48,5.81-2.04,3.87-3.06,7.44-3.06,10.7,0,1.23,.3,2.23,.91,2.99,.6,.76,1.37,1.15,2.31,1.15Z"/></g><g><path class="cls-1" d="M472.58,1852.82c-4.1,7.7-8.57,11.55-13.4,11.55-2.53,0-4.56-.93-6.08-2.79-1.53-1.86-2.29-4.31-2.29-7.37,0-3.55,1.27-8.96,3.81-16.2s3.81-12.37,3.81-15.38c0-1.34-.38-2.46-1.15-3.35s-1.71-1.33-2.85-1.33c-1.75,0-3.5,1.07-5.23,3.21-1.73,2.14-2.6,4.33-2.6,6.56,0,1.71,.77,3.49,2.32,5.33,.64,.78,.96,1.31,.96,1.61,0,.34-.49,1.11-1.47,2.29-.98,1.19-1.82,1.78-2.53,1.78-.75,0-1.61-.55-2.56-1.64s-1.44-2.72-1.44-4.89c0-4.4,1.54-8.4,4.63-12,3.09-3.6,6.5-5.4,10.24-5.4,2.8,0,5.17,1.16,7.11,3.48,1.94,2.32,2.91,5.21,2.91,8.67-.03,3.64-1.21,8.8-3.54,15.47-2.33,6.67-3.48,11.13-3.47,13.39,0,1.07,.27,1.92,.82,2.55,.55,.63,1.28,.94,2.19,.94,1.98,0,3.95-1.62,5.91-4.85,1.96-3.23,3.75-7.87,5.37-13.91l3.21-12.03c1.25-4.74,2.65-8.88,4.2-12.41,.16-.39,1.22-.69,3.19-.91,1.97-.22,3.4-.33,4.29-.33s1.33,.18,1.33,.54l-6.26,23.86c-1.79,7-2.68,12.11-2.68,15.35,0,1.41,.3,2.54,.89,3.37,.59,.83,1.39,1.25,2.39,1.25,1.48,0,3.5-1.21,6.07-3.64,2.56-2.43,4.72-5.53,6.48-9.3,1.75-3.77,2.63-7.63,2.63-11.57,0-4.22-1.03-8.41-3.08-12.58-.57-1.21-.85-1.96-.85-2.26,0-.98,.94-2.06,2.82-3.25,1.88-1.18,3.23-1.78,4.05-1.78,.77,0,1.56,1.03,2.34,3.09,.79,2.06,1.18,4.22,1.18,6.48,0,5.99-1.4,12.13-4.2,18.41s-6.29,11.43-10.46,15.47-7.94,6.05-11.31,6.05c-2.39,0-4.29-.96-5.69-2.89-1.4-1.92-2.07-4.81-2-8.67Z"/><path class="cls-1" d="M542.65,1856.03c-3.65,3.46-6.25,5.72-7.83,6.77-1.57,1.05-3.08,1.57-4.51,1.57-3.6,0-5.3-3.18-5.09-9.54-2.28,3.26-4.38,5.66-6.31,7.21-1.93,1.55-3.91,2.32-5.96,2.32s-3.71-.94-5.11-2.82c-1.4-1.88-2.1-4.19-2.1-6.92,0-3.42,.94-6.68,2.82-9.78,1.88-3.1,4.29-5.61,7.23-7.52s5.54-2.87,7.79-2.87c2.85,0,4.84,1.31,5.98,3.93l6.99-3.86h1.92l-3.01,10.01c-1.55,5.04-2.33,8.49-2.33,10.36,0,1.96,.69,2.94,2.08,2.94,.89,0,1.87-.47,2.94-1.42,1.07-.95,2.57-2.39,4.51-4.32v3.93Zm-25.02,1.88c2.28,0,4.43-1.94,6.44-5.83,2.02-3.88,3.02-7.47,3.02-10.75,0-1.28-.29-2.27-.85-2.99-.57-.72-1.33-1.08-2.29-1.08-2.28,0-4.44,1.94-6.48,5.81-2.04,3.87-3.06,7.44-3.06,10.7,0,1.23,.3,2.23,.91,2.99,.6,.76,1.37,1.15,2.31,1.15Z"/><path class="cls-1" d="M576.18,1856.03c-5.26,5.56-9.78,8.34-13.54,8.34-1.53,0-2.76-.54-3.69-1.61-.93-1.07-1.4-2.51-1.4-4.31,0-2.44,1-6.16,3.01-11.18,1.07-2.69,1.61-4.4,1.61-5.13s-.29-1.09-.85-1.09c-.32,0-.74,.16-1.26,.48-.48,.32-1.04,.76-1.67,1.33-.57,.52-1.21,1.16-1.91,1.91-.62,.64-1.28,1.37-1.98,2.19l-1.91,2.22c-.84,1.03-1.37,2.11-1.57,3.25-.34,1.94-.57,3.71-.68,5.33-.07,1.21-.1,2.84-.1,4.89l-7.55,1.78c-.25-3.08-.38-5.37-.38-6.87,0-3.67,.43-7.14,1.28-10.43,.86-3.28,2.23-6.97,4.12-11.07l8.34-1.61c-1.75,4.72-2.91,8.43-3.45,11.14,3.73-4.17,6.7-7.06,8.89-8.67,2.19-1.61,4.15-2.41,5.85-2.41,1.16,0,2.13,.44,2.9,1.31,.77,.88,1.16,1.97,1.16,3.29,0,2.18-.98,5.78-2.94,10.8-1.34,3.44-2.02,5.68-2.02,6.7,0,1.37,.56,2.06,1.68,2.06,1.67,0,4.36-2.2,8.09-6.6v3.93Z"/><path class="cls-1" d="M612.65,1856.03c-3.28,3.26-5.78,5.46-7.5,6.61-1.72,1.15-3.24,1.73-4.56,1.73-1.62,0-2.9-.79-3.84-2.36-.95-1.57-1.43-3.87-1.45-6.9-1.87,3.03-3.9,5.33-6.1,6.9s-4.19,2.36-5.96,2.36c-1.94,0-3.65-.92-5.13-2.75-1.48-1.83-2.22-3.98-2.22-6.44,0-5.08,1.85-9.79,5.55-14.13,3.7-4.34,7.68-6.51,11.95-6.51,1.18,0,2.11,.17,2.79,.51s1.41,.92,2.21,1.74l4.89-20.44c3.99-.93,6.68-1.4,8.07-1.4,.46,0,.68,.18,.68,.55,0,.25-.57,2.61-1.71,7.08-4.55,17.87-6.83,28.64-6.83,32.33,0,.87,.18,1.56,.55,2.08,.36,.52,.84,.79,1.43,.79,1.46,0,3.86-1.89,7.2-5.67v3.93Zm-24.71,1.81c2.23,0,4.32-1.89,6.25-5.67,1.94-3.78,2.91-7.33,2.91-10.63,0-1.34-.3-2.41-.91-3.21-.6-.8-1.4-1.2-2.38-1.2-2.12,0-4.17,1.98-6.15,5.93s-2.97,7.53-2.97,10.71c0,1.25,.29,2.25,.87,2.97,.58,.73,1.37,1.09,2.38,1.09Z"/><path class="cls-1" d="M623.14,1836c1.57-.41,3.16-.75,4.75-1.01,1.59-.26,2.55-.39,2.87-.39,.23,0,.34,.09,.34,.27,0,.34-.09,.69-.27,1.06-.37,1.05-.55,2.05-.55,3.01,0,1.18,.69,2.8,2.05,4.85s2.05,3.96,2.05,5.71c0,3.49-1.67,6.85-5.01,10.08-3.34,3.24-6.8,4.85-10.37,4.85-1.55,0-2.96-.41-4.24-1.23-1.28-.82-1.91-1.7-1.91-2.63,0-.55,.63-1.58,1.9-3.11,1.26-1.53,2.17-2.29,2.72-2.29,.73,0,1.38,.93,1.95,2.8,.57,1.87,1.55,2.8,2.94,2.8s2.69-.64,3.91-1.93,1.83-2.67,1.83-4.15c0-1.44-.77-3.35-2.32-5.74s-2.58-4.4-3.08-6.01c-2.64,4.26-5.99,8.62-10.05,13.09h-.79v-3.08c5.58-5.95,9.34-11.6,11.28-16.95Z"/></g></g></g><g id="_반짝이"><polygon class="cls-7" points="666.75 1230.5 677.43 1271.94 711.82 1280.45 677.43 1289.79 666.75 1332 655.5 1289.79 621.68 1280.45 655.5 1271.94 666.75 1230.5"/><polygon class="cls-6" points="835.78 476.88 852 539.8 904.22 552.73 852 566.91 835.78 631 818.7 566.91 767.35 552.73 818.7 539.8 835.78 476.88"/><circle class="cls-7" cx="733.5" cy="502.5" r="13.5"/><circle class="cls-6" cx="661" cy="528" r="10"/><circle class="cls-7" cx="589" cy="420" r="10"/><circle class="cls-7" cx="904.5" cy="653.5" r="11.5"/><circle class="cls-6" cx="887.5" cy="716.5" r="7.5"/><circle class="cls-7" cx="924.5" cy="750.5" r="9.5"/><circle class="cls-7" cx="874.5" cy="929.5" r="11.5"/><circle class="cls-6" cx="904.5" cy="973.5" r="6.5"/><circle class="cls-7" cx="829.5" cy="1318.5" r="12.5"/><circle class="cls-6" cx="780.5" cy="1373.5" r="8.5"/></g><g id="_완드_8"><path class="cls-4" d="M853.28,1002.97c-19.53-3.48-31.63-5.64-45.6,0-20.92,8.43-40.25,32.01-48.32,53.18-10.47,27.48-1.54,49.79,12.13,59.37,14.49,10.15,27.76,1.39,41.53,9.98,10.46,6.52,19.56,22.03,14.07,61.27,4.59-5.78,11.64-15.72,16.52-28.49,6.95-18.18,5.52-31.66,4.46-37.52,4.13,5.86,10.37,12.24,19.81,16.62,32.2,14.96,74.99-5.53,83.87-9.96-6.63,.17-27.06-.21-39.28-16.15-5.87-7.66-7.83-16.28-8.53-22.32,1.65-1.06,17.52-11,30.75-6.17,9.44,3.45,11.66,12.27,12.17,14.72,.91-3.88,1.5-8.28,1.17-12.82-1.37-18.77-17.29-25.13-21.44-26.6,1.43,.21,8.96,1.17,17.95-4.75,6.22-4.09,9.83-9.3,11.17-11.4-4.67,.72-11.69,1.4-19.47,.47-5.8-.69-13.17-2.43-31.64-14.25-17.85-11.43-19.35-15.18-31.75-19.95-8.23-3.17-15.14-4.44-19.58-5.23Z"/><path class="cls-3" d="M890.19,1067.38c3.67-9.67,.38-18.98-.93-22.15-1.36-3.3-4.61-11.19-13.01-16.51-6.29-3.99-11.87-4.26-20.32-5.51-12.08-1.8-5.35-1.93-39.94-9.87-29.13-6.68-27.6-5.14-39.25-8.71-14.49-4.44-13.74-5.88-34.25-13.27-17.41-6.27-22.03-6.71-43.02-13.71-14.35-4.78-25.72-9.08-32.57-11.75,3.71-3.15,8.18-6.47,13.53-9.66,9.92-5.93,19.69-9.56,27.69-11.83-2.26-5.06-4.53-10.12-6.79-15.18-4.17,.62-10.66,1.53-18.69,2.35-21.46,2.18-30.47,1.37-44.59,3-8.24,.95-20.12,2.96-34.02,7.72-2.25-1.04-5.56-2.56-9.58-4.37-6.65-2.99-9.97-4.48-11.55-5.08-7.73-2.92-9.48-2.14-19.33-5.16-3.26-1-6.12-2.09-11.84-4.27-11.05-4.22-12.95-5.5-20.44-8.28-7.54-2.8-7.51-2.21-19.04-5.96-6.75-2.2-14.75-4.8-22.7-8.19-5.6-2.39-8.05-3.84-25.2-13.64-18.53-10.59-27.86-15.92-31.53-17.74-11.56-5.75-12.19-5.09-26.77-12.39-13.26-6.64-18.82-10.23-22.24-12.57-8.05-5.52-7.39-6.31-12.37-9.01-6.75-3.65-11.75-4.24-26.53-6.85-15.48-2.73-23.23-4.09-27.11-5.24-9.38-2.77-7.86-3.66-28.04-11.94-14.8-6.06-18.43-6.74-27.06-11.58-5.31-2.98-5.54-3.63-15.33-10.08-8.43-5.56-17.71-11.67-29.26-17.83-14.59-7.79-11.8-4.44-30.71-13.81-6.01-2.98-14.56-7.41-25.26-7.3-.95,.01-1.74,.05-2.26,.09-2.15,2.76-5.01,7.09-6.91,12.96-1.45,4.49-3.37,10.4-1.57,16.71,1.63,5.71,6.13,11.15,18.64,19.45,15.69,10.42,29.07,15.46,38.73,19.43,2.04,.84,19.01,9.35,52.95,26.38,46.21,23.19,45.33,23.37,54.92,27.09,19.76,7.67,25.68,7.74,38.9,15.86,12.93,7.94,16.37,13.47,28.68,19.44,12.94,6.28,25.32,8.03,33.73,8.54,2.5,3.74,6.56,8.89,12.89,13.74,11.56,8.87,22.27,10.27,39.19,15.05,5.23,1.48,27.3,7.87,50.05,18.97,20.61,10.06,17.1,11.95,38.84,22.2,10.89,5.13,18.87,8,26.59,15.96,2.03,2.09,5.23,6.13,11.61,14.19,6.82,8.62,8.31,10.96,12.6,14.55,.82,.69,12.34,10.19,17.19,8.02,1.26-.56,1.75-1.78,1.86-2.06,.84-2.25-1.07-4.58-2.9-7.41-3.28-5.09-1.34-4.11-6.39-13.21-1.17-2.11-2.78-4.89-4.88-8.12,4.45,1.72,11.29,4.29,19.74,7.12,9.78,3.28,19,6.37,31.18,9.43,12.32,3.1,17.34,3.57,26.24,7.65,5.46,2.5,9.4,4.36,12.66,8.2,4.92,5.81,3.66,10.72,7.66,12.77,2.03,1.04,5.78,1.53,13.18-2.52,4.97,2.27,9.11,3.55,11.84,4.27,8.47,2.25,12.22,1.57,18.35,4.8,1.72,.9,4.59,2.45,7.03,5.26,4.18,4.83,2.71,9.1,3.83,14.11,2.33,10.39,14,17.78,17.36,19.9,13.58,8.6,27.79,7.99,31.76,7.82,7.26-.31,13.59-2.81,26.24-7.8,8.79-3.47,17.18-6.83,27-12.99,12.36-7.75,18.55-11.63,21.54-19.5Z"/><path class="cls-3" d="M745.38,862.34c4.05-1.62,7.32-6.21,8.3-10.39,.73-3.14,.08-5.65-3.81-15.31-3.91-9.71-5.86-14.56-6.75-15.66-2.4-2.96-5.05-4.76-21.2-11.69-5.65-2.43-8.48-3.64-13.77-5.75-17.8-7.1-23.62-14.9-39.02-23.92-9.77-5.72-9.34-3.71-35.48-14.34-16.09-6.54-32.06-13.03-50.02-22.7-19.92-10.72-19.13-12.89-48.57-29.8-14.15-8.13-22.84-13.09-35.36-18.75-19.58-8.85-25.96-9.2-43.87-16.28-16.6-6.56-17.65-8.84-52.85-27.47-29.08-15.39-43.62-23.08-60.79-30.31-32.81-13.81-35.22-10.39-59.3-22.86-12.94-6.7-27.23-11.06-39.14-19.51-5.95-4.22-13.17-10.08-23.38-9.42-1.09,.07-12.68,.97-15.41,7.96-2.45,6.29,3.78,13.59,6.3,16.55,7.23,8.47,15.61,11.01,24.09,14.24,23.51,8.98,20.42,12.89,45.8,22.83,13.91,5.45,21.33,6.82,30.54,9.64,23.55,7.21,31.85,15.62,68.16,38.45,47.14,29.64,70.76,44.49,96.86,53.88,13.35,4.8,22.59,6.47,33.76,15.71,9.28,7.68,13.48,15.3,25.25,18.18,5.04,1.23,7.49,.62,16.39,2.58,7.91,1.75,13.69,3.94,17.99,5.62,30.91,12.07,47.14,20.15,47.14,20.15,29.69,14.78,26.02,15.48,51.57,27.95,32.01,15.61,32.18,11.78,44.58,21.11,14.42,10.84,23.19,22.79,31.97,19.29Z"/><path class="cls-3" d="M563.14,1247.42c3.39-1.94,6.47-6.64,7.67-10.7,.9-3.05,.63-5.38-1.49-14.15-2.14-8.82-3.21-13.24-3.8-14.19-1.62-2.57-3.55-4.01-15.73-8.96-4.27-1.73-6.4-2.6-10.4-4.07-13.48-4.95-17.34-11.77-28.71-18.78-7.21-4.45-7.08-2.58-26.85-10.04-12.17-4.59-24.26-9.14-37.61-16.52-14.8-8.17-13.96-10.31-35.73-23.4-10.46-6.29-16.9-10.13-26.31-14.24-14.73-6.43-19.78-6.12-33.35-11.04-12.58-4.56-13.19-6.61-39.38-20.75-21.64-11.68-32.47-17.52-45.43-22.65-24.78-9.8-27.04-6.31-45-15.73-9.65-5.06-20.61-7.76-29.25-14.58-4.32-3.41-9.48-8.25-17.7-6.59-.87,.18-10.21,2.2-13.09,9.12-2.59,6.22,1.64,12.53,3.36,15.08,4.91,7.31,11.34,8.88,17.78,11.1,17.84,6.15,14.99,10.18,34.23,17.06,10.55,3.78,16.32,4.33,23.39,6.07,18.06,4.47,23.83,11.62,50.49,29.64,34.61,23.39,51.96,35.11,71.83,41.4,10.16,3.21,17.37,3.86,25.34,11.52,6.62,6.36,9.21,13.17,18.31,14.71,3.9,.66,5.92-.17,12.81,.8,6.13,.86,10.52,2.36,13.79,3.52,23.44,8.35,35.57,14.38,35.57,14.38,22.19,11.04,19.2,12.08,38.31,21.34,23.95,11.6,24.48,7.94,33.43,15.55,10.41,8.84,16.2,19.31,23.55,15.1Z"/><path class="cls-3" d="M819.46,817.44c10.95-1.97,14.37-2.74,16.25-5.75,1.98-3.18,.07-5.4-.71-14.99-1.06-13.11,2-15.33-.78-19.53-3.54-5.35-11.53-6.32-20.1-7.36-7.52-.91-9.99,.27-17.28-1.5-4.93-1.2-6.95-2.51-11.42-4.34-14.89-6.06-18.97-2.28-28.26-6.76-9.26-4.45-8.13-9.6-18.94-19.2-7.08-6.29-14.24-10-26.59-14.97-28.11-11.3-55.58-17.99-62.54-19.77-19.09-4.88-37.27-13.87-73.63-31.84-38.19-18.87-46.73-26.8-110.92-62.07-12.64-6.95-17.99-9.76-28.42-15.84-20.26-11.83-26.36-16.56-43.1-25.12-8.03-4.11-8.23-3.84-21.97-10.51-17.4-8.45-22.22-13.01-36.18-18.43-8.94-3.47-8.28-2.31-16.44-5.61-11.26-4.55-15.28-7.87-31.16-17.16-23.96-14.02-31.48-16.22-39.33-16.55-1.91-.08-14.9-.64-16.73,4.4-1.23,3.41,3.13,7.98,6.08,10.8,20.43,19.5,56.52,34.4,67.86,39.22,10.9,4.63,26.54,11.33,45.77,21.89,31.89,17.52,27.09,20.1,53.69,33.57,19.77,10,30.78,12.81,40.39,26.08,5.34,7.37,5.52,11.45,12.09,17.05,10.1,8.61,19.82,7.62,33.79,11.66,13.02,3.76,13.43,7.23,34.82,18.91,16.72,9.13,18.37,8.2,47.13,21.41,14.63,6.72,33.64,15.45,56.32,28.06,33.4,18.57,30.05,20.7,46.76,26.87,15.48,5.72,25.81,6.65,40.24,16.99,5.08,3.64,6.3,5.31,17.95,14.22,11.84,9.05,17.76,13.58,23.44,16.84,9.54,5.48,23.4,13.45,41.08,12.89,1.26-.04,7.78-1.21,20.83-3.56Z"/><path class="cls-3" d="M573.1,1350.96c8.64-3.08,11.36-4.18,13.13-7.24,1.88-3.23,.65-5.12,1.11-14.12,.63-12.3,3.23-14.74,1.56-18.41-2.13-4.67-8.17-4.71-14.65-4.75-5.68-.04-7.71,1.36-13.12,.48-3.66-.59-5.07-1.61-8.31-2.85-10.78-4.1-14.34-.07-20.99-3.28-6.63-3.2-5.2-8.2-12.45-16.09-4.75-5.17-9.84-7.9-18.79-11.24-20.37-7.6-40.76-10.9-45.91-11.82-14.15-2.52-27.14-9.02-53.12-22.02-27.29-13.66-32.98-20.23-78.46-46.54-8.96-5.18-12.76-7.25-20.11-11.87-14.28-8.97-18.45-12.78-30.38-19.04-5.72-3-5.91-2.73-15.74-7.53-12.45-6.08-15.65-9.87-25.79-13.46-6.49-2.3-6.11-1.28-12.02-3.5-8.16-3.06-10.88-5.76-22.07-12.81-16.88-10.63-22.42-11.88-28.42-11.34-1.46,.13-11.39,1.03-13.35,6.01-1.33,3.36,1.52,7.21,3.49,9.56,13.56,16.21,39.67,26.34,47.86,29.65,7.87,3.18,19.16,7.8,32.79,15.68,22.59,13.07,18.61,16.05,37.59,25.86,14.1,7.29,22.26,8.73,28.19,20.24,3.29,6.39,2.98,10.24,7.42,14.82,6.82,7.04,14.4,5.03,24.71,7.31,9.6,2.13,9.53,5.36,24.7,14.07,11.85,6.8,13.22,5.74,33.88,15.08,10.51,4.75,24.17,10.92,40.22,20.36,23.64,13.9,20.83,16.29,33,20.29,11.28,3.71,19.11,3.45,29.07,11.65,3.5,2.88,4.26,4.33,12.23,11.49,8.11,7.27,12.16,10.9,16.17,13.37,6.73,4.14,16.51,10.16,30.17,7.67,.98-.18,6.12-2.01,16.41-5.67Z"/><path class="cls-3" d="M739.9,1161.92c4.88,9.78,6.29,12.93,5.04,16.25-1.33,3.5-4.19,3.37-12.15,8.65-10.89,7.22-10.84,10.98-15.75,11.38-6.26,.51-11.71-5.14-17.56-11.21-5.13-5.32-5.65-7.99-11.32-12.6-3.84-3.12-6.05-3.89-10.1-6.28-13.49-7.93-12.92-13.44-21.88-17.97-8.92-4.51-12.3-.47-26.15-3.03-9.08-1.68-16.19-5-27.33-11.61-25.35-15.06-46.72-32.45-52.19-36.8-15.03-11.94-32.74-20.65-68.16-38.07-37.2-18.29-48.42-20.11-113.72-48.69-12.86-5.63-18.2-8.09-29.09-12.51-21.16-8.59-28.45-10.46-44.98-18.3-7.93-3.76-7.84-4.08-21.13-10.74-16.83-8.43-23.23-9.4-35.67-16.99-7.97-4.86-6.67-5.06-14.04-9.42-10.17-6.02-15.13-7.13-31.73-13.85-25.04-10.14-31.18-14.68-36.05-20.61-1.19-1.45-9.25-11.26-6.38-15.79,1.94-3.06,8.08-2.45,12.03-1.87,27.26,4.02,60.12,23.11,70.55,29.02,10.02,5.68,24.45,13.82,44.01,22.38,32.44,14.2,31.65,8.85,57.8,21.4,19.44,9.33,28.1,16.22,44.14,15.6,8.91-.35,12.21-2.71,20.45-1.01,12.68,2.62,17.6,10.83,28.97,19.29,10.59,7.88,13.55,6.07,35.25,15.64,16.96,7.48,17.21,9.34,44.43,23.73,13.85,7.32,31.85,16.84,55.04,26.84,34.15,14.73,33.85,10.81,48.5,20.09,13.57,8.6,20.36,16.11,36.93,21.06,5.83,1.74,7.85,1.67,21.67,5.31,14.04,3.71,21.06,5.56,26.95,8,9.89,4.1,24.27,10.05,34.21,24.23,.71,1.01,3.62,6.84,9.44,18.48Z"/><path class="cls-3" d="M647.83,911.87c2.8-.73,9.08-2.49,14.25-9.56,3.31-4.52,6.8-12.07,6.14-17.88-.49-4.35-3.22-6.91-19.51-10.82-10.26-2.46-17.55-3.45-25.21-4.82-9.01-1.61-15.38-3.17-22.8-4.99-19.52-4.79-33.91-9.99-37.27-11.22-8.15-2.98-16.39-6.71-32.88-14.16-14.3-6.46-21.98-10.17-35.73-16.59-10.9-5.1-25.23-11.74-42.31-19.43-31.01-13.95-33.02-14.13-44.28-20.28-15.31-8.35-14.34-9.52-32.66-20.1-12.05-6.96-23.76-12.64-46.7-23.73-29.41-14.22-31.14-14.25-46.48-22.43-22.25-11.86-33.37-17.79-37.27-22.08-13.4-14.77-19.46-18-31.57-24.46-2.21-1.18-6.85-3.5-10.96,.11-3.37,2.96-5.32,8.96-5.7,13.24-.9,10.17,6.66,15.06,13.81,20.44,19.98,15.04,12.11,15.41,29.59,27.23,14.37,9.72,22.75,11.54,51.3,22.09,30.04,11.1,45.06,16.65,57.66,23.62,24.29,13.43,22.54,18.53,48.45,34.14,11.51,6.93,15.4,8.07,61.38,27.64,17.08,7.27,42.3,18,67.74,29.17,21.86,9.59,45.86,14.68,65.77,28.32,0,0,32.74,22.44,55.25,16.54Z"/><path class="cls-3" d="M785.12,710.29c3.09-.49,10.04-1.7,15.73-8.43,3.64-4.3,7.47-11.69,6.72-17.69-.56-4.49-3.59-7.36-21.64-12.88-11.37-3.47-19.44-5.17-27.93-7.28-9.99-2.49-17.03-4.68-25.26-7.23-21.63-6.72-37.58-13.38-41.3-14.95-9.03-3.81-18.18-8.39-36.46-17.54-15.85-7.94-24.38-12.44-39.63-20.3-12.09-6.23-27.98-14.36-46.92-23.81-34.39-17.16-36.61-17.53-49.1-24.86-16.99-9.97-15.92-11.07-36.24-23.59-13.37-8.24-26.36-15.14-51.79-28.61-32.62-17.28-34.53-17.47-51.54-27.26-24.68-14.2-37.02-21.3-41.35-26.05-14.9-16.34-21.62-20.21-35.05-27.94-2.45-1.41-7.59-4.22-12.13-.92-3.72,2.71-5.85,8.66-6.25,12.99-.96,10.3,7.44,16,15.38,22.17,22.18,17.23,13.47,16.87,32.88,30.59,15.95,11.28,25.23,13.92,56.88,27.37,33.3,14.15,49.94,21.23,63.92,29.53,26.94,16,25.03,21.04,53.78,39.42,12.77,8.16,17.08,9.68,68.06,33.98,18.94,9.03,46.9,22.35,75.11,36.14,24.23,11.85,50.83,19.29,72.92,35.09,0,0,36.34,25.99,61.22,22.08Z"/></g></svg>