<?xml version="1.0" encoding="UTF-8"?><svg xmlns="http://www.w3.org/2000/svg" viewBox="0 0 1080 1944"><defs><style>.cls-1{fill:#fff;}.cls-2{stroke:#3f3730;stroke-miterlimit:10;stroke-width:5px;}.cls-2,.cls-3{fill:#3f3730;}.cls-4{fill:#f6ef84;}.cls-5{fill:#bad6eb;}.cls-6{fill:#c8c0de;}.cls-7{fill:#b1d4f0;}</style></defs><g id="_배경_텍스트"><g><rect class="cls-5" width="1080" height="1944"/><rect class="cls-1" x="74.84" y="186.39" width="930.33" height="1606.64" rx="65.21" ry="65.21"/><path class="cls-2" d="M506.4,1669.57c0,1.92,.2,3.46,.6,4.62,.4,1.16,.98,2.04,1.74,2.64,.76,.6,1.72,1.02,2.88,1.26,1.16,.24,2.5,.44,4.02,.6,.56,.08,.96,.3,1.2,.66,.24,.36,.36,.74,.36,1.14s-.14,.78-.42,1.14c-.28,.36-.74,.54-1.38,.54h-26.52c-.64,0-1.1-.18-1.38-.54-.28-.36-.42-.74-.42-1.14s.12-.78,.36-1.14c.24-.36,.64-.58,1.2-.66,1.52-.16,2.84-.36,3.96-.6,1.12-.24,2.08-.66,2.88-1.26,.8-.6,1.4-1.48,1.8-2.64,.4-1.16,.6-2.7,.6-4.62v-60.72c0-1.92-.2-3.46-.6-4.62-.4-1.16-1-2.04-1.8-2.64-.8-.6-1.76-1.02-2.88-1.26-1.12-.24-2.44-.44-3.96-.6-.56-.08-.96-.3-1.2-.66-.24-.36-.36-.74-.36-1.14s.14-.78,.42-1.14c.28-.36,.74-.54,1.38-.54h26.52c.64,0,1.1,.18,1.38,.54,.28,.36,.42,.74,.42,1.14s-.12,.78-.36,1.14c-.24,.36-.64,.58-1.2,.66-1.52,.16-2.86,.36-4.02,.6-1.16,.24-2.12,.66-2.88,1.26-.76,.6-1.34,1.48-1.74,2.64-.4,1.16-.6,2.7-.6,4.62v60.72Zm45.96-29.16l-17.88-34.68c-.88-1.2-1.74-2.24-2.58-3.12-.84-.88-1.98-1.52-3.42-1.92-.88-.24-1.7-.4-2.46-.48-.76-.08-1.66-.16-2.7-.24-.64,0-1.14-.2-1.5-.6-.36-.4-.54-.84-.54-1.32s.18-.9,.54-1.26c.36-.36,.86-.54,1.5-.54h27.96c.64,0,1.1,.18,1.38,.54,.28,.36,.42,.78,.42,1.26s-.16,.92-.48,1.32c-.32,.4-.8,.6-1.44,.6-.96,.08-1.8,.18-2.52,.3-.72,.12-1.52,.26-2.4,.42-1.44,.32-2.26,.9-2.46,1.74-.2,.84,.02,1.7,.66,2.58l13.08,25.32,12.84-25.32c.8-1.2,.94-2.12,.42-2.76-.52-.64-1.3-1.12-2.34-1.44-1.04-.32-2.18-.54-3.42-.66-1.24-.12-2.22-.18-2.94-.18-.64,0-1.12-.2-1.44-.6-.32-.4-.48-.84-.48-1.32s.16-.9,.48-1.26c.32-.36,.8-.54,1.44-.54h25.68c.64,0,1.12,.18,1.44,.54,.32,.36,.48,.78,.48,1.26s-.16,.92-.48,1.32c-.32,.4-.8,.6-1.44,.6-1.44,.08-2.66,.18-3.66,.3-1,.12-1.9,.26-2.7,.42-1.6,.4-2.8,1.02-3.6,1.86-.8,.84-1.64,1.9-2.52,3.18l-15,29.76,19.32,37.32c.88,1.2,1.74,2.22,2.58,3.06s1.98,1.46,3.42,1.86c.88,.24,1.7,.4,2.46,.48,.76,.08,1.62,.16,2.58,.24,.64,0,1.14,.2,1.5,.6,.36,.4,.54,.84,.54,1.32s-.16,.9-.48,1.26c-.32,.36-.8,.54-1.44,.54h-29.28c-.64,0-1.12-.18-1.44-.54-.32-.36-.48-.78-.48-1.26s.16-.92,.48-1.32c.32-.4,.8-.6,1.44-.6,1.04-.08,2.1-.18,3.18-.3,1.08-.12,2.06-.26,2.94-.42,1.44-.32,2.3-.88,2.58-1.68,.28-.8,.1-1.64-.54-2.52l-14.52-27.84-14.04,27.84c-.72,1.12-.88,2-.48,2.64,.4,.64,1.08,1.12,2.04,1.44,.96,.32,2,.54,3.12,.66,1.12,.12,2,.18,2.64,.18s1.12,.2,1.44,.6c.32,.4,.48,.84,.48,1.32s-.14,.9-.42,1.26c-.28,.36-.74,.54-1.38,.54h-25.44c-.64,0-1.14-.18-1.5-.54-.36-.36-.54-.78-.54-1.26s.18-.92,.54-1.32c.36-.4,.86-.6,1.5-.6,2.8-.16,4.92-.4,6.36-.72,1.52-.4,2.76-.98,3.72-1.74,.96-.76,1.88-1.82,2.76-3.18l16.44-32.4Z"/><g><path class="cls-1" d="M410.88,142.03c-5.1,5.49-9.75,8.24-13.95,8.24-2.55,0-4.5-1.23-5.83-3.69-1.33-2.46-2-5.75-2-9.88,0-3.19,.65-7.58,1.96-13.16,1.31-5.58,3-10.28,5.08-14.08l1.98-3.55c-2.71,2.83-4.93,5.92-6.67,9.28-1.73,3.36-3.8,8.06-6.2,14.1-2.4,6.04-4.22,10.15-5.45,12.34s-2.41,3.97-3.54,5.35c-1.13,1.38-2.13,2.27-3.01,2.68-.88,.41-2.41,.62-4.6,.62-.84,0-1.26-.23-1.26-.68,0-.05,.15-.76,.45-2.15,.3-1.39,.61-3.62,.92-6.68s.54-8.27,.68-15.62,1.21-13.64,3.21-18.88c-2.14,2.44-4.33,8.11-6.57,17.02l-.86,3.35c-2.35,9.27-5.04,15.53-8.08,18.78-3.03,3.25-6.01,4.87-8.93,4.87-1.8,0-3.39-.57-4.76-1.71-1.37-1.14-2.05-2.45-2.05-3.93,0-1.14,.82-2.41,2.46-3.83,1.64-1.41,2.68-2.12,3.11-2.12,.5,0,.83,.17,.99,.51,.16,.34,.37,1.28,.62,2.82s.63,2.54,1.15,3.01c.51,.47,1.16,.7,1.94,.7,1.76,0,3.7-1.76,5.83-5.28s4.07-8.96,5.83-16.32l.99-4.13c.8-3.37,1.59-6.06,2.37-8.07,.78-2.01,1.8-4.01,3.08-6.02,1.85-2.87,2.99-4.4,3.41-4.6,.42-.19,1.21-.35,2.38-.48s2.32-.19,3.49-.19c.46,0,.68,.26,.68,.79,0,.25-.07,.76-.21,1.54-.45,3.19-.66,6.39-.64,9.6l.07,9.16c.04,7.98-.59,14.41-1.91,19.31,1.21-1.46,2.96-5.22,5.26-11.28,3.33-8.59,6.36-15.04,9.09-19.35,1.3-2.07,2.87-4.06,4.7-5.96,1.83-1.9,3.1-2.92,3.81-3.06,2.42-.46,4.45-.68,6.12-.68,.62,0,.92,.17,.92,.51,0,.48-.38,1.55-1.12,3.21-1.77,4.01-3.43,9.44-4.96,16.27s-2.31,12.28-2.32,16.33c0,4.58,1.4,6.87,4.2,6.87,2.28,0,4.99-1.94,8.13-5.81v3.93Z"/><path class="cls-1" d="M427.66,142.03c-5.33,5.61-9.32,8.41-11.96,8.41-1.46,0-2.69-.75-3.69-2.24-1-1.49-1.5-3.37-1.5-5.62,0-4.85,1.64-11.57,4.92-20.17l8.68-1.81h.41l-3.42,10.7c-1.41,4.42-2.12,7.58-2.12,9.47,0,.75,.17,1.36,.5,1.83,.33,.47,.75,.7,1.25,.7,.89,0,1.78-.33,2.68-.97s2.32-2.06,4.26-4.22v3.93Zm-.68-34.79c0,5.47-2.02,8.2-6.05,8.2-1.96,0-3.63-.59-5.02-1.78,1.32-2,2.35-4.26,3.08-6.77,1.8,1.12,3.25,1.68,4.34,1.68,1.23,0,2.45-.45,3.66-1.33Z"/><path class="cls-1" d="M461.22,142.03c-5.26,5.56-9.78,8.34-13.54,8.34-1.53,0-2.76-.54-3.69-1.61-.93-1.07-1.4-2.51-1.4-4.31,0-2.44,1-6.16,3.01-11.18,1.07-2.69,1.61-4.4,1.61-5.13s-.29-1.09-.85-1.09c-.32,0-.74,.16-1.26,.48-.48,.32-1.04,.76-1.67,1.33-.57,.52-1.21,1.16-1.91,1.91-.62,.64-1.28,1.37-1.98,2.19l-1.91,2.22c-.84,1.03-1.37,2.11-1.57,3.25-.34,1.94-.57,3.71-.68,5.33-.07,1.21-.1,2.84-.1,4.89l-7.55,1.78c-.25-3.08-.38-5.37-.38-6.87,0-3.67,.43-7.14,1.28-10.43,.86-3.28,2.23-6.97,4.12-11.07l8.34-1.61c-1.75,4.72-2.91,8.43-3.45,11.14,3.73-4.17,6.7-7.06,8.89-8.67,2.19-1.61,4.15-2.41,5.85-2.41,1.16,0,2.13,.44,2.9,1.31,.77,.88,1.16,1.97,1.16,3.29,0,2.18-.98,5.78-2.94,10.8-1.34,3.44-2.02,5.68-2.02,6.7,0,1.37,.56,2.06,1.68,2.06,1.67,0,4.36-2.2,8.09-6.6v3.93Z"/><path class="cls-1" d="M491.88,142.03c-1.16,1.03-2.29,1.75-3.38,2.17-1.09,.42-1.96,.63-2.6,.63-1.64,0-3.27-.64-4.89-1.91-3.28,4.97-7.04,7.45-11.28,7.45-2.64,0-4.79-.99-6.43-2.97s-2.46-4.62-2.46-7.9c0-5.2,1.85-9.66,5.54-13.38s8.1-5.59,13.23-5.59c1.94,0,3.35,.21,4.25,.63,.9,.42,1.45,.92,1.66,1.49,.21,.57,.31,1.29,.31,2.15,0,4.26-1.16,9.49-3.49,15.69,1.16,1.07,2.38,1.61,3.66,1.61,1.53,0,3.49-1.33,5.88-4v3.93Zm-11.28-19.11c-.34-.14-.83-.21-1.47-.21-2.96,0-5.28,1.55-6.96,4.65-1.67,3.1-2.51,6.72-2.51,10.87,0,2.3,.36,4.09,1.09,5.37,.73,1.28,1.74,1.91,3.04,1.91,1.62,0,3.37-1.49,5.26-4.48-2.14-2.69-3.21-5.58-3.21-8.68,0-3.65,1.58-6.79,4.75-9.43Z"/><path class="cls-1" d="M517.42,142.03c-5.72,5.61-10.13,8.41-13.23,8.41-1.39,0-2.56-.59-3.52-1.76s-1.44-2.63-1.44-4.36c0-3.21,1.72-7.52,5.16-12.92-1.69,.87-3.53,1.47-5.54,1.81-1.48,2.73-3.81,5.67-6.97,8.82h-.79v-3.08c1.78-1.85,3.38-3.83,4.82-5.95-1.96-.87-2.94-2.15-2.94-3.86s.6-3.63,1.79-5.62c1.2-1.99,2.84-2.99,4.94-2.99,1.78,0,2.67,.91,2.67,2.73,0,1.44-.51,3.49-1.54,6.15,3.78-.41,7.09-3.3,9.91-8.68l3.11-.14-3.18,8.75c-1.32,3.69-2.18,6.2-2.56,7.54-.39,1.33-.58,2.51-.58,3.54,0,.96,.22,1.72,.67,2.29,.44,.57,1.04,.86,1.79,.86,.82,0,1.61-.28,2.36-.84s2.44-2.1,5.06-4.63v3.93Z"/><path class="cls-1" d="M582.32,142.06c-5.24,5.58-10.05,8.37-14.42,8.37-2.42,0-4.33-.85-5.74-2.56-1.41-1.71-2.2-4.15-2.36-7.31-2.76,3.35-5.2,5.83-7.33,7.45-2.13,1.62-4.4,2.43-6.82,2.43-3.1,0-5.59-1.34-7.47-4.02-1.88-2.68-2.82-6.25-2.82-10.71,0-5.33,1.23-10.83,3.69-16.49s6.11-10.13,10.94-13.42c4.83-3.28,10.69-4.92,17.57-4.92,5.15,0,9.81,.7,13.98,2.09v2.26c-3.4,3.96-6.24,9.51-8.53,16.64-2.29,7.13-3.44,12.57-3.44,16.3,0,1.82,.37,3.24,1.11,4.24,.74,1,1.77,1.5,3.09,1.5,2.37,0,5.22-1.93,8.54-5.78v3.93Zm-9.95-36.85c-2.1-1.14-4.35-1.71-6.77-1.71-3.81,0-7.24,1.59-10.29,4.77-3.05,3.18-5.46,7.39-7.23,12.63-1.77,5.24-2.65,9.79-2.65,13.64,0,2.57,.5,4.67,1.49,6.27,.99,1.61,2.26,2.41,3.81,2.41,2.69,0,5.78-2.45,9.26-7.35,1.44-12.85,5.56-23.07,12.37-30.66Z"/><path class="cls-1" d="M607.85,142.03c-5.72,5.61-10.13,8.41-13.23,8.41-1.39,0-2.56-.59-3.52-1.76s-1.44-2.63-1.44-4.36c0-3.21,1.72-7.52,5.16-12.92-1.69,.87-3.53,1.47-5.54,1.81-1.48,2.73-3.81,5.67-6.97,8.82h-.79v-3.08c1.78-1.85,3.38-3.83,4.82-5.95-1.96-.87-2.94-2.15-2.94-3.86s.6-3.63,1.79-5.62c1.2-1.99,2.84-2.99,4.94-2.99,1.78,0,2.67,.91,2.67,2.73,0,1.44-.51,3.49-1.54,6.15,3.78-.41,7.09-3.3,9.91-8.68l3.11-.14-3.18,8.75c-1.32,3.69-2.18,6.2-2.56,7.54-.39,1.33-.58,2.51-.58,3.54,0,.96,.22,1.72,.67,2.29,.44,.57,1.04,.86,1.79,.86,.82,0,1.61-.28,2.36-.84s2.44-2.1,5.06-4.63v3.93Z"/><path class="cls-1" d="M633.42,142.03c-2.92,2.87-5.59,4.98-8.02,6.32-2.43,1.34-4.96,2.02-7.6,2.02-2.96,0-5.41-.96-7.33-2.89-1.93-1.92-2.89-4.37-2.89-7.33,0-4.85,1.77-9.34,5.31-13.45,3.54-4.11,7.38-6.17,11.5-6.17,2.03,0,3.68,.56,4.96,1.69,1.28,1.13,1.91,2.59,1.91,4.39,0,.64-.12,1.12-.36,1.44-.24,.32-.69,.64-1.35,.96l-3.96,1.88c-.48,.23-.83,.34-1.06,.34-.32,0-.48-.23-.48-.68,0-.18,.07-.78,.21-1.79,.14-1.01,.21-1.63,.21-1.86,0-1-.21-1.81-.63-2.43s-.99-.92-1.69-.92c-1.66,0-3.18,1.23-4.56,3.69-1.38,2.46-2.07,5.26-2.07,8.41,0,2.71,.65,4.88,1.95,6.49,1.3,1.62,3.03,2.43,5.2,2.43,1.85,0,3.58-.53,5.21-1.59s3.48-2.68,5.55-4.87v3.93Z"/><path class="cls-1" d="M669.92,142.03c-3.65,3.46-6.25,5.72-7.83,6.77-1.57,1.05-3.08,1.57-4.51,1.57-3.6,0-5.3-3.18-5.09-9.54-2.28,3.26-4.38,5.66-6.31,7.21-1.93,1.55-3.91,2.32-5.96,2.32s-3.71-.94-5.11-2.82c-1.4-1.88-2.1-4.19-2.1-6.92,0-3.42,.94-6.68,2.82-9.78,1.88-3.1,4.29-5.61,7.23-7.52s5.54-2.87,7.79-2.87c2.85,0,4.84,1.31,5.98,3.93l6.99-3.86h1.92l-3.01,10.01c-1.55,5.04-2.33,8.49-2.33,10.36,0,1.96,.69,2.94,2.08,2.94,.89,0,1.87-.47,2.94-1.42,1.07-.95,2.57-2.39,4.51-4.32v3.93Zm-25.02,1.88c2.28,0,4.43-1.94,6.44-5.83,2.02-3.88,3.02-7.47,3.02-10.75,0-1.28-.29-2.27-.85-2.99-.57-.72-1.33-1.08-2.29-1.08-2.28,0-4.44,1.94-6.48,5.81-2.04,3.87-3.06,7.44-3.06,10.7,0,1.23,.3,2.23,.91,2.99,.6,.76,1.37,1.15,2.31,1.15Z"/><path class="cls-1" d="M703.46,142.03c-5.26,5.56-9.78,8.34-13.54,8.34-1.53,0-2.76-.54-3.69-1.61-.93-1.07-1.4-2.51-1.4-4.31,0-2.44,1-6.16,3.01-11.18,1.07-2.69,1.61-4.4,1.61-5.13s-.29-1.09-.85-1.09c-.32,0-.74,.16-1.26,.48-.48,.32-1.04,.76-1.67,1.33-.57,.52-1.21,1.16-1.91,1.91-.62,.64-1.28,1.37-1.98,2.19l-1.91,2.22c-.84,1.03-1.37,2.11-1.57,3.25-.34,1.94-.57,3.71-.68,5.33-.07,1.21-.1,2.84-.1,4.89l-7.55,1.78c-.25-3.08-.38-5.37-.38-6.87,0-3.67,.43-7.14,1.28-10.43,.86-3.28,2.23-6.97,4.12-11.07l8.34-1.61c-1.75,4.72-2.91,8.43-3.45,11.14,3.73-4.17,6.7-7.06,8.89-8.67,2.19-1.61,4.15-2.41,5.85-2.41,1.16,0,2.13,.44,2.9,1.31,.77,.88,1.16,1.97,1.16,3.29,0,2.18-.98,5.78-2.94,10.8-1.34,3.44-2.02,5.68-2.02,6.7,0,1.37,.56,2.06,1.68,2.06,1.67,0,4.36-2.2,8.09-6.6v3.93Z"/><path class="cls-1" d="M739.92,142.03c-3.65,3.46-6.25,5.72-7.83,6.77-1.57,1.05-3.08,1.57-4.51,1.57-3.6,0-5.3-3.18-5.09-9.54-2.28,3.26-4.38,5.66-6.31,7.21-1.93,1.55-3.91,2.32-5.96,2.32s-3.71-.94-5.11-2.82c-1.4-1.88-2.1-4.19-2.1-6.92,0-3.42,.94-6.68,2.82-9.78,1.88-3.1,4.29-5.61,7.23-7.52s5.54-2.87,7.79-2.87c2.85,0,4.84,1.31,5.98,3.93l6.99-3.86h1.92l-3.01,10.01c-1.55,5.04-2.33,8.49-2.33,10.36,0,1.96,.69,2.94,2.08,2.94,.89,0,1.87-.47,2.94-1.42,1.07-.95,2.57-2.39,4.51-4.32v3.93Zm-25.02,1.88c2.28,0,4.43-1.94,6.44-5.83,2.02-3.88,3.02-7.47,3.02-10.75,0-1.28-.29-2.27-.85-2.99-.57-.72-1.33-1.08-2.29-1.08-2.28,0-4.44,1.94-6.48,5.81-2.04,3.87-3.06,7.44-3.06,10.7,0,1.23,.3,2.23,.91,2.99,.6,.76,1.37,1.15,2.31,1.15Z"/></g><g><path class="cls-1" d="M472.58,1852.82c-4.1,7.7-8.57,11.55-13.4,11.55-2.53,0-4.56-.93-6.08-2.79-1.53-1.86-2.29-4.31-2.29-7.37,0-3.55,1.27-8.96,3.81-16.2s3.81-12.37,3.81-15.38c0-1.34-.38-2.46-1.15-3.35s-1.71-1.33-2.85-1.33c-1.75,0-3.5,1.07-5.23,3.21-1.73,2.14-2.6,4.33-2.6,6.56,0,1.71,.77,3.49,2.32,5.33,.64,.78,.96,1.31,.96,1.61,0,.34-.49,1.11-1.47,2.29-.98,1.19-1.82,1.78-2.53,1.78-.75,0-1.61-.55-2.56-1.64s-1.44-2.72-1.44-4.89c0-4.4,1.54-8.4,4.63-12,3.09-3.6,6.5-5.4,10.24-5.4,2.8,0,5.17,1.16,7.11,3.48,1.94,2.32,2.91,5.21,2.91,8.67-.03,3.64-1.21,8.8-3.54,15.47-2.33,6.67-3.48,11.13-3.47,13.39,0,1.07,.27,1.92,.82,2.55,.55,.63,1.28,.94,2.19,.94,1.98,0,3.95-1.62,5.91-4.85,1.96-3.23,3.75-7.87,5.37-13.91l3.21-12.03c1.25-4.74,2.65-8.88,4.2-12.41,.16-.39,1.22-.69,3.19-.91,1.97-.22,3.4-.33,4.29-.33s1.33,.18,1.33,.54l-6.26,23.86c-1.79,7-2.68,12.11-2.68,15.35,0,1.41,.3,2.54,.89,3.37,.59,.83,1.39,1.25,2.39,1.25,1.48,0,3.5-1.21,6.07-3.64,2.56-2.43,4.72-5.53,6.48-9.3,1.75-3.77,2.63-7.63,2.63-11.57,0-4.22-1.03-8.41-3.08-12.58-.57-1.21-.85-1.96-.85-2.26,0-.98,.94-2.06,2.82-3.25,1.88-1.18,3.23-1.78,4.05-1.78,.77,0,1.56,1.03,2.34,3.09,.79,2.06,1.18,4.22,1.18,6.48,0,5.99-1.4,12.13-4.2,18.41s-6.29,11.43-10.46,15.47-7.94,6.05-11.31,6.05c-2.39,0-4.29-.96-5.69-2.89-1.4-1.92-2.07-4.81-2-8.67Z"/><path class="cls-1" d="M542.65,1856.03c-3.65,3.46-6.25,5.72-7.83,6.77-1.57,1.05-3.08,1.57-4.51,1.57-3.6,0-5.3-3.18-5.09-9.54-2.28,3.26-4.38,5.66-6.31,7.21-1.93,1.55-3.91,2.32-5.96,2.32s-3.71-.94-5.11-2.82c-1.4-1.88-2.1-4.19-2.1-6.92,0-3.42,.94-6.68,2.82-9.78,1.88-3.1,4.29-5.61,7.23-7.52s5.54-2.87,7.79-2.87c2.85,0,4.84,1.31,5.98,3.93l6.99-3.86h1.92l-3.01,10.01c-1.55,5.04-2.33,8.49-2.33,10.36,0,1.96,.69,2.94,2.08,2.94,.89,0,1.87-.47,2.94-1.42,1.07-.95,2.57-2.39,4.51-4.32v3.93Zm-25.02,1.88c2.28,0,4.43-1.94,6.44-5.83,2.02-3.88,3.02-7.47,3.02-10.75,0-1.28-.29-2.27-.85-2.99-.57-.72-1.33-1.08-2.29-1.08-2.28,0-4.44,1.94-6.48,5.81-2.04,3.87-3.06,7.44-3.06,10.7,0,1.23,.3,2.23,.91,2.99,.6,.76,1.37,1.15,2.31,1.15Z"/><path class="cls-1" d="M576.18,1856.03c-5.26,5.56-9.78,8.34-13.54,8.34-1.53,0-2.76-.54-3.69-1.61-.93-1.07-1.4-2.51-1.4-4.31,0-2.44,1-6.16,3.01-11.18,1.07-2.69,1.61-4.4,1.61-5.13s-.29-1.09-.85-1.09c-.32,0-.74,.16-1.26,.48-.48,.32-1.04,.76-1.67,1.33-.57,.52-1.21,1.16-1.91,1.91-.62,.64-1.28,1.37-1.98,2.19l-1.91,2.22c-.84,1.03-1.37,2.11-1.57,3.25-.34,1.94-.57,3.71-.68,5.33-.07,1.21-.1,2.84-.1,4.89l-7.55,1.78c-.25-3.08-.38-5.37-.38-6.87,0-3.67,.43-7.14,1.28-10.43,.86-3.28,2.23-6.97,4.12-11.07l8.34-1.61c-1.75,4.72-2.91,8.43-3.45,11.14,3.73-4.17,6.7-7.06,8.89-8.67,2.19-1.61,4.15-2.41,5.85-2.41,1.16,0,2.13,.44,2.9,1.31,.77,.88,1.16,1.97,1.16,3.29,0,2.18-.98,5.78-2.94,10.8-1.34,3.44-2.02,5.68-2.02,6.7,0,1.37,.56,2.06,1.68,2.06,1.67,0,4.36-2.2,8.09-6.6v3.93Z"/><path class="cls-1" d="M612.65,1856.03c-3.28,3.26-5.78,5.46-7.5,6.61-1.72,1.15-3.24,1.73-4.56,1.73-1.62,0-2.9-.79-3.84-2.36-.95-1.57-1.43-3.87-1.45-6.9-1.87,3.03-3.9,5.33-6.1,6.9s-4.19,2.36-5.96,2.36c-1.94,0-3.65-.92-5.13-2.75-1.48-1.83-2.22-3.98-2.22-6.44,0-5.08,1.85-9.79,5.55-14.13,3.7-4.34,7.68-6.51,11.95-6.51,1.18,0,2.11,.17,2.79,.51s1.41,.92,2.21,1.74l4.89-20.44c3.99-.93,6.68-1.4,8.07-1.4,.46,0,.68,.18,.68,.55,0,.25-.57,2.61-1.71,7.08-4.55,17.87-6.83,28.64-6.83,32.33,0,.87,.18,1.56,.55,2.08,.36,.52,.84,.79,1.43,.79,1.46,0,3.86-1.89,7.2-5.67v3.93Zm-24.71,1.81c2.23,0,4.32-1.89,6.25-5.67,1.94-3.78,2.91-7.33,2.91-10.63,0-1.34-.3-2.41-.91-3.21-.6-.8-1.4-1.2-2.38-1.2-2.12,0-4.17,1.98-6.15,5.93s-2.97,7.53-2.97,10.71c0,1.25,.29,2.25,.87,2.97,.58,.73,1.37,1.09,2.38,1.09Z"/><path class="cls-1" d="M623.14,1836c1.57-.41,3.16-.75,4.75-1.01,1.59-.26,2.55-.39,2.87-.39,.23,0,.34,.09,.34,.27,0,.34-.09,.69-.27,1.06-.37,1.05-.55,2.05-.55,3.01,0,1.18,.69,2.8,2.05,4.85s2.05,3.96,2.05,5.71c0,3.49-1.67,6.85-5.01,10.08-3.34,3.24-6.8,4.85-10.37,4.85-1.55,0-2.96-.41-4.24-1.23-1.28-.82-1.91-1.7-1.91-2.63,0-.55,.63-1.58,1.9-3.11,1.26-1.53,2.17-2.29,2.72-2.29,.73,0,1.38,.93,1.95,2.8,.57,1.87,1.55,2.8,2.94,2.8s2.69-.64,3.91-1.93,1.83-2.67,1.83-4.15c0-1.44-.77-3.35-2.32-5.74s-2.58-4.4-3.08-6.01c-2.64,4.26-5.99,8.62-10.05,13.09h-.79v-3.08c5.58-5.95,9.34-11.6,11.28-16.95Z"/></g></g></g><g id="_반짝이"><polygon class="cls-7" points="350.14 761 357.2 788.4 379.94 794.03 357.2 800.21 350.14 828.12 342.7 800.21 320.33 794.03 342.7 788.4 350.14 761"/><polygon class="cls-6" points="434.65 591.06 445.58 633.5 480.8 642.22 445.58 651.78 434.65 695 423.13 651.78 388.5 642.22 423.13 633.5 434.65 591.06"/><circle class="cls-7" cx="495.56" cy="674.1" r="10.17"/><circle class="cls-6" cx="506.66" cy="719.42" r="7.4"/><circle class="cls-6" cx="302.28" cy="721.27" r="12.95"/><circle class="cls-7" cx="228.76" cy="761.5" r="7.86"/><circle class="cls-7" cx="751.27" cy="625.55" r="9.71"/><circle class="cls-6" cx="796.13" cy="660.23" r="6.47"/><circle class="cls-7" cx="824.8" cy="638.04" r="5.55"/><circle class="cls-6" cx="855.32" cy="715.72" r="10.17"/><circle class="cls-6" cx="199.62" cy="724.97" r="4.62"/></g><g id="_완드_9"><path class="cls-4" d="M542.76,630.31c1.47,19.71,2.39,31.91,10.88,43.28,12.73,17.02,38.96,27.43,60.29,27.97,27.69,.69,46.01-15.28,51.53-31.48,5.85-17.17-5.35-26.81-.77-42.77,3.48-12.12,15.52-25.97,52.8-33.96-6.39-2.42-17.19-5.76-30.07-6.1-18.33-.48-30.34,5.41-35.46,8.38,4.39-5.89,8.74-13.95,10.51-24.39,6.03-35.59-22.97-69.3-29.16-76.24,1.74,6.23,6.27,25.75-5.43,42.71-5.62,8.14-13.06,12.91-18.43,15.6-1.37-1.21-14.27-12.93-13-27.11,.91-10.12,8.47-15.19,10.59-16.51-3.77,.44-7.95,1.37-12.03,3.21-16.88,7.62-18.91,24.86-19.26,29.29-.14-1.43-1.07-8.9-8.64-15.44-5.24-4.52-10.87-6.2-13.11-6.77,1.77,4.19,4.08,10.63,5.08,18.31,.75,5.74,.92,13.31-5.51,34.82-6.21,20.78-9.29,23.47-10.71,36.85-.94,8.87-.45,15.86-.12,20.34Z"/><path class="cls-3" d="M593.84,579.17c-9.52-.88-17.03,4.78-19.55,6.89-2.61,2.19-8.86,7.42-11.57,16.87-2.03,7.07-.91,12.47,.03,20.86,1.34,12-.42,5.62,.92,40.75,1.13,29.58,2.14,27.71,1.79,39.77-.43,15.02-1.9,14.69-3.5,36.25-1.36,18.29-.62,22.82-1.75,44.72-.77,14.97-1.84,26.98-2.56,34.23-3.71-2.68-7.77-6.05-11.92-10.28-7.71-7.85-13.33-16.19-17.3-23.2-3.96,3.53-7.93,7.06-11.89,10.59,1.57,3.8,3.96,9.75,6.65,17.19,7.18,19.87,8.65,28.68,13.54,41.69,2.86,7.6,7.54,18.38,15.18,30.34-.38,2.43-.93,5.99-1.56,10.31-1.05,7.15-1.57,10.72-1.72,12.39-.72,8.16,.4,9.62,.11,19.83-.1,3.38-.38,6.4-.93,12.45-1.07,11.68-1.75,13.83-2.42,21.73-.67,7.94-.14,7.75-.68,19.77-.32,7.03-.69,15.37-1.78,23.86-.77,5.98-1.46,8.72-6.03,27.71-4.94,20.53-7.42,30.87-8.15,34.86-2.31,12.58-1.57,12.99-4.53,28.87-2.7,14.44-4.54,20.71-5.8,24.6-2.97,9.17-3.83,8.75-5.03,14.23-1.62,7.42-.93,12.35,.35,27.15,1.34,15.5,2.01,23.25,1.93,27.27-.19,9.69-1.36,8.48-3.82,29.97-1.81,15.75-1.53,19.4-3.75,28.93-1.37,5.87-1.89,6.26-5.26,17.34-2.9,9.55-6.1,20.04-8.79,32.72-3.39,16.02-1.09,12.45-4.84,33.02-1.19,6.54-3.07,15.89-.36,26.05,.24,.91,.47,1.64,.63,2.13,2.99,1.3,7.55,2.85,13.25,3.08,4.37,.17,10.1,.39,15.29-3.03,4.7-3.1,8.46-8.86,12.82-23.03,5.48-17.78,6.72-31.9,7.91-42.18,.25-2.17,3.72-20.65,10.65-57.62,9.44-50.34,9.81-49.54,10.8-59.7,2.03-20.91,.65-26.58,4.68-41.38,3.94-14.48,8.03-19.26,10.37-32.61,2.45-14.03,1-26.31-.6-34.47,2.73-3.4,6.34-8.66,9.13-16.01,5.1-13.42,3.74-24.01,3.89-41.44,.04-5.39,.37-28.16,4.74-52.85,3.96-22.37,6.5-19.54,10.35-43.04,1.93-11.77,2.55-20.15,7.77-29.67,1.37-2.51,4.19-6.64,9.84-14.91,6.03-8.84,7.76-10.89,9.91-15.95,.41-.97,6.09-14.52,2.97-18.55-.81-1.05-2.01-1.19-2.29-1.21-2.21-.19-3.83,2.26-5.91,4.77-3.74,4.51-3.34,2.39-10.24,9.67-1.6,1.68-3.69,3.98-6.06,6.85,.45-4.71,1.08-11.92,1.55-20.75,.54-10.21,1.06-19.84,.82-32.28-.24-12.59-1.04-17.49,.44-27.09,.9-5.88,1.6-10.14,4.24-14.29,3.99-6.27,8.68-6.4,9.53-10.76,.43-2.21-.05-5.92-5.46-11.88,.82-5.35,.95-9.64,.93-12.45-.06-8.68-1.57-12.08-.18-18.79,.39-1.88,1.07-5.04,2.99-8.12,3.29-5.3,7.46-5.04,11.66-7.47,8.7-5.04,12.46-18.16,13.53-21.94,4.36-15.28,.36-28.66-.75-32.39-2.05-6.84-5.82-12.19-13.36-22.9-5.24-7.44-10.28-14.53-18.17-22.22-9.93-9.69-14.9-14.53-22.65-15.25Z"/><path class="cls-3" d="M501.26,834.52c-2.16-1.92-7.1-6.18-15.26-6.3-5.21-.08-12.74,1.52-16.59,5.58-2.88,3.04-3.15,6.89,3.5,23.03,4.19,10.16,7.71,16.93,11.18,24.24,4.08,8.6,6.65,14.92,9.65,22.3,7.89,19.41,12.49,34.72,13.55,38.3,2.58,8.69,4.67,17.92,8.85,36.36,3.63,15.99,5.41,24.73,8.74,40.24,2.64,12.29,6.15,28.42,10.51,47.51,7.91,34.65,8.95,36.46,11.04,49.69,2.84,17.99,1.43,17.87,4.4,39.75,1.95,14.39,4.64,27.73,9.93,53.81,6.79,33.45,7.77,34.93,10.75,52.84,4.33,25.97,6.49,38.96,5.64,44.84-2.94,20.24-1.76,27.31,.59,41.45,.43,2.58,1.44,7.9,6.46,9.21,4.12,1.07,9.62-.9,12.96-3.15,7.92-5.36,7.07-14.71,6.82-24-.7-25.97,4.16-19.53,2.58-41.45-1.3-18.02-4.86-26.2-13.81-56.72-9.42-32.11-14.13-48.16-16.4-63.02-4.37-28.65,.36-30.24-3.38-61.57-1.66-13.91-3.1-17.89-15.65-68.59-4.66-18.83-11.54-46.64-18.24-74.9-5.75-24.27-16.04-47.65-17.7-72.71,0,0-2.74-41.22-20.14-56.72Z"/><path class="cls-3" d="M286.19,791.3c-1.83-2.24-6.04-7.22-14.07-8.63-5.13-.9-12.82-.51-17.26,2.88-3.33,2.55-4.2,6.3-.19,23.29,2.53,10.7,4.93,17.93,7.2,25.7,2.67,9.13,4.21,15.78,6,23.54,4.72,20.41,6.84,36.25,7.32,39.96,1.17,8.99,1.77,18.43,2.99,37.3,1.05,16.36,1.43,25.27,2.26,41.11,.66,12.56,1.58,29.04,2.86,48.57,2.33,35.46,3.07,37.42,3.04,50.81-.04,18.21-1.42,17.87-1.94,39.95-.35,14.52,.2,28.11,1.3,54.7,1.41,34.11,2.15,35.72,2.26,53.88,.16,26.33,.25,39.5-1.53,45.17-6.1,19.52-6.06,26.69-5.97,41.02,.02,2.61,.17,8.03,4.93,10.12,3.89,1.71,9.64,.64,13.29-1.06,8.67-4.04,9.31-13.41,10.54-22.62,3.42-25.75,7.19-18.63,9.1-40.52,1.57-18-.65-26.64-4.66-58.19-4.22-33.19-6.33-49.79-6.22-64.82,.21-28.98,5.13-29.8,6.4-61.33,.56-14-.23-18.16-4.6-70.21-1.62-19.33-4.01-47.88-6.16-76.84-1.84-24.88-8.29-49.59-5.98-74.6,0,0,3.81-41.14-10.92-59.19Z"/><path class="cls-3" d="M338.41,924.99c1.22-1.54,4.05-4.97,9.89-6.26,3.73-.83,9.42-.95,12.89,1.03,2.59,1.49,3.45,3.87,1.44,15.06-1.26,7.04-2.64,11.84-3.88,16.98-1.46,6.04-2.22,10.42-3.11,15.52-2.34,13.43-3.02,23.79-3.16,26.2-.36,5.87-.28,12.01-.12,24.28,.14,10.64,.36,16.42,.63,26.71,.21,8.16,.46,18.86,.6,31.56,.26,23.06-.17,24.36,.6,33.02,1.05,11.78,2.04,11.49,3.67,25.75,1.07,9.38,1.43,18.2,2.1,35.46,.87,22.13,.41,23.22,1.34,34.97,1.35,17.04,2.02,25.57,3.65,29.15,5.59,12.34,5.96,16.98,6.7,26.25,.13,1.69,.32,5.21-3.07,6.78-2.78,1.29-7.07,.88-9.86-.05-6.62-2.2-7.62-8.22-9.03-14.13-3.96-16.5-6.34-11.71-8.97-25.78-2.16-11.57-1.01-17.27,.19-37.87,1.26-21.68,1.89-32.52,.97-42.24-1.78-18.74-5.45-19.03-8.15-39.37-1.2-9.03-.84-11.76-.53-45.64,.12-12.59,.29-31.17,.25-50.01-.03-16.19,3.35-32.48,.24-48.55,0,0-5.11-26.43,4.74-38.82Z"/><path class="cls-3" d="M841.54,772.62c-1.64-2.38-5.44-7.68-13.33-9.73-5.04-1.31-12.74-1.54-17.44,1.49-3.52,2.27-4.69,5.94-2.06,23.2,1.66,10.86,3.48,18.27,5.12,26.19,1.93,9.32,2.93,16.07,4.1,23.95,3.07,20.72,3.91,36.69,4.09,40.41,.44,9.06,.29,18.51,0,37.42-.26,16.39-.6,25.3-1.03,41.16-.34,12.57-.75,29.07-1.04,48.65-.52,35.54,.06,37.54-1.04,50.89-1.5,18.15-2.84,17.7-5.14,39.66-1.51,14.44-2.06,28.04-3.09,54.63-1.33,34.11-.72,35.78-2.06,53.88-1.94,26.26-2.92,39.39-5.14,44.9-7.65,18.97-8.18,26.12-9.24,40.41-.19,2.6-.47,8.02,4.1,10.48,3.75,2.01,9.56,1.41,13.33,0,8.97-3.33,10.36-12.62,12.31-21.7,5.47-25.4,8.66-17.99,12.32-39.66,3-17.82,1.49-26.61,.01-58.37-1.55-33.42-2.33-50.13-1.01-65.11,2.53-28.87,7.5-29.29,11.29-60.62,1.68-13.91,1.22-18.12,1.04-70.35-.07-19.4-.17-48.05,.02-77.08,.16-24.95-4.3-50.09,.02-74.84,0,0,7.09-40.7-6.14-59.87Z"/><path class="cls-3" d="M708.06,769.59c-2.86-2.85-7.96-3.94-11.86-3.24-2.93,.53-4.83,2.01-11.6,8.84-6.81,6.88-10.21,10.31-10.82,11.47-1.63,3.12-2.19,6.03-2.15,22.29,.01,5.69,.02,8.54,.17,13.8,.5,17.72-3.99,25.52-6,41.9-1.28,10.39,.27,9.29,.84,35.38,.35,16.06,.69,32-.94,50.8-1.8,20.84-3.93,20.96-7.49,52.16-1.71,14.99-2.74,24.19-2.95,36.9-.33,19.87,1.7,25.42,2.26,43.21,.51,16.5-1.03,18.23-3.94,54.94-2.4,30.33-3.6,45.5-3.44,62.72,.31,32.92,4.09,33.71,2.33,58.73-.95,13.45,.59,27.18-2.22,40.38-1.4,6.6-3.73,14.88,.57,23.3,.46,.9,5.47,10.41,12.41,10.16,6.24-.22,10.16-8.19,11.74-11.42,4.54-9.24,3.62-17.29,3.26-25.68-1-23.25,3.45-22.06,2.59-47.26-.47-13.81-2.03-20.61-3.01-29.47-2.52-22.64,1.59-32.77,7.65-71.97,7.88-50.89,11.83-76.39,10.23-102-.82-13.09-2.79-21.55,.96-34.42,3.12-10.69,8.05-17.05,6.17-28.1-.8-4.73-2.22-6.59-3.82-14.86-1.42-7.36-1.68-13.07-1.83-17.34-1.08-30.67-.18-47.41-.18-47.41,1.66-30.63,3.6-27.77,4.82-54.03,1.52-32.9-1.79-31.64,1.58-45.59,3.92-16.22,10.85-28.05,4.66-34.22Z"/><path class="cls-3" d="M418.4,843.57c-2.82-1.88-7.33-2.07-10.59-.99-2.44,.81-3.88,2.24-8.79,8.57-4.94,6.37-7.41,9.55-7.78,10.55-.99,2.7-1.09,5.08,1.06,17.99,.75,4.52,1.13,6.78,1.94,10.93,2.74,14-.09,20.8,.31,34.07,.26,8.42,1.45,7.34,5.33,27.98,2.39,12.71,4.76,25.32,5.81,40.46,1.17,16.79-.64,17.17,.37,42.42,.48,12.13,.8,19.57,2.28,29.69,2.3,15.82,4.77,19.96,7.57,34.01,2.59,13.03,1.49,14.61,3.78,44.15,1.89,24.41,2.84,36.61,5.22,50.27,4.55,26.1,7.9,26.22,9.65,46.33,.94,10.81,4.05,21.5,3.36,32.36-.34,5.43-1.26,12.31,3.53,18.43,.51,.65,6.04,7.54,11.96,6.41,5.32-1.01,7.64-7.86,8.58-10.63,2.69-7.94,.85-14.21-.55-20.82-3.88-18.33,.09-17.98-3.93-37.87-2.2-10.91-4.42-16.1-6.42-23-5.11-17.64-2.91-26.23-2.81-58.17,.12-41.46,.19-62.24-4.52-82.35-2.41-10.29-5.2-16.74-3.66-27.46,1.28-8.91,4.68-14.62,1.63-23.14-1.31-3.65-2.76-4.94-5.21-11.29-2.17-5.65-3.14-10.15-3.82-13.52-4.92-24.21-6.33-37.62-6.33-37.62-2.57-24.54-.53-22.53-2.91-43.55-2.98-26.33-5.66-24.88-4.59-36.41,1.25-13.4,5.64-23.72-.47-27.79Z"/><path class="cls-3" d="M738.3,677.06c6.23-7.96,8.31-10.38,11.58-10.65,3.45-.28,4.48,2.16,12.04,6.72,10.35,6.24,13.47,4.7,15.75,8.65,2.91,5.03,.35,11.82-2.4,19.12-2.41,6.4-4.43,7.89-6.04,14.45-1.09,4.45-.86,6.6-1.24,10.93-1.28,14.42-6.1,16.13-6.34,25.41-.23,9.24,4.48,10.46,7.84,23.05,2.2,8.25,2.24,15.51,1.13,27.44-2.53,27.15-8.59,51.9-10.05,58.2-4.02,17.3-4.27,35.55-4.79,72.04-.54,38.33,2.4,48.43,4.41,114.32,.4,12.98,.46,18.41,1.08,29.26,1.21,21.09,2.54,27.92,2.54,44.84,0,8.12-.3,8.17-.6,21.91-.37,17.4,1.36,23.14-.06,36.54-.91,8.58-1.58,7.58-2.3,15.47-1,10.88,.04,15.47,1.01,32,1.45,24.95,.1,31.87-2.92,38.29-.74,1.57-5.74,12.19-10.66,11.59-3.32-.41-5.25-5.78-6.33-9.31-7.45-24.37-4.53-59.39-3.72-70.45,.78-10.63,1.85-25.91,1.24-45.65-1-32.73-5.15-29.95-5.04-56.78,.09-19.94,2.41-29.91-4.47-43.06-3.82-7.31-7.1-9.13-8.95-16.69-2.84-11.63,2.07-19,4.63-31.85,2.38-11.97-.3-13.72-.91-35.66-.48-17.14,.98-18.08,2.21-46.53,.63-14.48,1.44-33.29,.6-56.63-1.23-34.37-4.39-32.57-2.44-48.49,1.81-14.75,5.39-23.4,2.95-39.2-.86-5.56-1.72-7.22-4.15-20.21-2.47-13.2-3.7-19.8-4-25.69-.5-9.89-1.23-24.26,6.68-38.19,.56-.99,4.28-5.73,11.7-15.21Z"/><path class="cls-3" d="M236.41,839.91c-4.83-6.16-6.43-8.04-8.96-8.24-2.67-.22-3.46,1.67-9.32,5.21-8.01,4.83-10.43,3.64-12.2,6.7-2.26,3.89-.27,9.15,1.86,14.8,1.87,4.95,3.43,6.11,4.67,11.19,.84,3.44,.66,5.11,.96,8.46,.99,11.16,4.73,12.49,4.91,19.67,.18,7.16-3.47,8.1-6.07,17.85-1.7,6.39-1.74,12.01-.88,21.24,1.96,21.02,6.65,40.18,7.78,45.06,3.11,13.39,3.31,27.52,3.71,55.78,.42,29.68-1.85,37.5-3.41,88.51-.31,10.05-.36,14.26-.84,22.66-.94,16.33-1.96,21.61-1.97,34.71,0,6.28,.24,6.32,.46,16.96,.29,13.47-1.05,17.91,.04,28.29,.7,6.65,1.22,5.87,1.78,11.98,.77,8.43-.03,11.97-.78,24.78-1.13,19.31-.08,24.68,2.26,29.65,.57,1.21,4.45,9.44,8.25,8.97,2.57-.32,4.07-4.48,4.9-7.21,5.77-18.87,3.51-45.98,2.88-54.54-.6-8.23-1.43-20.06-.96-35.34,.78-25.34,3.99-23.19,3.9-43.96-.07-15.44-1.87-23.16,3.46-33.34,2.96-5.66,5.5-7.07,6.93-12.92,2.2-9-1.6-14.71-3.58-24.66-1.85-9.27,.23-10.63,.7-27.61,.37-13.27-.76-14-1.71-36.03-.48-11.21-1.11-25.77-.47-43.84,.95-26.61,3.4-25.22,1.89-37.54-1.4-11.42-4.17-18.12-2.28-30.35,.66-4.31,1.33-5.59,3.21-15.65,1.91-10.22,2.87-15.33,3.1-19.89,.39-7.66,.95-18.78-5.18-29.57-.44-.77-3.31-4.44-9.06-11.78Z"/></g></svg>