<?xml version="1.0" encoding="UTF-8"?><svg xmlns="http://www.w3.org/2000/svg" viewBox="0 0 1080 1944"><defs><style>.cls-1{fill:#fff;}.cls-2{fill:#f6ef84;}.cls-3{fill:#3f3730;}.cls-4{fill:#4c5fa9;}.cls-5{fill:#bad6eb;}.cls-6{fill:#c8c0de;}.cls-7{fill:#b1d4f0;}</style></defs><g id="_배경_텍스트"><g><rect class="cls-5" width="1080" height="1944"/><rect class="cls-1" x="74.84" y="186.39" width="930.33" height="1606.64" rx="65.21" ry="65.21"/><g><path class="cls-3" d="M260.84,1613.61c-2.34,2.11-4.04,4.58-5.11,7.39-1.06,2.81-2.16,8.67-3.29,17.56-1.13,8.9-2.93,15.9-5.42,21.02s-6.41,9.39-11.77,12.81c-5.36,3.42-11.24,5.13-17.65,5.13-4.55,0-8.25-1.13-11.1-3.38s-4.27-5.14-4.27-8.65c0-1.32,.41-2.41,1.24-3.25,.82-.84,2.51-1.98,5.05-3.41,2.54-1.43,4.26-2.15,5.16-2.15,.61,0,1.13,.21,1.56,.62,.43,.41,.64,.9,.64,1.48,0,.36-.17,1.68-.51,3.97-.34,2.29-.51,3.65-.51,4.08,0,4.26,1.79,6.39,5.37,6.39,4.05,0,7.45-2.37,10.21-7.12,2.76-4.75,4.75-12.16,5.99-22.24,1.24-10.08,3.11-17.2,5.61-21.35,2.51-4.15,5.43-7.1,8.78-8.83,3.35-1.74,5.67-2.61,6.96-2.61,.89,0,1.92,.84,3.06,2.52Zm-10.1-13.96c7.55,0,13.57,1.83,18.05,5.5,4.48,3.67,6.71,8.57,6.71,14.69,0,5.66-1.66,10.2-4.97,13.62-3.31,3.42-6.17,5.13-8.57,5.13-.9,0-1.91-.39-3.03-1.18-1.13-.79-1.69-1.5-1.69-2.15,0-.36,.84-1.65,2.52-3.87,3.94-4.87,5.91-9.7,5.91-14.5,0-4.05-1.36-7.26-4.08-9.64-2.72-2.38-6.41-3.57-11.06-3.57-7.02,0-13.37,2.14-19.07,6.42-5.69,4.28-8.54,8.96-8.54,14.05,0,3.37,1.54,5.68,4.62,6.93,1.22,.54,1.83,1.27,1.83,2.2s-1.34,2.09-4.03,3.38-4.57,1.93-5.64,1.93c-1.61,0-3.13-1.07-4.57-3.2-1.43-2.13-2.15-4.45-2.15-6.96,0-6.73,3.62-13.21,10.85-19.44,7.23-6.23,16.2-9.35,26.91-9.35Z"/><path class="cls-3" d="M325.61,1664.42c-5.73,5.44-9.83,8.99-12.3,10.63s-4.83,2.47-7.09,2.47c-5.66,0-8.33-5-8-14.99-3.58,5.12-6.88,8.9-9.91,11.33-3.03,2.43-6.15,3.65-9.37,3.65s-5.83-1.48-8.03-4.43c-2.2-2.96-3.3-6.58-3.3-10.88,0-5.37,1.48-10.49,4.43-15.36,2.95-4.87,6.74-8.81,11.36-11.82s8.7-4.51,12.25-4.51c4.48,0,7.61,2.06,9.4,6.18l10.98-6.07h3.01l-4.74,15.74c-2.44,7.91-3.66,13.34-3.66,16.28s1.09,4.62,3.27,4.62c1.4,0,2.93-.74,4.62-2.23,1.68-1.49,4.04-3.75,7.09-6.79v6.18Zm-39.32,2.95c3.58,0,6.96-3.05,10.12-9.16,3.17-6.1,4.75-11.74,4.75-16.89,0-2-.45-3.57-1.34-4.7-.9-1.13-2.09-1.69-3.6-1.69-3.58,0-6.97,3.04-10.18,9.13-3.2,6.09-4.81,11.69-4.81,16.81,0,1.93,.47,3.5,1.42,4.7,.95,1.2,2.16,1.8,3.62,1.8Z"/><path class="cls-3" d="M378.3,1664.42c-4.54,4.76-9.99,8.27-16.32,10.52-2.97,9.27-6.74,16.42-11.31,21.43-4.57,5.01-9.41,7.52-14.53,7.52-2.79,0-5.05-.88-6.77-2.63-1.72-1.75-2.58-4.06-2.58-6.93,0-3.83,1.71-7.27,5.13-10.31,3.42-3.04,9.23-5.98,17.43-8.81l2.31-10.58c-3.44,3.87-6.41,6.71-8.92,8.51-2.51,1.81-5.03,2.71-7.57,2.71-2.97,0-5.41-1.4-7.3-4.19-1.9-2.79-2.85-6.43-2.85-10.9,0-7.3,2.78-14.15,8.35-20.54,5.57-6.39,11.48-9.59,17.75-9.59,3.47,0,6.55,1.47,9.24,4.4,1.61-.57,3.7-1.43,6.28-2.58l3.81-1.72h1.24c-1.39,4.23-2.46,8.34-3.22,12.35l-5.04,26.91c4.83-1.83,9.79-5.75,14.87-11.76v6.18Zm-30.08,15.52c-11.57,4.15-17.35,8.95-17.35,14.39,0,1.61,.48,2.93,1.45,3.95,.97,1.02,2.2,1.53,3.71,1.53,2.58,0,4.82-1.63,6.71-4.89,1.9-3.26,3.72-8.25,5.48-14.99Zm-4.51-13.75c2.54,0,4.8-1.5,6.77-4.51,1.97-3.01,3.5-6.82,4.59-11.44,1.09-4.62,1.64-7.82,1.64-9.61,0-1.68-.42-3.07-1.26-4.16-.84-1.09-1.89-1.64-3.14-1.64-3.8,0-7.11,2.56-9.94,7.68-2.83,5.12-4.24,10.33-4.24,15.63,0,2.47,.51,4.43,1.53,5.88,1.02,1.45,2.37,2.18,4.05,2.18Z"/><path class="cls-3" d="M418.43,1664.42c-4.55,4.48-8.63,7.78-12.25,9.91-3.62,2.13-7.61,3.2-11.98,3.2-4.87,0-8.8-1.56-11.79-4.67-2.99-3.12-4.48-7.21-4.48-12.3,0-7.59,2.63-14.46,7.9-20.6,5.26-6.14,11.1-9.21,17.51-9.21,3.33,0,6,.86,8,2.58,2,1.72,3.01,3.97,3.01,6.77,0,7.41-7.88,13.43-23.63,18.05,1.43,6.98,5.17,10.47,11.23,10.47,2.36,0,4.62-.64,6.77-1.91,2.15-1.27,5.39-4.09,9.72-8.46v6.18Zm-28.14-9.94c9.17-2.58,13.75-7.34,13.75-14.29,0-3.44-1.25-5.16-3.76-5.16-2.36,0-4.62,1.8-6.77,5.4-2.15,3.6-3.22,8.28-3.22,14.04Z"/><path class="cls-3" d="M494.16,1664.42c-1.83,1.61-3.6,2.75-5.32,3.41-1.72,.66-3.08,.99-4.08,.99-2.58,0-5.14-1-7.68-3.01-5.16,7.81-11.06,11.71-17.72,11.71-4.15,0-7.52-1.56-10.1-4.67s-3.87-7.25-3.87-12.41c0-8.16,2.9-15.17,8.7-21.03,5.8-5.85,12.73-8.78,20.79-8.78,3.04,0,5.27,.33,6.69,.99,1.42,.66,2.28,1.44,2.61,2.34,.32,.9,.48,2.02,.48,3.38,0,6.7-1.83,14.91-5.48,24.65,1.83,1.68,3.74,2.52,5.75,2.52,2.4,0,5.48-2.09,9.24-6.28v6.18Zm-17.72-30.02c-.54-.21-1.31-.32-2.31-.32-4.66,0-8.3,2.44-10.93,7.3-2.63,4.87-3.95,10.56-3.95,17.08,0,3.62,.57,6.43,1.72,8.43,1.15,2.01,2.74,3.01,4.78,3.01,2.54,0,5.3-2.34,8.27-7.04-3.37-4.22-5.05-8.77-5.05-13.64,0-5.73,2.49-10.67,7.47-14.82Z"/><path class="cls-3" d="M537.72,1664.42c-3.72,4.19-7.4,7.42-11.05,9.69-3.65,2.27-6.9,3.41-9.76,3.41-1.36,0-3.22-.52-5.58-1.55-1.51,7.88-2.84,16.38-3.99,25.5-3.73,.5-8.21,1.27-13.44,2.31,1.15-9.81,3.13-22.54,5.96-38.19-.39-.68-1.09-2.4-2.09-5.16l-3.6,3.97h-1.24v-4.83l10.24-10.62c1.95-9.61,3.53-16.56,4.75-20.86,1.22-4.3,2.92-9.05,5.1-14.26,2.18-5.21,3.56-8.2,4.14-8.97,.57-.77,1.96-1.5,4.16-2.2,2.2-.7,4.56-1.36,7.06-1.99,2.51-.63,3.85-.94,4.03-.94,1.36,0,2.47,.89,3.33,2.66s1.29,4.1,1.29,7c0,5.01-1.32,9.84-3.97,14.49s-7.64,10.37-15,17.17l-4.51,22.45c1.75,3.75,4.38,5.63,7.88,5.63,5,0,10.44-3.63,16.3-10.9v6.18Zm-18.04-30.61c4.19-3.65,7.47-7.58,9.85-11.79s3.57-8.08,3.57-11.63c0-1.5-.28-2.74-.83-3.71-.55-.97-1.24-1.45-2.06-1.45-1.57,0-3.17,2.06-4.79,6.18-1.62,4.12-3.54,11.58-5.74,22.4Z"/><path class="cls-3" d="M615.6,1659.37c-6.45,12.1-13.46,18.15-21.05,18.15-3.97,0-7.16-1.46-9.56-4.38-2.4-2.92-3.6-6.78-3.6-11.57,0-5.59,2-14.07,5.99-25.46,3.99-11.39,5.99-19.44,5.99-24.17,0-2.11-.6-3.87-1.8-5.26-1.2-1.4-2.69-2.09-4.48-2.09-2.76,0-5.5,1.68-8.22,5.05-2.72,3.37-4.08,6.8-4.08,10.31,0,2.69,1.22,5.48,3.65,8.38,1,1.22,1.5,2.06,1.5,2.52,0,.54-.77,1.74-2.31,3.6-1.54,1.86-2.87,2.79-3.97,2.79-1.18,0-2.52-.86-4.03-2.58s-2.26-4.28-2.26-7.68c0-6.91,2.43-13.19,7.28-18.85,4.85-5.66,10.21-8.49,16.09-8.49,4.4,0,8.13,1.82,11.17,5.47,3.04,3.65,4.57,8.19,4.57,13.63-.05,5.72-1.91,13.83-5.56,24.3-3.66,10.48-5.47,17.49-5.45,21.04,0,1.69,.43,3.02,1.29,4.01,.86,.99,2,1.48,3.44,1.48,3.12,0,6.21-2.54,9.29-7.63,3.08-5.08,5.89-12.37,8.43-21.86l5.05-18.91c1.97-7.45,4.17-13.95,6.6-19.5,.25-.61,1.92-1.08,5.02-1.42,3.09-.34,5.34-.51,6.74-.51s2.09,.29,2.09,.86l-9.84,37.49c-2.81,11-4.21,19.04-4.21,24.12,0,2.22,.46,3.99,1.4,5.29,.93,1.31,2.18,1.96,3.76,1.96,2.33,0,5.5-1.91,9.53-5.72,4.03-3.81,7.42-8.68,10.18-14.61,2.76-5.93,4.14-11.99,4.14-18.18,0-6.62-1.61-13.21-4.83-19.77-.9-1.9-1.34-3.08-1.34-3.54,0-1.54,1.48-3.24,4.43-5.1,2.95-1.86,5.08-2.79,6.36-2.79,1.22,0,2.44,1.62,3.68,4.86,1.24,3.24,1.85,6.63,1.85,10.18,0,9.42-2.2,19.06-6.61,28.92-4.4,9.87-9.88,17.97-16.44,24.3s-12.48,9.51-17.78,9.51c-3.76,0-6.74-1.51-8.94-4.54-2.2-3.03-3.25-7.56-3.14-13.62Z"/><path class="cls-3" d="M725.71,1664.42c-5.73,5.44-9.83,8.99-12.3,10.63s-4.83,2.47-7.09,2.47c-5.66,0-8.33-5-8-14.99-3.58,5.12-6.88,8.9-9.91,11.33-3.03,2.43-6.15,3.65-9.37,3.65s-5.83-1.48-8.03-4.43c-2.2-2.96-3.3-6.58-3.3-10.88,0-5.37,1.48-10.49,4.43-15.36,2.95-4.87,6.74-8.81,11.36-11.82s8.7-4.51,12.25-4.51c4.48,0,7.61,2.06,9.4,6.18l10.98-6.07h3.01l-4.74,15.74c-2.44,7.91-3.66,13.34-3.66,16.28s1.09,4.62,3.27,4.62c1.4,0,2.93-.74,4.62-2.23,1.68-1.49,4.04-3.75,7.09-6.79v6.18Zm-39.32,2.95c3.58,0,6.96-3.05,10.12-9.16,3.17-6.1,4.75-11.74,4.75-16.89,0-2-.45-3.57-1.34-4.7-.9-1.13-2.09-1.69-3.6-1.69-3.58,0-6.97,3.04-10.18,9.13-3.2,6.09-4.81,11.69-4.81,16.81,0,1.93,.47,3.5,1.42,4.7,.95,1.2,2.16,1.8,3.62,1.8Z"/><path class="cls-3" d="M778.4,1664.42c-8.27,8.74-15.36,13.11-21.27,13.11-2.4,0-4.33-.84-5.8-2.52-1.47-1.68-2.2-3.94-2.2-6.77,0-3.83,1.58-9.69,4.73-17.56,1.68-4.22,2.52-6.91,2.52-8.06s-.45-1.72-1.34-1.72c-.5,0-1.16,.25-1.99,.75-.75,.5-1.63,1.2-2.63,2.09-.9,.82-1.9,1.83-3.01,3.01-.97,1-2.01,2.15-3.12,3.44l-3.01,3.49c-1.33,1.61-2.15,3.31-2.47,5.1-.54,3.04-.9,5.84-1.07,8.38-.11,1.9-.16,4.46-.16,7.68l-11.87,2.79c-.39-4.83-.59-8.43-.59-10.8,0-5.76,.67-11.23,2.01-16.38,1.34-5.16,3.5-10.96,6.47-17.4l13.11-2.52c-2.76,7.41-4.57,13.25-5.42,17.51,5.87-6.55,10.53-11.09,13.98-13.62,3.45-2.53,6.51-3.79,9.2-3.79,1.82,0,3.34,.69,4.56,2.07,1.22,1.38,1.82,3.1,1.82,5.18,0,3.43-1.54,9.09-4.62,16.97-2.11,5.41-3.17,8.92-3.17,10.53,0,2.15,.88,3.23,2.64,3.23,2.62,0,6.86-3.46,12.71-10.37v6.18Z"/><path class="cls-3" d="M835.71,1664.42c-5.16,5.12-9.09,8.58-11.79,10.39-2.7,1.81-5.09,2.71-7.17,2.71-2.54,0-4.56-1.24-6.04-3.71-1.49-2.47-2.25-6.09-2.28-10.85-2.94,4.76-6.13,8.38-9.59,10.85-3.46,2.47-6.58,3.71-9.37,3.71-3.04,0-5.73-1.44-8.06-4.32-2.33-2.88-3.49-6.26-3.49-10.12,0-7.98,2.91-15.39,8.73-22.21,5.82-6.82,12.08-10.23,18.77-10.23,1.86,0,3.32,.27,4.38,.81,1.06,.54,2.21,1.45,3.46,2.74l7.68-32.12c6.27-1.47,10.5-2.2,12.69-2.2,.72,0,1.08,.29,1.08,.86,0,.39-.89,4.1-2.68,11.12-7.16,28.07-10.73,45.01-10.73,50.81,0,1.36,.29,2.45,.86,3.28,.57,.82,1.32,1.23,2.25,1.23,2.29,0,6.06-2.97,11.31-8.92v6.18Zm-38.83,2.85c3.51,0,6.79-2.97,9.83-8.92,3.04-5.94,4.57-11.51,4.57-16.7,0-2.11-.47-3.79-1.42-5.05-.95-1.25-2.19-1.88-3.73-1.88-3.33,0-6.55,3.11-9.67,9.32-3.12,6.21-4.67,11.83-4.67,16.84,0,1.97,.46,3.53,1.37,4.67,.91,1.15,2.16,1.72,3.73,1.72Z"/><path class="cls-3" d="M852.2,1632.94c2.47-.64,4.96-1.17,7.47-1.58,2.51-.41,4.01-.62,4.51-.62,.36,0,.54,.14,.54,.43,0,.54-.14,1.09-.43,1.66-.57,1.65-.86,3.22-.86,4.72,0,1.86,1.08,4.4,3.23,7.63,2.15,3.22,3.22,6.22,3.22,8.97,0,5.48-2.62,10.76-7.87,15.84-5.25,5.08-10.68,7.63-16.3,7.63-2.44,0-4.66-.64-6.66-1.93-2.01-1.29-3.01-2.67-3.01-4.14,0-.86,.99-2.49,2.98-4.89,1.99-2.4,3.41-3.6,4.27-3.6,1.15,0,2.17,1.47,3.06,4.4,.89,2.94,2.43,4.4,4.62,4.4s4.23-1.01,6.15-3.04c1.92-2.02,2.87-4.2,2.87-6.53,0-2.26-1.21-5.26-3.65-9.02-2.44-3.76-4.05-6.91-4.84-9.45-4.15,6.7-9.42,13.55-15.79,20.57h-1.24v-4.83c8.77-9.35,14.68-18.23,17.72-26.64Z"/></g><g><path class="cls-1" d="M410.88,142.03c-5.1,5.49-9.75,8.24-13.95,8.24-2.55,0-4.5-1.23-5.83-3.69-1.33-2.46-2-5.75-2-9.88,0-3.19,.65-7.58,1.96-13.16,1.31-5.58,3-10.28,5.08-14.08l1.98-3.55c-2.71,2.83-4.93,5.92-6.67,9.28-1.73,3.36-3.8,8.06-6.2,14.1-2.4,6.04-4.22,10.15-5.45,12.34s-2.41,3.97-3.54,5.35c-1.13,1.38-2.13,2.27-3.01,2.68-.88,.41-2.41,.62-4.6,.62-.84,0-1.26-.23-1.26-.68,0-.05,.15-.76,.45-2.15,.3-1.39,.61-3.62,.92-6.68s.54-8.27,.68-15.62,1.21-13.64,3.21-18.88c-2.14,2.44-4.33,8.11-6.57,17.02l-.86,3.35c-2.35,9.27-5.04,15.53-8.08,18.78-3.03,3.25-6.01,4.87-8.93,4.87-1.8,0-3.39-.57-4.76-1.71-1.37-1.14-2.05-2.45-2.05-3.93,0-1.14,.82-2.41,2.46-3.83,1.64-1.41,2.68-2.12,3.11-2.12,.5,0,.83,.17,.99,.51,.16,.34,.37,1.28,.62,2.82s.63,2.54,1.15,3.01c.51,.47,1.16,.7,1.94,.7,1.76,0,3.7-1.76,5.83-5.28s4.07-8.96,5.83-16.32l.99-4.13c.8-3.37,1.59-6.06,2.37-8.07,.78-2.01,1.8-4.01,3.08-6.02,1.85-2.87,2.99-4.4,3.41-4.6,.42-.19,1.21-.35,2.38-.48s2.32-.19,3.49-.19c.46,0,.68,.26,.68,.79,0,.25-.07,.76-.21,1.54-.45,3.19-.66,6.39-.64,9.6l.07,9.16c.04,7.98-.59,14.41-1.91,19.31,1.21-1.46,2.96-5.22,5.26-11.28,3.33-8.59,6.36-15.04,9.09-19.35,1.3-2.07,2.87-4.06,4.7-5.96,1.83-1.9,3.1-2.92,3.81-3.06,2.42-.46,4.45-.68,6.12-.68,.62,0,.92,.17,.92,.51,0,.48-.38,1.55-1.12,3.21-1.77,4.01-3.43,9.44-4.96,16.27s-2.31,12.28-2.32,16.33c0,4.58,1.4,6.87,4.2,6.87,2.28,0,4.99-1.94,8.13-5.81v3.93Z"/><path class="cls-1" d="M427.66,142.03c-5.33,5.61-9.32,8.41-11.96,8.41-1.46,0-2.69-.75-3.69-2.24-1-1.49-1.5-3.37-1.5-5.62,0-4.85,1.64-11.57,4.92-20.17l8.68-1.81h.41l-3.42,10.7c-1.41,4.42-2.12,7.58-2.12,9.47,0,.75,.17,1.36,.5,1.83,.33,.47,.75,.7,1.25,.7,.89,0,1.78-.33,2.68-.97s2.32-2.06,4.26-4.22v3.93Zm-.68-34.79c0,5.47-2.02,8.2-6.05,8.2-1.96,0-3.63-.59-5.02-1.78,1.32-2,2.35-4.26,3.08-6.77,1.8,1.12,3.25,1.68,4.34,1.68,1.23,0,2.45-.45,3.66-1.33Z"/><path class="cls-1" d="M461.22,142.03c-5.26,5.56-9.78,8.34-13.54,8.34-1.53,0-2.76-.54-3.69-1.61-.93-1.07-1.4-2.51-1.4-4.31,0-2.44,1-6.16,3.01-11.18,1.07-2.69,1.61-4.4,1.61-5.13s-.29-1.09-.85-1.09c-.32,0-.74,.16-1.26,.48-.48,.32-1.04,.76-1.67,1.33-.57,.52-1.21,1.16-1.91,1.91-.62,.64-1.28,1.37-1.98,2.19l-1.91,2.22c-.84,1.03-1.37,2.11-1.57,3.25-.34,1.94-.57,3.71-.68,5.33-.07,1.21-.1,2.84-.1,4.89l-7.55,1.78c-.25-3.08-.38-5.37-.38-6.87,0-3.67,.43-7.14,1.28-10.43,.86-3.28,2.23-6.97,4.12-11.07l8.34-1.61c-1.75,4.72-2.91,8.43-3.45,11.14,3.73-4.17,6.7-7.06,8.89-8.67,2.19-1.61,4.15-2.41,5.85-2.41,1.16,0,2.13,.44,2.9,1.31,.77,.88,1.16,1.97,1.16,3.29,0,2.18-.98,5.78-2.94,10.8-1.34,3.44-2.02,5.68-2.02,6.7,0,1.37,.56,2.06,1.68,2.06,1.67,0,4.36-2.2,8.09-6.6v3.93Z"/><path class="cls-1" d="M491.88,142.03c-1.16,1.03-2.29,1.75-3.38,2.17-1.09,.42-1.96,.63-2.6,.63-1.64,0-3.27-.64-4.89-1.91-3.28,4.97-7.04,7.45-11.28,7.45-2.64,0-4.79-.99-6.43-2.97s-2.46-4.62-2.46-7.9c0-5.2,1.85-9.66,5.54-13.38s8.1-5.59,13.23-5.59c1.94,0,3.35,.21,4.25,.63,.9,.42,1.45,.92,1.66,1.49,.21,.57,.31,1.29,.31,2.15,0,4.26-1.16,9.49-3.49,15.69,1.16,1.07,2.38,1.61,3.66,1.61,1.53,0,3.49-1.33,5.88-4v3.93Zm-11.28-19.11c-.34-.14-.83-.21-1.47-.21-2.96,0-5.28,1.55-6.96,4.65-1.67,3.1-2.51,6.72-2.51,10.87,0,2.3,.36,4.09,1.09,5.37,.73,1.28,1.74,1.91,3.04,1.91,1.62,0,3.37-1.49,5.26-4.48-2.14-2.69-3.21-5.58-3.21-8.68,0-3.65,1.58-6.79,4.75-9.43Z"/><path class="cls-1" d="M517.42,142.03c-5.72,5.61-10.13,8.41-13.23,8.41-1.39,0-2.56-.59-3.52-1.76s-1.44-2.63-1.44-4.36c0-3.21,1.72-7.52,5.16-12.92-1.69,.87-3.53,1.47-5.54,1.81-1.48,2.73-3.81,5.67-6.97,8.82h-.79v-3.08c1.78-1.85,3.38-3.83,4.82-5.95-1.96-.87-2.94-2.15-2.94-3.86s.6-3.63,1.79-5.62c1.2-1.99,2.84-2.99,4.94-2.99,1.78,0,2.67,.91,2.67,2.73,0,1.44-.51,3.49-1.54,6.15,3.78-.41,7.09-3.3,9.91-8.68l3.11-.14-3.18,8.75c-1.32,3.69-2.18,6.2-2.56,7.54-.39,1.33-.58,2.51-.58,3.54,0,.96,.22,1.72,.67,2.29,.44,.57,1.04,.86,1.79,.86,.82,0,1.61-.28,2.36-.84s2.44-2.1,5.06-4.63v3.93Z"/><path class="cls-1" d="M582.32,142.06c-5.24,5.58-10.05,8.37-14.42,8.37-2.42,0-4.33-.85-5.74-2.56-1.41-1.71-2.2-4.15-2.36-7.31-2.76,3.35-5.2,5.83-7.33,7.45-2.13,1.62-4.4,2.43-6.82,2.43-3.1,0-5.59-1.34-7.47-4.02-1.88-2.68-2.82-6.25-2.82-10.71,0-5.33,1.23-10.83,3.69-16.49s6.11-10.13,10.94-13.42c4.83-3.28,10.69-4.92,17.57-4.92,5.15,0,9.81,.7,13.98,2.09v2.26c-3.4,3.96-6.24,9.51-8.53,16.64-2.29,7.13-3.44,12.57-3.44,16.3,0,1.82,.37,3.24,1.11,4.24,.74,1,1.77,1.5,3.09,1.5,2.37,0,5.22-1.93,8.54-5.78v3.93Zm-9.95-36.85c-2.1-1.14-4.35-1.71-6.77-1.71-3.81,0-7.24,1.59-10.29,4.77-3.05,3.18-5.46,7.39-7.23,12.63-1.77,5.24-2.65,9.79-2.65,13.64,0,2.57,.5,4.67,1.49,6.27,.99,1.61,2.26,2.41,3.81,2.41,2.69,0,5.78-2.45,9.26-7.35,1.44-12.85,5.56-23.07,12.37-30.66Z"/><path class="cls-1" d="M607.85,142.03c-5.72,5.61-10.13,8.41-13.23,8.41-1.39,0-2.56-.59-3.52-1.76s-1.44-2.63-1.44-4.36c0-3.21,1.72-7.52,5.16-12.92-1.69,.87-3.53,1.47-5.54,1.81-1.48,2.73-3.81,5.67-6.97,8.82h-.79v-3.08c1.78-1.85,3.38-3.83,4.82-5.95-1.96-.87-2.94-2.15-2.94-3.86s.6-3.63,1.79-5.62c1.2-1.99,2.84-2.99,4.94-2.99,1.78,0,2.67,.91,2.67,2.73,0,1.44-.51,3.49-1.54,6.15,3.78-.41,7.09-3.3,9.91-8.68l3.11-.14-3.18,8.75c-1.32,3.69-2.18,6.2-2.56,7.54-.39,1.33-.58,2.51-.58,3.54,0,.96,.22,1.72,.67,2.29,.44,.57,1.04,.86,1.79,.86,.82,0,1.61-.28,2.36-.84s2.44-2.1,5.06-4.63v3.93Z"/><path class="cls-1" d="M633.42,142.03c-2.92,2.87-5.59,4.98-8.02,6.32-2.43,1.34-4.96,2.02-7.6,2.02-2.96,0-5.41-.96-7.33-2.89-1.93-1.92-2.89-4.37-2.89-7.33,0-4.85,1.77-9.34,5.31-13.45,3.54-4.11,7.38-6.17,11.5-6.17,2.03,0,3.68,.56,4.96,1.69,1.28,1.13,1.91,2.59,1.91,4.39,0,.64-.12,1.12-.36,1.44-.24,.32-.69,.64-1.35,.96l-3.96,1.88c-.48,.23-.83,.34-1.06,.34-.32,0-.48-.23-.48-.68,0-.18,.07-.78,.21-1.79,.14-1.01,.21-1.63,.21-1.86,0-1-.21-1.81-.63-2.43s-.99-.92-1.69-.92c-1.66,0-3.18,1.23-4.56,3.69-1.38,2.46-2.07,5.26-2.07,8.41,0,2.71,.65,4.88,1.95,6.49,1.3,1.62,3.03,2.43,5.2,2.43,1.85,0,3.58-.53,5.21-1.59s3.48-2.68,5.55-4.87v3.93Z"/><path class="cls-1" d="M669.92,142.03c-3.65,3.46-6.25,5.72-7.83,6.77-1.57,1.05-3.08,1.57-4.51,1.57-3.6,0-5.3-3.18-5.09-9.54-2.28,3.26-4.38,5.66-6.31,7.21-1.93,1.55-3.91,2.32-5.96,2.32s-3.71-.94-5.11-2.82c-1.4-1.88-2.1-4.19-2.1-6.92,0-3.42,.94-6.68,2.82-9.78,1.88-3.1,4.29-5.61,7.23-7.52s5.54-2.87,7.79-2.87c2.85,0,4.84,1.31,5.98,3.93l6.99-3.86h1.92l-3.01,10.01c-1.55,5.04-2.33,8.49-2.33,10.36,0,1.96,.69,2.94,2.08,2.94,.89,0,1.87-.47,2.94-1.42,1.07-.95,2.57-2.39,4.51-4.32v3.93Zm-25.02,1.88c2.28,0,4.43-1.94,6.44-5.83,2.02-3.88,3.02-7.47,3.02-10.75,0-1.28-.29-2.27-.85-2.99-.57-.72-1.33-1.08-2.29-1.08-2.28,0-4.44,1.94-6.48,5.81-2.04,3.87-3.06,7.44-3.06,10.7,0,1.23,.3,2.23,.91,2.99,.6,.76,1.37,1.15,2.31,1.15Z"/><path class="cls-1" d="M703.46,142.03c-5.26,5.56-9.78,8.34-13.54,8.34-1.53,0-2.76-.54-3.69-1.61-.93-1.07-1.4-2.51-1.4-4.31,0-2.44,1-6.16,3.01-11.18,1.07-2.69,1.61-4.4,1.61-5.13s-.29-1.09-.85-1.09c-.32,0-.74,.16-1.26,.48-.48,.32-1.04,.76-1.67,1.33-.57,.52-1.21,1.16-1.91,1.91-.62,.64-1.28,1.37-1.98,2.19l-1.91,2.22c-.84,1.03-1.37,2.11-1.57,3.25-.34,1.94-.57,3.71-.68,5.33-.07,1.21-.1,2.84-.1,4.89l-7.55,1.78c-.25-3.08-.38-5.37-.38-6.87,0-3.67,.43-7.14,1.28-10.43,.86-3.28,2.23-6.97,4.12-11.07l8.34-1.61c-1.75,4.72-2.91,8.43-3.45,11.14,3.73-4.17,6.7-7.06,8.89-8.67,2.19-1.61,4.15-2.41,5.85-2.41,1.16,0,2.13,.44,2.9,1.31,.77,.88,1.16,1.97,1.16,3.29,0,2.18-.98,5.78-2.94,10.8-1.34,3.44-2.02,5.68-2.02,6.7,0,1.37,.56,2.06,1.68,2.06,1.67,0,4.36-2.2,8.09-6.6v3.93Z"/><path class="cls-1" d="M739.92,142.03c-3.65,3.46-6.25,5.72-7.83,6.77-1.57,1.05-3.08,1.57-4.51,1.57-3.6,0-5.3-3.18-5.09-9.54-2.28,3.26-4.38,5.66-6.31,7.21-1.93,1.55-3.91,2.32-5.96,2.32s-3.71-.94-5.11-2.82c-1.4-1.88-2.1-4.19-2.1-6.92,0-3.42,.94-6.68,2.82-9.78,1.88-3.1,4.29-5.61,7.23-7.52s5.54-2.87,7.79-2.87c2.85,0,4.84,1.31,5.98,3.93l6.99-3.86h1.92l-3.01,10.01c-1.55,5.04-2.33,8.49-2.33,10.36,0,1.96,.69,2.94,2.08,2.94,.89,0,1.87-.47,2.94-1.42,1.07-.95,2.57-2.39,4.51-4.32v3.93Zm-25.02,1.88c2.28,0,4.43-1.94,6.44-5.83,2.02-3.88,3.02-7.47,3.02-10.75,0-1.28-.29-2.27-.85-2.99-.57-.72-1.33-1.08-2.29-1.08-2.28,0-4.44,1.94-6.48,5.81-2.04,3.87-3.06,7.44-3.06,10.7,0,1.23,.3,2.23,.91,2.99,.6,.76,1.37,1.15,2.31,1.15Z"/></g></g></g><g id="_반짝이"><polygon class="cls-6" points="768.65 736.06 785.06 799.73 837.89 812.81 785.06 827.16 768.65 892 751.36 827.16 699.41 812.81 751.36 799.73 768.65 736.06"/><polygon class="cls-7" points="302.65 981.06 316.53 1034.93 361.23 1046 316.53 1058.14 302.65 1113 288.02 1058.14 244.06 1046 288.02 1034.93 302.65 981.06"/><circle class="cls-7" cx="758.5" cy="953.5" r="18.5"/><circle class="cls-6" cx="702.5" cy="1008.5" r="12.5"/><circle class="cls-6" cx="345" cy="1140" r="12"/><circle class="cls-7" cx="777.5" cy="1105.5" r="10.5"/><circle class="cls-7" cx="329.5" cy="771.5" r="10.5"/></g><g id="_완드_페이지"><path class="cls-3" d="M501.92,739.49c-12.07,.6-20.56,6.31-23.37,8.4-2.92,2.17-9.9,7.34-11.75,15.49-1.39,6.1,.89,10.38,3.43,17.15,3.63,9.68,.38,4.68,7.78,33.38,6.22,24.17,7.18,22.49,8.7,32.46,1.9,12.41,.01,12.35,1.51,30.3,1.27,15.23,2.92,18.85,5.07,37.02,1.47,12.42,2.08,22.44,2.36,28.51-5.09-1.69-10.71-3.89-16.6-6.78-10.94-5.38-19.32-11.45-25.44-16.66-4.39,3.46-8.78,6.91-13.18,10.37,2.59,2.91,6.55,7.46,11.12,13.2,12.22,15.34,15.49,22.38,23.74,32.39,4.82,5.85,12.43,14.06,23.95,22.83-.08,2.05-.19,5.06-.28,8.7-.15,6.02-.23,9.04-.14,10.43,.42,6.81,2.07,7.85,3.35,16.29,.43,2.79,.57,5.32,.86,10.37,.56,9.75,.05,11.62,.5,18.2,.46,6.63,1.08,6.4,2.36,16.35,.75,5.83,1.63,12.73,1.64,19.87,0,5.03-.42,7.37-3.06,23.64-2.85,17.57-4.28,26.43-4.55,29.81-.85,10.67,.14,10.91-.99,24.38-1.03,12.25-2.33,17.67-3.27,21.04-2.23,7.96-3.38,7.73-3.99,12.4-.82,6.33,.85,10.28,4.85,22.28,4.19,12.56,6.29,18.84,6.85,22.15,1.34,8-.32,7.17,.08,25.18,.29,13.2,1.24,16.16,0,24.31-.76,5.02-1.35,5.41-3.77,15-2.09,8.26-4.38,17.34-5.69,28.14-1.65,13.65,.65,10.39-.7,27.83-.43,5.54-1.26,13.5,3.78,21.47,.45,.71,.86,1.28,1.14,1.67,3.95,.65,9.92,1.29,17.1,.67,5.5-.47,12.72-1.09,18.67-4.63,5.39-3.21,9.15-8.47,12.32-20.74,3.98-15.39,3.23-27.18,3.05-35.79-.04-1.82,1.3-17.5,3.97-48.88,3.64-42.71,4.24-42.12,3.83-50.6-.85-17.48-3.5-21.95-.87-34.68,2.58-12.46,6.93-16.96,7.69-28.27,.79-11.88-3.02-21.78-6.35-28.26,2.86-3.17,6.53-8.01,8.83-14.44,4.2-11.75,.79-20.27-1.86-34.62-.82-4.44-4.11-23.21-2.65-44.12,1.33-18.95,4.97-16.98,5.97-36.84,.5-9.95-.08-16.93,4.91-25.49,1.31-2.25,4.18-6.05,9.9-13.64,6.12-8.11,7.95-10.04,9.83-14.5,.36-.85,5.27-12.8,.71-15.67-1.19-.75-2.72-.7-3.06-.68-2.8,.16-4.42,2.4-6.62,4.75-3.95,4.23-3.79,2.44-11.25,9.38-1.73,1.61-3.97,3.79-6.48,6.48-.2-3.94-.59-9.95-1.43-17.28-.98-8.47-1.9-16.46-4.21-26.66-2.34-10.32-4.14-14.24-3.85-22.34,.18-4.96,.36-8.57,2.99-12.34,3.98-5.71,9.83-6.48,10.19-10.18,.18-1.88-1.02-4.86-8.77-9.01,.16-4.52-.38-8.06-.86-10.37-1.48-7.13-3.93-9.71-3.28-15.43,.18-1.6,.52-4.29,2.42-7.1,3.26-4.81,8.53-5.19,13.39-7.78,10.09-5.36,12.65-16.68,13.39-19.94,2.99-13.17-4.2-23.62-6.21-26.53-3.67-5.34-9.27-9.21-20.45-16.97-7.77-5.38-15.24-10.51-26.37-15.73-14.01-6.58-21.02-9.87-30.85-9.37Z"/><path class="cls-4" d="M444.7,911.94c2.03-2.23,10.5-12.08,8.83-25.63-2.42-19.71-24.02-28.53-25.09-28.94-2.35,2.25-7.74,8-9.56,16.86-.62,3-1.68,10.54,2.34,18.83,6.42,13.24,20.8,18.03,23.47,18.87Z"/><path class="cls-4" d="M603.37,940.75c3.05,.34,16.27,1.54,28.07-6.12,17.18-11.14,15.02-30.44,14.9-31.38-3.22-.57-11.15-1.57-20.27,1.41-3.09,1.01-10.61,3.88-16.4,10.66-9.24,10.83-6.8,23.16-6.31,25.43Z"/><path class="cls-4" d="M483.51,1178.88c.18-2.66,.62-14.17-9.04-23.82-14.05-14.05-36.12-10.82-37.19-10.65-.42,2.82-1.02,9.75,3.06,17.41,1.38,2.6,5.22,8.89,13.44,13.41,13.13,7.21,27.15,4.24,29.73,3.65Z"/><path class="cls-4" d="M428.63,915.07c-2.11-3.15-11.65-16.54-31.06-21.23-28.25-6.82-50.58,11.29-51.65,12.19,1.98,3.49,7.34,11.77,18.66,17.83,3.84,2.06,13.7,6.72,27,6.49,21.24-.37,34.63-12.93,37.05-15.29Z"/><g><path class="cls-6" d="M401.22,587.62c-8.6-7.85-16.25-10.41-21.6-11.31-12.58-2.13-21.8,3.31-31.88-3.09-1.14-.72-5.63-3.58-5.14-6.17,.68-3.58,10.5-4.73,18.51-5.14-3.04-4.14-6.09-6.7-8.23-8.23-12.3-8.83-30.4-9.74-41.14-10.28-5.43-.27-9.69-.19-10.28-2.06-.81-2.52,5.55-7.05,10.28-9.26,10.35-4.82,21.52-2.51,28.8,0-3.7-2.98-8.75-7.65-13.37-14.4-3.42-4.99-9.51-15.34-7.2-17.48,1-.93,3.9-.6,12.34,5.14-1.79-3.16-4.06-8.05-5.14-14.4-1.47-8.57-.07-15.62,1.03-19.54,2.31,1.04,7.3,3.67,11.31,9.26,3.91,5.44,4.86,10.85,5.14,13.37-.73-5.72-1.31-13.06-1.03-21.6,.08-2.59,.47-12.22,3.09-24.68,3.61-17.21,4.84-26.43,8.23-26.74,4.03-.37,8.36,11.98,10.28,17.48,3.91,11.18,4.77,20.21,5.14,23.65,1.05,9.69,3.59,23.65,10.28,41.14-.34-3.06-.67-10.05,3.09-17.48,2.24-4.43,5-7.11,7.2-9.26,1.93-1.88,4.97-4.83,6.17-4.11,1.26,.75-.16,5.09-1.03,8.23,0,0-1.67,6.03-3.09,23.65-.55,6.85,.56,16.77,8.23,29.83-2.29-7.95,.13-16.43,6.17-21.6,7.8-6.68,17.58-4.35,18.51-4.11-1.66,5.18-3.12,11.03-4.11,17.48-3.11,20.28-.15,37.62,3.09,49.37-7.88,4.11-15.77,8.23-23.65,12.34Z"/><path class="cls-7" d="M398.13,683.27c10.16-6.07,25.47-13.77,45.25-18.51,39.18-9.39,71.15-1.26,87.42,3.09,56.01,14.96,91.16,50.75,105.93,67.88,9.04-3.37,22.17-9.26,36-19.54,12.51-9.3,33.02-24.54,42.17-51.42,8.99-26.41,2.15-49.81-1.03-60.68-13.5-46.18-51.07-69.11-59.65-74.05-29.26-16.83-56.64-17.17-81.25-17.48-36.85-.46-63.09,8.17-100.79,20.57-9.4,3.09-47.18,15.82-88.45,43.2-19.72,13.08-34.76,25.87-37.02,44.22-1.2,9.68,1.58,17.5,3.09,21.6,10.54,28.68,42.21,39.22,48.34,41.14Z"/><polygon class="cls-2" points="645.17 591.98 651.77 631.13 669.55 622.67 661.1 640.46 701.34 647.05 661.1 653.65 669.55 671.43 651.77 662.98 645.17 705.4 638.58 662.98 620.79 671.43 629.25 653.65 588.29 647.05 629.25 640.46 620.79 622.67 638.58 631.13 645.17 591.98"/></g></g></svg>