<?xml version="1.0" encoding="UTF-8"?><svg xmlns="http://www.w3.org/2000/svg" viewBox="0 0 1080 1944"><defs><style>.cls-1{fill:#fff;}.cls-2{stroke-width:5px;}.cls-2,.cls-3{fill:#3f3730;}.cls-2,.cls-4{stroke:#3f3730;stroke-miterlimit:10;}.cls-5{fill:#f6ef84;}.cls-6{fill:#4c5fa9;}.cls-4{fill:none;stroke-linecap:round;stroke-width:6px;}.cls-7{fill:#bad6eb;}.cls-8{fill:#c8c0de;}.cls-9{fill:#b1d4f0;}</style></defs><g id="_배경_텍스트"><g><rect class="cls-7" width="1080" height="1944"/><rect class="cls-1" x="74.84" y="186.39" width="930.33" height="1606.64" rx="65.21" ry="65.21"/><path class="cls-2" d="M510.72,1669.57c0,1.92,.2,3.46,.6,4.62,.4,1.16,.98,2.04,1.74,2.64,.76,.6,1.72,1.02,2.88,1.26,1.16,.24,2.5,.44,4.02,.6,.56,.08,.96,.3,1.2,.66,.24,.36,.36,.74,.36,1.14s-.14,.78-.42,1.14c-.28,.36-.74,.54-1.38,.54h-26.52c-.64,0-1.1-.18-1.38-.54-.28-.36-.42-.74-.42-1.14s.12-.78,.36-1.14c.24-.36,.64-.58,1.2-.66,1.52-.16,2.84-.36,3.96-.6,1.12-.24,2.08-.66,2.88-1.26,.8-.6,1.4-1.48,1.8-2.64,.4-1.16,.6-2.7,.6-4.62v-60.72c0-1.92-.2-3.46-.6-4.62-.4-1.16-1-2.04-1.8-2.64-.8-.6-1.76-1.02-2.88-1.26-1.12-.24-2.44-.44-3.96-.6-.56-.08-.96-.3-1.2-.66-.24-.36-.36-.74-.36-1.14s.14-.78,.42-1.14c.28-.36,.74-.54,1.38-.54h26.52c.64,0,1.1,.18,1.38,.54,.28,.36,.42,.74,.42,1.14s-.12,.78-.36,1.14c-.24,.36-.64,.58-1.2,.66-1.52,.16-2.86,.36-4.02,.6-1.16,.24-2.12,.66-2.88,1.26-.76,.6-1.34,1.48-1.74,2.64-.4,1.16-.6,2.7-.6,4.62v60.72Zm33.6,0c0,1.92,.2,3.46,.6,4.62,.4,1.16,.98,2.04,1.74,2.64,.76,.6,1.72,1.02,2.88,1.26,1.16,.24,2.5,.44,4.02,.6,.56,.08,.96,.3,1.2,.66,.24,.36,.36,.74,.36,1.14s-.14,.78-.42,1.14c-.28,.36-.74,.54-1.38,.54h-26.52c-.64,0-1.1-.18-1.38-.54-.28-.36-.42-.74-.42-1.14s.12-.78,.36-1.14c.24-.36,.64-.58,1.2-.66,1.52-.16,2.84-.36,3.96-.6,1.12-.24,2.08-.66,2.88-1.26,.8-.6,1.4-1.48,1.8-2.64,.4-1.16,.6-2.7,.6-4.62v-60.72c0-1.92-.2-3.46-.6-4.62-.4-1.16-1-2.04-1.8-2.64-.8-.6-1.76-1.02-2.88-1.26-1.12-.24-2.44-.44-3.96-.6-.56-.08-.96-.3-1.2-.66-.24-.36-.36-.74-.36-1.14s.14-.78,.42-1.14c.28-.36,.74-.54,1.38-.54h26.52c.64,0,1.1,.18,1.38,.54,.28,.36,.42,.74,.42,1.14s-.12,.78-.36,1.14c-.24,.36-.64,.58-1.2,.66-1.52,.16-2.86,.36-4.02,.6-1.16,.24-2.12,.66-2.88,1.26-.76,.6-1.34,1.48-1.74,2.64-.4,1.16-.6,2.7-.6,4.62v60.72Zm33.36,0c0,1.92,.2,3.46,.6,4.62,.4,1.16,.98,2.04,1.74,2.64,.76,.6,1.72,1.02,2.88,1.26,1.16,.24,2.5,.44,4.02,.6,.56,.08,.96,.3,1.2,.66,.24,.36,.36,.74,.36,1.14s-.14,.78-.42,1.14c-.28,.36-.74,.54-1.38,.54h-26.52c-.64,0-1.1-.18-1.38-.54-.28-.36-.42-.74-.42-1.14s.12-.78,.36-1.14c.24-.36,.64-.58,1.2-.66,1.52-.16,2.84-.36,3.96-.6,1.12-.24,2.08-.66,2.88-1.26,.8-.6,1.4-1.48,1.8-2.64,.4-1.16,.6-2.7,.6-4.62v-60.72c0-1.92-.2-3.46-.6-4.62-.4-1.16-1-2.04-1.8-2.64-.8-.6-1.76-1.02-2.88-1.26-1.12-.24-2.44-.44-3.96-.6-.56-.08-.96-.3-1.2-.66-.24-.36-.36-.74-.36-1.14s.14-.78,.42-1.14c.28-.36,.74-.54,1.38-.54h26.52c.64,0,1.1,.18,1.38,.54,.28,.36,.42,.74,.42,1.14s-.12,.78-.36,1.14c-.24,.36-.64,.58-1.2,.66-1.52,.16-2.86,.36-4.02,.6-1.16,.24-2.12,.66-2.88,1.26-.76,.6-1.34,1.48-1.74,2.64-.4,1.16-.6,2.7-.6,4.62v60.72Z"/><g><path class="cls-1" d="M410.88,142.03c-5.1,5.49-9.75,8.24-13.95,8.24-2.55,0-4.5-1.23-5.83-3.69-1.33-2.46-2-5.75-2-9.88,0-3.19,.65-7.58,1.96-13.16,1.31-5.58,3-10.28,5.08-14.08l1.98-3.55c-2.71,2.83-4.93,5.92-6.67,9.28-1.73,3.36-3.8,8.06-6.2,14.1-2.4,6.04-4.22,10.15-5.45,12.34s-2.41,3.97-3.54,5.35c-1.13,1.38-2.13,2.27-3.01,2.68-.88,.41-2.41,.62-4.6,.62-.84,0-1.26-.23-1.26-.68,0-.05,.15-.76,.45-2.15,.3-1.39,.61-3.62,.92-6.68,.31-3.06,.54-8.27,.68-15.62s1.21-13.64,3.21-18.88c-2.14,2.44-4.33,8.11-6.57,17.02l-.86,3.35c-2.35,9.27-5.04,15.53-8.08,18.78-3.03,3.25-6.01,4.87-8.93,4.87-1.8,0-3.39-.57-4.76-1.71s-2.05-2.45-2.05-3.93c0-1.14,.82-2.42,2.46-3.83,1.64-1.41,2.68-2.12,3.11-2.12,.5,0,.83,.17,.99,.51,.16,.34,.37,1.28,.62,2.82s.63,2.54,1.15,3.01c.51,.47,1.16,.7,1.94,.7,1.76,0,3.7-1.76,5.83-5.28s4.07-8.96,5.83-16.32l.99-4.14c.8-3.37,1.59-6.06,2.37-8.07,.78-2,1.8-4.01,3.08-6.02,1.85-2.87,2.99-4.4,3.41-4.6,.42-.19,1.21-.35,2.38-.48,1.16-.12,2.32-.19,3.49-.19,.46,0,.68,.26,.68,.79,0,.25-.07,.76-.21,1.54-.45,3.19-.66,6.39-.64,9.6l.07,9.16c.04,7.98-.59,14.41-1.91,19.31,1.21-1.46,2.96-5.22,5.26-11.28,3.33-8.59,6.36-15.04,9.09-19.35,1.3-2.07,2.87-4.06,4.7-5.96,1.83-1.9,3.1-2.92,3.81-3.06,2.42-.46,4.45-.68,6.12-.68,.62,0,.92,.17,.92,.51,0,.48-.38,1.55-1.12,3.21-1.77,4.01-3.43,9.44-4.96,16.27s-2.31,12.28-2.32,16.33c0,4.58,1.4,6.87,4.2,6.87,2.28,0,4.99-1.94,8.13-5.81v3.93Z"/><path class="cls-1" d="M427.66,142.03c-5.33,5.61-9.32,8.41-11.96,8.41-1.46,0-2.69-.75-3.69-2.24-1-1.49-1.5-3.37-1.5-5.62,0-4.85,1.64-11.58,4.92-20.17l8.68-1.81h.41l-3.42,10.7c-1.41,4.42-2.12,7.58-2.12,9.47,0,.75,.17,1.36,.5,1.83,.33,.47,.75,.7,1.25,.7,.89,0,1.78-.32,2.68-.97s2.32-2.06,4.26-4.22v3.93Zm-.68-34.79c0,5.47-2.02,8.2-6.05,8.2-1.96,0-3.63-.59-5.02-1.78,1.32-2,2.35-4.26,3.08-6.77,1.8,1.12,3.25,1.67,4.34,1.67,1.23,0,2.45-.44,3.66-1.33Z"/><path class="cls-1" d="M461.22,142.03c-5.26,5.56-9.78,8.34-13.54,8.34-1.53,0-2.76-.54-3.69-1.61-.93-1.07-1.4-2.51-1.4-4.31,0-2.44,1-6.16,3.01-11.18,1.07-2.69,1.61-4.4,1.61-5.13s-.29-1.09-.85-1.09c-.32,0-.74,.16-1.26,.48-.48,.32-1.04,.76-1.67,1.33-.57,.52-1.21,1.16-1.91,1.91-.62,.64-1.28,1.37-1.98,2.19l-1.91,2.22c-.84,1.03-1.37,2.11-1.57,3.25-.34,1.94-.57,3.71-.68,5.33-.07,1.21-.1,2.84-.1,4.89l-7.55,1.78c-.25-3.08-.38-5.37-.38-6.87,0-3.67,.43-7.14,1.28-10.42,.86-3.28,2.23-6.97,4.12-11.07l8.34-1.61c-1.75,4.72-2.91,8.43-3.45,11.14,3.73-4.17,6.7-7.06,8.89-8.66,2.19-1.61,4.15-2.41,5.85-2.41,1.16,0,2.13,.44,2.9,1.31,.77,.88,1.16,1.97,1.16,3.29,0,2.18-.98,5.78-2.94,10.8-1.34,3.44-2.02,5.68-2.02,6.7,0,1.37,.56,2.06,1.68,2.06,1.67,0,4.36-2.2,8.09-6.6v3.93Z"/><path class="cls-1" d="M491.88,142.03c-1.16,1.03-2.29,1.75-3.38,2.17-1.09,.42-1.96,.63-2.6,.63-1.64,0-3.27-.64-4.89-1.91-3.28,4.97-7.04,7.45-11.28,7.45-2.64,0-4.79-.99-6.43-2.97s-2.46-4.61-2.46-7.9c0-5.2,1.85-9.66,5.54-13.38s8.1-5.59,13.23-5.59c1.94,0,3.35,.21,4.25,.63,.9,.42,1.45,.92,1.66,1.49,.21,.57,.31,1.29,.31,2.15,0,4.26-1.16,9.49-3.49,15.69,1.16,1.07,2.38,1.61,3.66,1.61,1.53,0,3.49-1.33,5.88-4v3.93Zm-11.28-19.11c-.34-.14-.83-.21-1.47-.21-2.96,0-5.28,1.55-6.96,4.65-1.67,3.1-2.51,6.72-2.51,10.87,0,2.3,.36,4.09,1.09,5.37,.73,1.28,1.74,1.91,3.04,1.91,1.62,0,3.37-1.49,5.26-4.48-2.14-2.69-3.21-5.58-3.21-8.68,0-3.65,1.58-6.79,4.75-9.43Z"/><path class="cls-1" d="M517.42,142.03c-5.72,5.61-10.13,8.41-13.23,8.41-1.39,0-2.56-.59-3.52-1.76s-1.44-2.63-1.44-4.36c0-3.21,1.72-7.52,5.16-12.92-1.69,.87-3.53,1.47-5.54,1.81-1.48,2.73-3.81,5.67-6.97,8.82h-.79v-3.08c1.78-1.85,3.38-3.83,4.82-5.95-1.96-.87-2.94-2.15-2.94-3.86s.6-3.63,1.79-5.62c1.2-1.99,2.84-2.99,4.94-2.99,1.78,0,2.67,.91,2.67,2.73,0,1.44-.51,3.49-1.54,6.15,3.78-.41,7.09-3.3,9.91-8.68l3.11-.14-3.18,8.75c-1.32,3.69-2.18,6.2-2.56,7.54-.39,1.33-.58,2.51-.58,3.54,0,.96,.22,1.72,.67,2.29,.44,.57,1.04,.85,1.79,.85,.82,0,1.61-.28,2.36-.84,.75-.56,2.44-2.1,5.06-4.63v3.93Z"/><path class="cls-1" d="M582.32,142.06c-5.24,5.58-10.05,8.37-14.42,8.37-2.42,0-4.33-.85-5.74-2.56-1.41-1.71-2.2-4.15-2.36-7.31-2.76,3.35-5.2,5.83-7.33,7.45s-4.4,2.43-6.82,2.43c-3.1,0-5.59-1.34-7.47-4.02-1.88-2.68-2.82-6.25-2.82-10.72,0-5.33,1.23-10.83,3.69-16.49,2.46-5.66,6.11-10.13,10.94-13.42,4.83-3.28,10.69-4.92,17.57-4.92,5.15,0,9.81,.7,13.98,2.08v2.26c-3.4,3.96-6.24,9.51-8.53,16.65-2.29,7.13-3.44,12.57-3.44,16.3,0,1.82,.37,3.24,1.11,4.24,.74,1,1.77,1.5,3.09,1.5,2.37,0,5.22-1.93,8.54-5.78v3.93Zm-9.95-36.85c-2.1-1.14-4.35-1.71-6.77-1.71-3.81,0-7.24,1.59-10.29,4.77-3.05,3.18-5.46,7.39-7.23,12.63-1.77,5.24-2.65,9.79-2.65,13.64,0,2.58,.5,4.67,1.49,6.27,.99,1.61,2.26,2.41,3.81,2.41,2.69,0,5.78-2.45,9.26-7.35,1.44-12.85,5.56-23.07,12.37-30.66Z"/><path class="cls-1" d="M607.85,142.03c-5.72,5.61-10.13,8.41-13.23,8.41-1.39,0-2.56-.59-3.52-1.76s-1.44-2.63-1.44-4.36c0-3.21,1.72-7.52,5.16-12.92-1.69,.87-3.53,1.47-5.54,1.81-1.48,2.73-3.81,5.67-6.97,8.82h-.79v-3.08c1.78-1.85,3.38-3.83,4.82-5.95-1.96-.87-2.94-2.15-2.94-3.86s.6-3.63,1.79-5.62c1.2-1.99,2.84-2.99,4.94-2.99,1.78,0,2.67,.91,2.67,2.73,0,1.44-.51,3.49-1.54,6.15,3.78-.41,7.09-3.3,9.91-8.68l3.11-.14-3.18,8.75c-1.32,3.69-2.18,6.2-2.56,7.54-.39,1.33-.58,2.51-.58,3.54,0,.96,.22,1.72,.67,2.29,.44,.57,1.04,.85,1.79,.85,.82,0,1.61-.28,2.36-.84,.75-.56,2.44-2.1,5.06-4.63v3.93Z"/><path class="cls-1" d="M633.42,142.03c-2.92,2.87-5.59,4.98-8.02,6.32-2.43,1.34-4.96,2.02-7.6,2.02-2.96,0-5.41-.96-7.33-2.89-1.93-1.93-2.89-4.37-2.89-7.33,0-4.85,1.77-9.34,5.31-13.45,3.54-4.11,7.38-6.17,11.5-6.17,2.03,0,3.68,.56,4.96,1.69,1.28,1.13,1.91,2.59,1.91,4.39,0,.64-.12,1.12-.36,1.44-.24,.32-.69,.64-1.35,.96l-3.96,1.88c-.48,.23-.83,.34-1.06,.34-.32,0-.48-.23-.48-.68,0-.18,.07-.78,.21-1.79,.14-1.01,.21-1.63,.21-1.86,0-1-.21-1.81-.63-2.43s-.99-.92-1.69-.92c-1.66,0-3.18,1.23-4.56,3.69-1.38,2.46-2.07,5.26-2.07,8.41,0,2.71,.65,4.88,1.95,6.49,1.3,1.62,3.03,2.43,5.2,2.43,1.85,0,3.58-.53,5.21-1.59s3.48-2.68,5.55-4.87v3.93Z"/><path class="cls-1" d="M669.92,142.03c-3.65,3.46-6.25,5.72-7.83,6.77s-3.08,1.57-4.51,1.57c-3.6,0-5.3-3.18-5.09-9.54-2.28,3.26-4.38,5.66-6.31,7.21s-3.91,2.32-5.96,2.32-3.71-.94-5.11-2.82c-1.4-1.88-2.1-4.19-2.1-6.92,0-3.42,.94-6.68,2.82-9.78,1.88-3.1,4.29-5.61,7.23-7.52s5.54-2.87,7.79-2.87c2.85,0,4.84,1.31,5.98,3.93l6.99-3.86h1.92l-3.01,10.02c-1.55,5.04-2.33,8.49-2.33,10.36s.69,2.94,2.08,2.94c.89,0,1.87-.47,2.94-1.42,1.07-.95,2.57-2.39,4.51-4.32v3.93Zm-25.02,1.88c2.28,0,4.43-1.94,6.44-5.83,2.02-3.88,3.02-7.47,3.02-10.75,0-1.28-.29-2.27-.85-2.99-.57-.72-1.33-1.08-2.29-1.08-2.28,0-4.44,1.94-6.48,5.81-2.04,3.87-3.06,7.44-3.06,10.7,0,1.23,.3,2.23,.91,2.99,.6,.76,1.37,1.15,2.31,1.15Z"/><path class="cls-1" d="M703.46,142.03c-5.26,5.56-9.78,8.34-13.54,8.34-1.53,0-2.76-.54-3.69-1.61-.93-1.07-1.4-2.51-1.4-4.31,0-2.44,1-6.16,3.01-11.18,1.07-2.69,1.61-4.4,1.61-5.13s-.29-1.09-.85-1.09c-.32,0-.74,.16-1.26,.48-.48,.32-1.04,.76-1.67,1.33-.57,.52-1.21,1.16-1.91,1.91-.62,.64-1.28,1.37-1.98,2.19l-1.91,2.22c-.84,1.03-1.37,2.11-1.57,3.25-.34,1.94-.57,3.71-.68,5.33-.07,1.21-.1,2.84-.1,4.89l-7.55,1.78c-.25-3.08-.38-5.37-.38-6.87,0-3.67,.43-7.14,1.28-10.42,.86-3.28,2.23-6.97,4.12-11.07l8.34-1.61c-1.75,4.72-2.91,8.43-3.45,11.14,3.73-4.17,6.7-7.06,8.89-8.66,2.19-1.61,4.15-2.41,5.85-2.41,1.16,0,2.13,.44,2.9,1.31,.77,.88,1.16,1.97,1.16,3.29,0,2.18-.98,5.78-2.94,10.8-1.34,3.44-2.02,5.68-2.02,6.7,0,1.37,.56,2.06,1.68,2.06,1.67,0,4.36-2.2,8.09-6.6v3.93Z"/><path class="cls-1" d="M739.92,142.03c-3.65,3.46-6.25,5.72-7.83,6.77s-3.08,1.57-4.51,1.57c-3.6,0-5.3-3.18-5.09-9.54-2.28,3.26-4.38,5.66-6.31,7.21s-3.91,2.32-5.96,2.32-3.71-.94-5.11-2.82c-1.4-1.88-2.1-4.19-2.1-6.92,0-3.42,.94-6.68,2.82-9.78,1.88-3.1,4.29-5.61,7.23-7.52s5.54-2.87,7.79-2.87c2.85,0,4.84,1.31,5.98,3.93l6.99-3.86h1.92l-3.01,10.02c-1.55,5.04-2.33,8.49-2.33,10.36s.69,2.94,2.08,2.94c.89,0,1.87-.47,2.94-1.42,1.07-.95,2.57-2.39,4.51-4.32v3.93Zm-25.02,1.88c2.28,0,4.43-1.94,6.44-5.83,2.02-3.88,3.02-7.47,3.02-10.75,0-1.28-.29-2.27-.85-2.99-.57-.72-1.33-1.08-2.29-1.08-2.28,0-4.44,1.94-6.48,5.81-2.04,3.87-3.06,7.44-3.06,10.7,0,1.23,.3,2.23,.91,2.99,.6,.76,1.37,1.15,2.31,1.15Z"/></g><g><path class="cls-1" d="M508.35,1856.06c-5.4,5.58-11.92,8.37-19.55,8.37-5.47,0-9.95-1.71-13.45-5.14-3.5-3.43-5.25-7.83-5.25-13.21s1.26-10.45,3.79-15.28c2.53-4.83,5.84-8.69,9.93-11.59,4.09-2.89,8.11-4.34,12.05-4.34,3.3,0,6,.99,8.08,2.97,2.09,1.98,3.13,4.56,3.13,7.72,0,4.12-1.26,7.7-3.78,10.72-2.52,3.02-5.46,4.53-8.84,4.53-1.78,0-3.24-.46-4.38-1.37-1.14-.91-1.71-2.08-1.71-3.52,0-1.23,.49-2.37,1.47-3.42,.73,1.34,1.73,2.02,3.01,2.02,1.82,0,3.51-1.14,5.08-3.42,1.56-2.28,2.34-4.77,2.34-7.49,0-1.89-.44-3.4-1.32-4.51-.88-1.12-2.04-1.67-3.5-1.67-2.12,0-4.38,1.32-6.78,3.96-2.41,2.64-4.41,6.04-6.02,10.19-1.61,4.15-2.41,8.09-2.41,11.83,0,4.76,1.35,8.67,4.05,11.72,2.7,3.05,6.13,4.58,10.3,4.58,2.64,0,5.02-.61,7.14-1.84,2.12-1.23,4.32-3.14,6.6-5.75v3.93Z"/><path class="cls-1" d="M544.82,1856.03c-3.01,2.85-5.53,4.95-7.55,6.31-2.03,1.36-3.85,2.03-5.47,2.03-1.8,0-3.18-.72-4.15-2.15s-1.45-3.38-1.45-5.84c-2.51,2.76-4.75,4.79-6.73,6.1s-3.92,1.97-5.81,1.97c-1.73,0-3.12-.72-4.17-2.15-1.05-1.44-1.57-3.38-1.57-5.84,0-4.74,1.59-11.42,4.79-20.03l9.13-1.82c-3.75,10.92-5.63,17.93-5.64,21.03,0,2.19,.82,3.28,2.46,3.28,1.18,0,2.65-.96,4.41-2.89,1.75-1.93,2.85-3.61,3.28-5.04l4.48-14.56,9.3-1.88c-2.15,6.86-3.62,11.68-4.42,14.46s-1.2,4.73-1.2,5.85c0,2.14,.73,3.21,2.19,3.21,1.19,0,2.94-1.08,5.27-3.25l2.87-2.7v3.93Z"/><path class="cls-1" d="M561.14,1840.41c1.64-1.98,3.19-3.45,4.64-4.39,1.46-.95,3.07-1.42,4.85-1.42,2.3,0,4.17,.88,5.62,2.65,1.45,1.77,2.17,4.08,2.17,6.96,0,5.04-1.74,9.66-5.21,13.86s-7.25,6.31-11.33,6.31c-1.14,0-2.04-.13-2.7-.38-.66-.25-1.53-.83-2.6-1.74-1.64,7.22-2.7,13.01-3.18,17.36l-8.68,1.54c1.62-10.66,3.68-21.46,6.19-32.4-3.01,3.94-5.04,6.37-6.08,7.28h-.79v-3.08c4.33-4.67,7.9-10.34,10.7-17.02l7.73-1.4-1.32,5.88Zm-3.95,18.28c1.19,1.96,2.5,2.94,3.93,2.94,2.3,0,4.34-1.75,6.11-5.25,1.77-3.5,2.65-6.91,2.65-10.24,0-1.75-.36-3.17-1.08-4.26-.72-1.08-1.65-1.62-2.78-1.62-.89,0-1.82,.4-2.8,1.2s-1.72,1.73-2.22,2.79-1.07,2.91-1.71,5.55l-2.1,8.88Z"/><path class="cls-1" d="M594.72,1836c1.57-.41,3.16-.75,4.75-1.01,1.59-.26,2.55-.39,2.87-.39,.23,0,.34,.09,.34,.27,0,.34-.09,.69-.27,1.06-.37,1.05-.55,2.05-.55,3.01,0,1.18,.69,2.8,2.05,4.85s2.05,3.96,2.05,5.71c0,3.49-1.67,6.85-5.01,10.08-3.34,3.24-6.8,4.85-10.37,4.85-1.55,0-2.96-.41-4.24-1.23-1.28-.82-1.91-1.7-1.91-2.63,0-.55,.63-1.58,1.9-3.11,1.26-1.53,2.17-2.29,2.72-2.29,.73,0,1.38,.93,1.95,2.8,.57,1.87,1.55,2.8,2.94,2.8s2.69-.64,3.91-1.93,1.83-2.67,1.83-4.15c0-1.44-.77-3.35-2.32-5.74s-2.58-4.4-3.08-6.02c-2.64,4.26-5.99,8.62-10.05,13.09h-.79v-3.08c5.58-5.95,9.34-11.6,11.28-16.95Z"/></g></g></g><g id="_반짝이"><polygon class="cls-8" points="276.41 540.06 290.92 596.35 337.63 607.91 290.92 620.59 276.41 677.92 261.13 620.59 215.19 607.91 261.13 596.35 276.41 540.06"/><polygon class="cls-8" points="833.93 760.51 842.5 793.78 870.11 800.62 842.5 808.11 833.93 842 824.89 808.11 797.74 800.62 824.89 793.78 833.93 760.51"/><circle class="cls-9" cx="207" cy="734" r="12"/><circle class="cls-8" cx="242" cy="780" r="8"/><circle class="cls-9" cx="210" cy="972" r="6"/><circle class="cls-9" cx="788.5" cy="685.5" r="10.5"/><circle class="cls-8" cx="818" cy="641" r="6"/><circle class="cls-9" cx="894" cy="922" r="8"/><circle class="cls-8" cx="873.5" cy="991.5" r="5.5"/></g><g id="_컵_3"><g><g><rect class="cls-9" x="347.8" y="1035.14" width="47.4" height="19.64" rx="9.82" ry="9.82"/><rect class="cls-9" x="359.01" y="1036.83" width="24.97" height="117.17"/><polygon class="cls-9" points="442.94 1153.65 300.06 1153.65 363.71 1127.92 379.29 1127.92 442.94 1153.65"/><path class="cls-9" d="M286.85,871.26v81.94c0,46.75,37.9,84.65,84.65,84.65h0c46.75,0,84.65-37.9,84.65-84.65v-81.94h-169.3Zm106.2,96.75l-15.49-7.36-5.75,36.95-5.75-36.95-15.49,7.36,7.36-15.49-35.67-5.75,35.67-5.75-7.36-15.49,15.49,7.36,5.75-34.1,5.75,34.1,15.49-7.36-7.36,15.49,35.05,5.75-35.05,5.75,7.36,15.49Z"/></g><g><rect class="cls-9" x="684.8" y="1035.14" width="47.4" height="19.64" rx="9.82" ry="9.82"/><rect class="cls-9" x="696.01" y="1036.83" width="24.97" height="117.17"/><polygon class="cls-9" points="779.94 1153.65 637.06 1153.65 700.71 1127.92 716.29 1127.92 779.94 1153.65"/><path class="cls-9" d="M623.85,871.26v81.94c0,46.75,37.9,84.65,84.65,84.65h0c46.75,0,84.65-37.9,84.65-84.65v-81.94h-169.3Zm106.2,96.75l-15.49-7.36-5.75,36.95-5.75-36.95-15.49,7.36,7.36-15.49-35.67-5.75,35.67-5.75-7.36-15.49,15.49,7.36,5.75-34.1,5.75,34.1,15.49-7.36-7.36,15.49,35.05,5.75-35.05,5.75,7.36,15.49Z"/></g></g><g><rect class="cls-6" x="516.3" y="724.14" width="47.4" height="19.64" rx="9.82" ry="9.82"/><rect class="cls-6" x="527.51" y="725.83" width="24.97" height="117.17"/><polygon class="cls-6" points="611.44 842.65 468.56 842.65 532.21 816.92 547.79 816.92 611.44 842.65"/><path class="cls-6" d="M455.35,560.26v81.94c0,46.75,37.9,84.65,84.65,84.65h0c46.75,0,84.65-37.9,84.65-84.65v-81.94h-169.3Zm106.2,96.75l-15.49-7.36-5.75,36.95-5.75-36.95-15.49,7.36,7.36-15.49-35.67-5.75,35.67-5.75-7.36-15.49,15.49,7.36,5.75-34.1,5.75,34.1,15.49-7.36-7.36,15.49,35.05,5.75-35.05,5.75,7.36,15.49Z"/></g><polygon class="cls-5" points="540.67 1191.02 553.05 1264.48 586.41 1248.62 570.55 1281.98 646.05 1294.36 570.55 1306.73 586.41 1340.09 553.05 1324.24 540.67 1403.83 528.3 1324.24 494.93 1340.09 510.79 1306.73 433.95 1294.36 510.79 1281.98 494.93 1248.62 528.3 1264.48 540.67 1191.02"/><g><path class="cls-3" d="M293.56,1254.98c-2.73-3.35-8.15-10.99-9.28-21.97-2.02-19.65,11.45-33.28,13.4-35.19,3.23,2.28,10.73,8.26,13.92,18.74,2.93,9.61,2.45,23.66-6.79,32.31-4.02,3.76-8.48,5.37-11.25,6.12Z"/><g><path class="cls-4" d="M451.57,1336.55c-16.58,1-43.08,.65-72.23-9.18-51.3-17.31-78.59-53.14-98.5-79.28-12.54-16.47-29.34-42.34-41.27-77.61"/><path class="cls-3" d="M347.04,1303.74c-2.14-3.75-6.24-12.18-5.55-23.2,1.23-19.72,16.75-30.96,18.98-32.52,2.82,2.77,9.23,9.91,10.66,20.77,1.32,9.96-1.46,23.74-11.99,30.76-4.58,3.05-9.25,3.91-12.1,4.19Z"/><path class="cls-3" d="M377.04,1320.74c-2.14-3.75-6.24-12.18-5.55-23.2,1.23-19.72,16.75-30.96,18.98-32.52,2.82,2.77,9.23,9.91,10.66,20.77,1.32,9.96-1.46,23.74-11.99,30.76-4.58,3.05-9.25,3.91-12.1,4.19Z"/><path class="cls-3" d="M317.11,1281.38c-2.01-3.82-5.81-12.39-4.74-23.38,1.92-19.66,17.82-30.35,20.11-31.84,2.72,2.87,8.87,10.22,9.93,21.13,.97,10-2.29,23.68-13.06,30.32-4.68,2.89-9.38,3.58-12.24,3.76Z"/><path class="cls-3" d="M271.57,1219.48c-3.27-2.82-9.96-9.39-13-20-5.44-18.99,5.42-34.78,7-37,3.58,1.67,12.01,6.25,17,16,4.58,8.95,6.57,22.86-1,33-3.29,4.41-7.41,6.78-10,8Z"/><path class="cls-3" d="M324.92,1304.98c-2.79-3.3-9.29-10.05-19.88-13.19-18.94-5.62-34.83,5.09-37.06,6.65,1.64,3.6,6.13,12.07,15.84,17.15,8.9,4.66,22.8,6.79,33.01-.69,4.44-3.25,6.85-7.34,8.09-9.92Z"/><path class="cls-3" d="M363.92,1332.98c-2.79-3.3-9.29-10.05-19.88-13.19-18.94-5.62-34.83,5.09-37.06,6.65,1.64,3.6,6.13,12.07,15.84,17.15,8.9,4.66,22.8,6.79,33.01-.69,4.44-3.25,6.85-7.34,8.09-9.92Z"/><path class="cls-3" d="M294.21,1274.19c-2.9-3.2-9.64-9.72-20.33-12.49-19.12-4.95-34.63,6.3-36.81,7.94,1.76,3.54,6.55,11.85,16.43,16.59,9.06,4.35,23.02,5.99,32.96-1.84,4.32-3.4,6.59-7.58,7.74-10.2Z"/><path class="cls-3" d="M274.52,1247c-2.21-3.71-7.52-11.44-17.44-16.27-17.76-8.65-35.19-.69-37.65,.48,1.03,3.82,4.07,12.91,12.81,19.52,8.02,6.06,21.38,10.44,32.67,4.73,4.91-2.48,7.96-6.12,9.61-8.46Z"/><path class="cls-3" d="M251.74,1212.14c-1.52-4.04-5.39-12.58-14.31-19.08-15.96-11.64-34.52-6.87-37.15-6.15,.34,3.94,1.74,13.43,9.18,21.46,6.83,7.37,19.21,14.03,31.33,10.41,5.27-1.58,8.92-4.62,10.95-6.64Z"/><path class="cls-3" d="M241.57,1183.48c-3.27-2.82-9.96-9.39-13-20-5.44-18.99,5.42-34.78,7-37,3.58,1.67,12.01,6.25,17,16,4.58,8.95,6.57,22.86-1,33-3.29,4.41-7.41,6.78-10,8Z"/></g></g><g><path class="cls-3" d="M793.58,1254.98c2.73-3.35,8.15-10.99,9.28-21.97,2.02-19.65-11.45-33.28-13.4-35.19-3.23,2.28-10.73,8.26-13.92,18.74-2.93,9.61-2.45,23.66,6.79,32.31,4.02,3.76,8.48,5.37,11.25,6.12Z"/><g><path class="cls-4" d="M635.57,1336.55c16.58,1,43.08,.65,72.23-9.18,51.3-17.31,78.59-53.14,98.5-79.28,12.54-16.47,29.34-42.34,41.27-77.61"/><path class="cls-3" d="M740.1,1303.74c2.14-3.75,6.24-12.18,5.55-23.2-1.23-19.72-16.75-30.96-18.98-32.52-2.82,2.77-9.23,9.91-10.66,20.77-1.32,9.96,1.46,23.74,11.99,30.76,4.58,3.05,9.25,3.91,12.1,4.19Z"/><path class="cls-3" d="M710.1,1320.74c2.14-3.75,6.24-12.18,5.55-23.2-1.23-19.72-16.75-30.96-18.98-32.52-2.82,2.77-9.23,9.91-10.66,20.77-1.32,9.96,1.46,23.74,11.99,30.76,4.58,3.05,9.25,3.91,12.1,4.19Z"/><path class="cls-3" d="M770.03,1281.38c2.01-3.82,5.81-12.39,4.74-23.38-1.92-19.66-17.82-30.35-20.11-31.84-2.72,2.87-8.87,10.22-9.93,21.13-.97,10,2.29,23.68,13.06,30.32,4.68,2.89,9.38,3.58,12.24,3.76Z"/><path class="cls-3" d="M815.57,1219.48c3.27-2.82,9.96-9.39,13-20,5.44-18.99-5.42-34.78-7-37-3.58,1.67-12.01,6.25-17,16-4.58,8.95-6.57,22.86,1,33,3.29,4.41,7.41,6.78,10,8Z"/><path class="cls-3" d="M762.22,1304.98c2.79-3.3,9.29-10.05,19.88-13.19,18.94-5.62,34.83,5.09,37.06,6.65-1.64,3.6-6.13,12.07-15.84,17.15-8.9,4.66-22.8,6.79-33.01-.69-4.44-3.25-6.85-7.34-8.09-9.92Z"/><path class="cls-3" d="M723.22,1332.98c2.79-3.3,9.29-10.05,19.88-13.19,18.94-5.62,34.83,5.09,37.06,6.65-1.64,3.6-6.13,12.07-15.84,17.15-8.9,4.66-22.8,6.79-33.01-.69-4.44-3.25-6.85-7.34-8.09-9.92Z"/><path class="cls-3" d="M792.93,1274.19c2.9-3.2,9.64-9.72,20.33-12.49,19.12-4.95,34.63,6.3,36.81,7.94-1.76,3.54-6.55,11.85-16.43,16.59-9.06,4.35-23.02,5.99-32.96-1.84-4.32-3.4-6.59-7.58-7.74-10.2Z"/><path class="cls-3" d="M812.62,1247c2.21-3.71,7.52-11.44,17.44-16.27,17.76-8.65,35.19-.69,37.65,.48-1.03,3.82-4.07,12.91-12.81,19.52-8.02,6.06-21.38,10.44-32.67,4.73-4.91-2.48-7.96-6.12-9.61-8.46Z"/><path class="cls-3" d="M835.4,1212.14c1.52-4.04,5.39-12.58,14.31-19.08,15.96-11.64,34.52-6.87,37.15-6.15-.34,3.94-1.74,13.43-9.18,21.46-6.83,7.37-19.21,14.03-31.33,10.41-5.27-1.58-8.92-4.62-10.95-6.64Z"/><path class="cls-3" d="M845.57,1183.48c3.27-2.82,9.96-9.39,13-20,5.44-18.99-5.42-34.78-7-37-3.58,1.67-12.01,6.25-17,16-4.58,8.95-6.57,22.86,1,33,3.29,4.41,7.41,6.78,10,8Z"/></g></g></g></svg>