<?xml version="1.0" encoding="UTF-8"?><svg xmlns="http://www.w3.org/2000/svg" viewBox="0 0 1080 1944"><defs><style>.cls-1{fill:#fff;}.cls-2{stroke:#4c5fa9;stroke-linecap:round;stroke-linejoin:round;stroke-width:15px;}.cls-2,.cls-3{fill:none;}.cls-4{fill:#f6ef84;}.cls-5{fill:#3f3730;}.cls-6{fill:#bad6eb;}.cls-7{fill:#c8c0de;}.cls-8{fill:#b1d4f0;}.cls-3{stroke:#fff;stroke-miterlimit:10;stroke-width:4px;}</style></defs><g id="_배경"><g><rect class="cls-6" width="1080" height="1944"/><rect class="cls-1" x="74.84" y="186.39" width="930.33" height="1606.64" rx="65.21" ry="65.21"/><g><path class="cls-5" d="M298.62,1646.47c1.52,0,2.29,.49,2.29,1.46l-1.41,7.79-.29,14.47c-.2,4.73-.92,9.08-2.17,13.07-1.13,3.71-2.72,7.09-4.75,10.14-1.84,2.81-4.04,5.29-6.62,7.44-2.38,1.99-5,3.67-7.85,5.04-2.66,1.25-5.45,2.19-8.38,2.81-2.7,.62-5.41,.94-8.14,.94-6.37,0-11.36-1.38-14.97-4.13-3.61-2.75-5.42-5.42-5.42-8,0-1.48,1.34-3.4,4.01-5.74,2.67-2.34,4.7-3.52,6.06-3.52,1.68,0,2.52,1.56,2.52,4.69,0,5.08,.83,8.37,2.49,9.87,1.66,1.5,3.88,2.26,6.65,2.26,4.49,0,8.43-1.43,11.81-4.28,3.38-2.85,5.65-6.26,6.83-10.22,1.17-3.96,1.78-9.81,1.82-17.55,.04-7.73,.62-13.06,1.73-15.97,1.11-2.91,3.15-5.4,6.12-7.47,2.97-2.07,5.53-3.11,7.68-3.11Zm21.97-17.99c-1.13,8.4-4.71,12.6-10.72,12.6-2.11,0-6.15-.95-12.13-2.84-5.98-1.89-11.13-2.84-15.47-2.84-5.59,0-10.42,2.07-14.5,6.22-4.08,4.15-6.12,7.77-6.12,10.86s1.88,5.69,5.62,8.04c1.52,.98,2.29,1.86,2.29,2.64,0,1.06-1.08,2.48-3.25,4.28s-3.8,2.7-4.89,2.7c-1.84,0-3.55-1.05-5.16-3.16-1.6-2.11-2.4-4.41-2.4-6.91,0-4.84,1.97-10.13,5.92-15.85,3.95-5.72,9.1-10.39,15.47-14,6.37-3.61,13.05-5.42,20.04-5.42,4.73,0,9.2,.71,13.42,2.14,4.22,1.43,6.86,2.14,7.91,2.14,.94,0,1.74-.27,2.4-.82l.35-.12,1.23,.35Z"/><path class="cls-5" d="M372.92,1695.34c-9.26,9.61-16.88,14.41-22.85,14.41-2.66,0-4.85-.91-6.59-2.72-1.74-1.82-2.61-4.11-2.61-6.88,0-4.69,1.8-11.29,5.39-19.8,1.91-4.61,2.87-7.62,2.87-9.02,0-1.6-.76-2.4-2.29-2.4s-3.83,1.06-6.8,3.19c-2.97,2.13-6.09,5.03-9.38,8.7-1.37,7.19-2.05,15.82-2.05,25.9l-13.07,3.05c-.51-4.1-.76-8.55-.76-13.36,0-11.64,1.6-22.48,4.8-32.52,3.2-10.04,8.24-20.68,15.12-31.93,5.12-2.07,9.58-3.76,13.39-5.07,3.81-1.31,5.99-1.96,6.53-1.96,1.02,0,1.88,.82,2.58,2.46s1.05,3.69,1.05,6.15c0,4.14-1.27,8.72-3.81,13.74-2.54,5.02-6.52,11.08-11.95,18.19,5.2-3.01,8.66-4.9,10.38-5.68,1.72-.78,3.48-1.17,5.28-1.17,1.99,0,3.61,.71,4.84,2.14s1.85,3.31,1.85,5.66c0,3.52-1.4,8.97-4.2,16.35-2.8,7.38-4.2,12.01-4.2,13.88,0,.86,.26,1.62,.79,2.29s1.14,1,1.84,1c2.5,0,7.11-3.77,13.82-11.31v6.74Zm-40.61-24.02c13.95-16.21,20.92-28.16,20.92-35.86,0-2.34-.64-3.52-1.93-3.52-2.15,0-5.21,3.85-9.2,11.54-3.98,7.7-7.25,16.97-9.79,27.83Z"/><path class="cls-5" d="M416.69,1695.34c-4.96,4.88-9.41,8.49-13.36,10.81-3.95,2.32-8.3,3.49-13.07,3.49-5.31,0-9.6-1.7-12.86-5.1-3.26-3.4-4.89-7.87-4.89-13.42,0-8.28,2.87-15.77,8.61-22.47,5.74-6.7,12.11-10.05,19.1-10.05,3.63,0,6.54,.94,8.73,2.81,2.19,1.88,3.28,4.34,3.28,7.38,0,8.09-8.59,14.65-25.78,19.69,1.56,7.62,5.64,11.43,12.25,11.43,2.58,0,5.04-.69,7.38-2.08,2.34-1.39,5.88-4.46,10.61-9.23v6.74Zm-30.7-10.84c10-2.81,15-8.01,15-15.59,0-3.75-1.37-5.62-4.1-5.62-2.58,0-5.04,1.96-7.38,5.89s-3.52,9.03-3.52,15.32Z"/><path class="cls-5" d="M509.27,1695.28c-5.04,4.94-10.1,8.57-15.18,10.88-5.08,2.31-10.82,3.47-17.23,3.47-8.48,0-15.26-2.05-20.36-6.15s-7.65-9.49-7.65-16.17c0-5.82,2.09-10.93,6.27-15.32,4.18-4.39,10.58-7.45,19.22-9.17-8.32-3.16-12.48-8.5-12.48-16,0-5.98,2.87-11.14,8.61-15.5,5.74-4.36,12.66-6.53,20.74-6.53,5.82,0,10.04,1.14,12.66,3.43,2.62,2.29,3.93,4.37,3.93,6.24,0,1.17-.98,2.99-2.93,5.45-1.95,2.46-3.38,3.69-4.28,3.69-1.05,0-1.82-1.48-2.29-4.45-1.09-6.64-3.77-9.96-8.03-9.96-3.32,0-6.33,1.86-9.02,5.57-2.7,3.71-4.04,7.91-4.04,12.6,0,7.5,3.67,11.25,11.02,11.25,1.21,0,2.03,.07,2.46,.21,.43,.14,.64,.48,.64,1.03,0,1.49-.29,3.12-.88,4.89-.59,1.78-1.33,2.67-2.23,2.67-.27,0-1.25-.11-2.93-.32-1.68-.21-3.14-.32-4.39-.32-4.14,0-7.7,1.7-10.66,5.1-2.97,3.4-4.45,7.5-4.45,12.3,0,5.2,1.74,9.5,5.21,12.92,3.48,3.42,7.87,5.13,13.18,5.13,4.37,0,8.75-1.18,13.12-3.53,4.37-2.35,8.36-5.73,11.95-10.12v6.74Z"/><path class="cls-5" d="M595.52,1695.34c-4.88,4.77-9.06,8.34-12.54,10.72-3.48,2.38-6.86,3.57-10.14,3.57-2.58,0-4.62-.89-6.12-2.67-1.5-1.78-2.26-4.17-2.26-7.18,0-4.22,1.05-9.57,3.16-16.05,2.11-6.48,3.16-10.43,3.16-11.84,0-1.25-.64-1.88-1.93-1.88-.39,0-.86,.14-1.41,.41-.59,.27-1.25,.67-1.99,1.17-.74,.55-1.54,1.21-2.4,1.99-.86,.78-1.76,1.68-2.69,2.7-1.02,1.02-2.03,2.13-3.05,3.34-1.72,2.03-2.73,3.73-3.05,5.1l-1.95,8.38-3.54,13.83-14.84,2.69,5.68-24.14c.43-1.76,.94-4.34,1.52-7.73s.88-5.43,.88-6.09c0-1.33-.45-1.99-1.35-1.99-.27,0-.67,.14-1.17,.41-.59,.27-1.25,.68-1.99,1.23-.86,.62-1.78,1.37-2.75,2.23-1.05,.94-2.19,2.01-3.4,3.22-1.29,1.29-2.62,2.72-3.98,4.28-1.88,2.11-3.05,4.57-3.52,7.38-.62,3.36-1.05,6.37-1.29,9.02-.27,2.66-.43,5.62-.47,8.91l-13.01,3.11c-.31-4.49-.47-8.24-.47-11.25,0-7.15,.74-13.37,2.23-18.66,1.48-5.29,3.91-11.47,7.27-18.54l14.18-2.75c-2.54,6.37-4.51,12.52-5.92,18.46,10.51-12.23,18.55-18.34,24.14-18.34,2.03,0,3.68,.83,4.95,2.49,1.27,1.66,1.9,3.84,1.9,6.53,0,1.25-.2,3.55-.59,6.91,6.6-6.6,11.34-10.91,14.21-12.92,2.87-2.01,5.52-3.02,7.94-3.02,2.15,0,3.91,.86,5.28,2.58,1.37,1.72,2.05,3.91,2.05,6.56,0,4.18-1.15,9.55-3.45,16.12-2.3,6.56-3.45,10.9-3.45,13.01s.8,3.28,2.4,3.28c1.01,0,2.43-.67,4.24-2.02,1.81-1.35,4.98-4.44,9.51-9.29v6.74Z"/><path class="cls-5" d="M623.55,1668.56c2.81-3.4,5.46-5.91,7.96-7.53,2.5-1.62,5.27-2.43,8.31-2.43,3.94,0,7.15,1.51,9.63,4.54,2.48,3.03,3.72,7,3.72,11.92,0,8.63-2.98,16.55-8.94,23.76s-12.43,10.81-19.43,10.81c-1.95,0-3.5-.21-4.63-.64-1.13-.43-2.62-1.43-4.45-2.99-2.81,12.38-4.62,22.31-5.44,29.77l-14.88,2.64c2.77-18.28,6.31-36.8,10.61-55.55-5.16,6.76-8.63,10.92-10.43,12.48h-1.35v-5.27c7.42-8.01,13.54-17.73,18.34-29.18l13.25-2.4-2.27,10.08Zm-6.78,31.34c2.03,3.36,4.28,5.04,6.74,5.04,3.95,0,7.44-3,10.47-8.99,3.03-6,4.54-11.84,4.54-17.55,0-3.01-.62-5.44-1.84-7.29-1.23-1.85-2.82-2.78-4.77-2.78-1.52,0-3.12,.68-4.8,2.05-1.68,1.37-2.95,2.96-3.81,4.78-.86,1.82-1.83,4.99-2.93,9.52l-3.6,15.23Z"/><path class="cls-5" d="M700.93,1695.34c-4.96,4.88-9.41,8.49-13.36,10.81-3.95,2.32-8.3,3.49-13.07,3.49-5.31,0-9.6-1.7-12.86-5.1-3.26-3.4-4.89-7.87-4.89-13.42,0-8.28,2.87-15.77,8.61-22.47,5.74-6.7,12.11-10.05,19.1-10.05,3.63,0,6.54,.94,8.73,2.81,2.19,1.88,3.28,4.34,3.28,7.38,0,8.09-8.59,14.65-25.78,19.69,1.56,7.62,5.64,11.43,12.25,11.43,2.58,0,5.04-.69,7.38-2.08,2.34-1.39,5.88-4.46,10.61-9.23v6.74Zm-30.7-10.84c10-2.81,15-8.01,15-15.59,0-3.75-1.37-5.62-4.1-5.62-2.58,0-5.04,1.96-7.38,5.89s-3.52,9.03-3.52,15.32Z"/><path class="cls-5" d="M744.75,1695.34c-9.81,9.61-17.36,14.41-22.68,14.41-2.38,0-4.39-1.01-6.04-3.02s-2.46-4.5-2.46-7.47c0-5.51,2.95-12.89,8.85-22.15-2.89,1.49-6.06,2.52-9.49,3.11-2.54,4.69-6.52,9.73-11.95,15.12h-1.35v-5.27c3.05-3.16,5.8-6.56,8.26-10.2-3.36-1.48-5.04-3.69-5.04-6.62s1.03-6.22,3.08-9.64c2.05-3.42,4.87-5.13,8.47-5.13,3.05,0,4.57,1.56,4.57,4.69,0,2.46-.88,5.98-2.64,10.55,6.48-.7,12.15-5.66,16.99-14.88l5.33-.23-5.45,15c-2.27,6.33-3.73,10.63-4.39,12.92-.67,2.29-1,4.31-1,6.06,0,1.64,.38,2.95,1.14,3.93,.76,.98,1.79,1.46,3.08,1.46,1.41,0,2.75-.48,4.04-1.44,1.29-.96,4.18-3.6,8.67-7.94v6.74Z"/><path class="cls-5" d="M797.37,1695.34c-1.99,1.76-3.93,3-5.8,3.72-1.88,.72-3.36,1.08-4.45,1.08-2.81,0-5.61-1.09-8.38-3.28-5.62,8.52-12.07,12.77-19.34,12.77-4.53,0-8.2-1.7-11.02-5.1s-4.22-7.91-4.22-13.54c0-8.91,3.16-16.55,9.49-22.94s13.89-9.58,22.68-9.58c3.32,0,5.75,.36,7.29,1.08,1.54,.72,2.49,1.57,2.84,2.55,.35,.98,.53,2.21,.53,3.69,0,7.3-1.99,16.27-5.98,26.89,1.99,1.84,4.08,2.75,6.27,2.75,2.62,0,5.98-2.29,10.08-6.86v6.74Zm-19.34-32.75c-.59-.23-1.43-.35-2.52-.35-5.08,0-9.05,2.66-11.92,7.97-2.87,5.31-4.31,11.52-4.31,18.63,0,3.95,.62,7.01,1.88,9.2,1.25,2.19,2.99,3.28,5.21,3.28,2.77,0,5.78-2.56,9.02-7.68-3.67-4.61-5.51-9.57-5.51-14.88,0-6.25,2.71-11.64,8.14-16.17Z"/><path class="cls-5" d="M841.14,1695.34c-9.81,9.61-17.36,14.41-22.68,14.41-2.38,0-4.39-1.01-6.04-3.02s-2.46-4.5-2.46-7.47c0-5.51,2.95-12.89,8.85-22.15-2.89,1.49-6.06,2.52-9.49,3.11-2.54,4.69-6.52,9.73-11.95,15.12h-1.35v-5.27c3.05-3.16,5.8-6.56,8.26-10.2-3.36-1.48-5.04-3.69-5.04-6.62s1.03-6.22,3.08-9.64c2.05-3.42,4.87-5.13,8.47-5.13,3.05,0,4.57,1.56,4.57,4.69,0,2.46-.88,5.98-2.64,10.55,6.48-.7,12.15-5.66,16.99-14.88l5.33-.23-5.45,15c-2.27,6.33-3.73,10.63-4.39,12.92-.67,2.29-1,4.31-1,6.06,0,1.64,.38,2.95,1.14,3.93,.76,.98,1.79,1.46,3.08,1.46,1.41,0,2.75-.48,4.04-1.44,1.29-.96,4.18-3.6,8.67-7.94v6.74Z"/></g><g><path class="cls-1" d="M353.98,142.06c-5.24,5.58-10.05,8.37-14.42,8.37-2.42,0-4.33-.85-5.74-2.56-1.41-1.71-2.2-4.15-2.36-7.31-2.76,3.35-5.2,5.83-7.33,7.45s-4.4,2.43-6.82,2.43c-3.1,0-5.59-1.34-7.47-4.02-1.88-2.68-2.82-6.25-2.82-10.72,0-5.33,1.23-10.83,3.69-16.49,2.46-5.66,6.11-10.13,10.94-13.42,4.83-3.28,10.69-4.92,17.57-4.92,5.15,0,9.81,.7,13.98,2.08v2.26c-3.4,3.96-6.24,9.51-8.53,16.65-2.29,7.13-3.44,12.57-3.44,16.3,0,1.82,.37,3.24,1.11,4.24,.74,1,1.77,1.5,3.09,1.5,2.37,0,5.22-1.93,8.54-5.78v3.93Zm-9.95-36.85c-2.1-1.14-4.35-1.71-6.77-1.71-3.81,0-7.24,1.59-10.29,4.77-3.05,3.18-5.46,7.39-7.23,12.63-1.77,5.24-2.65,9.79-2.65,13.64,0,2.58,.5,4.67,1.49,6.27,.99,1.61,2.26,2.41,3.81,2.41,2.69,0,5.78-2.45,9.26-7.35,1.44-12.85,5.56-23.07,12.37-30.66Z"/><path class="cls-1" d="M379.51,142.03c-5.72,5.61-10.13,8.41-13.23,8.41-1.39,0-2.56-.59-3.52-1.76s-1.44-2.63-1.44-4.36c0-3.21,1.72-7.52,5.16-12.92-1.69,.87-3.53,1.47-5.54,1.81-1.48,2.73-3.81,5.67-6.97,8.82h-.79v-3.08c1.78-1.85,3.38-3.83,4.82-5.95-1.96-.87-2.94-2.15-2.94-3.86s.6-3.63,1.79-5.62c1.2-1.99,2.84-2.99,4.94-2.99,1.78,0,2.67,.91,2.67,2.73,0,1.44-.51,3.49-1.54,6.15,3.78-.41,7.09-3.3,9.91-8.68l3.11-.14-3.18,8.75c-1.32,3.69-2.18,6.2-2.56,7.54-.39,1.33-.58,2.51-.58,3.54,0,.96,.22,1.72,.67,2.29,.44,.57,1.04,.85,1.79,.85,.82,0,1.61-.28,2.36-.84,.75-.56,2.44-2.1,5.06-4.63v3.93Z"/><path class="cls-1" d="M405.08,142.03c-2.92,2.87-5.59,4.98-8.02,6.32-2.43,1.34-4.96,2.02-7.6,2.02-2.96,0-5.41-.96-7.33-2.89-1.93-1.93-2.89-4.37-2.89-7.33,0-4.85,1.77-9.34,5.31-13.45,3.54-4.11,7.38-6.17,11.5-6.17,2.03,0,3.68,.56,4.96,1.69,1.28,1.13,1.91,2.59,1.91,4.39,0,.64-.12,1.12-.36,1.44-.24,.32-.69,.64-1.35,.96l-3.96,1.88c-.48,.23-.83,.34-1.06,.34-.32,0-.48-.23-.48-.68,0-.18,.07-.78,.21-1.79,.14-1.01,.21-1.63,.21-1.86,0-1-.21-1.81-.63-2.43s-.99-.92-1.69-.92c-1.66,0-3.18,1.23-4.56,3.69-1.38,2.46-2.07,5.26-2.07,8.41,0,2.71,.65,4.88,1.95,6.49,1.3,1.62,3.03,2.43,5.2,2.43,1.85,0,3.58-.53,5.21-1.59s3.48-2.68,5.55-4.87v3.93Z"/><path class="cls-1" d="M441.58,142.03c-3.65,3.46-6.25,5.72-7.83,6.77s-3.08,1.57-4.51,1.57c-3.6,0-5.3-3.18-5.09-9.54-2.28,3.26-4.38,5.66-6.31,7.21s-3.91,2.32-5.96,2.32-3.71-.94-5.11-2.82c-1.4-1.88-2.1-4.19-2.1-6.92,0-3.42,.94-6.68,2.82-9.78,1.88-3.1,4.29-5.61,7.23-7.52s5.54-2.87,7.79-2.87c2.85,0,4.84,1.31,5.98,3.93l6.99-3.86h1.92l-3.01,10.02c-1.55,5.04-2.33,8.49-2.33,10.36s.69,2.94,2.08,2.94c.89,0,1.87-.47,2.94-1.42,1.07-.95,2.57-2.39,4.51-4.32v3.93Zm-25.02,1.88c2.28,0,4.43-1.94,6.44-5.83,2.02-3.88,3.02-7.47,3.02-10.75,0-1.28-.29-2.27-.85-2.99-.57-.72-1.33-1.08-2.29-1.08-2.28,0-4.44,1.94-6.48,5.81-2.04,3.87-3.06,7.44-3.06,10.7,0,1.23,.3,2.23,.91,2.99,.6,.76,1.37,1.15,2.31,1.15Z"/><path class="cls-1" d="M475.11,142.03c-5.26,5.56-9.78,8.34-13.54,8.34-1.53,0-2.76-.54-3.69-1.61-.93-1.07-1.4-2.51-1.4-4.31,0-2.44,1-6.16,3.01-11.18,1.07-2.69,1.61-4.4,1.61-5.13s-.29-1.09-.85-1.09c-.32,0-.74,.16-1.26,.48-.48,.32-1.04,.76-1.67,1.33-.57,.52-1.21,1.16-1.91,1.91-.62,.64-1.28,1.37-1.98,2.19l-1.91,2.22c-.84,1.03-1.37,2.11-1.57,3.25-.34,1.94-.57,3.71-.68,5.33-.07,1.21-.1,2.84-.1,4.89l-7.55,1.78c-.25-3.08-.38-5.37-.38-6.87,0-3.67,.43-7.14,1.28-10.42,.86-3.28,2.23-6.97,4.12-11.07l8.34-1.61c-1.75,4.72-2.91,8.43-3.45,11.14,3.73-4.17,6.7-7.06,8.89-8.66,2.19-1.61,4.15-2.41,5.85-2.41,1.16,0,2.13,.44,2.9,1.31,.77,.88,1.16,1.97,1.16,3.29,0,2.18-.98,5.78-2.94,10.8-1.34,3.44-2.02,5.68-2.02,6.7,0,1.37,.56,2.06,1.68,2.06,1.67,0,4.36-2.2,8.09-6.6v3.93Z"/><path class="cls-1" d="M500.64,142.03c-2.89,2.85-5.49,4.95-7.79,6.31-2.3,1.36-4.84,2.03-7.62,2.03-3.1,0-5.6-.99-7.5-2.97s-2.85-4.59-2.85-7.83c0-4.83,1.67-9.2,5.02-13.11,3.35-3.91,7.06-5.86,11.14-5.86,2.12,0,3.82,.55,5.09,1.64,1.28,1.09,1.91,2.53,1.91,4.31,0,4.72-5.01,8.54-15.04,11.48,.91,4.44,3.29,6.67,7.14,6.67,1.5,0,2.94-.4,4.31-1.21,1.37-.81,3.43-2.6,6.19-5.38v3.93Zm-17.91-6.32c5.83-1.64,8.75-4.67,8.75-9.09,0-2.19-.8-3.28-2.39-3.28-1.5,0-2.94,1.15-4.31,3.44s-2.05,5.27-2.05,8.94Z"/><path class="cls-1" d="M511.17,122c1.57-.41,3.16-.75,4.75-1.01,1.59-.26,2.55-.39,2.87-.39,.23,0,.34,.09,.34,.27,0,.34-.09,.69-.27,1.06-.37,1.05-.55,2.05-.55,3.01,0,1.18,.69,2.8,2.05,4.85s2.05,3.96,2.05,5.71c0,3.49-1.67,6.85-5.01,10.08-3.34,3.24-6.8,4.85-10.37,4.85-1.55,0-2.96-.41-4.24-1.23-1.28-.82-1.91-1.7-1.91-2.63,0-.55,.63-1.58,1.9-3.11,1.26-1.53,2.17-2.29,2.72-2.29,.73,0,1.38,.93,1.95,2.8,.57,1.87,1.55,2.8,2.94,2.8s2.69-.64,3.91-1.93,1.83-2.67,1.83-4.15c0-1.44-.77-3.35-2.32-5.74s-2.58-4.4-3.08-6.02c-2.64,4.26-5.99,8.62-10.05,13.09h-.79v-3.08c5.58-5.95,9.34-11.6,11.28-16.95Z"/><path class="cls-1" d="M596.89,142.03c-2.85,2.78-5.29,4.87-7.31,6.25-2.03,1.39-4,2.08-5.91,2.08-1.5,0-2.7-.52-3.57-1.56s-1.31-2.43-1.31-4.19c0-2.46,.62-5.58,1.85-9.37,1.23-3.78,1.85-6.08,1.85-6.9,0-.73-.38-1.09-1.13-1.09-.23,0-.5,.08-.82,.24-.34,.16-.73,.39-1.16,.68-.43,.32-.9,.71-1.4,1.16-.5,.46-1.03,.98-1.57,1.57-.59,.59-1.18,1.24-1.78,1.95-1,1.19-1.59,2.18-1.78,2.97l-1.14,4.89-2.07,8.07-8.66,1.57,3.32-14.08c.25-1.03,.55-2.53,.89-4.51s.51-3.17,.51-3.55c0-.77-.26-1.16-.79-1.16-.16,0-.39,.08-.68,.24-.34,.16-.73,.4-1.16,.72-.5,.36-1.04,.8-1.61,1.3-.62,.55-1.28,1.17-1.98,1.88-.75,.75-1.53,1.58-2.32,2.5-1.09,1.23-1.78,2.67-2.05,4.31-.37,1.96-.62,3.71-.75,5.26-.16,1.55-.25,3.28-.27,5.2l-7.59,1.81c-.18-2.62-.27-4.81-.27-6.56,0-4.17,.43-7.8,1.3-10.89,.87-3.09,2.28-6.69,4.24-10.82l8.27-1.61c-1.48,3.71-2.63,7.3-3.45,10.77,6.13-7.13,10.82-10.7,14.08-10.7,1.18,0,2.15,.48,2.89,1.45,.74,.97,1.11,2.24,1.11,3.81,0,.73-.11,2.07-.34,4.03,3.85-3.85,6.62-6.36,8.29-7.54,1.67-1.17,3.22-1.76,4.63-1.76,1.25,0,2.28,.5,3.08,1.5,.8,1,1.2,2.28,1.2,3.83,0,2.44-.67,5.57-2.01,9.4-1.34,3.83-2.01,6.36-2.01,7.59s.46,1.91,1.4,1.91c.59,0,1.42-.39,2.47-1.18,1.06-.79,2.9-2.59,5.54-5.42v3.93Z"/><path class="cls-1" d="M633.4,142.03c-3.65,3.46-6.26,5.72-7.83,6.77s-3.08,1.57-4.51,1.57c-3.6,0-5.3-3.18-5.09-9.54-2.28,3.26-4.38,5.66-6.31,7.21s-3.91,2.32-5.96,2.32-3.71-.94-5.11-2.82c-1.4-1.88-2.1-4.19-2.1-6.92,0-3.42,.94-6.68,2.82-9.78,1.88-3.1,4.29-5.61,7.23-7.52s5.54-2.87,7.79-2.87c2.85,0,4.84,1.31,5.98,3.93l6.99-3.86h1.92l-3.02,10.02c-1.55,5.04-2.33,8.49-2.33,10.36s.69,2.94,2.08,2.94c.89,0,1.87-.47,2.94-1.42,1.07-.95,2.57-2.39,4.51-4.32v3.93Zm-25.02,1.88c2.28,0,4.43-1.94,6.44-5.83,2.02-3.88,3.02-7.47,3.02-10.75,0-1.28-.29-2.27-.85-2.99-.57-.72-1.33-1.08-2.29-1.08-2.28,0-4.44,1.94-6.48,5.81-2.04,3.87-3.06,7.44-3.06,10.7,0,1.23,.3,2.23,.91,2.99,.6,.76,1.37,1.15,2.31,1.15Z"/><path class="cls-1" d="M658.93,142.03c-2.15,2.16-4.81,4.1-7.99,5.81-.83,6.22-2.41,11-4.75,14.32-2.34,3.33-4.72,4.99-7.16,4.99-1.53,0-2.83-.63-3.9-1.9s-1.61-2.82-1.61-4.67c0-4.47,3.01-8.23,9.02-11.28l2.53-20.58c-4.74,5.92-8.64,10.36-11.69,13.3h-.79v-3.08c3.03-2.89,7.11-7.68,12.24-14.36l2.12-2.73c2.39-.27,5.07-.72,8.03-1.33-1.01,5.42-2.19,13.43-3.55,24.03,2.1-1.05,4.57-3.18,7.41-6.39l.07,3.86Zm-16.6,10.42c-1.91,.89-3.41,2.09-4.51,3.61-1.1,1.52-1.65,3.07-1.65,4.67,0,1.03,.24,1.9,.72,2.62,.48,.72,1.04,1.08,1.67,1.08,1.57,0,2.6-2.01,3.08-6.02l.69-5.95Zm15.85-45.28c-.43,5.56-2.75,8.34-6.94,8.34-1.96,0-3.69-.66-5.2-1.98,1.98-2.53,3.15-4.72,3.52-6.56,1.82,1.12,3.34,1.67,4.55,1.67,1.37,0,2.72-.49,4.07-1.47Z"/><path class="cls-1" d="M684.49,142.03c-2.89,2.85-5.49,4.95-7.79,6.31s-4.84,2.03-7.62,2.03c-3.1,0-5.6-.99-7.5-2.97s-2.85-4.59-2.85-7.83c0-4.83,1.68-9.2,5.03-13.11,3.35-3.91,7.06-5.86,11.14-5.86,2.12,0,3.82,.55,5.09,1.64s1.91,2.53,1.91,4.31c0,4.72-5.01,8.54-15.04,11.48,.91,4.44,3.29,6.67,7.14,6.67,1.5,0,2.94-.4,4.31-1.21,1.37-.81,3.43-2.6,6.19-5.38v3.93Zm-17.91-6.32c5.83-1.64,8.75-4.67,8.75-9.09,0-2.19-.8-3.28-2.39-3.28-1.5,0-2.94,1.15-4.31,3.44s-2.05,5.27-2.05,8.94Z"/><path class="cls-1" d="M721,142.03c-3.01,2.85-5.53,4.95-7.55,6.31-2.03,1.36-3.85,2.03-5.47,2.03-1.8,0-3.19-.72-4.15-2.15s-1.45-3.38-1.45-5.84c-2.51,2.76-4.75,4.79-6.73,6.1s-3.92,1.97-5.81,1.97c-1.73,0-3.12-.72-4.17-2.15s-1.57-3.38-1.57-5.84c0-4.74,1.6-11.42,4.79-20.03l9.13-1.82c-3.75,10.92-5.63,17.93-5.64,21.03,0,2.19,.82,3.28,2.46,3.28,1.19,0,2.65-.96,4.41-2.89,1.75-1.93,2.85-3.61,3.28-5.04l4.48-14.56,9.3-1.88c-2.15,6.86-3.62,11.68-4.42,14.46-.8,2.78-1.2,4.73-1.2,5.85,0,2.14,.73,3.21,2.19,3.21,1.19,0,2.94-1.08,5.27-3.25l2.87-2.7v3.93Z"/><path class="cls-1" d="M746.53,142.03c-5.72,5.61-10.13,8.41-13.23,8.41-1.39,0-2.56-.59-3.52-1.76s-1.44-2.63-1.44-4.36c0-3.21,1.72-7.52,5.16-12.92-1.69,.87-3.53,1.47-5.54,1.81-1.48,2.73-3.8,5.67-6.97,8.82h-.79v-3.08c1.78-1.85,3.38-3.83,4.82-5.95-1.96-.87-2.94-2.15-2.94-3.86s.6-3.63,1.79-5.62c1.2-1.99,2.84-2.99,4.94-2.99,1.78,0,2.67,.91,2.67,2.73,0,1.44-.51,3.49-1.54,6.15,3.78-.41,7.09-3.3,9.91-8.68l3.11-.14-3.18,8.75c-1.32,3.69-2.18,6.2-2.56,7.54-.39,1.33-.58,2.51-.58,3.54,0,.96,.22,1.72,.67,2.29,.44,.57,1.04,.85,1.79,.85,.82,0,1.61-.28,2.36-.84,.75-.56,2.44-2.1,5.06-4.63v3.93Z"/><path class="cls-1" d="M757.06,122c1.57-.41,3.15-.75,4.75-1.01,1.6-.26,2.55-.39,2.87-.39,.23,0,.34,.09,.34,.27,0,.34-.09,.69-.27,1.06-.37,1.05-.55,2.05-.55,3.01,0,1.18,.69,2.8,2.05,4.85s2.05,3.96,2.05,5.71c0,3.49-1.67,6.85-5.01,10.08-3.34,3.24-6.8,4.85-10.38,4.85-1.55,0-2.96-.41-4.24-1.23s-1.91-1.7-1.91-2.63c0-.55,.63-1.58,1.9-3.11,1.26-1.53,2.17-2.29,2.72-2.29,.73,0,1.38,.93,1.95,2.8,.57,1.87,1.55,2.8,2.94,2.8s2.7-.64,3.91-1.93,1.83-2.67,1.83-4.15c0-1.44-.77-3.35-2.32-5.74-1.55-2.39-2.58-4.4-3.08-6.02-2.64,4.26-5.99,8.62-10.05,13.09h-.79v-3.08c5.58-5.95,9.34-11.6,11.28-16.95Z"/></g></g></g><g id="_황제"><g><path class="cls-5" d="M400.5,614.5c6.54,3.32,16.36,9.19,26,19,9.14,9.3,21.95,22.33,23,42,.82,15.26,.1,25.86-1.5,29.5-7.34,16.67-19.05,25.21-27,27-11.43,2.57-26.72,4.83-38.5,1.5-13.56-3.83-22.16-17.15-24-20-5.97-9.25-6.08-16.03-13-19-4.82-2.07-9.79-.95-14,0-7.6,1.71-12.6,5.55-17,9-7.82,6.14-12.72,9.98-15,17-3.5,10.8,1.85,20.94,4,25,4.67,8.84,11.45,13.77,15,16-5.12,.54-13.06,.71-22-2-21.66-6.57-32.35-24.99-37-33-3.73-6.43-14.25-25.17-11-50,3.32-25.39,18.92-40.95,26-48,25.79-25.71,57.86-28.53,66-29,29.52-1.7,51.44,9.86,60,15Z"/><path class="cls-3" d="M436.5,620.5c1.52,9.88,7.58,32.72-.5,54.5-3.63,9.79-7.74,24.25-24,36-24.72,17.87-60.79,9.87-66.5,8.5"/><path class="cls-3" d="M383,600c14,11,21.27,24.3,22,33,1.13,13.5-.36,22.41-3,30-3.24,9.33-9,20-23,31-7.86,6.18-22,12-30,11"/><path class="cls-3" d="M338.42,595.64c5.11,3.48,14,10.58,20.61,22.63,6.94,12.66,7.67,24.07,7.8,26.61,.3,6.13-.12,16.85-5.68,28.46-6.85,14.28-17.61,21.82-22.29,24.72"/><path class="cls-3" d="M267,631c4.11-1.56,11.2-3.64,20-3,17.95,1.3,29.17,12.88,32,16,9.14,10.1,11.28,21.13,13,30,2.57,13.22,1.28,24.31,0,31"/><path class="cls-3" d="M235.53,693.31c4.35-3.78,11.44-9.04,21.12-12.54,9.02-3.26,24.27-8.76,39.26-.22,19.79,11.27,24.58,38.71,25.11,41.99"/><path class="cls-3" d="M276,754c-4.39-6.5-4.74-14.59-1-20,5.12-7.4,17.7-9.44,27-2"/></g><g><path class="cls-5" d="M686.5,614.5c-6.54,3.32-16.36,9.19-26,19-9.14,9.3-21.95,22.33-23,42-.82,15.26-.1,25.86,1.5,29.5,7.34,16.67,19.05,25.21,27,27,11.43,2.57,26.72,4.83,38.5,1.5,13.56-3.83,22.16-17.15,24-20,5.97-9.25,6.08-16.03,13-19,4.82-2.07,9.79-.95,14,0,7.6,1.71,12.6,5.55,17,9,7.82,6.14,12.72,9.98,15,17,3.5,10.8-1.85,20.94-4,25-4.67,8.84-11.45,13.77-15,16,5.12,.54,13.06,.71,22-2,21.66-6.57,32.35-24.99,37-33,3.73-6.43,14.25-25.17,11-50-3.32-25.39-18.92-40.95-26-48-25.79-25.71-57.86-28.53-66-29-29.52-1.7-51.44,9.86-60,15Z"/><path class="cls-3" d="M650.5,620.5c-1.52,9.88-7.58,32.72,.5,54.5,3.63,9.79,7.74,24.25,24,36,24.72,17.87,60.79,9.87,66.5,8.5"/><path class="cls-3" d="M704,600c-14,11-21.27,24.3-22,33-1.13,13.5,.36,22.41,3,30,3.24,9.33,9,20,23,31,7.86,6.18,22,12,30,11"/><path class="cls-3" d="M748.58,595.64c-5.11,3.48-14,10.58-20.61,22.63-6.94,12.66-7.67,24.07-7.8,26.61-.3,6.13,.12,16.85,5.68,28.46,6.85,14.28,17.61,21.82,22.29,24.72"/><path class="cls-3" d="M820,631c-4.11-1.56-11.2-3.64-20-3-17.95,1.3-29.17,12.88-32,16-9.14,10.1-11.28,21.13-13,30-2.57,13.22-1.28,24.31,0,31"/><path class="cls-3" d="M851.47,693.31c-4.35-3.78-11.44-9.04-21.12-12.54-9.02-3.26-24.27-8.76-39.26-.22-19.79,11.27-24.58,38.71-25.11,41.99"/><path class="cls-3" d="M811,754c4.39-6.5,4.74-14.59,1-20-5.12-7.4-17.7-9.44-27-2"/></g><path class="cls-4" d="M434,1144c11.29,9.18,31.09,22.92,59,31,26.46,7.66,47.85,6.67,60,6,41.9-2.31,74.76-17.27,95-29,28.33,12.33,56.67,24.67,85,37h-71c5.33,10.33,10.67,20.67,16,31-11.67-4.67-23.33-9.33-35-14,9,32.67,18,65.33,27,98-18-29.67-36-59.33-54-89l-6,39c-10.33-8.67-20.67-17.33-31-26-12.67,51-25.33,102-38,153-9.33-49-18.67-98-28-147-5,8.67-10,17.33-15,26-2-12.33-4-24.67-6-37-18.67,17.33-37.33,34.67-56,52,4.67-17.67,9.33-35.33,14-53h-40c5.67-10,11.33-20,17-30-24.67-3-49.33-6-74-9l81-39Z"/><circle class="cls-2" cx="548.5" cy="705.5" r="43"/><line class="cls-2" x1="548.5" y1="748.5" x2="548.5" y2="838.5"/><line class="cls-2" x1="504.5" y1="797.5" x2="592.5" y2="797.5"/><path class="cls-8" d="M839,986c2.89-16.12,8.05-28.78,12-37-4.98,2.08-21.44,9.71-30,28-3.83,8.17-4.81,15.78-5,21-.41-.8-4.29-8.09-12-9-2.99-.35-5.48,.38-7,1,2.4,3.23,5.62,8.26,8,15,1.63,4.61,3.29,9.32,3,15-.48,9.26-5.69,12.18-10,23-1.77,4.46-3.85,11.42-4,21-4.33-3.67-8.67-7.33-13-11-4,1.67-8,3.33-12,5-4.11-3.97-9.39-9.88-14-18-4.39-7.74-14.61-25.75-8-42,1.02-2.52,3.79-9.31,11-13,5.83-2.99,11.55-2.4,14-2-.35-1.42-3.84-14.49-16-19-5.39-2-10.29-1.51-13-1-.7-7.28-1.36-14.61-2-22-.35-4.01-.68-8.01-1-12-3.45,1.57-8.87,4.55-14,10-6.07,6.44-8.78,13.2-10,17-2.79-.44-7-.79-12,0-4.41,.7-7.91,1.25-11,4-4.12,3.68-4.84,8.91-5,11,8.16,.35,15.48,4.93,19,12,.4,.8,4.67,9.75,0,19-.59,1.16-3.91,7.69-11,10-7.77,2.53-15.08-1.85-22-6-4.48-2.68-11.61-7.81-18-17-2.95,2.88-8.25,7.29-16,10-10.36,3.63-19.18,2.15-26,1-8.8-1.48-17.55-2.95-25-10-7.79-7.37-11.72-18.54-11-19,.14-.09,.48,.21,.67,.38,3.47,2.99,11.12,4.51,17.33,3.62,3.63-.52,8.33-1.19,11-5,2.69-3.84,1.71-8.57,1-12-1.29-6.25-4.72-10.61-7-13,1.68-3.2,3.35-6.53,5-10,2.62-5.51,4.94-10.85,7-16-6.12,7.87-15.68,11.42-24,9-.89-.26-8.35-2.56-12-10-4.62-9.42,.83-18.96,2-21,3.96-6.93,10.15-10.06,14-12,5.13-2.59,9.84-3.58,13-4-6.08-2.04-16.21-4.38-28-2-3.16,.64-6,1.52-8.5,2.5-3.67-5.67-12.83-13.83-16.5-19.5-3.67,5.67-12.83,13.83-16.5,19.5-2.5-.98-5.34-1.86-8.5-2.5-11.79-2.38-21.92-.04-28,2,3.16,.42,7.87,1.41,13,4,3.85,1.94,10.04,5.07,14,12,1.17,2.04,6.62,11.58,2,21-3.65,7.44-11.11,9.74-12,10-8.32,2.42-17.88-1.13-24-9,2.06,5.15,4.38,10.49,7,16,1.65,3.47,3.32,6.8,5,10-2.28,2.39-5.71,6.75-7,13-.71,3.43-1.69,8.16,1,12,2.67,3.81,7.37,4.48,11,5,6.21,.89,13.85-.63,17.33-3.62,.19-.17,.53-.47,.67-.38,.72,.46-3.21,11.63-11,19-7.45,7.05-16.2,8.52-25,10-6.82,1.15-15.64,2.63-26-1-7.75-2.71-13.05-7.12-16-10-6.39,9.19-13.52,14.32-18,17-6.92,4.15-14.23,8.53-22,6-7.09-2.31-10.41-8.84-11-10-4.67-9.25-.4-18.2,0-19,3.52-7.07,10.84-11.65,19-12-.16-2.09-.88-7.32-5-11-3.09-2.75-6.59-3.3-11-4-5-.79-9.21-.44-12,0-1.22-3.8-3.93-10.56-10-17-5.13-5.45-10.55-8.43-14-10-.32,3.99-.65,7.99-1,12-.64,7.39-1.3,14.72-2,22-2.71-.51-7.61-1-13,1-12.16,4.51-15.65,17.58-16,19,2.45-.4,8.17-.99,14,2,7.21,3.69,9.98,10.48,11,13,6.61,16.25-3.61,34.26-8,42-4.61,8.12-9.89,14.03-14,18-4-1.67-8-3.33-12-5-4.33,3.67-8.67,7.33-13,11-.15-9.58-2.23-16.54-4-21-4.31-10.82-9.52-13.74-10-23-.29-5.68,1.37-10.39,3-15,2.38-6.74,5.6-11.77,8-15-1.52-.62-4.01-1.35-7-1-7.71,.91-11.59,8.2-12,9-.19-5.22-1.17-12.83-5-21-8.56-18.29-25.02-25.92-30-28,3.95,8.22,9.11,20.88,12,37,1.05,5.83,1.72,11.71,2,50,.15,19.96,.22,29.95,0,42-.31,17.14-1,33.82-2,50,31.31-1.36,57.34-2.34,76-3,87.6-3.11,113.29-2.81,135-2,26.34,.98,65.68,.74,79,2,13.32-1.26,44.66-1.02,71-2,21.71-.81,47.4-1.11,135,2,18.66,.66,44.69,1.64,76,3-1-16.18-1.69-32.86-2-50-.22-12.05-.15-22.04,0-42,.28-38.29,.95-44.17,2-50Zm-286.5-57c6.9,0,12.5,5.6,12.5,12.5s-5.6,12.5-12.5,12.5-12.5-5.6-12.5-12.5,5.6-12.5,12.5-12.5Zm36.3,153.8l-26.11-12.41-9.69,27.24-9.69-27.24-26.11,12.41,12.41-26.11-27.24-9.69,27.24-9.69-12.41-26.11,26.11,12.41,9.69-27.24,9.69,27.24,26.11-12.41-12.41,26.11,27.24,9.69-27.24,9.69,12.41,26.11Z"/></g><g id="_반짝이"><polygon class="cls-7" points="258.57 1221.33 273.08 1277.62 319.79 1289.18 273.08 1301.87 258.57 1359.2 243.29 1301.87 197.35 1289.18 243.29 1277.62 258.57 1221.33"/><polygon class="cls-8" points="888.09 1055.01 896.61 1088.08 924.05 1094.87 896.61 1102.32 888.09 1136 879.11 1102.32 852.13 1094.87 879.11 1088.08 888.09 1055.01"/><circle class="cls-8" cx="209.66" cy="830.72" r="14.88"/><circle class="cls-8" cx="206" cy="1203" r="11"/><circle class="cls-7" cx="864" cy="844" r="19"/><circle class="cls-7" cx="848.5" cy="1176.5" r="11.5"/><circle class="cls-8" cx="892.5" cy="886.5" r="5.5"/></g></svg>