<?xml version="1.0" encoding="UTF-8"?><svg xmlns="http://www.w3.org/2000/svg" viewBox="0 0 1080 1944"><defs><style>.cls-1{fill:#fff;}.cls-2{fill:none;stroke:#4c5fa9;stroke-linecap:round;stroke-miterlimit:10;stroke-width:8px;}.cls-3{fill:#f6ef84;}.cls-4{fill:#3f3730;}.cls-5{fill:#4c5fa9;}.cls-6{fill:#bad6eb;}.cls-7{fill:#c8c0de;}.cls-8{fill:#b1d4f0;}</style></defs><g id="_배경_텍스트"><g><rect class="cls-6" width="1080" height="1944"/><rect class="cls-1" x="74.84" y="186.39" width="930.33" height="1606.64" rx="65.21" ry="65.21"/><g><path class="cls-4" d="M305.5,1613.61c-2.34,2.11-4.04,4.58-5.11,7.39-1.06,2.81-2.16,8.67-3.29,17.56-1.13,8.9-2.93,15.9-5.42,21.02s-6.41,9.39-11.77,12.81c-5.36,3.42-11.24,5.13-17.65,5.13-4.55,0-8.25-1.13-11.1-3.38s-4.27-5.14-4.27-8.65c0-1.32,.41-2.41,1.24-3.25,.82-.84,2.51-1.98,5.05-3.41,2.54-1.43,4.26-2.15,5.16-2.15,.61,0,1.13,.21,1.56,.62,.43,.41,.64,.9,.64,1.48,0,.36-.17,1.68-.51,3.97-.34,2.29-.51,3.65-.51,4.08,0,4.26,1.79,6.39,5.37,6.39,4.05,0,7.45-2.37,10.21-7.12,2.76-4.75,4.75-12.16,5.99-22.24,1.24-10.08,3.11-17.2,5.61-21.35,2.51-4.15,5.43-7.1,8.78-8.83,3.35-1.74,5.67-2.61,6.96-2.61,.89,0,1.92,.84,3.06,2.52Zm-10.1-13.96c7.55,0,13.57,1.83,18.05,5.5,4.48,3.67,6.71,8.57,6.71,14.69,0,5.66-1.66,10.2-4.97,13.62-3.31,3.42-6.17,5.13-8.57,5.13-.9,0-1.91-.39-3.03-1.18-1.13-.79-1.69-1.5-1.69-2.15,0-.36,.84-1.65,2.52-3.87,3.94-4.87,5.91-9.7,5.91-14.5,0-4.05-1.36-7.26-4.08-9.64-2.72-2.38-6.41-3.57-11.06-3.57-7.02,0-13.37,2.14-19.07,6.42-5.69,4.28-8.54,8.96-8.54,14.05,0,3.37,1.54,5.68,4.62,6.93,1.22,.54,1.83,1.27,1.83,2.2s-1.34,2.09-4.03,3.38-4.57,1.93-5.64,1.93c-1.61,0-3.13-1.07-4.57-3.2-1.43-2.13-2.15-4.45-2.15-6.96,0-6.73,3.62-13.21,10.85-19.44,7.23-6.23,16.2-9.35,26.91-9.35Z"/><path class="cls-4" d="M370.27,1664.42c-5.73,5.44-9.83,8.99-12.3,10.63s-4.83,2.47-7.09,2.47c-5.66,0-8.33-5-8-14.99-3.58,5.12-6.88,8.9-9.91,11.33-3.03,2.43-6.15,3.65-9.37,3.65s-5.83-1.48-8.03-4.43c-2.2-2.96-3.3-6.58-3.3-10.88,0-5.37,1.48-10.49,4.43-15.36,2.95-4.87,6.74-8.81,11.36-11.82s8.7-4.51,12.25-4.51c4.48,0,7.61,2.06,9.4,6.18l10.98-6.07h3.01l-4.74,15.74c-2.44,7.91-3.66,13.34-3.66,16.28s1.09,4.62,3.27,4.62c1.4,0,2.93-.74,4.62-2.23,1.68-1.49,4.04-3.75,7.09-6.79v6.18Zm-39.32,2.95c3.58,0,6.96-3.05,10.12-9.16,3.17-6.1,4.75-11.74,4.75-16.89,0-2-.45-3.57-1.34-4.7-.9-1.13-2.09-1.69-3.6-1.69-3.58,0-6.97,3.04-10.18,9.13-3.2,6.09-4.81,11.69-4.81,16.81,0,1.93,.47,3.5,1.42,4.7,.95,1.2,2.16,1.8,3.62,1.8Z"/><path class="cls-4" d="M422.96,1664.42c-4.54,4.76-9.99,8.27-16.32,10.52-2.97,9.27-6.74,16.42-11.31,21.43-4.57,5.01-9.41,7.52-14.53,7.52-2.79,0-5.05-.88-6.77-2.63-1.72-1.75-2.58-4.06-2.58-6.93,0-3.83,1.71-7.27,5.13-10.31,3.42-3.04,9.23-5.98,17.43-8.81l2.31-10.58c-3.44,3.87-6.41,6.71-8.92,8.51-2.51,1.81-5.03,2.71-7.57,2.71-2.97,0-5.41-1.4-7.3-4.19-1.9-2.79-2.85-6.43-2.85-10.9,0-7.3,2.78-14.15,8.35-20.54,5.57-6.39,11.48-9.59,17.75-9.59,3.47,0,6.55,1.47,9.24,4.4,1.61-.57,3.7-1.43,6.28-2.58l3.81-1.72h1.24c-1.39,4.23-2.46,8.34-3.22,12.35l-5.04,26.91c4.83-1.83,9.79-5.75,14.87-11.76v6.18Zm-30.08,15.52c-11.57,4.15-17.35,8.95-17.35,14.39,0,1.61,.48,2.93,1.45,3.95,.97,1.02,2.2,1.53,3.71,1.53,2.58,0,4.82-1.63,6.71-4.89,1.9-3.26,3.72-8.25,5.48-14.99Zm-4.51-13.75c2.54,0,4.8-1.5,6.77-4.51,1.97-3.01,3.5-6.82,4.59-11.44,1.09-4.62,1.64-7.82,1.64-9.61,0-1.68-.42-3.07-1.26-4.16-.84-1.09-1.89-1.64-3.14-1.64-3.8,0-7.11,2.56-9.94,7.68-2.83,5.12-4.24,10.33-4.24,15.63,0,2.47,.51,4.43,1.53,5.88,1.02,1.45,2.37,2.18,4.05,2.18Z"/><path class="cls-4" d="M463.09,1664.42c-4.55,4.48-8.63,7.78-12.25,9.91-3.62,2.13-7.61,3.2-11.98,3.2-4.87,0-8.8-1.56-11.79-4.67-2.99-3.12-4.48-7.21-4.48-12.3,0-7.59,2.63-14.46,7.9-20.6,5.26-6.14,11.1-9.21,17.51-9.21,3.33,0,6,.86,8,2.58,2,1.72,3.01,3.97,3.01,6.77,0,7.41-7.88,13.43-23.63,18.05,1.43,6.98,5.17,10.47,11.23,10.47,2.36,0,4.62-.64,6.77-1.91,2.15-1.27,5.39-4.09,9.72-8.46v6.18Zm-28.14-9.94c9.17-2.58,13.75-7.34,13.75-14.29,0-3.44-1.25-5.16-3.76-5.16-2.36,0-4.62,1.8-6.77,5.4-2.15,3.6-3.22,8.28-3.22,14.04Z"/><path class="cls-4" d="M538.82,1664.42c-1.83,1.61-3.6,2.75-5.32,3.41-1.72,.66-3.08,.99-4.08,.99-2.58,0-5.14-1-7.68-3.01-5.16,7.81-11.06,11.71-17.72,11.71-4.15,0-7.52-1.56-10.1-4.67s-3.87-7.25-3.87-12.41c0-8.16,2.9-15.17,8.7-21.03,5.8-5.85,12.73-8.78,20.79-8.78,3.04,0,5.27,.33,6.69,.99,1.42,.66,2.28,1.44,2.61,2.34,.32,.9,.48,2.02,.48,3.38,0,6.7-1.83,14.91-5.48,24.65,1.83,1.68,3.74,2.52,5.75,2.52,2.4,0,5.48-2.09,9.24-6.28v6.18Zm-17.72-30.02c-.54-.21-1.31-.32-2.31-.32-4.66,0-8.3,2.44-10.93,7.3-2.63,4.87-3.95,10.56-3.95,17.08,0,3.62,.57,6.43,1.72,8.43,1.15,2.01,2.74,3.01,4.78,3.01,2.54,0,5.3-2.34,8.27-7.04-3.37-4.22-5.05-8.77-5.05-13.64,0-5.73,2.49-10.67,7.47-14.82Z"/><path class="cls-4" d="M582.38,1664.42c-3.72,4.19-7.4,7.42-11.05,9.69-3.65,2.27-6.9,3.41-9.76,3.41-1.36,0-3.22-.52-5.58-1.55-1.51,7.88-2.84,16.38-3.99,25.5-3.73,.5-8.21,1.27-13.44,2.31,1.15-9.81,3.13-22.54,5.96-38.19-.39-.68-1.09-2.4-2.09-5.16l-3.6,3.97h-1.24v-4.83l10.24-10.62c1.95-9.61,3.53-16.56,4.75-20.86,1.22-4.3,2.92-9.05,5.1-14.26,2.18-5.21,3.56-8.2,4.14-8.97,.57-.77,1.96-1.5,4.16-2.2,2.2-.7,4.56-1.36,7.06-1.99,2.51-.63,3.85-.94,4.03-.94,1.36,0,2.47,.89,3.33,2.66s1.29,4.1,1.29,7c0,5.01-1.32,9.84-3.97,14.49s-7.64,10.37-15,17.17l-4.51,22.45c1.75,3.75,4.38,5.63,7.88,5.63,5,0,10.44-3.63,16.3-10.9v6.18Zm-18.04-30.61c4.19-3.65,7.47-7.58,9.85-11.79s3.57-8.08,3.57-11.63c0-1.5-.28-2.74-.83-3.71-.55-.97-1.24-1.45-2.06-1.45-1.57,0-3.17,2.06-4.79,6.18-1.62,4.12-3.54,11.58-5.74,22.4Z"/><path class="cls-4" d="M671.81,1664.47c-8.49,8.77-18.73,13.16-30.72,13.16-8.59,0-15.64-2.69-21.13-8.08-5.5-5.39-8.25-12.31-8.25-20.76s1.99-16.42,5.96-24.01c3.97-7.59,9.18-13.66,15.6-18.21,6.43-4.55,12.74-6.82,18.93-6.82,5.19,0,9.43,1.56,12.7,4.67,3.28,3.12,4.92,7.16,4.92,12.14,0,6.48-1.98,12.09-5.93,16.84-3.96,4.75-8.59,7.12-13.88,7.12-2.79,0-5.08-.72-6.88-2.15-1.79-1.43-2.69-3.28-2.69-5.53,0-1.93,.77-3.72,2.31-5.37,1.15,2.11,2.72,3.17,4.73,3.17,2.86,0,5.52-1.79,7.98-5.37,2.45-3.58,3.68-7.5,3.68-11.76,0-2.97-.69-5.33-2.07-7.09-1.38-1.75-3.21-2.63-5.5-2.63-3.33,0-6.88,2.08-10.66,6.23-3.78,4.15-6.93,9.49-9.45,16.01-2.53,6.52-3.79,12.71-3.79,18.58,0,7.48,2.12,13.62,6.37,18.42,4.24,4.8,9.64,7.2,16.19,7.2,4.15,0,7.9-.96,11.23-2.89,3.33-1.93,6.79-4.94,10.37-9.04v6.18Z"/><path class="cls-4" d="M729.12,1664.42c-4.73,4.48-8.68,7.78-11.87,9.91-3.19,2.13-6.05,3.2-8.59,3.2-2.83,0-5-1.13-6.53-3.38-1.52-2.26-2.28-5.32-2.28-9.18-3.94,4.33-7.47,7.53-10.58,9.59-3.12,2.06-6.16,3.09-9.13,3.09-2.72,0-4.91-1.13-6.55-3.38-1.65-2.26-2.47-5.32-2.47-9.18,0-7.45,2.51-17.94,7.52-31.47l14.35-2.86c-5.9,17.17-8.85,28.18-8.87,33.05,0,3.44,1.29,5.15,3.87,5.15,1.86,0,4.17-1.51,6.93-4.54,2.76-3.03,4.48-5.67,5.16-7.92l7.04-22.88,14.62-2.96c-3.38,10.78-5.69,18.35-6.95,22.72s-1.88,7.43-1.88,9.18c0,3.37,1.15,5.05,3.44,5.05,1.86,0,4.62-1.7,8.28-5.1l4.51-4.24v6.18Z"/><path class="cls-4" d="M754.76,1639.87c2.58-3.12,5.01-5.42,7.3-6.91,2.29-1.49,4.83-2.23,7.62-2.23,3.61,0,6.56,1.39,8.83,4.16,2.27,2.78,3.41,6.42,3.41,10.93,0,7.91-2.73,15.17-8.19,21.78-5.46,6.61-11.4,9.91-17.81,9.91-1.79,0-3.21-.2-4.24-.59-1.04-.4-2.4-1.31-4.08-2.74-2.58,11.35-4.24,20.45-4.99,27.29l-13.64,2.42c2.54-16.76,5.78-33.73,9.72-50.92-4.73,6.2-7.91,10.01-9.56,11.44h-1.24v-4.83c6.8-7.34,12.41-16.26,16.81-26.75l12.14-2.2-2.08,9.24Zm-6.21,28.73c1.86,3.08,3.92,4.62,6.18,4.62,3.62,0,6.82-2.75,9.59-8.25,2.78-5.5,4.17-10.86,4.17-16.09,0-2.76-.56-4.99-1.69-6.69-1.13-1.7-2.59-2.55-4.38-2.55-1.4,0-2.86,.63-4.4,1.88s-2.7,2.71-3.49,4.38-1.68,4.58-2.68,8.73l-3.3,13.96Z"/><path class="cls-4" d="M807.53,1632.94c2.47-.64,4.96-1.17,7.47-1.58,2.51-.41,4.01-.62,4.51-.62,.36,0,.54,.14,.54,.43,0,.54-.14,1.09-.43,1.66-.57,1.65-.86,3.22-.86,4.72,0,1.86,1.08,4.4,3.23,7.63,2.15,3.22,3.22,6.22,3.22,8.97,0,5.48-2.62,10.76-7.87,15.84-5.25,5.08-10.68,7.63-16.3,7.63-2.44,0-4.66-.64-6.66-1.93-2.01-1.29-3.01-2.67-3.01-4.14,0-.86,.99-2.49,2.98-4.89,1.99-2.4,3.41-3.6,4.27-3.6,1.15,0,2.17,1.47,3.06,4.4,.89,2.94,2.43,4.4,4.62,4.4s4.23-1.01,6.15-3.04c1.92-2.02,2.87-4.2,2.87-6.53,0-2.26-1.21-5.26-3.65-9.02-2.44-3.76-4.05-6.91-4.84-9.45-4.15,6.7-9.42,13.55-15.79,20.57h-1.24v-4.83c8.77-9.35,14.68-18.23,17.72-26.64Z"/></g><g><path class="cls-1" d="M410.88,142.03c-5.1,5.49-9.75,8.24-13.95,8.24-2.55,0-4.5-1.23-5.83-3.69-1.33-2.46-2-5.75-2-9.88,0-3.19,.65-7.58,1.96-13.16,1.31-5.58,3-10.28,5.08-14.08l1.98-3.55c-2.71,2.83-4.93,5.92-6.67,9.28-1.73,3.36-3.8,8.06-6.2,14.1-2.4,6.04-4.22,10.15-5.45,12.34s-2.41,3.97-3.54,5.35c-1.13,1.38-2.13,2.27-3.01,2.68-.88,.41-2.41,.62-4.6,.62-.84,0-1.26-.23-1.26-.68,0-.05,.15-.76,.45-2.15,.3-1.39,.61-3.62,.92-6.68,.31-3.06,.54-8.27,.68-15.62s1.21-13.64,3.21-18.88c-2.14,2.44-4.33,8.11-6.57,17.02l-.86,3.35c-2.35,9.27-5.04,15.53-8.08,18.78-3.03,3.25-6.01,4.87-8.93,4.87-1.8,0-3.39-.57-4.76-1.71s-2.05-2.45-2.05-3.93c0-1.14,.82-2.42,2.46-3.83,1.64-1.41,2.68-2.12,3.11-2.12,.5,0,.83,.17,.99,.51,.16,.34,.37,1.28,.62,2.82s.63,2.54,1.15,3.01c.51,.47,1.16,.7,1.94,.7,1.76,0,3.7-1.76,5.83-5.28s4.07-8.96,5.83-16.32l.99-4.14c.8-3.37,1.59-6.06,2.37-8.07,.78-2,1.8-4.01,3.08-6.02,1.85-2.87,2.99-4.4,3.41-4.6,.42-.19,1.21-.35,2.38-.48,1.16-.12,2.32-.19,3.49-.19,.46,0,.68,.26,.68,.79,0,.25-.07,.76-.21,1.54-.45,3.19-.66,6.39-.64,9.6l.07,9.16c.04,7.98-.59,14.41-1.91,19.31,1.21-1.46,2.96-5.22,5.26-11.28,3.33-8.59,6.36-15.04,9.09-19.35,1.3-2.07,2.87-4.06,4.7-5.96,1.83-1.9,3.1-2.92,3.81-3.06,2.42-.46,4.45-.68,6.12-.68,.62,0,.92,.17,.92,.51,0,.48-.38,1.55-1.12,3.21-1.77,4.01-3.43,9.44-4.96,16.27s-2.31,12.28-2.32,16.33c0,4.58,1.4,6.87,4.2,6.87,2.28,0,4.99-1.94,8.13-5.81v3.93Z"/><path class="cls-1" d="M427.66,142.03c-5.33,5.61-9.32,8.41-11.96,8.41-1.46,0-2.69-.75-3.69-2.24-1-1.49-1.5-3.37-1.5-5.62,0-4.85,1.64-11.58,4.92-20.17l8.68-1.81h.41l-3.42,10.7c-1.41,4.42-2.12,7.58-2.12,9.47,0,.75,.17,1.36,.5,1.83,.33,.47,.75,.7,1.25,.7,.89,0,1.78-.32,2.68-.97s2.32-2.06,4.26-4.22v3.93Zm-.68-34.79c0,5.47-2.02,8.2-6.05,8.2-1.96,0-3.63-.59-5.02-1.78,1.32-2,2.35-4.26,3.08-6.77,1.8,1.12,3.25,1.67,4.34,1.67,1.23,0,2.45-.44,3.66-1.33Z"/><path class="cls-1" d="M461.22,142.03c-5.26,5.56-9.78,8.34-13.54,8.34-1.53,0-2.76-.54-3.69-1.61-.93-1.07-1.4-2.51-1.4-4.31,0-2.44,1-6.16,3.01-11.18,1.07-2.69,1.61-4.4,1.61-5.13s-.29-1.09-.85-1.09c-.32,0-.74,.16-1.26,.48-.48,.32-1.04,.76-1.67,1.33-.57,.52-1.21,1.16-1.91,1.91-.62,.64-1.28,1.37-1.98,2.19l-1.91,2.22c-.84,1.03-1.37,2.11-1.57,3.25-.34,1.94-.57,3.71-.68,5.33-.07,1.21-.1,2.84-.1,4.89l-7.55,1.78c-.25-3.08-.38-5.37-.38-6.87,0-3.67,.43-7.14,1.28-10.42,.86-3.28,2.23-6.97,4.12-11.07l8.34-1.61c-1.75,4.72-2.91,8.43-3.45,11.14,3.73-4.17,6.7-7.06,8.89-8.66,2.19-1.61,4.15-2.41,5.85-2.41,1.16,0,2.13,.44,2.9,1.31,.77,.88,1.16,1.97,1.16,3.29,0,2.18-.98,5.78-2.94,10.8-1.34,3.44-2.02,5.68-2.02,6.7,0,1.37,.56,2.06,1.68,2.06,1.67,0,4.36-2.2,8.09-6.6v3.93Z"/><path class="cls-1" d="M491.88,142.03c-1.16,1.03-2.29,1.75-3.38,2.17-1.09,.42-1.96,.63-2.6,.63-1.64,0-3.27-.64-4.89-1.91-3.28,4.97-7.04,7.45-11.28,7.45-2.64,0-4.79-.99-6.43-2.97s-2.46-4.61-2.46-7.9c0-5.2,1.85-9.66,5.54-13.38s8.1-5.59,13.23-5.59c1.94,0,3.35,.21,4.25,.63,.9,.42,1.45,.92,1.66,1.49,.21,.57,.31,1.29,.31,2.15,0,4.26-1.16,9.49-3.49,15.69,1.16,1.07,2.38,1.61,3.66,1.61,1.53,0,3.49-1.33,5.88-4v3.93Zm-11.28-19.11c-.34-.14-.83-.21-1.47-.21-2.96,0-5.28,1.55-6.96,4.65-1.67,3.1-2.51,6.72-2.51,10.87,0,2.3,.36,4.09,1.09,5.37,.73,1.28,1.74,1.91,3.04,1.91,1.62,0,3.37-1.49,5.26-4.48-2.14-2.69-3.21-5.58-3.21-8.68,0-3.65,1.58-6.79,4.75-9.43Z"/><path class="cls-1" d="M517.42,142.03c-5.72,5.61-10.13,8.41-13.23,8.41-1.39,0-2.56-.59-3.52-1.76s-1.44-2.63-1.44-4.36c0-3.21,1.72-7.52,5.16-12.92-1.69,.87-3.53,1.47-5.54,1.81-1.48,2.73-3.81,5.67-6.97,8.82h-.79v-3.08c1.78-1.85,3.38-3.83,4.82-5.95-1.96-.87-2.94-2.15-2.94-3.86s.6-3.63,1.79-5.62c1.2-1.99,2.84-2.99,4.94-2.99,1.78,0,2.67,.91,2.67,2.73,0,1.44-.51,3.49-1.54,6.15,3.78-.41,7.09-3.3,9.91-8.68l3.11-.14-3.18,8.75c-1.32,3.69-2.18,6.2-2.56,7.54-.39,1.33-.58,2.51-.58,3.54,0,.96,.22,1.72,.67,2.29,.44,.57,1.04,.85,1.79,.85,.82,0,1.61-.28,2.36-.84,.75-.56,2.44-2.1,5.06-4.63v3.93Z"/><path class="cls-1" d="M582.32,142.06c-5.24,5.58-10.05,8.37-14.42,8.37-2.42,0-4.33-.85-5.74-2.56-1.41-1.71-2.2-4.15-2.36-7.31-2.76,3.35-5.2,5.83-7.33,7.45s-4.4,2.43-6.82,2.43c-3.1,0-5.59-1.34-7.47-4.02-1.88-2.68-2.82-6.25-2.82-10.72,0-5.33,1.23-10.83,3.69-16.49,2.46-5.66,6.11-10.13,10.94-13.42,4.83-3.28,10.69-4.92,17.57-4.92,5.15,0,9.81,.7,13.98,2.08v2.26c-3.4,3.96-6.24,9.51-8.53,16.65-2.29,7.13-3.44,12.57-3.44,16.3,0,1.82,.37,3.24,1.11,4.24,.74,1,1.77,1.5,3.09,1.5,2.37,0,5.22-1.93,8.54-5.78v3.93Zm-9.95-36.85c-2.1-1.14-4.35-1.71-6.77-1.71-3.81,0-7.24,1.59-10.29,4.77-3.05,3.18-5.46,7.39-7.23,12.63-1.77,5.24-2.65,9.79-2.65,13.64,0,2.58,.5,4.67,1.49,6.27,.99,1.61,2.26,2.41,3.81,2.41,2.69,0,5.78-2.45,9.26-7.35,1.44-12.85,5.56-23.07,12.37-30.66Z"/><path class="cls-1" d="M607.85,142.03c-5.72,5.61-10.13,8.41-13.23,8.41-1.39,0-2.56-.59-3.52-1.76s-1.44-2.63-1.44-4.36c0-3.21,1.72-7.52,5.16-12.92-1.69,.87-3.53,1.47-5.54,1.81-1.48,2.73-3.81,5.67-6.97,8.82h-.79v-3.08c1.78-1.85,3.38-3.83,4.82-5.95-1.96-.87-2.94-2.15-2.94-3.86s.6-3.63,1.79-5.62c1.2-1.99,2.84-2.99,4.94-2.99,1.78,0,2.67,.91,2.67,2.73,0,1.44-.51,3.49-1.54,6.15,3.78-.41,7.09-3.3,9.91-8.68l3.11-.14-3.18,8.75c-1.32,3.69-2.18,6.2-2.56,7.54-.39,1.33-.58,2.51-.58,3.54,0,.96,.22,1.72,.67,2.29,.44,.57,1.04,.85,1.79,.85,.82,0,1.61-.28,2.36-.84,.75-.56,2.44-2.1,5.06-4.63v3.93Z"/><path class="cls-1" d="M633.42,142.03c-2.92,2.87-5.59,4.98-8.02,6.32-2.43,1.34-4.96,2.02-7.6,2.02-2.96,0-5.41-.96-7.33-2.89-1.93-1.93-2.89-4.37-2.89-7.33,0-4.85,1.77-9.34,5.31-13.45,3.54-4.11,7.38-6.17,11.5-6.17,2.03,0,3.68,.56,4.96,1.69,1.28,1.13,1.91,2.59,1.91,4.39,0,.64-.12,1.12-.36,1.44-.24,.32-.69,.64-1.35,.96l-3.96,1.88c-.48,.23-.83,.34-1.06,.34-.32,0-.48-.23-.48-.68,0-.18,.07-.78,.21-1.79,.14-1.01,.21-1.63,.21-1.86,0-1-.21-1.81-.63-2.43s-.99-.92-1.69-.92c-1.66,0-3.18,1.23-4.56,3.69-1.38,2.46-2.07,5.26-2.07,8.41,0,2.71,.65,4.88,1.95,6.49,1.3,1.62,3.03,2.43,5.2,2.43,1.85,0,3.58-.53,5.21-1.59s3.48-2.68,5.55-4.87v3.93Z"/><path class="cls-1" d="M669.92,142.03c-3.65,3.46-6.25,5.72-7.83,6.77s-3.08,1.57-4.51,1.57c-3.6,0-5.3-3.18-5.09-9.54-2.28,3.26-4.38,5.66-6.31,7.21s-3.91,2.32-5.96,2.32-3.71-.94-5.11-2.82c-1.4-1.88-2.1-4.19-2.1-6.92,0-3.42,.94-6.68,2.82-9.78,1.88-3.1,4.29-5.61,7.23-7.52s5.54-2.87,7.79-2.87c2.85,0,4.84,1.31,5.98,3.93l6.99-3.86h1.92l-3.01,10.02c-1.55,5.04-2.33,8.49-2.33,10.36s.69,2.94,2.08,2.94c.89,0,1.87-.47,2.94-1.42,1.07-.95,2.57-2.39,4.51-4.32v3.93Zm-25.02,1.88c2.28,0,4.43-1.94,6.44-5.83,2.02-3.88,3.02-7.47,3.02-10.75,0-1.28-.29-2.27-.85-2.99-.57-.72-1.33-1.08-2.29-1.08-2.28,0-4.44,1.94-6.48,5.81-2.04,3.87-3.06,7.44-3.06,10.7,0,1.23,.3,2.23,.91,2.99,.6,.76,1.37,1.15,2.31,1.15Z"/><path class="cls-1" d="M703.46,142.03c-5.26,5.56-9.78,8.34-13.54,8.34-1.53,0-2.76-.54-3.69-1.61-.93-1.07-1.4-2.51-1.4-4.31,0-2.44,1-6.16,3.01-11.18,1.07-2.69,1.61-4.4,1.61-5.13s-.29-1.09-.85-1.09c-.32,0-.74,.16-1.26,.48-.48,.32-1.04,.76-1.67,1.33-.57,.52-1.21,1.16-1.91,1.91-.62,.64-1.28,1.37-1.98,2.19l-1.91,2.22c-.84,1.03-1.37,2.11-1.57,3.25-.34,1.94-.57,3.71-.68,5.33-.07,1.21-.1,2.84-.1,4.89l-7.55,1.78c-.25-3.08-.38-5.37-.38-6.87,0-3.67,.43-7.14,1.28-10.42,.86-3.28,2.23-6.97,4.12-11.07l8.34-1.61c-1.75,4.72-2.91,8.43-3.45,11.14,3.73-4.17,6.7-7.06,8.89-8.66,2.19-1.61,4.15-2.41,5.85-2.41,1.16,0,2.13,.44,2.9,1.31,.77,.88,1.16,1.97,1.16,3.29,0,2.18-.98,5.78-2.94,10.8-1.34,3.44-2.02,5.68-2.02,6.7,0,1.37,.56,2.06,1.68,2.06,1.67,0,4.36-2.2,8.09-6.6v3.93Z"/><path class="cls-1" d="M739.92,142.03c-3.65,3.46-6.25,5.72-7.83,6.77s-3.08,1.57-4.51,1.57c-3.6,0-5.3-3.18-5.09-9.54-2.28,3.26-4.38,5.66-6.31,7.21s-3.91,2.32-5.96,2.32-3.71-.94-5.11-2.82c-1.4-1.88-2.1-4.19-2.1-6.92,0-3.42,.94-6.68,2.82-9.78,1.88-3.1,4.29-5.61,7.23-7.52s5.54-2.87,7.79-2.87c2.85,0,4.84,1.31,5.98,3.93l6.99-3.86h1.92l-3.01,10.02c-1.55,5.04-2.33,8.49-2.33,10.36s.69,2.94,2.08,2.94c.89,0,1.87-.47,2.94-1.42,1.07-.95,2.57-2.39,4.51-4.32v3.93Zm-25.02,1.88c2.28,0,4.43-1.94,6.44-5.83,2.02-3.88,3.02-7.47,3.02-10.75,0-1.28-.29-2.27-.85-2.99-.57-.72-1.33-1.08-2.29-1.08-2.28,0-4.44,1.94-6.48,5.81-2.04,3.87-3.06,7.44-3.06,10.7,0,1.23,.3,2.23,.91,2.99,.6,.76,1.37,1.15,2.31,1.15Z"/></g></g></g><g id="_반짝이"><polygon class="cls-7" points="827.93 1010 838.24 1050.01 871.44 1058.23 838.24 1067.25 827.93 1108 817.06 1067.25 784.41 1058.23 817.06 1050.01 827.93 1010"/><polygon class="cls-7" points="277.93 782 290.13 829.36 329.43 839.09 290.13 849.76 277.93 898 265.07 849.76 226.42 839.09 265.07 829.36 277.93 782"/><circle class="cls-8" cx="333" cy="919" r="9"/><circle class="cls-7" cx="313" cy="969" r="6"/><circle class="cls-8" cx="788.5" cy="980.5" r="11.5"/><circle class="cls-7" cx="828" cy="927" r="9"/><circle class="cls-8" cx="772.5" cy="817.5" r="6.5"/><circle class="cls-8" cx="217.5" cy="1100.5" r="9.5"/></g><g id="_컵_페이지"><path class="cls-7" d="M437,628c-8.36-7.63-15.8-10.12-21-11-12.23-2.07-21.2,3.22-31-3-1.11-.7-5.48-3.48-5-6,.66-3.48,10.21-4.6,18-5-2.95-4.02-5.93-6.51-8-8-11.96-8.59-29.56-9.47-40-10-5.28-.27-9.42-.19-10-2-.79-2.45,5.39-6.86,10-9,10.06-4.68,20.92-2.44,28,0-3.6-2.9-8.5-7.44-13-14-3.32-4.85-9.25-14.92-7-17,.98-.9,3.79-.59,12,5-1.74-3.07-3.94-7.83-5-14-1.43-8.33-.06-15.19,1-19,2.25,1.02,7.1,3.57,11,9,3.81,5.29,4.73,10.55,5,13-.71-5.56-1.27-12.7-1-21,.08-2.52,.46-11.89,3-24,3.51-16.73,4.71-25.7,8-26,3.92-.36,8.13,11.65,10,17,3.81,10.87,4.64,19.65,5,23,1.02,9.42,3.49,22.99,10,40-.33-2.98-.65-9.77,3-17,2.18-4.31,4.86-6.92,7-9,1.87-1.82,4.83-4.7,6-4,1.22,.73-.15,4.95-1,8,0,0-1.63,5.86-3,23-.53,6.66,.55,16.3,8,29-2.23-7.73,.13-15.98,6-21,7.59-6.49,17.09-4.23,18-4-1.61,5.04-3.04,10.72-4,17-3.03,19.72-.14,36.58,3,48-7.67,4-15.33,8-23,12Z"/><path class="cls-4" d="M434,721c9.88-5.9,24.77-13.39,44-18,38.1-9.13,69.18-1.22,85,3,54.46,14.55,88.64,49.34,103,66,8.79-3.28,21.55-9.01,35-19,12.16-9.04,32.11-23.86,41-50,8.74-25.68,2.09-48.43-1-59-13.12-44.9-49.65-67.2-58-72-28.45-16.36-55.08-16.7-79-17-35.83-.45-61.34,7.94-98,20-9.14,3.01-45.88,15.39-86,42-19.17,12.72-33.79,25.15-36,43-1.16,9.41,1.54,17.02,3,21,10.24,27.88,41.05,38.14,47,40Z"/><polygon class="cls-3" points="674.21 632.24 680.62 670.3 697.91 662.09 689.69 679.37 728.82 685.79 689.69 692.2 697.91 709.49 680.62 701.27 674.21 742.52 667.79 701.27 650.5 709.49 658.72 692.2 618.9 685.79 658.72 679.37 650.5 662.09 667.79 670.3 674.21 632.24"/><path class="cls-8" d="M671.91,985.1v-127.69H408.09v127.69c0,63.33,44.64,116.23,104.16,128.97-5.4,2.37-9.19,7.77-9.19,14.01h0c0,8.42,6.89,15.3,15.3,15.3h2.18v116.93l-91.87,37.14h91.87v.54h38.91v-.54h91.87l-91.87-37.14v-116.93h2.18c8.42,0,15.3-6.89,15.3-15.3h0c0-6.25-3.8-11.64-9.19-14.01,59.53-12.74,104.16-65.64,104.16-128.97Zm-98.33,23.07l-24.13-11.47-8.95,57.58-8.95-57.58-24.13,11.47,11.47-24.13-55.59-8.95,55.59-8.95-11.47-24.13,24.13,11.47,8.95-53.14,8.95,53.14,24.13-11.47-11.47,24.13,54.61,8.95-54.61,8.95,11.47,24.13Z"/><path class="cls-5" d="M422.9,1123.65c-12.68-1.6-21.44,1.55-25.91,3.65-1.99,.94-3.89,2.03-5.71,3.27-3.6-26.79-21.89-45.18-24.09-47.31-12.99,9.18-18.52,19.38-20.93,25.03-3.76,8.8-5.03,18.51-4.03,28.43-3.45-2.29-7.16-4.08-11.07-5.29-4.72-1.46-13.84-3.35-26.17,0,.23,3.16,3.17,35.88,30.68,51.43,12.61,7.13,25.05,7.64,31.94,7.3,.01,.17,.02,.34,.03,.51,6.49-.45,19.71-2.34,32.05-11.8,25.07-19.23,23.41-52.04,23.2-55.21Z"/><path class="cls-5" d="M769.9,1123.65c-12.68-1.6-21.44,1.55-25.91,3.65-1.99,.94-3.89,2.03-5.71,3.27-3.6-26.79-21.89-45.18-24.09-47.31-12.99,9.18-18.52,19.38-20.93,25.03-3.76,8.8-5.03,18.51-4.03,28.43-3.45-2.29-7.16-4.08-11.07-5.29-4.72-1.46-13.84-3.35-26.17,0,.23,3.16,3.17,35.88,30.68,51.43,12.61,7.13,25.05,7.64,31.94,7.3,.01,.17,.02,.34,.03,.51,6.49-.45,19.71-2.34,32.05-11.8,25.07-19.23,23.41-52.04,23.2-55.21Z"/><path class="cls-5" d="M839.74,1261.09c-9.75-1.23-16.5,1.19-19.94,2.81-1.53,.72-2.99,1.57-4.39,2.52-2.77-20.62-16.85-34.77-18.54-36.41-10,7.06-14.25,14.92-16.11,19.26-2.89,6.78-3.87,14.24-3.1,21.88-2.66-1.76-5.51-3.14-8.52-4.07-3.63-1.12-10.65-2.58-20.14,0,.18,2.43,2.44,27.61,23.61,39.58,9.7,5.48,19.28,5.88,24.58,5.62,.01,.13,.02,.26,.03,.39,4.99-.35,15.17-1.8,24.67-9.08,19.29-14.8,18.02-40.05,17.86-42.49Z"/><path class="cls-5" d="M316.74,1253.09c-9.75-1.23-16.5,1.19-19.94,2.81-1.53,.72-2.99,1.57-4.39,2.52-2.77-20.62-16.85-34.77-18.54-36.41-10,7.06-14.25,14.92-16.11,19.26-2.89,6.78-3.87,14.24-3.1,21.88-2.66-1.76-5.51-3.14-8.52-4.07-3.63-1.12-10.65-2.58-20.14,0,.18,2.43,2.44,27.61,23.61,39.58,9.7,5.48,19.28,5.88,24.58,5.62,.01,.13,.02,.26,.03,.39,4.99-.35,15.17-1.8,24.67-9.08,19.29-14.8,18.02-40.05,17.86-42.49Z"/><path class="cls-2" d="M366,1184v107.12"/><path class="cls-2" d="M712,1184v107.12"/></g></svg>