<?xml version="1.0" encoding="UTF-8"?><svg xmlns="http://www.w3.org/2000/svg" viewBox="0 0 1080 1944"><defs><style>.cls-1{fill:#fff;}.cls-2{fill:#f6ef84;}.cls-3{fill:#3f3730;}.cls-4{fill:#4c5fa9;}.cls-5{fill:#bad6eb;}.cls-6{fill:#c8c0de;}.cls-7{fill:#b1d4f0;}</style></defs><g id="_배경_텍스트"><g><rect class="cls-5" width="1080" height="1944"/><rect class="cls-1" x="74.84" y="186.39" width="930.33" height="1606.64" rx="65.21" ry="65.21"/><g><path class="cls-3" d="M294.7,1664.36c-4.41,4.5-8.11,7.81-11.1,9.95-2.99,2.14-5.67,3.21-8.04,3.21s-4.24-.73-5.94-2.2c-1.7-1.47-3.74-3.67-6.1-6.61-7.3,5.87-13.92,8.81-19.85,8.81-5.19,0-9.44-2.13-12.74-6.39-3.31-4.26-4.96-9.76-4.96-16.49,0-7.2,1.41-14.43,4.23-21.7,2.82-7.27,6.4-13.69,10.74-19.25,4.34-5.57,7.91-9.28,10.7-11.15,2.79-1.86,7.05-2.79,12.78-2.79l.11,.75c-8.16,7.66-14.09,15.95-17.78,24.87-3.69,8.92-5.53,17.46-5.53,25.62,0,5.3,1.04,9.44,3.12,12.43,2.08,2.99,4.93,4.48,8.55,4.48,2.4,0,5.14-.95,8.22-2.85-1.79-2.54-3.23-4.22-4.3-5.05-1.08-.82-2.35-1.24-3.82-1.24-.11,0-.46,.06-1.05,.19-.59,.13-.94,.19-1.05,.19-.5,0-.75-.23-.75-.7,0-.93,1.07-2.3,3.2-4.11,2.13-1.81,4.29-2.71,6.48-2.71,1.69,0,3.22,.47,4.6,1.4,1.38,.93,3,2.35,4.87,4.24,11.44-14.57,17.16-28.77,17.16-42.59,0-3.12-.51-5.59-1.53-7.44-1.02-1.84-2.37-2.77-4.04-2.77-3.11,0-5.99,2.35-8.65,7.04-2.66,4.69-3.99,8.83-3.99,12.41,0,2.69,1.2,4.19,3.61,4.51,1.03,.11,1.54,.56,1.54,1.34,0,1.61-.81,3.17-2.44,4.67-1.63,1.5-3.32,2.26-5.08,2.26-2.15,0-3.95-.96-5.4-2.87-1.45-1.92-2.18-4.34-2.18-7.28,0-6.19,2.34-12.21,7.01-18.05,4.67-5.84,9.41-8.75,14.21-8.75,3.4,0,6.07,1.33,8,4,1.93,2.67,2.9,6.35,2.9,11.04,0,14.72-6.24,30.01-18.72,45.87,3.37,4.98,6.49,7.47,9.36,7.47,3.58,0,8.14-3.31,13.66-9.94v6.18Z"/><path class="cls-3" d="M352.01,1664.42c-4.73,4.48-8.68,7.78-11.87,9.91-3.19,2.13-6.05,3.2-8.59,3.2-2.83,0-5-1.13-6.53-3.38s-2.28-5.32-2.28-9.18c-3.94,4.33-7.46,7.53-10.58,9.59-3.12,2.06-6.16,3.09-9.13,3.09-2.72,0-4.91-1.13-6.55-3.38-1.65-2.26-2.47-5.32-2.47-9.18,0-7.45,2.51-17.94,7.52-31.47l14.35-2.86c-5.9,17.17-8.86,28.18-8.87,33.05,0,3.44,1.29,5.15,3.87,5.15,1.86,0,4.17-1.51,6.93-4.54,2.76-3.03,4.48-5.67,5.16-7.92l7.04-22.88,14.62-2.96c-3.38,10.78-5.69,18.35-6.95,22.72-1.26,4.37-1.88,7.43-1.88,9.18,0,3.37,1.15,5.05,3.44,5.05,1.86,0,4.62-1.7,8.28-5.1l4.52-4.24v6.18Z"/><path class="cls-3" d="M392.13,1664.42c-4.55,4.48-8.63,7.78-12.25,9.91-3.62,2.13-7.61,3.2-11.98,3.2-4.87,0-8.8-1.56-11.79-4.67-2.99-3.12-4.48-7.21-4.48-12.3,0-7.59,2.63-14.46,7.9-20.6,5.26-6.14,11.1-9.21,17.51-9.21,3.33,0,6,.86,8,2.58s3.01,3.97,3.01,6.77c0,7.41-7.88,13.43-23.63,18.05,1.43,6.98,5.17,10.47,11.23,10.47,2.36,0,4.62-.64,6.77-1.91,2.15-1.27,5.39-4.09,9.72-8.46v6.18Zm-28.14-9.94c9.17-2.58,13.75-7.34,13.75-14.29,0-3.44-1.25-5.16-3.76-5.16-2.36,0-4.62,1.8-6.77,5.4-2.15,3.6-3.22,8.28-3.22,14.04Z"/><path class="cls-3" d="M432.31,1664.42c-4.55,4.48-8.63,7.78-12.25,9.91-3.62,2.13-7.61,3.2-11.98,3.2-4.87,0-8.8-1.56-11.79-4.67-2.99-3.12-4.48-7.21-4.48-12.3,0-7.59,2.63-14.46,7.9-20.6,5.26-6.14,11.1-9.21,17.51-9.21,3.33,0,6,.86,8,2.58s3.01,3.97,3.01,6.77c0,7.41-7.88,13.43-23.63,18.05,1.43,6.98,5.17,10.47,11.23,10.47,2.36,0,4.62-.64,6.77-1.91,2.15-1.27,5.39-4.09,9.72-8.46v6.18Zm-28.14-9.94c9.17-2.58,13.75-7.34,13.75-14.29,0-3.44-1.25-5.16-3.76-5.16-2.36,0-4.62,1.8-6.77,5.4-2.15,3.6-3.22,8.28-3.22,14.04Z"/><path class="cls-3" d="M485.05,1664.42c-8.27,8.74-15.36,13.11-21.27,13.11-2.4,0-4.33-.84-5.8-2.52s-2.2-3.94-2.2-6.77c0-3.83,1.57-9.69,4.73-17.56,1.68-4.22,2.52-6.91,2.52-8.06s-.45-1.72-1.34-1.72c-.5,0-1.16,.25-1.99,.75-.75,.5-1.63,1.2-2.63,2.09-.9,.82-1.9,1.83-3.01,3.01-.97,1-2.01,2.15-3.12,3.44l-3.01,3.49c-1.33,1.61-2.15,3.31-2.47,5.1-.54,3.04-.9,5.84-1.07,8.38-.11,1.9-.16,4.46-.16,7.68l-11.87,2.79c-.39-4.83-.59-8.43-.59-10.8,0-5.76,.67-11.23,2.01-16.38,1.34-5.16,3.5-10.96,6.47-17.4l13.11-2.52c-2.76,7.41-4.56,13.25-5.42,17.51,5.87-6.55,10.53-11.09,13.98-13.62,3.45-2.53,6.51-3.79,9.2-3.79,1.82,0,3.34,.69,4.56,2.07,1.22,1.38,1.82,3.1,1.82,5.18,0,3.43-1.54,9.09-4.62,16.97-2.11,5.41-3.17,8.92-3.17,10.53,0,2.15,.88,3.23,2.64,3.23,2.62,0,6.86-3.46,12.71-10.37v6.18Z"/><path class="cls-3" d="M560.73,1664.42c-1.83,1.61-3.6,2.75-5.32,3.41-1.72,.66-3.08,.99-4.08,.99-2.58,0-5.14-1-7.68-3.01-5.16,7.81-11.06,11.71-17.72,11.71-4.15,0-7.52-1.56-10.1-4.67s-3.87-7.25-3.87-12.41c0-8.16,2.9-15.17,8.7-21.03,5.8-5.85,12.73-8.78,20.79-8.78,3.04,0,5.27,.33,6.69,.99,1.41,.66,2.28,1.44,2.61,2.34,.32,.9,.48,2.02,.48,3.38,0,6.7-1.83,14.91-5.48,24.65,1.83,1.68,3.74,2.52,5.75,2.52,2.4,0,5.48-2.09,9.24-6.28v6.18Zm-17.72-30.02c-.54-.21-1.31-.32-2.31-.32-4.65,0-8.3,2.44-10.93,7.3-2.63,4.87-3.95,10.56-3.95,17.08,0,3.62,.57,6.43,1.72,8.43,1.14,2.01,2.74,3.01,4.78,3.01,2.54,0,5.3-2.34,8.27-7.04-3.37-4.22-5.05-8.77-5.05-13.64,0-5.73,2.49-10.67,7.47-14.82Z"/><path class="cls-3" d="M604.29,1664.42c-3.72,4.19-7.4,7.42-11.05,9.69-3.65,2.27-6.9,3.41-9.77,3.41-1.36,0-3.22-.52-5.58-1.55-1.51,7.88-2.84,16.38-3.99,25.5-3.73,.5-8.21,1.27-13.44,2.31,1.15-9.81,3.13-22.54,5.96-38.19-.39-.68-1.09-2.4-2.09-5.16l-3.6,3.97h-1.24v-4.83l10.24-10.62c1.95-9.61,3.53-16.56,4.75-20.86,1.22-4.3,2.92-9.05,5.1-14.26,2.18-5.21,3.56-8.2,4.14-8.97,.57-.77,1.96-1.5,4.16-2.2,2.2-.7,4.56-1.36,7.06-1.99,2.51-.63,3.85-.94,4.03-.94,1.36,0,2.47,.89,3.33,2.66s1.29,4.1,1.29,7c0,5.01-1.32,9.84-3.97,14.49-2.64,4.65-7.64,10.37-15,17.17l-4.51,22.45c1.75,3.75,4.38,5.63,7.88,5.63,5,0,10.44-3.63,16.3-10.9v6.18Zm-18.04-30.61c4.19-3.65,7.47-7.58,9.85-11.79,2.38-4.21,3.57-8.08,3.57-11.63,0-1.5-.28-2.74-.83-3.71s-1.24-1.45-2.06-1.45c-1.57,0-3.17,2.06-4.79,6.18-1.62,4.12-3.54,11.58-5.73,22.4Z"/><path class="cls-3" d="M693.72,1664.47c-8.49,8.77-18.73,13.16-30.72,13.16-8.59,0-15.64-2.69-21.13-8.08-5.5-5.39-8.25-12.31-8.25-20.76s1.99-16.42,5.96-24.01c3.97-7.59,9.18-13.66,15.6-18.21,6.43-4.55,12.74-6.82,18.93-6.82,5.19,0,9.43,1.56,12.7,4.67,3.28,3.12,4.91,7.16,4.91,12.14,0,6.48-1.98,12.09-5.93,16.84-3.96,4.75-8.59,7.12-13.88,7.12-2.79,0-5.09-.72-6.88-2.15-1.79-1.43-2.69-3.28-2.69-5.53,0-1.93,.77-3.72,2.31-5.37,1.15,2.11,2.72,3.17,4.73,3.17,2.87,0,5.52-1.79,7.98-5.37,2.45-3.58,3.68-7.5,3.68-11.76,0-2.97-.69-5.33-2.07-7.09-1.38-1.75-3.21-2.63-5.51-2.63-3.33,0-6.88,2.08-10.66,6.23-3.78,4.15-6.93,9.49-9.45,16.01-2.53,6.52-3.79,12.71-3.79,18.58,0,7.48,2.12,13.62,6.37,18.42,4.24,4.8,9.64,7.2,16.19,7.2,4.15,0,7.89-.96,11.22-2.89,3.33-1.93,6.79-4.94,10.37-9.04v6.18Z"/><path class="cls-3" d="M751.03,1664.42c-4.73,4.48-8.68,7.78-11.87,9.91-3.19,2.13-6.05,3.2-8.59,3.2-2.83,0-5-1.13-6.53-3.38-1.52-2.26-2.28-5.32-2.28-9.18-3.94,4.33-7.47,7.53-10.58,9.59-3.12,2.06-6.16,3.09-9.13,3.09-2.72,0-4.91-1.13-6.55-3.38s-2.47-5.32-2.47-9.18c0-7.45,2.51-17.94,7.52-31.47l14.35-2.86c-5.9,17.17-8.85,28.18-8.87,33.05,0,3.44,1.29,5.15,3.87,5.15,1.86,0,4.17-1.51,6.93-4.54,2.76-3.03,4.47-5.67,5.16-7.92l7.04-22.88,14.62-2.96c-3.38,10.78-5.69,18.35-6.95,22.72-1.26,4.37-1.88,7.43-1.88,9.18,0,3.37,1.15,5.05,3.44,5.05,1.86,0,4.62-1.7,8.28-5.1l4.51-4.24v6.18Z"/><path class="cls-3" d="M776.67,1639.87c2.58-3.12,5.01-5.42,7.3-6.91,2.29-1.49,4.83-2.23,7.62-2.23,3.61,0,6.56,1.39,8.83,4.16,2.27,2.78,3.41,6.42,3.41,10.93,0,7.91-2.73,15.17-8.19,21.78-5.46,6.61-11.4,9.91-17.81,9.91-1.79,0-3.21-.2-4.24-.59-1.04-.4-2.4-1.31-4.08-2.74-2.58,11.35-4.24,20.45-4.99,27.29l-13.64,2.42c2.54-16.76,5.78-33.73,9.72-50.92-4.73,6.2-7.91,10.01-9.56,11.44h-1.23v-4.83c6.8-7.34,12.41-16.26,16.81-26.75l12.14-2.2-2.08,9.24Zm-6.21,28.73c1.86,3.08,3.92,4.62,6.18,4.62,3.62,0,6.82-2.75,9.6-8.25,2.78-5.5,4.17-10.86,4.17-16.09,0-2.76-.56-4.99-1.69-6.69-1.13-1.7-2.59-2.55-4.38-2.55-1.4,0-2.87,.63-4.4,1.88s-2.7,2.71-3.49,4.38-1.68,4.58-2.68,8.73l-3.3,13.96Z"/><path class="cls-3" d="M829.45,1632.94c2.47-.64,4.96-1.17,7.47-1.58,2.51-.41,4.01-.62,4.51-.62,.36,0,.54,.14,.54,.43,0,.54-.14,1.09-.43,1.66-.57,1.65-.86,3.22-.86,4.72,0,1.86,1.08,4.4,3.23,7.63,2.14,3.22,3.22,6.22,3.22,8.97,0,5.48-2.62,10.76-7.87,15.84-5.25,5.08-10.68,7.63-16.3,7.63-2.44,0-4.66-.64-6.66-1.93-2.01-1.29-3.01-2.67-3.01-4.14,0-.86,.99-2.49,2.98-4.89,1.99-2.4,3.41-3.6,4.27-3.6,1.15,0,2.17,1.47,3.06,4.4,.89,2.94,2.43,4.4,4.62,4.4s4.23-1.01,6.15-3.04c1.92-2.02,2.88-4.2,2.88-6.53,0-2.26-1.21-5.26-3.65-9.02-2.44-3.76-4.05-6.91-4.84-9.45-4.15,6.7-9.42,13.55-15.79,20.57h-1.24v-4.83c8.77-9.35,14.68-18.23,17.72-26.64Z"/></g><g><path class="cls-1" d="M410.88,142.03c-5.1,5.49-9.75,8.24-13.95,8.24-2.55,0-4.5-1.23-5.83-3.69-1.33-2.46-2-5.75-2-9.88,0-3.19,.65-7.58,1.96-13.16,1.31-5.58,3-10.28,5.08-14.08l1.98-3.55c-2.71,2.83-4.93,5.92-6.67,9.28-1.73,3.36-3.8,8.06-6.2,14.1-2.4,6.04-4.22,10.15-5.45,12.34s-2.41,3.97-3.54,5.35c-1.13,1.38-2.13,2.27-3.01,2.68-.88,.41-2.41,.62-4.6,.62-.84,0-1.26-.23-1.26-.68,0-.05,.15-.76,.45-2.15,.3-1.39,.61-3.62,.92-6.68,.31-3.06,.54-8.27,.68-15.62s1.21-13.64,3.21-18.88c-2.14,2.44-4.33,8.11-6.57,17.02l-.86,3.35c-2.35,9.27-5.04,15.53-8.08,18.78-3.03,3.25-6.01,4.87-8.93,4.87-1.8,0-3.39-.57-4.76-1.71s-2.05-2.45-2.05-3.93c0-1.14,.82-2.42,2.46-3.83,1.64-1.41,2.68-2.12,3.11-2.12,.5,0,.83,.17,.99,.51,.16,.34,.37,1.28,.62,2.82s.63,2.54,1.15,3.01c.51,.47,1.16,.7,1.94,.7,1.76,0,3.7-1.76,5.83-5.28s4.07-8.96,5.83-16.32l.99-4.14c.8-3.37,1.59-6.06,2.37-8.07,.78-2,1.8-4.01,3.08-6.02,1.85-2.87,2.99-4.4,3.41-4.6,.42-.19,1.21-.35,2.38-.48,1.16-.12,2.32-.19,3.49-.19,.46,0,.68,.26,.68,.79,0,.25-.07,.76-.21,1.54-.45,3.19-.66,6.39-.64,9.6l.07,9.16c.04,7.98-.59,14.41-1.91,19.31,1.21-1.46,2.96-5.22,5.26-11.28,3.33-8.59,6.36-15.04,9.09-19.35,1.3-2.07,2.87-4.06,4.7-5.96,1.83-1.9,3.1-2.92,3.81-3.06,2.42-.46,4.45-.68,6.12-.68,.62,0,.92,.17,.92,.51,0,.48-.38,1.55-1.12,3.21-1.77,4.01-3.43,9.44-4.96,16.27s-2.31,12.28-2.32,16.33c0,4.58,1.4,6.87,4.2,6.87,2.28,0,4.99-1.94,8.13-5.81v3.93Z"/><path class="cls-1" d="M427.66,142.03c-5.33,5.61-9.32,8.41-11.96,8.41-1.46,0-2.69-.75-3.69-2.24-1-1.49-1.5-3.37-1.5-5.62,0-4.85,1.64-11.58,4.92-20.17l8.68-1.81h.41l-3.42,10.7c-1.41,4.42-2.12,7.58-2.12,9.47,0,.75,.17,1.36,.5,1.83,.33,.47,.75,.7,1.25,.7,.89,0,1.78-.32,2.68-.97s2.32-2.06,4.26-4.22v3.93Zm-.68-34.79c0,5.47-2.02,8.2-6.05,8.2-1.96,0-3.63-.59-5.02-1.78,1.32-2,2.35-4.26,3.08-6.77,1.8,1.12,3.25,1.67,4.34,1.67,1.23,0,2.45-.44,3.66-1.33Z"/><path class="cls-1" d="M461.22,142.03c-5.26,5.56-9.78,8.34-13.54,8.34-1.53,0-2.76-.54-3.69-1.61-.93-1.07-1.4-2.51-1.4-4.31,0-2.44,1-6.16,3.01-11.18,1.07-2.69,1.61-4.4,1.61-5.13s-.29-1.09-.85-1.09c-.32,0-.74,.16-1.26,.48-.48,.32-1.04,.76-1.67,1.33-.57,.52-1.21,1.16-1.91,1.91-.62,.64-1.28,1.37-1.98,2.19l-1.91,2.22c-.84,1.03-1.37,2.11-1.57,3.25-.34,1.94-.57,3.71-.68,5.33-.07,1.21-.1,2.84-.1,4.89l-7.55,1.78c-.25-3.08-.38-5.37-.38-6.87,0-3.67,.43-7.14,1.28-10.42,.86-3.28,2.23-6.97,4.12-11.07l8.34-1.61c-1.75,4.72-2.91,8.43-3.45,11.14,3.73-4.17,6.7-7.06,8.89-8.66,2.19-1.61,4.15-2.41,5.85-2.41,1.16,0,2.13,.44,2.9,1.31,.77,.88,1.16,1.97,1.16,3.29,0,2.18-.98,5.78-2.94,10.8-1.34,3.44-2.02,5.68-2.02,6.7,0,1.37,.56,2.06,1.68,2.06,1.67,0,4.36-2.2,8.09-6.6v3.93Z"/><path class="cls-1" d="M491.88,142.03c-1.16,1.03-2.29,1.75-3.38,2.17-1.09,.42-1.96,.63-2.6,.63-1.64,0-3.27-.64-4.89-1.91-3.28,4.97-7.04,7.45-11.28,7.45-2.64,0-4.79-.99-6.43-2.97s-2.46-4.61-2.46-7.9c0-5.2,1.85-9.66,5.54-13.38s8.1-5.59,13.23-5.59c1.94,0,3.35,.21,4.25,.63,.9,.42,1.45,.92,1.66,1.49,.21,.57,.31,1.29,.31,2.15,0,4.26-1.16,9.49-3.49,15.69,1.16,1.07,2.38,1.61,3.66,1.61,1.53,0,3.49-1.33,5.88-4v3.93Zm-11.28-19.11c-.34-.14-.83-.21-1.47-.21-2.96,0-5.28,1.55-6.96,4.65-1.67,3.1-2.51,6.72-2.51,10.87,0,2.3,.36,4.09,1.09,5.37,.73,1.28,1.74,1.91,3.04,1.91,1.62,0,3.37-1.49,5.26-4.48-2.14-2.69-3.21-5.58-3.21-8.68,0-3.65,1.58-6.79,4.75-9.43Z"/><path class="cls-1" d="M517.42,142.03c-5.72,5.61-10.13,8.41-13.23,8.41-1.39,0-2.56-.59-3.52-1.76s-1.44-2.63-1.44-4.36c0-3.21,1.72-7.52,5.16-12.92-1.69,.87-3.53,1.47-5.54,1.81-1.48,2.73-3.81,5.67-6.97,8.82h-.79v-3.08c1.78-1.85,3.38-3.83,4.82-5.95-1.96-.87-2.94-2.15-2.94-3.86s.6-3.63,1.79-5.62c1.2-1.99,2.84-2.99,4.94-2.99,1.78,0,2.67,.91,2.67,2.73,0,1.44-.51,3.49-1.54,6.15,3.78-.41,7.09-3.3,9.91-8.68l3.11-.14-3.18,8.75c-1.32,3.69-2.18,6.2-2.56,7.54-.39,1.33-.58,2.51-.58,3.54,0,.96,.22,1.72,.67,2.29,.44,.57,1.04,.85,1.79,.85,.82,0,1.61-.28,2.36-.84,.75-.56,2.44-2.1,5.06-4.63v3.93Z"/><path class="cls-1" d="M582.32,142.06c-5.24,5.58-10.05,8.37-14.42,8.37-2.42,0-4.33-.85-5.74-2.56-1.41-1.71-2.2-4.15-2.36-7.31-2.76,3.35-5.2,5.83-7.33,7.45s-4.4,2.43-6.82,2.43c-3.1,0-5.59-1.34-7.47-4.02-1.88-2.68-2.82-6.25-2.82-10.72,0-5.33,1.23-10.83,3.69-16.49,2.46-5.66,6.11-10.13,10.94-13.42,4.83-3.28,10.69-4.92,17.57-4.92,5.15,0,9.81,.7,13.98,2.08v2.26c-3.4,3.96-6.24,9.51-8.53,16.65-2.29,7.13-3.44,12.57-3.44,16.3,0,1.82,.37,3.24,1.11,4.24,.74,1,1.77,1.5,3.09,1.5,2.37,0,5.22-1.93,8.54-5.78v3.93Zm-9.95-36.85c-2.1-1.14-4.35-1.71-6.77-1.71-3.81,0-7.24,1.59-10.29,4.77-3.05,3.18-5.46,7.39-7.23,12.63-1.77,5.24-2.65,9.79-2.65,13.64,0,2.58,.5,4.67,1.49,6.27,.99,1.61,2.26,2.41,3.81,2.41,2.69,0,5.78-2.45,9.26-7.35,1.44-12.85,5.56-23.07,12.37-30.66Z"/><path class="cls-1" d="M607.85,142.03c-5.72,5.61-10.13,8.41-13.23,8.41-1.39,0-2.56-.59-3.52-1.76s-1.44-2.63-1.44-4.36c0-3.21,1.72-7.52,5.16-12.92-1.69,.87-3.53,1.47-5.54,1.81-1.48,2.73-3.81,5.67-6.97,8.82h-.79v-3.08c1.78-1.85,3.38-3.83,4.82-5.95-1.96-.87-2.94-2.15-2.94-3.86s.6-3.63,1.79-5.62c1.2-1.99,2.84-2.99,4.94-2.99,1.78,0,2.67,.91,2.67,2.73,0,1.44-.51,3.49-1.54,6.15,3.78-.41,7.09-3.3,9.91-8.68l3.11-.14-3.18,8.75c-1.32,3.69-2.18,6.2-2.56,7.54-.39,1.33-.58,2.51-.58,3.54,0,.96,.22,1.72,.67,2.29,.44,.57,1.04,.85,1.79,.85,.82,0,1.61-.28,2.36-.84,.75-.56,2.44-2.1,5.06-4.63v3.93Z"/><path class="cls-1" d="M633.42,142.03c-2.92,2.87-5.59,4.98-8.02,6.32-2.43,1.34-4.96,2.02-7.6,2.02-2.96,0-5.41-.96-7.33-2.89-1.93-1.93-2.89-4.37-2.89-7.33,0-4.85,1.77-9.34,5.31-13.45,3.54-4.11,7.38-6.17,11.5-6.17,2.03,0,3.68,.56,4.96,1.69,1.28,1.13,1.91,2.59,1.91,4.39,0,.64-.12,1.12-.36,1.44-.24,.32-.69,.64-1.35,.96l-3.96,1.88c-.48,.23-.83,.34-1.06,.34-.32,0-.48-.23-.48-.68,0-.18,.07-.78,.21-1.79,.14-1.01,.21-1.63,.21-1.86,0-1-.21-1.81-.63-2.43s-.99-.92-1.69-.92c-1.66,0-3.18,1.23-4.56,3.69-1.38,2.46-2.07,5.26-2.07,8.41,0,2.71,.65,4.88,1.95,6.49,1.3,1.62,3.03,2.43,5.2,2.43,1.85,0,3.58-.53,5.21-1.59s3.48-2.68,5.55-4.87v3.93Z"/><path class="cls-1" d="M669.92,142.03c-3.65,3.46-6.25,5.72-7.83,6.77s-3.08,1.57-4.51,1.57c-3.6,0-5.3-3.18-5.09-9.54-2.28,3.26-4.38,5.66-6.31,7.21s-3.91,2.32-5.96,2.32-3.71-.94-5.11-2.82c-1.4-1.88-2.1-4.19-2.1-6.92,0-3.42,.94-6.68,2.82-9.78,1.88-3.1,4.29-5.61,7.23-7.52s5.54-2.87,7.79-2.87c2.85,0,4.84,1.31,5.98,3.93l6.99-3.86h1.92l-3.01,10.02c-1.55,5.04-2.33,8.49-2.33,10.36s.69,2.94,2.08,2.94c.89,0,1.87-.47,2.94-1.42,1.07-.95,2.57-2.39,4.51-4.32v3.93Zm-25.02,1.88c2.28,0,4.43-1.94,6.44-5.83,2.02-3.88,3.02-7.47,3.02-10.75,0-1.28-.29-2.27-.85-2.99-.57-.72-1.33-1.08-2.29-1.08-2.28,0-4.44,1.94-6.48,5.81-2.04,3.87-3.06,7.44-3.06,10.7,0,1.23,.3,2.23,.91,2.99,.6,.76,1.37,1.15,2.31,1.15Z"/><path class="cls-1" d="M703.46,142.03c-5.26,5.56-9.78,8.34-13.54,8.34-1.53,0-2.76-.54-3.69-1.61-.93-1.07-1.4-2.51-1.4-4.31,0-2.44,1-6.16,3.01-11.18,1.07-2.69,1.61-4.4,1.61-5.13s-.29-1.09-.85-1.09c-.32,0-.74,.16-1.26,.48-.48,.32-1.04,.76-1.67,1.33-.57,.52-1.21,1.16-1.91,1.91-.62,.64-1.28,1.37-1.98,2.19l-1.91,2.22c-.84,1.03-1.37,2.11-1.57,3.25-.34,1.94-.57,3.71-.68,5.33-.07,1.21-.1,2.84-.1,4.89l-7.55,1.78c-.25-3.08-.38-5.37-.38-6.87,0-3.67,.43-7.14,1.28-10.42,.86-3.28,2.23-6.97,4.12-11.07l8.34-1.61c-1.75,4.72-2.91,8.43-3.45,11.14,3.73-4.17,6.7-7.06,8.89-8.66,2.19-1.61,4.15-2.41,5.85-2.41,1.16,0,2.13,.44,2.9,1.31,.77,.88,1.16,1.97,1.16,3.29,0,2.18-.98,5.78-2.94,10.8-1.34,3.44-2.02,5.68-2.02,6.7,0,1.37,.56,2.06,1.68,2.06,1.67,0,4.36-2.2,8.09-6.6v3.93Z"/><path class="cls-1" d="M739.92,142.03c-3.65,3.46-6.25,5.72-7.83,6.77s-3.08,1.57-4.51,1.57c-3.6,0-5.3-3.18-5.09-9.54-2.28,3.26-4.38,5.66-6.31,7.21s-3.91,2.32-5.96,2.32-3.71-.94-5.11-2.82c-1.4-1.88-2.1-4.19-2.1-6.92,0-3.42,.94-6.68,2.82-9.78,1.88-3.1,4.29-5.61,7.23-7.52s5.54-2.87,7.79-2.87c2.85,0,4.84,1.31,5.98,3.93l6.99-3.86h1.92l-3.01,10.02c-1.55,5.04-2.33,8.49-2.33,10.36s.69,2.94,2.08,2.94c.89,0,1.87-.47,2.94-1.42,1.07-.95,2.57-2.39,4.51-4.32v3.93Zm-25.02,1.88c2.28,0,4.43-1.94,6.44-5.83,2.02-3.88,3.02-7.47,3.02-10.75,0-1.28-.29-2.27-.85-2.99-.57-.72-1.33-1.08-2.29-1.08-2.28,0-4.44,1.94-6.48,5.81-2.04,3.87-3.06,7.44-3.06,10.7,0,1.23,.3,2.23,.91,2.99,.6,.76,1.37,1.15,2.31,1.15Z"/></g></g></g><g id="_반짝이"><polygon class="cls-6" points="287.93 993 300.13 1040.36 339.43 1050.09 300.13 1060.76 287.93 1109 275.07 1060.76 236.42 1050.09 275.07 1040.36 287.93 993"/><polygon class="cls-6" points="813.93 831 826.13 878.36 865.43 888.09 826.13 898.76 813.93 947 801.07 898.76 762.42 888.09 801.07 878.36 813.93 831"/><circle class="cls-7" cx="221" cy="1111" r="12"/><circle class="cls-7" cx="864.5" cy="955.5" r="10.5"/><circle class="cls-6" cx="852" cy="1002" r="8"/><circle class="cls-7" cx="751.5" cy="1061.5" r="6.5"/><circle class="cls-7" cx="263" cy="880" r="8"/><circle class="cls-6" cx="304" cy="845" r="7"/><circle class="cls-6" cx="213.5" cy="1188.5" r="6.5"/></g><g id="_컵_퀸"><path class="cls-3" d="M396.97,1235.62c1.21-4.71,3.6-14.04-1.81-20.95-5.43-6.92-15.42-7.2-16.52-7.22-.95-.01-1.85,.04-2.7,.13-.05,.09-.1,.18-.15,.27-5.73,10.35-12.67,20.16-20.61,29.17-.7,.8-1.81,1.04-2.75,.69-.28-.1-.54-.26-.78-.47-1.04-.91-1.14-2.49-.22-3.53,7.7-8.73,14.43-18.25,19.99-28.28,.37-.67,.73-1.35,1.09-2.03,.31-1.68,.44-3.59,.14-5.66-1.52-10.52-12.5-15.22-14.32-16-1.57-.67-12.57-5.17-22.82,1.11-3.2,1.96-5.43,4.42-6.97,6.64-.8,3.89-1.35,7.86-1.61,11.81-.51,7.81,.05,15.7,1.65,23.44,.28,1.35-.59,2.67-1.94,2.95-.48,.1-.95,.05-1.38-.1-.78-.29-1.4-.96-1.58-1.84-1.69-8.18-2.28-16.51-1.74-24.78,.21-3.24,.61-6.48,1.17-9.69-2.07-1.8-5.13-3.81-9.24-4.76-6.69-1.54-14.02,.24-18.83,4.73-5.73,5.34-5.91,12.7-6.15,22.25-.16,6.41-.28,16.55,5.68,27.73,6.42,12.03,16.05,18.05,20.18,20.32-3.78,2.51-7.56,5.01-11.34,7.52,2.8,2.57,7,5.96,12.66,8.98,9.48,5.07,17.87,6.36,20.97,6.74,7.3,.9,13.62,.28,18.37-.63-1.84-4.6-3.69-9.2-5.53-13.8,6.24-.4,15.02-1.96,23.98-7.08,3.67-2.1,18.76-10.72,23.11-27.68Z"/><path class="cls-3" d="M839.57,1125.01c-3.13-4.95-9.33-14.74-19.85-15.7-10.55-.96-19.03,7.57-19.95,8.52-.8,.83-1.49,1.66-2.11,2.47,.04,.12,.08,.24,.12,.36,4.34,13.56,7.22,27.74,8.56,42.12,.12,1.28-.58,2.44-1.66,2.98-.32,.16-.68,.26-1.05,.3-1.65,.15-3.12-1.06-3.27-2.72-1.3-13.95-4.09-27.7-8.3-40.85-.28-.88-.58-1.75-.88-2.63-1.21-1.66-2.78-3.35-4.84-4.79-10.47-7.35-23.66-1.6-25.83-.65-1.88,.82-14.9,6.75-17.86,20.91-.92,4.42-.61,8.41,.06,11.59,2.75,3.91,5.77,7.66,9.02,11.15,6.43,6.89,13.8,12.91,21.9,17.89,1.42,.87,1.86,2.72,.99,4.14-.31,.5-.74,.88-1.23,1.12-.9,.44-2,.43-2.91-.13-8.56-5.26-16.35-11.63-23.15-18.91-2.66-2.85-5.17-5.88-7.52-9.01-3.28,.33-7.57,1.35-11.79,4.18-6.87,4.59-11.36,12.49-11.39,20.4-.05,9.43,6.25,15.66,14.43,23.75,5.49,5.43,14.27,13.9,28.99,17.89,15.84,4.3,29.06,.83,34.45-.92-.92,5.38-1.84,10.76-2.76,16.14,4.57-.33,11-1.22,18.32-3.69,12.27-4.13,20.31-10.42,23.2-12.81,6.81-5.66,11.49-11.7,14.61-16.62-5.55-2.18-11.1-4.36-16.66-6.53,4.8-5.8,10.67-14.78,13.58-26.85,1.19-4.95,6.08-25.28-5.19-43.08Z"/><path class="cls-3" d="M772.31,1280.61c-.25-3.34-.75-9.96-5.8-13.26-5.07-3.32-11.64-1.29-12.37-1.06-.62,.2-1.2,.43-1.73,.68-.01,.07-.02,.14-.04,.21-1.45,8.02-3.81,15.95-7,23.57-.28,.68-.95,1.08-1.64,1.06-.2,0-.41-.05-.61-.13-.88-.37-1.29-1.38-.92-2.25,3.09-7.4,5.38-15.09,6.79-22.86,.09-.52,.18-1.04,.26-1.56-.16-1.16-.51-2.44-1.16-3.72-3.31-6.53-11.51-7.17-12.87-7.27-1.17-.09-9.34-.59-14.64,5.76-1.65,1.98-2.57,4.08-3.08,5.87,.34,2.72,.85,5.42,1.56,8.06,1.39,5.21,3.5,10.23,6.25,14.92,.48,.82,.21,1.87-.61,2.36-.29,.17-.61,.25-.92,.24-.57-.02-1.12-.32-1.43-.85-2.91-4.96-5.13-10.27-6.61-15.77-.58-2.16-1.03-4.36-1.38-6.58-1.75-.72-4.19-1.35-7.08-1.06-4.7,.47-9.09,3.26-11.24,7.24-2.56,4.75-1.05,9.59,.9,15.87,1.31,4.21,3.47,10.86,9.83,16.83,6.84,6.43,14.45,8.23,17.65,8.8-1.91,2.47-3.82,4.94-5.73,7.41,2.4,1.06,5.88,2.34,10.24,3.06,7.3,1.21,13.06,.2,15.16-.23,4.96-1.02,8.95-2.82,11.84-4.47-2.22-2.59-4.44-5.18-6.66-7.78,3.98-1.64,9.36-4.59,14.07-9.91,1.93-2.18,9.87-11.13,8.96-23.15Z"/><g><path class="cls-2" d="M687.58,540.52c-4.03,7.89-2.83,15.93-2.02,19.54-6.6-2.47-12.31-3.18-16.17-3.37-5.06-.25-10.88-.46-16.85,2.7-1.44,.76-3.1,1.66-4.72,3.37-5.2,5.5-4.33,13.44-4.04,15.5,1.7-.6,13.43-4.56,22.91,2.02,5.13,3.56,7.19,8.53,8.09,10.78,1.12,2.82,3.91,11.12-4.72,35.71-6.32,18.02-9.64,27.08-17.52,29.65-7.7,2.51-15.65-1.7-17.52-2.7-6.29-3.33-9.38-8.28-13.48-14.82-2.51-4.02-5.75-10.1-8.09-18.19-3.02,5.65-10.26,17.93-20.89,24.93-3.26,2.15-6.15,3.35-9.43,3.37-5.87,.04-10.21-3.7-12.13-5.39-7.77-6.87-10.15-17.12-13.48-36.39-1.77-10.23-3.63-21.98-5.39-35.04,3.03-1.98,9.14-6.59,12.8-14.82,1.71-3.84,2.41-7.4,2.7-10.11,1.95-.31,6.43-.74,11.46,1.35,6.08,2.52,9.13,7.13,10.11,8.76,2.3-16.07-3.34-29.2-10.78-31.67-2.27-.76-7.66-1.49-13.48,0-2.3,.59-4.13,1.39-5.39,2.02,.19-3.46,.27-13.22-6.06-22.91-4.2-6.43-9.45-10.13-12.82-12.07,0-.24,0-.49,.01-.73-.21,.11-.44,.23-.67,.36-.24-.13-.46-.25-.67-.36,0,.24,0,.49,.01,.73-3.37,1.94-8.62,5.64-12.82,12.07-6.33,9.7-6.25,19.45-6.06,22.91-1.26-.63-3.09-1.43-5.39-2.02-5.82-1.49-11.2-.76-13.48,0-7.44,2.47-13.08,15.6-10.78,31.67,.97-1.63,4.03-6.24,10.11-8.76,5.03-2.09,9.51-1.65,11.46-1.35,.29,2.71,.99,6.27,2.7,10.11,3.67,8.24,9.77,12.85,12.8,14.82-1.76,13.06-3.62,24.81-5.39,35.04-3.33,19.27-5.71,29.51-13.48,36.39-1.92,1.7-6.26,5.43-12.13,5.39-3.28-.02-6.17-1.22-9.43-3.37-10.63-7.01-17.87-19.29-20.89-24.93-2.34,8.1-5.57,14.18-8.09,18.19-4.09,6.54-7.19,11.49-13.48,14.82-1.87,.99-9.82,5.21-17.52,2.7-7.88-2.57-11.2-11.63-17.52-29.65-8.63-24.6-5.84-32.9-4.72-35.71,.9-2.26,2.96-7.22,8.09-10.78,9.48-6.58,21.21-2.63,22.91-2.02,.29-2.06,1.15-10-4.04-15.5-1.62-1.71-3.27-2.61-4.72-3.37-5.97-3.16-11.79-2.94-16.85-2.7-3.86,.19-9.57,.9-16.17,3.37,.8-3.61,2.01-11.66-2.02-19.54-5.96-11.65-20.9-18.17-37.06-15.5,14.82,64.92,29.65,129.83,44.47,194.75,45.15-.45,95.01-.22,140.16-.67,45.15,.45,95.01,.22,140.16,.67,14.82-64.92,29.65-129.83,44.47-194.75-16.17-2.67-31.11,3.85-37.06,15.5Z"/><rect class="cls-2" x="401.52" y="733.92" width="276.96" height="19.54"/><polygon class="cls-4" points="537.46 621.93 544.36 673.4 562.94 664.56 554.11 683.14 620.07 690.04 554.11 696.93 562.94 715.51 544.36 706.68 537.46 773 530.57 706.68 511.99 715.51 520.82 696.93 459.93 690.04 520.82 683.14 511.99 664.56 530.57 673.4 537.46 621.93"/></g><path class="cls-7" d="M736.24,894.04c-8.06-12.49-20.58-18.18-23.01-19.19-3.6-1.5-11.04-3.97-20.41-3.85-8.07,.13-15.09,2.14-20.92,4.79v-22.8H408.09v22.8c-5.83-2.65-12.85-4.66-20.92-4.79-9.37-.13-16.81,2.35-20.41,3.85-2.43,1.01-14.95,6.7-23.01,19.19-12.36,19.16-6.09,41.55-2.35,54.93,6.06,21.65,17.7,36.17,22.42,41.4,16.43,18.21,36.17,26.53,50.45,30.33,14.21,44.67,51.57,79.02,97.98,88.95-5.4,2.37-9.19,7.77-9.19,14.01h0c0,8.42,6.89,15.3,15.3,15.3h2.18v.03h-7.86c-6.6,0-12,5.4-12,12v10h-5.38c-6.6,0-12,5.4-12,12s5.4,12,12,12h5.38v11c0,6.6,5.4,12,12,12h7.86v47.89l-91.87,37.14h91.87v.54h38.91v-.54h91.87l-91.87-37.14v-47.89h8.23c6.6,0,12-5.4,12-12v-11h5.38c6.6,0,12-5.4,12-12s-5.4-12-12-12h-5.38v-10c0-6.6-5.4-12-12-12h-8.23v-.03h2.18c8.42,0,15.3-6.89,15.3-15.3h0c0-6.25-3.8-11.64-9.19-14.01,46.41-9.94,83.77-44.28,97.98-88.95,14.28-3.8,34.02-12.12,50.45-30.33,4.72-5.24,16.36-19.75,22.42-41.4,3.75-13.38,10.01-35.76-2.35-54.93Zm-356.08,81.59c-3.68-4.08-12.77-15.43-17.58-32.6-3.27-11.69-7.34-26.23-.35-37.07,4.7-7.29,12.91-10.78,12.99-10.81,1.62-.68,6-2.25,11.59-2.15,9.88,.16,17.39,5.31,21.27,8.69v78.99c0,5.09,.29,10.12,.85,15.06-9.31-3.85-19.72-10.06-28.78-20.11Zm163.09,206.99c2.21,1.04,3.74,3.28,3.74,5.88,0,3.59-2.91,6.5-6.5,6.5s-6.5-2.91-6.5-6.5c0-2.6,1.53-4.84,3.74-5.88-4.46-1.21-7.74-5.28-7.74-10.12s3.28-8.91,7.74-10.12c-2.21-1.04-3.74-3.28-3.74-5.88,0-3.59,2.91-6.5,6.5-6.5s6.5,2.91,6.5,6.5c0,2.6-1.53,4.84-3.74,5.88,4.46,1.21,7.74,5.28,7.74,10.12s-3.28,8.91-7.74,10.12Zm30.32-178.87l-24.13-11.47-8.95,57.58-8.95-57.58-24.13,11.47,11.47-24.13-55.59-8.95,55.59-8.95-11.47-24.13,24.13,11.47,8.95-53.14,8.95,53.14,24.13-11.47-11.47,24.13,54.61,8.95-54.61,8.95,11.47,24.13Zm143.83-60.72c-4.8,17.16-13.89,28.52-17.58,32.6-9.06,10.04-19.47,16.26-28.78,20.11,.56-4.94,.85-9.97,.85-15.06v-78.99c3.88-3.38,11.39-8.54,21.27-8.69,5.59-.1,9.97,1.48,11.59,2.15,.08,.03,8.29,3.52,12.99,10.81,6.99,10.84,2.92,25.38-.35,37.07Z"/></g></svg>