<?xml version="1.0" encoding="UTF-8"?><svg xmlns="http://www.w3.org/2000/svg" viewBox="0 0 1080 1944"><defs><style>.cls-1{fill:#fff;}.cls-2{fill:#f6ef84;}.cls-3{fill:#3f3730;}.cls-4{fill:#4c5fa9;}.cls-5{fill:none;stroke:#3f3730;stroke-linecap:round;stroke-miterlimit:10;stroke-width:6px;}.cls-6{fill:#bad6eb;}.cls-7{fill:#c8c0de;}.cls-8{fill:#b1d4f0;}</style></defs><g id="_배경_텍스트"><g><rect class="cls-6" width="1080" height="1944"/><rect class="cls-1" x="74.84" y="186.39" width="930.33" height="1606.64" rx="65.21" ry="65.21"/><g><path class="cls-3" d="M301.58,1664.47c-8.24,8.77-15.79,13.16-22.67,13.16-3.8,0-6.8-1.34-9.02-4.03-2.22-2.69-3.46-6.52-3.71-11.49-4.33,5.26-8.17,9.17-11.52,11.71-3.35,2.54-6.92,3.81-10.71,3.81-4.87,0-8.78-2.1-11.74-6.31-2.95-4.21-4.43-9.82-4.43-16.84,0-8.38,1.93-17.02,5.8-25.92,3.87-8.9,9.6-15.92,17.19-21.08,7.59-5.16,16.79-7.73,27.61-7.73,8.09,0,15.42,1.09,21.97,3.28v3.54c-5.34,6.23-9.8,14.95-13.4,26.16-3.6,11.21-5.4,19.75-5.4,25.62,0,2.87,.58,5.08,1.75,6.66,1.16,1.58,2.78,2.36,4.86,2.36,3.72,0,8.2-3.03,13.43-9.08v6.18Zm-15.63-57.9c-3.29-1.79-6.84-2.69-10.63-2.69-5.98,0-11.37,2.5-16.17,7.49-4.8,5-8.58,11.61-11.36,19.85-2.77,8.24-4.16,15.38-4.16,21.43,0,4.05,.78,7.33,2.34,9.86,1.56,2.53,3.55,3.79,5.99,3.79,4.22,0,9.08-3.85,14.56-11.55,2.26-20.2,8.74-36.25,19.44-48.18Z"/><path class="cls-3" d="M341.7,1664.42c-4.58,4.51-8.78,7.82-12.6,9.94-3.81,2.11-7.8,3.17-11.95,3.17-4.66,0-8.5-1.51-11.52-4.54s-4.54-6.87-4.54-11.52c0-7.63,2.78-14.67,8.35-21.13,5.57-6.46,11.59-9.7,18.07-9.7,3.19,0,5.78,.89,7.79,2.66,2,1.77,3.01,4.07,3.01,6.9,0,1-.19,1.75-.56,2.26-.38,.5-1.08,1-2.12,1.5l-6.23,2.95c-.75,.36-1.31,.54-1.67,.54-.5,0-.75-.36-.75-1.07,0-.29,.11-1.23,.32-2.82,.21-1.59,.32-2.57,.32-2.93,0-1.58-.33-2.85-.99-3.81-.66-.97-1.55-1.45-2.66-1.45-2.61,0-5,1.93-7.17,5.8-2.17,3.87-3.25,8.27-3.25,13.21,0,4.26,1.02,7.66,3.06,10.21,2.04,2.54,4.76,3.81,8.16,3.81,2.9,0,5.63-.83,8.19-2.5,2.56-1.67,5.47-4.22,8.73-7.65v6.18Z"/><path class="cls-3" d="M381.88,1664.42c-4.55,4.48-8.63,7.78-12.25,9.91-3.62,2.13-7.61,3.2-11.98,3.2-4.87,0-8.8-1.56-11.79-4.67-2.99-3.12-4.48-7.21-4.48-12.3,0-7.59,2.63-14.46,7.9-20.6,5.26-6.14,11.1-9.21,17.51-9.21,3.33,0,6,.86,8,2.58,2,1.72,3.01,3.97,3.01,6.77,0,7.41-7.88,13.43-23.63,18.05,1.43,6.98,5.17,10.47,11.23,10.47,2.36,0,4.62-.64,6.77-1.91,2.15-1.27,5.39-4.09,9.72-8.46v6.18Zm-28.14-9.94c9.17-2.58,13.75-7.34,13.75-14.29,0-3.44-1.25-5.16-3.76-5.16-2.36,0-4.62,1.8-6.77,5.4-2.15,3.6-3.22,8.28-3.22,14.04Z"/><path class="cls-3" d="M457.61,1664.42c-1.83,1.61-3.6,2.75-5.32,3.41-1.72,.66-3.08,.99-4.08,.99-2.58,0-5.14-1-7.68-3.01-5.16,7.81-11.06,11.71-17.72,11.71-4.15,0-7.52-1.56-10.1-4.67s-3.87-7.25-3.87-12.41c0-8.16,2.9-15.17,8.7-21.03,5.8-5.85,12.73-8.78,20.79-8.78,3.04,0,5.27,.33,6.69,.99,1.42,.66,2.28,1.44,2.61,2.34,.32,.9,.48,2.02,.48,3.38,0,6.7-1.83,14.91-5.48,24.65,1.83,1.68,3.74,2.52,5.75,2.52,2.4,0,5.48-2.09,9.24-6.28v6.18Zm-17.72-30.02c-.54-.21-1.31-.32-2.31-.32-4.66,0-8.3,2.44-10.93,7.3-2.63,4.87-3.95,10.56-3.95,17.08,0,3.62,.57,6.43,1.72,8.43,1.15,2.01,2.74,3.01,4.78,3.01,2.54,0,5.3-2.34,8.27-7.04-3.37-4.22-5.05-8.77-5.05-13.64,0-5.73,2.49-10.67,7.47-14.82Z"/><path class="cls-3" d="M501.17,1664.42c-3.72,4.19-7.4,7.42-11.05,9.69-3.65,2.27-6.9,3.41-9.76,3.41-1.36,0-3.22-.52-5.58-1.55-1.51,7.88-2.84,16.38-3.99,25.5-3.73,.5-8.21,1.27-13.44,2.31,1.15-9.81,3.13-22.54,5.96-38.19-.39-.68-1.09-2.4-2.09-5.16l-3.6,3.97h-1.24v-4.83l10.24-10.62c1.95-9.61,3.53-16.56,4.75-20.86,1.22-4.3,2.92-9.05,5.1-14.26,2.18-5.21,3.56-8.2,4.14-8.97,.57-.77,1.96-1.5,4.16-2.2,2.2-.7,4.56-1.36,7.06-1.99,2.51-.63,3.85-.94,4.03-.94,1.36,0,2.47,.89,3.33,2.66s1.29,4.1,1.29,7c0,5.01-1.32,9.84-3.97,14.49s-7.64,10.37-15,17.17l-4.51,22.45c1.75,3.75,4.38,5.63,7.88,5.63,5,0,10.44-3.63,16.3-10.9v6.18Zm-18.04-30.61c4.19-3.65,7.47-7.58,9.85-11.79s3.57-8.08,3.57-11.63c0-1.5-.28-2.74-.83-3.71-.55-.97-1.24-1.45-2.06-1.45-1.57,0-3.17,2.06-4.79,6.18-1.62,4.12-3.54,11.58-5.74,22.4Z"/><path class="cls-3" d="M584.74,1609.42c0,1.4-2.31,4.83-6.93,10.31h-.97c-.72-.29-1.16-1.34-1.34-3.17-.39-3.69-1.67-6.71-3.81-9.05-2.15-2.34-4.73-3.52-7.73-3.52-2.83,0-5.26,1.03-7.3,3.08-2.04,2.06-3.06,4.52-3.06,7.38,0,2.07,.65,4.3,1.94,6.68,1.3,2.38,4.65,6.15,10.07,11.31,5.42,5.17,8.9,9.28,10.44,12.34,1.54,3.06,2.31,5.97,2.31,8.73,0,6.37-2.77,11.99-8.3,16.84-5.53,4.85-12,7.28-19.42,7.28-6.12,0-11.17-1.42-15.15-4.27-3.97-2.85-5.96-5.16-5.96-6.96,0-1,1.09-3.33,3.28-6.98,2.18-3.65,3.44-5.48,3.76-5.48,1.15,0,1.96,.33,2.44,.99,.48,.66,.81,1.89,.99,3.68,.54,5.59,1.89,9.44,4.05,11.55,2.17,2.11,4.99,3.17,8.46,3.17,3.79,0,7.11-1.31,9.94-3.94,2.83-2.63,4.24-5.68,4.24-9.15,0-1.79-.55-3.69-1.65-5.71-1.1-2.02-4.2-5.46-9.29-10.32-5.1-4.86-8.43-8.97-10.01-12.34-1.58-3.37-2.36-6.64-2.36-9.83,0-5.55,2.09-10.65,6.28-15.31,4.19-4.65,9.76-6.98,16.7-6.98,5.26,0,9.64,1.21,13.13,3.63,3.49,2.42,5.24,4.43,5.24,6.04Z"/><path class="cls-3" d="M665.04,1664.42c-1.72,1.43-3.44,2.45-5.16,3.06-1.72,.61-3.04,.91-3.97,.91-2.61,0-5.17-1-7.68-3.01-6.52,8.09-13.23,12.14-20.14,12.14-5.08,0-8.72-2.79-10.9-8.38-4.8,5.59-9.97,8.38-15.52,8.38-3.62,0-6.46-1.19-8.54-3.57-2.08-2.38-3.12-5.67-3.12-9.86,0-4.51,.64-9.09,1.91-13.75,1.27-4.65,3.21-10.35,5.83-17.08l14.16-2.63-3.97,11.97c-3.37,10.38-5.04,17.54-5.03,21.48,0,1.86,.45,3.39,1.34,4.57,.89,1.18,2.02,1.77,3.38,1.77,2.86,0,5.73-2.22,8.59-6.66,0-5.62,1.02-11.46,3.06-17.51l4.4-13,14.38-2.63-6.02,18.58c-1.94,5.98-2.9,10.71-2.9,14.18,0,2.11,.47,3.8,1.4,5.05s2.17,1.88,3.71,1.88c1.9,0,3.69-.7,5.38-2.09,1.68-1.4,3.58-3.51,5.7-6.34-1.9-3.47-2.85-7.07-2.85-10.8,0-5.37,1.34-10.12,4.03-14.26,2.69-4.13,5.71-6.2,9.08-6.2,2.33,0,3.49,1.75,3.49,5.26,0,7.56-2.92,16.11-8.75,25.67,1.79,1.68,3.69,2.52,5.69,2.52,2.4,0,5.41-1.95,9.02-5.85v6.18Z"/><path class="cls-3" d="M713.22,1664.42c-1.83,1.61-3.6,2.75-5.32,3.41-1.72,.66-3.08,.99-4.08,.99-2.58,0-5.14-1-7.68-3.01-5.16,7.81-11.06,11.71-17.72,11.71-4.15,0-7.52-1.56-10.1-4.67s-3.87-7.25-3.87-12.41c0-8.16,2.9-15.17,8.7-21.03,5.8-5.85,12.73-8.78,20.79-8.78,3.04,0,5.27,.33,6.69,.99,1.42,.66,2.28,1.44,2.61,2.34,.32,.9,.48,2.02,.48,3.38,0,6.7-1.83,14.91-5.48,24.65,1.83,1.68,3.74,2.52,5.75,2.52,2.4,0,5.48-2.09,9.24-6.28v6.18Zm-17.72-30.02c-.54-.21-1.31-.32-2.31-.32-4.66,0-8.3,2.44-10.93,7.3-2.63,4.87-3.95,10.56-3.95,17.08,0,3.62,.57,6.43,1.72,8.43,1.15,2.01,2.74,3.01,4.78,3.01,2.54,0,5.3-2.34,8.27-7.04-3.37-4.22-5.05-8.77-5.05-13.64,0-5.73,2.49-10.67,7.47-14.82Z"/><path class="cls-3" d="M753.34,1664.42c-8.99,8.81-15.92,13.21-20.79,13.21-2.18,0-4.03-.92-5.53-2.77-1.5-1.84-2.26-4.13-2.26-6.85,0-5.05,2.7-11.82,8.11-20.3-2.65,1.36-5.55,2.31-8.7,2.85-2.33,4.3-5.98,8.92-10.96,13.86h-1.24v-4.83c2.79-2.9,5.32-6.02,7.57-9.35-3.08-1.36-4.62-3.38-4.62-6.07s.94-5.7,2.82-8.84c1.88-3.13,4.47-4.7,7.76-4.7,2.79,0,4.19,1.43,4.19,4.3,0,2.26-.81,5.48-2.42,9.67,5.94-.64,11.14-5.19,15.58-13.64l4.89-.21-5,13.75c-2.08,5.8-3.42,9.75-4.03,11.84-.61,2.09-.91,3.95-.91,5.56,0,1.5,.35,2.7,1.05,3.6,.7,.9,1.64,1.34,2.82,1.34,1.29,0,2.52-.44,3.71-1.32,1.18-.88,3.83-3.3,7.95-7.28v6.18Z"/><path class="cls-3" d="M810.7,1664.42c-5.16,5.12-9.09,8.58-11.79,10.39-2.7,1.81-5.09,2.71-7.17,2.71-2.54,0-4.56-1.24-6.04-3.71-1.49-2.47-2.25-6.09-2.28-10.85-2.94,4.76-6.13,8.38-9.59,10.85-3.46,2.47-6.58,3.71-9.37,3.71-3.04,0-5.73-1.44-8.06-4.32-2.33-2.88-3.49-6.26-3.49-10.12,0-7.98,2.91-15.39,8.73-22.21,5.82-6.82,12.08-10.23,18.77-10.23,1.86,0,3.32,.27,4.38,.81,1.06,.54,2.21,1.45,3.46,2.74l7.68-32.12c6.27-1.47,10.5-2.2,12.69-2.2,.72,0,1.08,.29,1.08,.86,0,.39-.89,4.1-2.68,11.12-7.16,28.07-10.73,45.01-10.73,50.81,0,1.36,.29,2.45,.86,3.28,.57,.82,1.32,1.23,2.25,1.23,2.29,0,6.06-2.97,11.31-8.92v6.18Zm-38.83,2.85c3.51,0,6.79-2.97,9.83-8.92,3.04-5.94,4.57-11.51,4.57-16.7,0-2.11-.47-3.79-1.42-5.05-.95-1.25-2.19-1.88-3.73-1.88-3.33,0-6.55,3.11-9.67,9.32-3.12,6.21-4.67,11.83-4.67,16.84,0,1.97,.46,3.53,1.37,4.67,.91,1.15,2.16,1.72,3.73,1.72Z"/><path class="cls-3" d="M827.19,1632.94c2.47-.64,4.96-1.17,7.47-1.58,2.51-.41,4.01-.62,4.51-.62,.36,0,.54,.14,.54,.43,0,.54-.14,1.09-.43,1.66-.57,1.65-.86,3.22-.86,4.72,0,1.86,1.08,4.4,3.23,7.63,2.15,3.22,3.22,6.22,3.22,8.97,0,5.48-2.62,10.76-7.87,15.84-5.25,5.08-10.68,7.63-16.3,7.63-2.44,0-4.66-.64-6.66-1.93-2.01-1.29-3.01-2.67-3.01-4.14,0-.86,.99-2.49,2.98-4.89,1.99-2.4,3.41-3.6,4.27-3.6,1.15,0,2.17,1.47,3.06,4.4,.89,2.94,2.43,4.4,4.62,4.4s4.23-1.01,6.15-3.04c1.92-2.02,2.87-4.2,2.87-6.53,0-2.26-1.21-5.26-3.65-9.02-2.44-3.76-4.05-6.91-4.84-9.45-4.15,6.7-9.42,13.55-15.79,20.57h-1.24v-4.83c8.77-9.35,14.68-18.23,17.72-26.64Z"/></g><g><path class="cls-1" d="M410.88,142.03c-5.1,5.49-9.75,8.24-13.95,8.24-2.55,0-4.5-1.23-5.83-3.69-1.33-2.46-2-5.75-2-9.88,0-3.19,.65-7.58,1.96-13.16,1.31-5.58,3-10.28,5.08-14.08l1.98-3.55c-2.71,2.83-4.93,5.92-6.67,9.28-1.73,3.36-3.8,8.06-6.2,14.1-2.4,6.04-4.22,10.15-5.45,12.34s-2.41,3.97-3.54,5.35c-1.13,1.38-2.13,2.27-3.01,2.68-.88,.41-2.41,.62-4.6,.62-.84,0-1.26-.23-1.26-.68,0-.05,.15-.76,.45-2.15,.3-1.39,.61-3.62,.92-6.68s.54-8.27,.68-15.62,1.21-13.64,3.21-18.88c-2.14,2.44-4.33,8.11-6.57,17.02l-.86,3.35c-2.35,9.27-5.04,15.53-8.08,18.78-3.03,3.25-6.01,4.87-8.93,4.87-1.8,0-3.39-.57-4.76-1.71-1.37-1.14-2.05-2.45-2.05-3.93,0-1.14,.82-2.41,2.46-3.83,1.64-1.41,2.68-2.12,3.11-2.12,.5,0,.83,.17,.99,.51,.16,.34,.37,1.28,.62,2.82s.63,2.54,1.15,3.01c.51,.47,1.16,.7,1.94,.7,1.76,0,3.7-1.76,5.83-5.28s4.07-8.96,5.83-16.32l.99-4.13c.8-3.37,1.59-6.06,2.37-8.07,.78-2.01,1.8-4.01,3.08-6.02,1.85-2.87,2.99-4.4,3.41-4.6,.42-.19,1.21-.35,2.38-.48s2.32-.19,3.49-.19c.46,0,.68,.26,.68,.79,0,.25-.07,.76-.21,1.54-.45,3.19-.66,6.39-.64,9.6l.07,9.16c.04,7.98-.59,14.41-1.91,19.31,1.21-1.46,2.96-5.22,5.26-11.28,3.33-8.59,6.36-15.04,9.09-19.35,1.3-2.07,2.87-4.06,4.7-5.96,1.83-1.9,3.1-2.92,3.81-3.06,2.42-.46,4.45-.68,6.12-.68,.62,0,.92,.17,.92,.51,0,.48-.38,1.55-1.12,3.21-1.77,4.01-3.43,9.44-4.96,16.27s-2.31,12.28-2.32,16.33c0,4.58,1.4,6.87,4.2,6.87,2.28,0,4.99-1.94,8.13-5.81v3.93Z"/><path class="cls-1" d="M427.66,142.03c-5.33,5.61-9.32,8.41-11.96,8.41-1.46,0-2.69-.75-3.69-2.24-1-1.49-1.5-3.37-1.5-5.62,0-4.85,1.64-11.57,4.92-20.17l8.68-1.81h.41l-3.42,10.7c-1.41,4.42-2.12,7.58-2.12,9.47,0,.75,.17,1.36,.5,1.83,.33,.47,.75,.7,1.25,.7,.89,0,1.78-.33,2.68-.97s2.32-2.06,4.26-4.22v3.93Zm-.68-34.79c0,5.47-2.02,8.2-6.05,8.2-1.96,0-3.63-.59-5.02-1.78,1.32-2,2.35-4.26,3.08-6.77,1.8,1.12,3.25,1.68,4.34,1.68,1.23,0,2.45-.45,3.66-1.33Z"/><path class="cls-1" d="M461.22,142.03c-5.26,5.56-9.78,8.34-13.54,8.34-1.53,0-2.76-.54-3.69-1.61-.93-1.07-1.4-2.51-1.4-4.31,0-2.44,1-6.16,3.01-11.18,1.07-2.69,1.61-4.4,1.61-5.13s-.29-1.09-.85-1.09c-.32,0-.74,.16-1.26,.48-.48,.32-1.04,.76-1.67,1.33-.57,.52-1.21,1.16-1.91,1.91-.62,.64-1.28,1.37-1.98,2.19l-1.91,2.22c-.84,1.03-1.37,2.11-1.57,3.25-.34,1.94-.57,3.71-.68,5.33-.07,1.21-.1,2.84-.1,4.89l-7.55,1.78c-.25-3.08-.38-5.37-.38-6.87,0-3.67,.43-7.14,1.28-10.43,.86-3.28,2.23-6.97,4.12-11.07l8.34-1.61c-1.75,4.72-2.91,8.43-3.45,11.14,3.73-4.17,6.7-7.06,8.89-8.67,2.19-1.61,4.15-2.41,5.85-2.41,1.16,0,2.13,.44,2.9,1.31,.77,.88,1.16,1.97,1.16,3.29,0,2.18-.98,5.78-2.94,10.8-1.34,3.44-2.02,5.68-2.02,6.7,0,1.37,.56,2.06,1.68,2.06,1.67,0,4.36-2.2,8.09-6.6v3.93Z"/><path class="cls-1" d="M491.88,142.03c-1.16,1.03-2.29,1.75-3.38,2.17-1.09,.42-1.96,.63-2.6,.63-1.64,0-3.27-.64-4.89-1.91-3.28,4.97-7.04,7.45-11.28,7.45-2.64,0-4.79-.99-6.43-2.97s-2.46-4.62-2.46-7.9c0-5.2,1.85-9.66,5.54-13.38s8.1-5.59,13.23-5.59c1.94,0,3.35,.21,4.25,.63,.9,.42,1.45,.92,1.66,1.49,.21,.57,.31,1.29,.31,2.15,0,4.26-1.16,9.49-3.49,15.69,1.16,1.07,2.38,1.61,3.66,1.61,1.53,0,3.49-1.33,5.88-4v3.93Zm-11.28-19.11c-.34-.14-.83-.21-1.47-.21-2.96,0-5.28,1.55-6.96,4.65-1.67,3.1-2.51,6.72-2.51,10.87,0,2.3,.36,4.09,1.09,5.37,.73,1.28,1.74,1.91,3.04,1.91,1.62,0,3.37-1.49,5.26-4.48-2.14-2.69-3.21-5.58-3.21-8.68,0-3.65,1.58-6.79,4.75-9.43Z"/><path class="cls-1" d="M517.42,142.03c-5.72,5.61-10.13,8.41-13.23,8.41-1.39,0-2.56-.59-3.52-1.76s-1.44-2.63-1.44-4.36c0-3.21,1.72-7.52,5.16-12.92-1.69,.87-3.53,1.47-5.54,1.81-1.48,2.73-3.81,5.67-6.97,8.82h-.79v-3.08c1.78-1.85,3.38-3.83,4.82-5.95-1.96-.87-2.94-2.15-2.94-3.86s.6-3.63,1.79-5.62c1.2-1.99,2.84-2.99,4.94-2.99,1.78,0,2.67,.91,2.67,2.73,0,1.44-.51,3.49-1.54,6.15,3.78-.41,7.09-3.3,9.91-8.68l3.11-.14-3.18,8.75c-1.32,3.69-2.18,6.2-2.56,7.54-.39,1.33-.58,2.51-.58,3.54,0,.96,.22,1.72,.67,2.29,.44,.57,1.04,.86,1.79,.86,.82,0,1.61-.28,2.36-.84s2.44-2.1,5.06-4.63v3.93Z"/><path class="cls-1" d="M582.32,142.06c-5.24,5.58-10.05,8.37-14.42,8.37-2.42,0-4.33-.85-5.74-2.56-1.41-1.71-2.2-4.15-2.36-7.31-2.76,3.35-5.2,5.83-7.33,7.45-2.13,1.62-4.4,2.43-6.82,2.43-3.1,0-5.59-1.34-7.47-4.02-1.88-2.68-2.82-6.25-2.82-10.71,0-5.33,1.23-10.83,3.69-16.49s6.11-10.13,10.94-13.42c4.83-3.28,10.69-4.92,17.57-4.92,5.15,0,9.81,.7,13.98,2.09v2.26c-3.4,3.96-6.24,9.51-8.53,16.64-2.29,7.13-3.44,12.57-3.44,16.3,0,1.82,.37,3.24,1.11,4.24,.74,1,1.77,1.5,3.09,1.5,2.37,0,5.22-1.93,8.54-5.78v3.93Zm-9.95-36.85c-2.1-1.14-4.35-1.71-6.77-1.71-3.81,0-7.24,1.59-10.29,4.77-3.05,3.18-5.46,7.39-7.23,12.63-1.77,5.24-2.65,9.79-2.65,13.64,0,2.57,.5,4.67,1.49,6.27,.99,1.61,2.26,2.41,3.81,2.41,2.69,0,5.78-2.45,9.26-7.35,1.44-12.85,5.56-23.07,12.37-30.66Z"/><path class="cls-1" d="M607.85,142.03c-5.72,5.61-10.13,8.41-13.23,8.41-1.39,0-2.56-.59-3.52-1.76s-1.44-2.63-1.44-4.36c0-3.21,1.72-7.52,5.16-12.92-1.69,.87-3.53,1.47-5.54,1.81-1.48,2.73-3.81,5.67-6.97,8.82h-.79v-3.08c1.78-1.85,3.38-3.83,4.82-5.95-1.96-.87-2.94-2.15-2.94-3.86s.6-3.63,1.79-5.62c1.2-1.99,2.84-2.99,4.94-2.99,1.78,0,2.67,.91,2.67,2.73,0,1.44-.51,3.49-1.54,6.15,3.78-.41,7.09-3.3,9.91-8.68l3.11-.14-3.18,8.75c-1.32,3.69-2.18,6.2-2.56,7.54-.39,1.33-.58,2.51-.58,3.54,0,.96,.22,1.72,.67,2.29,.44,.57,1.04,.86,1.79,.86,.82,0,1.61-.28,2.36-.84s2.44-2.1,5.06-4.63v3.93Z"/><path class="cls-1" d="M633.42,142.03c-2.92,2.87-5.59,4.98-8.02,6.32-2.43,1.34-4.96,2.02-7.6,2.02-2.96,0-5.41-.96-7.33-2.89-1.93-1.92-2.89-4.37-2.89-7.33,0-4.85,1.77-9.34,5.31-13.45,3.54-4.11,7.38-6.17,11.5-6.17,2.03,0,3.68,.56,4.96,1.69,1.28,1.13,1.91,2.59,1.91,4.39,0,.64-.12,1.12-.36,1.44-.24,.32-.69,.64-1.35,.96l-3.96,1.88c-.48,.23-.83,.34-1.06,.34-.32,0-.48-.23-.48-.68,0-.18,.07-.78,.21-1.79,.14-1.01,.21-1.63,.21-1.86,0-1-.21-1.81-.63-2.43s-.99-.92-1.69-.92c-1.66,0-3.18,1.23-4.56,3.69-1.38,2.46-2.07,5.26-2.07,8.41,0,2.71,.65,4.88,1.95,6.49,1.3,1.62,3.03,2.43,5.2,2.43,1.85,0,3.58-.53,5.21-1.59s3.48-2.68,5.55-4.87v3.93Z"/><path class="cls-1" d="M669.92,142.03c-3.65,3.46-6.25,5.72-7.83,6.77-1.57,1.05-3.08,1.57-4.51,1.57-3.6,0-5.3-3.18-5.09-9.54-2.28,3.26-4.38,5.66-6.31,7.21-1.93,1.55-3.91,2.32-5.96,2.32s-3.71-.94-5.11-2.82c-1.4-1.88-2.1-4.19-2.1-6.92,0-3.42,.94-6.68,2.82-9.78,1.88-3.1,4.29-5.61,7.23-7.52s5.54-2.87,7.79-2.87c2.85,0,4.84,1.31,5.98,3.93l6.99-3.86h1.92l-3.01,10.01c-1.55,5.04-2.33,8.49-2.33,10.36,0,1.96,.69,2.94,2.08,2.94,.89,0,1.87-.47,2.94-1.42,1.07-.95,2.57-2.39,4.51-4.32v3.93Zm-25.02,1.88c2.28,0,4.43-1.94,6.44-5.83,2.02-3.88,3.02-7.47,3.02-10.75,0-1.28-.29-2.27-.85-2.99-.57-.72-1.33-1.08-2.29-1.08-2.28,0-4.44,1.94-6.48,5.81-2.04,3.87-3.06,7.44-3.06,10.7,0,1.23,.3,2.23,.91,2.99,.6,.76,1.37,1.15,2.31,1.15Z"/><path class="cls-1" d="M703.46,142.03c-5.26,5.56-9.78,8.34-13.54,8.34-1.53,0-2.76-.54-3.69-1.61-.93-1.07-1.4-2.51-1.4-4.31,0-2.44,1-6.16,3.01-11.18,1.07-2.69,1.61-4.4,1.61-5.13s-.29-1.09-.85-1.09c-.32,0-.74,.16-1.26,.48-.48,.32-1.04,.76-1.67,1.33-.57,.52-1.21,1.16-1.91,1.91-.62,.64-1.28,1.37-1.98,2.19l-1.91,2.22c-.84,1.03-1.37,2.11-1.57,3.25-.34,1.94-.57,3.71-.68,5.33-.07,1.21-.1,2.84-.1,4.89l-7.55,1.78c-.25-3.08-.38-5.37-.38-6.87,0-3.67,.43-7.14,1.28-10.43,.86-3.28,2.23-6.97,4.12-11.07l8.34-1.61c-1.75,4.72-2.91,8.43-3.45,11.14,3.73-4.17,6.7-7.06,8.89-8.67,2.19-1.61,4.15-2.41,5.85-2.41,1.16,0,2.13,.44,2.9,1.31,.77,.88,1.16,1.97,1.16,3.29,0,2.18-.98,5.78-2.94,10.8-1.34,3.44-2.02,5.68-2.02,6.7,0,1.37,.56,2.06,1.68,2.06,1.67,0,4.36-2.2,8.09-6.6v3.93Z"/><path class="cls-1" d="M739.92,142.03c-3.65,3.46-6.25,5.72-7.83,6.77-1.57,1.05-3.08,1.57-4.51,1.57-3.6,0-5.3-3.18-5.09-9.54-2.28,3.26-4.38,5.66-6.31,7.21-1.93,1.55-3.91,2.32-5.96,2.32s-3.71-.94-5.11-2.82c-1.4-1.88-2.1-4.19-2.1-6.92,0-3.42,.94-6.68,2.82-9.78,1.88-3.1,4.29-5.61,7.23-7.52s5.54-2.87,7.79-2.87c2.85,0,4.84,1.31,5.98,3.93l6.99-3.86h1.92l-3.01,10.01c-1.55,5.04-2.33,8.49-2.33,10.36,0,1.96,.69,2.94,2.08,2.94,.89,0,1.87-.47,2.94-1.42,1.07-.95,2.57-2.39,4.51-4.32v3.93Zm-25.02,1.88c2.28,0,4.43-1.94,6.44-5.83,2.02-3.88,3.02-7.47,3.02-10.75,0-1.28-.29-2.27-.85-2.99-.57-.72-1.33-1.08-2.29-1.08-2.28,0-4.44,1.94-6.48,5.81-2.04,3.87-3.06,7.44-3.06,10.7,0,1.23,.3,2.23,.91,2.99,.6,.76,1.37,1.15,2.31,1.15Z"/></g><g><path class="cls-1" d="M472.53,1821.03c0,.89-1.47,3.08-4.41,6.56h-.62c-.46-.18-.74-.85-.85-2.02-.25-2.35-1.06-4.27-2.43-5.76s-3.01-2.24-4.92-2.24c-1.8,0-3.35,.65-4.65,1.96s-1.95,2.87-1.95,4.69c0,1.32,.41,2.74,1.24,4.25,.82,1.51,2.96,3.91,6.41,7.2,3.45,3.29,5.66,5.9,6.64,7.85,.98,1.95,1.47,3.8,1.47,5.55,0,4.06-1.76,7.63-5.28,10.71-3.52,3.09-7.64,4.63-12.36,4.63-3.9,0-7.11-.91-9.64-2.72s-3.79-3.29-3.79-4.43c0-.64,.69-2.12,2.08-4.44,1.39-2.32,2.19-3.49,2.39-3.49,.73,0,1.25,.21,1.55,.63,.31,.42,.52,1.2,.63,2.34,.34,3.55,1.2,6,2.58,7.35,1.38,1.34,3.17,2.02,5.38,2.02,2.42,0,4.52-.84,6.32-2.51,1.8-1.67,2.7-3.61,2.7-5.82,0-1.14-.35-2.35-1.05-3.64-.7-1.29-2.67-3.47-5.91-6.57s-5.37-5.71-6.37-7.85c-1-2.14-1.5-4.23-1.5-6.25,0-3.53,1.33-6.78,4-9.74,2.67-2.96,6.21-4.44,10.63-4.44,3.35,0,6.14,.77,8.36,2.31,2.22,1.54,3.33,2.82,3.33,3.84Z"/><path class="cls-1" d="M523.63,1856.03c-1.09,.91-2.19,1.56-3.28,1.95-1.09,.39-1.94,.58-2.53,.58-1.66,0-3.29-.64-4.89-1.91-4.15,5.15-8.42,7.72-12.82,7.72-3.24,0-5.55-1.78-6.94-5.33-3.05,3.55-6.35,5.33-9.88,5.33-2.3,0-4.11-.76-5.43-2.27-1.32-1.51-1.98-3.61-1.98-6.27,0-2.87,.4-5.79,1.21-8.75,.81-2.96,2.04-6.58,3.71-10.87l9.01-1.67-2.53,7.62c-2.14,6.61-3.21,11.16-3.2,13.67,0,1.19,.28,2.16,.85,2.91,.57,.75,1.29,1.13,2.15,1.13,1.82,0,3.65-1.41,5.47-4.24,0-3.58,.65-7.29,1.95-11.14l2.8-8.27,9.15-1.67-3.83,11.82c-1.23,3.8-1.85,6.81-1.85,9.02,0,1.34,.3,2.42,.89,3.21s1.38,1.2,2.36,1.2c1.21,0,2.35-.44,3.42-1.33,1.07-.89,2.28-2.23,3.63-4.03-1.21-2.21-1.81-4.5-1.81-6.87,0-3.42,.85-6.44,2.56-9.07s3.63-3.95,5.78-3.95c1.48,0,2.22,1.12,2.22,3.35,0,4.81-1.86,10.25-5.57,16.34,1.14,1.07,2.35,1.61,3.62,1.61,1.53,0,3.44-1.24,5.74-3.72v3.93Z"/><path class="cls-1" d="M554.29,1856.03c-1.16,1.03-2.29,1.75-3.38,2.17-1.09,.42-1.96,.63-2.6,.63-1.64,0-3.27-.64-4.89-1.91-3.28,4.97-7.04,7.45-11.28,7.45-2.64,0-4.79-.99-6.43-2.97s-2.46-4.62-2.46-7.9c0-5.2,1.85-9.66,5.54-13.38s8.1-5.59,13.23-5.59c1.94,0,3.35,.21,4.25,.63,.9,.42,1.45,.92,1.66,1.49,.21,.57,.31,1.29,.31,2.15,0,4.26-1.16,9.49-3.49,15.69,1.16,1.07,2.38,1.61,3.66,1.61,1.53,0,3.49-1.33,5.88-4v3.93Zm-11.28-19.11c-.34-.14-.83-.21-1.47-.21-2.96,0-5.28,1.55-6.96,4.65-1.67,3.1-2.51,6.72-2.51,10.87,0,2.3,.36,4.09,1.09,5.37,.73,1.28,1.74,1.91,3.04,1.91,1.62,0,3.37-1.49,5.26-4.48-2.14-2.69-3.21-5.58-3.21-8.68,0-3.65,1.58-6.79,4.75-9.43Z"/><path class="cls-1" d="M579.82,1856.03c-5.72,5.61-10.13,8.41-13.23,8.41-1.39,0-2.56-.59-3.52-1.76s-1.44-2.63-1.44-4.36c0-3.21,1.72-7.52,5.16-12.92-1.69,.87-3.53,1.47-5.54,1.81-1.48,2.73-3.81,5.67-6.97,8.82h-.79v-3.08c1.78-1.85,3.38-3.83,4.82-5.95-1.96-.87-2.94-2.15-2.94-3.86s.6-3.63,1.79-5.62c1.2-1.99,2.84-2.99,4.94-2.99,1.78,0,2.67,.91,2.67,2.73,0,1.44-.51,3.49-1.54,6.15,3.78-.41,7.09-3.3,9.91-8.68l3.11-.14-3.18,8.75c-1.32,3.69-2.18,6.2-2.56,7.54-.39,1.33-.58,2.51-.58,3.54,0,.96,.22,1.72,.67,2.29,.44,.57,1.04,.86,1.79,.86,.82,0,1.61-.28,2.36-.84s2.44-2.1,5.06-4.63v3.93Z"/><path class="cls-1" d="M616.32,1856.03c-3.28,3.26-5.78,5.46-7.5,6.61-1.72,1.15-3.24,1.73-4.56,1.73-1.62,0-2.9-.79-3.84-2.36-.95-1.57-1.43-3.87-1.45-6.9-1.87,3.03-3.9,5.33-6.1,6.9s-4.19,2.36-5.96,2.36c-1.94,0-3.65-.92-5.13-2.75-1.48-1.83-2.22-3.98-2.22-6.44,0-5.08,1.85-9.79,5.55-14.13,3.7-4.34,7.68-6.51,11.95-6.51,1.18,0,2.11,.17,2.79,.51s1.41,.92,2.21,1.74l4.89-20.44c3.99-.93,6.68-1.4,8.07-1.4,.46,0,.68,.18,.68,.55,0,.25-.57,2.61-1.71,7.08-4.55,17.87-6.83,28.64-6.83,32.33,0,.87,.18,1.56,.55,2.08,.36,.52,.84,.79,1.43,.79,1.46,0,3.86-1.89,7.2-5.67v3.93Zm-24.71,1.81c2.23,0,4.32-1.89,6.25-5.67,1.94-3.78,2.91-7.33,2.91-10.63,0-1.34-.3-2.41-.91-3.21-.6-.8-1.4-1.2-2.38-1.2-2.12,0-4.17,1.98-6.15,5.93s-2.97,7.53-2.97,10.71c0,1.25,.29,2.25,.87,2.97,.58,.73,1.37,1.09,2.38,1.09Z"/><path class="cls-1" d="M626.82,1836c1.57-.41,3.16-.75,4.75-1.01,1.59-.26,2.55-.39,2.87-.39,.23,0,.34,.09,.34,.27,0,.34-.09,.69-.27,1.06-.37,1.05-.55,2.05-.55,3.01,0,1.18,.69,2.8,2.05,4.85s2.05,3.96,2.05,5.71c0,3.49-1.67,6.85-5.01,10.08-3.34,3.24-6.8,4.85-10.37,4.85-1.55,0-2.96-.41-4.24-1.23-1.28-.82-1.91-1.7-1.91-2.63,0-.55,.63-1.58,1.9-3.11,1.26-1.53,2.17-2.29,2.72-2.29,.73,0,1.38,.93,1.95,2.8,.57,1.87,1.55,2.8,2.94,2.8s2.69-.64,3.91-1.93,1.83-2.67,1.83-4.15c0-1.44-.77-3.35-2.32-5.74s-2.58-4.4-3.08-6.01c-2.64,4.26-5.99,8.62-10.05,13.09h-.79v-3.08c5.58-5.95,9.34-11.6,11.28-16.95Z"/></g></g></g><g id="_반짝이"><polygon class="cls-8" points="701.75 1010.5 712.43 1051.94 746.82 1060.45 712.43 1069.79 701.75 1112 690.5 1069.79 656.68 1060.45 690.5 1051.94 701.75 1010.5"/><polygon class="cls-7" points="386.78 880.88 399.84 931.56 441.9 941.97 399.84 953.39 386.78 1005 373.02 953.39 331.67 941.97 373.02 931.56 386.78 880.88"/><circle class="cls-8" cx="318.5" cy="994.5" r="10.5"/><circle class="cls-7" cx="300.5" cy="1051.5" r="7.5"/><circle class="cls-7" cx="780.5" cy="1023.5" r="11.5"/><circle class="cls-8" cx="810.5" cy="963.5" r="9.5"/><circle class="cls-7" cx="713.5" cy="911.5" r="6.5"/><circle class="cls-7" cx="256.5" cy="897.5" r="9.5"/></g><g id="_소드_ace"><path class="cls-7" d="M529.11,1204.89c-1.79,.19-3.54,.49-5.26,.88-4.42-15.12-19.1-25.42-35.33-23.73-1.74,.18-3.41,.53-5.05,.96-4.25-16.91-20.38-28.57-38.23-26.72-8.36,.87-15.73,4.56-21.28,10.03-3.19-23.89-24.82-41.07-48.96-38.56-22.13,2.3-38.8,20.36-40.04,41.88-1.77,0-3.55,.07-5.34,.26-26.97,2.8-46.56,26.94-43.76,53.91,.74,7.09,2.96,13.66,6.31,19.45-12.11,6.48-19.74,19.82-18.23,34.33,1.99,19.14,19.12,33.05,38.26,31.06,8.26-.86,15.54-4.54,20.99-9.98,8.85,18.48,28.61,30.3,50.15,28.07,12.08-1.25,22.69-6.72,30.55-14.79,11.56,14.4,29.95,22.83,49.69,20.78,25-2.6,44.46-21.2,49.27-44.58,7.53,4.02,16.31,5.92,25.44,4.97,24.36-2.53,42.06-24.33,39.53-48.69-2.53-24.36-24.33-42.06-48.69-39.53Z"/><path class="cls-7" d="M777.11,1189.89c-1.79,.19-3.54,.49-5.26,.88-4.42-15.12-19.1-25.42-35.33-23.73-1.74,.18-3.41,.53-5.05,.96-4.25-16.91-20.38-28.57-38.23-26.72-8.36,.87-15.73,4.56-21.28,10.03-3.19-23.89-24.82-41.07-48.96-38.56-22.13,2.3-38.8,20.36-40.04,41.88-1.77,0-3.55,.07-5.34,.26-26.97,2.8-46.56,26.94-43.76,53.91,.74,7.09,2.96,13.66,6.31,19.45-12.11,6.48-19.74,19.82-18.23,34.33,1.99,19.14,19.12,33.05,38.26,31.06,8.26-.86,15.54-4.54,20.99-9.98,8.85,18.48,28.61,30.3,50.15,28.07,12.08-1.25,22.69-6.72,30.55-14.79,11.56,14.4,29.95,22.83,49.69,20.78,25-2.6,44.46-21.2,49.27-44.58,7.53,4.02,16.31,5.92,25.44,4.97,24.36-2.53,42.06-24.33,39.53-48.69-2.53-24.36-24.33-42.06-48.69-39.53Z"/><g><circle class="cls-2" cx="540" cy="1334" r="18"/><g><polygon class="cls-8" points="537.5 521.45 521.58 562.5 521.58 1179 537.5 1179 537.5 521.45"/><polygon class="cls-8" points="542.5 521.45 542.5 1179 558.43 1179 558.43 562.5 542.5 521.45"/></g><rect class="cls-3" x="465.57" y="1167" width="148.85" height="32" rx="16" ry="16"/><rect class="cls-3" x="519.57" y="1179" width="40.85" height="149"/><rect class="cls-3" x="511.57" y="1324" width="56.85" height="14" rx="7" ry="7"/><polygon class="cls-2" points="540.25 1145 544.78 1171.92 557.01 1166.11 551.2 1178.34 578.87 1182.87 551.2 1187.41 557.01 1199.64 544.78 1193.83 540.25 1223 535.71 1193.83 523.48 1199.64 529.3 1187.41 501.13 1182.87 529.3 1178.34 523.48 1166.11 535.71 1171.92 540.25 1145"/></g><path class="cls-4" d="M623.2,641.84c-10.17,2.67-17.93,6.9-23.04,10.24,2.48,5.26,5.52,13.5,5.97,23.89,.41,9.32,.84,19.07-5.97,24.75-5.67,4.73-13.92,4.59-19.63,2.56-9.87-3.51-13.36-13.08-14.51-16.21-3.67-10.06-.73-19.05,.85-23.89,3.42-10.46,9.88-17.16,13.65-20.48-13.37-11.98-26.75-23.96-40.12-35.94,0-.25,0-.5,.01-.75-.14,.13-.28,.25-.43,.38-.14-.13-.28-.25-.43-.38,0,.25,0,.5,.01,.75-13.37,11.98-26.74,23.96-40.12,35.94,3.77,3.32,10.23,10.02,13.65,20.48,1.58,4.84,4.52,13.83,.85,23.89-1.14,3.13-4.63,12.71-14.51,16.21-5.71,2.03-13.96,2.17-19.63-2.56-6.81-5.67-6.38-15.42-5.97-24.75,.46-10.39,3.5-18.63,5.97-23.89-5.11-3.34-12.87-7.57-23.04-10.24-8.03-2.11-15.13-2.6-20.48-2.56,7.4,31.57,14.79,63.15,22.19,94.72h162.99c7.4-31.57,14.79-63.15,22.19-94.72-5.35-.04-12.45,.45-20.48,2.56Z"/><g><path class="cls-3" d="M289.61,763.89c-2.73-3.35-8.15-10.99-9.28-21.97-2.02-19.65,11.45-33.28,13.4-35.19,3.23,2.28,10.73,8.26,13.92,18.74,2.93,9.61,2.45,23.66-6.79,32.31-4.02,3.76-8.48,5.37-11.25,6.12Z"/><g><path class="cls-5" d="M447.62,845.45c-16.58,1-43.08,.65-72.23-9.18-51.3-17.31-78.59-53.14-98.5-79.28-12.54-16.47-29.34-42.34-41.27-77.61"/><path class="cls-3" d="M343.09,812.64c-2.14-3.75-6.24-12.18-5.55-23.2,1.23-19.72,16.75-30.96,18.98-32.52,2.82,2.77,9.23,9.91,10.66,20.77,1.32,9.96-1.46,23.74-11.99,30.76-4.58,3.05-9.25,3.91-12.1,4.19Z"/><path class="cls-3" d="M373.09,829.64c-2.14-3.75-6.24-12.18-5.55-23.2,1.23-19.72,16.75-30.96,18.98-32.52,2.82,2.77,9.23,9.91,10.66,20.77,1.32,9.96-1.46,23.74-11.99,30.76-4.58,3.05-9.25,3.91-12.1,4.19Z"/><path class="cls-3" d="M313.16,790.28c-2.01-3.82-5.81-12.39-4.74-23.38,1.92-19.66,17.82-30.35,20.11-31.84,2.72,2.87,8.87,10.22,9.93,21.13,.97,10-2.29,23.68-13.06,30.32-4.68,2.89-9.38,3.58-12.24,3.76Z"/><path class="cls-3" d="M267.62,728.38c-3.27-2.82-9.96-9.39-13-20-5.44-18.99,5.42-34.78,7-37,3.58,1.67,12.01,6.25,17,16,4.58,8.95,6.57,22.86-1,33-3.29,4.41-7.41,6.78-10,8Z"/><path class="cls-3" d="M320.97,813.89c-2.79-3.3-9.29-10.05-19.88-13.19-18.94-5.62-34.83,5.09-37.06,6.65,1.64,3.6,6.13,12.07,15.84,17.15,8.9,4.66,22.8,6.79,33.01-.69,4.44-3.25,6.85-7.34,8.09-9.92Z"/><path class="cls-3" d="M359.97,841.89c-2.79-3.3-9.29-10.05-19.88-13.19-18.94-5.62-34.83,5.09-37.06,6.65,1.64,3.6,6.13,12.07,15.84,17.15,8.9,4.66,22.8,6.79,33.01-.69,4.44-3.25,6.85-7.34,8.09-9.92Z"/><path class="cls-3" d="M290.26,783.09c-2.9-3.2-9.64-9.72-20.33-12.49-19.12-4.95-34.63,6.3-36.81,7.94,1.76,3.54,6.55,11.85,16.43,16.59,9.06,4.35,23.02,5.99,32.96-1.84,4.32-3.4,6.59-7.58,7.74-10.2Z"/><path class="cls-3" d="M270.57,755.91c-2.21-3.71-7.52-11.44-17.44-16.27-17.76-8.65-35.19-.69-37.65,.48,1.03,3.82,4.07,12.91,12.81,19.52,8.02,6.06,21.38,10.44,32.67,4.73,4.91-2.48,7.96-6.12,9.61-8.46Z"/><path class="cls-3" d="M247.79,721.05c-1.52-4.04-5.39-12.58-14.31-19.08-15.96-11.64-34.52-6.87-37.15-6.15,.34,3.94,1.74,13.43,9.18,21.46,6.83,7.37,19.21,14.03,31.33,10.41,5.27-1.58,8.92-4.62,10.95-6.64Z"/><path class="cls-3" d="M237.62,692.38c-3.27-2.82-9.96-9.39-13-20-5.44-18.99,5.42-34.78,7-37,3.58,1.67,12.01,6.25,17,16,4.58,8.95,6.57,22.86-1,33-3.29,4.41-7.41,6.78-10,8Z"/></g></g><g><path class="cls-3" d="M789.63,763.89c2.73-3.35,8.15-10.99,9.28-21.97,2.02-19.65-11.45-33.28-13.4-35.19-3.23,2.28-10.73,8.26-13.92,18.74-2.93,9.61-2.45,23.66,6.79,32.31,4.02,3.76,8.48,5.37,11.25,6.12Z"/><g><path class="cls-5" d="M631.62,845.45c16.58,1,43.08,.65,72.23-9.18,51.3-17.31,78.59-53.14,98.5-79.28,12.54-16.47,29.34-42.34,41.27-77.61"/><path class="cls-3" d="M736.15,812.64c2.14-3.75,6.24-12.18,5.55-23.2-1.23-19.72-16.75-30.96-18.98-32.52-2.82,2.77-9.23,9.91-10.66,20.77-1.32,9.96,1.46,23.74,11.99,30.76,4.58,3.05,9.25,3.91,12.1,4.19Z"/><path class="cls-3" d="M706.15,829.64c2.14-3.75,6.24-12.18,5.55-23.2-1.23-19.72-16.75-30.96-18.98-32.52-2.82,2.77-9.23,9.91-10.66,20.77-1.32,9.96,1.46,23.74,11.99,30.76,4.58,3.05,9.25,3.91,12.1,4.19Z"/><path class="cls-3" d="M766.08,790.28c2.01-3.82,5.81-12.39,4.74-23.38-1.92-19.66-17.82-30.35-20.11-31.84-2.72,2.87-8.87,10.22-9.93,21.13-.97,10,2.29,23.68,13.06,30.32,4.68,2.89,9.38,3.58,12.24,3.76Z"/><path class="cls-3" d="M811.62,728.38c3.27-2.82,9.96-9.39,13-20,5.44-18.99-5.42-34.78-7-37-3.58,1.67-12.01,6.25-17,16-4.58,8.95-6.57,22.86,1,33,3.29,4.41,7.41,6.78,10,8Z"/><path class="cls-3" d="M758.27,813.89c2.79-3.3,9.29-10.05,19.88-13.19,18.94-5.62,34.83,5.09,37.06,6.65-1.64,3.6-6.13,12.07-15.84,17.15-8.9,4.66-22.8,6.79-33.01-.69-4.44-3.25-6.85-7.34-8.09-9.92Z"/><path class="cls-3" d="M719.27,841.89c2.79-3.3,9.29-10.05,19.88-13.19,18.94-5.62,34.83,5.09,37.06,6.65-1.64,3.6-6.13,12.07-15.84,17.15-8.9,4.66-22.8,6.79-33.01-.69-4.44-3.25-6.85-7.34-8.09-9.92Z"/><path class="cls-3" d="M788.98,783.09c2.9-3.2,9.64-9.72,20.33-12.49,19.12-4.95,34.63,6.3,36.81,7.94-1.76,3.54-6.55,11.85-16.43,16.59-9.06,4.35-23.02,5.99-32.96-1.84-4.32-3.4-6.59-7.58-7.74-10.2Z"/><path class="cls-3" d="M808.67,755.91c2.21-3.71,7.52-11.44,17.44-16.27,17.76-8.65,35.19-.69,37.65,.48-1.03,3.82-4.07,12.91-12.81,19.52-8.02,6.06-21.38,10.44-32.67,4.73-4.91-2.48-7.96-6.12-9.61-8.46Z"/><path class="cls-3" d="M831.45,721.05c1.52-4.04,5.39-12.58,14.31-19.08,15.96-11.64,34.52-6.87,37.15-6.15-.34,3.94-1.74,13.43-9.18,21.46-6.83,7.37-19.21,14.03-31.33,10.41-5.27-1.58-8.92-4.62-10.95-6.64Z"/><path class="cls-3" d="M841.62,692.38c3.27-2.82,9.96-9.39,13-20,5.44-18.99-5.42-34.78-7-37-3.58,1.67-12.01,6.25-17,16-4.58,8.95-6.57,22.86,1,33,3.29,4.41,7.41,6.78,10,8Z"/></g></g></g></svg>