<?xml version="1.0" encoding="UTF-8"?><svg xmlns="http://www.w3.org/2000/svg" viewBox="0 0 1080 1944"><defs><style>.cls-1{fill:#fff;}.cls-2{stroke:#3f3730;stroke-miterlimit:10;stroke-width:5px;}.cls-2,.cls-3{fill:#3f3730;}.cls-4{fill:#f6ef84;}.cls-5{fill:#4c5fa9;}.cls-6{fill:#bad6eb;}.cls-7{fill:#c8c0de;}.cls-8{fill:#b1d4f0;}</style></defs><g id="_배경_텍스트"><g><rect class="cls-6" width="1080" height="1944"/><rect class="cls-1" x="74.84" y="186.39" width="930.33" height="1606.64" rx="65.21" ry="65.21"/><path class="cls-2" d="M510.48,1608.73c-.64-1.68-1.24-3.06-1.8-4.14-.56-1.08-1.24-1.94-2.04-2.58-.8-.64-1.72-1.12-2.76-1.44-1.04-.32-2.32-.52-3.84-.6-1.28-.16-1.92-.8-1.92-1.92,0-.48,.14-.9,.42-1.26,.28-.36,.74-.54,1.38-.54h26.76c.64,0,1.12,.2,1.44,.6,.32,.4,.48,.8,.48,1.2,0,.48-.16,.9-.48,1.26-.32,.36-.8,.58-1.44,.66-2.16,.16-3.9,.34-5.22,.54-1.32,.2-2.22,.74-2.7,1.62-.32,.64-.44,1.44-.36,2.4,.08,.96,.4,2.24,.96,3.84l22.08,62.76,23.04-63.36c.56-1.68,.78-3,.66-3.96-.12-.96-.52-1.72-1.2-2.28-.68-.56-1.6-.92-2.76-1.08-1.16-.16-2.5-.32-4.02-.48-.64-.08-1.12-.3-1.44-.66-.32-.36-.48-.78-.48-1.26,0-.4,.14-.8,.42-1.2,.28-.4,.74-.6,1.38-.6h22.92c.64,0,1.12,.2,1.44,.6,.32,.4,.48,.8,.48,1.2,0,1.04-.64,1.68-1.92,1.92-1.6,.24-2.92,.5-3.96,.78-1.04,.28-1.9,.7-2.58,1.26-.68,.56-1.3,1.38-1.86,2.46-.56,1.08-1.16,2.5-1.8,4.26l-27.48,74.64h-5.04l-26.76-74.64Z"/><g><path class="cls-1" d="M410.88,142.03c-5.1,5.49-9.75,8.24-13.95,8.24-2.55,0-4.5-1.23-5.83-3.69-1.33-2.46-2-5.75-2-9.88,0-3.19,.65-7.58,1.96-13.16,1.31-5.58,3-10.28,5.08-14.08l1.98-3.55c-2.71,2.83-4.93,5.92-6.67,9.28-1.73,3.36-3.8,8.06-6.2,14.1-2.4,6.04-4.22,10.15-5.45,12.34s-2.41,3.97-3.54,5.35c-1.13,1.38-2.13,2.27-3.01,2.68-.88,.41-2.41,.62-4.6,.62-.84,0-1.26-.23-1.26-.68,0-.05,.15-.76,.45-2.15,.3-1.39,.61-3.62,.92-6.68s.54-8.27,.68-15.62,1.21-13.64,3.21-18.88c-2.14,2.44-4.33,8.11-6.57,17.02l-.86,3.35c-2.35,9.27-5.04,15.53-8.08,18.78-3.03,3.25-6.01,4.87-8.93,4.87-1.8,0-3.39-.57-4.76-1.71-1.37-1.14-2.05-2.45-2.05-3.93,0-1.14,.82-2.41,2.46-3.83,1.64-1.41,2.68-2.12,3.11-2.12,.5,0,.83,.17,.99,.51,.16,.34,.37,1.28,.62,2.82s.63,2.54,1.15,3.01c.51,.47,1.16,.7,1.94,.7,1.76,0,3.7-1.76,5.83-5.28s4.07-8.96,5.83-16.32l.99-4.13c.8-3.37,1.59-6.06,2.37-8.07,.78-2.01,1.8-4.01,3.08-6.02,1.85-2.87,2.99-4.4,3.41-4.6,.42-.19,1.21-.35,2.38-.48s2.32-.19,3.49-.19c.46,0,.68,.26,.68,.79,0,.25-.07,.76-.21,1.54-.45,3.19-.66,6.39-.64,9.6l.07,9.16c.04,7.98-.59,14.41-1.91,19.31,1.21-1.46,2.96-5.22,5.26-11.28,3.33-8.59,6.36-15.04,9.09-19.35,1.3-2.07,2.87-4.06,4.7-5.96,1.83-1.9,3.1-2.92,3.81-3.06,2.42-.46,4.45-.68,6.12-.68,.62,0,.92,.17,.92,.51,0,.48-.38,1.55-1.12,3.21-1.77,4.01-3.43,9.44-4.96,16.27s-2.31,12.28-2.32,16.33c0,4.58,1.4,6.87,4.2,6.87,2.28,0,4.99-1.94,8.13-5.81v3.93Z"/><path class="cls-1" d="M427.66,142.03c-5.33,5.61-9.32,8.41-11.96,8.41-1.46,0-2.69-.75-3.69-2.24-1-1.49-1.5-3.37-1.5-5.62,0-4.85,1.64-11.57,4.92-20.17l8.68-1.81h.41l-3.42,10.7c-1.41,4.42-2.12,7.58-2.12,9.47,0,.75,.17,1.36,.5,1.83,.33,.47,.75,.7,1.25,.7,.89,0,1.78-.33,2.68-.97s2.32-2.06,4.26-4.22v3.93Zm-.68-34.79c0,5.47-2.02,8.2-6.05,8.2-1.96,0-3.63-.59-5.02-1.78,1.32-2,2.35-4.26,3.08-6.77,1.8,1.12,3.25,1.68,4.34,1.68,1.23,0,2.45-.45,3.66-1.33Z"/><path class="cls-1" d="M461.22,142.03c-5.26,5.56-9.78,8.34-13.54,8.34-1.53,0-2.76-.54-3.69-1.61-.93-1.07-1.4-2.51-1.4-4.31,0-2.44,1-6.16,3.01-11.18,1.07-2.69,1.61-4.4,1.61-5.13s-.29-1.09-.85-1.09c-.32,0-.74,.16-1.26,.48-.48,.32-1.04,.76-1.67,1.33-.57,.52-1.21,1.16-1.91,1.91-.62,.64-1.28,1.37-1.98,2.19l-1.91,2.22c-.84,1.03-1.37,2.11-1.57,3.25-.34,1.94-.57,3.71-.68,5.33-.07,1.21-.1,2.84-.1,4.89l-7.55,1.78c-.25-3.08-.38-5.37-.38-6.87,0-3.67,.43-7.14,1.28-10.43,.86-3.28,2.23-6.97,4.12-11.07l8.34-1.61c-1.75,4.72-2.91,8.43-3.45,11.14,3.73-4.17,6.7-7.06,8.89-8.67,2.19-1.61,4.15-2.41,5.85-2.41,1.16,0,2.13,.44,2.9,1.31,.77,.88,1.16,1.97,1.16,3.29,0,2.18-.98,5.78-2.94,10.8-1.34,3.44-2.02,5.68-2.02,6.7,0,1.37,.56,2.06,1.68,2.06,1.67,0,4.36-2.2,8.09-6.6v3.93Z"/><path class="cls-1" d="M491.88,142.03c-1.16,1.03-2.29,1.75-3.38,2.17-1.09,.42-1.96,.63-2.6,.63-1.64,0-3.27-.64-4.89-1.91-3.28,4.97-7.04,7.45-11.28,7.45-2.64,0-4.79-.99-6.43-2.97s-2.46-4.62-2.46-7.9c0-5.2,1.85-9.66,5.54-13.38s8.1-5.59,13.23-5.59c1.94,0,3.35,.21,4.25,.63,.9,.42,1.45,.92,1.66,1.49,.21,.57,.31,1.29,.31,2.15,0,4.26-1.16,9.49-3.49,15.69,1.16,1.07,2.38,1.61,3.66,1.61,1.53,0,3.49-1.33,5.88-4v3.93Zm-11.28-19.11c-.34-.14-.83-.21-1.47-.21-2.96,0-5.28,1.55-6.96,4.65-1.67,3.1-2.51,6.72-2.51,10.87,0,2.3,.36,4.09,1.09,5.37,.73,1.28,1.74,1.91,3.04,1.91,1.62,0,3.37-1.49,5.26-4.48-2.14-2.69-3.21-5.58-3.21-8.68,0-3.65,1.58-6.79,4.75-9.43Z"/><path class="cls-1" d="M517.42,142.03c-5.72,5.61-10.13,8.41-13.23,8.41-1.39,0-2.56-.59-3.52-1.76s-1.44-2.63-1.44-4.36c0-3.21,1.72-7.52,5.16-12.92-1.69,.87-3.53,1.47-5.54,1.81-1.48,2.73-3.81,5.67-6.97,8.82h-.79v-3.08c1.78-1.85,3.38-3.83,4.82-5.95-1.96-.87-2.94-2.15-2.94-3.86s.6-3.63,1.79-5.62c1.2-1.99,2.84-2.99,4.94-2.99,1.78,0,2.67,.91,2.67,2.73,0,1.44-.51,3.49-1.54,6.15,3.78-.41,7.09-3.3,9.91-8.68l3.11-.14-3.18,8.75c-1.32,3.69-2.18,6.2-2.56,7.54-.39,1.33-.58,2.51-.58,3.54,0,.96,.22,1.72,.67,2.29,.44,.57,1.04,.86,1.79,.86,.82,0,1.61-.28,2.36-.84s2.44-2.1,5.06-4.63v3.93Z"/><path class="cls-1" d="M582.32,142.06c-5.24,5.58-10.05,8.37-14.42,8.37-2.42,0-4.33-.85-5.74-2.56-1.41-1.71-2.2-4.15-2.36-7.31-2.76,3.35-5.2,5.83-7.33,7.45-2.13,1.62-4.4,2.43-6.82,2.43-3.1,0-5.59-1.34-7.47-4.02-1.88-2.68-2.82-6.25-2.82-10.71,0-5.33,1.23-10.83,3.69-16.49s6.11-10.13,10.94-13.42c4.83-3.28,10.69-4.92,17.57-4.92,5.15,0,9.81,.7,13.98,2.09v2.26c-3.4,3.96-6.24,9.51-8.53,16.64-2.29,7.13-3.44,12.57-3.44,16.3,0,1.82,.37,3.24,1.11,4.24,.74,1,1.77,1.5,3.09,1.5,2.37,0,5.22-1.93,8.54-5.78v3.93Zm-9.95-36.85c-2.1-1.14-4.35-1.71-6.77-1.71-3.81,0-7.24,1.59-10.29,4.77-3.05,3.18-5.46,7.39-7.23,12.63-1.77,5.24-2.65,9.79-2.65,13.64,0,2.57,.5,4.67,1.49,6.27,.99,1.61,2.26,2.41,3.81,2.41,2.69,0,5.78-2.45,9.26-7.35,1.44-12.85,5.56-23.07,12.37-30.66Z"/><path class="cls-1" d="M607.85,142.03c-5.72,5.61-10.13,8.41-13.23,8.41-1.39,0-2.56-.59-3.52-1.76s-1.44-2.63-1.44-4.36c0-3.21,1.72-7.52,5.16-12.92-1.69,.87-3.53,1.47-5.54,1.81-1.48,2.73-3.81,5.67-6.97,8.82h-.79v-3.08c1.78-1.85,3.38-3.83,4.82-5.95-1.96-.87-2.94-2.15-2.94-3.86s.6-3.63,1.79-5.62c1.2-1.99,2.84-2.99,4.94-2.99,1.78,0,2.67,.91,2.67,2.73,0,1.44-.51,3.49-1.54,6.15,3.78-.41,7.09-3.3,9.91-8.68l3.11-.14-3.18,8.75c-1.32,3.69-2.18,6.2-2.56,7.54-.39,1.33-.58,2.51-.58,3.54,0,.96,.22,1.72,.67,2.29,.44,.57,1.04,.86,1.79,.86,.82,0,1.61-.28,2.36-.84s2.44-2.1,5.06-4.63v3.93Z"/><path class="cls-1" d="M633.42,142.03c-2.92,2.87-5.59,4.98-8.02,6.32-2.43,1.34-4.96,2.02-7.6,2.02-2.96,0-5.41-.96-7.33-2.89-1.93-1.92-2.89-4.37-2.89-7.33,0-4.85,1.77-9.34,5.31-13.45,3.54-4.11,7.38-6.17,11.5-6.17,2.03,0,3.68,.56,4.96,1.69,1.28,1.13,1.91,2.59,1.91,4.39,0,.64-.12,1.12-.36,1.44-.24,.32-.69,.64-1.35,.96l-3.96,1.88c-.48,.23-.83,.34-1.06,.34-.32,0-.48-.23-.48-.68,0-.18,.07-.78,.21-1.79,.14-1.01,.21-1.63,.21-1.86,0-1-.21-1.81-.63-2.43s-.99-.92-1.69-.92c-1.66,0-3.18,1.23-4.56,3.69-1.38,2.46-2.07,5.26-2.07,8.41,0,2.71,.65,4.88,1.95,6.49,1.3,1.62,3.03,2.43,5.2,2.43,1.85,0,3.58-.53,5.21-1.59s3.48-2.68,5.55-4.87v3.93Z"/><path class="cls-1" d="M669.92,142.03c-3.65,3.46-6.25,5.72-7.83,6.77-1.57,1.05-3.08,1.57-4.51,1.57-3.6,0-5.3-3.18-5.09-9.54-2.28,3.26-4.38,5.66-6.31,7.21-1.93,1.55-3.91,2.32-5.96,2.32s-3.71-.94-5.11-2.82c-1.4-1.88-2.1-4.19-2.1-6.92,0-3.42,.94-6.68,2.82-9.78,1.88-3.1,4.29-5.61,7.23-7.52s5.54-2.87,7.79-2.87c2.85,0,4.84,1.31,5.98,3.93l6.99-3.86h1.92l-3.01,10.01c-1.55,5.04-2.33,8.49-2.33,10.36,0,1.96,.69,2.94,2.08,2.94,.89,0,1.87-.47,2.94-1.42,1.07-.95,2.57-2.39,4.51-4.32v3.93Zm-25.02,1.88c2.28,0,4.43-1.94,6.44-5.83,2.02-3.88,3.02-7.47,3.02-10.75,0-1.28-.29-2.27-.85-2.99-.57-.72-1.33-1.08-2.29-1.08-2.28,0-4.44,1.94-6.48,5.81-2.04,3.87-3.06,7.44-3.06,10.7,0,1.23,.3,2.23,.91,2.99,.6,.76,1.37,1.15,2.31,1.15Z"/><path class="cls-1" d="M703.46,142.03c-5.26,5.56-9.78,8.34-13.54,8.34-1.53,0-2.76-.54-3.69-1.61-.93-1.07-1.4-2.51-1.4-4.31,0-2.44,1-6.16,3.01-11.18,1.07-2.69,1.61-4.4,1.61-5.13s-.29-1.09-.85-1.09c-.32,0-.74,.16-1.26,.48-.48,.32-1.04,.76-1.67,1.33-.57,.52-1.21,1.16-1.91,1.91-.62,.64-1.28,1.37-1.98,2.19l-1.91,2.22c-.84,1.03-1.37,2.11-1.57,3.25-.34,1.94-.57,3.71-.68,5.33-.07,1.21-.1,2.84-.1,4.89l-7.55,1.78c-.25-3.08-.38-5.37-.38-6.87,0-3.67,.43-7.14,1.28-10.43,.86-3.28,2.23-6.97,4.12-11.07l8.34-1.61c-1.75,4.72-2.91,8.43-3.45,11.14,3.73-4.17,6.7-7.06,8.89-8.67,2.19-1.61,4.15-2.41,5.85-2.41,1.16,0,2.13,.44,2.9,1.31,.77,.88,1.16,1.97,1.16,3.29,0,2.18-.98,5.78-2.94,10.8-1.34,3.44-2.02,5.68-2.02,6.7,0,1.37,.56,2.06,1.68,2.06,1.67,0,4.36-2.2,8.09-6.6v3.93Z"/><path class="cls-1" d="M739.92,142.03c-3.65,3.46-6.25,5.72-7.83,6.77-1.57,1.05-3.08,1.57-4.51,1.57-3.6,0-5.3-3.18-5.09-9.54-2.28,3.26-4.38,5.66-6.31,7.21-1.93,1.55-3.91,2.32-5.96,2.32s-3.71-.94-5.11-2.82c-1.4-1.88-2.1-4.19-2.1-6.92,0-3.42,.94-6.68,2.82-9.78,1.88-3.1,4.29-5.61,7.23-7.52s5.54-2.87,7.79-2.87c2.85,0,4.84,1.31,5.98,3.93l6.99-3.86h1.92l-3.01,10.01c-1.55,5.04-2.33,8.49-2.33,10.36,0,1.96,.69,2.94,2.08,2.94,.89,0,1.87-.47,2.94-1.42,1.07-.95,2.57-2.39,4.51-4.32v3.93Zm-25.02,1.88c2.28,0,4.43-1.94,6.44-5.83,2.02-3.88,3.02-7.47,3.02-10.75,0-1.28-.29-2.27-.85-2.99-.57-.72-1.33-1.08-2.29-1.08-2.28,0-4.44,1.94-6.48,5.81-2.04,3.87-3.06,7.44-3.06,10.7,0,1.23,.3,2.23,.91,2.99,.6,.76,1.37,1.15,2.31,1.15Z"/></g><g><path class="cls-1" d="M472.53,1821.03c0,.89-1.47,3.08-4.41,6.56h-.62c-.46-.18-.74-.85-.85-2.02-.25-2.35-1.06-4.27-2.43-5.76s-3.01-2.24-4.92-2.24c-1.8,0-3.35,.65-4.65,1.96s-1.95,2.87-1.95,4.69c0,1.32,.41,2.74,1.24,4.25s2.96,3.91,6.41,7.2c3.45,3.29,5.66,5.9,6.64,7.85,.98,1.95,1.47,3.8,1.47,5.55,0,4.06-1.76,7.63-5.28,10.71-3.52,3.09-7.64,4.63-12.36,4.63-3.9,0-7.11-.91-9.64-2.72s-3.79-3.29-3.79-4.43c0-.64,.69-2.12,2.08-4.44s2.19-3.49,2.39-3.49c.73,0,1.25,.21,1.55,.63,.31,.42,.52,1.2,.63,2.34,.34,3.55,1.2,6,2.58,7.35,1.38,1.34,3.17,2.02,5.38,2.02,2.41,0,4.52-.84,6.32-2.51,1.8-1.67,2.7-3.61,2.7-5.82,0-1.14-.35-2.35-1.05-3.64-.7-1.29-2.67-3.47-5.91-6.57-3.24-3.09-5.37-5.71-6.37-7.85-1-2.14-1.5-4.23-1.5-6.25,0-3.53,1.33-6.78,4-9.74,2.67-2.96,6.21-4.44,10.63-4.44,3.35,0,6.13,.77,8.36,2.31,2.22,1.54,3.33,2.82,3.33,3.84Z"/><path class="cls-1" d="M523.63,1856.03c-1.09,.91-2.19,1.56-3.28,1.95-1.09,.39-1.94,.58-2.53,.58-1.66,0-3.29-.64-4.89-1.91-4.15,5.15-8.42,7.72-12.82,7.72-3.24,0-5.55-1.78-6.94-5.33-3.05,3.55-6.35,5.33-9.88,5.33-2.3,0-4.11-.76-5.43-2.27-1.32-1.51-1.98-3.61-1.98-6.27,0-2.87,.4-5.79,1.21-8.75,.81-2.96,2.04-6.58,3.71-10.87l9.01-1.67-2.53,7.62c-2.14,6.61-3.21,11.16-3.2,13.67,0,1.19,.28,2.16,.85,2.91,.57,.75,1.29,1.13,2.15,1.13,1.82,0,3.64-1.41,5.47-4.24,0-3.58,.65-7.29,1.95-11.14l2.8-8.27,9.15-1.67-3.83,11.82c-1.23,3.8-1.85,6.81-1.85,9.02,0,1.34,.29,2.42,.89,3.21,.59,.8,1.38,1.2,2.36,1.2,1.21,0,2.35-.44,3.42-1.33s2.28-2.23,3.63-4.03c-1.21-2.21-1.81-4.5-1.81-6.87,0-3.42,.86-6.44,2.56-9.07s3.63-3.95,5.78-3.95c1.48,0,2.22,1.12,2.22,3.35,0,4.81-1.86,10.25-5.57,16.34,1.14,1.07,2.35,1.61,3.62,1.61,1.53,0,3.44-1.24,5.74-3.72v3.93Z"/><path class="cls-1" d="M554.29,1856.03c-1.16,1.03-2.29,1.75-3.38,2.17-1.09,.42-1.96,.63-2.6,.63-1.64,0-3.27-.64-4.89-1.91-3.28,4.97-7.04,7.45-11.28,7.45-2.64,0-4.79-.99-6.43-2.97s-2.46-4.62-2.46-7.9c0-5.2,1.85-9.66,5.54-13.38s8.1-5.59,13.23-5.59c1.94,0,3.36,.21,4.26,.63,.9,.42,1.45,.92,1.66,1.49,.21,.57,.31,1.29,.31,2.15,0,4.26-1.16,9.49-3.49,15.69,1.16,1.07,2.38,1.61,3.66,1.61,1.53,0,3.49-1.33,5.88-4v3.93Zm-11.28-19.11c-.34-.14-.83-.21-1.47-.21-2.96,0-5.28,1.55-6.96,4.65-1.67,3.1-2.51,6.72-2.51,10.87,0,2.3,.36,4.09,1.09,5.37,.73,1.28,1.74,1.91,3.04,1.91,1.62,0,3.37-1.49,5.26-4.48-2.14-2.69-3.21-5.58-3.21-8.68,0-3.65,1.58-6.79,4.75-9.43Z"/><path class="cls-1" d="M579.82,1856.03c-5.72,5.61-10.13,8.41-13.23,8.41-1.39,0-2.56-.59-3.52-1.76s-1.44-2.63-1.44-4.36c0-3.21,1.72-7.52,5.16-12.92-1.69,.87-3.53,1.47-5.54,1.81-1.48,2.73-3.81,5.67-6.97,8.82h-.79v-3.08c1.78-1.85,3.38-3.83,4.82-5.95-1.96-.87-2.94-2.15-2.94-3.86s.6-3.63,1.79-5.62c1.2-1.99,2.84-2.99,4.94-2.99,1.78,0,2.67,.91,2.67,2.73,0,1.44-.51,3.49-1.54,6.15,3.78-.41,7.09-3.3,9.91-8.68l3.11-.14-3.18,8.75c-1.32,3.69-2.18,6.2-2.56,7.54s-.58,2.51-.58,3.54c0,.96,.22,1.72,.67,2.29,.44,.57,1.04,.86,1.79,.86,.82,0,1.61-.28,2.36-.84s2.44-2.1,5.06-4.63v3.93Z"/><path class="cls-1" d="M616.32,1856.03c-3.28,3.26-5.78,5.46-7.5,6.61s-3.24,1.73-4.56,1.73c-1.62,0-2.9-.79-3.85-2.36s-1.43-3.87-1.45-6.9c-1.87,3.03-3.9,5.33-6.1,6.9s-4.19,2.36-5.96,2.36c-1.94,0-3.65-.92-5.13-2.75-1.48-1.83-2.22-3.98-2.22-6.44,0-5.08,1.85-9.79,5.55-14.13s7.68-6.51,11.95-6.51c1.19,0,2.11,.17,2.79,.51s1.41,.92,2.21,1.74l4.89-20.44c3.99-.93,6.68-1.4,8.07-1.4,.46,0,.68,.18,.68,.55,0,.25-.57,2.61-1.71,7.08-4.55,17.87-6.83,28.64-6.83,32.33,0,.87,.18,1.56,.55,2.08,.36,.52,.84,.79,1.43,.79,1.46,0,3.86-1.89,7.2-5.67v3.93Zm-24.71,1.81c2.23,0,4.32-1.89,6.25-5.67,1.94-3.78,2.91-7.33,2.91-10.63,0-1.34-.3-2.41-.91-3.21-.6-.8-1.4-1.2-2.38-1.2-2.12,0-4.17,1.98-6.15,5.93s-2.97,7.53-2.97,10.71c0,1.25,.29,2.25,.87,2.97,.58,.73,1.37,1.09,2.38,1.09Z"/><path class="cls-1" d="M626.82,1836c1.57-.41,3.15-.75,4.75-1.01s2.55-.39,2.87-.39c.23,0,.34,.09,.34,.27,0,.34-.09,.69-.27,1.06-.37,1.05-.55,2.05-.55,3.01,0,1.18,.69,2.8,2.05,4.85s2.05,3.96,2.05,5.71c0,3.49-1.67,6.85-5.01,10.08-3.34,3.24-6.8,4.85-10.38,4.85-1.55,0-2.96-.41-4.24-1.23s-1.91-1.7-1.91-2.63c0-.55,.63-1.58,1.9-3.11,1.26-1.53,2.17-2.29,2.72-2.29,.73,0,1.38,.93,1.95,2.8,.57,1.87,1.55,2.8,2.94,2.8s2.7-.64,3.91-1.93,1.83-2.67,1.83-4.15c0-1.44-.77-3.35-2.32-5.74-1.55-2.39-2.58-4.4-3.08-6.01-2.64,4.26-5.99,8.62-10.05,13.09h-.79v-3.08c5.58-5.95,9.34-11.6,11.28-16.95Z"/></g></g></g><g id="_반짝이"><polygon class="cls-8" points="273.78 759.88 287.47 813.01 331.56 823.92 287.47 835.89 273.78 890 259.36 835.89 216 823.92 259.36 813.01 273.78 759.88"/><polygon class="cls-7" points="833.78 1112 842.4 1145.43 870.14 1152.3 842.4 1159.83 833.78 1193.88 824.7 1159.83 797.42 1152.3 824.7 1145.43 833.78 1112"/><circle class="cls-8" cx="346" cy="758" r="8"/><circle class="cls-7" cx="327" cy="910" r="11"/><circle class="cls-8" cx="294" cy="965" r="9"/><circle class="cls-8" cx="903.5" cy="1045" r="10"/><circle class="cls-7" cx="871.5" cy="980.5" r="8.5"/></g><g id="_소드_5"><path class="cls-7" d="M595.63,709.54c-1.19,.12-2.35,.32-3.49,.58-2.93-10.04-12.69-16.88-23.47-15.76-1.15,.12-2.27,.35-3.35,.64-2.82-11.23-13.54-18.98-25.39-17.75-5.55,.58-10.45,3.03-14.14,6.66-2.12-15.87-16.49-27.28-32.52-25.61-14.7,1.53-25.77,13.52-26.59,27.81-1.17,0-2.36,.05-3.55,.17-17.91,1.86-30.93,17.89-29.07,35.81,.49,4.71,1.96,9.07,4.19,12.92-8.05,4.3-13.11,13.17-12.11,22.8,1.32,12.71,12.7,21.95,25.41,20.63,5.49-.57,10.32-3.02,13.94-6.63,5.88,12.27,19,20.13,33.31,18.64,8.02-.83,15.07-4.46,20.29-9.82,7.68,9.57,19.9,15.16,33,13.8,16.6-1.73,29.53-14.08,32.72-29.61,5,2.67,10.83,3.93,16.9,3.3,16.18-1.68,27.93-16.16,26.25-32.34-1.68-16.18-16.16-27.93-32.34-26.25Z"/><g><circle class="cls-4" cx="773.13" cy="515.78" r="12.33"/><g><polygon class="cls-8" points="625.62 1151.57 644.04 1120.84 761.15 622.01 750.53 619.52 625.62 1151.57"/><polygon class="cls-8" points="622.28 1150.78 747.2 618.74 736.58 616.25 619.47 1115.07 622.28 1150.78"/></g><rect class="cls-3" x="698.52" y="605.51" width="101.94" height="21.92" rx="10.96" ry="10.96" transform="translate(1338.24 1387.92) rotate(-166.79)"/><rect class="cls-3" x="746.54" y="518.43" width="27.98" height="102.05" transform="translate(1370.77 1297.68) rotate(-166.79)"/><rect class="cls-3" x="753.19" y="512.99" width="38.94" height="9.59" rx="4.79" ry="4.79" transform="translate(1406.52 1198.47) rotate(-166.79)"/><polygon class="cls-4" points="743.38 641.76 744.57 623.1 735.51 625.06 741.3 617.82 723.56 610.46 742.72 611.77 740.76 602.71 748 608.5 755.59 589.75 754.05 609.92 763.11 607.96 757.32 615.2 775.39 622.63 755.9 621.25 757.86 630.31 750.62 624.52 743.38 641.76"/></g><g><circle class="cls-4" cx="774.39" cy="1396.18" r="12.33"/><g><polygon class="cls-8" points="215.51 1237.15 240.99 1255.83 668.88 1378.95 671.9 1368.47 215.51 1237.15"/><polygon class="cls-8" points="216.46 1233.85 672.84 1365.18 675.86 1354.7 247.97 1231.57 216.46 1233.85"/></g><rect class="cls-3" x="624.03" y="1356.63" width="101.94" height="21.92" rx="10.96" ry="10.96" transform="translate(-825.92 1638.08) rotate(-73.95)"/><rect class="cls-3" x="707.41" y="1329.91" width="27.98" height="102.05" transform="translate(-805.18 1692.33) rotate(-73.95)"/><rect class="cls-3" x="752.94" y="1390.82" width="38.94" height="9.59" rx="4.79" ry="4.79" transform="translate(-782.38 1751.97) rotate(-73.95)"/></g><g><circle class="cls-4" cx="869.77" cy="1307.95" r="12.33"/><g><polygon class="cls-8" points="294.94 1223.13 322.64 1238.33 762.92 1304.63 764.55 1293.84 294.94 1223.13"/><polygon class="cls-8" points="295.45 1219.74 765.06 1290.45 766.68 1279.67 326.39 1213.37 295.45 1219.74"/></g><rect class="cls-3" x="716.54" y="1281.6" width="101.94" height="21.92" rx="10.96" ry="10.96" transform="translate(-624.92 1859.05) rotate(-81.44)"/><rect class="cls-3" x="801.27" y="1248.72" width="27.98" height="102.05" transform="translate(-591.39 1912.38) rotate(-81.44)"/><rect class="cls-3" x="848.27" y="1302.85" width="38.94" height="9.59" rx="4.79" ry="4.79" transform="translate(-554.54 1971.01) rotate(-81.44)"/></g><g><circle class="cls-4" cx="862.42" cy="606.9" r="12.33"/><g><polygon class="cls-8" points="714.91 1242.68 733.33 1211.95 850.44 713.13 839.83 710.63 714.91 1242.68"/><polygon class="cls-8" points="711.57 1241.9 836.49 709.85 825.87 707.36 708.76 1206.18 711.57 1241.9"/></g><rect class="cls-3" x="787.81" y="696.62" width="101.94" height="21.92" rx="10.96" ry="10.96" transform="translate(1493.63 1588.14) rotate(-166.79)"/><rect class="cls-3" x="835.83" y="609.55" width="27.98" height="102.05" transform="translate(1526.16 1497.9) rotate(-166.79)"/><rect class="cls-3" x="842.49" y="604.1" width="38.94" height="9.59" rx="4.79" ry="4.79" transform="translate(1561.91 1398.7) rotate(-166.79)"/><polygon class="cls-4" points="832.67 732.87 833.86 714.21 824.8 716.17 830.59 708.93 812.85 701.58 832.01 702.88 830.05 693.82 837.29 699.61 844.88 680.87 843.34 701.03 852.4 699.07 846.61 706.31 864.68 713.75 845.19 712.36 847.15 721.42 839.91 715.63 832.67 732.87"/></g><g><circle class="cls-4" cx="821.42" cy="560.43" r="12.33"/><g><polygon class="cls-8" points="673.91 1196.21 692.33 1165.48 809.44 666.66 798.82 664.17 673.91 1196.21"/><polygon class="cls-8" points="670.57 1195.43 795.49 663.38 784.87 660.89 667.76 1159.71 670.57 1195.43"/></g><rect class="cls-3" x="746.81" y="650.15" width="101.94" height="21.92" rx="10.96" ry="10.96" transform="translate(1423.34 1487.07) rotate(-166.79)"/><rect class="cls-3" x="794.83" y="563.08" width="27.98" height="102.05" transform="translate(1455.86 1396.82) rotate(-166.79)"/><rect class="cls-3" x="801.48" y="557.64" width="38.94" height="9.59" rx="4.79" ry="4.79" transform="translate(1491.62 1297.62) rotate(-166.79)"/><polygon class="cls-4" points="791.67 686.41 792.86 667.75 783.8 669.71 789.59 662.46 771.85 655.11 791.01 656.41 789.05 647.35 796.29 653.14 803.88 634.4 802.34 654.56 811.4 652.6 805.61 659.84 823.68 667.28 804.19 665.89 806.15 674.96 798.91 669.17 791.67 686.41"/></g><path class="cls-7" d="M462.89,573.61c-1.33,.14-2.64,.36-3.91,.65-3.29-11.25-14.21-18.91-26.28-17.65-1.29,.13-2.54,.39-3.76,.72-3.16-12.58-15.16-21.26-28.44-19.88-6.22,.65-11.7,3.39-15.83,7.46-2.37-17.77-18.46-30.55-36.42-28.68-16.46,1.71-28.86,15.15-29.79,31.15-1.31,0-2.64,.05-3.97,.19-20.06,2.08-34.64,20.04-32.55,40.1,.55,5.27,2.2,10.16,4.69,14.47-9.01,4.82-14.68,14.75-13.56,25.54,1.48,14.24,14.22,24.58,28.46,23.1,6.14-.64,11.56-3.38,15.62-7.42,6.58,13.74,21.28,22.54,37.31,20.88,8.98-.93,16.88-5,22.73-11,8.6,10.71,22.28,16.98,36.96,15.46,18.6-1.93,33.07-15.77,36.65-33.16,5.6,2.99,12.13,4.4,18.92,3.7,18.12-1.88,31.29-18.1,29.4-36.22-1.88-18.12-18.1-31.29-36.22-29.4Z"/><path class="cls-5" d="M429.1,1154.09H240.19c-1.74-8.57-.83-15.05,0-18.74,3.65-16.03,17.08-27.9,33.99-30.52-.76,.61-5.37,4.44-5.59,10.17-.26,6.78,5.65,14.44,14.63,14.99,.49-4.84,1.79-8.31,3.01-10.71,5.91-11.55,19.68-16.31,34.85-12.85-.58,.88-4.03,6.24-3.01,12.85,1.1,7.12,6.95,12.83,14.2,12.85,.89-4.46,2.9-11.5,7.75-17.67,12.58-16.02,32.11-10.61,33.56-10.17-3.49,2.27-5.9,6.34-6.02,10.71-.18,6.36,4.51,12.8,11.19,13.39,.93-4.79,2.49-8.29,3.87-10.71,8.9-15.58,26.72-14.61,28.83-14.46-1.03,4.21-1.89,9.96-1.29,16.6,1.88,20.88,16.54,32.45,18.93,34.27Z"/><path class="cls-5" d="M595.84,1154.09h-188.91c-1.74-8.57-.83-15.05,0-18.74,3.65-16.03,17.08-27.9,33.99-30.52-.76,.61-5.37,4.44-5.59,10.17-.26,6.78,5.65,14.44,14.63,14.99,.49-4.84,1.79-8.31,3.01-10.71,5.91-11.55,19.68-16.31,34.85-12.85-.58,.88-4.03,6.24-3.01,12.85,1.1,7.12,6.95,12.83,14.2,12.85,.89-4.46,2.9-11.5,7.75-17.67,12.58-16.02,32.11-10.61,33.56-10.17-3.49,2.27-5.9,6.34-6.02,10.71-.18,6.36,4.51,12.8,11.19,13.39,.93-4.79,2.49-8.29,3.87-10.71,8.9-15.58,26.72-14.61,28.83-14.46-1.03,4.21-1.89,9.96-1.29,16.6,1.88,20.88,16.54,32.45,18.93,34.27Z"/></g></svg>