<?xml version="1.0" encoding="UTF-8"?><svg xmlns="http://www.w3.org/2000/svg" viewBox="0 0 1080 1944"><defs><style>.cls-1{fill:#fff;}.cls-2{stroke:#3f3730;stroke-miterlimit:10;stroke-width:5px;}.cls-2,.cls-3{fill:#3f3730;}.cls-4{fill:#f6ef84;}.cls-5{fill:#4c5fa9;}.cls-6{fill:#bad6eb;}.cls-7{fill:#c8c0de;}.cls-8{fill:#b1d4f0;}</style></defs><g id="_배경_텍스트"><g><rect class="cls-6" width="1080" height="1944"/><rect class="cls-1" x="74.84" y="186.39" width="930.33" height="1606.64" rx="65.21" ry="65.21"/><path class="cls-2" d="M499.92,1608.73c-.96-3.36-2.18-5.62-3.66-6.78-1.48-1.16-3.74-1.82-6.78-1.98-1.28-.16-1.92-.8-1.92-1.92,0-.48,.14-.9,.42-1.26,.28-.36,.74-.54,1.38-.54h26.76c.64,0,1.12,.2,1.44,.6,.32,.4,.48,.8,.48,1.2,0,.48-.16,.9-.48,1.26-.32,.36-.8,.58-1.44,.66-2.16,.16-3.9,.34-5.22,.54-1.32,.2-2.22,.74-2.7,1.62-.32,.64-.4,1.42-.24,2.34,.16,.92,.44,2.22,.84,3.9l15.96,61.32,17.16-61.92c.48-1.68,.64-3.02,.48-4.02-.16-1-.56-1.76-1.2-2.28-.64-.52-1.52-.86-2.64-1.02-1.12-.16-2.44-.32-3.96-.48-.64-.08-1.12-.3-1.44-.66-.32-.36-.48-.78-.48-1.26,0-.4,.14-.8,.42-1.2,.28-.4,.74-.6,1.38-.6h22.92c.64,0,1.12,.2,1.44,.6,.32,.4,.48,.8,.48,1.2,0,1.04-.64,1.68-1.92,1.92-1.6,.24-2.94,.48-4.02,.72-1.08,.24-1.98,.66-2.7,1.26-.72,.6-1.34,1.42-1.86,2.46-.52,1.04-1.06,2.48-1.62,4.32l-21.48,74.64h-5.04l-20.76-74.64Zm81.6,60.84c0,1.92,.2,3.46,.6,4.62,.4,1.16,.98,2.04,1.74,2.64,.76,.6,1.72,1.02,2.88,1.26,1.16,.24,2.5,.44,4.02,.6,.56,.08,.96,.3,1.2,.66,.24,.36,.36,.74,.36,1.14s-.14,.78-.42,1.14c-.28,.36-.74,.54-1.38,.54h-26.52c-.64,0-1.1-.18-1.38-.54-.28-.36-.42-.74-.42-1.14s.12-.78,.36-1.14c.24-.36,.64-.58,1.2-.66,1.52-.16,2.84-.36,3.96-.6,1.12-.24,2.08-.66,2.88-1.26,.8-.6,1.4-1.48,1.8-2.64,.4-1.16,.6-2.7,.6-4.62v-60.72c0-1.92-.2-3.46-.6-4.62-.4-1.16-1-2.04-1.8-2.64-.8-.6-1.76-1.02-2.88-1.26-1.12-.24-2.44-.44-3.96-.6-.56-.08-.96-.3-1.2-.66-.24-.36-.36-.74-.36-1.14s.14-.78,.42-1.14c.28-.36,.74-.54,1.38-.54h26.52c.64,0,1.1,.18,1.38,.54,.28,.36,.42,.74,.42,1.14s-.12,.78-.36,1.14c-.24,.36-.64,.58-1.2,.66-1.52,.16-2.86,.36-4.02,.6-1.16,.24-2.12,.66-2.88,1.26-.76,.6-1.34,1.48-1.74,2.64-.4,1.16-.6,2.7-.6,4.62v60.72Z"/><g><path class="cls-1" d="M410.88,142.03c-5.1,5.49-9.75,8.24-13.95,8.24-2.55,0-4.5-1.23-5.83-3.69-1.33-2.46-2-5.75-2-9.88,0-3.19,.65-7.58,1.96-13.16,1.31-5.58,3-10.28,5.08-14.08l1.98-3.55c-2.71,2.83-4.93,5.92-6.67,9.28-1.73,3.36-3.8,8.06-6.2,14.1-2.4,6.04-4.22,10.15-5.45,12.34s-2.41,3.97-3.54,5.35c-1.13,1.38-2.13,2.27-3.01,2.68-.88,.41-2.41,.62-4.6,.62-.84,0-1.26-.23-1.26-.68,0-.05,.15-.76,.45-2.15,.3-1.39,.61-3.62,.92-6.68s.54-8.27,.68-15.62,1.21-13.64,3.21-18.88c-2.14,2.44-4.33,8.11-6.57,17.02l-.86,3.35c-2.35,9.27-5.04,15.53-8.08,18.78-3.03,3.25-6.01,4.87-8.93,4.87-1.8,0-3.39-.57-4.76-1.71-1.37-1.14-2.05-2.45-2.05-3.93,0-1.14,.82-2.41,2.46-3.83,1.64-1.41,2.68-2.12,3.11-2.12,.5,0,.83,.17,.99,.51,.16,.34,.37,1.28,.62,2.82s.63,2.54,1.15,3.01c.51,.47,1.16,.7,1.94,.7,1.76,0,3.7-1.76,5.83-5.28s4.07-8.96,5.83-16.32l.99-4.13c.8-3.37,1.59-6.06,2.37-8.07,.78-2.01,1.8-4.01,3.08-6.02,1.85-2.87,2.99-4.4,3.41-4.6,.42-.19,1.21-.35,2.38-.48s2.32-.19,3.49-.19c.46,0,.68,.26,.68,.79,0,.25-.07,.76-.21,1.54-.45,3.19-.66,6.39-.64,9.6l.07,9.16c.04,7.98-.59,14.41-1.91,19.31,1.21-1.46,2.96-5.22,5.26-11.28,3.33-8.59,6.36-15.04,9.09-19.35,1.3-2.07,2.87-4.06,4.7-5.96,1.83-1.9,3.1-2.92,3.81-3.06,2.42-.46,4.45-.68,6.12-.68,.62,0,.92,.17,.92,.51,0,.48-.38,1.55-1.12,3.21-1.77,4.01-3.43,9.44-4.96,16.27s-2.31,12.28-2.32,16.33c0,4.58,1.4,6.87,4.2,6.87,2.28,0,4.99-1.94,8.13-5.81v3.93Z"/><path class="cls-1" d="M427.66,142.03c-5.33,5.61-9.32,8.41-11.96,8.41-1.46,0-2.69-.75-3.69-2.24-1-1.49-1.5-3.37-1.5-5.62,0-4.85,1.64-11.57,4.92-20.17l8.68-1.81h.41l-3.42,10.7c-1.41,4.42-2.12,7.58-2.12,9.47,0,.75,.17,1.36,.5,1.83,.33,.47,.75,.7,1.25,.7,.89,0,1.78-.33,2.68-.97s2.32-2.06,4.26-4.22v3.93Zm-.68-34.79c0,5.47-2.02,8.2-6.05,8.2-1.96,0-3.63-.59-5.02-1.78,1.32-2,2.35-4.26,3.08-6.77,1.8,1.12,3.25,1.68,4.34,1.68,1.23,0,2.45-.45,3.66-1.33Z"/><path class="cls-1" d="M461.22,142.03c-5.26,5.56-9.78,8.34-13.54,8.34-1.53,0-2.76-.54-3.69-1.61-.93-1.07-1.4-2.51-1.4-4.31,0-2.44,1-6.16,3.01-11.18,1.07-2.69,1.61-4.4,1.61-5.13s-.29-1.09-.85-1.09c-.32,0-.74,.16-1.26,.48-.48,.32-1.04,.76-1.67,1.33-.57,.52-1.21,1.16-1.91,1.91-.62,.64-1.28,1.37-1.98,2.19l-1.91,2.22c-.84,1.03-1.37,2.11-1.57,3.25-.34,1.94-.57,3.71-.68,5.33-.07,1.21-.1,2.84-.1,4.89l-7.55,1.78c-.25-3.08-.38-5.37-.38-6.87,0-3.67,.43-7.14,1.28-10.43,.86-3.28,2.23-6.97,4.12-11.07l8.34-1.61c-1.75,4.72-2.91,8.43-3.45,11.14,3.73-4.17,6.7-7.06,8.89-8.67,2.19-1.61,4.15-2.41,5.85-2.41,1.16,0,2.13,.44,2.9,1.31,.77,.88,1.16,1.97,1.16,3.29,0,2.18-.98,5.78-2.94,10.8-1.34,3.44-2.02,5.68-2.02,6.7,0,1.37,.56,2.06,1.68,2.06,1.67,0,4.36-2.2,8.09-6.6v3.93Z"/><path class="cls-1" d="M491.88,142.03c-1.16,1.03-2.29,1.75-3.38,2.17-1.09,.42-1.96,.63-2.6,.63-1.64,0-3.27-.64-4.89-1.91-3.28,4.97-7.04,7.45-11.28,7.45-2.64,0-4.79-.99-6.43-2.97s-2.46-4.62-2.46-7.9c0-5.2,1.85-9.66,5.54-13.38s8.1-5.59,13.23-5.59c1.94,0,3.35,.21,4.25,.63,.9,.42,1.45,.92,1.66,1.49,.21,.57,.31,1.29,.31,2.15,0,4.26-1.16,9.49-3.49,15.69,1.16,1.07,2.38,1.61,3.66,1.61,1.53,0,3.49-1.33,5.88-4v3.93Zm-11.28-19.11c-.34-.14-.83-.21-1.47-.21-2.96,0-5.28,1.55-6.96,4.65-1.67,3.1-2.51,6.72-2.51,10.87,0,2.3,.36,4.09,1.09,5.37,.73,1.28,1.74,1.91,3.04,1.91,1.62,0,3.37-1.49,5.26-4.48-2.14-2.69-3.21-5.58-3.21-8.68,0-3.65,1.58-6.79,4.75-9.43Z"/><path class="cls-1" d="M517.42,142.03c-5.72,5.61-10.13,8.41-13.23,8.41-1.39,0-2.56-.59-3.52-1.76s-1.44-2.63-1.44-4.36c0-3.21,1.72-7.52,5.16-12.92-1.69,.87-3.53,1.47-5.54,1.81-1.48,2.73-3.81,5.67-6.97,8.82h-.79v-3.08c1.78-1.85,3.38-3.83,4.82-5.95-1.96-.87-2.94-2.15-2.94-3.86s.6-3.63,1.79-5.62c1.2-1.99,2.84-2.99,4.94-2.99,1.78,0,2.67,.91,2.67,2.73,0,1.44-.51,3.49-1.54,6.15,3.78-.41,7.09-3.3,9.91-8.68l3.11-.14-3.18,8.75c-1.32,3.69-2.18,6.2-2.56,7.54-.39,1.33-.58,2.51-.58,3.54,0,.96,.22,1.72,.67,2.29,.44,.57,1.04,.86,1.79,.86,.82,0,1.61-.28,2.36-.84s2.44-2.1,5.06-4.63v3.93Z"/><path class="cls-1" d="M582.32,142.06c-5.24,5.58-10.05,8.37-14.42,8.37-2.42,0-4.33-.85-5.74-2.56-1.41-1.71-2.2-4.15-2.36-7.31-2.76,3.35-5.2,5.83-7.33,7.45-2.13,1.62-4.4,2.43-6.82,2.43-3.1,0-5.59-1.34-7.47-4.02-1.88-2.68-2.82-6.25-2.82-10.71,0-5.33,1.23-10.83,3.69-16.49s6.11-10.13,10.94-13.42c4.83-3.28,10.69-4.92,17.57-4.92,5.15,0,9.81,.7,13.98,2.09v2.26c-3.4,3.96-6.24,9.51-8.53,16.64-2.29,7.13-3.44,12.57-3.44,16.3,0,1.82,.37,3.24,1.11,4.24,.74,1,1.77,1.5,3.09,1.5,2.37,0,5.22-1.93,8.54-5.78v3.93Zm-9.95-36.85c-2.1-1.14-4.35-1.71-6.77-1.71-3.81,0-7.24,1.59-10.29,4.77-3.05,3.18-5.46,7.39-7.23,12.63-1.77,5.24-2.65,9.79-2.65,13.64,0,2.57,.5,4.67,1.49,6.27,.99,1.61,2.26,2.41,3.81,2.41,2.69,0,5.78-2.45,9.26-7.35,1.44-12.85,5.56-23.07,12.37-30.66Z"/><path class="cls-1" d="M607.85,142.03c-5.72,5.61-10.13,8.41-13.23,8.41-1.39,0-2.56-.59-3.52-1.76s-1.44-2.63-1.44-4.36c0-3.21,1.72-7.52,5.16-12.92-1.69,.87-3.53,1.47-5.54,1.81-1.48,2.73-3.81,5.67-6.97,8.82h-.79v-3.08c1.78-1.85,3.38-3.83,4.82-5.95-1.96-.87-2.94-2.15-2.94-3.86s.6-3.63,1.79-5.62c1.2-1.99,2.84-2.99,4.94-2.99,1.78,0,2.67,.91,2.67,2.73,0,1.44-.51,3.49-1.54,6.15,3.78-.41,7.09-3.3,9.91-8.68l3.11-.14-3.18,8.75c-1.32,3.69-2.18,6.2-2.56,7.54-.39,1.33-.58,2.51-.58,3.54,0,.96,.22,1.72,.67,2.29,.44,.57,1.04,.86,1.79,.86,.82,0,1.61-.28,2.36-.84s2.44-2.1,5.06-4.63v3.93Z"/><path class="cls-1" d="M633.42,142.03c-2.92,2.87-5.59,4.98-8.02,6.32-2.43,1.34-4.96,2.02-7.6,2.02-2.96,0-5.41-.96-7.33-2.89-1.93-1.92-2.89-4.37-2.89-7.33,0-4.85,1.77-9.34,5.31-13.45,3.54-4.11,7.38-6.17,11.5-6.17,2.03,0,3.68,.56,4.96,1.69,1.28,1.13,1.91,2.59,1.91,4.39,0,.64-.12,1.12-.36,1.44-.24,.32-.69,.64-1.35,.96l-3.96,1.88c-.48,.23-.83,.34-1.06,.34-.32,0-.48-.23-.48-.68,0-.18,.07-.78,.21-1.79,.14-1.01,.21-1.63,.21-1.86,0-1-.21-1.81-.63-2.43s-.99-.92-1.69-.92c-1.66,0-3.18,1.23-4.56,3.69-1.38,2.46-2.07,5.26-2.07,8.41,0,2.71,.65,4.88,1.95,6.49,1.3,1.62,3.03,2.43,5.2,2.43,1.85,0,3.58-.53,5.21-1.59s3.48-2.68,5.55-4.87v3.93Z"/><path class="cls-1" d="M669.92,142.03c-3.65,3.46-6.25,5.72-7.83,6.77-1.57,1.05-3.08,1.57-4.51,1.57-3.6,0-5.3-3.18-5.09-9.54-2.28,3.26-4.38,5.66-6.31,7.21-1.93,1.55-3.91,2.32-5.96,2.32s-3.71-.94-5.11-2.82c-1.4-1.88-2.1-4.19-2.1-6.92,0-3.42,.94-6.68,2.82-9.78,1.88-3.1,4.29-5.61,7.23-7.52s5.54-2.87,7.79-2.87c2.85,0,4.84,1.31,5.98,3.93l6.99-3.86h1.92l-3.01,10.01c-1.55,5.04-2.33,8.49-2.33,10.36,0,1.96,.69,2.94,2.08,2.94,.89,0,1.87-.47,2.94-1.42,1.07-.95,2.57-2.39,4.51-4.32v3.93Zm-25.02,1.88c2.28,0,4.43-1.94,6.44-5.83,2.02-3.88,3.02-7.47,3.02-10.75,0-1.28-.29-2.27-.85-2.99-.57-.72-1.33-1.08-2.29-1.08-2.28,0-4.44,1.94-6.48,5.81-2.04,3.87-3.06,7.44-3.06,10.7,0,1.23,.3,2.23,.91,2.99,.6,.76,1.37,1.15,2.31,1.15Z"/><path class="cls-1" d="M703.46,142.03c-5.26,5.56-9.78,8.34-13.54,8.34-1.53,0-2.76-.54-3.69-1.61-.93-1.07-1.4-2.51-1.4-4.31,0-2.44,1-6.16,3.01-11.18,1.07-2.69,1.61-4.4,1.61-5.13s-.29-1.09-.85-1.09c-.32,0-.74,.16-1.26,.48-.48,.32-1.04,.76-1.67,1.33-.57,.52-1.21,1.16-1.91,1.91-.62,.64-1.28,1.37-1.98,2.19l-1.91,2.22c-.84,1.03-1.37,2.11-1.57,3.25-.34,1.94-.57,3.71-.68,5.33-.07,1.21-.1,2.84-.1,4.89l-7.55,1.78c-.25-3.08-.38-5.37-.38-6.87,0-3.67,.43-7.14,1.28-10.43,.86-3.28,2.23-6.97,4.12-11.07l8.34-1.61c-1.75,4.72-2.91,8.43-3.45,11.14,3.73-4.17,6.7-7.06,8.89-8.67,2.19-1.61,4.15-2.41,5.85-2.41,1.16,0,2.13,.44,2.9,1.31,.77,.88,1.16,1.97,1.16,3.29,0,2.18-.98,5.78-2.94,10.8-1.34,3.44-2.02,5.68-2.02,6.7,0,1.37,.56,2.06,1.68,2.06,1.67,0,4.36-2.2,8.09-6.6v3.93Z"/><path class="cls-1" d="M739.92,142.03c-3.65,3.46-6.25,5.72-7.83,6.77-1.57,1.05-3.08,1.57-4.51,1.57-3.6,0-5.3-3.18-5.09-9.54-2.28,3.26-4.38,5.66-6.31,7.21-1.93,1.55-3.91,2.32-5.96,2.32s-3.71-.94-5.11-2.82c-1.4-1.88-2.1-4.19-2.1-6.92,0-3.42,.94-6.68,2.82-9.78,1.88-3.1,4.29-5.61,7.23-7.52s5.54-2.87,7.79-2.87c2.85,0,4.84,1.31,5.98,3.93l6.99-3.86h1.92l-3.01,10.01c-1.55,5.04-2.33,8.49-2.33,10.36,0,1.96,.69,2.94,2.08,2.94,.89,0,1.87-.47,2.94-1.42,1.07-.95,2.57-2.39,4.51-4.32v3.93Zm-25.02,1.88c2.28,0,4.43-1.94,6.44-5.83,2.02-3.88,3.02-7.47,3.02-10.75,0-1.28-.29-2.27-.85-2.99-.57-.72-1.33-1.08-2.29-1.08-2.28,0-4.44,1.94-6.48,5.81-2.04,3.87-3.06,7.44-3.06,10.7,0,1.23,.3,2.23,.91,2.99,.6,.76,1.37,1.15,2.31,1.15Z"/></g><g><path class="cls-1" d="M472.53,1821.03c0,.89-1.47,3.08-4.41,6.56h-.62c-.46-.18-.74-.85-.85-2.02-.25-2.35-1.06-4.27-2.43-5.76s-3.01-2.24-4.92-2.24c-1.8,0-3.35,.65-4.65,1.96s-1.95,2.87-1.95,4.69c0,1.32,.41,2.74,1.24,4.25s2.96,3.91,6.41,7.2c3.45,3.29,5.66,5.9,6.64,7.85,.98,1.95,1.47,3.8,1.47,5.55,0,4.06-1.76,7.63-5.28,10.71-3.52,3.09-7.64,4.63-12.36,4.63-3.9,0-7.11-.91-9.64-2.72s-3.79-3.29-3.79-4.43c0-.64,.69-2.12,2.08-4.44s2.19-3.49,2.39-3.49c.73,0,1.25,.21,1.55,.63,.31,.42,.52,1.2,.63,2.34,.34,3.55,1.2,6,2.58,7.35,1.38,1.34,3.17,2.02,5.38,2.02,2.41,0,4.52-.84,6.32-2.51,1.8-1.67,2.7-3.61,2.7-5.82,0-1.14-.35-2.35-1.05-3.64-.7-1.29-2.67-3.47-5.91-6.57-3.24-3.09-5.37-5.71-6.37-7.85-1-2.14-1.5-4.23-1.5-6.25,0-3.53,1.33-6.78,4-9.74,2.67-2.96,6.21-4.44,10.63-4.44,3.35,0,6.13,.77,8.36,2.31,2.22,1.54,3.33,2.82,3.33,3.84Z"/><path class="cls-1" d="M523.63,1856.03c-1.09,.91-2.19,1.56-3.28,1.95-1.09,.39-1.94,.58-2.53,.58-1.66,0-3.29-.64-4.89-1.91-4.15,5.15-8.42,7.72-12.82,7.72-3.24,0-5.55-1.78-6.94-5.33-3.05,3.55-6.35,5.33-9.88,5.33-2.3,0-4.11-.76-5.43-2.27-1.32-1.51-1.98-3.61-1.98-6.27,0-2.87,.4-5.79,1.21-8.75,.81-2.96,2.04-6.58,3.71-10.87l9.01-1.67-2.53,7.62c-2.14,6.61-3.21,11.16-3.2,13.67,0,1.19,.28,2.16,.85,2.91,.57,.75,1.29,1.13,2.15,1.13,1.82,0,3.64-1.41,5.47-4.24,0-3.58,.65-7.29,1.95-11.14l2.8-8.27,9.15-1.67-3.83,11.82c-1.23,3.8-1.85,6.81-1.85,9.02,0,1.34,.29,2.42,.89,3.21,.59,.8,1.38,1.2,2.36,1.2,1.21,0,2.35-.44,3.42-1.33s2.28-2.23,3.63-4.03c-1.21-2.21-1.81-4.5-1.81-6.87,0-3.42,.86-6.44,2.56-9.07s3.63-3.95,5.78-3.95c1.48,0,2.22,1.12,2.22,3.35,0,4.81-1.86,10.25-5.57,16.34,1.14,1.07,2.35,1.61,3.62,1.61,1.53,0,3.44-1.24,5.74-3.72v3.93Z"/><path class="cls-1" d="M554.29,1856.03c-1.16,1.03-2.29,1.75-3.38,2.17-1.09,.42-1.96,.63-2.6,.63-1.64,0-3.27-.64-4.89-1.91-3.28,4.97-7.04,7.45-11.28,7.45-2.64,0-4.79-.99-6.43-2.97s-2.46-4.62-2.46-7.9c0-5.2,1.85-9.66,5.54-13.38s8.1-5.59,13.23-5.59c1.94,0,3.36,.21,4.26,.63,.9,.42,1.45,.92,1.66,1.49,.21,.57,.31,1.29,.31,2.15,0,4.26-1.16,9.49-3.49,15.69,1.16,1.07,2.38,1.61,3.66,1.61,1.53,0,3.49-1.33,5.88-4v3.93Zm-11.28-19.11c-.34-.14-.83-.21-1.47-.21-2.96,0-5.28,1.55-6.96,4.65-1.67,3.1-2.51,6.72-2.51,10.87,0,2.3,.36,4.09,1.09,5.37,.73,1.28,1.74,1.91,3.04,1.91,1.62,0,3.37-1.49,5.26-4.48-2.14-2.69-3.21-5.58-3.21-8.68,0-3.65,1.58-6.79,4.75-9.43Z"/><path class="cls-1" d="M579.82,1856.03c-5.72,5.61-10.13,8.41-13.23,8.41-1.39,0-2.56-.59-3.52-1.76s-1.44-2.63-1.44-4.36c0-3.21,1.72-7.52,5.16-12.92-1.69,.87-3.53,1.47-5.54,1.81-1.48,2.73-3.81,5.67-6.97,8.82h-.79v-3.08c1.78-1.85,3.38-3.83,4.82-5.95-1.96-.87-2.94-2.15-2.94-3.86s.6-3.63,1.79-5.62c1.2-1.99,2.84-2.99,4.94-2.99,1.78,0,2.67,.91,2.67,2.73,0,1.44-.51,3.49-1.54,6.15,3.78-.41,7.09-3.3,9.91-8.68l3.11-.14-3.18,8.75c-1.32,3.69-2.18,6.2-2.56,7.54s-.58,2.51-.58,3.54c0,.96,.22,1.72,.67,2.29,.44,.57,1.04,.86,1.79,.86,.82,0,1.61-.28,2.36-.84s2.44-2.1,5.06-4.63v3.93Z"/><path class="cls-1" d="M616.32,1856.03c-3.28,3.26-5.78,5.46-7.5,6.61s-3.24,1.73-4.56,1.73c-1.62,0-2.9-.79-3.85-2.36s-1.43-3.87-1.45-6.9c-1.87,3.03-3.9,5.33-6.1,6.9s-4.19,2.36-5.96,2.36c-1.94,0-3.65-.92-5.13-2.75-1.48-1.83-2.22-3.98-2.22-6.44,0-5.08,1.85-9.79,5.55-14.13s7.68-6.51,11.95-6.51c1.19,0,2.11,.17,2.79,.51s1.41,.92,2.21,1.74l4.89-20.44c3.99-.93,6.68-1.4,8.07-1.4,.46,0,.68,.18,.68,.55,0,.25-.57,2.61-1.71,7.08-4.55,17.87-6.83,28.64-6.83,32.33,0,.87,.18,1.56,.55,2.08,.36,.52,.84,.79,1.43,.79,1.46,0,3.86-1.89,7.2-5.67v3.93Zm-24.71,1.81c2.23,0,4.32-1.89,6.25-5.67,1.94-3.78,2.91-7.33,2.91-10.63,0-1.34-.3-2.41-.91-3.21-.6-.8-1.4-1.2-2.38-1.2-2.12,0-4.17,1.98-6.15,5.93s-2.97,7.53-2.97,10.71c0,1.25,.29,2.25,.87,2.97,.58,.73,1.37,1.09,2.38,1.09Z"/><path class="cls-1" d="M626.82,1836c1.57-.41,3.15-.75,4.75-1.01s2.55-.39,2.87-.39c.23,0,.34,.09,.34,.27,0,.34-.09,.69-.27,1.06-.37,1.05-.55,2.05-.55,3.01,0,1.18,.69,2.8,2.05,4.85s2.05,3.96,2.05,5.71c0,3.49-1.67,6.85-5.01,10.08-3.34,3.24-6.8,4.85-10.38,4.85-1.55,0-2.96-.41-4.24-1.23s-1.91-1.7-1.91-2.63c0-.55,.63-1.58,1.9-3.11,1.26-1.53,2.17-2.29,2.72-2.29,.73,0,1.38,.93,1.95,2.8,.57,1.87,1.55,2.8,2.94,2.8s2.7-.64,3.91-1.93,1.83-2.67,1.83-4.15c0-1.44-.77-3.35-2.32-5.74-1.55-2.39-2.58-4.4-3.08-6.01-2.64,4.26-5.99,8.62-10.05,13.09h-.79v-3.08c5.58-5.95,9.34-11.6,11.28-16.95Z"/></g></g></g><g id="_반짝이"><polygon class="cls-7" points="380.78 582 389.4 615.43 417.14 622.3 389.4 629.83 380.78 663.88 371.7 629.83 344.42 622.3 371.7 615.43 380.78 582"/><polygon class="cls-7" points="804.78 1204 813.4 1237.43 841.14 1244.3 813.4 1251.83 804.78 1285.88 795.7 1251.83 768.42 1244.3 795.7 1237.43 804.78 1204"/><circle class="cls-8" cx="432" cy="582" r="8"/><circle class="cls-8" cx="483.5" cy="1179.5" r="10.5"/><circle class="cls-7" cx="445.5" cy="1224.5" r="7.5"/><circle class="cls-8" cx="825.5" cy="1158.5" r="10.5"/><circle class="cls-7" cx="791" cy="1078" r="7"/><circle class="cls-7" cx="445.5" cy="1085.5" r="11.5"/></g><g id="_소드_6"><g><circle class="cls-4" cx="575.58" cy="585.34" r="12.33"/><g><polygon class="cls-8" points="555.81 1229.86 567.83 1196.61 584.66 691.86 573.76 691.49 555.81 1229.86"/><polygon class="cls-8" points="552.39 1229.75 570.34 691.38 559.44 691.01 542.61 1195.77 552.39 1229.75"/></g><rect class="cls-3" x="521.17" y="677.74" width="101.94" height="21.92" rx="10.96" ry="10.96" transform="translate(1121.01 1396.08) rotate(-178.09)"/><rect class="cls-3" x="559.76" y="589.42" width="27.98" height="102.05" transform="translate(1125.83 1299.65) rotate(-178.09)"/><rect class="cls-3" x="556.05" y="582.6" width="38.94" height="9.59" rx="4.79" ry="4.79" transform="translate(1131.14 1193.64) rotate(-178.09)"/></g><g><circle class="cls-4" cx="299.75" cy="585.34" r="12.33"/><g><polygon class="cls-8" points="357.12 1227.61 365.08 1193.16 321.48 690.01 310.62 690.96 357.12 1227.61"/><polygon class="cls-8" points="353.7 1227.91 307.2 691.25 296.34 692.19 339.94 1195.34 353.7 1227.91"/></g><rect class="cls-3" x="257.7" y="677.42" width="101.94" height="21.92" rx="10.96" ry="10.96" transform="translate(675.62 1347.53) rotate(175.05)"/><rect class="cls-3" x="290.52" y="589.25" width="27.98" height="102.05" transform="translate(663.15 1251.86) rotate(175.05)"/><rect class="cls-3" x="280.46" y="582.6" width="38.94" height="9.59" rx="4.79" ry="4.79" transform="translate(649.43 1146.7) rotate(175.05)"/></g><g><circle class="cls-4" cx="220.76" cy="643.87" r="12.33"/><g><polygon class="cls-8" points="320.91 1280.87 326.55 1245.97 249.44 746.86 238.66 748.52 320.91 1280.87"/><polygon class="cls-8" points="317.53 1281.39 235.27 749.04 224.5 750.71 301.61 1249.82 317.53 1281.39"/></g><rect class="cls-3" x="185.58" y="735.12" width="101.94" height="21.92" rx="10.96" ry="10.96" transform="translate(584.24 1447.28) rotate(171.22)"/><rect class="cls-3" x="215.19" y="647.33" width="27.98" height="102.05" transform="translate(562.3 1353.53) rotate(171.22)"/><rect class="cls-3" x="201.6" y="641.11" width="38.94" height="9.59" rx="4.79" ry="4.79" transform="translate(538.18 1250.47) rotate(171.22)"/></g><g><circle class="cls-4" cx="719.61" cy="589.32" r="12.33"/><g><polygon class="cls-8" points="630.44 1227.95 645.98 1196.19 717.14 696.19 706.35 694.66 630.44 1227.95"/><polygon class="cls-8" points="627.05 1227.47 702.96 694.17 692.16 692.64 620.99 1192.63 627.05 1227.47"/></g><rect class="cls-3" x="654.06" y="680.74" width="101.94" height="21.92" rx="10.96" ry="10.96" transform="translate(1305.57 1475.85) rotate(-171.9)"/><rect class="cls-3" x="697.85" y="592.88" width="27.98" height="102.05" transform="translate(1325.85 1381.68) rotate(-171.9)"/><rect class="cls-3" x="699.85" y="586.56" width="38.94" height="9.59" rx="4.79" ry="4.79" transform="translate(1348.13 1278.17) rotate(-171.9)"/></g><g><circle class="cls-4" cx="762.44" cy="626.76" r="12.33"/><g><polygon class="cls-8" points="724.6 1270.47 737.55 1237.57 768.53 733.49 757.64 732.82 724.6 1270.47"/><polygon class="cls-8" points="721.18 1270.26 754.22 732.61 743.34 731.94 712.36 1236.02 721.18 1270.26"/></g><rect class="cls-3" x="705.13" y="719.02" width="101.94" height="21.92" rx="10.96" ry="10.96" transform="translate(1466 1504.96) rotate(-176.48)"/><rect class="cls-3" x="745.07" y="630.76" width="27.98" height="102.05" transform="translate(1474.88 1408.85) rotate(-176.48)"/><rect class="cls-3" x="742.85" y="624.02" width="38.94" height="9.59" rx="4.79" ry="4.79" transform="translate(1484.63 1303.19) rotate(-176.48)"/></g><g><circle class="cls-4" cx="829.03" cy="572" r="12.33"/><g><polygon class="cls-8" points="877.67 1214.99 886.1 1180.65 849.34 676.96 838.46 677.75 877.67 1214.99"/><polygon class="cls-8" points="874.25 1215.24 835.05 678 824.17 678.79 860.93 1182.49 874.25 1215.24"/></g><rect class="cls-3" x="785.59" y="664.19" width="101.94" height="21.92" rx="10.96" ry="10.96" transform="translate(1720.03 1287.62) rotate(175.83)"/><rect class="cls-3" x="819.05" y="575.96" width="27.98" height="102.05" transform="translate(1709.51 1191.69) rotate(175.83)"/><rect class="cls-3" x="809.71" y="569.26" width="38.94" height="9.59" rx="4.79" ry="4.79" transform="translate(1697.94 1086.24) rotate(175.83)"/></g><path class="cls-5" d="M503.1,683.4c-12.18-12.68-32.5-21.61-54.25-19.61-22.97,2.11-41.07,15.79-49.91,30.4-4.3,7.1-9.21,19.04,2.17,82.38,3.18,17.71,6.41,32.62,8.96,43.65h-3.92c-6.97,0-12.68,5.7-12.68,12.68,0,5.19,3.17,9.68,7.66,11.63-6.24,.78-11.12,6.13-11.12,12.57,0,4.04,1.92,7.64,4.89,9.97-3.61,2.24-6.04,6.23-6.04,10.77,0,5.48,3.53,10.17,8.43,11.92-5.49,1.39-9.58,6.37-9.58,12.27,0,4.43,2.3,8.33,5.77,10.6-5.4,10.15-10.02,20.69-13.75,31.56-7.8,22.72-15.83,58.73-9.75,101.28,3.66,25.61,11.87,50.25,24.4,73.22,2.2,4.03,6.35,6.31,10.63,6.31,1.96,0,3.94-.48,5.78-1.48,5.87-3.2,8.03-10.55,4.83-16.42-11.14-20.43-18.44-42.31-21.69-65.05-4.13-28.93-.91-54.47,3.94-73.92-2.21,45.63,3.02,54.62,7.35,60.04,9.81,12.26,28.22,22.7,50.01,22.14,20.64-.53,38.79-10.78,48.92-23.55,15.26-19.24,10-41.27,5.54-59.93-5.23-21.92-15.62-40.1-26.97-54.58,3.16-2.31,5.23-6.03,5.23-10.22,0-5.48-3.53-10.17-8.43-11.92,5.49-1.39,9.58-6.37,9.58-12.27,0-4.04-1.92-7.64-4.89-9.97,3.61-2.24,6.04-6.23,6.04-10.77,0-5.19-3.17-9.68-7.66-11.63,6.24-.78,11.12-6.13,11.12-12.57,0-4.67-2.56-8.75-6.34-10.96,12.98-18.88,25.24-43.77,28.74-73.81,2.44-20.92,5.33-45.63-13.02-64.73Zm-16.04,302.19c-.41,12.59-.92,28.36-14.39,36.68-9.98,6.17-25.09,7.02-34.95,1.29-11.14-6.47-12.31-19.42-13.42-36.2-1.3-19.54-2.49-44.03-2.9-72.66h36.16c5.86,7.08,10.14,13.57,13.24,18.83,7.25,12.31,17.01,29.34,16.27,52.05Zm-7.84-196.27c-3.5,8.17-8.95,18.97-17.49,30.9h-31.77c-3.26-33.09-5.05-61.41-6.07-83.86-.84-18.46-1.17-32.74,9.77-41.19,9.68-7.48,25.66-8.44,36.89-2.94,15.16,7.41,17.59,24.56,19.53,38.25,3.5,24.69-4.7,44.51-10.85,58.85Z"/><polygon class="cls-4" points="440.34 811.86 447.03 851.6 465.08 843.02 456.5 861.07 486.97 867.77 456.5 874.46 465.08 892.51 447.03 883.93 440.34 927 433.64 883.93 415.59 892.51 424.17 874.46 396.46 867.77 424.17 861.07 415.59 843.02 433.64 851.6 440.34 811.86"/></g></svg>