<?xml version="1.0" encoding="UTF-8"?><svg xmlns="http://www.w3.org/2000/svg" viewBox="0 0 1080 1944"><defs><style>.cls-1{fill:#fff;}.cls-2{fill:#f6ef84;}.cls-3{fill:#3f3730;}.cls-4{fill:#4c5fa9;}.cls-5{fill:#bad6eb;}.cls-6{fill:#c8c0de;}.cls-7{fill:#b1d4f0;}</style></defs><g id="_배경_텍스트"><g><rect class="cls-5" y="2" width="1080" height="1944"/><rect class="cls-1" x="74.84" y="188.39" width="930.33" height="1606.64" rx="65.21" ry="65.21"/><g><path class="cls-3" d="M205.52,1610.88c-3.97,1.54-7.32,2.31-10.04,2.31-1.93,0-4.39-.55-7.38-1.67-2.99-1.11-5.15-1.67-6.47-1.67-2.36,0-4.39,.92-6.07,2.77-1.68,1.84-2.53,4.07-2.53,6.69,0,3.01,1.36,5.66,4.08,7.95,.89,.75,1.34,1.33,1.34,1.72,0,.61-.81,1.74-2.45,3.38-1.63,1.65-3.02,2.47-4.16,2.47-1.25,0-2.51-1.06-3.76-3.17-1.25-2.11-1.88-4.28-1.88-6.5,0-5.8,2.36-11.17,7.09-16.11s9.85-7.41,15.36-7.41c2.11,0,4.73,.6,7.87,1.8,3.13,1.2,5.4,1.8,6.79,1.8,2.15,0,4.05-.88,5.69-2.63,.57-.57,1.09-.86,1.56-.86s1.24,.18,2.34,.54c1.09,.36,1.64,.75,1.64,1.18,0,.32-1.01,1.76-3.01,4.32-2.01,2.56-3.57,5.33-4.68,8.3s-2.15,7.39-3.12,13.26l-1.13,6.61c-2.16,13.1-4.69,22.32-7.61,27.63-2.92,5.32-6.57,9.3-10.95,11.95-4.38,2.65-9.11,3.98-14.2,3.98s-9.1-1.15-12.8-3.44-5.55-4.85-5.55-7.68c0-1.4,1.22-3.16,3.65-5.29,2.43-2.13,4.19-3.2,5.26-3.2,1.68,0,2.52,1.36,2.52,4.08,.11,7.63,2.53,11.44,7.25,11.44,7.34,0,12.19-8.41,14.55-25.24,1.04-7.2,2.57-13.47,4.59-18.83,2.02-5.35,7.42-12.18,16.2-20.49Zm37.71,55.48c-4.3,4.57-8.08,7.9-11.33,10-3.26,2.1-6.7,3.15-10.31,3.15s-6.74-1.36-9.16-4.08c-2.42-2.72-3.62-6.18-3.62-10.37,0-.61,.24-2.96,.72-7.06,.48-4.1,.73-6.54,.73-7.33,0-3.4-.7-5.82-2.1-7.25-.43,.07-1.09,.11-1.99,.11-1.68,0-2.53-.73-2.53-2.2,0-2.15,1.11-3.22,3.33-3.22l2.36,.16c2.26,0,4.17-1.06,5.75-3.17,1.57-2.11,3.08-6.09,4.51-11.92,3.51-14.29,8.79-21.43,15.84-21.43,1.65,0,3.21,.63,4.7,1.88,1.49,1.25,2.23,2.56,2.23,3.92,0,.82-.66,2.53-1.99,5.13-1.32,2.6-2.36,3.89-3.12,3.89-.39,0-.98-.66-1.77-1.99-.79-1.32-1.95-1.99-3.49-1.99-3.01,0-5.35,3.28-7.04,9.83-1.68,6.55-3.38,11.01-5.1,13.37s-3.58,3.9-5.59,4.62c3.58,1.86,6.19,4.03,7.81,6.5,1.63,2.47,2.45,5.75,2.45,9.83,0,.79-.08,2.08-.24,3.87-.16,1.79-.24,3.12-.24,3.97,0,4.01,1.63,6.02,4.89,6.02,3.76,0,8.52-3.47,14.29-10.42v6.18Z"/><path class="cls-3" d="M295.96,1666.42c-8.27,8.74-15.36,13.11-21.27,13.11-2.4,0-4.33-.84-5.8-2.52-1.47-1.68-2.2-3.94-2.2-6.77,0-3.83,1.58-9.69,4.73-17.56,1.68-4.22,2.53-6.91,2.53-8.06s-.45-1.72-1.34-1.72c-.5,0-1.16,.25-1.99,.75-.75,.5-1.63,1.2-2.63,2.09-.89,.82-1.9,1.83-3.01,3.01-.97,1-2.01,2.15-3.12,3.44l-3.01,3.49c-1.32,1.61-2.15,3.31-2.47,5.1-.54,3.04-.89,5.84-1.07,8.38-.11,1.9-.16,4.46-.16,7.68l-11.87,2.79c-.39-4.83-.59-8.43-.59-10.8,0-5.76,.67-11.23,2.01-16.38,1.34-5.16,3.5-10.96,6.47-17.4l13.11-2.52c-2.76,7.41-4.57,13.25-5.43,17.51,5.87-6.55,10.53-11.09,13.98-13.62,3.45-2.53,6.52-3.79,9.2-3.79,1.82,0,3.34,.69,4.56,2.07s1.82,3.1,1.82,5.18c0,3.43-1.54,9.09-4.62,16.97-2.11,5.41-3.17,8.92-3.17,10.53,0,2.15,.88,3.23,2.64,3.23,2.62,0,6.86-3.46,12.71-10.37v6.18Z"/><path class="cls-3" d="M322.34,1666.42c-8.38,8.81-14.64,13.21-18.8,13.21-2.29,0-4.22-1.17-5.8-3.52-1.58-2.34-2.36-5.29-2.36-8.83,0-7.63,2.58-18.19,7.73-31.69l13.64-2.85h.64l-5.37,16.81c-2.22,6.95-3.33,11.91-3.33,14.88,0,1.18,.26,2.14,.78,2.87,.52,.73,1.17,1.1,1.96,1.1,1.4,0,2.8-.51,4.21-1.53,1.42-1.02,3.64-3.23,6.69-6.63v6.18Zm-1.07-54.68c0,8.59-3.17,12.89-9.51,12.89-3.08,0-5.71-.93-7.9-2.79,2.08-3.15,3.69-6.7,4.83-10.63,2.83,1.75,5.1,2.63,6.82,2.63,1.93,0,3.85-.7,5.75-2.09Z"/><path class="cls-3" d="M375.08,1666.42c-4.54,4.76-9.98,8.27-16.32,10.52-2.97,9.27-6.74,16.42-11.31,21.43-4.57,5.01-9.41,7.52-14.53,7.52-2.79,0-5.05-.88-6.77-2.63-1.72-1.75-2.58-4.06-2.58-6.93,0-3.83,1.71-7.27,5.13-10.31,3.42-3.04,9.23-5.98,17.43-8.81l2.31-10.58c-3.44,3.87-6.41,6.71-8.92,8.51-2.51,1.81-5.03,2.71-7.57,2.71-2.97,0-5.41-1.4-7.3-4.19-1.9-2.79-2.85-6.43-2.85-10.9,0-7.3,2.78-14.15,8.35-20.54,5.57-6.39,11.48-9.59,17.75-9.59,3.47,0,6.55,1.47,9.23,4.4,1.61-.57,3.71-1.43,6.28-2.58l3.81-1.72h1.23c-1.39,4.23-2.46,8.34-3.21,12.35l-5.04,26.91c4.83-1.83,9.79-5.75,14.87-11.76v6.18Zm-30.08,15.52c-11.57,4.15-17.35,8.95-17.35,14.39,0,1.61,.48,2.93,1.45,3.95,.97,1.02,2.2,1.53,3.71,1.53,2.58,0,4.81-1.63,6.71-4.89,1.9-3.26,3.72-8.25,5.48-14.99Zm-4.51-13.75c2.54,0,4.8-1.5,6.77-4.51s3.5-6.82,4.59-11.44c1.09-4.62,1.64-7.82,1.64-9.61,0-1.68-.42-3.07-1.26-4.16-.84-1.09-1.89-1.64-3.14-1.64-3.79,0-7.11,2.56-9.94,7.68-2.83,5.12-4.24,10.33-4.24,15.63,0,2.47,.51,4.43,1.53,5.88,1.02,1.45,2.37,2.18,4.05,2.18Z"/><path class="cls-3" d="M427.77,1666.42c-8.49,8.81-15.47,13.21-20.95,13.21-2.44,0-4.45-.83-6.04-2.5-1.59-1.67-2.39-3.77-2.39-6.31,0-4.3,1.65-10.35,4.94-18.15,1.75-4.22,2.63-6.98,2.63-8.27,0-1.47-.7-2.2-2.1-2.2s-3.51,.98-6.23,2.93c-2.72,1.95-5.59,4.61-8.59,7.98-1.25,6.59-1.88,14.5-1.88,23.74l-11.98,2.79c-.46-3.76-.7-7.84-.7-12.25,0-10.67,1.47-20.61,4.4-29.81,2.94-9.2,7.55-18.96,13.86-29.27,4.69-1.9,8.78-3.45,12.27-4.65,3.49-1.2,5.49-1.8,5.99-1.8,.93,0,1.72,.75,2.36,2.26s.97,3.38,.97,5.64c0,3.8-1.16,7.99-3.49,12.6-2.33,4.6-5.98,10.16-10.96,16.68,4.77-2.76,7.94-4.49,9.52-5.21,1.58-.72,3.19-1.07,4.84-1.07,1.83,0,3.31,.65,4.44,1.96,1.13,1.31,1.69,3.04,1.69,5.19,0,3.23-1.28,8.22-3.85,14.99-2.57,6.76-3.85,11.01-3.85,12.72,0,.79,.24,1.49,.73,2.09,.48,.61,1.04,.91,1.69,.91,2.29,0,6.52-3.46,12.67-10.37v6.18Zm-37.22-22.02c12.78-14.86,19.18-25.82,19.18-32.87,0-2.15-.59-3.22-1.77-3.22-1.97,0-4.78,3.53-8.43,10.58-3.65,7.05-6.64,15.56-8.97,25.51Z"/><path class="cls-3" d="M458.65,1666.42c-4.51,4.48-8.41,7.78-11.71,9.91-3.29,2.13-6.43,3.2-9.4,3.2s-5.58-1.3-7.49-3.89c-1.91-2.6-2.87-6.01-2.87-10.23,0-3.72,.92-8.64,2.76-14.75l2.28-8.13-4.12,.21,1.72-8.43,5.11-.21,5.04-16.76,14.35-2.95-5.55,18.68,7.59-.43-1.78,8.27-8.33,.64-3.58,12.04c-1.24,4.18-1.87,7.51-1.87,9.98,0,1.68,.42,3.05,1.26,4.11,.84,1.06,1.93,1.58,3.25,1.58,1.83,0,3.64-.58,5.43-1.75,1.79-1.16,4.43-3.59,7.91-7.28v6.18Z"/><path class="cls-3" d="M534.33,1666.42c-1.83,1.61-3.6,2.75-5.32,3.41-1.72,.66-3.08,.99-4.08,.99-2.58,0-5.14-1-7.68-3.01-5.16,7.81-11.06,11.71-17.72,11.71-4.15,0-7.52-1.56-10.1-4.67s-3.87-7.25-3.87-12.41c0-8.16,2.9-15.17,8.7-21.03,5.8-5.85,12.73-8.78,20.79-8.78,3.04,0,5.27,.33,6.69,.99,1.41,.66,2.28,1.44,2.61,2.34,.32,.9,.48,2.02,.48,3.38,0,6.7-1.83,14.91-5.48,24.65,1.83,1.68,3.74,2.52,5.75,2.52,2.4,0,5.48-2.09,9.24-6.28v6.18Zm-17.72-30.02c-.54-.21-1.31-.32-2.31-.32-4.65,0-8.3,2.44-10.93,7.3-2.63,4.87-3.95,10.56-3.95,17.08,0,3.62,.57,6.43,1.72,8.43,1.14,2.01,2.74,3.01,4.78,3.01,2.54,0,5.3-2.34,8.27-7.04-3.37-4.22-5.05-8.77-5.05-13.64,0-5.73,2.49-10.67,7.47-14.82Z"/><path class="cls-3" d="M577.89,1666.42c-3.72,4.19-7.4,7.42-11.05,9.69-3.65,2.27-6.9,3.41-9.77,3.41-1.36,0-3.22-.52-5.58-1.55-1.51,7.88-2.84,16.38-3.99,25.5-3.73,.5-8.21,1.27-13.44,2.31,1.15-9.81,3.13-22.54,5.96-38.19-.39-.68-1.09-2.4-2.09-5.16l-3.6,3.97h-1.24v-4.83l10.24-10.62c1.95-9.61,3.53-16.56,4.75-20.86,1.22-4.3,2.92-9.05,5.1-14.26,2.18-5.21,3.56-8.2,4.14-8.97,.57-.77,1.96-1.5,4.16-2.2,2.2-.7,4.56-1.36,7.06-1.99,2.51-.63,3.85-.94,4.03-.94,1.36,0,2.47,.89,3.33,2.66s1.29,4.1,1.29,7c0,5.01-1.32,9.84-3.97,14.49-2.64,4.65-7.64,10.37-15,17.17l-4.51,22.45c1.75,3.75,4.38,5.63,7.88,5.63,5,0,10.44-3.63,16.3-10.9v6.18Zm-18.04-30.61c4.19-3.65,7.47-7.58,9.85-11.79,2.38-4.21,3.57-8.08,3.57-11.63,0-1.5-.28-2.74-.83-3.71s-1.24-1.45-2.06-1.45c-1.57,0-3.17,2.06-4.79,6.18-1.62,4.12-3.54,11.58-5.73,22.4Z"/><path class="cls-3" d="M661.47,1611.42c0,1.4-2.31,4.83-6.93,10.31h-.97c-.72-.29-1.16-1.34-1.34-3.17-.39-3.69-1.66-6.71-3.81-9.05-2.15-2.34-4.73-3.52-7.73-3.52-2.83,0-5.26,1.03-7.3,3.08-2.04,2.06-3.06,4.52-3.06,7.38,0,2.07,.65,4.3,1.95,6.68,1.29,2.38,4.65,6.15,10.07,11.31,5.42,5.17,8.9,9.28,10.44,12.34,1.54,3.06,2.31,5.97,2.31,8.73,0,6.37-2.77,11.99-8.3,16.84-5.53,4.85-12,7.28-19.42,7.28-6.12,0-11.17-1.42-15.15-4.27-3.97-2.85-5.96-5.16-5.96-6.96,0-1,1.09-3.33,3.28-6.98,2.18-3.65,3.44-5.48,3.76-5.48,1.14,0,1.96,.33,2.44,.99,.48,.66,.81,1.89,.99,3.68,.54,5.59,1.89,9.44,4.05,11.55,2.17,2.11,4.99,3.17,8.46,3.17,3.79,0,7.11-1.31,9.94-3.94,2.83-2.63,4.24-5.68,4.24-9.15,0-1.79-.55-3.69-1.65-5.71-1.1-2.02-4.2-5.46-9.29-10.32s-8.43-8.97-10.01-12.34c-1.58-3.37-2.36-6.64-2.36-9.83,0-5.55,2.1-10.65,6.29-15.31,4.19-4.65,9.76-6.98,16.7-6.98,5.26,0,9.64,1.21,13.13,3.63,3.49,2.42,5.24,4.43,5.24,6.04Z"/><path class="cls-3" d="M741.77,1666.42c-1.72,1.43-3.44,2.45-5.16,3.06-1.72,.61-3.04,.91-3.97,.91-2.62,0-5.18-1-7.68-3.01-6.52,8.09-13.23,12.14-20.14,12.14-5.09,0-8.72-2.79-10.9-8.38-4.8,5.59-9.97,8.38-15.52,8.38-3.62,0-6.46-1.19-8.54-3.57-2.08-2.38-3.12-5.67-3.12-9.86,0-4.51,.64-9.09,1.91-13.75,1.27-4.65,3.21-10.35,5.83-17.08l14.16-2.63-3.97,11.97c-3.37,10.38-5.04,17.54-5.03,21.48,0,1.86,.45,3.39,1.34,4.57,.89,1.18,2.02,1.77,3.38,1.77,2.87,0,5.73-2.22,8.59-6.66,0-5.62,1.02-11.46,3.06-17.51l4.4-13,14.38-2.63-6.02,18.58c-1.94,5.98-2.9,10.71-2.9,14.18,0,2.11,.47,3.8,1.4,5.05s2.17,1.88,3.71,1.88c1.9,0,3.69-.7,5.38-2.09,1.68-1.4,3.58-3.51,5.7-6.34-1.9-3.47-2.85-7.07-2.85-10.8,0-5.37,1.34-10.12,4.03-14.26,2.69-4.13,5.71-6.2,9.08-6.2,2.33,0,3.49,1.75,3.49,5.26,0,7.56-2.92,16.11-8.75,25.67,1.79,1.68,3.69,2.52,5.69,2.52,2.4,0,5.41-1.95,9.02-5.85v6.18Z"/><path class="cls-3" d="M789.94,1666.42c-1.83,1.61-3.6,2.75-5.32,3.41-1.72,.66-3.08,.99-4.08,.99-2.58,0-5.14-1-7.68-3.01-5.16,7.81-11.06,11.71-17.72,11.71-4.15,0-7.52-1.56-10.1-4.67s-3.87-7.25-3.87-12.41c0-8.16,2.9-15.17,8.7-21.03,5.8-5.85,12.73-8.78,20.79-8.78,3.04,0,5.27,.33,6.69,.99,1.42,.66,2.28,1.44,2.61,2.34,.32,.9,.48,2.02,.48,3.38,0,6.7-1.83,14.91-5.48,24.65,1.83,1.68,3.74,2.52,5.75,2.52,2.4,0,5.48-2.09,9.24-6.28v6.18Zm-17.72-30.02c-.54-.21-1.31-.32-2.31-.32-4.66,0-8.3,2.44-10.93,7.3-2.63,4.87-3.95,10.56-3.95,17.08,0,3.62,.57,6.43,1.72,8.43,1.15,2.01,2.74,3.01,4.78,3.01,2.54,0,5.3-2.34,8.27-7.04-3.37-4.22-5.05-8.77-5.05-13.64,0-5.73,2.49-10.67,7.46-14.82Z"/><path class="cls-3" d="M830.07,1666.42c-8.99,8.81-15.92,13.21-20.79,13.21-2.18,0-4.03-.92-5.53-2.77-1.5-1.84-2.26-4.13-2.26-6.85,0-5.05,2.7-11.82,8.11-20.3-2.65,1.36-5.55,2.31-8.7,2.85-2.33,4.3-5.98,8.92-10.96,13.86h-1.23v-4.83c2.79-2.9,5.32-6.02,7.57-9.35-3.08-1.36-4.62-3.38-4.62-6.07s.94-5.7,2.82-8.84c1.88-3.13,4.47-4.7,7.76-4.7,2.79,0,4.19,1.43,4.19,4.3,0,2.26-.81,5.48-2.42,9.67,5.94-.64,11.14-5.19,15.58-13.64l4.89-.21-5,13.75c-2.08,5.8-3.42,9.75-4.03,11.84-.61,2.09-.91,3.95-.91,5.56,0,1.5,.35,2.7,1.05,3.6,.7,.9,1.64,1.34,2.82,1.34,1.29,0,2.53-.44,3.71-1.32,1.18-.88,3.83-3.3,7.95-7.28v6.18Z"/><path class="cls-3" d="M887.43,1666.42c-5.16,5.12-9.09,8.58-11.79,10.39-2.71,1.81-5.1,2.71-7.17,2.71-2.54,0-4.56-1.24-6.04-3.71-1.49-2.47-2.25-6.09-2.28-10.85-2.94,4.76-6.13,8.38-9.59,10.85s-6.58,3.71-9.37,3.71c-3.04,0-5.73-1.44-8.06-4.32-2.33-2.88-3.49-6.26-3.49-10.12,0-7.98,2.91-15.39,8.73-22.21,5.82-6.82,12.07-10.23,18.77-10.23,1.86,0,3.32,.27,4.38,.81s2.21,1.45,3.46,2.74l7.68-32.12c6.27-1.47,10.5-2.2,12.69-2.2,.72,0,1.07,.29,1.07,.86,0,.39-.89,4.1-2.68,11.12-7.15,28.07-10.73,45.01-10.73,50.81,0,1.36,.29,2.45,.86,3.28,.57,.82,1.32,1.23,2.25,1.23,2.29,0,6.06-2.97,11.31-8.92v6.18Zm-38.83,2.85c3.51,0,6.79-2.97,9.83-8.92,3.04-5.94,4.56-11.51,4.56-16.7,0-2.11-.47-3.79-1.42-5.05-.95-1.25-2.2-1.88-3.73-1.88-3.33,0-6.55,3.11-9.67,9.32-3.12,6.21-4.67,11.83-4.67,16.84,0,1.97,.46,3.53,1.37,4.67,.91,1.15,2.16,1.72,3.73,1.72Z"/><path class="cls-3" d="M903.92,1634.94c2.47-.64,4.96-1.17,7.47-1.58,2.51-.41,4.01-.62,4.51-.62,.36,0,.54,.14,.54,.43,0,.54-.14,1.09-.43,1.66-.57,1.65-.86,3.22-.86,4.72,0,1.86,1.08,4.4,3.23,7.63,2.14,3.22,3.22,6.22,3.22,8.97,0,5.48-2.62,10.76-7.87,15.84-5.25,5.08-10.68,7.63-16.3,7.63-2.44,0-4.66-.64-6.66-1.93-2.01-1.29-3.01-2.67-3.01-4.14,0-.86,.99-2.49,2.98-4.89,1.99-2.4,3.41-3.6,4.27-3.6,1.15,0,2.17,1.47,3.06,4.4,.89,2.94,2.43,4.4,4.62,4.4s4.23-1.01,6.15-3.04c1.92-2.02,2.88-4.2,2.88-6.53,0-2.26-1.21-5.26-3.65-9.02-2.44-3.76-4.05-6.91-4.84-9.45-4.15,6.7-9.42,13.55-15.79,20.57h-1.24v-4.83c8.77-9.35,14.68-18.23,17.72-26.64Z"/></g><g><path class="cls-1" d="M410.88,144.03c-5.1,5.49-9.75,8.24-13.95,8.24-2.55,0-4.5-1.23-5.83-3.69-1.33-2.46-2-5.75-2-9.88,0-3.19,.65-7.58,1.96-13.16,1.31-5.58,3-10.28,5.08-14.08l1.98-3.55c-2.71,2.83-4.93,5.92-6.67,9.28-1.73,3.36-3.8,8.06-6.2,14.1-2.4,6.04-4.22,10.15-5.45,12.34s-2.41,3.97-3.54,5.35c-1.13,1.38-2.13,2.27-3.01,2.68-.88,.41-2.41,.62-4.6,.62-.84,0-1.26-.23-1.26-.68,0-.05,.15-.76,.45-2.15,.3-1.39,.61-3.62,.92-6.68s.54-8.27,.68-15.62,1.21-13.64,3.21-18.88c-2.14,2.44-4.33,8.11-6.57,17.02l-.86,3.35c-2.35,9.27-5.04,15.53-8.08,18.78-3.03,3.25-6.01,4.87-8.93,4.87-1.8,0-3.39-.57-4.76-1.71-1.37-1.14-2.05-2.45-2.05-3.93,0-1.14,.82-2.41,2.46-3.83,1.64-1.41,2.68-2.12,3.11-2.12,.5,0,.83,.17,.99,.51,.16,.34,.37,1.28,.62,2.82s.63,2.54,1.15,3.01c.51,.47,1.16,.7,1.94,.7,1.76,0,3.7-1.76,5.83-5.28s4.07-8.96,5.83-16.32l.99-4.13c.8-3.37,1.59-6.06,2.37-8.07,.78-2.01,1.8-4.01,3.08-6.02,1.85-2.87,2.99-4.4,3.41-4.6,.42-.19,1.21-.35,2.38-.48s2.32-.19,3.49-.19c.46,0,.68,.26,.68,.79,0,.25-.07,.76-.21,1.54-.45,3.19-.66,6.39-.64,9.6l.07,9.16c.04,7.98-.59,14.41-1.91,19.31,1.21-1.46,2.96-5.22,5.26-11.28,3.33-8.59,6.36-15.04,9.09-19.35,1.3-2.07,2.87-4.06,4.7-5.96,1.83-1.9,3.1-2.92,3.81-3.06,2.42-.46,4.45-.68,6.12-.68,.62,0,.92,.17,.92,.51,0,.48-.38,1.55-1.12,3.21-1.77,4.01-3.43,9.44-4.96,16.27s-2.31,12.28-2.32,16.33c0,4.58,1.4,6.87,4.2,6.87,2.28,0,4.99-1.94,8.13-5.81v3.93Z"/><path class="cls-1" d="M427.66,144.03c-5.33,5.61-9.32,8.41-11.96,8.41-1.46,0-2.69-.75-3.69-2.24-1-1.49-1.5-3.37-1.5-5.62,0-4.85,1.64-11.57,4.92-20.17l8.68-1.81h.41l-3.42,10.7c-1.41,4.42-2.12,7.58-2.12,9.47,0,.75,.17,1.36,.5,1.83,.33,.47,.75,.7,1.25,.7,.89,0,1.78-.33,2.68-.97s2.32-2.06,4.26-4.22v3.93Zm-.68-34.79c0,5.47-2.02,8.2-6.05,8.2-1.96,0-3.63-.59-5.02-1.78,1.32-2,2.35-4.26,3.08-6.77,1.8,1.12,3.25,1.68,4.34,1.68,1.23,0,2.45-.45,3.66-1.33Z"/><path class="cls-1" d="M461.22,144.03c-5.26,5.56-9.78,8.34-13.54,8.34-1.53,0-2.76-.54-3.69-1.61-.93-1.07-1.4-2.51-1.4-4.31,0-2.44,1-6.16,3.01-11.18,1.07-2.69,1.61-4.4,1.61-5.13s-.29-1.09-.85-1.09c-.32,0-.74,.16-1.26,.48-.48,.32-1.04,.76-1.67,1.33-.57,.52-1.21,1.16-1.91,1.91-.62,.64-1.28,1.37-1.98,2.19l-1.91,2.22c-.84,1.03-1.37,2.11-1.57,3.25-.34,1.94-.57,3.71-.68,5.33-.07,1.21-.1,2.84-.1,4.89l-7.55,1.78c-.25-3.08-.38-5.37-.38-6.87,0-3.67,.43-7.14,1.28-10.43,.86-3.28,2.23-6.97,4.12-11.07l8.34-1.61c-1.75,4.72-2.91,8.43-3.45,11.14,3.73-4.17,6.7-7.06,8.89-8.67,2.19-1.61,4.15-2.41,5.85-2.41,1.16,0,2.13,.44,2.9,1.31,.77,.88,1.16,1.97,1.16,3.29,0,2.18-.98,5.78-2.94,10.8-1.34,3.44-2.02,5.68-2.02,6.7,0,1.37,.56,2.06,1.68,2.06,1.67,0,4.36-2.2,8.09-6.6v3.93Z"/><path class="cls-1" d="M491.88,144.03c-1.16,1.03-2.29,1.75-3.38,2.17-1.09,.42-1.96,.63-2.6,.63-1.64,0-3.27-.64-4.89-1.91-3.28,4.97-7.04,7.45-11.28,7.45-2.64,0-4.79-.99-6.43-2.97s-2.46-4.62-2.46-7.9c0-5.2,1.85-9.66,5.54-13.38s8.1-5.59,13.23-5.59c1.94,0,3.35,.21,4.25,.63,.9,.42,1.45,.92,1.66,1.49,.21,.57,.31,1.29,.31,2.15,0,4.26-1.16,9.49-3.49,15.69,1.16,1.07,2.38,1.61,3.66,1.61,1.53,0,3.49-1.33,5.88-4v3.93Zm-11.28-19.11c-.34-.14-.83-.21-1.47-.21-2.96,0-5.28,1.55-6.96,4.65-1.67,3.1-2.51,6.72-2.51,10.87,0,2.3,.36,4.09,1.09,5.37,.73,1.28,1.74,1.91,3.04,1.91,1.62,0,3.37-1.49,5.26-4.48-2.14-2.69-3.21-5.58-3.21-8.68,0-3.65,1.58-6.79,4.75-9.43Z"/><path class="cls-1" d="M517.42,144.03c-5.72,5.61-10.13,8.41-13.23,8.41-1.39,0-2.56-.59-3.52-1.76s-1.44-2.63-1.44-4.36c0-3.21,1.72-7.52,5.16-12.92-1.69,.87-3.53,1.47-5.54,1.81-1.48,2.73-3.81,5.67-6.97,8.82h-.79v-3.08c1.78-1.85,3.38-3.83,4.82-5.95-1.96-.87-2.94-2.15-2.94-3.86s.6-3.63,1.79-5.62c1.2-1.99,2.84-2.99,4.94-2.99,1.78,0,2.67,.91,2.67,2.73,0,1.44-.51,3.49-1.54,6.15,3.78-.41,7.09-3.3,9.91-8.68l3.11-.14-3.18,8.75c-1.32,3.69-2.18,6.2-2.56,7.54-.39,1.33-.58,2.51-.58,3.54,0,.96,.22,1.72,.67,2.29,.44,.57,1.04,.86,1.79,.86,.82,0,1.61-.28,2.36-.84s2.44-2.1,5.06-4.63v3.93Z"/><path class="cls-1" d="M582.32,144.06c-5.24,5.58-10.05,8.37-14.42,8.37-2.42,0-4.33-.85-5.74-2.56-1.41-1.71-2.2-4.15-2.36-7.31-2.76,3.35-5.2,5.83-7.33,7.45-2.13,1.62-4.4,2.43-6.82,2.43-3.1,0-5.59-1.34-7.47-4.02-1.88-2.68-2.82-6.25-2.82-10.71,0-5.33,1.23-10.83,3.69-16.49s6.11-10.13,10.94-13.42c4.83-3.28,10.69-4.92,17.57-4.92,5.15,0,9.81,.7,13.98,2.09v2.26c-3.4,3.96-6.24,9.51-8.53,16.64-2.29,7.13-3.44,12.57-3.44,16.3,0,1.82,.37,3.24,1.11,4.24,.74,1,1.77,1.5,3.09,1.5,2.37,0,5.22-1.93,8.54-5.78v3.93Zm-9.95-36.85c-2.1-1.14-4.35-1.71-6.77-1.71-3.81,0-7.24,1.59-10.29,4.77-3.05,3.18-5.46,7.39-7.23,12.63-1.77,5.24-2.65,9.79-2.65,13.64,0,2.57,.5,4.67,1.49,6.27,.99,1.61,2.26,2.41,3.81,2.41,2.69,0,5.78-2.45,9.26-7.35,1.44-12.85,5.56-23.07,12.37-30.66Z"/><path class="cls-1" d="M607.85,144.03c-5.72,5.61-10.13,8.41-13.23,8.41-1.39,0-2.56-.59-3.52-1.76s-1.44-2.63-1.44-4.36c0-3.21,1.72-7.52,5.16-12.92-1.69,.87-3.53,1.47-5.54,1.81-1.48,2.73-3.81,5.67-6.97,8.82h-.79v-3.08c1.78-1.85,3.38-3.83,4.82-5.95-1.96-.87-2.94-2.15-2.94-3.86s.6-3.63,1.79-5.62c1.2-1.99,2.84-2.99,4.94-2.99,1.78,0,2.67,.91,2.67,2.73,0,1.44-.51,3.49-1.54,6.15,3.78-.41,7.09-3.3,9.91-8.68l3.11-.14-3.18,8.75c-1.32,3.69-2.18,6.2-2.56,7.54-.39,1.33-.58,2.51-.58,3.54,0,.96,.22,1.72,.67,2.29,.44,.57,1.04,.86,1.79,.86,.82,0,1.61-.28,2.36-.84s2.44-2.1,5.06-4.63v3.93Z"/><path class="cls-1" d="M633.42,144.03c-2.92,2.87-5.59,4.98-8.02,6.32-2.43,1.34-4.96,2.02-7.6,2.02-2.96,0-5.41-.96-7.33-2.89-1.93-1.92-2.89-4.37-2.89-7.33,0-4.85,1.77-9.34,5.31-13.45,3.54-4.11,7.38-6.17,11.5-6.17,2.03,0,3.68,.56,4.96,1.69,1.28,1.13,1.91,2.59,1.91,4.39,0,.64-.12,1.12-.36,1.44-.24,.32-.69,.64-1.35,.96l-3.96,1.88c-.48,.23-.83,.34-1.06,.34-.32,0-.48-.23-.48-.68,0-.18,.07-.78,.21-1.79,.14-1.01,.21-1.63,.21-1.86,0-1-.21-1.81-.63-2.43s-.99-.92-1.69-.92c-1.66,0-3.18,1.23-4.56,3.69-1.38,2.46-2.07,5.26-2.07,8.41,0,2.71,.65,4.88,1.95,6.49,1.3,1.62,3.03,2.43,5.2,2.43,1.85,0,3.58-.53,5.21-1.59s3.48-2.68,5.55-4.87v3.93Z"/><path class="cls-1" d="M669.92,144.03c-3.65,3.46-6.25,5.72-7.83,6.77-1.57,1.05-3.08,1.57-4.51,1.57-3.6,0-5.3-3.18-5.09-9.54-2.28,3.26-4.38,5.66-6.31,7.21-1.93,1.55-3.91,2.32-5.96,2.32s-3.71-.94-5.11-2.82c-1.4-1.88-2.1-4.19-2.1-6.92,0-3.42,.94-6.68,2.82-9.78,1.88-3.1,4.29-5.61,7.23-7.52s5.54-2.87,7.79-2.87c2.85,0,4.84,1.31,5.98,3.93l6.99-3.86h1.92l-3.01,10.01c-1.55,5.04-2.33,8.49-2.33,10.36,0,1.96,.69,2.94,2.08,2.94,.89,0,1.87-.47,2.94-1.42,1.07-.95,2.57-2.39,4.51-4.32v3.93Zm-25.02,1.88c2.28,0,4.43-1.94,6.44-5.83,2.02-3.88,3.02-7.47,3.02-10.75,0-1.28-.29-2.27-.85-2.99-.57-.72-1.33-1.08-2.29-1.08-2.28,0-4.44,1.94-6.48,5.81-2.04,3.87-3.06,7.44-3.06,10.7,0,1.23,.3,2.23,.91,2.99,.6,.76,1.37,1.15,2.31,1.15Z"/><path class="cls-1" d="M703.46,144.03c-5.26,5.56-9.78,8.34-13.54,8.34-1.53,0-2.76-.54-3.69-1.61-.93-1.07-1.4-2.51-1.4-4.31,0-2.44,1-6.16,3.01-11.18,1.07-2.69,1.61-4.4,1.61-5.13s-.29-1.09-.85-1.09c-.32,0-.74,.16-1.26,.48-.48,.32-1.04,.76-1.67,1.33-.57,.52-1.21,1.16-1.91,1.91-.62,.64-1.28,1.37-1.98,2.19l-1.91,2.22c-.84,1.03-1.37,2.11-1.57,3.25-.34,1.94-.57,3.71-.68,5.33-.07,1.21-.1,2.84-.1,4.89l-7.55,1.78c-.25-3.08-.38-5.37-.38-6.87,0-3.67,.43-7.14,1.28-10.43,.86-3.28,2.23-6.97,4.12-11.07l8.34-1.61c-1.75,4.72-2.91,8.43-3.45,11.14,3.73-4.17,6.7-7.06,8.89-8.67,2.19-1.61,4.15-2.41,5.85-2.41,1.16,0,2.13,.44,2.9,1.31,.77,.88,1.16,1.97,1.16,3.29,0,2.18-.98,5.78-2.94,10.8-1.34,3.44-2.02,5.68-2.02,6.7,0,1.37,.56,2.06,1.68,2.06,1.67,0,4.36-2.2,8.09-6.6v3.93Z"/><path class="cls-1" d="M739.92,144.03c-3.65,3.46-6.25,5.72-7.83,6.77-1.57,1.05-3.08,1.57-4.51,1.57-3.6,0-5.3-3.18-5.09-9.54-2.28,3.26-4.38,5.66-6.31,7.21-1.93,1.55-3.91,2.32-5.96,2.32s-3.71-.94-5.11-2.82c-1.4-1.88-2.1-4.19-2.1-6.92,0-3.42,.94-6.68,2.82-9.78,1.88-3.1,4.29-5.61,7.23-7.52s5.54-2.87,7.79-2.87c2.85,0,4.84,1.31,5.98,3.93l6.99-3.86h1.92l-3.01,10.01c-1.55,5.04-2.33,8.49-2.33,10.36,0,1.96,.69,2.94,2.08,2.94,.89,0,1.87-.47,2.94-1.42,1.07-.95,2.57-2.39,4.51-4.32v3.93Zm-25.02,1.88c2.28,0,4.43-1.94,6.44-5.83,2.02-3.88,3.02-7.47,3.02-10.75,0-1.28-.29-2.27-.85-2.99-.57-.72-1.33-1.08-2.29-1.08-2.28,0-4.44,1.94-6.48,5.81-2.04,3.87-3.06,7.44-3.06,10.7,0,1.23,.3,2.23,.91,2.99,.6,.76,1.37,1.15,2.31,1.15Z"/></g></g></g><g id="_반짝이"><polygon class="cls-6" points="819.78 973.88 835.16 1033.54 884.66 1045.79 835.16 1059.24 819.78 1120 803.58 1059.24 754.9 1045.79 803.58 1033.54 819.78 973.88"/><polygon class="cls-6" points="290.78 717.88 300.69 756.31 332.57 764.2 300.69 772.86 290.78 812 280.35 772.86 248.99 764.2 280.35 756.31 290.78 717.88"/><circle class="cls-7" cx="262.5" cy="846.5" r="10.5"/><circle class="cls-6" cx="325" cy="958" r="9"/><circle class="cls-6" cx="730" cy="1115" r="9"/><circle class="cls-7" cx="911" cy="958" r="13"/><circle class="cls-6" cx="862" cy="881" r="8"/></g><g id="_소드_나이트"><g><circle class="cls-2" cx="385.06" cy="1329.35" r="18"/><g><polygon class="cls-7" points="885.13 688.89 847.24 711.34 466.34 1196.09 478.86 1205.93 885.13 688.89"/><polygon class="cls-7" points="889.06 691.98 482.79 1209.02 495.32 1218.86 876.21 734.11 889.06 691.98"/></g><rect class="cls-3" x="403.93" y="1194.62" width="148.85" height="32" rx="16" ry="16" transform="translate(850.19 -36.84) rotate(38.16)"/><rect class="cls-3" x="414.37" y="1191.55" width="40.85" height="149" transform="translate(875.13 1.91) rotate(38.16)"/><rect class="cls-3" x="358.49" y="1319.99" width="56.85" height="14" rx="7" ry="7" transform="translate(902.55 44.52) rotate(38.16)"/><polygon class="cls-2" points="502.03 1180.89 488.96 1204.86 502.17 1207.85 490.04 1213.87 509 1234.54 484.44 1221.01 481.45 1234.21 475.43 1222.09 453.84 1242.22 468.3 1216.48 455.09 1213.5 467.21 1207.47 447.87 1186.51 472.82 1200.34 475.81 1187.13 481.83 1199.26 502.03 1180.89"/></g><g><path class="cls-3" d="M515.35,747.21c18.93-2.37,37.87-4.73,56.8-7.1,3.14,7.15,8.55,17.34,17.75,27.51,13.49,14.91,27.83,21.76,36.39,25.74,33.7,15.67,67.21,13.62,83.43,11.54v28.4c-32.86,1.29-67.22,1.67-102.95,.89-16.6-.36-32.88-.96-48.81-1.78-4.55-.36-11.98-1.59-19.53-6.21-10.83-6.63-15.49-16.31-18.64-23.08-10.65-22.9-6.72-46.09-4.44-55.92Z"/><path class="cls-4" d="M443.9,601.06c-1.49-9.18-5.12-24.64-15.09-40.33-3.19-5.03-20.01-30.48-48.81-38.36-10.15-2.77-18.81-2.55-55.92,6.88-42.29,10.76-75.49,21.77-110.06,32.46-18.64,5.76-33.69,10.19-42.6,12.79,13.02,3.61,26.03,7.21,39.05,10.82,31.06-7.54,62.13-15.08,93.19-22.62,1.78,1.31,3.55,2.62,5.33,3.93-29.88,7.54-59.76,15.08-89.64,22.62,13.02,2.95,26.03,5.9,39.05,8.85,22.48-6.23,44.97-12.46,67.45-18.69,3.25,.33,6.51,.66,9.76,.98-21.01,7.21-42.01,14.43-63.02,21.64,11.54,1.64,23.08,3.28,34.61,4.92,21.46-9.88,39.59-12.83,51.48-13.77,11.88-.94,17.81-1.4,25.74,.98,11.13,3.35,26.44,12.28,39.94,24.59,5.33,4.86,10.4,10.26,15.98,8.85,5.47-1.39,7.85-8.44,7.99-8.85,1.91-5.91,.2-12.87-4.44-17.7Z"/><path class="cls-2" d="M575.26,616.3c-8.59-10.41-20.46-21.77-36.39-31.06-12.85-7.49-31.03-18.1-55.92-16.86-20.5,1.02-35.66,9.59-42.6,14.2-11.57,7.68-25.41,21.03-39.05,55.92-9.13,23.35-21.71,65.4-18.64,123.37-12.43,21.01-24.85,42.01-37.28,63.02h146.46c20.11-29.88,40.23-59.76,60.34-89.64,7.69-39.64,15.38-79.29,23.08-118.93Z"/><path class="cls-3" d="M665.79,610.09c-40.72,45.35-83.58,90.99-128.69,136.68-11.84,11.99-23.68,23.83-35.5,35.5-5.47,4.01-12,5.16-16.86,2.66-8.29-4.26-7.25-16.85-7.1-18.64,.68-8.18,5.11-13.35,12.43-22.19,24.72-29.85,26.53-34.07,27.51-37.28,2.19-7.17,2.91-18.04-4.44-33.73,23.67-33.73,47.34-67.45,71-101.18,3.74-1.28,9.6-2.79,16.86-2.66,6.38,.12,11.58,1.46,15.09,2.66-13.02,21.3-26.03,42.6-39.05,63.9,4.73,3.55,9.47,7.1,14.2,10.65,17.16-19.53,34.32-39.05,51.48-58.58,7.69,7.4,15.38,14.79,23.08,22.19Z"/><circle class="cls-7" cx="494.49" cy="765.41" r="7.99"/></g><path class="cls-4" d="M460.36,1152.47c17.47-.96,7.17-88.03,5.5-102.17-5.9-49.84-19.55-112.24-31.28-115.24-11.24-2.88-7.9,46.11-11.22,89.6-.58,7.62-.98,14.16-1.24,19.18-18.46-19.69-25.77-22.94-28.92-21.89-10.49,3.5,13.28,58.68,41.21,101.26,11.97,18.25,19.56,29.61,25.96,29.26Z"/><path class="cls-4" d="M536.61,1215.18c-2.92-17.25,84.27-26.43,98.43-27.92,49.91-5.25,113.78-5.71,119.3,5.06s-43.23,17.89-84.91,30.73c-7.3,2.25-13.59,4.08-18.43,5.45,23.28,13.66,28.07,20.07,27.74,23.37-1.1,11.01-60.16,0-107.86-17.83-20.44-7.64-33.2-12.54-34.27-18.86Z"/></g></svg>