<?xml version="1.0" encoding="UTF-8"?><svg xmlns="http://www.w3.org/2000/svg" viewBox="0 0 1080 1944"><defs><style>.cls-1{fill:#fff;}.cls-2{fill:#f6ef84;}.cls-3{fill:#3f3730;}.cls-4{fill:#4c5fa9;}.cls-5{fill:#bad6eb;}.cls-6{fill:#c8c0de;}.cls-7{fill:#b1d4f0;}</style></defs><g id="_배경_텍스트"><g><rect class="cls-5" y="2" width="1080" height="1944"/><rect class="cls-1" x="74.84" y="188.39" width="930.33" height="1606.64" rx="65.21" ry="65.21"/><g><path class="cls-3" d="M247.3,1610.88c-3.97,1.54-7.32,2.31-10.04,2.31-1.93,0-4.39-.55-7.38-1.67-2.99-1.11-5.15-1.67-6.47-1.67-2.36,0-4.39,.92-6.07,2.77-1.68,1.84-2.53,4.07-2.53,6.69,0,3.01,1.36,5.66,4.08,7.95,.89,.75,1.34,1.33,1.34,1.72,0,.61-.81,1.74-2.45,3.38-1.63,1.65-3.02,2.47-4.16,2.47-1.25,0-2.51-1.06-3.76-3.17-1.25-2.11-1.88-4.28-1.88-6.5,0-5.8,2.36-11.17,7.09-16.11s9.85-7.41,15.36-7.41c2.11,0,4.73,.6,7.87,1.8,3.13,1.2,5.4,1.8,6.79,1.8,2.15,0,4.05-.88,5.69-2.63,.57-.57,1.09-.86,1.56-.86s1.24,.18,2.34,.54c1.09,.36,1.64,.75,1.64,1.18,0,.32-1.01,1.76-3.01,4.32-2.01,2.56-3.57,5.33-4.68,8.3s-2.15,7.39-3.12,13.26l-1.13,6.61c-2.16,13.1-4.69,22.32-7.61,27.63-2.92,5.32-6.57,9.3-10.95,11.95-4.38,2.65-9.11,3.98-14.2,3.98s-9.1-1.15-12.8-3.44-5.55-4.85-5.55-7.68c0-1.4,1.22-3.16,3.65-5.29,2.43-2.13,4.19-3.2,5.26-3.2,1.68,0,2.52,1.36,2.52,4.08,.11,7.63,2.53,11.44,7.25,11.44,7.34,0,12.19-8.41,14.55-25.24,1.04-7.2,2.57-13.47,4.59-18.83,2.02-5.35,7.42-12.18,16.2-20.49Zm37.71,55.48c-4.3,4.57-8.08,7.9-11.33,10-3.26,2.1-6.7,3.15-10.31,3.15s-6.74-1.36-9.16-4.08c-2.42-2.72-3.62-6.18-3.62-10.37,0-.61,.24-2.96,.72-7.06,.48-4.1,.73-6.54,.73-7.33,0-3.4-.7-5.82-2.1-7.25-.43,.07-1.09,.11-1.99,.11-1.68,0-2.53-.73-2.53-2.2,0-2.15,1.11-3.22,3.33-3.22l2.36,.16c2.26,0,4.17-1.06,5.75-3.17,1.57-2.11,3.08-6.09,4.51-11.92,3.51-14.29,8.79-21.43,15.84-21.43,1.65,0,3.21,.63,4.7,1.88,1.49,1.25,2.23,2.56,2.23,3.92,0,.82-.66,2.53-1.99,5.13-1.32,2.6-2.36,3.89-3.12,3.89-.39,0-.98-.66-1.77-1.99-.79-1.32-1.95-1.99-3.49-1.99-3.01,0-5.35,3.28-7.04,9.83-1.68,6.55-3.38,11.01-5.1,13.37s-3.58,3.9-5.59,4.62c3.58,1.86,6.19,4.03,7.81,6.5,1.63,2.47,2.45,5.75,2.45,9.83,0,.79-.08,2.08-.24,3.87-.16,1.79-.24,3.12-.24,3.97,0,4.01,1.63,6.02,4.89,6.02,3.76,0,8.52-3.47,14.29-10.42v6.18Z"/><path class="cls-3" d="M311.43,1666.42c-8.38,8.81-14.65,13.21-18.8,13.21-2.29,0-4.23-1.17-5.8-3.52-1.58-2.34-2.36-5.29-2.36-8.83,0-7.63,2.58-18.19,7.73-31.69l13.64-2.85h.64l-5.37,16.81c-2.22,6.95-3.33,11.91-3.33,14.88,0,1.18,.26,2.14,.78,2.87,.52,.73,1.17,1.1,1.96,1.1,1.4,0,2.8-.51,4.22-1.53,1.41-1.02,3.64-3.23,6.69-6.63v6.18Zm-1.07-54.68c0,8.59-3.17,12.89-9.51,12.89-3.08,0-5.71-.93-7.89-2.79,2.08-3.15,3.69-6.7,4.83-10.63,2.83,1.75,5.1,2.63,6.82,2.63,1.93,0,3.85-.7,5.75-2.09Z"/><path class="cls-3" d="M364.18,1666.42c-8.27,8.74-15.36,13.11-21.27,13.11-2.4,0-4.33-.84-5.8-2.52-1.47-1.68-2.2-3.94-2.2-6.77,0-3.83,1.58-9.69,4.73-17.56,1.68-4.22,2.53-6.91,2.53-8.06s-.45-1.72-1.34-1.72c-.5,0-1.16,.25-1.99,.75-.75,.5-1.63,1.2-2.63,2.09-.89,.82-1.9,1.83-3.01,3.01-.97,1-2.01,2.15-3.12,3.44l-3.01,3.49c-1.32,1.61-2.15,3.31-2.47,5.1-.54,3.04-.89,5.84-1.07,8.38-.11,1.9-.16,4.46-.16,7.68l-11.87,2.79c-.39-4.83-.59-8.43-.59-10.8,0-5.76,.67-11.23,2.01-16.38,1.34-5.16,3.5-10.96,6.47-17.4l13.11-2.52c-2.76,7.41-4.57,13.25-5.43,17.51,5.87-6.55,10.53-11.09,13.98-13.62,3.45-2.53,6.52-3.79,9.2-3.79,1.82,0,3.34,.69,4.56,2.07s1.82,3.1,1.82,5.18c0,3.43-1.54,9.09-4.62,16.97-2.11,5.41-3.17,8.92-3.17,10.53,0,2.15,.88,3.23,2.64,3.23,2.62,0,6.86-3.46,12.71-10.37v6.18Z"/><path class="cls-3" d="M416.87,1666.42c-4.54,4.76-9.98,8.27-16.32,10.52-2.97,9.27-6.74,16.42-11.31,21.43-4.57,5.01-9.41,7.52-14.53,7.52-2.79,0-5.05-.88-6.77-2.63-1.72-1.75-2.58-4.06-2.58-6.93,0-3.83,1.71-7.27,5.13-10.31,3.42-3.04,9.23-5.98,17.43-8.81l2.31-10.58c-3.44,3.87-6.41,6.71-8.92,8.51-2.51,1.81-5.03,2.71-7.57,2.71-2.97,0-5.41-1.4-7.3-4.19-1.9-2.79-2.85-6.43-2.85-10.9,0-7.3,2.78-14.15,8.35-20.54,5.57-6.39,11.48-9.59,17.75-9.59,3.47,0,6.55,1.47,9.23,4.4,1.61-.57,3.71-1.43,6.28-2.58l3.81-1.72h1.23c-1.39,4.23-2.46,8.34-3.21,12.35l-5.04,26.91c4.83-1.83,9.79-5.75,14.87-11.76v6.18Zm-30.08,15.52c-11.57,4.15-17.35,8.95-17.35,14.39,0,1.61,.48,2.93,1.45,3.95,.97,1.02,2.2,1.53,3.71,1.53,2.58,0,4.81-1.63,6.71-4.89,1.9-3.26,3.72-8.25,5.48-14.99Zm-4.51-13.75c2.54,0,4.8-1.5,6.77-4.51s3.5-6.82,4.59-11.44c1.09-4.62,1.64-7.82,1.64-9.61,0-1.68-.42-3.07-1.26-4.16-.84-1.09-1.89-1.64-3.14-1.64-3.79,0-7.11,2.56-9.94,7.68-2.83,5.12-4.24,10.33-4.24,15.63,0,2.47,.51,4.43,1.53,5.88,1.02,1.45,2.37,2.18,4.05,2.18Z"/><path class="cls-3" d="M492.55,1666.42c-1.83,1.61-3.6,2.75-5.32,3.41-1.72,.66-3.08,.99-4.08,.99-2.58,0-5.14-1-7.68-3.01-5.16,7.81-11.06,11.71-17.72,11.71-4.15,0-7.52-1.56-10.1-4.67s-3.87-7.25-3.87-12.41c0-8.16,2.9-15.17,8.7-21.03,5.8-5.85,12.73-8.78,20.79-8.78,3.04,0,5.27,.33,6.69,.99,1.41,.66,2.28,1.44,2.61,2.34,.32,.9,.48,2.02,.48,3.38,0,6.7-1.83,14.91-5.48,24.65,1.83,1.68,3.74,2.52,5.75,2.52,2.4,0,5.48-2.09,9.24-6.28v6.18Zm-17.72-30.02c-.54-.21-1.31-.32-2.31-.32-4.65,0-8.3,2.44-10.93,7.3-2.63,4.87-3.95,10.56-3.95,17.08,0,3.62,.57,6.43,1.72,8.43,1.14,2.01,2.74,3.01,4.78,3.01,2.54,0,5.3-2.34,8.27-7.04-3.37-4.22-5.05-8.77-5.05-13.64,0-5.73,2.49-10.67,7.47-14.82Z"/><path class="cls-3" d="M536.11,1666.42c-3.72,4.19-7.4,7.42-11.05,9.69-3.65,2.27-6.9,3.41-9.77,3.41-1.36,0-3.22-.52-5.58-1.55-1.51,7.88-2.84,16.38-3.99,25.5-3.73,.5-8.21,1.27-13.44,2.31,1.15-9.81,3.13-22.54,5.96-38.19-.39-.68-1.09-2.4-2.09-5.16l-3.6,3.97h-1.24v-4.83l10.24-10.62c1.95-9.61,3.53-16.56,4.75-20.86,1.22-4.3,2.92-9.05,5.1-14.26,2.18-5.21,3.56-8.2,4.14-8.97,.57-.77,1.96-1.5,4.16-2.2,2.2-.7,4.56-1.36,7.06-1.99,2.51-.63,3.85-.94,4.03-.94,1.36,0,2.47,.89,3.33,2.66s1.29,4.1,1.29,7c0,5.01-1.32,9.84-3.97,14.49-2.64,4.65-7.64,10.37-15,17.17l-4.51,22.45c1.75,3.75,4.38,5.63,7.88,5.63,5,0,10.44-3.63,16.3-10.9v6.18Zm-18.04-30.61c4.19-3.65,7.47-7.58,9.85-11.79,2.38-4.21,3.57-8.08,3.57-11.63,0-1.5-.28-2.74-.83-3.71s-1.24-1.45-2.06-1.45c-1.57,0-3.17,2.06-4.79,6.18-1.62,4.12-3.54,11.58-5.73,22.4Z"/><path class="cls-3" d="M619.68,1611.42c0,1.4-2.31,4.83-6.93,10.31h-.97c-.72-.29-1.16-1.34-1.34-3.17-.39-3.69-1.66-6.71-3.81-9.05-2.15-2.34-4.73-3.52-7.73-3.52-2.83,0-5.26,1.03-7.3,3.08-2.04,2.06-3.06,4.52-3.06,7.38,0,2.07,.65,4.3,1.95,6.68,1.29,2.38,4.65,6.15,10.07,11.31,5.42,5.17,8.9,9.28,10.44,12.34,1.54,3.06,2.31,5.97,2.31,8.73,0,6.37-2.77,11.99-8.3,16.84-5.53,4.85-12,7.28-19.42,7.28-6.12,0-11.17-1.42-15.15-4.27-3.97-2.85-5.96-5.16-5.96-6.96,0-1,1.09-3.33,3.28-6.98,2.18-3.65,3.44-5.48,3.76-5.48,1.14,0,1.96,.33,2.44,.99,.48,.66,.81,1.89,.99,3.68,.54,5.59,1.89,9.44,4.05,11.55,2.17,2.11,4.99,3.17,8.46,3.17,3.79,0,7.11-1.31,9.94-3.94,2.83-2.63,4.24-5.68,4.24-9.15,0-1.79-.55-3.69-1.65-5.71-1.1-2.02-4.2-5.46-9.29-10.32s-8.43-8.97-10.01-12.34c-1.58-3.37-2.36-6.64-2.36-9.83,0-5.55,2.1-10.65,6.29-15.31,4.19-4.65,9.76-6.98,16.7-6.98,5.26,0,9.64,1.21,13.13,3.63,3.49,2.42,5.24,4.43,5.24,6.04Z"/><path class="cls-3" d="M699.98,1666.42c-1.72,1.43-3.44,2.45-5.16,3.06-1.72,.61-3.04,.91-3.97,.91-2.62,0-5.18-1-7.68-3.01-6.52,8.09-13.23,12.14-20.14,12.14-5.09,0-8.72-2.79-10.9-8.38-4.8,5.59-9.97,8.38-15.52,8.38-3.62,0-6.46-1.19-8.54-3.57-2.08-2.38-3.12-5.67-3.12-9.86,0-4.51,.64-9.09,1.91-13.75,1.27-4.65,3.21-10.35,5.83-17.08l14.16-2.63-3.97,11.97c-3.37,10.38-5.04,17.54-5.03,21.48,0,1.86,.45,3.39,1.34,4.57,.89,1.18,2.02,1.77,3.38,1.77,2.87,0,5.73-2.22,8.59-6.66,0-5.62,1.02-11.46,3.06-17.51l4.4-13,14.38-2.63-6.02,18.58c-1.94,5.98-2.9,10.71-2.9,14.18,0,2.11,.47,3.8,1.4,5.05s2.17,1.88,3.71,1.88c1.9,0,3.69-.7,5.38-2.09,1.68-1.4,3.58-3.51,5.7-6.34-1.9-3.47-2.85-7.07-2.85-10.8,0-5.37,1.34-10.12,4.03-14.26,2.69-4.13,5.71-6.2,9.08-6.2,2.33,0,3.49,1.75,3.49,5.26,0,7.56-2.92,16.11-8.75,25.67,1.79,1.68,3.69,2.52,5.69,2.52,2.4,0,5.41-1.95,9.02-5.85v6.18Z"/><path class="cls-3" d="M748.16,1666.42c-1.83,1.61-3.6,2.75-5.32,3.41-1.72,.66-3.08,.99-4.08,.99-2.58,0-5.14-1-7.68-3.01-5.16,7.81-11.06,11.71-17.72,11.71-4.15,0-7.52-1.56-10.1-4.67s-3.87-7.25-3.87-12.41c0-8.16,2.9-15.17,8.7-21.03,5.8-5.85,12.73-8.78,20.79-8.78,3.04,0,5.27,.33,6.69,.99,1.42,.66,2.28,1.44,2.61,2.34,.32,.9,.48,2.02,.48,3.38,0,6.7-1.83,14.91-5.48,24.65,1.83,1.68,3.74,2.52,5.75,2.52,2.4,0,5.48-2.09,9.24-6.28v6.18Zm-17.72-30.02c-.54-.21-1.31-.32-2.31-.32-4.66,0-8.3,2.44-10.93,7.3-2.63,4.87-3.95,10.56-3.95,17.08,0,3.62,.57,6.43,1.72,8.43,1.15,2.01,2.74,3.01,4.78,3.01,2.54,0,5.3-2.34,8.27-7.04-3.37-4.22-5.05-8.77-5.05-13.64,0-5.73,2.49-10.67,7.46-14.82Z"/><path class="cls-3" d="M788.28,1666.42c-8.99,8.81-15.92,13.21-20.79,13.21-2.18,0-4.03-.92-5.53-2.77-1.5-1.84-2.26-4.13-2.26-6.85,0-5.05,2.7-11.82,8.11-20.3-2.65,1.36-5.55,2.31-8.7,2.85-2.33,4.3-5.98,8.92-10.96,13.86h-1.23v-4.83c2.79-2.9,5.32-6.02,7.57-9.35-3.08-1.36-4.62-3.38-4.62-6.07s.94-5.7,2.82-8.84c1.88-3.13,4.47-4.7,7.76-4.7,2.79,0,4.19,1.43,4.19,4.3,0,2.26-.81,5.48-2.42,9.67,5.94-.64,11.14-5.19,15.58-13.64l4.89-.21-5,13.75c-2.08,5.8-3.42,9.75-4.03,11.84-.61,2.09-.91,3.95-.91,5.56,0,1.5,.35,2.7,1.05,3.6,.7,.9,1.64,1.34,2.82,1.34,1.29,0,2.53-.44,3.71-1.32,1.18-.88,3.83-3.3,7.95-7.28v6.18Z"/><path class="cls-3" d="M845.64,1666.42c-5.16,5.12-9.09,8.58-11.79,10.39-2.71,1.81-5.1,2.71-7.17,2.71-2.54,0-4.56-1.24-6.04-3.71-1.49-2.47-2.25-6.09-2.28-10.85-2.94,4.76-6.13,8.38-9.59,10.85s-6.58,3.71-9.37,3.71c-3.04,0-5.73-1.44-8.06-4.32-2.33-2.88-3.49-6.26-3.49-10.12,0-7.98,2.91-15.39,8.73-22.21,5.82-6.82,12.07-10.23,18.77-10.23,1.86,0,3.32,.27,4.38,.81s2.21,1.45,3.46,2.74l7.68-32.12c6.27-1.47,10.5-2.2,12.69-2.2,.72,0,1.07,.29,1.07,.86,0,.39-.89,4.1-2.68,11.12-7.15,28.07-10.73,45.01-10.73,50.81,0,1.36,.29,2.45,.86,3.28,.57,.82,1.32,1.23,2.25,1.23,2.29,0,6.06-2.97,11.31-8.92v6.18Zm-38.83,2.85c3.51,0,6.79-2.97,9.83-8.92,3.04-5.94,4.56-11.51,4.56-16.7,0-2.11-.47-3.79-1.42-5.05-.95-1.25-2.2-1.88-3.73-1.88-3.33,0-6.55,3.11-9.67,9.32-3.12,6.21-4.67,11.83-4.67,16.84,0,1.97,.46,3.53,1.37,4.67,.91,1.15,2.16,1.72,3.73,1.72Z"/><path class="cls-3" d="M862.13,1634.94c2.47-.64,4.96-1.17,7.47-1.58,2.51-.41,4.01-.62,4.51-.62,.36,0,.54,.14,.54,.43,0,.54-.14,1.09-.43,1.66-.57,1.65-.86,3.22-.86,4.72,0,1.86,1.08,4.4,3.23,7.63,2.14,3.22,3.22,6.22,3.22,8.97,0,5.48-2.62,10.76-7.87,15.84-5.25,5.08-10.68,7.63-16.3,7.63-2.44,0-4.66-.64-6.66-1.93-2.01-1.29-3.01-2.67-3.01-4.14,0-.86,.99-2.49,2.98-4.89,1.99-2.4,3.41-3.6,4.27-3.6,1.15,0,2.17,1.47,3.06,4.4,.89,2.94,2.43,4.4,4.62,4.4s4.23-1.01,6.15-3.04c1.92-2.02,2.88-4.2,2.88-6.53,0-2.26-1.21-5.26-3.65-9.02-2.44-3.76-4.05-6.91-4.84-9.45-4.15,6.7-9.42,13.55-15.79,20.57h-1.24v-4.83c8.77-9.35,14.68-18.23,17.72-26.64Z"/></g><g><path class="cls-1" d="M410.88,144.03c-5.1,5.49-9.75,8.24-13.95,8.24-2.55,0-4.5-1.23-5.83-3.69-1.33-2.46-2-5.75-2-9.88,0-3.19,.65-7.58,1.96-13.16,1.31-5.58,3-10.28,5.08-14.08l1.98-3.55c-2.71,2.83-4.93,5.92-6.67,9.28-1.73,3.36-3.8,8.06-6.2,14.1-2.4,6.04-4.22,10.15-5.45,12.34s-2.41,3.97-3.54,5.35c-1.13,1.38-2.13,2.27-3.01,2.68-.88,.41-2.41,.62-4.6,.62-.84,0-1.26-.23-1.26-.68,0-.05,.15-.76,.45-2.15,.3-1.39,.61-3.62,.92-6.68s.54-8.27,.68-15.62,1.21-13.64,3.21-18.88c-2.14,2.44-4.33,8.11-6.57,17.02l-.86,3.35c-2.35,9.27-5.04,15.53-8.08,18.78-3.03,3.25-6.01,4.87-8.93,4.87-1.8,0-3.39-.57-4.76-1.71-1.37-1.14-2.05-2.45-2.05-3.93,0-1.14,.82-2.41,2.46-3.83,1.64-1.41,2.68-2.12,3.11-2.12,.5,0,.83,.17,.99,.51,.16,.34,.37,1.28,.62,2.82s.63,2.54,1.15,3.01c.51,.47,1.16,.7,1.94,.7,1.76,0,3.7-1.76,5.83-5.28s4.07-8.96,5.83-16.32l.99-4.13c.8-3.37,1.59-6.06,2.37-8.07,.78-2.01,1.8-4.01,3.08-6.02,1.85-2.87,2.99-4.4,3.41-4.6,.42-.19,1.21-.35,2.38-.48s2.32-.19,3.49-.19c.46,0,.68,.26,.68,.79,0,.25-.07,.76-.21,1.54-.45,3.19-.66,6.39-.64,9.6l.07,9.16c.04,7.98-.59,14.41-1.91,19.31,1.21-1.46,2.96-5.22,5.26-11.28,3.33-8.59,6.36-15.04,9.09-19.35,1.3-2.07,2.87-4.06,4.7-5.96,1.83-1.9,3.1-2.92,3.81-3.06,2.42-.46,4.45-.68,6.12-.68,.62,0,.92,.17,.92,.51,0,.48-.38,1.55-1.12,3.21-1.77,4.01-3.43,9.44-4.96,16.27s-2.31,12.28-2.32,16.33c0,4.58,1.4,6.87,4.2,6.87,2.28,0,4.99-1.94,8.13-5.81v3.93Z"/><path class="cls-1" d="M427.66,144.03c-5.33,5.61-9.32,8.41-11.96,8.41-1.46,0-2.69-.75-3.69-2.24-1-1.49-1.5-3.37-1.5-5.62,0-4.85,1.64-11.57,4.92-20.17l8.68-1.81h.41l-3.42,10.7c-1.41,4.42-2.12,7.58-2.12,9.47,0,.75,.17,1.36,.5,1.83,.33,.47,.75,.7,1.25,.7,.89,0,1.78-.33,2.68-.97s2.32-2.06,4.26-4.22v3.93Zm-.68-34.79c0,5.47-2.02,8.2-6.05,8.2-1.96,0-3.63-.59-5.02-1.78,1.32-2,2.35-4.26,3.08-6.77,1.8,1.12,3.25,1.68,4.34,1.68,1.23,0,2.45-.45,3.66-1.33Z"/><path class="cls-1" d="M461.22,144.03c-5.26,5.56-9.78,8.34-13.54,8.34-1.53,0-2.76-.54-3.69-1.61-.93-1.07-1.4-2.51-1.4-4.31,0-2.44,1-6.16,3.01-11.18,1.07-2.69,1.61-4.4,1.61-5.13s-.29-1.09-.85-1.09c-.32,0-.74,.16-1.26,.48-.48,.32-1.04,.76-1.67,1.33-.57,.52-1.21,1.16-1.91,1.91-.62,.64-1.28,1.37-1.98,2.19l-1.91,2.22c-.84,1.03-1.37,2.11-1.57,3.25-.34,1.94-.57,3.71-.68,5.33-.07,1.21-.1,2.84-.1,4.89l-7.55,1.78c-.25-3.08-.38-5.37-.38-6.87,0-3.67,.43-7.14,1.28-10.43,.86-3.28,2.23-6.97,4.12-11.07l8.34-1.61c-1.75,4.72-2.91,8.43-3.45,11.14,3.73-4.17,6.7-7.06,8.89-8.67,2.19-1.61,4.15-2.41,5.85-2.41,1.16,0,2.13,.44,2.9,1.31,.77,.88,1.16,1.97,1.16,3.29,0,2.18-.98,5.78-2.94,10.8-1.34,3.44-2.02,5.68-2.02,6.7,0,1.37,.56,2.06,1.68,2.06,1.67,0,4.36-2.2,8.09-6.6v3.93Z"/><path class="cls-1" d="M491.88,144.03c-1.16,1.03-2.29,1.75-3.38,2.17-1.09,.42-1.96,.63-2.6,.63-1.64,0-3.27-.64-4.89-1.91-3.28,4.97-7.04,7.45-11.28,7.45-2.64,0-4.79-.99-6.43-2.97s-2.46-4.62-2.46-7.9c0-5.2,1.85-9.66,5.54-13.38s8.1-5.59,13.23-5.59c1.94,0,3.35,.21,4.25,.63,.9,.42,1.45,.92,1.66,1.49,.21,.57,.31,1.29,.31,2.15,0,4.26-1.16,9.49-3.49,15.69,1.16,1.07,2.38,1.61,3.66,1.61,1.53,0,3.49-1.33,5.88-4v3.93Zm-11.28-19.11c-.34-.14-.83-.21-1.47-.21-2.96,0-5.28,1.55-6.96,4.65-1.67,3.1-2.51,6.72-2.51,10.87,0,2.3,.36,4.09,1.09,5.37,.73,1.28,1.74,1.91,3.04,1.91,1.62,0,3.37-1.49,5.26-4.48-2.14-2.69-3.21-5.58-3.21-8.68,0-3.65,1.58-6.79,4.75-9.43Z"/><path class="cls-1" d="M517.42,144.03c-5.72,5.61-10.13,8.41-13.23,8.41-1.39,0-2.56-.59-3.52-1.76s-1.44-2.63-1.44-4.36c0-3.21,1.72-7.52,5.16-12.92-1.69,.87-3.53,1.47-5.54,1.81-1.48,2.73-3.81,5.67-6.97,8.82h-.79v-3.08c1.78-1.85,3.38-3.83,4.82-5.95-1.96-.87-2.94-2.15-2.94-3.86s.6-3.63,1.79-5.62c1.2-1.99,2.84-2.99,4.94-2.99,1.78,0,2.67,.91,2.67,2.73,0,1.44-.51,3.49-1.54,6.15,3.78-.41,7.09-3.3,9.91-8.68l3.11-.14-3.18,8.75c-1.32,3.69-2.18,6.2-2.56,7.54-.39,1.33-.58,2.51-.58,3.54,0,.96,.22,1.72,.67,2.29,.44,.57,1.04,.86,1.79,.86,.82,0,1.61-.28,2.36-.84s2.44-2.1,5.06-4.63v3.93Z"/><path class="cls-1" d="M582.32,144.06c-5.24,5.58-10.05,8.37-14.42,8.37-2.42,0-4.33-.85-5.74-2.56-1.41-1.71-2.2-4.15-2.36-7.31-2.76,3.35-5.2,5.83-7.33,7.45-2.13,1.62-4.4,2.43-6.82,2.43-3.1,0-5.59-1.34-7.47-4.02-1.88-2.68-2.82-6.25-2.82-10.71,0-5.33,1.23-10.83,3.69-16.49s6.11-10.13,10.94-13.42c4.83-3.28,10.69-4.92,17.57-4.92,5.15,0,9.81,.7,13.98,2.09v2.26c-3.4,3.96-6.24,9.51-8.53,16.64-2.29,7.13-3.44,12.57-3.44,16.3,0,1.82,.37,3.24,1.11,4.24,.74,1,1.77,1.5,3.09,1.5,2.37,0,5.22-1.93,8.54-5.78v3.93Zm-9.95-36.85c-2.1-1.14-4.35-1.71-6.77-1.71-3.81,0-7.24,1.59-10.29,4.77-3.05,3.18-5.46,7.39-7.23,12.63-1.77,5.24-2.65,9.79-2.65,13.64,0,2.57,.5,4.67,1.49,6.27,.99,1.61,2.26,2.41,3.81,2.41,2.69,0,5.78-2.45,9.26-7.35,1.44-12.85,5.56-23.07,12.37-30.66Z"/><path class="cls-1" d="M607.85,144.03c-5.72,5.61-10.13,8.41-13.23,8.41-1.39,0-2.56-.59-3.52-1.76s-1.44-2.63-1.44-4.36c0-3.21,1.72-7.52,5.16-12.92-1.69,.87-3.53,1.47-5.54,1.81-1.48,2.73-3.81,5.67-6.97,8.82h-.79v-3.08c1.78-1.85,3.38-3.83,4.82-5.95-1.96-.87-2.94-2.15-2.94-3.86s.6-3.63,1.79-5.62c1.2-1.99,2.84-2.99,4.94-2.99,1.78,0,2.67,.91,2.67,2.73,0,1.44-.51,3.49-1.54,6.15,3.78-.41,7.09-3.3,9.91-8.68l3.11-.14-3.18,8.75c-1.32,3.69-2.18,6.2-2.56,7.54-.39,1.33-.58,2.51-.58,3.54,0,.96,.22,1.72,.67,2.29,.44,.57,1.04,.86,1.79,.86,.82,0,1.61-.28,2.36-.84s2.44-2.1,5.06-4.63v3.93Z"/><path class="cls-1" d="M633.42,144.03c-2.92,2.87-5.59,4.98-8.02,6.32-2.43,1.34-4.96,2.02-7.6,2.02-2.96,0-5.41-.96-7.33-2.89-1.93-1.92-2.89-4.37-2.89-7.33,0-4.85,1.77-9.34,5.31-13.45,3.54-4.11,7.38-6.17,11.5-6.17,2.03,0,3.68,.56,4.96,1.69,1.28,1.13,1.91,2.59,1.91,4.39,0,.64-.12,1.12-.36,1.44-.24,.32-.69,.64-1.35,.96l-3.96,1.88c-.48,.23-.83,.34-1.06,.34-.32,0-.48-.23-.48-.68,0-.18,.07-.78,.21-1.79,.14-1.01,.21-1.63,.21-1.86,0-1-.21-1.81-.63-2.43s-.99-.92-1.69-.92c-1.66,0-3.18,1.23-4.56,3.69-1.38,2.46-2.07,5.26-2.07,8.41,0,2.71,.65,4.88,1.95,6.49,1.3,1.62,3.03,2.43,5.2,2.43,1.85,0,3.58-.53,5.21-1.59s3.48-2.68,5.55-4.87v3.93Z"/><path class="cls-1" d="M669.92,144.03c-3.65,3.46-6.25,5.72-7.83,6.77-1.57,1.05-3.08,1.57-4.51,1.57-3.6,0-5.3-3.18-5.09-9.54-2.28,3.26-4.38,5.66-6.31,7.21-1.93,1.55-3.91,2.32-5.96,2.32s-3.71-.94-5.11-2.82c-1.4-1.88-2.1-4.19-2.1-6.92,0-3.42,.94-6.68,2.82-9.78,1.88-3.1,4.29-5.61,7.23-7.52s5.54-2.87,7.79-2.87c2.85,0,4.84,1.31,5.98,3.93l6.99-3.86h1.92l-3.01,10.01c-1.55,5.04-2.33,8.49-2.33,10.36,0,1.96,.69,2.94,2.08,2.94,.89,0,1.87-.47,2.94-1.42,1.07-.95,2.57-2.39,4.51-4.32v3.93Zm-25.02,1.88c2.28,0,4.43-1.94,6.44-5.83,2.02-3.88,3.02-7.47,3.02-10.75,0-1.28-.29-2.27-.85-2.99-.57-.72-1.33-1.08-2.29-1.08-2.28,0-4.44,1.94-6.48,5.81-2.04,3.87-3.06,7.44-3.06,10.7,0,1.23,.3,2.23,.91,2.99,.6,.76,1.37,1.15,2.31,1.15Z"/><path class="cls-1" d="M703.46,144.03c-5.26,5.56-9.78,8.34-13.54,8.34-1.53,0-2.76-.54-3.69-1.61-.93-1.07-1.4-2.51-1.4-4.31,0-2.44,1-6.16,3.01-11.18,1.07-2.69,1.61-4.4,1.61-5.13s-.29-1.09-.85-1.09c-.32,0-.74,.16-1.26,.48-.48,.32-1.04,.76-1.67,1.33-.57,.52-1.21,1.16-1.91,1.91-.62,.64-1.28,1.37-1.98,2.19l-1.91,2.22c-.84,1.03-1.37,2.11-1.57,3.25-.34,1.94-.57,3.71-.68,5.33-.07,1.21-.1,2.84-.1,4.89l-7.55,1.78c-.25-3.08-.38-5.37-.38-6.87,0-3.67,.43-7.14,1.28-10.43,.86-3.28,2.23-6.97,4.12-11.07l8.34-1.61c-1.75,4.72-2.91,8.43-3.45,11.14,3.73-4.17,6.7-7.06,8.89-8.67,2.19-1.61,4.15-2.41,5.85-2.41,1.16,0,2.13,.44,2.9,1.31,.77,.88,1.16,1.97,1.16,3.29,0,2.18-.98,5.78-2.94,10.8-1.34,3.44-2.02,5.68-2.02,6.7,0,1.37,.56,2.06,1.68,2.06,1.67,0,4.36-2.2,8.09-6.6v3.93Z"/><path class="cls-1" d="M739.92,144.03c-3.65,3.46-6.25,5.72-7.83,6.77-1.57,1.05-3.08,1.57-4.51,1.57-3.6,0-5.3-3.18-5.09-9.54-2.28,3.26-4.38,5.66-6.31,7.21-1.93,1.55-3.91,2.32-5.96,2.32s-3.71-.94-5.11-2.82c-1.4-1.88-2.1-4.19-2.1-6.92,0-3.42,.94-6.68,2.82-9.78,1.88-3.1,4.29-5.61,7.23-7.52s5.54-2.87,7.79-2.87c2.85,0,4.84,1.31,5.98,3.93l6.99-3.86h1.92l-3.01,10.01c-1.55,5.04-2.33,8.49-2.33,10.36,0,1.96,.69,2.94,2.08,2.94,.89,0,1.87-.47,2.94-1.42,1.07-.95,2.57-2.39,4.51-4.32v3.93Zm-25.02,1.88c2.28,0,4.43-1.94,6.44-5.83,2.02-3.88,3.02-7.47,3.02-10.75,0-1.28-.29-2.27-.85-2.99-.57-.72-1.33-1.08-2.29-1.08-2.28,0-4.44,1.94-6.48,5.81-2.04,3.87-3.06,7.44-3.06,10.7,0,1.23,.3,2.23,.91,2.99,.6,.76,1.37,1.15,2.31,1.15Z"/></g></g></g><g id="_반짝이"><polygon class="cls-7" points="367.78 911.88 381.26 964.19 424.67 974.93 381.26 986.72 367.78 1040 353.58 986.72 310.89 974.93 353.58 964.19 367.78 911.88"/><polygon class="cls-7" points="752.78 1172.88 760.79 1203.96 786.58 1210.34 760.79 1217.35 752.78 1249 744.34 1217.35 718.98 1210.34 744.34 1203.96 752.78 1172.88"/><circle class="cls-6" cx="454" cy="903" r="9"/><circle class="cls-6" cx="266.5" cy="935.5" r="10.5"/><circle class="cls-7" cx="272.5" cy="1023.5" r="6.5"/><circle class="cls-6" cx="675.5" cy="1154.5" r="9.5"/><circle class="cls-7" cx="814" cy="890" r="7"/><circle class="cls-7" cx="503.5" cy="876.5" r="5.5"/></g><g id="_소드_킹"><path class="cls-6" d="M423.12,772.52c-1.33,.14-2.64,.36-3.91,.65-3.28-11.25-14.21-18.9-26.27-17.65-1.29,.13-2.54,.39-3.76,.71-3.16-12.58-15.16-21.25-28.43-19.87-6.21,.65-11.7,3.39-15.83,7.46-2.37-17.77-18.46-30.54-36.41-28.67-16.46,1.71-28.85,15.14-29.78,31.14-1.31,0-2.64,.05-3.97,.19-20.06,2.08-34.63,20.03-32.54,40.09,.55,5.27,2.2,10.16,4.69,14.47-9.01,4.82-14.68,14.74-13.56,25.53,1.48,14.23,14.22,24.57,28.45,23.1,6.14-.64,11.56-3.38,15.61-7.42,6.58,13.74,21.28,22.54,37.3,20.87,8.98-.93,16.88-5,22.72-11,8.6,10.71,22.28,16.98,36.95,15.45,18.59-1.93,33.06-15.77,36.64-33.15,5.6,2.99,12.13,4.4,18.92,3.69,18.12-1.88,31.28-18.09,29.39-36.21-1.88-18.12-18.09-31.28-36.21-29.39Z"/><path class="cls-6" d="M830.78,983.67c-1.39,.14-2.76,.38-4.09,.68-3.44-11.76-14.86-19.77-27.49-18.46-1.35,.14-2.65,.41-3.93,.75-3.31-13.16-15.86-22.23-29.74-20.79-6.5,.68-12.24,3.55-16.56,7.8-2.48-18.59-19.31-31.95-38.09-30-17.22,1.79-30.19,15.84-31.15,32.58-1.37,0-2.76,.06-4.16,.2-20.98,2.18-36.23,20.96-34.05,41.94,.57,5.51,2.3,10.63,4.91,15.14-9.42,5.04-15.36,15.42-14.18,26.71,1.55,14.89,14.87,25.71,29.76,24.16,6.43-.67,12.09-3.53,16.33-7.76,6.89,14.37,22.26,23.58,39.02,21.83,9.4-.98,17.65-5.23,23.77-11.5,8.99,11.2,23.3,17.76,38.66,16.17,19.45-2.02,34.59-16.49,38.33-34.68,5.86,3.13,12.69,4.6,19.79,3.86,18.95-1.97,32.72-18.93,30.75-37.88-1.97-18.95-18.93-32.72-37.88-30.75Z"/><g><path class="cls-4" d="M719.66,660.64c1.81-12.05,5.06-21.51,7.54-27.66-3.13,1.56-13.47,7.26-18.85,20.93-2.4,6.11-3.02,11.8-3.14,15.7-.26-.6-2.7-6.05-7.54-6.73-1.88-.26-3.44,.29-4.4,.75,1.51,2.41,3.53,6.17,5.03,11.21,1.02,3.45,2.07,6.97,1.88,11.21-.3,6.92-3.58,9.1-6.28,17.19-1.11,3.33-2.42,8.54-2.51,15.7-2.72-2.74-5.44-5.48-8.17-8.22-2.51,1.25-5.03,2.49-7.54,3.74-2.58-2.96-5.9-7.39-8.79-13.46-2.76-5.78-9.18-19.25-5.03-31.4,.64-1.88,2.38-6.96,6.91-9.72,3.66-2.23,7.25-1.8,8.79-1.5-.22-1.06-2.41-10.83-10.05-14.2-3.39-1.5-6.47-1.13-8.17-.75-.44-5.44-.86-10.92-1.26-16.45-.22-3-.43-5.99-.63-8.97-2.17,1.17-5.57,3.41-8.79,7.48-3.81,4.82-5.52,9.87-6.28,12.71-1.75-.33-4.4-.59-7.54,0-2.77,.52-4.97,.93-6.91,2.99-2.59,2.75-3.04,6.66-3.14,8.22,5.13,.26,9.72,3.68,11.94,8.97,.25,.6,2.93,7.29,0,14.2-.37,.87-2.45,5.75-6.91,7.48-4.88,1.89-9.47-1.38-13.82-4.49-2.81-2.01-7.29-5.84-11.31-12.71-1.85,2.15-5.18,5.45-10.05,7.48-6.51,2.71-12.05,1.6-16.33,.75-5.53-1.11-11.02-2.21-15.7-7.48-4.9-5.51-7.36-13.86-6.91-14.2,.09-.07,.3,.16,.42,.29,2.18,2.23,6.99,3.37,10.89,2.7,2.28-.39,5.23-.89,6.91-3.74,1.69-2.87,1.07-6.41,.63-8.97-.81-4.68-2.96-7.94-4.4-9.72,1.06-2.39,2.11-4.88,3.14-7.48,1.64-4.12,3.1-8.11,4.4-11.96-3.85,5.88-9.85,8.54-15.08,6.73-.56-.19-5.24-1.91-7.54-7.48-2.9-7.04,.52-14.17,1.26-15.7,2.49-5.18,6.38-7.52,8.79-8.97,3.22-1.94,6.18-2.68,8.17-2.99-3.82-1.52-10.18-3.27-17.59-1.5-1.99,.48-3.77,1.14-5.34,1.87-2.3-4.24-8.06-10.34-10.37-14.58-2.3,4.24-8.06,10.34-10.37,14.58-1.57-.73-3.35-1.39-5.34-1.87-7.41-1.78-13.77-.03-17.59,1.5,1.98,.31,4.94,1.05,8.17,2.99,2.42,1.45,6.31,3.79,8.79,8.97,.73,1.53,4.16,8.66,1.26,15.7-2.29,5.56-6.98,7.28-7.54,7.48-5.23,1.81-11.23-.85-15.08-6.73,1.3,3.85,2.75,7.85,4.4,11.96,1.04,2.59,2.09,5.08,3.14,7.48-1.43,1.78-3.58,5.04-4.4,9.72-.45,2.56-1.06,6.1,.63,8.97,1.68,2.85,4.63,3.35,6.91,3.74,3.9,.66,8.7-.47,10.89-2.7,.12-.13,.33-.35,.42-.29,.45,.35-2.01,8.69-6.91,14.2-4.68,5.27-10.18,6.37-15.7,7.48-4.28,.86-9.82,1.97-16.33-.75-4.87-2.03-8.2-5.33-10.05-7.48-4.02,6.87-8.5,10.7-11.31,12.71-4.35,3.1-8.94,6.38-13.82,4.49-4.46-1.72-6.54-6.6-6.91-7.48-2.93-6.91-.25-13.61,0-14.2,2.21-5.29,6.81-8.71,11.94-8.97-.1-1.56-.55-5.47-3.14-8.22-1.94-2.06-4.14-2.47-6.91-2.99-3.14-.59-5.79-.33-7.54,0-.76-2.84-2.47-7.89-6.28-12.71-3.22-4.07-6.63-6.3-8.79-7.48-.2,2.98-.41,5.97-.63,8.97-.4,5.52-.82,11.01-1.26,16.45-1.7-.38-4.78-.75-8.17,.75-7.64,3.37-9.83,13.14-10.05,14.2,1.54-.3,5.13-.74,8.79,1.5,4.53,2.76,6.27,7.84,6.91,9.72,4.15,12.15-2.27,25.62-5.03,31.4-2.89,6.07-6.21,10.49-8.79,13.46-2.51-1.25-5.03-2.49-7.54-3.74-2.72,2.74-5.44,5.48-8.17,8.22-.09-7.16-1.4-12.37-2.51-15.7-2.71-8.09-5.98-10.27-6.28-17.19-.18-4.25,.86-7.76,1.88-11.21,1.5-5.04,3.52-8.8,5.03-11.21-.96-.46-2.52-1.01-4.4-.75-4.84,.68-7.28,6.13-7.54,6.73-.12-3.9-.74-9.59-3.14-15.7-5.38-13.67-15.72-19.37-18.85-20.93,2.48,6.15,5.72,15.61,7.54,27.66,.66,4.36,1.08,8.76,1.26,37.38,.09,14.92,.14,22.39,0,31.4-.2,12.81-.63,25.28-1.26,37.38,19.67-1.02,36.02-1.75,47.74-2.24,55.03-2.32,71.17-2.1,84.81-1.5,16.55,.73,41.26,.55,49.63,1.5,8.37-.94,28.06-.76,44.6-1.5,13.64-.6,29.78-.83,84.81,1.5,11.72,.5,28.08,1.23,47.74,2.24-.63-12.1-1.06-24.56-1.26-37.38-.14-9.01-.09-16.47,0-31.4,.18-28.62,.6-33.02,1.26-37.38Zm-179.98-42.61c4.34,0,7.85,4.18,7.85,9.34s-3.52,9.34-7.85,9.34-7.85-4.18-7.85-9.34,3.52-9.34,7.85-9.34Zm22.8,114.98l-16.4-9.28-6.09,20.37-6.09-20.37-16.4,9.28,7.8-19.52-17.11-7.24,17.11-7.24-7.8-19.52,16.4,9.28,6.09-20.37,6.09,20.37,16.4-9.28-7.8,19.52,17.11,7.24-17.11,7.24,7.8,19.52Z"/><polygon class="cls-2" points="539.78 637.2 548.03 686.17 570.27 675.6 559.7 697.84 610.03 706.09 559.7 714.34 570.27 736.58 548.03 726.01 539.78 779.07 531.53 726.01 509.29 736.58 519.86 714.34 468.64 706.09 519.86 697.84 509.29 675.6 531.53 686.17 539.78 637.2"/></g><g><circle class="cls-6" cx="375.57" cy="1146.21" r="15.55"/><circle class="cls-6" cx="524.27" cy="1263.66" r="15.55"/><path class="cls-4" d="M411.18,1164.02c.54-6.5-2.15-12.66-2.83-14.2-2.68-6.12-5.36-7.18-5.9-11.37-.36-2.8,.23-7.18,5.53-13.17-2.48-.07-7.88,.11-13.53,3.31-1.71,.97-7.83,4.55-10.95,12.27-2.31,5.71-1.81,10.8-1.44,13.11-1.97,.21-7.36,1.05-12.03,5.41-5.89,5.51-6.4,12.66-6.5,14.5-.22,4.04,.73,7.27,1.44,9.14,1.47-3.23,3.99-7.33,8.06-8.3,3.33-.8,5.98,.91,11.01,2.95,3.67,1.48,9,3.3,15.94,4.51,2.58-1.96,10.37-8.41,11.19-18.17Z"/><path class="cls-4" d="M500.72,1233.89c6.11-2.29,12.77-1.36,14.43-1.13,6.62,.92,8.37,3.21,12.54,2.59,2.79-.42,6.85-2.16,11.18-8.9,.75,2.37,2.03,7.61,.49,13.92-.47,1.91-2.25,8.77-8.84,13.87-4.87,3.77-9.91,4.68-12.23,4.95,.33,1.95,.99,7.37-1.95,13.05-3.7,7.17-10.46,9.59-12.19,10.18-3.83,1.31-7.2,1.27-9.19,1.09,2.72-2.29,5.97-5.83,5.8-10.01-.14-3.42-2.5-5.51-5.82-9.8-2.42-3.13-5.62-7.77-8.66-14.12,1.19-3.01,5.28-12.26,14.45-15.7Z"/><g><circle class="cls-2" cx="356.58" cy="1324.45" r="18"/><g><polygon class="cls-7" points="856.64 683.99 818.75 706.43 437.86 1191.19 450.38 1201.03 856.64 683.99"/><polygon class="cls-7" points="860.57 687.08 454.31 1204.12 466.83 1213.95 847.73 729.2 860.57 687.08"/></g><rect class="cls-3" x="375.45" y="1189.72" width="148.85" height="32" rx="16" ry="16" transform="translate(841.08 -20.29) rotate(38.16)"/><g><rect class="cls-3" x="347.84" y="1302.78" width="40.85" height="17.69" transform="translate(888.34 52.46) rotate(38.13)"/><rect class="cls-3" x="361.67" y="1285.17" width="40.85" height="17.69" transform="translate(880.42 40.16) rotate(38.13)"/><rect class="cls-3" x="375.49" y="1267.56" width="40.85" height="17.69" transform="translate(872.49 27.87) rotate(38.13)"/><rect class="cls-3" x="389.31" y="1249.94" width="40.85" height="17.69" transform="translate(864.57 15.58) rotate(38.13)"/><rect class="cls-3" x="403.13" y="1232.33" width="40.85" height="17.69" transform="translate(856.64 3.29) rotate(38.13)"/><rect class="cls-3" x="416.95" y="1214.72" width="40.85" height="17.69" transform="translate(848.72 -9) rotate(38.13)"/></g><rect class="cls-3" x="330.01" y="1315.09" width="56.85" height="14" rx="7" ry="7" transform="translate(893.44 61.07) rotate(38.16)"/><polygon class="cls-2" points="473.55 1175.99 460.48 1199.96 473.69 1202.95 461.56 1208.97 480.51 1229.63 455.95 1216.1 452.97 1229.31 446.95 1217.18 425.35 1237.32 439.81 1211.58 426.61 1208.59 438.73 1202.57 419.39 1181.6 444.34 1195.44 447.32 1182.23 453.35 1194.36 473.55 1175.99"/></g></g></g></svg>