<?xml version="1.0" encoding="UTF-8"?><svg xmlns="http://www.w3.org/2000/svg" viewBox="0 0 1080 1944"><defs><style>.cls-1{fill:#fff;}.cls-2{fill:#f6ef84;}.cls-3{fill:#3f3730;}.cls-4{fill:#4c5fa9;}.cls-5{fill:#bad6eb;}.cls-6{fill:#c8c0de;}.cls-7{fill:#b1d4f0;}</style></defs><g id="_배경"><g><rect class="cls-5" width="1080" height="1944"/><path class="cls-1" d="M140.05,186.39H939.95c35.99,0,65.21,29.22,65.21,65.21V1727.82c0,35.99-29.22,65.21-65.21,65.21H140.05c-35.99,0-65.21-29.22-65.21-65.21V251.6c0-35.99,29.22-65.21,65.21-65.21Z"/><g><path class="cls-3" d="M404.34,1635.34c0,1.52-2.52,5.27-7.56,11.25h-1.05c-.78-.31-1.27-1.46-1.46-3.46-.43-4.02-1.82-7.31-4.16-9.87-2.34-2.56-5.16-3.84-8.44-3.84-3.09,0-5.74,1.12-7.97,3.37-2.23,2.24-3.34,4.93-3.34,8.05,0,2.26,.71,4.69,2.12,7.29,1.41,2.59,5.08,6.71,10.99,12.34s9.71,10.12,11.38,13.46c1.68,3.34,2.52,6.51,2.52,9.52,0,6.95-3.02,13.08-9.05,18.37-6.04,5.29-13.1,7.94-21.18,7.94-6.68,0-12.19-1.55-16.52-4.66s-6.5-5.63-6.5-7.59c0-1.09,1.19-3.63,3.57-7.62,2.38-3.98,3.75-5.98,4.1-5.98,1.25,0,2.14,.36,2.67,1.08,.53,.72,.89,2.06,1.08,4.01,.59,6.09,2.06,10.29,4.42,12.6,2.36,2.31,5.44,3.46,9.23,3.46,4.14,0,7.75-1.43,10.84-4.3,3.08-2.87,4.63-6.2,4.63-9.98,0-1.95-.6-4.03-1.8-6.23-1.2-2.21-4.58-5.96-10.14-11.26-5.56-5.3-9.2-9.79-10.92-13.46-1.72-3.67-2.58-7.25-2.58-10.72,0-6.05,2.29-11.62,6.86-16.7,4.57-5.08,10.64-7.62,18.22-7.62,5.74,0,10.52,1.32,14.33,3.96s5.71,4.83,5.71,6.59Z"/><path class="cls-3" d="M444.42,1695.34c-4.92,4.88-9.18,8.49-12.77,10.81-3.59,2.32-7.01,3.49-10.25,3.49s-6.08-1.42-8.17-4.25c-2.09-2.83-3.13-6.55-3.13-11.16,0-4.06,1-9.43,3.01-16.09l2.49-8.87-4.5,.23,1.88-9.2,5.57-.23,5.5-18.28,15.65-3.21-6.06,20.38,8.27-.47-1.94,9.02-9.09,.7-3.9,13.13c-1.36,4.56-2.03,8.19-2.03,10.89,0,1.84,.46,3.33,1.38,4.49s2.1,1.73,3.55,1.73c2,0,3.97-.63,5.93-1.9,1.96-1.27,4.83-3.92,8.63-7.94v6.74Z"/><path class="cls-3" d="M488.19,1695.34c-9.81,9.61-17.36,14.41-22.68,14.41-2.38,0-4.39-1.01-6.04-3.02s-2.46-4.5-2.46-7.47c0-5.51,2.95-12.89,8.85-22.15-2.89,1.49-6.06,2.52-9.49,3.11-2.54,4.69-6.52,9.73-11.95,15.12h-1.35v-5.27c3.05-3.16,5.8-6.56,8.26-10.2-3.36-1.48-5.04-3.69-5.04-6.62s1.03-6.22,3.08-9.64c2.05-3.42,4.87-5.13,8.47-5.13,3.05,0,4.57,1.56,4.57,4.69,0,2.46-.88,5.98-2.64,10.55,6.48-.7,12.15-5.66,16.99-14.88l5.33-.23-5.45,15c-2.27,6.33-3.73,10.63-4.39,12.92-.67,2.29-1,4.31-1,6.06,0,1.64,.38,2.95,1.14,3.93,.76,.98,1.79,1.46,3.08,1.46,1.41,0,2.75-.48,4.04-1.44,1.29-.96,4.18-3.6,8.67-7.94v6.74Z"/><path class="cls-3" d="M532.02,1695.34c-4.96,4.88-9.41,8.49-13.36,10.81-3.95,2.32-8.3,3.49-13.07,3.49-5.31,0-9.6-1.7-12.86-5.1-3.26-3.4-4.89-7.87-4.89-13.42,0-8.28,2.87-15.77,8.61-22.47,5.74-6.7,12.11-10.05,19.1-10.05,3.63,0,6.54,.94,8.73,2.81,2.19,1.88,3.28,4.34,3.28,7.38,0,8.09-8.59,14.65-25.78,19.69,1.56,7.62,5.64,11.43,12.25,11.43,2.58,0,5.04-.69,7.38-2.08,2.34-1.39,5.88-4.46,10.61-9.23v6.74Zm-30.7-10.84c10-2.81,15-8.01,15-15.59,0-3.75-1.37-5.62-4.1-5.62-2.58,0-5.04,1.96-7.38,5.89s-3.52,9.03-3.52,15.32Z"/><path class="cls-3" d="M589.56,1695.34c-9.02,9.53-16.76,14.3-23.2,14.3-2.62,0-4.73-.92-6.33-2.75-1.6-1.84-2.4-4.3-2.4-7.38,0-4.18,1.72-10.57,5.16-19.16,1.84-4.61,2.75-7.54,2.75-8.79s-.49-1.88-1.46-1.88c-.55,0-1.27,.27-2.17,.82-.82,.55-1.78,1.31-2.87,2.29-.98,.9-2.07,1.99-3.28,3.28-1.05,1.09-2.19,2.34-3.4,3.75l-3.28,3.81c-1.45,1.76-2.34,3.61-2.7,5.57-.59,3.32-.98,6.37-1.17,9.14-.12,2.07-.18,4.86-.18,8.38l-12.95,3.05c-.43-5.27-.64-9.2-.64-11.78,0-6.29,.73-12.25,2.2-17.87s3.82-11.95,7.06-18.98l14.3-2.75c-3.01,8.09-4.98,14.45-5.92,19.1,6.4-7.15,11.48-12.1,15.25-14.85s7.11-4.13,10.03-4.13c1.99,0,3.65,.75,4.97,2.25,1.33,1.5,1.99,3.38,1.99,5.65,0,3.75-1.68,9.92-5.04,18.51-2.3,5.9-3.46,9.73-3.46,11.49,0,2.35,.96,3.53,2.88,3.53,2.86,0,7.48-3.77,13.86-11.31v6.74Z"/><path class="cls-3" d="M647.04,1695.34c-4.96,5.19-10.89,9.02-17.8,11.48-3.24,10.12-7.35,17.91-12.34,23.38-4.98,5.47-10.27,8.2-15.85,8.2-3.05,0-5.51-.96-7.39-2.87-1.88-1.91-2.81-4.43-2.81-7.56,0-4.18,1.87-7.93,5.6-11.25,3.73-3.32,10.07-6.52,19.01-9.61l2.52-11.54c-3.75,4.22-6.99,7.32-9.73,9.29-2.73,1.97-5.49,2.96-8.26,2.96-3.24,0-5.9-1.52-7.97-4.57-2.07-3.05-3.11-7.01-3.11-11.89,0-7.97,3.04-15.44,9.11-22.41s12.53-10.46,19.36-10.46c3.79,0,7.15,1.6,10.07,4.8,1.76-.62,4.04-1.56,6.85-2.81l4.16-1.88h1.35c-1.52,4.61-2.69,9.1-3.51,13.48l-5.49,29.36c5.27-1.99,10.68-6.27,16.22-12.83v6.74Zm-32.81,16.93c-12.62,4.53-18.93,9.76-18.93,15.7,0,1.76,.53,3.19,1.58,4.31s2.4,1.67,4.04,1.67c2.81,0,5.25-1.78,7.32-5.33,2.07-3.55,4.06-9,5.98-16.35Zm-4.92-15c2.77,0,5.23-1.64,7.38-4.92,2.15-3.28,3.82-7.44,5.01-12.48,1.19-5.04,1.79-8.53,1.79-10.49,0-1.84-.46-3.35-1.38-4.54-.92-1.19-2.06-1.79-3.43-1.79-4.14,0-7.75,2.79-10.84,8.38-3.09,5.59-4.63,11.27-4.63,17.05,0,2.7,.56,4.83,1.67,6.42s2.59,2.37,4.42,2.37Z"/><path class="cls-3" d="M680.73,1695.34c-4.92,4.88-9.18,8.49-12.77,10.81-3.59,2.32-7.01,3.49-10.25,3.49s-6.08-1.42-8.17-4.25c-2.09-2.83-3.13-6.55-3.13-11.16,0-4.06,1-9.43,3.01-16.09l2.49-8.87-4.5,.23,1.88-9.2,5.57-.23,5.5-18.28,15.65-3.21-6.06,20.38,8.27-.47-1.94,9.02-9.09,.7-3.9,13.13c-1.36,4.56-2.03,8.19-2.03,10.89,0,1.84,.46,3.33,1.38,4.49s2.1,1.73,3.55,1.73c2,0,3.97-.63,5.93-1.9,1.96-1.27,4.83-3.92,8.63-7.94v6.74Z"/><path class="cls-3" d="M738.21,1695.34c-9.26,9.61-16.88,14.41-22.85,14.41-2.66,0-4.85-.91-6.59-2.72-1.74-1.82-2.61-4.11-2.61-6.88,0-4.69,1.8-11.29,5.39-19.8,1.91-4.61,2.87-7.62,2.87-9.02,0-1.6-.76-2.4-2.29-2.4s-3.83,1.06-6.8,3.19c-2.97,2.13-6.09,5.03-9.38,8.7-1.37,7.19-2.05,15.82-2.05,25.9l-13.07,3.05c-.51-4.1-.76-8.55-.76-13.36,0-11.64,1.6-22.48,4.8-32.52,3.2-10.04,8.24-20.68,15.12-31.93,5.12-2.07,9.58-3.76,13.39-5.07,3.81-1.31,5.99-1.96,6.53-1.96,1.02,0,1.88,.82,2.58,2.46s1.05,3.69,1.05,6.15c0,4.14-1.27,8.72-3.81,13.74-2.54,5.02-6.52,11.08-11.95,18.19,5.2-3.01,8.66-4.9,10.38-5.68,1.72-.78,3.48-1.17,5.28-1.17,1.99,0,3.61,.71,4.84,2.14s1.85,3.31,1.85,5.66c0,3.52-1.4,8.97-4.2,16.35-2.8,7.38-4.2,12.01-4.2,13.88,0,.86,.26,1.62,.79,2.29s1.14,1,1.84,1c2.5,0,7.11-3.77,13.82-11.31v6.74Zm-40.61-24.02c13.95-16.21,20.92-28.16,20.92-35.86,0-2.34-.64-3.52-1.93-3.52-2.15,0-5.21,3.85-9.2,11.54-3.98,7.7-7.25,16.97-9.79,27.83Z"/></g><g><path class="cls-1" d="M353.98,142.06c-5.24,5.58-10.05,8.37-14.42,8.37-2.42,0-4.33-.85-5.74-2.56s-2.2-4.15-2.36-7.31c-2.76,3.35-5.2,5.83-7.33,7.45-2.13,1.62-4.4,2.43-6.82,2.43-3.1,0-5.59-1.34-7.47-4.02-1.88-2.68-2.82-6.25-2.82-10.71,0-5.33,1.23-10.83,3.69-16.49s6.11-10.13,10.94-13.42,10.69-4.92,17.57-4.92c5.15,0,9.81,.7,13.98,2.09v2.26c-3.4,3.96-6.24,9.51-8.53,16.64-2.29,7.13-3.44,12.57-3.44,16.3,0,1.82,.37,3.24,1.11,4.24,.74,1,1.77,1.5,3.09,1.5,2.37,0,5.22-1.93,8.54-5.78v3.93Zm-9.95-36.85c-2.1-1.14-4.35-1.71-6.77-1.71-3.81,0-7.24,1.59-10.29,4.77s-5.46,7.39-7.23,12.63c-1.77,5.24-2.65,9.79-2.65,13.64,0,2.57,.5,4.67,1.49,6.27,.99,1.61,2.26,2.41,3.81,2.41,2.69,0,5.78-2.45,9.26-7.35,1.44-12.85,5.56-23.07,12.37-30.66Z"/><path class="cls-1" d="M379.51,142.03c-5.72,5.61-10.13,8.41-13.23,8.41-1.39,0-2.56-.59-3.52-1.76s-1.44-2.63-1.44-4.36c0-3.21,1.72-7.52,5.16-12.92-1.69,.87-3.53,1.47-5.54,1.81-1.48,2.73-3.8,5.67-6.97,8.82h-.79v-3.08c1.78-1.85,3.38-3.83,4.82-5.95-1.96-.87-2.94-2.15-2.94-3.86s.6-3.63,1.79-5.62c1.2-1.99,2.84-2.99,4.94-2.99,1.78,0,2.67,.91,2.67,2.73,0,1.44-.51,3.49-1.54,6.15,3.78-.41,7.09-3.3,9.91-8.68l3.11-.14-3.18,8.75c-1.32,3.69-2.18,6.2-2.56,7.54-.39,1.33-.58,2.51-.58,3.54,0,.96,.22,1.72,.67,2.29,.44,.57,1.04,.86,1.79,.86,.82,0,1.61-.28,2.36-.84s2.44-2.1,5.06-4.63v3.93Z"/><path class="cls-1" d="M405.08,142.03c-2.92,2.87-5.59,4.98-8.02,6.32-2.43,1.34-4.96,2.02-7.61,2.02-2.96,0-5.41-.96-7.33-2.89-1.93-1.92-2.89-4.37-2.89-7.33,0-4.85,1.77-9.34,5.31-13.45,3.54-4.11,7.38-6.17,11.5-6.17,2.03,0,3.68,.56,4.96,1.69s1.91,2.59,1.91,4.39c0,.64-.12,1.12-.36,1.44-.24,.32-.69,.64-1.35,.96l-3.96,1.88c-.48,.23-.83,.34-1.06,.34-.32,0-.48-.23-.48-.68,0-.18,.07-.78,.21-1.79,.14-1.01,.21-1.63,.21-1.86,0-1-.21-1.81-.63-2.43s-.99-.92-1.69-.92c-1.66,0-3.19,1.23-4.56,3.69-1.38,2.46-2.07,5.26-2.07,8.41,0,2.71,.65,4.88,1.95,6.49,1.3,1.62,3.03,2.43,5.2,2.43,1.85,0,3.58-.53,5.21-1.59s3.48-2.68,5.55-4.87v3.93Z"/><path class="cls-1" d="M441.58,142.03c-3.65,3.46-6.26,5.72-7.83,6.77-1.57,1.05-3.08,1.57-4.51,1.57-3.6,0-5.3-3.18-5.09-9.54-2.28,3.26-4.38,5.66-6.31,7.21-1.93,1.55-3.91,2.32-5.96,2.32s-3.71-.94-5.11-2.82c-1.4-1.88-2.1-4.19-2.1-6.92,0-3.42,.94-6.68,2.82-9.78,1.88-3.1,4.29-5.61,7.23-7.52s5.54-2.87,7.79-2.87c2.85,0,4.84,1.31,5.98,3.93l6.99-3.86h1.92l-3.02,10.01c-1.55,5.04-2.33,8.49-2.33,10.36,0,1.96,.69,2.94,2.08,2.94,.89,0,1.87-.47,2.94-1.42,1.07-.95,2.57-2.39,4.51-4.32v3.93Zm-25.02,1.88c2.28,0,4.43-1.94,6.44-5.83,2.02-3.88,3.02-7.47,3.02-10.75,0-1.28-.29-2.27-.85-2.99-.57-.72-1.33-1.08-2.29-1.08-2.28,0-4.44,1.94-6.48,5.81-2.04,3.87-3.06,7.44-3.06,10.7,0,1.23,.3,2.23,.91,2.99,.6,.76,1.37,1.15,2.31,1.15Z"/><path class="cls-1" d="M475.11,142.03c-5.26,5.56-9.78,8.34-13.54,8.34-1.53,0-2.76-.54-3.69-1.61-.93-1.07-1.4-2.51-1.4-4.31,0-2.44,1-6.16,3.01-11.18,1.07-2.69,1.61-4.4,1.61-5.13s-.29-1.09-.85-1.09c-.32,0-.74,.16-1.27,.48-.48,.32-1.04,.76-1.67,1.33-.57,.52-1.21,1.16-1.91,1.91-.62,.64-1.28,1.37-1.98,2.19l-1.91,2.22c-.84,1.03-1.37,2.11-1.57,3.25-.34,1.94-.57,3.71-.68,5.33-.07,1.21-.1,2.84-.1,4.89l-7.55,1.78c-.25-3.08-.38-5.37-.38-6.87,0-3.67,.43-7.14,1.28-10.43,.86-3.28,2.23-6.97,4.12-11.07l8.34-1.61c-1.75,4.72-2.9,8.43-3.45,11.14,3.73-4.17,6.7-7.06,8.89-8.67,2.19-1.61,4.14-2.41,5.85-2.41,1.16,0,2.13,.44,2.9,1.31,.77,.88,1.16,1.97,1.16,3.29,0,2.18-.98,5.78-2.94,10.8-1.34,3.44-2.02,5.68-2.02,6.7,0,1.37,.56,2.06,1.68,2.06,1.67,0,4.36-2.2,8.09-6.6v3.93Z"/><path class="cls-1" d="M500.64,142.03c-2.89,2.85-5.49,4.95-7.79,6.31-2.3,1.36-4.84,2.03-7.62,2.03-3.1,0-5.6-.99-7.5-2.97s-2.85-4.59-2.85-7.83c0-4.83,1.67-9.2,5.02-13.11s7.06-5.86,11.14-5.86c2.12,0,3.82,.55,5.09,1.64,1.28,1.09,1.91,2.53,1.91,4.31,0,4.72-5.01,8.54-15.04,11.48,.91,4.44,3.29,6.66,7.14,6.66,1.5,0,2.94-.4,4.31-1.21s3.43-2.6,6.19-5.38v3.93Zm-17.91-6.32c5.83-1.64,8.75-4.67,8.75-9.09,0-2.19-.8-3.28-2.39-3.28-1.5,0-2.94,1.14-4.31,3.43s-2.05,5.27-2.05,8.94Z"/><path class="cls-1" d="M511.17,122c1.57-.41,3.15-.75,4.75-1.01s2.55-.39,2.87-.39c.23,0,.34,.09,.34,.27,0,.34-.09,.69-.27,1.06-.37,1.05-.55,2.05-.55,3.01,0,1.18,.69,2.8,2.05,4.85s2.05,3.96,2.05,5.71c0,3.49-1.67,6.85-5.01,10.08-3.34,3.24-6.8,4.85-10.38,4.85-1.55,0-2.96-.41-4.24-1.23s-1.91-1.7-1.91-2.63c0-.55,.63-1.58,1.9-3.11,1.26-1.53,2.17-2.29,2.72-2.29,.73,0,1.38,.93,1.95,2.8,.57,1.87,1.55,2.8,2.94,2.8s2.7-.64,3.91-1.93,1.83-2.67,1.83-4.15c0-1.44-.77-3.35-2.32-5.74-1.55-2.39-2.58-4.4-3.08-6.01-2.64,4.26-5.99,8.62-10.05,13.09h-.79v-3.08c5.58-5.95,9.34-11.6,11.28-16.95Z"/><path class="cls-1" d="M596.89,142.03c-2.85,2.78-5.29,4.87-7.31,6.26-2.03,1.39-4,2.08-5.91,2.08-1.5,0-2.7-.52-3.57-1.55s-1.31-2.43-1.31-4.19c0-2.46,.62-5.58,1.85-9.37,1.23-3.78,1.85-6.08,1.85-6.9,0-.73-.38-1.09-1.13-1.09-.23,0-.5,.08-.82,.24-.34,.16-.73,.39-1.16,.68-.43,.32-.9,.71-1.4,1.16-.5,.46-1.03,.98-1.57,1.57-.59,.59-1.18,1.24-1.78,1.95-1,1.18-1.59,2.18-1.78,2.97l-1.14,4.89-2.07,8.07-8.66,1.57,3.32-14.08c.25-1.03,.55-2.53,.89-4.51s.51-3.17,.51-3.55c0-.77-.26-1.16-.79-1.16-.16,0-.39,.08-.68,.24-.34,.16-.73,.4-1.16,.72-.5,.37-1.04,.8-1.61,1.3-.62,.55-1.28,1.17-1.98,1.88-.75,.75-1.53,1.58-2.32,2.49-1.09,1.23-1.78,2.67-2.05,4.31-.37,1.96-.62,3.71-.75,5.26-.16,1.55-.25,3.28-.27,5.2l-7.59,1.81c-.18-2.62-.27-4.81-.27-6.56,0-4.17,.43-7.8,1.3-10.89s2.28-6.69,4.24-10.82l8.27-1.61c-1.48,3.71-2.63,7.3-3.45,10.77,6.13-7.13,10.82-10.7,14.08-10.7,1.18,0,2.15,.48,2.89,1.45,.74,.97,1.11,2.24,1.11,3.81,0,.73-.11,2.07-.34,4.03,3.85-3.85,6.62-6.36,8.29-7.54,1.67-1.17,3.22-1.76,4.63-1.76,1.25,0,2.28,.5,3.08,1.5,.8,1,1.2,2.28,1.2,3.83,0,2.44-.67,5.57-2.01,9.4-1.34,3.83-2.01,6.36-2.01,7.59s.46,1.91,1.4,1.91c.59,0,1.42-.39,2.47-1.18,1.06-.79,2.9-2.59,5.54-5.42v3.93Z"/><path class="cls-1" d="M633.4,142.03c-3.65,3.46-6.26,5.72-7.83,6.77-1.57,1.05-3.08,1.57-4.51,1.57-3.6,0-5.3-3.18-5.09-9.54-2.28,3.26-4.38,5.66-6.31,7.21-1.93,1.55-3.91,2.32-5.96,2.32s-3.71-.94-5.11-2.82c-1.4-1.88-2.1-4.19-2.1-6.92,0-3.42,.94-6.68,2.82-9.78,1.88-3.1,4.29-5.61,7.23-7.52s5.54-2.87,7.79-2.87c2.85,0,4.84,1.31,5.98,3.93l6.99-3.86h1.92l-3.02,10.01c-1.55,5.04-2.33,8.49-2.33,10.36,0,1.96,.69,2.94,2.08,2.94,.89,0,1.87-.47,2.94-1.42,1.07-.95,2.57-2.39,4.51-4.32v3.93Zm-25.02,1.88c2.28,0,4.43-1.94,6.44-5.83,2.02-3.88,3.02-7.47,3.02-10.75,0-1.28-.29-2.27-.85-2.99-.57-.72-1.33-1.08-2.29-1.08-2.28,0-4.44,1.94-6.48,5.81-2.04,3.87-3.06,7.44-3.06,10.7,0,1.23,.3,2.23,.91,2.99,.6,.76,1.37,1.15,2.31,1.15Z"/><path class="cls-1" d="M658.93,142.03c-2.15,2.16-4.81,4.1-7.99,5.81-.83,6.22-2.41,11-4.75,14.32-2.34,3.33-4.72,4.99-7.16,4.99-1.53,0-2.83-.63-3.9-1.9s-1.61-2.82-1.61-4.67c0-4.47,3.01-8.23,9.02-11.28l2.53-20.58c-4.74,5.92-8.64,10.36-11.69,13.29h-.79v-3.08c3.03-2.89,7.11-7.68,12.24-14.36l2.12-2.73c2.39-.27,5.07-.72,8.03-1.33-1.01,5.42-2.19,13.43-3.55,24.03,2.1-1.05,4.57-3.18,7.41-6.39l.07,3.86Zm-16.6,10.42c-1.91,.89-3.41,2.09-4.51,3.61-1.1,1.52-1.65,3.07-1.65,4.67,0,1.03,.24,1.9,.72,2.62s1.04,1.08,1.67,1.08c1.57,0,2.6-2.01,3.08-6.02l.69-5.95Zm15.85-45.29c-.43,5.56-2.75,8.34-6.94,8.34-1.96,0-3.69-.66-5.2-1.98,1.98-2.53,3.15-4.72,3.52-6.56,1.82,1.12,3.34,1.68,4.55,1.68,1.37,0,2.72-.49,4.07-1.47Z"/><path class="cls-1" d="M684.49,142.03c-2.89,2.85-5.49,4.95-7.79,6.31s-4.84,2.03-7.62,2.03c-3.1,0-5.6-.99-7.5-2.97s-2.85-4.59-2.85-7.83c0-4.83,1.68-9.2,5.03-13.11s7.06-5.86,11.14-5.86c2.12,0,3.82,.55,5.09,1.64s1.91,2.53,1.91,4.31c0,4.72-5.01,8.54-15.04,11.48,.91,4.44,3.29,6.66,7.14,6.66,1.5,0,2.94-.4,4.31-1.21s3.43-2.6,6.19-5.38v3.93Zm-17.91-6.32c5.83-1.64,8.75-4.67,8.75-9.09,0-2.19-.8-3.28-2.39-3.28-1.5,0-2.94,1.14-4.31,3.43s-2.05,5.27-2.05,8.94Z"/><path class="cls-1" d="M721,142.03c-3.01,2.85-5.53,4.95-7.55,6.31-2.03,1.36-3.85,2.03-5.47,2.03-1.8,0-3.19-.72-4.15-2.15s-1.45-3.38-1.45-5.85c-2.51,2.76-4.75,4.79-6.73,6.1s-3.92,1.96-5.81,1.96c-1.73,0-3.12-.72-4.17-2.15s-1.57-3.38-1.57-5.85c0-4.74,1.6-11.42,4.79-20.03l9.13-1.82c-3.75,10.92-5.63,17.93-5.64,21.03,0,2.19,.82,3.28,2.46,3.28,1.19,0,2.65-.96,4.41-2.89,1.75-1.92,2.85-3.61,3.28-5.04l4.48-14.56,9.3-1.88c-2.15,6.86-3.62,11.68-4.42,14.46-.8,2.78-1.2,4.73-1.2,5.85,0,2.14,.73,3.21,2.19,3.21,1.19,0,2.94-1.08,5.27-3.25l2.87-2.7v3.93Z"/><path class="cls-1" d="M746.53,142.03c-5.72,5.61-10.13,8.41-13.23,8.41-1.39,0-2.56-.59-3.52-1.76s-1.44-2.63-1.44-4.36c0-3.21,1.72-7.52,5.16-12.92-1.69,.87-3.53,1.47-5.54,1.81-1.48,2.73-3.8,5.67-6.97,8.82h-.79v-3.08c1.78-1.85,3.38-3.83,4.82-5.95-1.96-.87-2.94-2.15-2.94-3.86s.6-3.63,1.79-5.62c1.2-1.99,2.84-2.99,4.94-2.99,1.78,0,2.67,.91,2.67,2.73,0,1.44-.51,3.49-1.54,6.15,3.78-.41,7.09-3.3,9.91-8.68l3.11-.14-3.18,8.75c-1.32,3.69-2.18,6.2-2.56,7.54-.39,1.33-.58,2.51-.58,3.54,0,.96,.22,1.72,.67,2.29,.44,.57,1.04,.86,1.79,.86,.82,0,1.61-.28,2.36-.84s2.44-2.1,5.06-4.63v3.93Z"/><path class="cls-1" d="M757.06,122c1.57-.41,3.15-.75,4.75-1.01s2.55-.39,2.87-.39c.23,0,.34,.09,.34,.27,0,.34-.09,.69-.27,1.06-.37,1.05-.55,2.05-.55,3.01,0,1.18,.69,2.8,2.05,4.85s2.05,3.96,2.05,5.71c0,3.49-1.67,6.85-5.01,10.08-3.34,3.24-6.8,4.85-10.38,4.85-1.55,0-2.96-.41-4.24-1.23s-1.91-1.7-1.91-2.63c0-.55,.63-1.58,1.9-3.11,1.26-1.53,2.17-2.29,2.72-2.29,.73,0,1.38,.93,1.95,2.8,.57,1.87,1.55,2.8,2.94,2.8s2.7-.64,3.91-1.93,1.83-2.67,1.83-4.15c0-1.44-.77-3.35-2.32-5.74-1.55-2.39-2.58-4.4-3.08-6.01-2.64,4.26-5.99,8.62-10.05,13.09h-.79v-3.08c5.58-5.95,9.34-11.6,11.28-16.95Z"/></g></g></g><g id="_반짝이"><polygon class="cls-6" points="329.09 578.01 340.87 623.74 378.81 633.13 340.87 643.43 329.09 690 316.67 643.43 279.36 633.13 316.67 623.74 329.09 578.01"/><polygon class="cls-7" points="788.09 1166.01 799.03 1208.47 834.26 1217.19 799.03 1226.76 788.09 1270 776.56 1226.76 741.91 1217.19 776.56 1208.47 788.09 1166.01"/><circle class="cls-5" cx="259" cy="674" r="11"/><circle class="cls-6" cx="271.16" cy="722.84" r="6.85"/><circle class="cls-6" cx="847.5" cy="1124.5" r="13.5"/><circle class="cls-5" cx="795.5" cy="1063.5" r="10.5"/><circle class="cls-6" cx="842" cy="986" r="8"/><circle class="cls-6" cx="252.5" cy="1029.5" r="12.5"/><circle class="cls-5" cx="277.5" cy="1115.5" r="7.5"/></g><g id="_힘"><path class="cls-2" d="M637.63,682c4.76,11.99,7.38,25.06,7.38,38.75,0,57.99-47.01,105.01-105.01,105.01s-105.01-47.01-105.01-105.01c0-13.69,2.62-26.76,7.38-38.75-13.45,19.27-21.34,42.71-21.34,67.99,0,65.7,53.26,118.96,118.96,118.96s118.96-53.26,118.96-118.96c0-25.28-7.89-48.72-21.34-67.99Z"/><path class="cls-4" d="M473.61,634.14c-7.76,0-16.38-1.4-25.06-5.62-6.58-3.2-28.16-15.44-29.71-38.77-1.38-20.72,14.31-37.69,30.47-45.33,19.64-9.28,39.05-3.06,47.34-.41,15.27,4.89,26.88,13.96,44.44,27.69,2.05,1.6,4.14,3.28,5.98,4.78,4.58-3.65,9.61-7.67,15.16-12.12,7.22-5.79,19.22-15.42,37.44-20.44,8.7-2.39,20.61-5.67,33.76-.36,20.75,8.38,26.14,30.53,26.69,33.03,3.7,16.85-1.62,34.38-13.54,44.66-16.96,14.62-39.82,8.92-52.1,5.85-6.32-1.58-22.54-6.55-36.54-18.68-1.03-.89-2.19-1.95-3.61-3.24-1.93-1.75-4.35-3.96-7.57-6.76-31.62,24.94-37.76,28.26-47.51,31.25-5.21,1.6-14.55,4.46-25.64,4.46Zm-1.71-77.66c-4.9,0-10.14,.87-15.33,3.32-7.61,3.59-21.74,14.24-20.77,28.83,.97,14.55,16.98,23.05,20.18,24.6,15.06,7.32,30.75,2.51,38.29,.19,7.02-2.15,12.71-5.36,39.14-26.12-.92-.74-1.86-1.48-2.78-2.2-16.7-13.05-26.77-20.93-39.15-24.89-4.6-1.47-11.65-3.73-19.57-3.73Zm88.39,31.2c2.21,1.95,3.99,3.58,5.49,4.94,1.29,1.17,2.35,2.14,3.29,2.95h0c11.54,10,25.51,14.03,29.52,15.03,10.59,2.64,26.6,6.63,36.89-2.23,8.25-7.12,9.98-19.26,8.03-28.15-.03-.16-3.58-15.7-16.45-20.91-7.26-2.93-14.06-1.44-22.87,.99-14.83,4.09-24.73,12.02-31.28,17.28-4.52,3.62-8.72,6.98-12.61,10.09Z"/><path class="cls-5" d="M661.51,895.43c-.76-3.1,2.28-6.88,9-12,16.49-12.58,30-20,30-20,6.07-3.05,13.19-7.19,17-11,2-2,5.15-5.86,5-11-.16-5.46-1.5-8-5-11-7-6-7.17-4.68-8-9-.29-1.52-1.52-6.43,5-13,12.53-12.64,30.49-15.44,34-16,0,0,14.09-2.24,71-17,13.61-3.53,33.53-9.87,57-22,.17,2.47,.13,6.01-1,10-1.13,3.98-4.31,11.8-20,22-7.74,5.03-20.7,12.05-39,16-3.07,2.55-4.4,4.21-4,5,.69,1.36,6.44-.26,9-1,5.77-1.66,19.18-6.22,51-21,.1,2.77-.14,6.79-2,11-3.37,7.64-10.27,11.83-20,16-9.56,4.1-24.6,9.36-45,12l-3,3c1.96,.05,3.96,.06,6,0,17.85-.48,33.38-5.22,46-11-.51,2.44-1.58,6.11-4,10-2.01,3.23-4.27,5.51-6,7-5.66,2.53-12.35,5.02-20,7-14.02,3.63-26.49,4.29-36,4-.67,1-1.33,2-2,3,4.12,.16,8.46,.17,13,0,11.6-.44,22.01-2.01,31-4-.59,1.27-1.54,3.07-3,5-1.5,1.98-5.09,6.15-14,10-13.17,5.69-25.46,5.28-32,5-4.18-.18-7.63-.63-10-1-1.33,.67-2.67,1.33-4,2,2.92,.38,5.92,.72,9,1,6.65,.61,13,.92,19,1-.81,1.49-2.11,3.64-4,6-8.41,10.46-19.75,13.83-36,18-36.05,9.25-27.17,4.73-60,12,0,0-18.07,4-30-2-1.68-.85-3.53-2.06-4-4Z"/><path class="cls-5" d="M427.49,895.43c.76-3.1-2.28-6.88-9-12-16.49-12.58-30-20-30-20-6.07-3.05-13.19-7.19-17-11-2-2-5.15-5.86-5-11,.16-5.46,1.5-8,5-11,7-6,7.17-4.68,8-9,.29-1.52,1.52-6.43-5-13-12.53-12.64-30.49-15.44-34-16,0,0-14.09-2.24-71-17-13.61-3.53-33.53-9.87-57-22-.17,2.47-.13,6.01,1,10,1.13,3.98,4.31,11.8,20,22,7.74,5.03,20.7,12.05,39,16,3.07,2.55,4.4,4.21,4,5-.69,1.36-6.44-.26-9-1-5.77-1.66-19.18-6.22-51-21-.1,2.77,.14,6.79,2,11,3.37,7.64,10.27,11.83,20,16,9.56,4.1,24.6,9.36,45,12l3,3c-1.96,.05-3.96,.06-6,0-17.85-.48-33.38-5.22-46-11,.51,2.44,1.58,6.11,4,10,2.01,3.23,4.27,5.51,6,7,5.66,2.53,12.35,5.02,20,7,14.02,3.63,26.49,4.29,36,4,.67,1,1.33,2,2,3-4.12,.16-8.46,.17-13,0-11.6-.44-22.01-2.01-31-4,.59,1.27,1.54,3.07,3,5,1.5,1.98,5.09,6.15,14,10,13.17,5.69,25.46,5.28,32,5,4.18-.18,7.63-.63,10-1,1.33,.67,2.67,1.33,4,2-2.92,.38-5.92,.72-9,1-6.65,.61-13,.92-19,1,.81,1.49,2.11,3.64,4,6,8.41,10.46,19.75,13.83,36,18,36.05,9.25,27.17,4.73,60,12,0,0,18.07,4,30-2,1.68-.85,3.53-2.06,4-4Z"/><path class="cls-4" d="M726.61,1062.29c-6.77-28.41-25.73-45.42-32.75-51.15,11.36,.46,22.72,.91,34.09,1.37-8.93-13.38-32.49-44.39-76.24-60.14-17.19-6.19-33.04-8.42-45.44-9.07,1.16-3.06,4.42-10.26,12.44-15.81,11.79-8.15,24.93-6.53,27.6-6.14-11.92-3.57-31.27-7.87-55.3-6.75-8.12,.38-15.62,1.34-22.45,2.6,.94-2.14,2.12-4.29,3.62-6.4,2.28-3.19,4.78-5.59,7.02-7.36-4.98-1.22-14.04-2.66-24.37,.4-10.4,3.08-23.54,11.16-24.55,18.37-8.15-3.74-17.02-6.93-34.32-6.22-24.37,1-46.41,10.91-58.49,14,2.69-.28,20.47,0,25.34,3,2.64,1.63,5.95,4.62,6.98,7.73-12.42,.16-28.35,1.75-45.81,7.24-44.44,13.98-69.41,44.02-78.96,57.03h34.12c-7.27,5.44-27.01,21.68-35.09,49.79-6.29,21.87-2.45,40.23,0,48.88,9.42-4.53,18.85-9.05,28.27-13.58-2.52,12.91-4.51,30.29-2.92,50.69,1.58,20.41,6.24,37.34,10.72,49.79,5.85-8.45,11.7-16.9,17.55-25.35-.94,11.78-.44,26.08,3.9,41.64,.88,3.16,1.87,6.18,2.92,9.05,2.92-4.83,5.85-9.66,8.77-14.48,1.89,12.67,5.58,27.58,12.67,43.45,2.17,4.85,4.47,9.37,6.82,13.58,2.92-5.73,5.85-11.47,8.77-17.2,3.31,6.65,8.25,14.94,15.6,23.54,8.51,9.97,17.39,17,24.37,21.73-.32-7.24-.65-14.48-.97-21.73,3.86,5.27,8.95,11.24,15.6,17.2,11.28,10.11,22.88,16.44,31.96,20.4,0,.37-.02,.73-.03,1.1,.45-.16,.92-.34,1.39-.51,.6,.25,1.19,.5,1.77,.73,0-.47,.02-.94,.03-1.42,9.26-3.6,21.14-9.46,32.88-19.11,6.92-5.68,12.28-11.45,16.38-16.56-.66,7.22-1.32,14.44-1.98,21.67,7.19-4.44,16.39-11.11,25.36-20.73,7.74-8.3,13.06-16.37,16.68-22.89,2.66,5.85,5.31,11.69,7.97,17.54,2.55-4.11,5.06-8.54,7.45-13.29,7.83-15.58,12.2-30.32,14.68-42.9,2.7,4.94,5.4,9.88,8.09,14.82,1.19-2.83,2.31-5.8,3.34-8.93,5.06-15.37,6.23-29.64,5.83-41.45,5.45,8.68,10.9,17.35,16.35,26.03,5.06-12.25,10.49-28.99,13.02-49.31,2.53-20.32,1.35-37.76-.57-50.76,9.2,4.9,18.41,9.8,27.61,14.7,2.85-8.54,7.54-26.73,2.27-48.84Zm-104.7,45.52c-4.19,6.29-9.97,11.38-14.43,23.2-3.77,9.98-1.91,12.33-5.77,21.34-3.81,8.9-8.91,14.26-18.28,24.13-8.48,8.93-14.03,14.87-23.09,20.42-6.9,4.22-18.8,11.5-32.71,12.06-28.63,1.15-54.5-26.63-64.47-50.11-5.92-13.95-1.58-15.42-9.62-35.26-7.7-18.99-14.61-24.89-16.36-39.9-1.31-11.26,1.2-19.78,3.85-28.77,2.88-9.77,11.18-38.37,38.49-54.75,7.39-4.43,21.31-12.94,37.53-9.28,6.98,1.57,12.16,4.89,15.4,7.42,4.22-2.94,17.49-11.38,35.6-10.21,13.71,.89,23.15,6.83,26.94,9.28,20.5,13.26,26.35,35.2,29.83,48.25,3.52,13.21,11.01,41.31-2.89,62.17Z"/><path class="cls-4" d="M551.19,1149.52c-2.85-1.77-11.86-4.33-21.25-4.47-10.04-.15-17.3,3.83-20.13,5.59,1.6,2.25,4.79,6.06,10.07,8.95,3.94,2.16,7.61,3,10.07,3.36,.65,.21,6.71,0,12.3-3.36,5.19-3.11,8.84-9.09,8.95-10.07Z"/></g></svg>