<?xml version="1.0" encoding="UTF-8"?><svg xmlns="http://www.w3.org/2000/svg" viewBox="0 0 1080 1944"><defs><style>.cls-1{fill:#fff;}.cls-2{fill:#f6ef84;}.cls-3{fill:#3f3730;}.cls-4{fill:#4c5fa9;}.cls-5{stroke-width:10px;}.cls-5,.cls-6{fill:none;stroke:#f6ef84;stroke-linecap:round;stroke-miterlimit:10;}.cls-6{stroke-width:15px;}.cls-7{fill:#bad6eb;}.cls-8{fill:#c8c0de;}.cls-9{fill:#b1d4f0;}</style></defs><g id="_배경"><g><rect class="cls-7" width="1080" height="1944"/><rect class="cls-1" x="74.84" y="186.39" width="930.33" height="1606.64" rx="65.21" ry="65.21"/><g><path class="cls-3" d="M324.49,1646.47c1.52,0,2.29,.49,2.29,1.46l-1.41,7.79-.29,14.47c-.2,4.73-.92,9.08-2.17,13.07-1.13,3.71-2.72,7.09-4.75,10.14-1.84,2.81-4.04,5.29-6.62,7.44-2.38,1.99-5,3.67-7.85,5.04-2.66,1.25-5.45,2.19-8.38,2.81-2.7,.62-5.41,.94-8.14,.94-6.37,0-11.36-1.38-14.97-4.13-3.61-2.75-5.42-5.42-5.42-8,0-1.48,1.34-3.4,4.01-5.74,2.67-2.34,4.7-3.52,6.06-3.52,1.68,0,2.52,1.56,2.52,4.69,0,5.08,.83,8.37,2.49,9.87,1.66,1.5,3.88,2.26,6.65,2.26,4.49,0,8.43-1.43,11.81-4.28,3.38-2.85,5.65-6.26,6.83-10.22,1.17-3.96,1.78-9.81,1.82-17.55,.04-7.73,.62-13.06,1.73-15.97,1.11-2.91,3.15-5.4,6.12-7.47,2.97-2.07,5.53-3.11,7.68-3.11Zm21.97-17.99c-1.13,8.4-4.71,12.6-10.72,12.6-2.11,0-6.15-.95-12.13-2.84-5.98-1.89-11.13-2.84-15.47-2.84-5.59,0-10.42,2.07-14.5,6.22-4.08,4.15-6.12,7.77-6.12,10.86s1.88,5.69,5.62,8.04c1.52,.98,2.29,1.86,2.29,2.64,0,1.06-1.08,2.48-3.25,4.28s-3.8,2.7-4.89,2.7c-1.84,0-3.55-1.05-5.16-3.16-1.6-2.11-2.4-4.41-2.4-6.91,0-4.84,1.97-10.13,5.92-15.85,3.95-5.72,9.1-10.39,15.47-14,6.37-3.61,13.05-5.42,20.04-5.42,4.73,0,9.2,.71,13.42,2.14,4.22,1.43,6.86,2.14,7.91,2.14,.94,0,1.74-.27,2.4-.82l.35-.12,1.23,.35Z"/><path class="cls-3" d="M398.79,1695.34c-9.26,9.61-16.88,14.41-22.85,14.41-2.66,0-4.85-.91-6.59-2.72-1.74-1.82-2.61-4.11-2.61-6.88,0-4.69,1.8-11.29,5.39-19.8,1.91-4.61,2.87-7.62,2.87-9.02,0-1.6-.76-2.4-2.29-2.4s-3.83,1.06-6.8,3.19c-2.97,2.13-6.09,5.03-9.38,8.7-1.37,7.19-2.05,15.82-2.05,25.9l-13.07,3.05c-.51-4.1-.76-8.55-.76-13.36,0-11.64,1.6-22.48,4.8-32.52,3.2-10.04,8.24-20.68,15.12-31.93,5.12-2.07,9.58-3.76,13.39-5.07,3.81-1.31,5.99-1.96,6.53-1.96,1.02,0,1.88,.82,2.58,2.46s1.05,3.69,1.05,6.15c0,4.14-1.27,8.72-3.81,13.74-2.54,5.02-6.52,11.08-11.95,18.19,5.2-3.01,8.66-4.9,10.38-5.68,1.72-.78,3.48-1.17,5.28-1.17,1.99,0,3.61,.71,4.84,2.14s1.85,3.31,1.85,5.66c0,3.52-1.4,8.97-4.2,16.35-2.8,7.38-4.2,12.01-4.2,13.88,0,.86,.26,1.62,.79,2.29s1.14,1,1.84,1c2.5,0,7.11-3.77,13.82-11.31v6.74Zm-40.61-24.02c13.95-16.21,20.92-28.16,20.92-35.86,0-2.34-.64-3.52-1.93-3.52-2.15,0-5.21,3.85-9.2,11.54-3.98,7.7-7.25,16.97-9.79,27.83Z"/><path class="cls-3" d="M442.56,1695.34c-4.96,4.88-9.41,8.49-13.36,10.81-3.95,2.32-8.3,3.49-13.07,3.49-5.31,0-9.6-1.7-12.86-5.1-3.26-3.4-4.89-7.87-4.89-13.42,0-8.28,2.87-15.77,8.61-22.47,5.74-6.7,12.11-10.05,19.1-10.05,3.63,0,6.54,.94,8.73,2.81,2.19,1.88,3.28,4.34,3.28,7.38,0,8.09-8.59,14.65-25.78,19.69,1.56,7.62,5.64,11.43,12.25,11.43,2.58,0,5.04-.69,7.38-2.08,2.34-1.39,5.88-4.46,10.61-9.23v6.74Zm-30.7-10.84c10-2.81,15-8.01,15-15.59,0-3.75-1.37-5.62-4.1-5.62-2.58,0-5.04,1.96-7.38,5.89s-3.52,9.03-3.52,15.32Z"/><path class="cls-3" d="M578.79,1695.4c-4.77,4.94-9.09,8.57-12.98,10.88-3.89,2.31-7.88,3.47-11.98,3.47-4.61,0-8.49-2.03-11.63-6.09-3.14-4.06-4.72-10-4.72-17.81,0-3.24,.4-7.48,1.2-12.71-5.83,.47-9.41,.74-10.74,.82-2.47,12.89-6.8,22.08-13,27.57-6.19,5.49-13.19,8.23-21,8.23-5.78,0-10.55-1.34-14.3-4.01s-5.62-5.26-5.62-7.76c0-1.84,1.4-3.93,4.19-6.3,2.79-2.36,4.72-3.54,5.77-3.54,1.52,0,2.29,1.64,2.29,4.92,0,8.09,2.71,12.13,8.14,12.13,3.98,0,7.29-2.23,9.93-6.68s4.73-11.84,6.28-22.15c-4.68,.67-9.33,2.95-13.93,6.86-.31-.43-.58-2.11-.82-5.04,4.11-4.53,9.55-7.7,16.32-9.49,1.35-6.33,3.05-11.48,5.12-15.47,2.07-3.98,7.32-10.14,15.76-18.46-4.06,1.6-7.38,2.4-9.96,2.4-1.68,0-3.78-.45-6.3-1.35-2.52-.9-4.54-1.35-6.06-1.35-3.32,0-6.04,1.2-8.14,3.6s-3.16,4.85-3.16,7.35,1.33,4.79,3.98,6.86c1.21,.74,1.82,1.45,1.82,2.11,0,1.17-.78,2.63-2.34,4.37-1.56,1.74-3.03,2.61-4.39,2.61-1.52,0-2.93-1.08-4.22-3.25s-1.93-4.56-1.93-7.18c0-5.78,2.83-11.58,8.5-17.4,5.66-5.82,11.29-8.73,16.88-8.73,1.21,0,3.55,.5,7.03,1.49,3.48,1,5.84,1.49,7.09,1.49,2.5,0,4.94-1.09,7.32-3.28,2.97,1.56,4.45,2.54,4.45,2.93,0,.55-1.18,2-3.54,4.37-2.36,2.36-4.29,5.73-5.82,10.11-1.52,4.38-3.12,12.54-4.79,24.49,4.49-.2,8.41-.55,11.77-1.05,1.78-6.05,3.7-11.15,5.77-15.29,2.07-4.14,4.44-8.31,7.12-12.51,2.67-4.2,4.73-6.77,6.15-7.71,1.43-.94,4.45-2.01,9.08-3.22,4.63-1.21,6.96-1.82,7-1.82,.47,0,.7,.12,.7,.35,0,.59-.88,2.1-2.63,4.54-1.75,2.44-4.28,6.84-7.57,13.19-3.29,6.35-6.09,13.12-8.38,20.3,4.22-.7,8.54-2.58,12.96-5.62,.51,.23,.82,.58,.94,1.03,.12,.45,.18,1.57,.18,3.37-3.35,4.06-8.75,6.95-16.19,8.67-1.61,7.62-2.41,13.02-2.41,16.18,0,3.83,.84,6.86,2.52,9.11,1.68,2.25,3.92,3.37,6.73,3.37,2.26,0,4.54-.73,6.82-2.19,2.28-1.46,5.2-4.26,8.75-8.42v6.74Z"/><path class="cls-3" d="M622.56,1695.34c-4.96,4.88-9.41,8.49-13.36,10.81-3.95,2.32-8.3,3.49-13.07,3.49-5.31,0-9.6-1.7-12.86-5.1-3.26-3.4-4.89-7.87-4.89-13.42,0-8.28,2.87-15.77,8.61-22.47,5.74-6.7,12.11-10.05,19.1-10.05,3.63,0,6.54,.94,8.73,2.81,2.19,1.88,3.28,4.34,3.28,7.38,0,8.09-8.59,14.65-25.78,19.69,1.56,7.62,5.64,11.43,12.25,11.43,2.58,0,5.04-.69,7.38-2.08,2.34-1.39,5.88-4.46,10.61-9.23v6.74Zm-30.7-10.84c10-2.81,15-8.01,15-15.59,0-3.75-1.37-5.62-4.1-5.62-2.58,0-5.04,1.96-7.38,5.89s-3.52,9.03-3.52,15.32Z"/><path class="cls-3" d="M666.39,1695.34c-9.81,9.61-17.36,14.41-22.68,14.41-2.38,0-4.39-1.01-6.04-3.02s-2.46-4.5-2.46-7.47c0-5.51,2.95-12.89,8.85-22.15-2.89,1.49-6.06,2.52-9.49,3.11-2.54,4.69-6.52,9.73-11.95,15.12h-1.35v-5.27c3.05-3.16,5.8-6.56,8.26-10.2-3.36-1.48-5.04-3.69-5.04-6.62s1.03-6.22,3.08-9.64c2.05-3.42,4.87-5.13,8.47-5.13,3.05,0,4.57,1.56,4.57,4.69,0,2.46-.88,5.98-2.64,10.55,6.48-.7,12.15-5.66,16.99-14.88l5.33-.23-5.45,15c-2.27,6.33-3.73,10.63-4.39,12.92-.67,2.29-1,4.31-1,6.06,0,1.64,.38,2.95,1.14,3.93,.76,.98,1.79,1.46,3.08,1.46,1.41,0,2.75-.48,4.04-1.44,1.29-.96,4.18-3.6,8.67-7.94v6.74Z"/><path class="cls-3" d="M752.7,1695.34c-4.88,4.77-9.06,8.34-12.54,10.72-3.48,2.38-6.86,3.57-10.14,3.57-2.58,0-4.62-.89-6.12-2.67-1.5-1.78-2.26-4.17-2.26-7.18,0-4.22,1.05-9.57,3.16-16.05,2.11-6.48,3.16-10.43,3.16-11.84,0-1.25-.64-1.88-1.93-1.88-.39,0-.86,.14-1.41,.41-.59,.27-1.25,.67-1.99,1.17-.74,.55-1.54,1.21-2.4,1.99-.86,.78-1.76,1.68-2.69,2.7-1.02,1.02-2.03,2.13-3.05,3.34-1.72,2.03-2.73,3.73-3.05,5.1l-1.95,8.38-3.54,13.83-14.84,2.69,5.68-24.14c.43-1.76,.94-4.34,1.52-7.73s.88-5.43,.88-6.09c0-1.33-.45-1.99-1.35-1.99-.27,0-.67,.14-1.17,.41-.59,.27-1.25,.68-1.99,1.23-.86,.62-1.78,1.37-2.75,2.23-1.05,.94-2.19,2.01-3.4,3.22-1.29,1.29-2.62,2.72-3.98,4.28-1.88,2.11-3.05,4.57-3.52,7.38-.62,3.36-1.05,6.37-1.29,9.02-.27,2.66-.43,5.62-.47,8.91l-13.01,3.11c-.31-4.49-.47-8.24-.47-11.25,0-7.15,.74-13.37,2.23-18.66,1.48-5.29,3.91-11.47,7.27-18.54l14.18-2.75c-2.54,6.37-4.51,12.52-5.92,18.46,10.51-12.23,18.55-18.34,24.14-18.34,2.03,0,3.68,.83,4.95,2.49,1.27,1.66,1.9,3.84,1.9,6.53,0,1.25-.2,3.55-.59,6.91,6.6-6.6,11.34-10.91,14.21-12.92,2.87-2.01,5.52-3.02,7.94-3.02,2.15,0,3.91,.86,5.28,2.58,1.37,1.72,2.05,3.91,2.05,6.56,0,4.18-1.15,9.55-3.45,16.12-2.3,6.56-3.45,10.9-3.45,13.01s.8,3.28,2.4,3.28c1.01,0,2.43-.67,4.24-2.02,1.81-1.35,4.98-4.44,9.51-9.29v6.74Z"/><path class="cls-3" d="M781.52,1695.34c-9.14,9.61-15.98,14.41-20.51,14.41-2.5,0-4.61-1.28-6.33-3.84-1.72-2.56-2.58-5.77-2.58-9.64,0-8.32,2.81-19.84,8.44-34.57l14.88-3.11h.7l-5.86,18.34c-2.42,7.58-3.63,12.99-3.63,16.23,0,1.29,.28,2.33,.85,3.13,.57,.8,1.28,1.2,2.14,1.2,1.52,0,3.06-.56,4.6-1.67,1.54-1.11,3.97-3.52,7.29-7.24v6.74Zm-1.17-59.65c0,9.38-3.46,14.06-10.37,14.06-3.36,0-6.23-1.02-8.61-3.05,2.26-3.44,4.02-7.3,5.27-11.6,3.08,1.91,5.57,2.87,7.44,2.87,2.11,0,4.2-.76,6.27-2.29Z"/><path class="cls-3" d="M815.27,1695.34c-4.92,4.88-9.18,8.49-12.77,10.81-3.59,2.32-7.01,3.49-10.25,3.49s-6.08-1.42-8.17-4.25c-2.09-2.83-3.13-6.55-3.13-11.16,0-4.06,1-9.43,3.01-16.09l2.49-8.87-4.5,.23,1.88-9.2,5.57-.23,5.5-18.28,15.65-3.21-6.06,20.38,8.27-.47-1.94,9.02-9.09,.7-3.9,13.13c-1.36,4.56-2.03,8.19-2.03,10.89,0,1.84,.46,3.33,1.38,4.49s2.1,1.73,3.55,1.73c2,0,3.97-.63,5.93-1.9,1.96-1.27,4.83-3.92,8.63-7.94v6.74Z"/></g><g><path class="cls-1" d="M353.98,142.06c-5.24,5.58-10.05,8.37-14.42,8.37-2.42,0-4.33-.85-5.74-2.56s-2.2-4.15-2.36-7.31c-2.76,3.35-5.2,5.83-7.33,7.45s-4.4,2.43-6.82,2.43c-3.1,0-5.59-1.34-7.47-4.02-1.88-2.68-2.82-6.25-2.82-10.72,0-5.33,1.23-10.83,3.69-16.49,2.46-5.66,6.11-10.13,10.94-13.42s10.69-4.92,17.57-4.92c5.15,0,9.81,.7,13.98,2.08v2.26c-3.4,3.96-6.24,9.51-8.53,16.65-2.29,7.13-3.44,12.57-3.44,16.3,0,1.82,.37,3.24,1.11,4.24,.74,1,1.77,1.5,3.09,1.5,2.37,0,5.22-1.93,8.54-5.78v3.93Zm-9.95-36.85c-2.1-1.14-4.35-1.71-6.77-1.71-3.81,0-7.24,1.59-10.29,4.77s-5.46,7.39-7.23,12.63c-1.77,5.24-2.65,9.79-2.65,13.64,0,2.58,.5,4.67,1.49,6.27,.99,1.61,2.26,2.41,3.81,2.41,2.69,0,5.78-2.45,9.26-7.35,1.44-12.85,5.56-23.07,12.37-30.66Z"/><path class="cls-1" d="M379.51,142.03c-5.72,5.61-10.13,8.41-13.23,8.41-1.39,0-2.56-.59-3.52-1.76s-1.44-2.63-1.44-4.36c0-3.21,1.72-7.52,5.16-12.92-1.69,.87-3.53,1.47-5.54,1.81-1.48,2.73-3.8,5.67-6.97,8.82h-.79v-3.08c1.78-1.85,3.38-3.83,4.82-5.95-1.96-.87-2.94-2.15-2.94-3.86s.6-3.63,1.79-5.62c1.2-1.99,2.84-2.99,4.94-2.99,1.78,0,2.67,.91,2.67,2.73,0,1.44-.51,3.49-1.54,6.15,3.78-.41,7.09-3.3,9.91-8.68l3.11-.14-3.18,8.75c-1.32,3.69-2.18,6.2-2.56,7.54-.39,1.33-.58,2.51-.58,3.54,0,.96,.22,1.72,.67,2.29,.44,.57,1.04,.85,1.79,.85,.82,0,1.61-.28,2.36-.84,.75-.56,2.44-2.1,5.06-4.63v3.93Z"/><path class="cls-1" d="M405.08,142.03c-2.92,2.87-5.59,4.98-8.02,6.32-2.43,1.34-4.96,2.02-7.61,2.02-2.96,0-5.41-.96-7.33-2.89-1.93-1.93-2.89-4.37-2.89-7.33,0-4.85,1.77-9.34,5.31-13.45,3.54-4.11,7.38-6.17,11.5-6.17,2.03,0,3.68,.56,4.96,1.69s1.91,2.59,1.91,4.39c0,.64-.12,1.12-.36,1.44-.24,.32-.69,.64-1.35,.96l-3.96,1.88c-.48,.23-.83,.34-1.06,.34-.32,0-.48-.23-.48-.68,0-.18,.07-.78,.21-1.79,.14-1.01,.21-1.63,.21-1.86,0-1-.21-1.81-.63-2.43s-.99-.92-1.69-.92c-1.66,0-3.19,1.23-4.56,3.69-1.38,2.46-2.07,5.26-2.07,8.41,0,2.71,.65,4.88,1.95,6.49,1.3,1.62,3.03,2.43,5.2,2.43,1.85,0,3.58-.53,5.21-1.59s3.48-2.68,5.55-4.87v3.93Z"/><path class="cls-1" d="M441.58,142.03c-3.65,3.46-6.26,5.72-7.83,6.77s-3.08,1.57-4.51,1.57c-3.6,0-5.3-3.18-5.09-9.54-2.28,3.26-4.38,5.66-6.31,7.21s-3.91,2.32-5.96,2.32-3.71-.94-5.11-2.82c-1.4-1.88-2.1-4.19-2.1-6.92,0-3.42,.94-6.68,2.82-9.78,1.88-3.1,4.29-5.61,7.23-7.52s5.54-2.87,7.79-2.87c2.85,0,4.84,1.31,5.98,3.93l6.99-3.86h1.92l-3.02,10.02c-1.55,5.04-2.33,8.49-2.33,10.36s.69,2.94,2.08,2.94c.89,0,1.87-.47,2.94-1.42,1.07-.95,2.57-2.39,4.51-4.32v3.93Zm-25.02,1.88c2.28,0,4.43-1.94,6.44-5.83,2.02-3.88,3.02-7.47,3.02-10.75,0-1.28-.29-2.27-.85-2.99-.57-.72-1.33-1.08-2.29-1.08-2.28,0-4.44,1.94-6.48,5.81-2.04,3.87-3.06,7.44-3.06,10.7,0,1.23,.3,2.23,.91,2.99,.6,.76,1.37,1.15,2.31,1.15Z"/><path class="cls-1" d="M475.11,142.03c-5.26,5.56-9.78,8.34-13.54,8.34-1.53,0-2.76-.54-3.69-1.61s-1.4-2.51-1.4-4.31c0-2.44,1-6.16,3.01-11.18,1.07-2.69,1.61-4.4,1.61-5.13s-.29-1.09-.85-1.09c-.32,0-.74,.16-1.27,.48-.48,.32-1.04,.76-1.67,1.33-.57,.52-1.21,1.16-1.91,1.91-.62,.64-1.28,1.37-1.98,2.19l-1.91,2.22c-.84,1.03-1.37,2.11-1.57,3.25-.34,1.94-.57,3.71-.68,5.33-.07,1.21-.1,2.84-.1,4.89l-7.55,1.78c-.25-3.08-.38-5.37-.38-6.87,0-3.67,.43-7.14,1.28-10.42,.86-3.28,2.23-6.97,4.12-11.07l8.34-1.61c-1.75,4.72-2.9,8.43-3.45,11.14,3.73-4.17,6.7-7.06,8.89-8.66,2.19-1.61,4.14-2.41,5.85-2.41,1.16,0,2.13,.44,2.9,1.31,.77,.88,1.16,1.97,1.16,3.29,0,2.18-.98,5.78-2.94,10.8-1.34,3.44-2.02,5.68-2.02,6.7,0,1.37,.56,2.06,1.68,2.06,1.67,0,4.36-2.2,8.09-6.6v3.93Z"/><path class="cls-1" d="M500.64,142.03c-2.89,2.85-5.49,4.95-7.79,6.31-2.3,1.36-4.84,2.03-7.62,2.03-3.1,0-5.6-.99-7.5-2.97s-2.85-4.59-2.85-7.83c0-4.83,1.67-9.2,5.02-13.11,3.35-3.91,7.06-5.86,11.14-5.86,2.12,0,3.82,.55,5.09,1.64,1.28,1.09,1.91,2.53,1.91,4.31,0,4.72-5.01,8.54-15.04,11.48,.91,4.44,3.29,6.67,7.14,6.67,1.5,0,2.94-.4,4.31-1.21,1.37-.81,3.43-2.6,6.19-5.38v3.93Zm-17.91-6.32c5.83-1.64,8.75-4.67,8.75-9.09,0-2.19-.8-3.28-2.39-3.28-1.5,0-2.94,1.15-4.31,3.44s-2.05,5.27-2.05,8.94Z"/><path class="cls-1" d="M511.17,122c1.57-.41,3.15-.75,4.75-1.01,1.6-.26,2.55-.39,2.87-.39,.23,0,.34,.09,.34,.27,0,.34-.09,.69-.27,1.06-.37,1.05-.55,2.05-.55,3.01,0,1.18,.69,2.8,2.05,4.85s2.05,3.96,2.05,5.71c0,3.49-1.67,6.85-5.01,10.08-3.34,3.24-6.8,4.85-10.38,4.85-1.55,0-2.96-.41-4.24-1.23s-1.91-1.7-1.91-2.63c0-.55,.63-1.58,1.9-3.11,1.26-1.53,2.17-2.29,2.72-2.29,.73,0,1.38,.93,1.95,2.8,.57,1.87,1.55,2.8,2.94,2.8s2.7-.64,3.91-1.93,1.83-2.67,1.83-4.15c0-1.44-.77-3.35-2.32-5.74-1.55-2.39-2.58-4.4-3.08-6.02-2.64,4.26-5.99,8.62-10.05,13.09h-.79v-3.08c5.58-5.95,9.34-11.6,11.28-16.95Z"/><path class="cls-1" d="M596.89,142.03c-2.85,2.78-5.29,4.87-7.31,6.25-2.03,1.39-4,2.08-5.91,2.08-1.5,0-2.7-.52-3.57-1.56s-1.31-2.43-1.31-4.19c0-2.46,.62-5.58,1.85-9.37,1.23-3.78,1.85-6.08,1.85-6.9,0-.73-.38-1.09-1.13-1.09-.23,0-.5,.08-.82,.24-.34,.16-.73,.39-1.16,.68-.43,.32-.9,.71-1.4,1.16-.5,.46-1.03,.98-1.57,1.57-.59,.59-1.18,1.24-1.78,1.95-1,1.19-1.59,2.18-1.78,2.97l-1.14,4.89-2.07,8.07-8.66,1.57,3.32-14.08c.25-1.03,.55-2.53,.89-4.51s.51-3.17,.51-3.55c0-.77-.26-1.16-.79-1.16-.16,0-.39,.08-.68,.24-.34,.16-.73,.4-1.16,.72-.5,.36-1.04,.8-1.61,1.3-.62,.55-1.28,1.17-1.98,1.88-.75,.75-1.53,1.58-2.32,2.5-1.09,1.23-1.78,2.67-2.05,4.31-.37,1.96-.62,3.71-.75,5.26-.16,1.55-.25,3.28-.27,5.2l-7.59,1.81c-.18-2.62-.27-4.81-.27-6.56,0-4.17,.43-7.8,1.3-10.89,.87-3.09,2.28-6.69,4.24-10.82l8.27-1.61c-1.48,3.71-2.63,7.3-3.45,10.77,6.13-7.13,10.82-10.7,14.08-10.7,1.18,0,2.15,.48,2.89,1.45,.74,.97,1.11,2.24,1.11,3.81,0,.73-.11,2.07-.34,4.03,3.85-3.85,6.62-6.36,8.29-7.54,1.67-1.17,3.22-1.76,4.63-1.76,1.25,0,2.28,.5,3.08,1.5,.8,1,1.2,2.28,1.2,3.83,0,2.44-.67,5.57-2.01,9.4-1.34,3.83-2.01,6.36-2.01,7.59s.46,1.91,1.4,1.91c.59,0,1.42-.39,2.47-1.18,1.06-.79,2.9-2.59,5.54-5.42v3.93Z"/><path class="cls-1" d="M633.4,142.03c-3.65,3.46-6.26,5.72-7.83,6.77s-3.08,1.57-4.51,1.57c-3.6,0-5.3-3.18-5.09-9.54-2.28,3.26-4.38,5.66-6.31,7.21s-3.91,2.32-5.96,2.32-3.71-.94-5.11-2.82c-1.4-1.88-2.1-4.19-2.1-6.92,0-3.42,.94-6.68,2.82-9.78,1.88-3.1,4.29-5.61,7.23-7.52s5.54-2.87,7.79-2.87c2.85,0,4.84,1.31,5.98,3.93l6.99-3.86h1.92l-3.02,10.02c-1.55,5.04-2.33,8.49-2.33,10.36s.69,2.94,2.08,2.94c.89,0,1.87-.47,2.94-1.42,1.07-.95,2.57-2.39,4.51-4.32v3.93Zm-25.02,1.88c2.28,0,4.43-1.94,6.44-5.83,2.02-3.88,3.02-7.47,3.02-10.75,0-1.28-.29-2.27-.85-2.99-.57-.72-1.33-1.08-2.29-1.08-2.28,0-4.44,1.94-6.48,5.81-2.04,3.87-3.06,7.44-3.06,10.7,0,1.23,.3,2.23,.91,2.99,.6,.76,1.37,1.15,2.31,1.15Z"/><path class="cls-1" d="M658.93,142.03c-2.15,2.16-4.81,4.1-7.99,5.81-.83,6.22-2.41,11-4.75,14.32-2.34,3.33-4.72,4.99-7.16,4.99-1.53,0-2.83-.63-3.9-1.9s-1.61-2.82-1.61-4.67c0-4.47,3.01-8.23,9.02-11.28l2.53-20.58c-4.74,5.92-8.64,10.36-11.69,13.3h-.79v-3.08c3.03-2.89,7.11-7.68,12.24-14.36l2.12-2.73c2.39-.27,5.07-.72,8.03-1.33-1.01,5.42-2.19,13.43-3.55,24.03,2.1-1.05,4.57-3.18,7.41-6.39l.07,3.86Zm-16.6,10.42c-1.91,.89-3.41,2.09-4.51,3.61-1.1,1.52-1.65,3.07-1.65,4.67,0,1.03,.24,1.9,.72,2.62,.48,.72,1.04,1.08,1.67,1.08,1.57,0,2.6-2.01,3.08-6.02l.69-5.95Zm15.85-45.28c-.43,5.56-2.75,8.34-6.94,8.34-1.96,0-3.69-.66-5.2-1.98,1.98-2.53,3.15-4.72,3.52-6.56,1.82,1.12,3.34,1.67,4.55,1.67,1.37,0,2.72-.49,4.07-1.47Z"/><path class="cls-1" d="M684.49,142.03c-2.89,2.85-5.49,4.95-7.79,6.31s-4.84,2.03-7.62,2.03c-3.1,0-5.6-.99-7.5-2.97s-2.85-4.59-2.85-7.83c0-4.83,1.68-9.2,5.03-13.11,3.35-3.91,7.06-5.86,11.14-5.86,2.12,0,3.82,.55,5.09,1.64s1.91,2.53,1.91,4.31c0,4.72-5.01,8.54-15.04,11.48,.91,4.44,3.29,6.67,7.14,6.67,1.5,0,2.94-.4,4.31-1.21,1.37-.81,3.43-2.6,6.19-5.38v3.93Zm-17.91-6.32c5.83-1.64,8.75-4.67,8.75-9.09,0-2.19-.8-3.28-2.39-3.28-1.5,0-2.94,1.15-4.31,3.44s-2.05,5.27-2.05,8.94Z"/><path class="cls-1" d="M721,142.03c-3.01,2.85-5.53,4.95-7.55,6.31-2.03,1.36-3.85,2.03-5.47,2.03-1.8,0-3.19-.72-4.15-2.15s-1.45-3.38-1.45-5.84c-2.51,2.76-4.75,4.79-6.73,6.1s-3.92,1.97-5.81,1.97c-1.73,0-3.12-.72-4.17-2.15s-1.57-3.38-1.57-5.84c0-4.74,1.6-11.42,4.79-20.03l9.13-1.82c-3.75,10.92-5.63,17.93-5.64,21.03,0,2.19,.82,3.28,2.46,3.28,1.19,0,2.65-.96,4.41-2.89,1.75-1.93,2.85-3.61,3.28-5.04l4.48-14.56,9.3-1.88c-2.15,6.86-3.62,11.68-4.42,14.46-.8,2.78-1.2,4.73-1.2,5.85,0,2.14,.73,3.21,2.19,3.21,1.19,0,2.94-1.08,5.27-3.25l2.87-2.7v3.93Z"/><path class="cls-1" d="M746.53,142.03c-5.72,5.61-10.13,8.41-13.23,8.41-1.39,0-2.56-.59-3.52-1.76s-1.44-2.63-1.44-4.36c0-3.21,1.72-7.52,5.16-12.92-1.69,.87-3.53,1.47-5.54,1.81-1.48,2.73-3.8,5.67-6.97,8.82h-.79v-3.08c1.78-1.85,3.38-3.83,4.82-5.95-1.96-.87-2.94-2.15-2.94-3.86s.6-3.63,1.79-5.62c1.2-1.99,2.84-2.99,4.94-2.99,1.78,0,2.67,.91,2.67,2.73,0,1.44-.51,3.49-1.54,6.15,3.78-.41,7.09-3.3,9.91-8.68l3.11-.14-3.18,8.75c-1.32,3.69-2.18,6.2-2.56,7.54-.39,1.33-.58,2.51-.58,3.54,0,.96,.22,1.72,.67,2.29,.44,.57,1.04,.85,1.79,.85,.82,0,1.61-.28,2.36-.84,.75-.56,2.44-2.1,5.06-4.63v3.93Z"/><path class="cls-1" d="M757.06,122c1.57-.41,3.15-.75,4.75-1.01,1.6-.26,2.55-.39,2.87-.39,.23,0,.34,.09,.34,.27,0,.34-.09,.69-.27,1.06-.37,1.05-.55,2.05-.55,3.01,0,1.18,.69,2.8,2.05,4.85s2.05,3.96,2.05,5.71c0,3.49-1.67,6.85-5.01,10.08-3.34,3.24-6.8,4.85-10.38,4.85-1.55,0-2.96-.41-4.24-1.23s-1.91-1.7-1.91-2.63c0-.55,.63-1.58,1.9-3.11,1.26-1.53,2.17-2.29,2.72-2.29,.73,0,1.38,.93,1.95,2.8,.57,1.87,1.55,2.8,2.94,2.8s2.7-.64,3.91-1.93,1.83-2.67,1.83-4.15c0-1.44-.77-3.35-2.32-5.74-1.55-2.39-2.58-4.4-3.08-6.02-2.64,4.26-5.99,8.62-10.05,13.09h-.79v-3.08c5.58-5.95,9.34-11.6,11.28-16.95Z"/></g></g></g><g id="_반짝이"><polygon class="cls-8" points="869.57 882.53 888.66 956.62 950.15 971.84 888.66 988.54 869.57 1064 849.45 988.54 788.99 971.84 849.45 956.62 869.57 882.53"/><polygon class="cls-9" points="186.09 1093.01 194.61 1126.08 222.05 1132.87 194.61 1140.32 186.09 1174 177.11 1140.32 150.13 1132.87 177.11 1126.08 186.09 1093.01"/><polygon class="cls-9" points="824.09 1283.01 832.61 1316.08 860.05 1322.87 832.61 1330.32 824.09 1364 815.11 1330.32 788.13 1322.87 815.11 1316.08 824.09 1283.01"/><circle class="cls-9" cx="926.66" cy="1069.72" r="14.88"/><circle class="cls-8" cx="217" cy="1263" r="19"/><circle class="cls-9" cx="247.5" cy="1325.5" r="9.5"/><circle class="cls-9" cx="395.5" cy="1385.5" r="5.5"/><circle class="cls-8" cx="889" cy="1143" r="8"/></g><g id="_은둔자"><path class="cls-9" d="M576,802.5c.39-.11,.89-.25,1.49-.4,0,0,1.04-.27,2.07-.51,6.89-1.61,18.06-3.29,31.44-1.08,9.25,1.52,16.7,4.42,22,7,0,0,4.97,4.13,8,11,8.82,20,63.82,286.69,68,307,1.51,6.89,3.03,16.5,3,28-.06,25.09-7.43,43.95-11,52-9.22,20.78-21.94,34.51-30,42-7.67,0-16.33-1.5-24-1.5,16.88-20.45,25.73-30.96,32-44,7.53-15.66,8.37-25.84,9-33,1.47-16.72-1-33-3-42-20.67-94-41.83-188.5-62.5-282.5-.48-2.37-1.52-6.08-4-10-1.28-2.03-3.95-6.15-9-9-4.26-2.41-8.12-2.72-12-3-4.43-.32-11.92-.23-21,3-.17-7.67-.33-15.33-.5-23Z"/><path class="cls-9" d="M520,802.5c-.39-.11-.89-.25-1.49-.4,0,0-1.04-.27-2.07-.51-6.89-1.61-18.06-3.29-31.44-1.08-9.25,1.52-16.7,4.42-22,7,0,0-4.97,4.13-8,11-8.82,20-63.82,286.69-68,307-1.51,6.89-3.03,16.5-3,28,.06,25.09,7.43,43.95,11,52,9.22,20.78,21.94,34.51,30,42,7.67,0,16.33-1.5,24-1.5-16.88-20.45-25.73-30.96-32-44-7.53-15.66-8.37-25.84-9-33-1.47-16.72,1-33,3-42,20.67-94,41.83-188.5,62.5-282.5,.48-2.37,1.52-6.08,4-10,1.28-2.03,3.95-6.15,9-9,4.26-2.41,8.12-2.72,12-3,4.43-.32,11.92-.23,21,3,.17-7.67,.33-15.33,.5-23Z"/><rect class="cls-4" x="498" y="770" width="97" height="93"/><rect class="cls-3" x="403" y="1230" width="290" height="45"/><polygon class="cls-2" points="547.5 894 567.89 1046.29 622.87 1020.15 596.73 1075.13 791.9 1095.53 596.73 1115.92 622.87 1170.9 567.89 1144.76 547.5 1341 527.1 1144.76 472.13 1170.9 498.26 1115.92 318.1 1095.53 498.26 1075.13 472.13 1020.15 527.1 1046.29 547.5 894"/><rect class="cls-3" x="476" y="752" width="142" height="22" rx="11" ry="11"/><rect class="cls-3" x="522" y="723" width="48" height="45" rx="12" ry="12"/><line class="cls-6" x1="549.5" y1="489.5" x2="549.5" y2="676.5"/><line class="cls-5" x1="493.29" y1="594.59" x2="516.34" y2="680.6"/><line class="cls-6" x1="391.87" y1="531.2" x2="485.37" y2="693.15"/><line class="cls-5" x1="394.21" y1="648.79" x2="458.7" y2="713.28"/><line class="cls-6" x1="276.2" y1="646.13" x2="438.15" y2="739.63"/><line class="cls-5" x1="330.97" y1="745.18" x2="425.12" y2="770.41"/><line class="cls-6" x1="233.5" y1="803.5" x2="420.5" y2="803.5"/><line class="cls-5" x1="328.69" y1="862.36" x2="424.6" y2="836.66"/><line class="cls-5" x1="777.99" y1="867.03" x2="671.88" y2="838.6"/><line class="cls-6" x1="863.5" y1="805.5" x2="676.5" y2="805.5"/><line class="cls-5" x1="779.74" y1="743.57" x2="672.4" y2="772.34"/><line class="cls-6" x1="821.8" y1="647.87" x2="659.85" y2="741.37"/><line class="cls-5" x1="715.21" y1="639.21" x2="639.72" y2="714.7"/><line class="cls-6" x1="706.87" y1="532.2" x2="613.37" y2="694.15"/><line class="cls-5" x1="606.54" y1="591.73" x2="582.59" y2="681.12"/></g></svg>